<svg xmlns="http://www.w3.org/2000/svg" width="194" height="160" viewBox="0 0 194 160">
  <style>
    .a {
      stroke: none;
      fill: rgb(90.196078%,90.196078%,90.196078%);
    }
    .b {
      stroke: none;
      fill: rgb(100%,100%,100%);
    }
    .c {
      stroke: none;
      fill: rgb(100%,72.156863%,72.156863%);
    }
    .d {
      stroke: none;
      fill: rgb(18.431373%,18.039216%,25.490196%);
    }
    .e {
      stroke: none;
      fill: rgb(38.823529%,59.607843%,100%);
    }
  </style>
  <path
    d="M182.1 148.7C185.5 144.9 201.2 126.2 190 123.1 181.6 120.8 180.7 133.6 181 142.1 179.6 136.3 177 129.6 172.5 132.6 165.9 136.9 178.2 146.3 181.4 148.7 181.5 149.1 181.5 149.4 181.5 149.4 181.5 149.4 181.7 149.2 181.9 149 182.1 149.1 182.2 149.2 182.2 149.2 182.2 149.2 182.2 149 182.1 148.7ZM182.1 148.7"
    class="a"/>
  <path
    d="M13.3 159.1C17.1 154.8 35 133.3 22.3 129.8 12.7 127.2 11.6 141.8 11.9 151.5 10.4 144.9 7.4 137.2 2.2 140.6 -5.4 145.5 8.8 156.4 12.5 159 12.5 159.6 12.6 159.9 12.6 159.9 12.6 159.9 12.7 159.7 13 159.4 13.2 159.6 13.3 159.6 13.3 159.6 13.3 159.6 13.3 159.5 13.3 159.1ZM13.3 159.1"
    class="a"/>
  <path d="M55.3 12.8C54.6 12.8 54.1 13.3 54.1 14L54.1 147.8C54.1 148.5 54.6 149 55.3 149L162.8 149C163.5 149 164 148.5 164 147.8L164 14C164 13.3 163.5 12.8 162.8 12.8ZM55.3 12.8" class="a"/><path d="M145.7 71.2L72.4 71.2C71.4 71.2 70.5 70.3 70.5 69.3 70.5 68.3 71.4 67.4 72.4 67.4L145.7 67.4C146.7 67.4 147.6 68.3 147.6 69.3 147.6 70.3 146.7 71.2 145.7 71.2ZM145.7 71.2" class="b"/><path d="M146.3 36.2L97.7 36.2C97 36.2 96.5 35.4 96.5 34.4 96.5 33.3 97 32.5 97.7 32.5L146.3 32.5C147 32.5 147.6 33.3 147.6 34.4 147.6 35.4 147 36.2 146.3 36.2ZM146.3 36.2" class="b"/>
  <path d="M146.3 47L97.7 47C97 47 96.5 46.1 96.5 45.1 96.5 44.1 97 43.2 97.7 43.2L146.3 43.2C147 43.2 147.6 44.1 147.6 45.1 147.6 46.1 147 47 146.3 47ZM146.3 47" class="b"/><path d="M145.7 83.3L72.4 83.3C71.4 83.3 70.5 82.5 70.5 81.4 70.5 80.4 71.4 79.5 72.4 79.5L145.7 79.5C146.7 79.5 147.6 80.4 147.6 81.4 147.6 82.5 146.7 83.3 145.7 83.3ZM145.7 83.3" class="b"/><path d="M145.7 95.4L72.4 95.4C71.4 95.4 70.5 94.6 70.5 93.5 70.5 92.5 71.4 91.7 72.4 91.7L145.7 91.7C146.7 91.7 147.6 92.5 147.6 93.5 147.6 94.6 146.7 95.4 145.7 95.4ZM145.7 95.4" class="b"/>
  <path d="M145.7 107.5L72.4 107.5C71.4 107.5 70.5 106.7 70.5 105.7 70.5 104.6 71.4 103.8 72.4 103.8L145.7 103.8C146.7 103.8 147.6 104.6 147.6 105.7 147.6 106.7 146.7 107.5 145.7 107.5ZM145.7 107.5" class="b"/><path d="M145.7 119.7L72.4 119.7C71.4 119.7 70.5 118.8 70.5 117.8 70.5 116.8 71.4 115.9 72.4 115.9L145.7 115.9C146.7 115.9 147.6 116.8 147.6 117.8 147.6 118.8 146.7 119.7 145.7 119.7ZM145.7 119.7" class="b"/><path d="M145.7 131.8L72.4 131.8C71.4 131.8 70.5 131 70.5 129.9 70.5 128.9 71.4 128 72.4 128L145.7 128C146.7 128 147.6 128.9 147.6 129.9 147.6 131 146.7 131.8 145.7 131.8ZM145.7 131.8" class="b"/>
  <path d="M90.2 39.9C90.2 45.3 85.8 49.7 80.4 49.7 74.9 49.7 70.5 45.3 70.5 39.9 70.5 34.4 74.9 30 80.4 30 85.8 30 90.2 34.4 90.2 39.9ZM90.2 39.9" class="b"/><path d="M72.9 74.5L58.2 82.3 58 75.8C62.8 75 67.4 73.6 71.6 71.3L73.1 67.5C73.5 66.7 74.3 66.1 75.1 65.9 76 65.8 76.9 66.1 77.5 66.8 78.4 67.9 78.3 69.4 77.3 70.4ZM72.9 74.5" class="c"/><path d="M37 119.7C36.8 118.9 36.9 118 37.4 117.4L40.6 112.4C42.2 110 45.4 109.1 47.9 110.5 46.6 112.8 46.8 114.8 48.4 116.6 45.9 117.8 43.5 119.4 41.4 121.3 40.7 121.8 39.7 122 38.8 121.6 37.9 121.3 37.3 120.6 37 119.7ZM37 119.7" class="d"/>
  <path d="M73.6 113.2C72.6 114.9 70.8 115.9 68.9 115.9L47.4 116.1 46.5 110.7 56 107.9 48 101.7 56.7 91.5 72.6 106.3C74.5 108.1 74.9 111 73.6 113.2ZM73.6 113.2" class="d"/><path d="M44.1 150.2L39.1 150.2C34.6 119.2 30 88.1 43.5 76.5L59.5 79.2 57.5 92.8 48.6 103ZM44.1 150.2" class="d"/><path d="M48 159.7C47.2 159.9 46.4 159.8 45.7 159.3L40.7 156.1C38.3 154.5 37.5 151.3 38.8 148.8 41.1 150.1 43.1 149.9 44.9 148.3 46.1 150.8 47.7 153.2 49.6 155.3 50.2 156 50.3 157 50 157.9 49.6 158.8 48.9 159.4 48 159.7ZM48 159.7" class="d"/>
  <path d="M66 55L42.1 55C37.7 48.8 37.2 42.8 42.1 37.2 42.1 34.7 45.3 32.7 49.3 32.7 52.3 32.7 55.1 34 56 35.8ZM66 55" class="d"/>
  <path d="M56 55.9L46.7 53.6C48.2 50.4 48.4 46.9 47.6 43.2L53.9 43C54.1 47.6 54.7 52 56 55.9ZM56 55.9" class="c"/>
  <path d="M58.6 84.8C51.8 89.4 47 84.9 43.4 78 43.9 73.8 43 68.8 41.5 63.3 40.1 58.3 42.8 53 47.6 51.2L55.6 54.5C62.4 60.1 63.8 66.1 61.2 72.4ZM58.6 84.8" class="e"/>
  <path d="M39.1 60.5L31.6 64.4 44.8 72.3 46.7 76.8C46.9 77.4 46.9 78.1 46.6 78.7 46.4 79.3 45.9 79.8 45.2 80 44.5 80.2 43.7 80.1 43.1 79.7 42.5 79.3 42.1 78.6 42.1 77.8L41.9 74.7 25.1 69.1C23.9 68.7 23 67.9 22.6 66.7 22 65 22.6 63.2 24.1 62.1L37.6 52.9ZM39.1 60.5" class="c"/>
  <path d="M46.5 61.3C43.4 59.9 40.6 61.4 37 62.6L36.5 52.7C40 50.8 43.4 50.3 46.5 51.8ZM46.5 61.3" class="e"/>
  <path
    d="M65.6 55L60.3 55C57 49 57.2 38.3 50.1 40.6 45.6 37.9 48.2 48.5 47.1 55L42.5 55C41.3 48.7 41.2 42.3 42.7 37.1 42.7 36.4 43.1 35.8 43.6 35.3 43.8 35.1 44.1 34.9 44.3 34.8 45.9 33.8 47 33.2 49.4 33.2 50.7 33.2 52 33.4 53.3 33.7 53.5 33.8 53.6 33.8 53.8 33.9 54 33.9 54.2 34 54.4 34.1 55.4 34.6 56.3 35.2 56.6 35.9 61.1 41.2 63.4 48 65.6 55ZM65.6 55"
    class="d"/>
  <path d="M56.2 41.9C56.2 45.2 53.5 47.9 50.2 47.9 46.9 47.9 44.3 45.2 44.3 41.9 44.3 38.6 46.9 36 50.2 36 53.5 36 56.2 38.6 56.2 41.9ZM56.2 41.9" class="c"/><path d="M56.2 39.6C54.5 37.2 49.8 40.1 44.2 42.2L44.2 36.4C48.8 34.4 51.5 33.8 54.5 35.9ZM56.2 39.6" class="d"/><path d="M175 14.4C175 22.4 168.6 28.8 160.6 28.8 152.7 28.8 146.2 22.4 146.2 14.4 146.2 6.5 152.7 0 160.6 0 168.6 0 175 6.5 175 14.4ZM175 14.4" class="e"/><path
    d="M154.6 13.5C154.1 13.5 153.7 13.9 153.7 14.4 153.7 14.9 154.1 15.4 154.6 15.4L159.7 15.4 159.7 20.4C159.7 20.9 160.1 21.4 160.6 21.4 161.1 21.4 161.6 20.9 161.6 20.4L161.6 15.4 166.6 15.4C167.1 15.4 167.6 14.9 167.6 14.4 167.6 13.9 167.1 13.5 166.6 13.5L161.6 13.5 161.6 8.4C161.6 7.9 161.1 7.5 160.6 7.5 160.1 7.5 159.7 7.9 159.7 8.4L159.7 13.5ZM154.6 13.5"
    class="b"/>
</svg>
