<?xml version="1.0" encoding="UTF-8"?>
<svg xmlns="http://www.w3.org/2000/svg" xmlns:xlink="http://www.w3.org/1999/xlink" width="244pt" height="169pt" viewBox="0 0 244 169" version="1.1">
<g id="surface1">
<path style=" stroke:none;fill-rule:nonzero;fill:rgb(18.431373%,18.039216%,25.490196%);fill-opacity:1;" d="M 22.046875 73.820312 C 17.53125 77.523438 24.921875 110.019531 24.921875 110.019531 C 24.921875 110.019531 26.5625 159.585938 30.050781 161.851562 C 33.542969 164.113281 41.34375 161.644531 44.421875 161.234375 C 47.5 160.820312 44.832031 130.175781 40.316406 118.863281 C 35.800781 107.550781 39.289062 91.097656 39.289062 91.097656 L 63.71875 95.828125 C 63.71875 95.828125 48.9375 108.375 49.554688 111.046875 C 50.171875 113.722656 65.976562 122.769531 68.851562 123.183594 C 71.722656 123.59375 77.265625 106.730469 82.191406 95.210938 C 87.121094 83.691406 48.527344 76.289062 48.527344 76.289062 L 43.191406 66.210938 C 43.191406 66.210938 26.5625 70.117188 22.046875 73.820312 Z M 22.046875 73.820312 "/>
<path style=" stroke:none;fill-rule:nonzero;fill:rgb(18.431373%,18.039216%,25.490196%);fill-opacity:1;" d="M 34.308594 162.703125 C 34.308594 162.703125 32.816406 167.925781 34.308594 167.925781 C 35.796875 167.925781 38.527344 169.417969 42.75 168.921875 C 46.96875 168.425781 45.726562 163.199219 42.75 162.453125 C 39.769531 161.707031 40.515625 155.738281 40.515625 155.738281 C 39.519531 153.75 34.804688 156.234375 34.804688 156.234375 Z M 34.308594 162.703125 "/>
<path style=" stroke:none;fill-rule:nonzero;fill:rgb(18.431373%,18.039216%,25.490196%);fill-opacity:1;" d="M 55.457031 121.164062 C 55.457031 121.164062 52.898438 125.957031 54.355469 126.269531 C 55.8125 126.585938 58.167969 128.621094 62.398438 129.027344 C 66.628906 129.433594 66.515625 124.0625 63.757812 122.703125 C 61.003906 121.34375 62.988281 115.667969 62.988281 115.667969 C 62.4375 113.511719 57.300781 114.945312 57.300781 114.945312 Z M 55.457031 121.164062 "/>
<path style=" stroke:none;fill-rule:nonzero;fill:rgb(100%,72.54902%,72.54902%);fill-opacity:1;" d="M 24.816406 29.292969 C 25.230469 30.113281 23.382812 40.398438 23.382812 40.398438 L 25.023438 43.277344 C 25.023438 43.277344 34.464844 39.574219 33.027344 38.957031 C 31.59375 38.339844 31.796875 30.730469 31.796875 30.730469 C 31.796875 30.730469 24.40625 28.46875 24.816406 29.292969 Z M 24.816406 29.292969 "/>
<path style=" stroke:none;fill-rule:nonzero;fill:rgb(18.431373%,18.039216%,25.490196%);fill-opacity:1;" d="M 40.957031 19.851562 C 40.957031 26.816406 35.324219 32.460938 28.371094 32.460938 C 21.421875 32.460938 15.785156 26.816406 15.785156 19.851562 C 15.785156 12.886719 21.421875 7.238281 28.371094 7.238281 C 35.324219 7.238281 40.957031 12.886719 40.957031 19.851562 Z M 40.957031 19.851562 "/>
<path style=" stroke:none;fill-rule:nonzero;fill:rgb(18.431373%,18.039216%,25.490196%);fill-opacity:1;" d="M 32.710938 8.042969 C 32.710938 10.925781 30.378906 13.261719 27.503906 13.261719 C 24.628906 13.261719 22.296875 10.925781 22.296875 8.042969 C 22.296875 5.164062 24.628906 2.828125 27.503906 2.828125 C 30.378906 2.828125 32.710938 5.164062 32.710938 8.042969 Z M 32.710938 8.042969 "/>
<path style=" stroke:none;fill-rule:nonzero;fill:rgb(18.431373%,18.039216%,25.490196%);fill-opacity:1;" d="M 29.78125 10.410156 C 29.964844 10.425781 30.144531 10.4375 30.324219 10.4375 C 33.203125 10.4375 35.535156 8.101562 35.535156 5.21875 C 35.535156 2.335938 33.203125 0 30.324219 0 C 30.144531 0 29.964844 0.0078125 29.78125 0.0273438 C 32.433594 0.304688 34.449219 2.546875 34.449219 5.21875 C 34.449219 7.890625 32.433594 10.128906 29.78125 10.410156 Z M 29.78125 10.410156 "/>
<path style=" stroke:none;fill-rule:nonzero;fill:rgb(100%,72.54902%,72.54902%);fill-opacity:1;" d="M 37.339844 26 C 37.339844 30.773438 33.480469 34.640625 28.71875 34.640625 C 23.957031 34.640625 20.097656 30.773438 20.097656 26 C 20.097656 21.230469 23.957031 17.363281 28.71875 17.363281 C 33.480469 17.363281 37.339844 21.230469 37.339844 26 Z M 37.339844 26 "/>
<path style=" stroke:none;fill-rule:nonzero;fill:rgb(90.196078%,90.196078%,90.196078%);fill-opacity:1;" d="M 16.300781 39.265625 C 13.628906 39.882812 9.113281 46.464844 9.113281 46.464844 L 16.300781 53.664062 C 16.300781 53.664062 21.429688 72.996094 22.046875 73.820312 C 26.082031 79.210938 44.21875 67.238281 44.21875 67.238281 C 44.21875 67.238281 43.5 61.378906 43.910156 58.496094 C 44.304688 55.726562 42.371094 50.167969 42.371094 50.167969 C 42.371094 50.167969 49.144531 47.289062 47.707031 44.410156 C 46.269531 41.527344 37.441406 34.949219 33.746094 37.210938 C 30.050781 39.472656 22.664062 37.210938 22.664062 37.210938 C 22.664062 37.210938 18.96875 38.648438 16.300781 39.265625 Z M 16.300781 39.265625 "/>
<path style=" stroke:none;fill-rule:nonzero;fill:rgb(100%,72.54902%,72.54902%);fill-opacity:1;" d="M 68.746094 80.710938 C 68.746094 80.710938 80.449219 90.789062 83.324219 88.730469 C 86.195312 86.675781 72.238281 79.476562 72.238281 79.476562 Z M 68.746094 80.710938 "/>
<path style=" stroke:none;fill-rule:nonzero;fill:rgb(100%,72.54902%,72.54902%);fill-opacity:1;" d="M 16.195312 77.214844 C 17.839844 79.066406 25.640625 74.335938 24.640625 72.234375 C 23.640625 70.132812 17.429688 74.335938 17.429688 74.335938 C 17.429688 74.335938 14.554688 75.363281 16.195312 77.214844 Z M 16.195312 77.214844 "/>
<path style=" stroke:none;fill-rule:nonzero;fill:rgb(90.196078%,90.196078%,90.196078%);fill-opacity:1;" d="M 16.300781 49.34375 L 7.675781 65.386719 C 7.675781 65.386719 17.53125 73.613281 18.761719 73.820312 C 19.992188 74.027344 16.300781 79.375 16.300781 79.375 C 16.300781 79.375 5.214844 71.558594 0.902344 67.648438 C -3.40625 63.742188 9.113281 46.464844 9.113281 46.464844 L 12.808594 44.203125 Z M 16.300781 49.34375 "/>
<path style=" stroke:none;fill-rule:nonzero;fill:rgb(90.196078%,90.196078%,90.196078%);fill-opacity:1;" d="M 41.34375 48.726562 L 51.402344 64.359375 C 51.402344 64.359375 66.796875 81.636719 68.851562 82.457031 C 70.902344 83.28125 73.367188 79.375 73.367188 79.375 L 54.890625 56.953125 L 47.910156 44.410156 L 45.242188 43.378906 Z M 41.34375 48.726562 "/>
<path style=" stroke:none;fill-rule:nonzero;fill:rgb(18.431373%,18.039216%,25.490196%);fill-opacity:1;" d="M 37.050781 15.738281 C 37.050781 12.855469 33.167969 10.519531 28.371094 10.519531 C 23.578125 10.519531 19.691406 12.855469 19.691406 15.738281 C 19.691406 18.617188 23.578125 20.957031 28.371094 20.957031 C 33.167969 20.957031 37.050781 18.617188 37.050781 15.738281 Z M 37.050781 15.738281 "/>
<path style=" stroke:none;fill-rule:nonzero;fill:rgb(90.196078%,90.196078%,90.196078%);fill-opacity:1;" d="M 52.722656 128.328125 C 52.132812 128.328125 51.652344 128.808594 51.648438 129.402344 L 51.648438 166.070312 C 51.652344 166.664062 52.132812 167.144531 52.722656 167.148438 L 177.519531 167.148438 C 178.109375 167.144531 178.589844 166.664062 178.589844 166.070312 L 178.589844 129.402344 C 178.589844 128.808594 178.109375 128.328125 177.519531 128.328125 Z M 52.722656 128.328125 "/>
<path style=" stroke:none;fill-rule:nonzero;fill:rgb(100%,100%,100%);fill-opacity:1;" d="M 54.339844 164.453125 L 175.902344 164.453125 L 175.902344 131.019531 L 54.339844 131.019531 Z M 54.339844 164.453125 "/>
<path style=" stroke:none;fill-rule:nonzero;fill:rgb(38.823529%,59.607843%,100%);fill-opacity:1;" d="M 160.558594 157.515625 C 159.921875 157.515625 159.335938 157.855469 159.015625 158.40625 C 158.699219 158.957031 158.699219 159.636719 159.015625 160.1875 C 159.335938 160.742188 159.921875 161.078125 160.558594 161.078125 L 167.667969 161.078125 C 168.648438 161.078125 169.445312 160.28125 169.445312 159.296875 C 169.445312 158.316406 168.648438 157.515625 167.667969 157.515625 Z M 160.558594 157.515625 "/>
<path style=" stroke:none;fill-rule:nonzero;fill:rgb(90.196078%,90.196078%,90.196078%);fill-opacity:1;" d="M 87.371094 154.0625 L 169.445312 154.0625 L 169.445312 154.53125 L 87.371094 154.53125 Z M 87.371094 154.0625 "/>
<path style=" stroke:none;fill-rule:nonzero;fill:rgb(38.823529%,59.607843%,100%);fill-opacity:1;" d="M 80.566406 147.738281 C 80.566406 153.464844 75.929688 158.109375 70.214844 158.109375 C 64.496094 158.109375 59.859375 153.464844 59.859375 147.738281 C 59.859375 142.007812 64.496094 137.363281 70.214844 137.363281 C 75.929688 137.363281 80.566406 142.007812 80.566406 147.738281 Z M 80.566406 147.738281 "/>
<path style=" stroke:none;fill-rule:nonzero;fill:rgb(24.705882%,23.921569%,33.72549%);fill-opacity:1;" d="M 87.5 151.445312 L 87.242188 151.054688 L 95.769531 145.359375 L 101.617188 148.171875 L 110.03125 142.789062 L 126.765625 149.9375 L 140.089844 143.378906 L 153.03125 148.636719 L 169.289062 134.207031 L 169.601562 134.558594 L 153.125 149.179688 L 140.109375 143.894531 L 126.777344 150.453125 L 110.074219 143.316406 L 101.648438 148.707031 L 95.808594 145.898438 Z M 87.5 151.445312 "/>
<path style=" stroke:none;fill-rule:nonzero;fill:rgb(90.196078%,90.196078%,90.196078%);fill-opacity:1;" d="M 88.890625 157.761719 C 88.347656 157.761719 87.84375 158.050781 87.570312 158.523438 C 87.300781 158.996094 87.300781 159.574219 87.570312 160.046875 C 87.84375 160.519531 88.347656 160.808594 88.890625 160.808594 L 104.789062 160.808594 C 105.628906 160.808594 106.308594 160.125 106.308594 159.285156 C 106.308594 158.445312 105.628906 157.761719 104.789062 157.761719 Z M 88.890625 157.761719 "/>
<path style=" stroke:none;fill-rule:nonzero;fill:rgb(100%,100%,100%);fill-opacity:1;" d="M 74.167969 143.097656 L 75.785156 143.097656 L 72.417969 146.433594 C 71.195312 147.640625 69.230469 147.640625 68.007812 146.433594 L 64.640625 143.097656 L 66.257812 143.097656 L 68.816406 145.632812 C 69.589844 146.398438 70.835938 146.398438 71.609375 145.632812 Z M 66.238281 152.378906 L 64.621094 152.378906 L 68.007812 149.019531 C 69.230469 147.8125 71.195312 147.8125 72.417969 149.019531 L 75.804688 152.378906 L 74.1875 152.378906 L 71.609375 149.820312 C 70.835938 149.054688 69.589844 149.054688 68.816406 149.820312 Z M 66.238281 152.378906 "/>
<path style=" stroke:none;fill-rule:nonzero;fill:rgb(90.196078%,90.196078%,90.196078%);fill-opacity:1;" d="M 68.972656 10.871094 C 68.382812 10.871094 67.902344 11.351562 67.902344 11.945312 L 67.902344 48.617188 C 67.902344 49.210938 68.382812 49.691406 68.972656 49.691406 L 193.769531 49.691406 C 194.359375 49.691406 194.839844 49.210938 194.84375 48.617188 L 194.84375 11.945312 C 194.839844 11.351562 194.359375 10.871094 193.769531 10.871094 Z M 68.972656 10.871094 "/>
<path style=" stroke:none;fill-rule:nonzero;fill:rgb(100%,100%,100%);fill-opacity:1;" d="M 70.589844 46.996094 L 192.152344 46.996094 L 192.152344 13.566406 L 70.589844 13.566406 Z M 70.589844 46.996094 "/>
<path style=" stroke:none;fill-rule:nonzero;fill:rgb(38.823529%,59.607843%,100%);fill-opacity:1;" d="M 176.808594 40.0625 C 175.828125 40.0625 175.03125 40.859375 175.03125 41.84375 C 175.03125 42.824219 175.828125 43.621094 176.808594 43.621094 L 183.917969 43.621094 C 184.898438 43.621094 185.695312 42.824219 185.695312 41.84375 C 185.695312 40.859375 184.898438 40.0625 183.917969 40.0625 Z M 176.808594 40.0625 "/>
<path style=" stroke:none;fill-rule:nonzero;fill:rgb(90.196078%,90.196078%,90.196078%);fill-opacity:1;" d="M 103.621094 36.605469 L 185.695312 36.605469 L 185.695312 37.074219 L 103.621094 37.074219 Z M 103.621094 36.605469 "/>
<path style=" stroke:none;fill-rule:nonzero;fill:rgb(38.823529%,59.607843%,100%);fill-opacity:1;" d="M 96.816406 30.28125 C 96.816406 36.007812 92.183594 40.652344 86.464844 40.652344 C 80.746094 40.652344 76.109375 36.007812 76.109375 30.28125 C 76.109375 24.550781 80.746094 19.90625 86.464844 19.90625 C 92.183594 19.90625 96.816406 24.550781 96.816406 30.28125 Z M 96.816406 30.28125 "/>
<path style=" stroke:none;fill-rule:nonzero;fill:rgb(24.705882%,23.921569%,33.72549%);fill-opacity:1;" d="M 103.75 33.988281 L 103.492188 33.601562 L 112.019531 27.902344 L 117.867188 30.714844 L 126.28125 25.332031 L 126.394531 25.378906 L 143.015625 32.484375 L 156.339844 25.925781 L 169.28125 31.179688 L 185.539062 16.75 L 185.851562 17.101562 L 169.375 31.722656 L 156.359375 26.4375 L 143.027344 33 L 126.324219 25.859375 L 117.902344 31.25 L 112.058594 28.441406 Z M 103.75 33.988281 "/>
<path style=" stroke:none;fill-rule:nonzero;fill:rgb(90.196078%,90.196078%,90.196078%);fill-opacity:1;" d="M 105.140625 40.304688 C 104.300781 40.308594 103.621094 40.988281 103.621094 41.828125 C 103.621094 42.667969 104.300781 43.351562 105.140625 43.351562 L 121.039062 43.351562 C 121.878906 43.351562 122.5625 42.667969 122.5625 41.828125 C 122.5625 40.988281 121.878906 40.304688 121.039062 40.304688 Z M 105.140625 40.304688 "/>
<path style=" stroke:none;fill-rule:nonzero;fill:rgb(100%,100%,100%);fill-opacity:1;" d="M 90.628906 29.070312 C 90.824219 27.773438 89.835938 27.074219 88.488281 26.609375 L 88.925781 24.851562 L 87.855469 24.582031 L 87.429688 26.296875 C 87.148438 26.226562 86.863281 26.160156 86.574219 26.09375 L 87.003906 24.371094 L 85.9375 24.105469 L 85.5 25.863281 C 85.265625 25.808594 85.039062 25.757812 84.816406 25.699219 L 84.816406 25.695312 L 83.34375 25.328125 L 83.058594 26.46875 C 83.058594 26.46875 83.851562 26.652344 83.835938 26.664062 C 84.144531 26.699219 84.367188 26.976562 84.335938 27.285156 L 83.835938 29.289062 C 83.875 29.296875 83.910156 29.308594 83.945312 29.324219 L 83.835938 29.296875 L 83.136719 32.101562 C 83.105469 32.203125 83.035156 32.285156 82.941406 32.332031 C 82.851562 32.378906 82.746094 32.386719 82.644531 32.355469 C 82.65625 32.371094 81.871094 32.164062 81.871094 32.164062 L 81.339844 33.386719 L 82.730469 33.734375 C 82.988281 33.800781 83.242188 33.867188 83.492188 33.933594 L 83.046875 35.710938 L 84.117188 35.976562 L 84.554688 34.21875 C 84.84375 34.296875 85.128906 34.371094 85.40625 34.441406 L 84.96875 36.191406 L 86.035156 36.457031 L 86.480469 34.683594 C 88.300781 35.027344 89.671875 34.890625 90.246094 33.238281 C 90.710938 31.910156 90.222656 31.140625 89.265625 30.640625 C 89.964844 30.480469 90.488281 30.019531 90.628906 29.070312 Z M 88.1875 32.5 C 87.859375 33.828125 85.625 33.109375 84.898438 32.929688 L 85.488281 30.574219 C 86.210938 30.753906 88.53125 31.113281 88.1875 32.5 Z M 88.519531 29.050781 C 88.21875 30.261719 86.359375 29.644531 85.753906 29.496094 L 86.285156 27.359375 C 86.890625 27.507812 88.832031 27.789062 88.519531 29.050781 Z M 88.519531 29.050781 "/>
<path style=" stroke:none;fill-rule:nonzero;fill:rgb(90.196078%,90.196078%,90.196078%);fill-opacity:1;" d="M 118.070312 69.597656 C 117.476562 69.597656 117 70.082031 116.996094 70.675781 L 116.996094 107.34375 C 117 107.9375 117.476562 108.417969 118.070312 108.417969 L 242.867188 108.417969 C 243.457031 108.417969 243.9375 107.9375 243.9375 107.34375 L 243.9375 70.675781 C 243.9375 70.082031 243.457031 69.597656 242.867188 69.597656 Z M 118.070312 69.597656 "/>
<path style=" stroke:none;fill-rule:nonzero;fill:rgb(100%,100%,100%);fill-opacity:1;" d="M 119.6875 105.722656 L 241.25 105.722656 L 241.25 72.292969 L 119.6875 72.292969 Z M 119.6875 105.722656 "/>
<path style=" stroke:none;fill-rule:nonzero;fill:rgb(38.823529%,59.607843%,100%);fill-opacity:1;" d="M 225.90625 98.789062 C 224.921875 98.789062 224.128906 99.585938 224.128906 100.570312 C 224.128906 101.554688 224.921875 102.351562 225.90625 102.351562 L 233.015625 102.351562 C 233.996094 102.351562 234.792969 101.554688 234.792969 100.570312 C 234.792969 99.585938 233.996094 98.789062 233.015625 98.789062 Z M 225.90625 98.789062 "/>
<path style=" stroke:none;fill-rule:nonzero;fill:rgb(90.196078%,90.196078%,90.196078%);fill-opacity:1;" d="M 152.71875 95.335938 L 234.792969 95.335938 L 234.792969 95.804688 L 152.71875 95.804688 Z M 152.71875 95.335938 "/>
<path style=" stroke:none;fill-rule:nonzero;fill:rgb(38.823529%,59.607843%,100%);fill-opacity:1;" d="M 145.914062 89.007812 C 145.914062 94.738281 141.277344 99.382812 135.5625 99.382812 C 129.84375 99.382812 125.207031 94.738281 125.207031 89.007812 C 125.207031 83.28125 129.84375 78.636719 135.5625 78.636719 C 141.277344 78.636719 145.914062 83.28125 145.914062 89.007812 Z M 145.914062 89.007812 "/>
<path style=" stroke:none;fill-rule:nonzero;fill:rgb(24.705882%,23.921569%,33.72549%);fill-opacity:1;" d="M 152.847656 92.71875 L 152.585938 92.328125 L 161.117188 86.632812 L 166.964844 89.445312 L 175.378906 84.058594 L 175.492188 84.109375 L 192.113281 91.210938 L 205.4375 84.652344 L 218.378906 89.910156 L 234.636719 75.480469 L 234.949219 75.832031 L 218.472656 90.453125 L 205.457031 85.164062 L 192.125 91.726562 L 175.421875 84.585938 L 166.996094 89.980469 L 161.15625 87.167969 Z M 152.847656 92.71875 "/>
<path style=" stroke:none;fill-rule:nonzero;fill:rgb(90.196078%,90.196078%,90.196078%);fill-opacity:1;" d="M 154.238281 99.035156 C 153.398438 99.035156 152.71875 99.714844 152.71875 100.558594 C 152.71875 101.398438 153.398438 102.078125 154.238281 102.078125 L 170.136719 102.078125 C 170.976562 102.078125 171.65625 101.398438 171.65625 100.558594 C 171.65625 99.714844 170.976562 99.035156 170.136719 99.035156 Z M 154.238281 99.035156 "/>
<path style=" stroke:none;fill-rule:nonzero;fill:rgb(100%,100%,100%);fill-opacity:1;" d="M 135.558594 95.84375 L 139.75 89.929688 L 135.558594 92.410156 L 131.371094 89.929688 Z M 135.558594 95.84375 "/>
<path style=" stroke:none;fill-rule:nonzero;fill:rgb(100%,100%,100%);fill-opacity:1;" d="M 135.558594 91.617188 L 139.75 89.136719 L 135.558594 82.171875 L 131.371094 89.136719 Z M 135.558594 91.617188 "/>
</g>
</svg>
