<?xml version="1.0" encoding="UTF-8"?>
<svg xmlns="http://www.w3.org/2000/svg" xmlns:xlink="http://www.w3.org/1999/xlink" width="189pt" height="169pt" viewBox="0 0 189 169" version="1.1">
<defs>
<filter id="alpha" filterUnits="objectBoundingBox" x="0%" y="0%" width="100%" height="100%">
  <feColorMatrix type="matrix" in="SourceGraphic" values="0 0 0 0 1 0 0 0 0 1 0 0 0 0 1 0 0 0 1 0"/>
</filter>
<mask id="mask0">
  <g filter="url(#alpha)">
<rect x="0" y="0" width="189" height="169" style="fill:rgb(0%,0%,0%);fill-opacity:0.2;stroke:none;"/>
  </g>
</mask>
<clipPath id="clip1">
  <rect x="0" y="0" width="189" height="169"/>
</clipPath>
<g id="surface5" clip-path="url(#clip1)">
<path style=" stroke:none;fill-rule:nonzero;fill:rgb(0%,0%,0%);fill-opacity:1;" d="M 159.105469 156.542969 C 159.105469 159.679688 130.15625 169.101562 94.449219 169.101562 C 58.738281 169.101562 29.789062 159.679688 29.789062 156.542969 C 29.789062 153.402344 58.738281 157.738281 94.449219 157.738281 C 130.15625 157.738281 159.105469 153.402344 159.105469 156.542969 Z M 159.105469 156.542969 "/>
</g>
<mask id="mask1">
  <g filter="url(#alpha)">
<rect x="0" y="0" width="189" height="169" style="fill:rgb(0%,0%,0%);fill-opacity:0.2;stroke:none;"/>
  </g>
</mask>
<clipPath id="clip2">
  <rect x="0" y="0" width="189" height="169"/>
</clipPath>
<g id="surface8" clip-path="url(#clip2)">
<path style=" stroke:none;fill-rule:nonzero;fill:rgb(0%,0%,0%);fill-opacity:1;" d="M 120.558594 157.109375 C 120.558594 155.730469 108.644531 154.613281 93.949219 154.613281 C 79.253906 154.613281 67.339844 155.730469 67.339844 157.109375 C 67.339844 158.488281 79.253906 159.605469 93.949219 159.605469 C 108.644531 159.605469 120.558594 158.488281 120.558594 157.109375 Z M 120.558594 157.109375 "/>
</g>
<mask id="mask2">
  <g filter="url(#alpha)">
<rect x="0" y="0" width="189" height="169" style="fill:rgb(0%,0%,0%);fill-opacity:0.301961;stroke:none;"/>
  </g>
</mask>
<clipPath id="clip3">
  <rect x="0" y="0" width="189" height="169"/>
</clipPath>
<g id="surface11" clip-path="url(#clip3)">
<path style=" stroke:none;fill-rule:nonzero;fill:rgb(38.823529%,59.607843%,100%);fill-opacity:1;" d="M 51.425781 104.4375 L 51.425781 110.179688 C 51.425781 133.71875 70.503906 152.867188 93.949219 152.867188 C 117.398438 152.867188 136.476562 133.71875 136.476562 110.179688 L 136.476562 104.4375 Z M 51.425781 104.4375 "/>
</g>
</defs>
<g id="surface1">
<path style=" stroke:none;fill-rule:nonzero;fill:rgb(90.196078%,90.196078%,90.196078%);fill-opacity:1;" d="M 70.425781 120.222656 L 48.699219 156.222656 L 48.742188 159.878906 C 47.152344 159.890625 45.578125 159.863281 44.019531 159.796875 L 45.101562 112.785156 L 45.070312 112.421875 L 45.109375 112.355469 L 45.214844 107.910156 L 21.371094 73.160156 L 45.1875 104.585938 L 45.269531 105.523438 L 46.085938 70.003906 L 25.488281 33.976562 L 46.144531 63.765625 L 46.003906 15.726562 L 45.960938 0 L 46.167969 0 L 46.539062 15.726562 L 47.304688 48.171875 L 66.074219 24.609375 L 47.363281 53.167969 L 47.773438 84.9375 L 65.046875 53.929688 L 47.839844 89.609375 L 48.066406 107.277344 L 73.183594 64.082031 L 48.144531 113.441406 L 48.652344 152.722656 Z M 70.425781 120.222656 "/>
<path style=" stroke:none;fill-rule:nonzero;fill:rgb(90.196078%,90.196078%,90.196078%);fill-opacity:1;" d="M 169.675781 109.515625 L 162.796875 123.066406 L 145.574219 157.019531 L 141.617188 157.019531 L 141.703125 153.34375 L 120.929688 123.066406 L 117.859375 118.59375 L 121.25 123.066406 L 141.675781 150.019531 L 141.761719 150.957031 L 142.402344 123.066406 L 142.574219 115.4375 L 121.980469 79.410156 L 142.636719 109.199219 L 142.417969 35.609375 L 142.417969 35.363281 L 142.425781 35.605469 L 143.792969 93.605469 L 162.5625 70.042969 L 143.855469 98.597656 L 144.167969 123.066406 L 144.265625 130.371094 L 148.332031 123.066406 L 161.539062 99.363281 L 150.101562 123.066406 L 144.328125 135.042969 L 144.554688 152.710938 L 161.792969 123.066406 Z M 169.675781 109.515625 "/>
<path style=" stroke:none;fill-rule:nonzero;fill:rgb(24.705882%,23.921569%,33.72549%);fill-opacity:1;" d="M 159.105469 156.542969 C 159.105469 159.679688 130.15625 169.101562 94.449219 169.101562 C 58.738281 169.101562 29.789062 159.679688 29.789062 156.542969 C 29.789062 153.402344 58.738281 157.738281 94.449219 157.738281 C 130.15625 157.738281 159.105469 153.402344 159.105469 156.542969 Z M 159.105469 156.542969 "/>
<use xlink:href="#surface5" mask="url(#mask0)"/>
<path style=" stroke:none;fill-rule:nonzero;fill:rgb(24.705882%,23.921569%,33.72549%);fill-opacity:1;" d="M 159.105469 156.542969 C 159.105469 153.402344 130.15625 150.859375 94.449219 150.859375 C 58.738281 150.859375 29.789062 153.402344 29.789062 156.542969 C 29.789062 159.679688 58.738281 162.222656 94.449219 162.222656 C 130.15625 162.222656 159.105469 159.679688 159.105469 156.542969 Z M 159.105469 156.542969 "/>
<use xlink:href="#surface8" mask="url(#mask1)"/>
<path style=" stroke:none;fill-rule:nonzero;fill:rgb(24.705882%,23.921569%,33.72549%);fill-opacity:1;" d="M 145.769531 99.761719 L 116.707031 99.761719 L 116.707031 99.945312 L 47.199219 99.945312 L 47.199219 110.054688 C 47.199219 136.042969 68.183594 157.109375 94.074219 157.109375 C 110.75 157.117188 126.167969 148.226562 134.570312 133.769531 L 145.769531 133.769531 C 155.128906 133.769531 162.710938 126.15625 162.710938 116.765625 C 162.710938 107.375 155.128906 99.761719 145.769531 99.761719 Z M 145.769531 128.527344 L 137.199219 128.527344 C 139.683594 122.6875 140.960938 116.402344 140.953125 110.054688 L 140.953125 105.003906 L 145.769531 105.003906 C 152.242188 105.003906 157.488281 110.269531 157.488281 116.765625 C 157.488281 123.261719 152.242188 128.527344 145.769531 128.527344 Z M 145.769531 128.527344 "/>
<path style=" stroke:none;fill-rule:nonzero;fill:rgb(38.823529%,59.607843%,100%);fill-opacity:1;" d="M 51.550781 104.3125 L 51.550781 110.054688 C 51.550781 133.59375 70.625 152.742188 94.074219 152.742188 C 117.523438 152.742188 136.601562 133.59375 136.601562 110.054688 L 136.601562 104.3125 Z M 51.550781 104.3125 "/>
<path style=" stroke:none;fill-rule:nonzero;fill:rgb(90.196078%,90.196078%,90.196078%);fill-opacity:1;" d="M 82.957031 144.921875 L 73.21875 134.847656 C 71.175781 132.730469 71.226562 129.351562 73.332031 127.296875 L 88.058594 112.957031 C 88.410156 112.613281 88.824219 112.34375 89.277344 112.164062 L 92.476562 110.878906 C 93.886719 110.3125 95.5 110.660156 96.554688 111.753906 L 106.722656 122.269531 C 107.746094 123.332031 108.058594 124.894531 107.519531 126.269531 L 106.445312 129.015625 C 106.25 129.511719 105.949219 129.964844 105.566406 130.335938 L 90.476562 145.035156 C 88.371094 147.085938 85 147.035156 82.957031 144.921875 Z M 82.957031 144.921875 "/>
<path style=" stroke:none;fill-rule:nonzero;fill:rgb(24.705882%,23.921569%,33.72549%);fill-opacity:1;" d="M 97.964844 115.65625 L 102.695312 120.550781 L 101.960938 121.261719 L 97.234375 116.371094 Z M 97.964844 115.65625 "/>
<path style=" stroke:none;fill-rule:nonzero;fill:rgb(24.705882%,23.921569%,33.72549%);fill-opacity:1;" d="M 100.425781 118.71875 C 101.285156 116.667969 103.851562 116.226562 105.757812 115.820312 C 107.789062 115.386719 110.097656 114.636719 110.941406 112.519531 C 111.308594 111.636719 111.207031 110.628906 110.667969 109.839844 C 110.171875 109.125 109.335938 108.546875 108.433594 108.625 C 106.546875 108.796875 106.210938 111.035156 106.929688 112.449219 C 107.90625 114.355469 110.40625 114.523438 112.277344 114.570312 C 114.085938 114.617188 116.027344 114.546875 117.679688 113.726562 C 119.269531 112.949219 120.25 111.296875 120.167969 109.523438 C 120.113281 107.691406 119.304688 105.980469 118.824219 104.242188 C 118.363281 102.570312 118.21875 100.714844 119.449219 99.324219 C 120.640625 97.972656 122.519531 97.441406 124.230469 97.167969 C 124.671875 97.101562 125.113281 97.050781 125.558594 97.015625 C 126.03125 96.976562 126.039062 96.230469 125.558594 96.269531 C 122.382812 96.523438 118.21875 97.621094 117.765625 101.386719 C 117.554688 103.109375 118.203125 104.804688 118.726562 106.410156 C 119.210938 107.90625 119.78125 109.625 119.160156 111.164062 C 118.507812 112.78125 116.816406 113.441406 115.214844 113.6875 C 114.355469 113.804688 113.484375 113.851562 112.613281 113.828125 C 111.601562 113.855469 110.59375 113.753906 109.613281 113.523438 C 108.769531 113.292969 107.957031 112.847656 107.558594 112.039062 C 107.265625 111.441406 107.171875 110.636719 107.5 110.035156 C 107.675781 109.722656 107.96875 109.5 108.3125 109.414062 C 108.65625 109.324219 109.023438 109.386719 109.320312 109.578125 C 110.058594 109.992188 110.484375 110.800781 110.40625 111.644531 C 110.132812 113.765625 107.71875 114.617188 105.949219 115.011719 C 104 115.449219 101.804688 115.769531 100.410156 117.367188 C 100.117188 117.710938 99.878906 118.097656 99.707031 118.519531 C 99.652344 118.71875 99.769531 118.921875 99.964844 118.980469 C 100.164062 119.027344 100.367188 118.914062 100.425781 118.71875 Z M 100.425781 118.71875 "/>
<path style=" stroke:none;fill-rule:nonzero;fill:rgb(90.196078%,90.196078%,90.196078%);fill-opacity:1;" d="M 73.0625 112.925781 C 73.0625 114.441406 71.835938 115.671875 70.324219 115.671875 C 68.816406 115.671875 67.589844 114.441406 67.589844 112.925781 C 67.589844 111.410156 68.816406 110.179688 70.324219 110.179688 C 71.835938 110.179688 73.0625 111.410156 73.0625 112.925781 Z M 73.0625 112.925781 "/>
<path style=" stroke:none;fill-rule:nonzero;fill:rgb(90.196078%,90.196078%,90.196078%);fill-opacity:1;" d="M 123.296875 123.160156 C 123.296875 124.675781 122.070312 125.90625 120.558594 125.90625 C 119.050781 125.90625 117.824219 124.675781 117.824219 123.160156 C 117.824219 121.644531 119.050781 120.414062 120.558594 120.414062 C 122.070312 120.414062 123.296875 121.644531 123.296875 123.160156 Z M 123.296875 123.160156 "/>
<path style=" stroke:none;fill-rule:nonzero;fill:rgb(90.196078%,90.196078%,90.196078%);fill-opacity:1;" d="M 108.871094 137.640625 C 108.871094 138.742188 107.980469 139.636719 106.882812 139.636719 C 105.785156 139.636719 104.894531 138.742188 104.894531 137.640625 C 104.894531 136.535156 105.785156 135.640625 106.882812 135.640625 C 107.980469 135.640625 108.871094 136.535156 108.871094 137.640625 Z M 108.871094 137.640625 "/>
<path style=" stroke:none;fill-rule:nonzero;fill:rgb(90.196078%,90.196078%,90.196078%);fill-opacity:1;" d="M 35.960938 155.671875 C 44.085938 157.492188 53.050781 156.144531 53.050781 156.144531 C 53.050781 156.144531 48.847656 151.851562 40.722656 150.035156 C 32.597656 148.214844 23.632812 149.558594 23.632812 149.558594 C 23.632812 149.558594 27.839844 153.851562 35.960938 155.671875 Z M 35.960938 155.671875 "/>
<path style=" stroke:none;fill-rule:nonzero;fill:rgb(38.823529%,59.607843%,100%);fill-opacity:1;" d="M 36.761719 158.738281 C 45.609375 158.996094 53.113281 156.132812 53.113281 156.132812 C 48.152344 153.980469 42.835938 152.78125 37.433594 152.601562 C 28.589844 152.34375 21.082031 155.207031 21.082031 155.207031 C 26.042969 157.359375 31.363281 158.558594 36.761719 158.738281 Z M 36.761719 158.738281 "/>
<path style=" stroke:none;fill-rule:nonzero;fill:rgb(38.823529%,59.607843%,100%);fill-opacity:1;" d="M 37.390625 152.609375 C 43.710938 155.808594 53.015625 156.207031 53.015625 156.207031 C 53.015625 156.207031 52.078125 151.425781 45.757812 148.226562 C 39.441406 145.027344 30.132812 144.628906 30.132812 144.628906 C 30.132812 144.628906 31.074219 149.414062 37.390625 152.609375 Z M 37.390625 152.609375 "/>
<path style=" stroke:none;fill-rule:nonzero;fill:rgb(90.196078%,90.196078%,90.196078%);fill-opacity:1;" d="M 189 15.726562 L 189 0 L 0 0 L 0 155.769531 L 15.667969 155.769531 L 15.667969 90.617188 L 189 90.617188 L 189 74.890625 L 15.667969 74.890625 L 15.667969 15.726562 Z M 189 15.726562 "/>
<path style=" stroke:none;fill-rule:nonzero;fill:rgb(90.196078%,90.196078%,90.196078%);fill-opacity:1;" d="M 173.332031 1.25 L 189 1.25 L 189 155.519531 L 173.332031 155.519531 Z M 173.332031 1.25 "/>
<use xlink:href="#surface11" mask="url(#mask2)"/>
<path style=" stroke:none;fill-rule:nonzero;fill:rgb(90.196078%,90.196078%,90.196078%);fill-opacity:1;" d="M 29.875 115.082031 C 28.429688 117.332031 26.824219 117.40625 25.464844 116.523438 C 25.433594 116.503906 25.402344 116.484375 25.371094 116.460938 C 25.308594 116.421875 25.246094 116.375 25.1875 116.332031 C 24.027344 115.433594 23.605469 113.988281 24.949219 111.894531 C 26.339844 109.730469 30.375 108.476562 30.675781 108.382812 L 30.691406 108.378906 C 30.691406 108.378906 31.320312 112.832031 29.875 115.082031 Z M 29.875 115.082031 "/>
<path style=" stroke:none;fill-rule:nonzero;fill:rgb(90.196078%,90.196078%,90.196078%);fill-opacity:1;" d="M 130.09375 57.375 C 128.652344 59.625 127.042969 59.695312 125.683594 58.816406 C 125.652344 58.796875 125.621094 58.777344 125.589844 58.753906 C 125.527344 58.710938 125.46875 58.667969 125.410156 58.621094 C 124.25 57.722656 123.824219 56.28125 125.167969 54.1875 C 126.558594 52.023438 130.59375 50.765625 130.894531 50.675781 L 130.914062 50.667969 C 130.914062 50.667969 131.539062 55.125 130.09375 57.375 Z M 130.09375 57.375 "/>
<path style=" stroke:none;fill-rule:nonzero;fill:rgb(90.196078%,90.196078%,90.196078%);fill-opacity:1;" d="M 72.90625 40.679688 C 74.710938 42.648438 74.378906 44.226562 73.1875 45.328125 C 73.160156 45.351562 73.132812 45.378906 73.101562 45.402344 C 73.046875 45.453125 72.988281 45.5 72.929688 45.542969 C 71.773438 46.445312 70.273438 46.496094 68.59375 44.664062 C 66.855469 42.769531 66.660156 38.53125 66.648438 38.214844 L 66.648438 38.199219 C 66.648438 38.199219 71.101562 38.710938 72.90625 40.679688 Z M 72.90625 40.679688 "/>
<path style=" stroke:none;fill-rule:nonzero;fill:rgb(90.196078%,90.196078%,90.196078%);fill-opacity:1;" d="M 132.09375 104.03125 L 127.808594 106.203125 C 126.957031 106.671875 125.886719 106.363281 125.414062 105.507812 L 122.46875 99.640625 C 122.398438 99.5 122.355469 99.34375 122.347656 99.1875 L 122.292969 98.074219 C 122.277344 97.5625 122.5625 97.09375 123.019531 96.871094 L 127.496094 94.605469 C 127.929688 94.375 128.460938 94.414062 128.859375 94.707031 L 129.613281 95.28125 C 129.75 95.386719 129.863281 95.519531 129.941406 95.671875 L 132.960938 101.6875 C 133.367188 102.574219 132.980469 103.625 132.09375 104.03125 Z M 132.09375 104.03125 "/>
<path style=" stroke:none;fill-rule:nonzero;fill:rgb(24.705882%,23.921569%,33.72549%);fill-opacity:1;" d="M 124.421875 96.773438 L 126.503906 95.71875 L 126.648438 96.007812 L 124.566406 97.0625 Z M 124.421875 96.773438 "/>
<path style=" stroke:none;fill-rule:nonzero;fill:rgb(38.823529%,59.607843%,100%);fill-opacity:1;" d="M 124.066406 99.089844 L 128.683594 96.777344 L 129.347656 98.117188 L 124.730469 100.429688 Z M 124.066406 99.089844 "/>
<path style=" stroke:none;fill-rule:nonzero;fill:rgb(38.823529%,59.607843%,100%);fill-opacity:1;" d="M 125.058594 100.835938 L 129.675781 98.527344 L 130.34375 99.867188 L 125.726562 102.175781 Z M 125.058594 100.835938 "/>
<path style=" stroke:none;fill-rule:nonzero;fill:rgb(38.823529%,59.607843%,100%);fill-opacity:1;" d="M 126.054688 102.835938 L 130.671875 100.523438 L 131.335938 101.863281 L 126.71875 104.175781 Z M 126.054688 102.835938 "/>
</g>
</svg>
