<?xml version="1.0" encoding="UTF-8"?>
<svg xmlns="http://www.w3.org/2000/svg" xmlns:xlink="http://www.w3.org/1999/xlink" width="249pt" height="207pt" viewBox="0 0 249 207" version="1.1">
<defs>
<filter id="alpha" filterUnits="objectBoundingBox" x="0%" y="0%" width="100%" height="100%">
  <feColorMatrix type="matrix" in="SourceGraphic" values="0 0 0 0 1 0 0 0 0 1 0 0 0 0 1 0 0 0 1 0"/>
</filter>
<mask id="mask0">
  <g filter="url(#alpha)">
<rect x="0" y="0" width="249" height="207" style="fill:rgb(0%,0%,0%);fill-opacity:0.101961;stroke:none;"/>
  </g>
</mask>
<clipPath id="clip1">
  <rect x="0" y="0" width="249" height="207"/>
</clipPath>
<g id="surface5" clip-path="url(#clip1)">
<path style=" stroke:none;fill-rule:nonzero;fill:rgb(0%,0%,0%);fill-opacity:1;" d="M 203.75 191.5 C 203.75 195.367188 167.820312 207 123.5 207 C 79.179688 207 43.25 195.367188 43.25 191.5 C 43.25 187.632812 79.179688 193 123.5 193 C 167.820312 193 203.75 187.632812 203.75 191.5 Z M 203.75 191.5 "/>
</g>
<mask id="mask1">
  <g filter="url(#alpha)">
<rect x="0" y="0" width="249" height="207" style="fill:rgb(0%,0%,0%);fill-opacity:0.101961;stroke:none;"/>
  </g>
</mask>
<clipPath id="clip2">
  <rect x="0" y="0" width="249" height="207"/>
</clipPath>
<g id="surface8" clip-path="url(#clip2)">
<path style=" stroke:none;fill-rule:nonzero;fill:rgb(0%,0%,0%);fill-opacity:1;" d="M 196 189.75 C 196 187.539062 165.609375 185.75 128.125 185.75 C 90.636719 185.75 60.25 187.539062 60.25 189.75 C 60.25 191.960938 90.636719 193.75 128.125 193.75 C 165.609375 193.75 196 191.960938 196 189.75 Z M 196 189.75 "/>
</g>
<mask id="mask2">
  <g filter="url(#alpha)">
<rect x="0" y="0" width="249" height="207" style="fill:rgb(0%,0%,0%);fill-opacity:0.101961;stroke:none;"/>
  </g>
</mask>
<clipPath id="clip3">
  <rect x="0" y="0" width="249" height="207"/>
</clipPath>
<g id="surface11" clip-path="url(#clip3)">
<path style=" stroke:none;fill-rule:nonzero;fill:rgb(0%,0%,0%);fill-opacity:1;" d="M 118.496094 23.546875 L 122.273438 23.546875 L 122.273438 25.292969 L 118.496094 25.292969 Z M 118.496094 23.546875 "/>
</g>
<mask id="mask3">
  <g filter="url(#alpha)">
<rect x="0" y="0" width="249" height="207" style="fill:rgb(0%,0%,0%);fill-opacity:0.101961;stroke:none;"/>
  </g>
</mask>
<clipPath id="clip4">
  <rect x="0" y="0" width="249" height="207"/>
</clipPath>
<g id="surface14" clip-path="url(#clip4)">
<path style=" stroke:none;fill-rule:nonzero;fill:rgb(0%,0%,0%);fill-opacity:1;" d="M 124.601562 23.546875 L 128.378906 23.546875 L 128.378906 25.292969 L 124.601562 25.292969 Z M 124.601562 23.546875 "/>
</g>
</defs>
<g id="surface1">
<path style=" stroke:none;fill-rule:nonzero;fill:rgb(94.901961%,94.901961%,94.901961%);fill-opacity:1;" d="M 232.28125 129.902344 L 207.25 141.75 L 229.402344 125.183594 C 225.800781 119.5625 221.757812 114.242188 217.304688 109.265625 L 108.75 136.25 L 206.808594 98.84375 C 202.324219 94.890625 197.566406 91.261719 192.566406 87.992188 L 27.152344 114.636719 C 9.585938 136.597656 0.0117188 163.878906 0 192 L 248.996094 192 C 248.988281 170.191406 243.21875 148.769531 232.28125 129.902344 Z M 232.28125 129.902344 "/>
<path style=" stroke:none;fill-rule:nonzero;fill:rgb(94.901961%,94.901961%,94.901961%);fill-opacity:1;" d="M 179.027344 80.300781 C 162.046875 72.015625 143.394531 67.722656 124.5 67.75 C 86.039062 67.75 51.65625 85.1875 28.820312 112.585938 C 67.925781 104.019531 136.015625 89.1875 179.027344 80.300781 Z M 179.027344 80.300781 "/>
<path style=" stroke:none;fill-rule:nonzero;fill:rgb(24.705882%,23.921569%,33.72549%);fill-opacity:1;" d="M 197.527344 189.21875 C 194.09375 188.636719 190.789062 188.136719 187.613281 187.71875 L 188.867188 185.285156 C 188.445312 185.140625 186.585938 186.53125 186.585938 186.53125 L 188.234375 179.472656 C 186.105469 179.730469 185.023438 186.9375 185.023438 186.9375 L 182.648438 184.5 L 183.796875 187.242188 C 175.449219 186.230469 167.050781 185.703125 158.644531 185.65625 L 159.71875 183.574219 C 159.292969 183.429688 157.4375 184.820312 157.4375 184.820312 L 159.082031 177.761719 C 156.953125 178.019531 155.871094 185.226562 155.871094 185.226562 L 153.496094 182.789062 L 154.714844 185.691406 C 149.878906 185.773438 145.054688 186.101562 140.253906 186.675781 C 141.339844 183.429688 145.027344 180.347656 145.027344 180.347656 C 142.210938 181.183594 140.734375 182.589844 139.960938 183.898438 C 139.894531 177.207031 141.003906 170.554688 143.25 164.25 C 143.25 164.25 137.425781 176.921875 138.167969 185.429688 L 138.257812 186.941406 C 133.320312 187.648438 130.835938 188.382812 130.835938 188.382812 Z M 197.527344 189.21875 "/>
<path style=" stroke:none;fill-rule:nonzero;fill:rgb(24.705882%,23.921569%,33.72549%);fill-opacity:1;" d="M 120.488281 188.765625 C 117.054688 188.183594 113.75 187.683594 110.574219 187.265625 L 111.828125 184.832031 C 111.40625 184.6875 109.546875 186.078125 109.546875 186.078125 L 111.195312 179.019531 C 109.066406 179.273438 107.984375 186.484375 107.984375 186.484375 L 105.609375 184.046875 L 106.757812 186.789062 C 98.410156 185.777344 90.011719 185.25 81.605469 185.203125 L 82.679688 183.121094 C 82.253906 182.976562 80.394531 184.367188 80.394531 184.367188 L 82.042969 177.308594 C 79.914062 177.566406 78.832031 184.773438 78.832031 184.773438 L 76.457031 182.335938 L 77.675781 185.238281 C 72.839844 185.316406 68.015625 185.644531 63.214844 186.222656 C 64.300781 182.976562 67.988281 179.894531 67.988281 179.894531 C 65.171875 180.730469 63.695312 182.136719 62.921875 183.445312 C 62.851562 176.753906 63.964844 170.101562 66.210938 163.796875 C 66.210938 163.796875 60.386719 176.46875 61.128906 184.976562 L 61.21875 186.488281 C 56.28125 187.195312 53.796875 187.929688 53.796875 187.929688 Z M 120.488281 188.765625 "/>
<path style=" stroke:none;fill-rule:nonzero;fill:rgb(24.705882%,23.921569%,33.72549%);fill-opacity:1;" d="M 203.75 191.5 C 203.75 195.367188 167.820312 207 123.5 207 C 79.179688 207 43.25 195.367188 43.25 191.5 C 43.25 187.632812 79.179688 193 123.5 193 C 167.820312 193 203.75 187.632812 203.75 191.5 Z M 203.75 191.5 "/>
<use xlink:href="#surface5" mask="url(#mask0)"/>
<path style=" stroke:none;fill-rule:nonzero;fill:rgb(24.705882%,23.921569%,33.72549%);fill-opacity:1;" d="M 203.75 191.5 C 203.75 187.632812 167.820312 184.5 123.5 184.5 C 79.179688 184.5 43.25 187.632812 43.25 191.5 C 43.25 195.367188 79.179688 198.5 123.5 198.5 C 167.820312 198.5 203.75 195.367188 203.75 191.5 Z M 203.75 191.5 "/>
<use xlink:href="#surface8" mask="url(#mask1)"/>
<path style=" stroke:none;fill-rule:nonzero;fill:rgb(38.823529%,59.607843%,100%);fill-opacity:1;" d="M 103.738281 164.105469 C 103.851562 180.03125 94.421875 185.65625 82.746094 185.738281 C 82.472656 185.742188 82.203125 185.742188 81.933594 185.734375 C 81.394531 185.726562 80.859375 185.707031 80.328125 185.671875 C 69.78125 185 61.550781 179.214844 61.445312 164.402344 C 61.339844 149.074219 80.792969 129.589844 82.253906 128.152344 C 82.253906 128.152344 82.253906 128.152344 82.253906 128.148438 C 82.308594 128.09375 82.339844 128.066406 82.339844 128.066406 C 82.339844 128.066406 103.628906 148.179688 103.738281 164.105469 Z M 103.738281 164.105469 "/>
<path style=" stroke:none;fill-rule:nonzero;fill:rgb(24.705882%,23.921569%,33.72549%);fill-opacity:1;" d="M 81.957031 183.308594 L 89.617188 172.449219 L 81.945312 184.496094 L 81.933594 185.734375 C 81.394531 185.726562 80.859375 185.707031 80.328125 185.671875 L 81.046875 169.734375 L 81.039062 169.609375 L 81.054688 169.585938 L 81.125 168.082031 L 73.265625 156.113281 L 81.140625 166.953125 L 81.160156 167.273438 L 81.707031 155.230469 L 74.964844 142.855469 L 81.773438 153.113281 L 82.253906 128.152344 L 82.253906 128.066406 L 82.253906 128.148438 L 82.285156 147.832031 L 88.851562 139.984375 L 82.269531 149.527344 L 82.167969 160.308594 L 88.28125 149.921875 L 82.15625 161.894531 L 82.101562 167.886719 L 90.976562 153.425781 L 82.078125 169.980469 Z M 81.957031 183.308594 "/>
<path style=" stroke:none;fill-rule:nonzero;fill:rgb(24.705882%,23.921569%,33.72549%);fill-opacity:1;" d="M 156.722656 187.367188 L 176.492188 187.367188 L 169.925781 176.753906 L 165.300781 176.367188 L 168.011719 173.65625 L 151.492188 146.957031 L 151.492188 142.59375 L 149.269531 142.59375 L 135.792969 110.324219 L 138.117188 107.128906 L 135.792969 105.382812 L 134.5 105.382812 L 126.957031 36.921875 L 128.089844 36.921875 L 129.832031 31.980469 L 129.832031 22.386719 L 127.507812 22.386719 L 127.507812 17.734375 L 124.601562 17.734375 L 124.601562 8.722656 L 124.019531 8.722656 L 124.019531 0 L 123.4375 0 L 123.4375 8.722656 L 122.566406 8.722656 L 122.566406 17.734375 L 119.949219 17.734375 L 119.949219 22.386719 L 117.332031 22.386719 L 117.332031 31.980469 L 119.367188 36.921875 L 120.542969 36.921875 L 114.886719 105.382812 L 114.863281 105.382812 L 111.082031 106.546875 L 113.117188 110.035156 L 113.261719 110.324219 L 113.117188 110.324219 L 101.804688 142.59375 L 98.871094 142.59375 L 99.164062 146.957031 L 74.742188 187.367188 L 94.800781 187.367188 L 94.800781 182.714844 L 93.640625 182.714844 C 93.640625 182.714844 97.417969 157.132812 124.746094 154.804688 C 152.652344 154.222656 157.886719 182.132812 157.886719 182.132812 L 156.722656 182.132812 Z M 170.339844 177.917969 L 171.113281 180.628906 L 167.625 178.304688 Z M 166.074219 178.691406 L 170.339844 181.40625 L 165.6875 181.019531 Z M 161.035156 181.40625 L 163.75 178.304688 L 164.914062 181.40625 Z M 156.496094 164.253906 L 157.492188 166.578125 L 153.171875 164.253906 Z M 155.207031 162.757812 L 155.539062 160.765625 L 159.195312 163.089844 Z M 161.425781 173.265625 L 162.585938 175.980469 L 157.546875 173.265625 Z M 156.164062 171.230469 L 158.488281 168.574219 L 159.484375 171.230469 Z M 160.152344 170.898438 L 160.484375 168.90625 L 164.136719 171.230469 Z M 164.136719 176.367188 L 162.585938 173.265625 L 166.851562 173.265625 Z M 164.800781 170.566406 L 161.8125 168.574219 L 164.136719 168.242188 Z M 163.804688 167.242188 L 159.816406 166.910156 L 162.144531 164.585938 Z M 158.820312 166.910156 L 157.492188 164.253906 L 161.148438 164.253906 Z M 159.859375 162.425781 L 156.871094 160.433594 L 159.195312 160.101562 Z M 158.863281 159.105469 L 154.875 158.773438 L 157.203125 156.445312 Z M 153.878906 158.773438 L 152.550781 156.113281 L 156.203125 156.113281 Z M 149.394531 154.328125 L 149.726562 152.335938 L 153.382812 154.660156 Z M 152.550781 158.4375 L 148.230469 156.113281 L 151.554688 156.113281 Z M 154.046875 153.996094 L 151.054688 152.003906 L 153.382812 151.667969 Z M 153.046875 150.671875 L 149.0625 150.339844 L 151.386719 148.015625 Z M 150.390625 147.683594 L 148.066406 150.339844 L 146.734375 147.683594 Z M 146.734375 150.007812 L 142.417969 147.683594 L 145.738281 147.683594 Z M 114.085938 142.59375 L 120.09375 115.851562 L 129.398438 115.851562 L 137.347656 142.59375 Z M 134.527344 150.300781 L 130.207031 147.972656 L 133.53125 147.972656 Z M 126.882812 149.71875 L 125.722656 151.046875 L 125.058594 149.71875 Z M 125.058594 150.878906 L 122.898438 149.71875 L 124.558594 149.71875 Z M 110.644531 134.308594 L 115.007812 131.695312 L 113.84375 136.636719 Z M 112.972656 137.21875 L 105.996094 137.21875 L 109.773438 134.890625 Z M 123.671875 44.457031 L 122.441406 45.6875 L 121.210938 44.457031 Z M 121.210938 43.921875 L 122.441406 42.691406 L 123.671875 43.921875 Z M 123.671875 47.410156 L 121.210938 47.410156 L 122.441406 46.179688 Z M 122.6875 45.933594 L 123.917969 44.703125 L 123.917969 47.164062 Z M 123.875 48.550781 L 123.875 51.457031 L 122.417969 50.003906 Z M 122.6875 42.445312 L 123.917969 41.214844 L 123.917969 43.675781 Z M 123 39.246094 L 123.96875 38.277344 L 123.96875 40.214844 Z M 123.777344 40.410156 L 121.839844 40.410156 L 122.808594 39.441406 Z M 122.808594 39.050781 L 121.839844 38.082031 L 123.777344 38.082031 Z M 122.613281 39.246094 L 121.644531 40.214844 L 121.644531 38.277344 Z M 123.671875 40.96875 L 122.441406 42.199219 L 121.210938 40.96875 Z M 122.195312 42.445312 L 120.964844 43.675781 L 120.964844 41.214844 Z M 122.195312 45.933594 L 120.964844 47.164062 L 120.964844 44.703125 Z M 123.582031 48.257812 L 122.128906 49.710938 L 120.675781 48.257812 Z M 123.582031 51.746094 L 120.675781 51.746094 L 122.128906 50.292969 Z M 123.875 52.910156 L 123.875 55.816406 L 122.417969 54.363281 Z M 123.582031 52.621094 L 122.128906 54.074219 L 120.675781 52.621094 Z M 123.582031 56.109375 L 120.675781 56.109375 L 122.128906 54.65625 Z M 123.804688 57.515625 L 123.804688 61.09375 L 122.015625 59.304688 Z M 123.449219 61.453125 L 119.871094 61.453125 L 121.660156 59.664062 Z M 123.804688 62.75 L 123.804688 66.328125 L 122.015625 64.539062 Z M 123.449219 62.390625 L 121.660156 64.179688 L 119.871094 62.390625 Z M 123.449219 66.683594 L 119.871094 66.683594 L 121.660156 64.894531 Z M 123.726562 68.171875 L 123.726562 72.535156 L 121.546875 70.351562 Z M 123.292969 72.96875 L 118.929688 72.96875 L 121.113281 70.789062 Z M 123.726562 74.566406 L 123.726562 78.929688 L 121.546875 76.75 Z M 123.292969 74.132812 L 121.113281 76.3125 L 118.929688 74.132812 Z M 123.292969 79.363281 L 118.929688 79.363281 L 121.113281 77.183594 Z M 123.648438 81.152344 L 123.648438 86.296875 L 121.078125 83.726562 Z M 123.136719 86.8125 L 117.992188 86.8125 L 120.5625 84.238281 Z M 123.582031 89.539062 L 123.582031 95.355469 L 120.675781 92.445312 Z M 123 95.9375 L 117.1875 95.9375 L 120.09375 93.027344 Z M 123.539062 98.328125 L 123.539062 104.589844 L 120.40625 101.460938 Z M 122.910156 97.703125 L 119.78125 100.832031 L 116.648438 97.703125 Z M 122.910156 105.214844 L 116.648438 105.214844 L 119.78125 102.085938 Z M 115.878906 123.554688 L 110.066406 123.554688 L 113.554688 121.519531 Z M 114.132812 120.9375 L 117.914062 118.613281 L 117.042969 123.84375 Z M 116.460938 125.007812 L 115.589844 129.949219 L 113.261719 127.332031 Z M 115.007812 124.425781 L 112.097656 126.75 L 110.066406 124.425781 Z M 114.714844 130.238281 L 108.609375 130.238281 L 111.808594 127.914062 Z M 116.710938 147.683594 L 115.378906 150.339844 L 113.054688 147.683594 Z M 117.707031 147.683594 L 121.027344 147.683594 L 116.710938 150.007812 Z M 139.589844 133.644531 L 136.554688 136.179688 L 135.058594 131.328125 Z M 134.359375 129.628906 L 133.15625 124.757812 L 136.503906 126.859375 Z M 137.992188 127.34375 L 141.339844 129.445312 L 135.25 129.859375 Z M 137.625 126.203125 L 134.566406 124.078125 L 139.496094 123.742188 Z M 133.636719 123.269531 L 135.820312 121.078125 L 139.4375 122.871094 Z M 132.496094 123.636719 L 131.269531 118.476562 L 135.199219 120.539062 Z M 125.417969 105.214844 L 128.546875 102.085938 L 131.679688 105.214844 Z M 124.789062 104.589844 L 124.789062 98.328125 L 127.921875 101.460938 Z M 125.417969 97.703125 L 131.679688 97.703125 L 128.546875 100.832031 Z M 125.328125 95.9375 L 128.234375 93.027344 L 131.140625 95.9375 Z M 124.746094 95.355469 L 124.746094 89.539062 L 127.652344 92.445312 Z M 124.679688 86.296875 L 124.679688 81.152344 L 127.25 83.726562 Z M 127.765625 84.238281 L 130.335938 86.8125 L 125.191406 86.8125 Z M 125.640625 45.933594 L 124.410156 47.164062 L 124.410156 44.703125 Z M 124.65625 44.457031 L 127.117188 44.457031 L 125.886719 45.6875 Z M 124.453125 52.910156 L 125.910156 54.363281 L 124.453125 55.816406 Z M 124.746094 52.621094 L 127.652344 52.621094 L 126.199219 54.074219 Z M 124.523438 62.75 L 126.3125 64.539062 L 124.523438 66.328125 Z M 124.878906 62.390625 L 128.457031 62.390625 L 126.667969 64.179688 Z M 124.601562 74.566406 L 126.78125 76.75 L 124.601562 78.929688 Z M 125.035156 74.132812 L 129.398438 74.132812 L 127.214844 76.3125 Z M 127.214844 77.183594 L 129.398438 79.363281 L 125.035156 79.363281 Z M 127.652344 76.75 L 129.832031 74.566406 L 129.832031 78.929688 Z M 125.035156 72.96875 L 127.214844 70.789062 L 129.398438 72.96875 Z M 124.601562 72.535156 L 124.601562 68.171875 L 126.78125 70.351562 Z M 126.667969 64.894531 L 128.457031 66.683594 L 124.878906 66.683594 Z M 127.027344 64.539062 L 128.816406 62.75 L 128.816406 66.328125 Z M 124.878906 61.453125 L 126.667969 59.664062 L 128.457031 61.453125 Z M 124.523438 61.09375 L 124.523438 57.515625 L 126.3125 59.304688 Z M 126.199219 54.65625 L 127.652344 56.109375 L 124.746094 56.109375 Z M 126.488281 54.363281 L 127.945312 52.910156 L 127.945312 55.816406 Z M 124.746094 51.746094 L 126.199219 50.292969 L 127.652344 51.746094 Z M 124.453125 51.457031 L 124.453125 48.550781 L 125.910156 50.003906 Z M 125.886719 46.179688 L 127.117188 47.410156 L 124.65625 47.410156 Z M 126.132812 45.933594 L 127.363281 44.703125 L 127.363281 47.164062 Z M 124.65625 43.921875 L 125.886719 42.691406 L 127.117188 43.921875 Z M 124.410156 43.675781 L 124.410156 41.214844 L 125.640625 42.445312 Z M 125.714844 39.246094 L 126.683594 38.277344 L 126.683594 40.214844 Z M 126.488281 40.410156 L 124.550781 40.410156 L 125.519531 39.441406 Z M 125.519531 39.050781 L 124.550781 38.082031 L 126.488281 38.082031 Z M 125.328125 39.246094 L 124.359375 40.214844 L 124.359375 38.277344 Z M 138.179688 147.972656 L 135.855469 150.632812 L 134.527344 147.972656 Z M 137.464844 136.703125 L 140.496094 134.164062 L 144.425781 136.226562 Z M 144.945312 135.320312 L 141 132.964844 L 143.199219 131.066406 Z M 140.089844 132.445312 L 136.46875 130.652344 L 142.269531 130.257812 Z M 141.863281 128.535156 L 138.535156 126.722656 L 140.40625 124.265625 Z M 139.667969 121.984375 L 136.339844 120.171875 L 138.230469 118 Z M 137.902344 117.441406 L 135.738281 119.917969 L 131.8125 117.855469 Z M 132.304688 104.589844 L 129.171875 101.460938 L 132.304688 98.328125 Z M 131.722656 95.355469 L 128.816406 92.445312 L 131.722656 89.539062 Z M 128.234375 91.867188 L 125.328125 88.957031 L 131.140625 88.957031 Z M 130.851562 86.296875 L 128.277344 83.726562 L 130.851562 81.152344 Z M 127.765625 83.210938 L 125.191406 80.640625 L 130.335938 80.640625 Z M 129.832031 72.535156 L 127.652344 70.351562 L 129.832031 68.171875 Z M 127.214844 69.917969 L 125.035156 67.738281 L 129.398438 67.738281 Z M 128.816406 61.09375 L 127.027344 59.304688 L 128.816406 57.515625 Z M 126.667969 58.949219 L 124.878906 57.160156 L 128.457031 57.160156 Z M 127.945312 51.457031 L 126.488281 50.003906 L 127.945312 48.550781 Z M 126.199219 49.710938 L 124.746094 48.257812 L 127.652344 48.257812 Z M 127.363281 43.675781 L 126.132812 42.445312 L 127.363281 41.214844 Z M 125.886719 42.199219 L 124.65625 40.96875 L 127.117188 40.96875 Z M 120.386719 48.550781 L 121.839844 50.003906 L 120.386719 51.457031 Z M 120.386719 52.910156 L 121.839844 54.363281 L 120.386719 55.816406 Z M 123.449219 57.160156 L 121.660156 58.949219 L 119.871094 57.160156 Z M 119.511719 57.515625 L 121.300781 59.304688 L 119.511719 61.09375 Z M 119.511719 62.75 L 121.300781 64.539062 L 119.511719 66.328125 Z M 123.292969 67.738281 L 121.113281 69.917969 L 118.929688 67.738281 Z M 118.496094 68.171875 L 120.675781 70.351562 L 118.496094 72.535156 Z M 118.496094 74.566406 L 120.675781 76.75 L 118.496094 78.929688 Z M 123.136719 80.640625 L 120.5625 83.210938 L 117.992188 80.640625 Z M 117.476562 81.152344 L 120.050781 83.726562 L 117.476562 86.296875 Z M 123 88.957031 L 120.09375 91.867188 L 117.1875 88.957031 Z M 116.605469 89.539062 L 119.511719 92.445312 L 116.605469 95.355469 Z M 116.023438 98.328125 L 119.15625 101.460938 L 116.023438 104.589844 Z M 117.332031 118.03125 L 113.554688 120.355469 L 111.226562 118.03125 Z M 110.9375 118.613281 L 112.972656 120.644531 L 109.773438 122.679688 Z M 109.191406 125.007812 L 111.226562 127.332031 L 108.03125 129.367188 Z M 113.554688 131.113281 L 110.066406 133.148438 L 107.738281 131.113281 Z M 106.867188 131.984375 L 109.191406 133.730469 L 105.414062 136.34375 Z M 108.527344 147.683594 L 104.207031 150.007812 L 105.207031 147.683594 Z M 104.207031 147.683594 L 102.878906 150.339844 L 100.554688 147.683594 Z M 99.558594 148.015625 L 101.882812 150.339844 L 97.894531 150.671875 Z M 103.296875 156.113281 L 98.976562 158.4375 L 99.972656 156.113281 Z M 97.5625 154.660156 L 101.21875 152.335938 L 101.550781 154.328125 Z M 97.5625 151.667969 L 99.890625 152.003906 L 96.898438 153.996094 Z M 98.976562 156.113281 L 97.648438 158.773438 L 95.320312 156.113281 Z M 94.324219 156.445312 L 96.648438 158.773438 L 92.664062 159.105469 Z M 93.976562 173.265625 L 88.9375 175.980469 L 90.101562 173.265625 Z M 87.390625 171.230469 L 91.042969 168.90625 L 91.375 170.898438 Z M 92.039062 171.230469 L 93.035156 168.574219 L 95.363281 171.230469 Z M 98.351562 164.253906 L 94.035156 166.578125 L 95.03125 164.253906 Z M 92.332031 163.089844 L 95.984375 160.765625 L 96.316406 162.757812 Z M 92.332031 160.101562 L 94.65625 160.433594 L 91.667969 162.425781 Z M 94.035156 164.253906 L 92.703125 166.910156 L 90.378906 164.253906 Z M 89.382812 164.585938 L 91.707031 166.910156 L 87.722656 167.242188 Z M 87.390625 168.242188 L 89.714844 168.574219 L 86.722656 170.566406 Z M 88.9375 173.265625 L 87.390625 176.367188 L 84.675781 173.265625 Z M 81.1875 177.917969 L 83.898438 178.304688 L 80.410156 180.628906 Z M 81.1875 181.40625 L 85.449219 178.691406 L 85.839844 181.019531 Z M 81.574219 176.753906 L 83.511719 173.652344 L 86.226562 176.367188 Z M 86.613281 181.40625 L 87.777344 178.304688 L 90.488281 181.40625 Z M 92.039062 181.019531 L 89.328125 177.917969 L 93.976562 177.53125 Z M 94.367188 176.367188 L 90.101562 176.367188 L 95.527344 173.652344 Z M 96.691406 170.898438 L 94.367188 168.242188 L 98.351562 167.910156 Z M 98.683594 166.910156 L 95.03125 166.910156 L 99.683594 164.585938 Z M 96.980469 163.089844 L 97.980469 160.433594 L 100.304688 163.089844 Z M 101.632812 162.757812 L 99.308594 160.101562 L 103.296875 159.769531 Z M 103.628906 158.773438 L 99.972656 158.773438 L 104.625 156.445312 Z M 102.214844 154.660156 L 103.210938 152.003906 L 105.539062 154.660156 Z M 106.867188 154.328125 L 104.539062 151.667969 L 108.527344 151.335938 Z M 105.207031 150.339844 L 109.855469 148.015625 L 108.859375 150.339844 Z M 110.066406 151.667969 L 112.390625 152.003906 L 109.398438 153.996094 Z M 110.066406 154.660156 L 113.71875 152.335938 L 114.050781 154.328125 Z M 110.398438 150.671875 L 112.058594 148.015625 L 114.382812 150.339844 Z M 114.714844 154.660156 L 115.710938 152.003906 L 118.039062 154.660156 Z M 119.367188 154.328125 L 117.042969 151.667969 L 121.027344 151.335938 Z M 117.707031 150.339844 L 122.359375 148.015625 L 121.359375 150.339844 Z M 122.234375 149.882812 L 124.558594 151.046875 L 122.730469 151.046875 Z M 122.898438 151.546875 L 124.890625 151.710938 L 123.726562 153.039062 Z M 124.394531 153.207031 L 125.554688 151.878906 L 126.054688 153.207031 Z M 127.382812 149.882812 L 128.214844 151.214844 L 126.21875 151.046875 Z M 126.386719 153.039062 L 126.550781 152.042969 L 128.378906 153.207031 Z M 127.214844 151.878906 L 128.378906 151.710938 L 128.710938 152.875 Z M 128.878906 148.304688 L 133.53125 150.632812 L 129.875 150.632812 Z M 130.207031 151.628906 L 134.195312 151.960938 L 131.867188 154.617188 Z M 133.195312 154.949219 L 135.523438 152.292969 L 136.519531 154.949219 Z M 139.175781 148.304688 L 140.839844 150.964844 L 136.851562 150.632812 Z M 137.183594 154.617188 L 137.515625 152.625 L 141.171875 154.949219 Z M 138.84375 152.292969 L 141.171875 151.960938 L 141.835938 154.285156 Z M 141.089844 148.015625 L 145.738281 150.339844 L 142.085938 150.339844 Z M 142.417969 151.335938 L 146.402344 151.667969 L 144.078125 154.328125 Z M 147.734375 152.003906 L 148.730469 154.660156 L 145.40625 154.660156 Z M 147.898438 158.773438 L 146.902344 156.445312 L 151.554688 158.773438 Z M 148.230469 159.769531 L 152.21875 160.101562 L 149.890625 162.757812 Z M 153.546875 160.433594 L 154.542969 163.089844 L 151.222656 163.089844 Z M 151.84375 164.585938 L 156.496094 166.910156 L 152.839844 166.910156 Z M 153.171875 167.910156 L 157.160156 168.242188 L 154.835938 170.898438 Z M 155.996094 173.652344 L 161.425781 176.367188 L 157.160156 176.367188 Z M 157.546875 177.53125 L 162.199219 177.917969 L 159.484375 181.019531 Z M 157.546875 177.53125 "/>
<use xlink:href="#surface11" mask="url(#mask2)"/>
<use xlink:href="#surface14" mask="url(#mask3)"/>
<path style=" stroke:none;fill-rule:nonzero;fill:rgb(24.705882%,23.921569%,33.72549%);fill-opacity:1;" d="M 193.769531 183.234375 C 190.636719 185.082031 189.402344 188.796875 189.402344 188.796875 C 189.402344 188.796875 193.25 189.515625 196.382812 187.667969 C 199.515625 185.820312 200.75 182.105469 200.75 182.105469 C 200.75 182.105469 196.902344 181.386719 193.769531 183.234375 Z M 193.769531 183.234375 "/>
<path style=" stroke:none;fill-rule:nonzero;fill:rgb(38.823529%,59.607843%,100%);fill-opacity:1;" d="M 194.867188 184.382812 C 193.113281 187.566406 189.433594 188.910156 189.433594 188.910156 C 189.433594 188.910156 188.605469 185.085938 190.359375 181.898438 C 192.113281 178.710938 195.789062 177.371094 195.789062 177.371094 C 195.789062 177.371094 196.621094 181.195312 194.867188 184.382812 Z M 194.867188 184.382812 "/>
</g>
</svg>
