<?xml version="1.0" encoding="UTF-8"?>
<svg xmlns="http://www.w3.org/2000/svg" xmlns:xlink="http://www.w3.org/1999/xlink" width="226pt" height="167pt" viewBox="0 0 226 167" version="1.1">
<g id="surface1">
<path style=" stroke:none;fill-rule:nonzero;fill:rgb(100%,39.607843%,51.764706%);fill-opacity:1;" d="M 36.128906 18.097656 C 36.128906 28.09375 28.042969 36.195312 18.066406 36.195312 C 8.089844 36.195312 0 28.09375 0 18.097656 C 0 8.101562 8.089844 0 18.066406 0 C 28.042969 0 36.128906 8.101562 36.128906 18.097656 Z M 36.128906 18.097656 "/>
<path style=" stroke:none;fill-rule:nonzero;fill:rgb(24.705882%,23.921569%,33.72549%);fill-opacity:1;" d="M 196.847656 159.136719 C 196.847656 154.792969 156.796875 151.273438 107.394531 151.273438 C 57.988281 151.273438 17.941406 154.792969 17.941406 159.136719 C 17.941406 163.480469 57.988281 167 107.394531 167 C 156.796875 167 196.847656 163.480469 196.847656 159.136719 Z M 196.847656 159.136719 "/>
<path style=" stroke:none;fill-rule:nonzero;fill:rgb(24.705882%,23.921569%,33.72549%);fill-opacity:1;" d="M 137.417969 153.769531 L 136.671875 153.769531 C 136.671875 128.625 141.191406 104.992188 149.398438 87.226562 C 157.644531 69.371094 168.65625 59.535156 180.402344 59.535156 L 180.402344 60.285156 C 156.699219 60.285156 137.417969 102.222656 137.417969 153.769531 Z M 137.417969 153.769531 "/>
<path style=" stroke:none;fill-rule:nonzero;fill:rgb(90.196078%,90.196078%,90.196078%);fill-opacity:1;" d="M 196.597656 37.570312 C 196.597656 43.429688 194.03125 50.921875 190.867188 50.921875 C 187.703125 50.921875 185.136719 43.429688 185.136719 37.570312 C 185.136719 31.710938 187.703125 29.707031 190.867188 29.707031 C 194.03125 29.707031 196.597656 31.710938 196.597656 37.570312 Z M 196.597656 37.570312 "/>
<path style=" stroke:none;fill-rule:nonzero;fill:rgb(90.196078%,90.196078%,90.196078%);fill-opacity:1;" d="M 219.089844 62.5625 C 213.304688 63.425781 205.527344 61.988281 205.058594 58.851562 C 204.59375 55.714844 211.617188 52.070312 217.402344 51.207031 C 223.1875 50.34375 225.542969 52.589844 226.007812 55.726562 C 226.476562 58.863281 224.875 61.703125 219.089844 62.5625 Z M 219.089844 62.5625 "/>
<path style=" stroke:none;fill-rule:nonzero;fill:rgb(90.196078%,90.196078%,90.196078%);fill-opacity:1;" d="M 193.453125 84.855469 C 191.382812 79.375 191.136719 71.453125 194.097656 70.332031 C 197.058594 69.210938 202.105469 75.3125 204.171875 80.792969 C 206.242188 86.273438 204.550781 89.054688 201.589844 90.179688 C 198.628906 91.300781 195.519531 90.335938 193.453125 84.855469 Z M 193.453125 84.855469 "/>
<path style=" stroke:none;fill-rule:nonzero;fill:rgb(38.823529%,59.607843%,100%);fill-opacity:1;" d="M 200.585938 59.910156 C 200.585938 63.910156 197.347656 67.148438 193.359375 67.148438 C 189.367188 67.148438 186.132812 63.910156 186.132812 59.910156 C 186.132812 55.914062 189.367188 52.671875 193.359375 52.671875 C 197.347656 52.671875 200.585938 55.914062 200.585938 59.910156 Z M 200.585938 59.910156 "/>
<path style=" stroke:none;fill-rule:nonzero;fill:rgb(24.705882%,23.921569%,33.72549%);fill-opacity:1;" d="M 95.808594 156.515625 L 95.058594 156.515625 C 95.058594 104.96875 75.777344 63.03125 52.078125 63.03125 L 52.078125 62.28125 C 63.820312 62.28125 74.832031 72.117188 83.082031 89.972656 C 91.289062 107.738281 95.808594 131.371094 95.808594 156.515625 Z M 95.808594 156.515625 "/>
<path style=" stroke:none;fill-rule:nonzero;fill:rgb(90.196078%,90.196078%,90.196078%);fill-opacity:1;" d="M 35.882812 40.316406 C 35.882812 46.175781 38.445312 53.667969 41.613281 53.667969 C 44.777344 53.667969 47.34375 46.175781 47.34375 40.316406 C 47.34375 34.457031 44.777344 32.453125 41.613281 32.453125 C 38.445312 32.453125 35.882812 34.457031 35.882812 40.316406 Z M 35.882812 40.316406 "/>
<path style=" stroke:none;fill-rule:nonzero;fill:rgb(90.196078%,90.196078%,90.196078%);fill-opacity:1;" d="M 13.390625 65.308594 C 19.175781 66.171875 26.953125 64.734375 27.417969 61.597656 C 27.882812 58.460938 20.859375 54.8125 15.074219 53.953125 C 9.292969 53.089844 6.933594 55.335938 6.46875 58.472656 C 6.003906 61.609375 7.605469 64.449219 13.390625 65.308594 Z M 13.390625 65.308594 "/>
<path style=" stroke:none;fill-rule:nonzero;fill:rgb(90.196078%,90.196078%,90.196078%);fill-opacity:1;" d="M 39.027344 87.601562 C 41.09375 82.121094 41.339844 74.199219 38.382812 73.078125 C 35.421875 71.957031 30.375 78.058594 28.304688 83.539062 C 26.234375 89.019531 27.929688 91.800781 30.890625 92.925781 C 33.851562 94.046875 36.957031 93.082031 39.027344 87.601562 Z M 39.027344 87.601562 "/>
<path style=" stroke:none;fill-rule:nonzero;fill:rgb(38.823529%,59.607843%,100%);fill-opacity:1;" d="M 46.347656 62.65625 C 46.347656 66.652344 43.109375 69.894531 39.121094 69.894531 C 35.128906 69.894531 31.894531 66.652344 31.894531 62.65625 C 31.894531 58.65625 35.128906 55.417969 39.121094 55.417969 C 43.109375 55.417969 46.347656 58.65625 46.347656 62.65625 Z M 46.347656 62.65625 "/>
<path style=" stroke:none;fill-rule:nonzero;fill:rgb(24.705882%,23.921569%,33.72549%);fill-opacity:1;" d="M 45.847656 155.019531 L 45.847656 140.539062 C 45.847656 140.539062 51.578125 145.78125 45.847656 156.265625 "/>
<path style=" stroke:none;fill-rule:nonzero;fill:rgb(24.705882%,23.921569%,33.72549%);fill-opacity:1;" d="M 46.035156 154.640625 L 50.097656 140.746094 C 50.097656 140.746094 54.128906 147.390625 45.6875 155.839844 "/>
<path style=" stroke:none;fill-rule:nonzero;fill:rgb(24.705882%,23.921569%,33.72549%);fill-opacity:1;" d="M 146.515625 151.773438 L 146.515625 137.292969 C 146.515625 137.292969 152.246094 142.535156 146.515625 153.019531 "/>
<path style=" stroke:none;fill-rule:nonzero;fill:rgb(24.705882%,23.921569%,33.72549%);fill-opacity:1;" d="M 146.703125 151.398438 L 150.765625 137.503906 C 150.765625 137.503906 154.792969 144.148438 146.351562 152.59375 "/>
<path style=" stroke:none;fill-rule:nonzero;fill:rgb(24.705882%,23.921569%,33.72549%);fill-opacity:1;" d="M 125.085938 152.523438 L 125.085938 138.042969 C 125.085938 138.042969 119.355469 143.285156 125.085938 153.769531 "/>
<path style=" stroke:none;fill-rule:nonzero;fill:rgb(24.705882%,23.921569%,33.72549%);fill-opacity:1;" d="M 124.894531 152.144531 L 120.835938 138.25 C 120.835938 138.25 116.804688 144.894531 125.246094 153.34375 "/>
<path style=" stroke:none;fill-rule:nonzero;fill:rgb(18.431373%,18.039216%,25.490196%);fill-opacity:1;" d="M 106.6875 18.222656 C 112.597656 18.222656 117.386719 23.019531 117.386719 28.941406 L 117.386719 39.4375 L 95.988281 39.4375 L 95.988281 28.941406 C 95.988281 23.019531 100.777344 18.222656 106.6875 18.222656 Z M 106.6875 18.222656 "/>
<path style=" stroke:none;fill-rule:nonzero;fill:rgb(100%,72.156863%,72.156863%);fill-opacity:1;" d="M 117.277344 40.652344 C 113.351562 43.445312 108.125 44.523438 102.496094 45.074219 C 106.375 41.921875 104.855469 38.441406 102.496094 34.90625 L 111.097656 34.023438 C 111.347656 37.230469 113.832031 39.207031 117.277344 40.652344 Z M 117.277344 40.652344 "/>
<path style=" stroke:none;fill-rule:nonzero;fill:rgb(90.196078%,90.196078%,90.196078%);fill-opacity:1;" d="M 119.039062 74.023438 L 93.671875 70.488281 C 95.730469 66.605469 97.109375 62.855469 96.625 59.46875 C 96.367188 57.777344 96.390625 56.054688 96.6875 54.371094 L 96.851562 53.507812 C 97.1875 51.847656 97.828125 50.265625 98.742188 48.839844 C 99.757812 47.195312 99.40625 44.726562 98.96875 42.199219 L 104.921875 41.316406 C 108.210938 42.988281 111.898438 41.875 115.730469 39.769531 L 122.789062 40.433594 C 122.3125 53.035156 121.261719 64.59375 119.039062 74.023438 Z M 119.039062 74.023438 "/>
<path style=" stroke:none;fill-rule:nonzero;fill:rgb(38.823529%,59.607843%,100%);fill-opacity:1;" d="M 140.21875 149.820312 L 135.363281 150.707031 L 104.039062 96.121094 L 91.6875 150.707031 L 87.277344 150.484375 C 87.179688 119.550781 85.789062 85.589844 93.257812 72.398438 C 96.058594 65.738281 100.347656 59.359375 98.746094 52.808594 C 105.03125 54.640625 111.355469 54.511719 117.71875 52.585938 C 117.417969 60.449219 117.703125 67.8125 118.820312 74.464844 Z M 140.21875 149.820312 "/>
<path style=" stroke:none;fill-rule:nonzero;fill:rgb(18.431373%,18.039216%,25.490196%);fill-opacity:1;" d="M 138.835938 164.628906 C 136.65625 164.628906 134.75 163.164062 134.183594 161.058594 L 133.753906 159.457031 C 133.652344 159.078125 133.621094 158.683594 133.664062 158.292969 L 134.480469 150.707031 C 136.042969 148.765625 138.3125 148.300781 141.539062 149.820312 L 143.535156 158.75 C 143.855469 160.179688 143.507812 161.675781 142.59375 162.820312 C 141.679688 163.964844 140.296875 164.628906 138.835938 164.628906 Z M 138.835938 164.628906 "/>
<path style=" stroke:none;fill-rule:nonzero;fill:rgb(18.431373%,18.039216%,25.490196%);fill-opacity:1;" d="M 90.085938 164.628906 C 87.90625 164.628906 86 163.164062 85.433594 161.058594 L 85.003906 159.457031 C 84.902344 159.078125 84.871094 158.683594 84.914062 158.292969 L 85.730469 150.707031 C 87.292969 148.765625 89.5625 148.300781 92.789062 149.820312 L 94.785156 158.75 C 95.105469 160.179688 94.757812 161.675781 93.84375 162.820312 C 92.929688 163.964844 91.546875 164.628906 90.085938 164.628906 Z M 90.085938 164.628906 "/>
<path style=" stroke:none;fill-rule:nonzero;fill:rgb(100%,72.156863%,72.156863%);fill-opacity:1;" d="M 112.863281 30.265625 C 112.863281 34.292969 109.605469 37.558594 105.585938 37.558594 C 101.5625 37.558594 98.304688 34.292969 98.304688 30.265625 C 98.304688 26.238281 101.5625 22.972656 105.585938 22.972656 C 109.605469 22.972656 112.863281 26.238281 112.863281 30.265625 Z M 112.863281 30.265625 "/>
<path style=" stroke:none;fill-rule:nonzero;fill:rgb(90.196078%,90.196078%,90.196078%);fill-opacity:1;" d="M 100.621094 54.242188 C 100.621094 54.609375 100.324219 54.90625 99.960938 54.90625 C 99.59375 54.90625 99.296875 54.609375 99.296875 54.242188 C 99.296875 53.878906 99.59375 53.582031 99.960938 53.582031 C 100.324219 53.582031 100.621094 53.878906 100.621094 54.242188 Z M 100.621094 54.242188 "/>
<path style=" stroke:none;fill-rule:nonzero;fill:rgb(90.196078%,90.196078%,90.196078%);fill-opacity:1;" d="M 117.386719 54.242188 C 117.386719 54.609375 117.089844 54.90625 116.722656 54.90625 C 116.359375 54.90625 116.0625 54.609375 116.0625 54.242188 C 116.0625 53.878906 116.359375 53.582031 116.722656 53.582031 C 117.089844 53.582031 117.386719 53.878906 117.386719 54.242188 Z M 117.386719 54.242188 "/>
<path style=" stroke:none;fill-rule:nonzero;fill:rgb(18.431373%,18.039216%,25.490196%);fill-opacity:1;" d="M 110.328125 29.273438 L 98.855469 29.070312 L 98.855469 21.539062 L 112.753906 21.539062 Z M 110.328125 29.273438 "/>
<path style=" stroke:none;fill-rule:nonzero;fill:rgb(18.431373%,18.039216%,25.490196%);fill-opacity:1;" d="M 114.960938 39.214844 L 109.886719 39.214844 C 111.761719 34.726562 111.597656 29.992188 109.886719 25.074219 L 114.960938 25.074219 Z M 114.960938 39.214844 "/>
<path style=" stroke:none;fill-rule:nonzero;fill:rgb(100%,72.156863%,72.156863%);fill-opacity:1;" d="M 121.246094 81.09375 L 118.242188 84.625 C 117.457031 85.542969 116.28125 86.027344 115.078125 85.925781 C 113.875 85.824219 112.796875 85.148438 112.179688 84.109375 C 111.628906 83.179688 111.503906 82.058594 111.835938 81.03125 C 112.171875 80.003906 112.929688 79.171875 113.921875 78.746094 L 119.261719 76.453125 L 125.660156 67.394531 L 122.128906 51.703125 L 128.304688 49.714844 L 131.835938 69.601562 Z M 121.246094 81.09375 "/>
<path style=" stroke:none;fill-rule:nonzero;fill:rgb(100%,72.156863%,72.156863%);fill-opacity:1;" d="M 98.085938 82.746094 L 101.089844 86.277344 C 101.875 87.199219 103.050781 87.683594 104.253906 87.578125 C 105.457031 87.476562 106.535156 86.800781 107.152344 85.761719 C 107.703125 84.832031 107.828125 83.710938 107.496094 82.683594 C 107.160156 81.65625 106.402344 80.824219 105.410156 80.398438 L 100.070312 78.105469 L 93.671875 69.046875 L 97.203125 53.355469 L 91.027344 51.367188 L 87.496094 71.257812 Z M 98.085938 82.746094 "/>
<path style=" stroke:none;fill-rule:nonzero;fill:rgb(90.196078%,90.196078%,90.196078%);fill-opacity:1;" d="M 129.1875 50.597656 C 126.390625 50.515625 123.679688 51.597656 121.707031 53.585938 L 119.5 40.324219 L 122.167969 40.292969 C 124.398438 40.378906 126.339844 41.84375 127.03125 43.96875 Z M 129.1875 50.597656 "/>
<path style=" stroke:none;fill-rule:nonzero;fill:rgb(90.196078%,90.196078%,90.196078%);fill-opacity:1;" d="M 90.144531 52.25 C 92.941406 52.167969 95.648438 53.25 97.625 55.238281 C 100.175781 51.359375 100.546875 46.832031 99.828125 41.980469 L 97.160156 41.949219 C 94.933594 42.03125 92.992188 43.496094 92.300781 45.621094 Z M 90.144531 52.25 "/>
<path style=" stroke:none;fill-rule:nonzero;fill:rgb(38.823529%,59.607843%,100%);fill-opacity:1;" d="M 116.613281 53.691406 L 116.855469 53.691406 L 118.320312 40.066406 C 118.328125 39.988281 118.304688 39.914062 118.253906 39.859375 C 118.203125 39.800781 118.132812 39.769531 118.054688 39.769531 L 116.882812 39.769531 C 116.734375 39.769531 116.613281 39.890625 116.613281 40.039062 Z M 116.613281 53.691406 "/>
<path style=" stroke:none;fill-rule:nonzero;fill:rgb(38.823529%,59.607843%,100%);fill-opacity:1;" d="M 99.628906 54.355469 L 99.875 54.355469 L 101.339844 41.882812 C 101.34375 41.824219 101.328125 41.761719 101.285156 41.71875 C 101.246094 41.671875 101.191406 41.648438 101.128906 41.648438 L 99.839844 41.648438 C 99.722656 41.648438 99.628906 41.742188 99.628906 41.859375 Z M 99.628906 54.355469 "/>
</g>
</svg>
