<?xml version="1.0" encoding="UTF-8"?>
<svg xmlns="http://www.w3.org/2000/svg" xmlns:xlink="http://www.w3.org/1999/xlink" width="196pt" height="159pt" viewBox="0 0 196 159" version="1.1">
<g id="surface1">
<path style=" stroke:none;fill-rule:nonzero;fill:rgb(24.705882%,23.921569%,33.72549%);fill-opacity:1;" d="M 196.003906 159.03125 L 131.402344 159.03125 L 131.402344 158.503906 L 196.097656 158.503906 Z M 196.003906 159.03125 "/>
<path style=" stroke:none;fill-rule:nonzero;fill:rgb(90.196078%,90.196078%,90.196078%);fill-opacity:1;" d="M 3.414062 1.707031 C 3.414062 2.652344 2.652344 3.417969 1.707031 3.417969 C 0.765625 3.417969 0 2.652344 0 1.707031 C 0 0.765625 0.765625 0 1.707031 0 C 2.652344 0 3.414062 0.765625 3.414062 1.707031 Z M 3.414062 1.707031 "/>
<path style=" stroke:none;fill-rule:nonzero;fill:rgb(90.196078%,90.196078%,90.196078%);fill-opacity:1;" d="M 12.058594 1.707031 C 12.058594 2.652344 11.296875 3.417969 10.351562 3.417969 C 9.410156 3.417969 8.644531 2.652344 8.644531 1.707031 C 8.644531 0.765625 9.410156 0 10.351562 0 C 11.296875 0 12.058594 0.765625 12.058594 1.707031 Z M 12.058594 1.707031 "/>
<path style=" stroke:none;fill-rule:nonzero;fill:rgb(90.196078%,90.196078%,90.196078%);fill-opacity:1;" d="M 20.703125 1.707031 C 20.703125 2.652344 19.9375 3.417969 18.996094 3.417969 C 18.054688 3.417969 17.289062 2.652344 17.289062 1.707031 C 17.289062 0.765625 18.054688 0 18.996094 0 C 19.9375 0 20.703125 0.765625 20.703125 1.707031 Z M 20.703125 1.707031 "/>
<path style=" stroke:none;fill-rule:nonzero;fill:rgb(90.196078%,90.196078%,90.196078%);fill-opacity:1;" d="M 29.347656 1.707031 C 29.347656 2.652344 28.582031 3.417969 27.640625 3.417969 C 26.699219 3.417969 25.933594 2.652344 25.933594 1.707031 C 25.933594 0.765625 26.699219 0 27.640625 0 C 28.582031 0 29.347656 0.765625 29.347656 1.707031 Z M 29.347656 1.707031 "/>
<path style=" stroke:none;fill-rule:nonzero;fill:rgb(90.196078%,90.196078%,90.196078%);fill-opacity:1;" d="M 37.992188 1.707031 C 37.992188 2.652344 37.226562 3.417969 36.285156 3.417969 C 35.339844 3.417969 34.578125 2.652344 34.578125 1.707031 C 34.578125 0.765625 35.339844 0 36.285156 0 C 37.226562 0 37.992188 0.765625 37.992188 1.707031 Z M 37.992188 1.707031 "/>
<path style=" stroke:none;fill-rule:nonzero;fill:rgb(90.196078%,90.196078%,90.196078%);fill-opacity:1;" d="M 46.636719 1.707031 C 46.636719 2.652344 45.871094 3.417969 44.929688 3.417969 C 43.984375 3.417969 43.222656 2.652344 43.222656 1.707031 C 43.222656 0.765625 43.984375 0 44.929688 0 C 45.871094 0 46.636719 0.765625 46.636719 1.707031 Z M 46.636719 1.707031 "/>
<path style=" stroke:none;fill-rule:nonzero;fill:rgb(90.196078%,90.196078%,90.196078%);fill-opacity:1;" d="M 55.28125 1.707031 C 55.28125 2.652344 54.515625 3.417969 53.574219 3.417969 C 52.628906 3.417969 51.867188 2.652344 51.867188 1.707031 C 51.867188 0.765625 52.628906 0 53.574219 0 C 54.515625 0 55.28125 0.765625 55.28125 1.707031 Z M 55.28125 1.707031 "/>
<path style=" stroke:none;fill-rule:nonzero;fill:rgb(90.196078%,90.196078%,90.196078%);fill-opacity:1;" d="M 63.925781 1.707031 C 63.925781 2.652344 63.160156 3.417969 62.21875 3.417969 C 61.273438 3.417969 60.511719 2.652344 60.511719 1.707031 C 60.511719 0.765625 61.273438 0 62.21875 0 C 63.160156 0 63.925781 0.765625 63.925781 1.707031 Z M 63.925781 1.707031 "/>
<path style=" stroke:none;fill-rule:nonzero;fill:rgb(90.196078%,90.196078%,90.196078%);fill-opacity:1;" d="M 72.570312 1.707031 C 72.570312 2.652344 71.804688 3.417969 70.863281 3.417969 C 69.917969 3.417969 69.15625 2.652344 69.15625 1.707031 C 69.15625 0.765625 69.917969 0 70.863281 0 C 71.804688 0 72.570312 0.765625 72.570312 1.707031 Z M 72.570312 1.707031 "/>
<path style=" stroke:none;fill-rule:nonzero;fill:rgb(90.196078%,90.196078%,90.196078%);fill-opacity:1;" d="M 81.214844 1.707031 C 81.214844 2.652344 80.449219 3.417969 79.507812 3.417969 C 78.5625 3.417969 77.796875 2.652344 77.796875 1.707031 C 77.796875 0.765625 78.5625 0 79.507812 0 C 80.449219 0 81.214844 0.765625 81.214844 1.707031 Z M 81.214844 1.707031 "/>
<path style=" stroke:none;fill-rule:nonzero;fill:rgb(90.196078%,90.196078%,90.196078%);fill-opacity:1;" d="M 3.414062 10.46875 C 3.414062 11.410156 2.652344 12.175781 1.707031 12.175781 C 0.765625 12.175781 0 11.410156 0 10.46875 C 0 9.523438 0.765625 8.757812 1.707031 8.757812 C 2.652344 8.757812 3.414062 9.523438 3.414062 10.46875 Z M 3.414062 10.46875 "/>
<path style=" stroke:none;fill-rule:nonzero;fill:rgb(90.196078%,90.196078%,90.196078%);fill-opacity:1;" d="M 12.058594 10.46875 C 12.058594 11.410156 11.296875 12.175781 10.351562 12.175781 C 9.410156 12.175781 8.644531 11.410156 8.644531 10.46875 C 8.644531 9.523438 9.410156 8.757812 10.351562 8.757812 C 11.296875 8.757812 12.058594 9.523438 12.058594 10.46875 Z M 12.058594 10.46875 "/>
<path style=" stroke:none;fill-rule:nonzero;fill:rgb(90.196078%,90.196078%,90.196078%);fill-opacity:1;" d="M 20.703125 10.46875 C 20.703125 11.410156 19.9375 12.175781 18.996094 12.175781 C 18.054688 12.175781 17.289062 11.410156 17.289062 10.46875 C 17.289062 9.523438 18.054688 8.757812 18.996094 8.757812 C 19.9375 8.757812 20.703125 9.523438 20.703125 10.46875 Z M 20.703125 10.46875 "/>
<path style=" stroke:none;fill-rule:nonzero;fill:rgb(38.823529%,59.607843%,100%);fill-opacity:1;" d="M 29.347656 10.46875 C 29.347656 11.410156 28.582031 12.175781 27.640625 12.175781 C 26.699219 12.175781 25.933594 11.410156 25.933594 10.46875 C 25.933594 9.523438 26.699219 8.757812 27.640625 8.757812 C 28.582031 8.757812 29.347656 9.523438 29.347656 10.46875 Z M 29.347656 10.46875 "/>
<path style=" stroke:none;fill-rule:nonzero;fill:rgb(90.196078%,90.196078%,90.196078%);fill-opacity:1;" d="M 37.992188 10.46875 C 37.992188 11.410156 37.226562 12.175781 36.285156 12.175781 C 35.339844 12.175781 34.578125 11.410156 34.578125 10.46875 C 34.578125 9.523438 35.339844 8.757812 36.285156 8.757812 C 37.226562 8.757812 37.992188 9.523438 37.992188 10.46875 Z M 37.992188 10.46875 "/>
<path style=" stroke:none;fill-rule:nonzero;fill:rgb(90.196078%,90.196078%,90.196078%);fill-opacity:1;" d="M 46.636719 10.46875 C 46.636719 11.410156 45.871094 12.175781 44.929688 12.175781 C 43.984375 12.175781 43.222656 11.410156 43.222656 10.46875 C 43.222656 9.523438 43.984375 8.757812 44.929688 8.757812 C 45.871094 8.757812 46.636719 9.523438 46.636719 10.46875 Z M 46.636719 10.46875 "/>
<path style=" stroke:none;fill-rule:nonzero;fill:rgb(90.196078%,90.196078%,90.196078%);fill-opacity:1;" d="M 55.28125 10.46875 C 55.28125 11.410156 54.515625 12.175781 53.574219 12.175781 C 52.628906 12.175781 51.867188 11.410156 51.867188 10.46875 C 51.867188 9.523438 52.628906 8.757812 53.574219 8.757812 C 54.515625 8.757812 55.28125 9.523438 55.28125 10.46875 Z M 55.28125 10.46875 "/>
<path style=" stroke:none;fill-rule:nonzero;fill:rgb(90.196078%,90.196078%,90.196078%);fill-opacity:1;" d="M 63.925781 10.46875 C 63.925781 11.410156 63.160156 12.175781 62.21875 12.175781 C 61.273438 12.175781 60.511719 11.410156 60.511719 10.46875 C 60.511719 9.523438 61.273438 8.757812 62.21875 8.757812 C 63.160156 8.757812 63.925781 9.523438 63.925781 10.46875 Z M 63.925781 10.46875 "/>
<path style=" stroke:none;fill-rule:nonzero;fill:rgb(90.196078%,90.196078%,90.196078%);fill-opacity:1;" d="M 72.570312 10.46875 C 72.570312 11.410156 71.804688 12.175781 70.863281 12.175781 C 69.917969 12.175781 69.15625 11.410156 69.15625 10.46875 C 69.15625 9.523438 69.917969 8.757812 70.863281 8.757812 C 71.804688 8.757812 72.570312 9.523438 72.570312 10.46875 Z M 72.570312 10.46875 "/>
<path style=" stroke:none;fill-rule:nonzero;fill:rgb(90.196078%,90.196078%,90.196078%);fill-opacity:1;" d="M 81.214844 10.46875 C 81.214844 11.410156 80.449219 12.175781 79.507812 12.175781 C 78.5625 12.175781 77.796875 11.410156 77.796875 10.46875 C 77.796875 9.523438 78.5625 8.757812 79.507812 8.757812 C 80.449219 8.757812 81.214844 9.523438 81.214844 10.46875 Z M 81.214844 10.46875 "/>
<path style=" stroke:none;fill-rule:nonzero;fill:rgb(90.196078%,90.196078%,90.196078%);fill-opacity:1;" d="M 3.414062 19.226562 C 3.414062 20.167969 2.652344 20.933594 1.707031 20.933594 C 0.765625 20.933594 0 20.167969 0 19.226562 C 0 18.28125 0.765625 17.515625 1.707031 17.515625 C 2.652344 17.515625 3.414062 18.28125 3.414062 19.226562 Z M 3.414062 19.226562 "/>
<path style=" stroke:none;fill-rule:nonzero;fill:rgb(90.196078%,90.196078%,90.196078%);fill-opacity:1;" d="M 12.058594 19.226562 C 12.058594 20.167969 11.296875 20.933594 10.351562 20.933594 C 9.410156 20.933594 8.644531 20.167969 8.644531 19.226562 C 8.644531 18.28125 9.410156 17.515625 10.351562 17.515625 C 11.296875 17.515625 12.058594 18.28125 12.058594 19.226562 Z M 12.058594 19.226562 "/>
<path style=" stroke:none;fill-rule:nonzero;fill:rgb(90.196078%,90.196078%,90.196078%);fill-opacity:1;" d="M 20.703125 19.226562 C 20.703125 20.167969 19.9375 20.933594 18.996094 20.933594 C 18.054688 20.933594 17.289062 20.167969 17.289062 19.226562 C 17.289062 18.28125 18.054688 17.515625 18.996094 17.515625 C 19.9375 17.515625 20.703125 18.28125 20.703125 19.226562 Z M 20.703125 19.226562 "/>
<path style=" stroke:none;fill-rule:nonzero;fill:rgb(90.196078%,90.196078%,90.196078%);fill-opacity:1;" d="M 29.347656 19.226562 C 29.347656 20.167969 28.582031 20.933594 27.640625 20.933594 C 26.699219 20.933594 25.933594 20.167969 25.933594 19.226562 C 25.933594 18.28125 26.699219 17.515625 27.640625 17.515625 C 28.582031 17.515625 29.347656 18.28125 29.347656 19.226562 Z M 29.347656 19.226562 "/>
<path style=" stroke:none;fill-rule:nonzero;fill:rgb(90.196078%,90.196078%,90.196078%);fill-opacity:1;" d="M 37.992188 19.226562 C 37.992188 20.167969 37.226562 20.933594 36.285156 20.933594 C 35.339844 20.933594 34.578125 20.167969 34.578125 19.226562 C 34.578125 18.28125 35.339844 17.515625 36.285156 17.515625 C 37.226562 17.515625 37.992188 18.28125 37.992188 19.226562 Z M 37.992188 19.226562 "/>
<path style=" stroke:none;fill-rule:nonzero;fill:rgb(90.196078%,90.196078%,90.196078%);fill-opacity:1;" d="M 46.636719 19.226562 C 46.636719 20.167969 45.871094 20.933594 44.929688 20.933594 C 43.984375 20.933594 43.222656 20.167969 43.222656 19.226562 C 43.222656 18.28125 43.984375 17.515625 44.929688 17.515625 C 45.871094 17.515625 46.636719 18.28125 46.636719 19.226562 Z M 46.636719 19.226562 "/>
<path style=" stroke:none;fill-rule:nonzero;fill:rgb(90.196078%,90.196078%,90.196078%);fill-opacity:1;" d="M 55.28125 19.226562 C 55.28125 20.167969 54.515625 20.933594 53.574219 20.933594 C 52.628906 20.933594 51.867188 20.167969 51.867188 19.226562 C 51.867188 18.28125 52.628906 17.515625 53.574219 17.515625 C 54.515625 17.515625 55.28125 18.28125 55.28125 19.226562 Z M 55.28125 19.226562 "/>
<path style=" stroke:none;fill-rule:nonzero;fill:rgb(90.196078%,90.196078%,90.196078%);fill-opacity:1;" d="M 63.925781 19.226562 C 63.925781 20.167969 63.160156 20.933594 62.21875 20.933594 C 61.273438 20.933594 60.511719 20.167969 60.511719 19.226562 C 60.511719 18.28125 61.273438 17.515625 62.21875 17.515625 C 63.160156 17.515625 63.925781 18.28125 63.925781 19.226562 Z M 63.925781 19.226562 "/>
<path style=" stroke:none;fill-rule:nonzero;fill:rgb(90.196078%,90.196078%,90.196078%);fill-opacity:1;" d="M 72.570312 19.226562 C 72.570312 20.167969 71.804688 20.933594 70.863281 20.933594 C 69.917969 20.933594 69.15625 20.167969 69.15625 19.226562 C 69.15625 18.28125 69.917969 17.515625 70.863281 17.515625 C 71.804688 17.515625 72.570312 18.28125 72.570312 19.226562 Z M 72.570312 19.226562 "/>
<path style=" stroke:none;fill-rule:nonzero;fill:rgb(90.196078%,90.196078%,90.196078%);fill-opacity:1;" d="M 81.214844 19.226562 C 81.214844 20.167969 80.449219 20.933594 79.507812 20.933594 C 78.5625 20.933594 77.796875 20.167969 77.796875 19.226562 C 77.796875 18.28125 78.5625 17.515625 79.507812 17.515625 C 80.449219 17.515625 81.214844 18.28125 81.214844 19.226562 Z M 81.214844 19.226562 "/>
<path style=" stroke:none;fill-rule:nonzero;fill:rgb(90.196078%,90.196078%,90.196078%);fill-opacity:1;" d="M 3.414062 27.984375 C 3.414062 28.925781 2.652344 29.691406 1.707031 29.691406 C 0.765625 29.691406 0 28.925781 0 27.984375 C 0 27.039062 0.765625 26.273438 1.707031 26.273438 C 2.652344 26.273438 3.414062 27.039062 3.414062 27.984375 Z M 3.414062 27.984375 "/>
<path style=" stroke:none;fill-rule:nonzero;fill:rgb(90.196078%,90.196078%,90.196078%);fill-opacity:1;" d="M 12.058594 27.984375 C 12.058594 28.925781 11.296875 29.691406 10.351562 29.691406 C 9.410156 29.691406 8.644531 28.925781 8.644531 27.984375 C 8.644531 27.039062 9.410156 26.273438 10.351562 26.273438 C 11.296875 26.273438 12.058594 27.039062 12.058594 27.984375 Z M 12.058594 27.984375 "/>
<path style=" stroke:none;fill-rule:nonzero;fill:rgb(90.196078%,90.196078%,90.196078%);fill-opacity:1;" d="M 20.703125 27.984375 C 20.703125 28.925781 19.9375 29.691406 18.996094 29.691406 C 18.054688 29.691406 17.289062 28.925781 17.289062 27.984375 C 17.289062 27.039062 18.054688 26.273438 18.996094 26.273438 C 19.9375 26.273438 20.703125 27.039062 20.703125 27.984375 Z M 20.703125 27.984375 "/>
<path style=" stroke:none;fill-rule:nonzero;fill:rgb(90.196078%,90.196078%,90.196078%);fill-opacity:1;" d="M 29.347656 27.984375 C 29.347656 28.925781 28.582031 29.691406 27.640625 29.691406 C 26.699219 29.691406 25.933594 28.925781 25.933594 27.984375 C 25.933594 27.039062 26.699219 26.273438 27.640625 26.273438 C 28.582031 26.273438 29.347656 27.039062 29.347656 27.984375 Z M 29.347656 27.984375 "/>
<path style=" stroke:none;fill-rule:nonzero;fill:rgb(90.196078%,90.196078%,90.196078%);fill-opacity:1;" d="M 37.992188 27.984375 C 37.992188 28.925781 37.226562 29.691406 36.285156 29.691406 C 35.339844 29.691406 34.578125 28.925781 34.578125 27.984375 C 34.578125 27.039062 35.339844 26.273438 36.285156 26.273438 C 37.226562 26.273438 37.992188 27.039062 37.992188 27.984375 Z M 37.992188 27.984375 "/>
<path style=" stroke:none;fill-rule:nonzero;fill:rgb(90.196078%,90.196078%,90.196078%);fill-opacity:1;" d="M 46.636719 27.984375 C 46.636719 28.925781 45.871094 29.691406 44.929688 29.691406 C 43.984375 29.691406 43.222656 28.925781 43.222656 27.984375 C 43.222656 27.039062 43.984375 26.273438 44.929688 26.273438 C 45.871094 26.273438 46.636719 27.039062 46.636719 27.984375 Z M 46.636719 27.984375 "/>
<path style=" stroke:none;fill-rule:nonzero;fill:rgb(90.196078%,90.196078%,90.196078%);fill-opacity:1;" d="M 55.28125 27.984375 C 55.28125 28.925781 54.515625 29.691406 53.574219 29.691406 C 52.628906 29.691406 51.867188 28.925781 51.867188 27.984375 C 51.867188 27.039062 52.628906 26.273438 53.574219 26.273438 C 54.515625 26.273438 55.28125 27.039062 55.28125 27.984375 Z M 55.28125 27.984375 "/>
<path style=" stroke:none;fill-rule:nonzero;fill:rgb(90.196078%,90.196078%,90.196078%);fill-opacity:1;" d="M 63.925781 27.984375 C 63.925781 28.925781 63.160156 29.691406 62.21875 29.691406 C 61.273438 29.691406 60.511719 28.925781 60.511719 27.984375 C 60.511719 27.039062 61.273438 26.273438 62.21875 26.273438 C 63.160156 26.273438 63.925781 27.039062 63.925781 27.984375 Z M 63.925781 27.984375 "/>
<path style=" stroke:none;fill-rule:nonzero;fill:rgb(90.196078%,90.196078%,90.196078%);fill-opacity:1;" d="M 72.570312 27.984375 C 72.570312 28.925781 71.804688 29.691406 70.863281 29.691406 C 69.917969 29.691406 69.15625 28.925781 69.15625 27.984375 C 69.15625 27.039062 69.917969 26.273438 70.863281 26.273438 C 71.804688 26.273438 72.570312 27.039062 72.570312 27.984375 Z M 72.570312 27.984375 "/>
<path style=" stroke:none;fill-rule:nonzero;fill:rgb(90.196078%,90.196078%,90.196078%);fill-opacity:1;" d="M 81.214844 27.984375 C 81.214844 28.925781 80.449219 29.691406 79.507812 29.691406 C 78.5625 29.691406 77.796875 28.925781 77.796875 27.984375 C 77.796875 27.039062 78.5625 26.273438 79.507812 26.273438 C 80.449219 26.273438 81.214844 27.039062 81.214844 27.984375 Z M 81.214844 27.984375 "/>
<path style=" stroke:none;fill-rule:nonzero;fill:rgb(90.196078%,90.196078%,90.196078%);fill-opacity:1;" d="M 3.414062 36.742188 C 3.414062 37.683594 2.652344 38.449219 1.707031 38.449219 C 0.765625 38.449219 0 37.683594 0 36.742188 C 0 35.796875 0.765625 35.03125 1.707031 35.03125 C 2.652344 35.03125 3.414062 35.796875 3.414062 36.742188 Z M 3.414062 36.742188 "/>
<path style=" stroke:none;fill-rule:nonzero;fill:rgb(38.823529%,59.607843%,100%);fill-opacity:1;" d="M 12.058594 36.742188 C 12.058594 37.683594 11.296875 38.449219 10.351562 38.449219 C 9.410156 38.449219 8.644531 37.683594 8.644531 36.742188 C 8.644531 35.796875 9.410156 35.03125 10.351562 35.03125 C 11.296875 35.03125 12.058594 35.796875 12.058594 36.742188 Z M 12.058594 36.742188 "/>
<path style=" stroke:none;fill-rule:nonzero;fill:rgb(90.196078%,90.196078%,90.196078%);fill-opacity:1;" d="M 20.703125 36.742188 C 20.703125 37.683594 19.9375 38.449219 18.996094 38.449219 C 18.054688 38.449219 17.289062 37.683594 17.289062 36.742188 C 17.289062 35.796875 18.054688 35.03125 18.996094 35.03125 C 19.9375 35.03125 20.703125 35.796875 20.703125 36.742188 Z M 20.703125 36.742188 "/>
<path style=" stroke:none;fill-rule:nonzero;fill:rgb(90.196078%,90.196078%,90.196078%);fill-opacity:1;" d="M 29.347656 36.742188 C 29.347656 37.683594 28.582031 38.449219 27.640625 38.449219 C 26.699219 38.449219 25.933594 37.683594 25.933594 36.742188 C 25.933594 35.796875 26.699219 35.03125 27.640625 35.03125 C 28.582031 35.03125 29.347656 35.796875 29.347656 36.742188 Z M 29.347656 36.742188 "/>
<path style=" stroke:none;fill-rule:nonzero;fill:rgb(90.196078%,90.196078%,90.196078%);fill-opacity:1;" d="M 37.992188 36.742188 C 37.992188 37.683594 37.226562 38.449219 36.285156 38.449219 C 35.339844 38.449219 34.578125 37.683594 34.578125 36.742188 C 34.578125 35.796875 35.339844 35.03125 36.285156 35.03125 C 37.226562 35.03125 37.992188 35.796875 37.992188 36.742188 Z M 37.992188 36.742188 "/>
<path style=" stroke:none;fill-rule:nonzero;fill:rgb(90.196078%,90.196078%,90.196078%);fill-opacity:1;" d="M 46.636719 36.742188 C 46.636719 37.683594 45.871094 38.449219 44.929688 38.449219 C 43.984375 38.449219 43.222656 37.683594 43.222656 36.742188 C 43.222656 35.796875 43.984375 35.03125 44.929688 35.03125 C 45.871094 35.03125 46.636719 35.796875 46.636719 36.742188 Z M 46.636719 36.742188 "/>
<path style=" stroke:none;fill-rule:nonzero;fill:rgb(90.196078%,90.196078%,90.196078%);fill-opacity:1;" d="M 55.28125 36.742188 C 55.28125 37.683594 54.515625 38.449219 53.574219 38.449219 C 52.628906 38.449219 51.867188 37.683594 51.867188 36.742188 C 51.867188 35.796875 52.628906 35.03125 53.574219 35.03125 C 54.515625 35.03125 55.28125 35.796875 55.28125 36.742188 Z M 55.28125 36.742188 "/>
<path style=" stroke:none;fill-rule:nonzero;fill:rgb(90.196078%,90.196078%,90.196078%);fill-opacity:1;" d="M 63.925781 36.742188 C 63.925781 37.683594 63.160156 38.449219 62.21875 38.449219 C 61.273438 38.449219 60.511719 37.683594 60.511719 36.742188 C 60.511719 35.796875 61.273438 35.03125 62.21875 35.03125 C 63.160156 35.03125 63.925781 35.796875 63.925781 36.742188 Z M 63.925781 36.742188 "/>
<path style=" stroke:none;fill-rule:nonzero;fill:rgb(90.196078%,90.196078%,90.196078%);fill-opacity:1;" d="M 72.570312 36.742188 C 72.570312 37.683594 71.804688 38.449219 70.863281 38.449219 C 69.917969 38.449219 69.15625 37.683594 69.15625 36.742188 C 69.15625 35.796875 69.917969 35.03125 70.863281 35.03125 C 71.804688 35.03125 72.570312 35.796875 72.570312 36.742188 Z M 72.570312 36.742188 "/>
<path style=" stroke:none;fill-rule:nonzero;fill:rgb(90.196078%,90.196078%,90.196078%);fill-opacity:1;" d="M 81.214844 36.742188 C 81.214844 37.683594 80.449219 38.449219 79.507812 38.449219 C 78.5625 38.449219 77.796875 37.683594 77.796875 36.742188 C 77.796875 35.796875 78.5625 35.03125 79.507812 35.03125 C 80.449219 35.03125 81.214844 35.796875 81.214844 36.742188 Z M 81.214844 36.742188 "/>
<path style=" stroke:none;fill-rule:nonzero;fill:rgb(90.196078%,90.196078%,90.196078%);fill-opacity:1;" d="M 3.414062 45.5 C 3.414062 46.441406 2.652344 47.207031 1.707031 47.207031 C 0.765625 47.207031 0 46.441406 0 45.5 C 0 44.554688 0.765625 43.789062 1.707031 43.789062 C 2.652344 43.789062 3.414062 44.554688 3.414062 45.5 Z M 3.414062 45.5 "/>
<path style=" stroke:none;fill-rule:nonzero;fill:rgb(90.196078%,90.196078%,90.196078%);fill-opacity:1;" d="M 12.058594 45.5 C 12.058594 46.441406 11.296875 47.207031 10.351562 47.207031 C 9.410156 47.207031 8.644531 46.441406 8.644531 45.5 C 8.644531 44.554688 9.410156 43.789062 10.351562 43.789062 C 11.296875 43.789062 12.058594 44.554688 12.058594 45.5 Z M 12.058594 45.5 "/>
<path style=" stroke:none;fill-rule:nonzero;fill:rgb(90.196078%,90.196078%,90.196078%);fill-opacity:1;" d="M 20.703125 45.5 C 20.703125 46.441406 19.9375 47.207031 18.996094 47.207031 C 18.054688 47.207031 17.289062 46.441406 17.289062 45.5 C 17.289062 44.554688 18.054688 43.789062 18.996094 43.789062 C 19.9375 43.789062 20.703125 44.554688 20.703125 45.5 Z M 20.703125 45.5 "/>
<path style=" stroke:none;fill-rule:nonzero;fill:rgb(90.196078%,90.196078%,90.196078%);fill-opacity:1;" d="M 29.347656 45.5 C 29.347656 46.441406 28.582031 47.207031 27.640625 47.207031 C 26.699219 47.207031 25.933594 46.441406 25.933594 45.5 C 25.933594 44.554688 26.699219 43.789062 27.640625 43.789062 C 28.582031 43.789062 29.347656 44.554688 29.347656 45.5 Z M 29.347656 45.5 "/>
<path style=" stroke:none;fill-rule:nonzero;fill:rgb(90.196078%,90.196078%,90.196078%);fill-opacity:1;" d="M 37.992188 45.5 C 37.992188 46.441406 37.226562 47.207031 36.285156 47.207031 C 35.339844 47.207031 34.578125 46.441406 34.578125 45.5 C 34.578125 44.554688 35.339844 43.789062 36.285156 43.789062 C 37.226562 43.789062 37.992188 44.554688 37.992188 45.5 Z M 37.992188 45.5 "/>
<path style=" stroke:none;fill-rule:nonzero;fill:rgb(90.196078%,90.196078%,90.196078%);fill-opacity:1;" d="M 46.636719 45.5 C 46.636719 46.441406 45.871094 47.207031 44.929688 47.207031 C 43.984375 47.207031 43.222656 46.441406 43.222656 45.5 C 43.222656 44.554688 43.984375 43.789062 44.929688 43.789062 C 45.871094 43.789062 46.636719 44.554688 46.636719 45.5 Z M 46.636719 45.5 "/>
<path style=" stroke:none;fill-rule:nonzero;fill:rgb(90.196078%,90.196078%,90.196078%);fill-opacity:1;" d="M 55.28125 45.5 C 55.28125 46.441406 54.515625 47.207031 53.574219 47.207031 C 52.628906 47.207031 51.867188 46.441406 51.867188 45.5 C 51.867188 44.554688 52.628906 43.789062 53.574219 43.789062 C 54.515625 43.789062 55.28125 44.554688 55.28125 45.5 Z M 55.28125 45.5 "/>
<path style=" stroke:none;fill-rule:nonzero;fill:rgb(90.196078%,90.196078%,90.196078%);fill-opacity:1;" d="M 63.925781 45.5 C 63.925781 46.441406 63.160156 47.207031 62.21875 47.207031 C 61.273438 47.207031 60.511719 46.441406 60.511719 45.5 C 60.511719 44.554688 61.273438 43.789062 62.21875 43.789062 C 63.160156 43.789062 63.925781 44.554688 63.925781 45.5 Z M 63.925781 45.5 "/>
<path style=" stroke:none;fill-rule:nonzero;fill:rgb(90.196078%,90.196078%,90.196078%);fill-opacity:1;" d="M 72.570312 45.5 C 72.570312 46.441406 71.804688 47.207031 70.863281 47.207031 C 69.917969 47.207031 69.15625 46.441406 69.15625 45.5 C 69.15625 44.554688 69.917969 43.789062 70.863281 43.789062 C 71.804688 43.789062 72.570312 44.554688 72.570312 45.5 Z M 72.570312 45.5 "/>
<path style=" stroke:none;fill-rule:nonzero;fill:rgb(90.196078%,90.196078%,90.196078%);fill-opacity:1;" d="M 81.214844 45.5 C 81.214844 46.441406 80.449219 47.207031 79.507812 47.207031 C 78.5625 47.207031 77.796875 46.441406 77.796875 45.5 C 77.796875 44.554688 78.5625 43.789062 79.507812 43.789062 C 80.449219 43.789062 81.214844 44.554688 81.214844 45.5 Z M 81.214844 45.5 "/>
<path style=" stroke:none;fill-rule:nonzero;fill:rgb(90.196078%,90.196078%,90.196078%);fill-opacity:1;" d="M 3.414062 54.257812 C 3.414062 55.199219 2.652344 55.964844 1.707031 55.964844 C 0.765625 55.964844 0 55.199219 0 54.257812 C 0 53.3125 0.765625 52.546875 1.707031 52.546875 C 2.652344 52.546875 3.414062 53.3125 3.414062 54.257812 Z M 3.414062 54.257812 "/>
<path style=" stroke:none;fill-rule:nonzero;fill:rgb(90.196078%,90.196078%,90.196078%);fill-opacity:1;" d="M 12.058594 54.257812 C 12.058594 55.199219 11.296875 55.964844 10.351562 55.964844 C 9.410156 55.964844 8.644531 55.199219 8.644531 54.257812 C 8.644531 53.3125 9.410156 52.546875 10.351562 52.546875 C 11.296875 52.546875 12.058594 53.3125 12.058594 54.257812 Z M 12.058594 54.257812 "/>
<path style=" stroke:none;fill-rule:nonzero;fill:rgb(38.823529%,59.607843%,100%);fill-opacity:1;" d="M 20.703125 54.257812 C 20.703125 55.199219 19.9375 55.964844 18.996094 55.964844 C 18.054688 55.964844 17.289062 55.199219 17.289062 54.257812 C 17.289062 53.3125 18.054688 52.546875 18.996094 52.546875 C 19.9375 52.546875 20.703125 53.3125 20.703125 54.257812 Z M 20.703125 54.257812 "/>
<path style=" stroke:none;fill-rule:nonzero;fill:rgb(90.196078%,90.196078%,90.196078%);fill-opacity:1;" d="M 29.347656 54.257812 C 29.347656 55.199219 28.582031 55.964844 27.640625 55.964844 C 26.699219 55.964844 25.933594 55.199219 25.933594 54.257812 C 25.933594 53.3125 26.699219 52.546875 27.640625 52.546875 C 28.582031 52.546875 29.347656 53.3125 29.347656 54.257812 Z M 29.347656 54.257812 "/>
<path style=" stroke:none;fill-rule:nonzero;fill:rgb(90.196078%,90.196078%,90.196078%);fill-opacity:1;" d="M 37.992188 54.257812 C 37.992188 55.199219 37.226562 55.964844 36.285156 55.964844 C 35.339844 55.964844 34.578125 55.199219 34.578125 54.257812 C 34.578125 53.3125 35.339844 52.546875 36.285156 52.546875 C 37.226562 52.546875 37.992188 53.3125 37.992188 54.257812 Z M 37.992188 54.257812 "/>
<path style=" stroke:none;fill-rule:nonzero;fill:rgb(90.196078%,90.196078%,90.196078%);fill-opacity:1;" d="M 46.636719 54.257812 C 46.636719 55.199219 45.871094 55.964844 44.929688 55.964844 C 43.984375 55.964844 43.222656 55.199219 43.222656 54.257812 C 43.222656 53.3125 43.984375 52.546875 44.929688 52.546875 C 45.871094 52.546875 46.636719 53.3125 46.636719 54.257812 Z M 46.636719 54.257812 "/>
<path style=" stroke:none;fill-rule:nonzero;fill:rgb(90.196078%,90.196078%,90.196078%);fill-opacity:1;" d="M 55.28125 54.257812 C 55.28125 55.199219 54.515625 55.964844 53.574219 55.964844 C 52.628906 55.964844 51.867188 55.199219 51.867188 54.257812 C 51.867188 53.3125 52.628906 52.546875 53.574219 52.546875 C 54.515625 52.546875 55.28125 53.3125 55.28125 54.257812 Z M 55.28125 54.257812 "/>
<path style=" stroke:none;fill-rule:nonzero;fill:rgb(90.196078%,90.196078%,90.196078%);fill-opacity:1;" d="M 63.925781 54.257812 C 63.925781 55.199219 63.160156 55.964844 62.21875 55.964844 C 61.273438 55.964844 60.511719 55.199219 60.511719 54.257812 C 60.511719 53.3125 61.273438 52.546875 62.21875 52.546875 C 63.160156 52.546875 63.925781 53.3125 63.925781 54.257812 Z M 63.925781 54.257812 "/>
<path style=" stroke:none;fill-rule:nonzero;fill:rgb(90.196078%,90.196078%,90.196078%);fill-opacity:1;" d="M 72.570312 54.257812 C 72.570312 55.199219 71.804688 55.964844 70.863281 55.964844 C 69.917969 55.964844 69.15625 55.199219 69.15625 54.257812 C 69.15625 53.3125 69.917969 52.546875 70.863281 52.546875 C 71.804688 52.546875 72.570312 53.3125 72.570312 54.257812 Z M 72.570312 54.257812 "/>
<path style=" stroke:none;fill-rule:nonzero;fill:rgb(90.196078%,90.196078%,90.196078%);fill-opacity:1;" d="M 81.214844 54.257812 C 81.214844 55.199219 80.449219 55.964844 79.507812 55.964844 C 78.5625 55.964844 77.796875 55.199219 77.796875 54.257812 C 77.796875 53.3125 78.5625 52.546875 79.507812 52.546875 C 80.449219 52.546875 81.214844 53.3125 81.214844 54.257812 Z M 81.214844 54.257812 "/>
<path style=" stroke:none;fill-rule:nonzero;fill:rgb(90.196078%,90.196078%,90.196078%);fill-opacity:1;" d="M 3.414062 63.015625 C 3.414062 63.957031 2.652344 64.722656 1.707031 64.722656 C 0.765625 64.722656 0 63.957031 0 63.015625 C 0 62.070312 0.765625 61.304688 1.707031 61.304688 C 2.652344 61.304688 3.414062 62.070312 3.414062 63.015625 Z M 3.414062 63.015625 "/>
<path style=" stroke:none;fill-rule:nonzero;fill:rgb(90.196078%,90.196078%,90.196078%);fill-opacity:1;" d="M 12.058594 63.015625 C 12.058594 63.957031 11.296875 64.722656 10.351562 64.722656 C 9.410156 64.722656 8.644531 63.957031 8.644531 63.015625 C 8.644531 62.070312 9.410156 61.304688 10.351562 61.304688 C 11.296875 61.304688 12.058594 62.070312 12.058594 63.015625 Z M 12.058594 63.015625 "/>
<path style=" stroke:none;fill-rule:nonzero;fill:rgb(90.196078%,90.196078%,90.196078%);fill-opacity:1;" d="M 20.703125 63.015625 C 20.703125 63.957031 19.9375 64.722656 18.996094 64.722656 C 18.054688 64.722656 17.289062 63.957031 17.289062 63.015625 C 17.289062 62.070312 18.054688 61.304688 18.996094 61.304688 C 19.9375 61.304688 20.703125 62.070312 20.703125 63.015625 Z M 20.703125 63.015625 "/>
<path style=" stroke:none;fill-rule:nonzero;fill:rgb(90.196078%,90.196078%,90.196078%);fill-opacity:1;" d="M 29.347656 63.015625 C 29.347656 63.957031 28.582031 64.722656 27.640625 64.722656 C 26.699219 64.722656 25.933594 63.957031 25.933594 63.015625 C 25.933594 62.070312 26.699219 61.304688 27.640625 61.304688 C 28.582031 61.304688 29.347656 62.070312 29.347656 63.015625 Z M 29.347656 63.015625 "/>
<path style=" stroke:none;fill-rule:nonzero;fill:rgb(90.196078%,90.196078%,90.196078%);fill-opacity:1;" d="M 37.992188 63.015625 C 37.992188 63.957031 37.226562 64.722656 36.285156 64.722656 C 35.339844 64.722656 34.578125 63.957031 34.578125 63.015625 C 34.578125 62.070312 35.339844 61.304688 36.285156 61.304688 C 37.226562 61.304688 37.992188 62.070312 37.992188 63.015625 Z M 37.992188 63.015625 "/>
<path style=" stroke:none;fill-rule:nonzero;fill:rgb(90.196078%,90.196078%,90.196078%);fill-opacity:1;" d="M 46.636719 63.015625 C 46.636719 63.957031 45.871094 64.722656 44.929688 64.722656 C 43.984375 64.722656 43.222656 63.957031 43.222656 63.015625 C 43.222656 62.070312 43.984375 61.304688 44.929688 61.304688 C 45.871094 61.304688 46.636719 62.070312 46.636719 63.015625 Z M 46.636719 63.015625 "/>
<path style=" stroke:none;fill-rule:nonzero;fill:rgb(90.196078%,90.196078%,90.196078%);fill-opacity:1;" d="M 55.28125 63.015625 C 55.28125 63.957031 54.515625 64.722656 53.574219 64.722656 C 52.628906 64.722656 51.867188 63.957031 51.867188 63.015625 C 51.867188 62.070312 52.628906 61.304688 53.574219 61.304688 C 54.515625 61.304688 55.28125 62.070312 55.28125 63.015625 Z M 55.28125 63.015625 "/>
<path style=" stroke:none;fill-rule:nonzero;fill:rgb(90.196078%,90.196078%,90.196078%);fill-opacity:1;" d="M 63.925781 63.015625 C 63.925781 63.957031 63.160156 64.722656 62.21875 64.722656 C 61.273438 64.722656 60.511719 63.957031 60.511719 63.015625 C 60.511719 62.070312 61.273438 61.304688 62.21875 61.304688 C 63.160156 61.304688 63.925781 62.070312 63.925781 63.015625 Z M 63.925781 63.015625 "/>
<path style=" stroke:none;fill-rule:nonzero;fill:rgb(90.196078%,90.196078%,90.196078%);fill-opacity:1;" d="M 72.570312 63.015625 C 72.570312 63.957031 71.804688 64.722656 70.863281 64.722656 C 69.917969 64.722656 69.15625 63.957031 69.15625 63.015625 C 69.15625 62.070312 69.917969 61.304688 70.863281 61.304688 C 71.804688 61.304688 72.570312 62.070312 72.570312 63.015625 Z M 72.570312 63.015625 "/>
<path style=" stroke:none;fill-rule:nonzero;fill:rgb(90.196078%,90.196078%,90.196078%);fill-opacity:1;" d="M 81.214844 63.015625 C 81.214844 63.957031 80.449219 64.722656 79.507812 64.722656 C 78.5625 64.722656 77.796875 63.957031 77.796875 63.015625 C 77.796875 62.070312 78.5625 61.304688 79.507812 61.304688 C 80.449219 61.304688 81.214844 62.070312 81.214844 63.015625 Z M 81.214844 63.015625 "/>
<path style=" stroke:none;fill-rule:nonzero;fill:rgb(90.196078%,90.196078%,90.196078%);fill-opacity:1;" d="M 3.414062 71.773438 C 3.414062 72.71875 2.652344 73.480469 1.707031 73.480469 C 0.765625 73.480469 0 72.71875 0 71.773438 C 0 70.828125 0.765625 70.0625 1.707031 70.0625 C 2.652344 70.0625 3.414062 70.828125 3.414062 71.773438 Z M 3.414062 71.773438 "/>
<path style=" stroke:none;fill-rule:nonzero;fill:rgb(90.196078%,90.196078%,90.196078%);fill-opacity:1;" d="M 12.058594 71.773438 C 12.058594 72.71875 11.296875 73.480469 10.351562 73.480469 C 9.410156 73.480469 8.644531 72.71875 8.644531 71.773438 C 8.644531 70.828125 9.410156 70.0625 10.351562 70.0625 C 11.296875 70.0625 12.058594 70.828125 12.058594 71.773438 Z M 12.058594 71.773438 "/>
<path style=" stroke:none;fill-rule:nonzero;fill:rgb(90.196078%,90.196078%,90.196078%);fill-opacity:1;" d="M 20.703125 71.773438 C 20.703125 72.71875 19.9375 73.480469 18.996094 73.480469 C 18.054688 73.480469 17.289062 72.71875 17.289062 71.773438 C 17.289062 70.828125 18.054688 70.0625 18.996094 70.0625 C 19.9375 70.0625 20.703125 70.828125 20.703125 71.773438 Z M 20.703125 71.773438 "/>
<path style=" stroke:none;fill-rule:nonzero;fill:rgb(90.196078%,90.196078%,90.196078%);fill-opacity:1;" d="M 29.347656 71.773438 C 29.347656 72.71875 28.582031 73.480469 27.640625 73.480469 C 26.699219 73.480469 25.933594 72.71875 25.933594 71.773438 C 25.933594 70.828125 26.699219 70.0625 27.640625 70.0625 C 28.582031 70.0625 29.347656 70.828125 29.347656 71.773438 Z M 29.347656 71.773438 "/>
<path style=" stroke:none;fill-rule:nonzero;fill:rgb(90.196078%,90.196078%,90.196078%);fill-opacity:1;" d="M 37.992188 71.773438 C 37.992188 72.71875 37.226562 73.480469 36.285156 73.480469 C 35.339844 73.480469 34.578125 72.71875 34.578125 71.773438 C 34.578125 70.828125 35.339844 70.0625 36.285156 70.0625 C 37.226562 70.0625 37.992188 70.828125 37.992188 71.773438 Z M 37.992188 71.773438 "/>
<path style=" stroke:none;fill-rule:nonzero;fill:rgb(90.196078%,90.196078%,90.196078%);fill-opacity:1;" d="M 46.636719 71.773438 C 46.636719 72.71875 45.871094 73.480469 44.929688 73.480469 C 43.984375 73.480469 43.222656 72.71875 43.222656 71.773438 C 43.222656 70.828125 43.984375 70.0625 44.929688 70.0625 C 45.871094 70.0625 46.636719 70.828125 46.636719 71.773438 Z M 46.636719 71.773438 "/>
<path style=" stroke:none;fill-rule:nonzero;fill:rgb(90.196078%,90.196078%,90.196078%);fill-opacity:1;" d="M 55.28125 71.773438 C 55.28125 72.71875 54.515625 73.480469 53.574219 73.480469 C 52.628906 73.480469 51.867188 72.71875 51.867188 71.773438 C 51.867188 70.828125 52.628906 70.0625 53.574219 70.0625 C 54.515625 70.0625 55.28125 70.828125 55.28125 71.773438 Z M 55.28125 71.773438 "/>
<path style=" stroke:none;fill-rule:nonzero;fill:rgb(90.196078%,90.196078%,90.196078%);fill-opacity:1;" d="M 63.925781 71.773438 C 63.925781 72.71875 63.160156 73.480469 62.21875 73.480469 C 61.273438 73.480469 60.511719 72.71875 60.511719 71.773438 C 60.511719 70.828125 61.273438 70.0625 62.21875 70.0625 C 63.160156 70.0625 63.925781 70.828125 63.925781 71.773438 Z M 63.925781 71.773438 "/>
<path style=" stroke:none;fill-rule:nonzero;fill:rgb(90.196078%,90.196078%,90.196078%);fill-opacity:1;" d="M 72.570312 71.773438 C 72.570312 72.71875 71.804688 73.480469 70.863281 73.480469 C 69.917969 73.480469 69.15625 72.71875 69.15625 71.773438 C 69.15625 70.828125 69.917969 70.0625 70.863281 70.0625 C 71.804688 70.0625 72.570312 70.828125 72.570312 71.773438 Z M 72.570312 71.773438 "/>
<path style=" stroke:none;fill-rule:nonzero;fill:rgb(90.196078%,90.196078%,90.196078%);fill-opacity:1;" d="M 81.214844 71.773438 C 81.214844 72.71875 80.449219 73.480469 79.507812 73.480469 C 78.5625 73.480469 77.796875 72.71875 77.796875 71.773438 C 77.796875 70.828125 78.5625 70.0625 79.507812 70.0625 C 80.449219 70.0625 81.214844 70.828125 81.214844 71.773438 Z M 81.214844 71.773438 "/>
<path style=" stroke:none;fill-rule:nonzero;fill:rgb(90.196078%,90.196078%,90.196078%);fill-opacity:1;" d="M 3.414062 80.53125 C 3.414062 81.476562 2.652344 82.238281 1.707031 82.238281 C 0.765625 82.238281 0 81.476562 0 80.53125 C 0 79.585938 0.765625 78.824219 1.707031 78.824219 C 2.652344 78.824219 3.414062 79.585938 3.414062 80.53125 Z M 3.414062 80.53125 "/>
<path style=" stroke:none;fill-rule:nonzero;fill:rgb(90.196078%,90.196078%,90.196078%);fill-opacity:1;" d="M 12.058594 80.53125 C 12.058594 81.476562 11.296875 82.238281 10.351562 82.238281 C 9.410156 82.238281 8.644531 81.476562 8.644531 80.53125 C 8.644531 79.585938 9.410156 78.824219 10.351562 78.824219 C 11.296875 78.824219 12.058594 79.585938 12.058594 80.53125 Z M 12.058594 80.53125 "/>
<path style=" stroke:none;fill-rule:nonzero;fill:rgb(90.196078%,90.196078%,90.196078%);fill-opacity:1;" d="M 20.703125 80.53125 C 20.703125 81.476562 19.9375 82.238281 18.996094 82.238281 C 18.054688 82.238281 17.289062 81.476562 17.289062 80.53125 C 17.289062 79.585938 18.054688 78.824219 18.996094 78.824219 C 19.9375 78.824219 20.703125 79.585938 20.703125 80.53125 Z M 20.703125 80.53125 "/>
<path style=" stroke:none;fill-rule:nonzero;fill:rgb(90.196078%,90.196078%,90.196078%);fill-opacity:1;" d="M 29.347656 80.53125 C 29.347656 81.476562 28.582031 82.238281 27.640625 82.238281 C 26.699219 82.238281 25.933594 81.476562 25.933594 80.53125 C 25.933594 79.585938 26.699219 78.824219 27.640625 78.824219 C 28.582031 78.824219 29.347656 79.585938 29.347656 80.53125 Z M 29.347656 80.53125 "/>
<path style=" stroke:none;fill-rule:nonzero;fill:rgb(90.196078%,90.196078%,90.196078%);fill-opacity:1;" d="M 37.992188 80.53125 C 37.992188 81.476562 37.226562 82.238281 36.285156 82.238281 C 35.339844 82.238281 34.578125 81.476562 34.578125 80.53125 C 34.578125 79.585938 35.339844 78.824219 36.285156 78.824219 C 37.226562 78.824219 37.992188 79.585938 37.992188 80.53125 Z M 37.992188 80.53125 "/>
<path style=" stroke:none;fill-rule:nonzero;fill:rgb(90.196078%,90.196078%,90.196078%);fill-opacity:1;" d="M 46.636719 80.53125 C 46.636719 81.476562 45.871094 82.238281 44.929688 82.238281 C 43.984375 82.238281 43.222656 81.476562 43.222656 80.53125 C 43.222656 79.585938 43.984375 78.824219 44.929688 78.824219 C 45.871094 78.824219 46.636719 79.585938 46.636719 80.53125 Z M 46.636719 80.53125 "/>
<path style=" stroke:none;fill-rule:nonzero;fill:rgb(90.196078%,90.196078%,90.196078%);fill-opacity:1;" d="M 55.28125 80.53125 C 55.28125 81.476562 54.515625 82.238281 53.574219 82.238281 C 52.628906 82.238281 51.867188 81.476562 51.867188 80.53125 C 51.867188 79.585938 52.628906 78.824219 53.574219 78.824219 C 54.515625 78.824219 55.28125 79.585938 55.28125 80.53125 Z M 55.28125 80.53125 "/>
<path style=" stroke:none;fill-rule:nonzero;fill:rgb(90.196078%,90.196078%,90.196078%);fill-opacity:1;" d="M 63.925781 80.53125 C 63.925781 81.476562 63.160156 82.238281 62.21875 82.238281 C 61.273438 82.238281 60.511719 81.476562 60.511719 80.53125 C 60.511719 79.585938 61.273438 78.824219 62.21875 78.824219 C 63.160156 78.824219 63.925781 79.585938 63.925781 80.53125 Z M 63.925781 80.53125 "/>
<path style=" stroke:none;fill-rule:nonzero;fill:rgb(90.196078%,90.196078%,90.196078%);fill-opacity:1;" d="M 72.570312 80.53125 C 72.570312 81.476562 71.804688 82.238281 70.863281 82.238281 C 69.917969 82.238281 69.15625 81.476562 69.15625 80.53125 C 69.15625 79.585938 69.917969 78.824219 70.863281 78.824219 C 71.804688 78.824219 72.570312 79.585938 72.570312 80.53125 Z M 72.570312 80.53125 "/>
<path style=" stroke:none;fill-rule:nonzero;fill:rgb(90.196078%,90.196078%,90.196078%);fill-opacity:1;" d="M 81.214844 80.53125 C 81.214844 81.476562 80.449219 82.238281 79.507812 82.238281 C 78.5625 82.238281 77.796875 81.476562 77.796875 80.53125 C 77.796875 79.585938 78.5625 78.824219 79.507812 78.824219 C 80.449219 78.824219 81.214844 79.585938 81.214844 80.53125 Z M 81.214844 80.53125 "/>
<path style=" stroke:none;fill-rule:nonzero;fill:rgb(90.196078%,90.196078%,90.196078%);fill-opacity:1;" d="M 100.355469 15.269531 C 101.550781 15.269531 102.515625 16.238281 102.515625 17.429688 L 102.515625 103.84375 C 102.515625 105.035156 101.550781 106.003906 100.355469 106.003906 L 38.394531 106.003906 C 37.203125 106.003906 36.234375 105.035156 36.234375 103.84375 L 36.234375 17.429688 C 36.234375 16.238281 37.203125 15.269531 38.394531 15.269531 L 100.355469 15.269531 "/>
<path style=" stroke:none;fill-rule:nonzero;fill:rgb(100%,100%,100%);fill-opacity:1;" d="M 38.644531 103.589844 L 100.105469 103.589844 L 100.105469 17.683594 L 38.644531 17.683594 Z M 38.644531 103.589844 "/>
<path style=" stroke:none;fill-rule:nonzero;fill:rgb(90.196078%,90.196078%,90.196078%);fill-opacity:1;" d="M 86.429688 31.273438 C 86.671875 31.273438 86.863281 31.46875 86.863281 31.707031 L 86.863281 32.570312 C 86.863281 32.808594 86.671875 33.003906 86.429688 33.003906 L 52.320312 33.003906 C 52.082031 33.003906 51.886719 32.808594 51.886719 32.570312 L 51.886719 31.707031 C 51.886719 31.46875 52.082031 31.273438 52.320312 31.273438 L 86.429688 31.273438 "/>
<path style=" stroke:none;fill-rule:nonzero;fill:rgb(90.196078%,90.196078%,90.196078%);fill-opacity:1;" d="M 86.429688 35.378906 C 86.671875 35.378906 86.863281 35.574219 86.863281 35.8125 L 86.863281 36.675781 C 86.863281 36.914062 86.671875 37.105469 86.429688 37.105469 L 52.320312 37.105469 C 52.082031 37.105469 51.886719 36.914062 51.886719 36.675781 L 51.886719 35.8125 C 51.886719 35.574219 52.082031 35.378906 52.320312 35.378906 L 86.429688 35.378906 "/>
<path style=" stroke:none;fill-rule:nonzero;fill:rgb(38.823529%,59.607843%,100%);fill-opacity:1;" d="M 86.429688 39.484375 C 86.671875 39.484375 86.863281 39.675781 86.863281 39.914062 L 86.863281 40.78125 C 86.863281 41.019531 86.671875 41.210938 86.429688 41.210938 L 52.320312 41.210938 C 52.082031 41.210938 51.886719 41.019531 51.886719 40.78125 L 51.886719 39.914062 C 51.886719 39.675781 52.082031 39.484375 52.320312 39.484375 L 86.429688 39.484375 "/>
<path style=" stroke:none;fill-rule:nonzero;fill:rgb(90.196078%,90.196078%,90.196078%);fill-opacity:1;" d="M 86.429688 43.679688 C 86.671875 43.679688 86.863281 43.871094 86.863281 44.109375 L 86.863281 44.972656 C 86.863281 45.210938 86.671875 45.40625 86.429688 45.40625 L 52.320312 45.40625 C 52.082031 45.40625 51.886719 45.210938 51.886719 44.972656 L 51.886719 44.109375 C 51.886719 43.871094 52.082031 43.679688 52.320312 43.679688 L 86.429688 43.679688 "/>
<path style=" stroke:none;fill-rule:nonzero;fill:rgb(90.196078%,90.196078%,90.196078%);fill-opacity:1;" d="M 86.429688 47.78125 C 86.671875 47.78125 86.863281 47.976562 86.863281 48.214844 L 86.863281 49.078125 C 86.863281 49.316406 86.671875 49.511719 86.429688 49.511719 L 52.320312 49.511719 C 52.082031 49.511719 51.886719 49.316406 51.886719 49.078125 L 51.886719 48.214844 C 51.886719 47.976562 52.082031 47.78125 52.320312 47.78125 L 86.429688 47.78125 "/>
<path style=" stroke:none;fill-rule:nonzero;fill:rgb(90.196078%,90.196078%,90.196078%);fill-opacity:1;" d="M 86.429688 51.886719 C 86.671875 51.886719 86.863281 52.082031 86.863281 52.320312 L 86.863281 53.183594 C 86.863281 53.421875 86.671875 53.613281 86.429688 53.613281 L 52.320312 53.613281 C 52.082031 53.613281 51.886719 53.421875 51.886719 53.183594 L 51.886719 52.320312 C 51.886719 52.082031 52.082031 51.886719 52.320312 51.886719 L 86.429688 51.886719 "/>
<path style=" stroke:none;fill-rule:nonzero;fill:rgb(38.823529%,59.607843%,100%);fill-opacity:1;" d="M 52.535156 65.695312 C 52.261719 65.695312 52.035156 65.917969 52.035156 66.195312 L 52.035156 89.5 C 52.035156 89.773438 52.261719 90 52.535156 90 L 86.15625 90 C 86.433594 90 86.65625 89.773438 86.65625 89.5 L 86.65625 66.195312 C 86.65625 65.917969 86.433594 65.695312 86.15625 65.695312 Z M 52.535156 65.695312 "/>
<path style=" stroke:none;fill-rule:nonzero;fill:rgb(24.705882%,23.921569%,33.72549%);fill-opacity:1;" d="M 69.488281 40.421875 L 69.132812 40.328125 L 76.835938 11.339844 L 121.507812 11.339844 L 121.507812 11.707031 L 77.117188 11.707031 Z M 69.488281 40.421875 "/>
<path style=" stroke:none;fill-rule:nonzero;fill:rgb(24.705882%,23.921569%,33.72549%);fill-opacity:1;" d="M 125.15625 15.359375 C 123.039062 15.359375 121.324219 13.640625 121.324219 11.523438 C 121.324219 9.40625 123.039062 7.6875 125.15625 7.6875 C 127.273438 7.6875 128.988281 9.40625 128.988281 11.523438 C 128.984375 13.640625 127.273438 15.355469 125.15625 15.359375 Z M 125.15625 8.054688 C 123.242188 8.054688 121.6875 9.609375 121.6875 11.523438 C 121.6875 13.441406 123.242188 14.992188 125.15625 14.992188 C 127.070312 14.992188 128.625 13.441406 128.625 11.523438 C 128.621094 9.609375 127.070312 8.054688 125.15625 8.054688 Z M 125.15625 8.054688 "/>
<path style=" stroke:none;fill-rule:nonzero;fill:rgb(38.823529%,59.607843%,100%);fill-opacity:1;" d="M 126.617188 11.523438 C 126.617188 12.332031 125.960938 12.984375 125.15625 12.984375 C 124.351562 12.984375 123.695312 12.332031 123.695312 11.523438 C 123.695312 10.71875 124.351562 10.0625 125.15625 10.0625 C 125.960938 10.0625 126.617188 10.71875 126.617188 11.523438 Z M 126.617188 11.523438 "/>
<path style=" stroke:none;fill-rule:nonzero;fill:rgb(24.705882%,23.921569%,33.72549%);fill-opacity:1;" d="M 68.292969 89.515625 L 68.644531 89.609375 L 60.890625 118.585938 L 16.21875 118.5 L 16.21875 118.132812 L 60.609375 118.21875 Z M 68.292969 89.515625 "/>
<path style=" stroke:none;fill-rule:nonzero;fill:rgb(24.705882%,23.921569%,33.72549%);fill-opacity:1;" d="M 12.578125 114.472656 C 14.695312 114.476562 16.40625 116.199219 16.402344 118.316406 C 16.398438 120.433594 14.679688 122.148438 12.5625 122.144531 C 10.445312 122.140625 8.734375 120.417969 8.738281 118.300781 C 8.742188 116.183594 10.460938 114.472656 12.578125 114.472656 Z M 12.5625 121.777344 C 14.476562 121.78125 16.035156 120.230469 16.039062 118.316406 C 16.039062 116.398438 14.492188 114.84375 12.578125 114.839844 C 10.660156 114.835938 9.105469 116.386719 9.101562 118.300781 C 9.101562 120.21875 10.648438 121.773438 12.5625 121.777344 Z M 12.5625 121.777344 "/>
<path style=" stroke:none;fill-rule:nonzero;fill:rgb(38.823529%,59.607843%,100%);fill-opacity:1;" d="M 14.03125 118.308594 C 14.03125 119.117188 13.375 119.769531 12.570312 119.769531 C 11.761719 119.769531 11.109375 119.117188 11.109375 118.308594 C 11.109375 117.503906 11.761719 116.847656 12.570312 116.847656 C 13.375 116.847656 14.03125 117.503906 14.03125 118.308594 Z M 14.03125 118.308594 "/>
<path style=" stroke:none;fill-rule:nonzero;fill:rgb(100%,72.156863%,72.156863%);fill-opacity:1;" d="M 154.601562 150.621094 L 152.027344 150.621094 L 152.484375 136.355469 L 159.292969 136.722656 Z M 154.601562 150.621094 "/>
<path style=" stroke:none;fill-rule:nonzero;fill:rgb(18.431373%,18.039216%,25.490196%);fill-opacity:1;" d="M 154.953125 158.820312 C 154.175781 159.175781 153.523438 156.300781 152.867188 156.945312 C 151.035156 158.75 149.136719 159.140625 146.691406 158.355469 L 146.632812 158.34375 C 146.335938 158.25 146.089844 158.035156 145.953125 157.753906 C 145.816406 157.46875 145.800781 157.144531 145.910156 156.847656 C 146.042969 156.496094 146.339844 156.230469 146.707031 156.140625 L 148.65625 155.652344 L 151.71875 150.261719 L 154.847656 150.050781 C 156.261719 151.851562 156.769531 154.203125 156.230469 156.425781 C 155.945312 157.585938 155.507812 158.570312 154.953125 158.820312 Z M 154.953125 158.820312 "/>
<path style=" stroke:none;fill-rule:nonzero;fill:rgb(100%,72.156863%,72.156863%);fill-opacity:1;" d="M 179.074219 148.734375 L 176.679688 149.683594 L 171.859375 136.246094 L 178.328125 134.085938 Z M 179.074219 148.734375 "/>
<path style=" stroke:none;fill-rule:nonzero;fill:rgb(18.431373%,18.039216%,25.490196%);fill-opacity:1;" d="M 182.414062 156.230469 C 181.820312 156.847656 180.160156 154.414062 179.785156 155.253906 C 178.742188 157.605469 177.125 158.667969 174.558594 158.839844 L 174.503906 158.851562 C 174.1875 158.871094 173.882812 158.761719 173.652344 158.550781 C 173.421875 158.335938 173.285156 158.039062 173.28125 157.726562 C 173.273438 157.347656 173.453125 156.992188 173.757812 156.773438 L 175.394531 155.601562 L 176.261719 149.460938 L 179.089844 148.113281 C 181.066406 149.269531 182.40625 151.265625 182.71875 153.535156 C 182.882812 154.71875 182.835938 155.792969 182.414062 156.230469 Z M 182.414062 156.230469 "/>
<path style=" stroke:none;fill-rule:nonzero;fill:rgb(100%,72.156863%,72.156863%);fill-opacity:1;" d="M 171.253906 79.839844 L 167.296875 80.859375 C 166.691406 81.015625 166.046875 80.886719 165.546875 80.515625 C 165.042969 80.140625 164.738281 79.558594 164.714844 78.933594 C 164.691406 78.359375 164.910156 77.800781 165.316406 77.394531 C 165.71875 76.984375 166.277344 76.765625 166.851562 76.785156 L 170.332031 76.894531 L 177.046875 74.449219 L 170.703125 69.714844 L 171.4375 63.089844 L 183.800781 73.019531 C 184.246094 73.378906 184.523438 73.90625 184.566406 74.476562 C 184.632812 75.453125 184.003906 76.347656 183.058594 76.605469 C 180.160156 78.972656 175.941406 79.695312 171.253906 79.839844 Z M 171.253906 79.839844 "/>
<path style=" stroke:none;fill-rule:nonzero;fill:rgb(100%,72.156863%,72.156863%);fill-opacity:1;" d="M 168.675781 48.542969 C 168.675781 52.101562 165.792969 54.988281 162.238281 54.988281 C 158.679688 54.988281 155.796875 52.101562 155.796875 48.542969 C 155.796875 44.984375 158.679688 42.101562 162.238281 42.101562 C 165.792969 42.101562 168.675781 44.984375 168.675781 48.542969 Z M 168.675781 48.542969 "/>
<path style=" stroke:none;fill-rule:nonzero;fill:rgb(100%,72.156863%,72.156863%);fill-opacity:1;" d="M 170.148438 57.382812 L 161.5 60.878906 C 161.753906 58.144531 161.039062 55.40625 159.476562 53.148438 L 166.652344 51.488281 C 166.558594 53.683594 167.746094 55.644531 170.148438 57.382812 Z M 170.148438 57.382812 "/>
<path style=" stroke:none;fill-rule:nonzero;fill:rgb(38.823529%,59.607843%,100%);fill-opacity:1;" d="M 171.714844 72.386719 C 164.742188 72.945312 160.929688 72.015625 155.0625 68.609375 L 157.269531 63.457031 C 157.042969 61.875 157.722656 60.296875 159.027344 59.375 L 161.316406 57.75 L 168.308594 55.722656 L 168.625 55.738281 C 170.546875 55.835938 172.101562 57.347656 172.246094 59.269531 C 173.765625 63.8125 173.777344 68.203125 171.714844 72.386719 Z M 171.714844 72.386719 "/>
<path style=" stroke:none;fill-rule:nonzero;fill:rgb(18.431373%,18.039216%,25.490196%);fill-opacity:1;" d="M 170.332031 83.15625 L 155.429688 81.5 L 154.328125 76.710938 C 151.878906 73.015625 152.949219 69.628906 155.796875 66.402344 C 160.996094 69.738281 165.816406 71.179688 172.726562 70.082031 C 170.886719 74.554688 169.191406 78.945312 170.332031 83.15625 Z M 170.332031 83.15625 "/>
<path style=" stroke:none;fill-rule:nonzero;fill:rgb(18.431373%,18.039216%,25.490196%);fill-opacity:1;" d="M 181.925781 138.9375 L 170.058594 138.292969 L 166.195312 107.546875 L 163.066406 138.109375 L 148.992188 137.464844 C 153.285156 117.375 156.265625 98.300781 155.429688 80.761719 L 170.148438 82.050781 C 175.136719 87.3125 177.613281 95.714844 179.074219 105.707031 C 180.53125 115.699219 181.707031 127.285156 181.925781 138.9375 Z M 181.925781 138.9375 "/>
<path style=" stroke:none;fill-rule:nonzero;fill:rgb(18.431373%,18.039216%,25.490196%);fill-opacity:1;" d="M 171.539062 40.464844 C 171.539062 41.6875 170.550781 42.679688 169.328125 42.679688 C 168.105469 42.679688 167.113281 41.6875 167.113281 40.464844 C 167.113281 39.242188 168.105469 38.25 169.328125 38.25 C 170.550781 38.25 171.539062 39.242188 171.539062 40.464844 Z M 171.539062 40.464844 "/>
<path style=" stroke:none;fill-rule:nonzero;fill:rgb(18.431373%,18.039216%,25.490196%);fill-opacity:1;" d="M 167.046875 39.921875 C 167.121094 38.753906 168.089844 37.847656 169.257812 37.851562 C 169.210938 37.84375 169.167969 37.839844 169.121094 37.835938 C 167.902344 37.757812 166.847656 38.683594 166.769531 39.902344 C 166.691406 41.125 167.617188 42.175781 168.835938 42.253906 C 168.882812 42.257812 168.929688 42.257812 168.976562 42.257812 C 167.816406 42.109375 166.972656 41.085938 167.046875 39.921875 Z M 167.046875 39.921875 "/>
<path style=" stroke:none;fill-rule:nonzero;fill:rgb(18.431373%,18.039216%,25.490196%);fill-opacity:1;" d="M 167.035156 40.867188 C 165.058594 39.226562 159.398438 41.3125 159.03125 42.414062 C 156.363281 42.777344 154.339844 44.335938 154.339844 47.105469 C 155.929688 47.757812 157.734375 47.675781 159.683594 47.105469 C 162.796875 49.640625 163.007812 52.832031 161.117188 56.492188 L 163.445312 56.539062 L 166.328125 52.320312 L 166.464844 56.601562 L 171.800781 56.492188 L 171.800781 50.359375 C 171.816406 48.320312 171.347656 46.308594 170.433594 44.488281 C 169.601562 42.871094 168.3125 41.929688 167.035156 40.867188 Z M 167.035156 40.867188 "/>
<path style=" stroke:none;fill-rule:nonzero;fill:rgb(100%,72.156863%,72.156863%);fill-opacity:1;" d="M 163.125 50.21875 C 163.125 49.398438 162.652344 48.734375 162.066406 48.734375 C 161.480469 48.734375 161.007812 49.398438 161.007812 50.21875 C 161.007812 51.039062 161.480469 51.699219 162.066406 51.699219 C 162.652344 51.699219 163.125 51.039062 163.125 50.21875 Z M 163.125 50.21875 "/>
<path style=" stroke:none;fill-rule:nonzero;fill:rgb(38.823529%,59.607843%,100%);fill-opacity:1;" d="M 153.96875 107.085938 C 154.175781 107.085938 154.339844 107.25 154.339844 107.457031 L 154.339844 122.332031 C 154.339844 122.539062 154.175781 122.703125 153.96875 122.703125 L 143.300781 122.703125 C 143.097656 122.703125 142.929688 122.539062 142.929688 122.332031 L 142.929688 107.457031 C 142.929688 107.25 143.097656 107.085938 143.300781 107.085938 L 153.96875 107.085938 "/>
<path style=" stroke:none;fill-rule:nonzero;fill:rgb(100%,72.156863%,72.156863%);fill-opacity:1;" d="M 155.429688 101.566406 L 155.789062 107.8125 C 155.835938 108.628906 155.515625 109.421875 154.914062 109.972656 C 154.3125 110.523438 153.496094 110.773438 152.6875 110.652344 C 151.101562 110.421875 151.066406 108.867188 151.457031 107.3125 L 152.9375 101.382812 C 156.570312 88.339844 157.554688 75.539062 157.371094 63.058594 C 157.355469 62.203125 157.6875 61.378906 158.296875 60.777344 C 158.902344 60.171875 159.730469 59.847656 160.585938 59.867188 C 161.417969 59.894531 162.207031 60.25 162.777344 60.859375 C 163.347656 61.464844 163.652344 62.277344 163.625 63.109375 C 163.109375 77.769531 160.972656 91.082031 155.429688 101.566406 Z M 155.429688 101.566406 "/>
</g>
</svg>
