<?xml version="1.0" encoding="UTF-8"?>
<svg xmlns="http://www.w3.org/2000/svg" xmlns:xlink="http://www.w3.org/1999/xlink" width="205pt" height="142pt" viewBox="0 0 205 142" version="1.1">
<g id="surface1">
<path style=" stroke:none;fill-rule:nonzero;fill:rgb(100%,72.156863%,72.156863%);fill-opacity:1;" d="M 165.039062 84.753906 L 162.625 88.050781 C 161.945312 88.972656 160.703125 89.269531 159.683594 88.746094 C 158.945312 88.371094 158.464844 87.628906 158.417969 86.800781 C 158.371094 85.972656 158.765625 85.179688 159.457031 84.722656 L 162.539062 82.683594 L 171.34375 73.871094 L 172.320312 70.714844 L 178.949219 70.714844 L 175.472656 78.222656 Z M 165.039062 84.753906 "/>
<path style=" stroke:none;fill-rule:nonzero;fill:rgb(90.196078%,90.196078%,90.196078%);fill-opacity:1;" d="M 92.460938 84.5625 C 91.824219 84.5625 91.308594 85.082031 91.304688 85.71875 L 91.304688 140.589844 C 91.308594 141.230469 91.824219 141.746094 92.460938 141.75 L 166.460938 141.75 C 167.097656 141.746094 167.617188 141.230469 167.617188 140.589844 L 167.617188 85.71875 C 167.617188 85.082031 167.097656 84.5625 166.460938 84.5625 Z M 92.460938 84.5625 "/>
<path style=" stroke:none;fill-rule:nonzero;fill:rgb(100%,100%,100%);fill-opacity:1;" d="M 94.519531 138.617188 L 164.402344 138.617188 L 164.402344 87.691406 L 94.519531 87.691406 Z M 94.519531 138.617188 "/>
<path style=" stroke:none;fill-rule:nonzero;fill:rgb(90.196078%,90.196078%,90.196078%);fill-opacity:1;" d="M 154.550781 102.273438 L 112.464844 102.273438 C 111.632812 102.273438 110.960938 102.945312 110.960938 103.777344 C 110.960938 104.609375 111.632812 105.28125 112.464844 105.28125 L 154.550781 105.28125 C 155.382812 105.28125 156.054688 104.609375 156.054688 103.777344 C 156.054688 102.945312 155.382812 102.273438 154.550781 102.273438 Z M 154.550781 102.273438 "/>
<path style=" stroke:none;fill-rule:nonzero;fill:rgb(90.196078%,90.196078%,90.196078%);fill-opacity:1;" d="M 112.464844 111.535156 C 111.632812 111.535156 110.960938 112.207031 110.960938 113.039062 C 110.960938 113.871094 111.632812 114.542969 112.464844 114.542969 L 154.550781 114.542969 C 155.382812 114.542969 156.054688 113.871094 156.054688 113.039062 C 156.054688 112.207031 155.382812 111.535156 154.550781 111.535156 Z M 112.464844 111.535156 "/>
<path style=" stroke:none;fill-rule:nonzero;fill:rgb(90.196078%,90.196078%,90.196078%);fill-opacity:1;" d="M 112.464844 120.796875 C 111.636719 120.796875 110.964844 121.46875 110.964844 122.300781 C 110.964844 123.128906 111.636719 123.804688 112.464844 123.804688 L 154.550781 123.804688 C 155.378906 123.804688 156.050781 123.128906 156.050781 122.300781 C 156.050781 121.46875 155.378906 120.796875 154.550781 120.796875 Z M 112.464844 120.796875 "/>
<path style=" stroke:none;fill-rule:nonzero;fill:rgb(38.823529%,59.607843%,100%);fill-opacity:1;" d="M 106.335938 103.894531 C 106.335938 104.917969 105.507812 105.746094 104.488281 105.746094 C 103.464844 105.746094 102.636719 104.917969 102.636719 103.894531 C 102.636719 102.871094 103.464844 102.042969 104.488281 102.042969 C 105.507812 102.042969 106.335938 102.871094 106.335938 103.894531 Z M 106.335938 103.894531 "/>
<path style=" stroke:none;fill-rule:nonzero;fill:rgb(90.196078%,90.196078%,90.196078%);fill-opacity:1;" d="M 106.335938 113.15625 C 106.335938 114.179688 105.507812 115.007812 104.488281 115.007812 C 103.464844 115.007812 102.636719 114.179688 102.636719 113.15625 C 102.636719 112.132812 103.464844 111.304688 104.488281 111.304688 C 105.507812 111.304688 106.335938 112.132812 106.335938 113.15625 Z M 106.335938 113.15625 "/>
<path style=" stroke:none;fill-rule:nonzero;fill:rgb(90.196078%,90.196078%,90.196078%);fill-opacity:1;" d="M 106.335938 122.417969 C 106.335938 123.4375 105.507812 124.269531 104.488281 124.269531 C 103.464844 124.269531 102.636719 123.4375 102.636719 122.417969 C 102.636719 121.394531 103.464844 120.5625 104.488281 120.5625 C 105.507812 120.5625 106.335938 121.394531 106.335938 122.417969 Z M 106.335938 122.417969 "/>
<path style=" stroke:none;fill-rule:nonzero;fill:rgb(38.823529%,59.607843%,100%);fill-opacity:1;" d="M 137.785156 103.777344 C 137.785156 104.609375 137.113281 105.28125 136.28125 105.28125 L 112.519531 105.28125 C 111.75 105.292969 111.09375 104.738281 110.976562 103.976562 C 110.917969 103.546875 111.050781 103.113281 111.335938 102.789062 C 111.621094 102.460938 112.03125 102.273438 112.464844 102.273438 L 136.28125 102.273438 C 137.113281 102.273438 137.785156 102.945312 137.785156 103.777344 Z M 137.785156 103.777344 "/>
<path style=" stroke:none;fill-rule:nonzero;fill:rgb(90.196078%,90.196078%,90.196078%);fill-opacity:1;" d="M 135.472656 72.058594 C 135.472656 75.382812 132.78125 78.078125 129.460938 78.078125 C 126.140625 78.078125 123.449219 75.382812 123.449219 72.058594 C 123.449219 68.734375 126.140625 66.039062 129.460938 66.039062 C 132.78125 66.039062 135.472656 68.734375 135.472656 72.058594 Z M 135.472656 72.058594 "/>
<path style=" stroke:none;fill-rule:nonzero;fill:rgb(100%,100%,100%);fill-opacity:1;" d="M 132.46875 72.058594 C 132.46875 73.722656 131.121094 75.070312 129.460938 75.070312 C 127.800781 75.070312 126.453125 73.722656 126.453125 72.058594 C 126.453125 70.398438 127.800781 69.050781 129.460938 69.050781 C 131.121094 69.050781 132.46875 70.398438 132.46875 72.058594 Z M 132.46875 72.058594 "/>
<path style=" stroke:none;fill-rule:nonzero;fill:rgb(100%,72.156863%,72.156863%);fill-opacity:1;" d="M 196.558594 132.636719 L 193.515625 134.050781 L 188.890625 125.253906 C 186.035156 120.875 184.171875 115.625 182.863281 109.890625 L 187.644531 110.21875 C 190.492188 114.289062 192.601562 118.367188 193.285156 122.46875 Z M 196.558594 132.636719 "/>
<path style=" stroke:none;fill-rule:nonzero;fill:rgb(18.431373%,18.039216%,25.490196%);fill-opacity:1;" d="M 188.625 111.308594 L 182.539062 111.308594 L 182.539062 100.75 L 187.429688 99.878906 Z M 188.625 111.308594 "/>
<path style=" stroke:none;fill-rule:nonzero;fill:rgb(38.823529%,59.607843%,100%);fill-opacity:1;" d="M 180.800781 71.484375 C 177.835938 70.917969 174.800781 70.804688 171.800781 71.144531 L 173.5625 62.363281 C 173.90625 60.636719 175.3125 59.320312 177.058594 59.09375 C 178.304688 58.929688 179.5625 59.351562 180.460938 60.234375 C 181.363281 61.117188 181.808594 62.367188 181.667969 63.621094 Z M 180.800781 71.484375 "/>
<path style=" stroke:none;fill-rule:nonzero;fill:rgb(100%,72.156863%,72.156863%);fill-opacity:1;" d="M 181.613281 48.347656 C 181.613281 51.175781 179.328125 53.464844 176.503906 53.464844 C 173.683594 53.464844 171.394531 51.175781 171.394531 48.347656 C 171.394531 45.523438 173.683594 43.234375 176.503906 43.234375 C 179.328125 43.234375 181.613281 45.523438 181.613281 48.347656 Z M 181.613281 48.347656 "/>
<path style=" stroke:none;fill-rule:nonzero;fill:rgb(100%,72.156863%,72.156863%);fill-opacity:1;" d="M 184.386719 54.28125 L 177.644531 59.070312 L 175.851562 50.527344 L 180.90625 48.511719 C 181.113281 50.753906 182.320312 52.660156 184.386719 54.28125 Z M 184.386719 54.28125 "/>
<path style=" stroke:none;fill-rule:nonzero;fill:rgb(18.431373%,18.039216%,25.490196%);fill-opacity:1;" d="M 181.613281 47.804688 C 181.234375 47.027344 180.761719 47.566406 180.34375 48.519531 L 179.738281 46.105469 L 179.015625 45.863281 L 178.535156 43.929688 C 176.324219 43.402344 174.546875 44.507812 172.265625 45.738281 L 171.394531 47.804688 C 170.691406 46.367188 170.683594 44.6875 171.371094 43.238281 C 172.058594 41.792969 173.371094 40.742188 174.929688 40.382812 C 175.304688 40.296875 175.691406 40.253906 176.082031 40.25 C 177.574219 40.234375 179.007812 40.828125 180.050781 41.894531 C 181.09375 42.960938 181.65625 44.410156 181.609375 45.902344 Z M 181.613281 47.804688 "/>
<path style=" stroke:none;fill-rule:nonzero;fill:rgb(18.431373%,18.039216%,25.490196%);fill-opacity:1;" d="M 197.441406 136.808594 L 187.042969 140.207031 C 186.316406 140.363281 185.578125 139.988281 185.273438 139.3125 C 184.953125 138.613281 185.1875 137.785156 185.820312 137.351562 C 187.871094 135.945312 189.503906 134.445312 190.253906 132.746094 C 190.949219 129.929688 191.730469 129.921875 192.582031 132.023438 C 194.933594 133.414062 194.550781 132.300781 196.015625 130.570312 L 198.273438 134.84375 C 198.464844 135.210938 198.484375 135.644531 198.324219 136.023438 C 198.160156 136.40625 197.839844 136.695312 197.441406 136.808594 Z M 197.441406 136.808594 "/>
<path style=" stroke:none;fill-rule:nonzero;fill:rgb(100%,72.156863%,72.156863%);fill-opacity:1;" d="M 172.863281 139.277344 L 169.386719 137.75 L 170.632812 128.832031 L 173.082031 111.308594 L 179.710938 112.175781 C 179.570312 118.261719 178.058594 124.238281 175.292969 129.660156 Z M 172.863281 139.277344 "/>
<path style=" stroke:none;fill-rule:nonzero;fill:rgb(18.431373%,18.039216%,25.490196%);fill-opacity:1;" d="M 184.167969 114.027344 L 172.644531 111.742188 L 175.691406 95.746094 L 175.144531 91.390625 L 190.253906 91.390625 C 189.703125 97.027344 187.074219 105.347656 184.167969 114.027344 Z M 184.167969 114.027344 "/>
<path style=" stroke:none;fill-rule:nonzero;fill:rgb(38.823529%,59.607843%,100%);fill-opacity:1;" d="M 190.796875 92.914062 C 185.222656 91.5 179.734375 91.300781 174.386719 92.914062 C 173.382812 82.589844 173.109375 72.742188 173.984375 63.660156 C 174.195312 61.457031 175.253906 59.429688 176.941406 58.003906 L 183.296875 52.648438 L 188.019531 55.011719 C 189.261719 55.632812 190.054688 56.890625 190.085938 58.28125 C 191.113281 72.019531 191.90625 85.089844 190.796875 92.914062 Z M 190.796875 92.914062 "/>
<path style=" stroke:none;fill-rule:nonzero;fill:rgb(100%,72.156863%,72.156863%);fill-opacity:1;" d="M 196.34375 91.171875 L 197.292969 94.503906 C 197.492188 95.203125 197.382812 95.957031 196.992188 96.570312 C 196.597656 97.1875 195.964844 97.601562 195.246094 97.714844 C 194.453125 97.839844 193.648438 97.585938 193.074219 97.027344 C 192.5 96.464844 192.222656 95.667969 192.328125 94.871094 L 192.753906 91.609375 L 190.472656 75.066406 L 187.429688 68.539062 L 193.515625 65.816406 L 196.015625 73.980469 Z M 196.34375 91.171875 "/>
<path style=" stroke:none;fill-rule:nonzero;fill:rgb(18.431373%,18.039216%,25.490196%);fill-opacity:1;" d="M 171.753906 142.042969 L 161.101562 139.554688 C 160.402344 139.308594 159.964844 138.609375 160.050781 137.871094 C 160.140625 137.105469 160.769531 136.519531 161.535156 136.476562 C 164.015625 136.339844 166.191406 135.902344 167.710938 134.839844 C 169.761719 132.789062 170.4375 133.1875 170.074219 135.429688 C 171.363281 137.839844 171.617188 136.6875 173.765625 135.964844 L 173.480469 140.792969 C 173.457031 141.207031 173.25 141.585938 172.914062 141.828125 C 172.578125 142.070312 172.152344 142.148438 171.753906 142.042969 Z M 171.753906 142.042969 "/>
<path style=" stroke:none;fill-rule:nonzero;fill:rgb(38.823529%,59.607843%,100%);fill-opacity:1;" d="M 194.492188 66.578125 C 191.921875 66.789062 189.113281 68.285156 186.234375 70.167969 L 184.023438 61.488281 C 183.589844 59.78125 184.289062 57.988281 185.765625 57.027344 C 186.820312 56.339844 188.132812 56.175781 189.328125 56.582031 C 190.519531 56.988281 191.460938 57.921875 191.878906 59.113281 Z M 194.492188 66.578125 "/>
<path style=" stroke:none;fill-rule:nonzero;fill:rgb(90.196078%,90.196078%,90.196078%);fill-opacity:1;" d="M 1.144531 18.699219 C 0.511719 18.699219 0 19.214844 0 19.847656 L 0 74.226562 C 0 74.859375 0.511719 75.371094 1.144531 75.375 L 74.480469 75.375 C 75.113281 75.371094 75.625 74.859375 75.625 74.226562 L 75.625 19.847656 C 75.625 19.214844 75.113281 18.699219 74.480469 18.699219 Z M 1.144531 18.699219 "/>
<path style=" stroke:none;fill-rule:nonzero;fill:rgb(100%,100%,100%);fill-opacity:1;" d="M 2.871094 72.5 L 72.753906 72.5 L 72.753906 21.574219 L 2.871094 21.574219 Z M 2.871094 72.5 "/>
<path style=" stroke:none;fill-rule:nonzero;fill:rgb(90.196078%,90.196078%,90.196078%);fill-opacity:1;" d="M 9.738281 45.605469 C 8.917969 45.605469 8.25 46.273438 8.25 47.097656 C 8.25 47.921875 8.917969 48.589844 9.738281 48.589844 L 65.886719 48.589844 C 66.707031 48.589844 67.375 47.921875 67.375 47.097656 C 67.375 46.273438 66.707031 45.605469 65.886719 45.605469 Z M 9.738281 45.605469 "/>
<path style=" stroke:none;fill-rule:nonzero;fill:rgb(90.196078%,90.196078%,90.196078%);fill-opacity:1;" d="M 9.738281 54.785156 C 8.917969 54.785156 8.25 55.453125 8.25 56.277344 C 8.25 57.097656 8.917969 57.765625 9.738281 57.765625 L 65.886719 57.765625 C 66.707031 57.765625 67.375 57.097656 67.375 56.277344 C 67.375 55.453125 66.707031 54.785156 65.886719 54.785156 Z M 9.738281 54.785156 "/>
<path style=" stroke:none;fill-rule:nonzero;fill:rgb(38.823529%,59.607843%,100%);fill-opacity:1;" d="M 34.832031 64.421875 C 34.011719 64.421875 33.34375 65.089844 33.34375 65.914062 C 33.34375 66.734375 34.011719 67.402344 34.832031 67.402344 L 40.792969 67.402344 C 41.613281 67.402344 42.28125 66.734375 42.28125 65.914062 C 42.28125 65.089844 41.613281 64.421875 40.792969 64.421875 Z M 34.832031 64.421875 "/>
<path style=" stroke:none;fill-rule:nonzero;fill:rgb(38.823529%,59.607843%,100%);fill-opacity:1;" d="M 29.828125 26.667969 C 29.574219 26.667969 29.371094 26.875 29.371094 27.128906 L 29.371094 38.777344 C 29.371094 39.03125 29.574219 39.234375 29.828125 39.234375 L 45.796875 39.234375 C 46.050781 39.234375 46.253906 39.03125 46.253906 38.777344 L 46.253906 27.128906 C 46.253906 26.875 46.050781 26.667969 45.796875 26.667969 Z M 29.828125 26.667969 "/>
<path style=" stroke:none;fill-rule:nonzero;fill:rgb(100%,100%,100%);fill-opacity:1;" d="M 40.332031 31.664062 C 40.332031 33.058594 39.203125 34.1875 37.8125 34.1875 C 36.421875 34.1875 35.292969 33.058594 35.292969 31.664062 C 35.292969 30.269531 36.421875 29.140625 37.8125 29.140625 C 39.203125 29.140625 40.332031 30.269531 40.332031 31.664062 Z M 40.332031 31.664062 "/>
<path style=" stroke:none;fill-rule:nonzero;fill:rgb(100%,100%,100%);fill-opacity:1;" d="M 41.9375 38.089844 C 41.9375 38.488281 41.84375 38.878906 41.664062 39.234375 L 33.960938 39.234375 C 33.5625 38.453125 33.601562 37.519531 34.058594 36.769531 C 34.515625 36.019531 35.332031 35.5625 36.207031 35.5625 L 39.417969 35.5625 C 40.085938 35.5625 40.726562 35.828125 41.199219 36.304688 C 41.671875 36.777344 41.9375 37.417969 41.9375 38.089844 Z M 41.9375 38.089844 "/>
<path style=" stroke:none;fill-rule:nonzero;fill:rgb(100%,100%,100%);fill-opacity:1;" d="M 40.332031 31.664062 C 40.332031 33.058594 39.203125 34.1875 37.8125 34.1875 C 36.421875 34.1875 35.292969 33.058594 35.292969 31.664062 C 35.292969 30.269531 36.421875 29.140625 37.8125 29.140625 C 39.203125 29.140625 40.332031 30.269531 40.332031 31.664062 Z M 40.332031 31.664062 "/>
<path style=" stroke:none;fill-rule:nonzero;fill:rgb(100%,100%,100%);fill-opacity:1;" d="M 41.9375 38.089844 C 41.9375 38.488281 41.84375 38.878906 41.664062 39.234375 L 33.960938 39.234375 C 33.5625 38.453125 33.601562 37.519531 34.058594 36.769531 C 34.515625 36.019531 35.332031 35.5625 36.207031 35.5625 L 39.417969 35.5625 C 40.085938 35.5625 40.726562 35.828125 41.199219 36.304688 C 41.671875 36.777344 41.9375 37.417969 41.9375 38.089844 Z M 41.9375 38.089844 "/>
<path style=" stroke:none;fill-rule:nonzero;fill:rgb(90.196078%,90.196078%,90.196078%);fill-opacity:1;" d="M 43.769531 5.964844 C 43.769531 9.261719 41.101562 11.929688 37.8125 11.929688 C 34.523438 11.929688 31.855469 9.261719 31.855469 5.964844 C 31.855469 2.671875 34.523438 0 37.8125 0 C 41.101562 0 43.769531 2.671875 43.769531 5.964844 Z M 43.769531 5.964844 "/>
<path style=" stroke:none;fill-rule:nonzero;fill:rgb(38.823529%,59.607843%,100%);fill-opacity:1;" d="M 40.792969 5.964844 C 40.792969 7.613281 39.457031 8.949219 37.8125 8.949219 C 36.167969 8.949219 34.832031 7.613281 34.832031 5.964844 C 34.832031 4.316406 36.167969 2.984375 37.8125 2.984375 C 39.457031 2.984375 40.792969 4.316406 40.792969 5.964844 Z M 40.792969 5.964844 "/>
<path style=" stroke:none;fill-rule:nonzero;fill:rgb(24.705882%,23.921569%,33.72549%);fill-opacity:1;" d="M 204.839844 141.921875 L 61.496094 141.921875 L 61.496094 141.378906 L 204.941406 141.378906 Z M 204.839844 141.921875 "/>
</g>
</svg>
