<?xml version="1.0" encoding="UTF-8"?>
<svg xmlns="http://www.w3.org/2000/svg" xmlns:xlink="http://www.w3.org/1999/xlink" width="393pt" height="375pt" viewBox="0 0 393 375" version="1.1">
<defs>
<filter id="alpha" filterUnits="objectBoundingBox" x="0%" y="0%" width="100%" height="100%">
  <feColorMatrix type="matrix" in="SourceGraphic" values="0 0 0 0 1 0 0 0 0 1 0 0 0 0 1 0 0 0 1 0"/>
</filter>
<mask id="mask0">
  <g filter="url(#alpha)">
<rect x="0" y="0" width="393" height="375" style="fill:rgb(0%,0%,0%);fill-opacity:0.101961;stroke:none;"/>
  </g>
</mask>
<clipPath id="clip1">
  <rect x="0" y="0" width="393" height="375"/>
</clipPath>
<g id="surface5" clip-path="url(#clip1)">
<path style=" stroke:none;fill-rule:nonzero;fill:rgb(0%,0%,0%);fill-opacity:1;" d="M 214.15625 306.816406 C 218.511719 308.195312 236.902344 317.75 240.054688 321.082031 C 239.632812 321.238281 225.296875 313.121094 224.867188 312.992188 C 220.957031 311.804688 217.023438 310.613281 213.308594 308.878906 C 212.5625 308.53125 208.457031 306.890625 208.640625 305.9375 C 208.851562 304.863281 213.382812 306.574219 214.15625 306.816406 Z M 214.15625 306.816406 "/>
</g>
<mask id="mask1">
  <g filter="url(#alpha)">
<rect x="0" y="0" width="393" height="375" style="fill:rgb(0%,0%,0%);fill-opacity:0.101961;stroke:none;"/>
  </g>
</mask>
<clipPath id="clip2">
  <rect x="0" y="0" width="393" height="375"/>
</clipPath>
<g id="surface8" clip-path="url(#clip2)">
<path style=" stroke:none;fill-rule:nonzero;fill:rgb(0%,0%,0%);fill-opacity:1;" d="M 289.492188 305.007812 C 286.136719 307.554688 281.792969 309.890625 278.46875 312.503906 C 277.335938 313.394531 258.421875 324.132812 258.15625 325.5625 C 261.257812 326.089844 281.011719 312.128906 283.839844 310.738281 C 286.664062 309.34375 289.171875 307.378906 291.652344 305.429688 C 292.285156 304.933594 294.96875 303.4375 293.152344 302.882812 C 292.128906 302.570312 290.246094 304.5 289.492188 305.007812 Z M 289.492188 305.007812 "/>
</g>
<mask id="mask2">
  <g filter="url(#alpha)">
<rect x="0" y="0" width="393" height="375" style="fill:rgb(0%,0%,0%);fill-opacity:0.2;stroke:none;"/>
  </g>
</mask>
<clipPath id="clip3">
  <rect x="0" y="0" width="393" height="375"/>
</clipPath>
<g id="surface11" clip-path="url(#clip3)">
<path style=" stroke:none;fill-rule:nonzero;fill:rgb(0%,0%,0%);fill-opacity:1;" d="M 165.601562 319.964844 L 165.601562 348.683594 C 156.980469 349.601562 148.414062 346.515625 142.351562 340.304688 C 136.292969 334.09375 133.40625 325.449219 134.523438 316.835938 C 144.296875 317.089844 154.792969 318.316406 165.601562 319.964844 Z M 165.601562 319.964844 "/>
</g>
</defs>
<g id="surface1">
<path style=" stroke:none;fill-rule:nonzero;fill:rgb(24.705882%,23.921569%,33.72549%);fill-opacity:1;" d="M 393.148438 335.894531 C 393.148438 324.832031 313.007812 315.867188 214.148438 315.867188 C 115.289062 315.867188 35.148438 324.832031 35.148438 335.894531 C 35.148438 346.953125 115.289062 355.917969 214.148438 355.917969 C 313.007812 355.917969 393.148438 346.953125 393.148438 335.894531 Z M 393.148438 335.894531 "/>
<path style=" stroke:none;fill-rule:nonzero;fill:rgb(100%,72.156863%,72.156863%);fill-opacity:1;" d="M 302.921875 313.734375 L 306.007812 323.257812 C 306.007812 323.257812 320.875 338.636719 315.5 342.808594 C 310.121094 346.976562 298.054688 325 298.054688 325 L 295.832031 314.246094 Z M 302.921875 313.734375 "/>
<path style=" stroke:none;fill-rule:nonzero;fill:rgb(38.823529%,59.607843%,100%);fill-opacity:1;" d="M 274.398438 240.015625 L 278.898438 238.511719 C 278.898438 238.511719 285.898438 240.515625 286.898438 247.523438 C 287.898438 254.535156 295.398438 290.082031 295.398438 290.082031 C 295.398438 290.082031 298.398438 291.582031 296.398438 294.085938 C 294.398438 296.589844 306.398438 319.121094 306.398438 319.121094 L 296.898438 323.625 C 296.898438 323.625 277.898438 303.601562 277.898438 301.597656 C 277.898438 299.59375 278.398438 297.59375 278.398438 295.589844 C 278.398438 293.585938 277.898438 293.585938 278.398438 292.085938 C 278.730469 290.777344 278.898438 289.429688 278.898438 288.078125 L 275.398438 280.070312 Z M 274.398438 240.015625 "/>
<path style=" stroke:none;fill-rule:nonzero;fill:rgb(38.823529%,59.607843%,100%);fill-opacity:1;" d="M 90.417969 181.992188 C 90.417969 130.976562 70.175781 89.625 45.207031 89.625 C 20.242188 89.625 0 130.976562 0 181.992188 C 0 233.003906 20.242188 274.359375 45.207031 274.359375 C 70.175781 274.359375 90.417969 233.003906 90.417969 181.992188 Z M 90.417969 181.992188 "/>
<path style=" stroke:none;fill-rule:nonzero;fill:rgb(24.705882%,23.921569%,33.72549%);fill-opacity:1;" d="M 44.792969 182.949219 C 47.050781 142.742188 51.59375 115.585938 51.636719 115.3125 L 50.652344 115.148438 C 50.605469 115.417969 46.054688 142.621094 43.796875 182.878906 C 41.710938 220.035156 41.207031 276.234375 50.652344 332.972656 L 51.636719 332.808594 C 42.210938 276.167969 42.714844 220.050781 44.792969 182.949219 Z M 44.792969 182.949219 "/>
<path style=" stroke:none;fill-rule:nonzero;fill:rgb(24.705882%,23.921569%,33.72549%);fill-opacity:1;" d="M 44.738281 185.167969 L 85.617188 163.257812 L 86.085938 164.140625 L 45.210938 186.050781 Z M 44.738281 185.167969 "/>
<path style=" stroke:none;fill-rule:nonzero;fill:rgb(24.705882%,23.921569%,33.72549%);fill-opacity:1;" d="M 1.585938 175.121094 L 2.058594 174.238281 L 42.941406 196.136719 L 42.46875 197.019531 Z M 1.585938 175.121094 "/>
<path style=" stroke:none;fill-rule:nonzero;fill:rgb(90.196078%,90.196078%,90.196078%);fill-opacity:1;" d="M 214.148438 126.398438 C 214.148438 56.589844 186.449219 0 152.28125 0 C 118.117188 0 90.417969 56.589844 90.417969 126.398438 C 90.417969 196.207031 118.117188 252.796875 152.28125 252.796875 C 186.449219 252.796875 214.148438 196.207031 214.148438 126.398438 Z M 214.148438 126.398438 "/>
<path style=" stroke:none;fill-rule:nonzero;fill:rgb(24.705882%,23.921569%,33.72549%);fill-opacity:1;" d="M 151.53125 127.691406 C 154.617188 72.664062 160.835938 35.492188 160.898438 35.125 L 159.914062 34.957031 C 159.851562 35.328125 153.625 72.539062 150.535156 127.621094 C 147.679688 178.457031 146.992188 255.351562 159.914062 332.972656 L 160.898438 332.808594 C 147.996094 255.28125 148.683594 178.472656 151.53125 127.691406 Z M 151.53125 127.691406 "/>
<path style=" stroke:none;fill-rule:nonzero;fill:rgb(24.705882%,23.921569%,33.72549%);fill-opacity:1;" d="M 151.726562 130.90625 L 207.664062 100.925781 L 208.132812 101.808594 L 152.199219 131.789062 Z M 151.726562 130.90625 "/>
<path style=" stroke:none;fill-rule:nonzero;fill:rgb(24.705882%,23.921569%,33.72549%);fill-opacity:1;" d="M 92.675781 116.835938 L 93.148438 115.953125 L 149.09375 145.914062 L 148.621094 146.796875 Z M 92.675781 116.835938 "/>
<path style=" stroke:none;fill-rule:nonzero;fill:rgb(90.196078%,90.196078%,90.196078%);fill-opacity:1;" d="M 123.859375 254.824219 C 123.859375 228.742188 113.511719 207.597656 100.746094 207.597656 C 87.980469 207.597656 77.632812 228.742188 77.632812 254.824219 C 77.632812 280.90625 87.980469 302.050781 100.746094 302.050781 C 113.511719 302.050781 123.859375 280.90625 123.859375 254.824219 Z M 123.859375 254.824219 "/>
<path style=" stroke:none;fill-rule:nonzero;fill:rgb(24.705882%,23.921569%,33.72549%);fill-opacity:1;" d="M 100.726562 256.859375 L 100.863281 257.113281 L 121.761719 245.914062 L 121.289062 245.03125 L 100.769531 256.027344 C 101.90625 235.101562 104.226562 221.050781 104.273438 220.773438 L 103.289062 220.605469 C 103.238281 220.910156 100.476562 237.59375 99.496094 261.734375 L 78.800781 250.640625 L 78.328125 251.523438 L 99.226562 262.726562 L 99.476562 262.257812 C 98.695312 282.183594 99.132812 307.097656 103.289062 332.058594 L 104.273438 331.890625 C 99.746094 304.679688 99.644531 277.519531 100.726562 256.859375 Z M 100.726562 256.859375 "/>
<path style=" stroke:none;fill-rule:nonzero;fill:rgb(18.431373%,18.039216%,25.490196%);fill-opacity:1;" d="M 280.515625 192.488281 C 272.476562 178.773438 256.578125 178.132812 256.578125 178.132812 C 256.578125 178.132812 241.082031 176.132812 231.144531 197.023438 C 221.878906 216.492188 209.09375 235.292969 229.085938 239.851562 L 232.695312 228.5 L 234.933594 240.695312 C 237.78125 240.902344 240.636719 240.953125 243.488281 240.84375 C 264.898438 240.144531 285.285156 241.046875 284.628906 233.289062 C 283.757812 222.972656 288.25 205.6875 280.515625 192.488281 Z M 280.515625 192.488281 "/>
<path style=" stroke:none;fill-rule:nonzero;fill:rgb(18.431373%,18.039216%,25.490196%);fill-opacity:1;" d="M 224.496094 302.351562 C 224.269531 303.785156 223.945312 305.203125 223.519531 306.589844 C 223.042969 307.949219 222.304688 309.203125 221.867188 310.574219 C 220.472656 314.949219 222.40625 319.824219 225.488281 323.199219 C 228.15625 326.109375 231.613281 328.179688 235.433594 329.164062 C 238.21875 329.871094 241.109375 329.972656 243.980469 330.070312 C 251.921875 330.339844 260.066406 330.585938 267.59375 328.007812 C 269.972656 327.171875 272.269531 326.117188 274.453125 324.859375 C 275.144531 324.527344 275.753906 324.042969 276.234375 323.441406 C 276.808594 322.617188 276.882812 321.546875 276.878906 320.539062 C 276.859375 317.136719 276.179688 313.753906 276.339844 310.359375 C 276.429688 308.476562 276.777344 306.597656 276.605469 304.722656 C 276.132812 300.371094 272.984375 296.789062 268.738281 295.761719 C 266.601562 295.300781 264.390625 295.550781 262.214844 295.761719 C 256.574219 296.3125 250.90625 296.566406 245.238281 296.53125 C 239.449219 296.492188 233.691406 295.601562 227.929688 295.507812 C 226.226562 295.480469 226.261719 296.007812 225.71875 297.675781 C 225.21875 299.207031 224.808594 300.769531 224.496094 302.351562 Z M 224.496094 302.351562 "/>
<path style=" stroke:none;fill-rule:nonzero;fill:rgb(18.431373%,18.039216%,25.490196%);fill-opacity:1;" d="M 201.847656 299.589844 C 200.292969 299.195312 198.6875 299.019531 197.082031 299.078125 C 193.671875 299.292969 190.511719 300.953125 188.394531 303.640625 C 186.296875 306.367188 185.441406 309.851562 186.039062 313.242188 C 186.425781 315.058594 187.0625 316.8125 187.925781 318.453125 C 189.191406 321.046875 190.707031 323.628906 193.046875 325.289062 C 194.457031 326.203125 195.972656 326.933594 197.566406 327.464844 L 209.890625 332.152344 C 211.703125 332.84375 213.519531 333.53125 215.347656 334.171875 C 224.542969 337.382812 234.136719 339.308594 243.855469 339.894531 C 246.816406 340.074219 249.820312 340.125 252.707031 339.441406 C 253.414062 339.347656 254.058594 338.996094 254.519531 338.453125 C 254.753906 338.039062 254.894531 337.578125 254.925781 337.101562 L 255.683594 331.742188 C 255.851562 330.992188 255.832031 330.214844 255.617188 329.480469 C 255.269531 328.578125 254.398438 328.011719 253.570312 327.53125 C 245.464844 322.828125 236.003906 320.234375 229.183594 313.785156 C 227.578125 312.265625 226.234375 309.859375 224.285156 308.828125 C 222.074219 307.65625 219.46875 306.988281 217.179688 305.910156 C 212.183594 303.554688 207.265625 300.847656 201.847656 299.589844 Z M 201.847656 299.589844 "/>
<use xlink:href="#surface5" mask="url(#mask0)"/>
<path style=" stroke:none;fill-rule:nonzero;fill:rgb(100%,72.156863%,72.156863%);fill-opacity:1;" d="M 268.503906 342.675781 C 268.75 342.695312 268.996094 342.621094 269.195312 342.472656 C 269.371094 342.242188 269.449219 341.953125 269.410156 341.667969 L 269.390625 334.363281 C 267.308594 333.363281 264.984375 333.042969 262.699219 332.734375 L 252.042969 331.296875 C 252.289062 331.328125 250.378906 335.929688 250.671875 336.542969 C 251.1875 337.628906 255.132812 338.585938 256.246094 339.097656 C 260.121094 340.875 264.144531 342.832031 268.503906 342.675781 Z M 268.503906 342.675781 "/>
<path style=" stroke:none;fill-rule:nonzero;fill:rgb(100%,72.156863%,72.156863%);fill-opacity:1;" d="M 235.070312 334.339844 C 233.058594 334.660156 230.8125 334.949219 229.511719 336.53125 C 227.859375 338.535156 228.5625 341.527344 229.351562 344.011719 C 229.46875 344.511719 229.703125 344.980469 230.035156 345.371094 C 230.574219 345.910156 231.398438 345.988281 232.152344 346.035156 C 233.988281 346.152344 235.941406 346.246094 237.542969 345.335938 C 238.269531 344.851562 238.96875 344.324219 239.636719 343.761719 C 240.816406 342.96875 242.117188 342.371094 243.488281 341.984375 C 246 341.1875 248.589844 340.648438 251.214844 340.375 C 252.25 340.328125 253.273438 340.148438 254.257812 339.835938 C 255.261719 339.507812 256.054688 338.730469 256.402344 337.734375 C 256.773438 336.40625 256.011719 335.050781 255.277344 333.886719 C 254.367188 332.4375 253.398438 330.910156 252.039062 329.839844 C 250.050781 328.285156 249.070312 329.480469 247.070312 330.476562 C 243.289062 332.363281 239.242188 333.664062 235.070312 334.339844 Z M 235.070312 334.339844 "/>
<path style=" stroke:none;fill-rule:nonzero;fill:rgb(18.431373%,18.039216%,25.490196%);fill-opacity:1;" d="M 229.8125 336.167969 L 217.039062 332.355469 C 215.507812 331.816406 213.90625 331.503906 212.285156 331.425781 C 210.664062 331.425781 208.96875 331.960938 207.917969 333.207031 C 206.929688 334.382812 206.644531 335.988281 206.398438 337.507812 L 205.871094 340.765625 C 205.519531 342.40625 205.417969 344.09375 205.574219 345.765625 C 205.816406 347.425781 206.65625 349.082031 208.113281 349.886719 C 209.878906 350.859375 212.046875 350.386719 214.019531 349.976562 C 218.003906 349.15625 222.058594 348.714844 226.125 348.667969 C 227.65625 348.648438 229.257812 348.667969 230.609375 347.945312 C 232.214844 347.085938 233.175781 345.265625 233.339844 343.4375 C 233.59375 340.65625 232.675781 337.023438 229.8125 336.167969 Z M 229.8125 336.167969 "/>
<path style=" stroke:none;fill-rule:nonzero;fill:rgb(18.431373%,18.039216%,25.490196%);fill-opacity:1;" d="M 273.523438 332.84375 C 275.179688 332.550781 276.644531 331.601562 278.230469 331.039062 C 280.464844 330.25 282.882812 330.25 285.25 330.257812 C 286.117188 330.261719 287.042969 330.28125 287.765625 330.769531 C 288.808594 331.46875 289.078125 332.871094 289.253906 334.125 L 290.324219 341.679688 C 290.523438 343.097656 290.722656 344.558594 290.410156 345.957031 C 290.097656 347.359375 289.152344 348.707031 287.777344 349.070312 C 286.105469 349.507812 284.46875 348.429688 282.890625 347.722656 C 278.949219 345.953125 274.367188 346.40625 270.257812 345.082031 C 269.492188 344.835938 268.675781 344.460938 268.367188 343.714844 C 268.226562 343.296875 268.175781 342.851562 268.21875 342.410156 C 268.289062 339.984375 267.78125 336.667969 268.503906 334.347656 C 269.15625 332.257812 271.675781 332.84375 273.523438 332.84375 Z M 273.523438 332.84375 "/>
<path style=" stroke:none;fill-rule:nonzero;fill:rgb(18.431373%,18.039216%,25.490196%);fill-opacity:1;" d="M 300.558594 296.546875 C 303.109375 295.902344 305.757812 295.71875 308.375 296.007812 C 310.460938 296.242188 312.617188 296.828125 314.140625 298.289062 C 315.996094 300.066406 316.59375 302.816406 316.644531 305.398438 C 316.726562 310.539062 315.039062 315.546875 311.863281 319.585938 C 311.089844 320.601562 310.167969 321.5 309.128906 322.242188 C 308.011719 322.949219 306.820312 323.53125 305.574219 323.972656 L 277.972656 334.96875 C 270.710938 337.863281 263.425781 340.761719 255.851562 342.667969 C 255.429688 342.875 254.949219 342.898438 254.511719 342.738281 C 254.074219 342.578125 253.71875 342.246094 253.53125 341.820312 C 251.109375 338.328125 249.082031 334.582031 247.480469 330.644531 C 247.335938 330.390625 247.304688 330.082031 247.402344 329.804688 C 247.503906 329.65625 247.644531 329.53125 247.808594 329.457031 L 267.332031 318.125 C 268.765625 317.371094 270.101562 316.441406 271.308594 315.359375 C 272.152344 314.535156 272.84375 313.5625 273.347656 312.492188 C 273.75 311.640625 273.789062 309.625 274.304688 308.992188 C 274.8125 308.375 276.542969 308.328125 277.34375 308.082031 C 278.472656 307.734375 279.574219 307.3125 280.648438 306.820312 C 285.015625 304.847656 288.90625 301.980469 293.09375 299.671875 C 295.4375 298.316406 297.949219 297.265625 300.558594 296.546875 Z M 300.558594 296.546875 "/>
<use xlink:href="#surface8" mask="url(#mask1)"/>
<path style=" stroke:none;fill-rule:nonzero;fill:rgb(100%,72.156863%,72.156863%);fill-opacity:1;" d="M 274.898438 207.972656 C 274.898438 218.480469 266.390625 226.996094 255.898438 226.996094 C 245.402344 226.996094 236.898438 218.480469 236.898438 207.972656 C 236.898438 197.464844 245.402344 188.945312 255.898438 188.945312 C 266.390625 188.945312 274.898438 197.464844 274.898438 207.972656 Z M 274.898438 207.972656 "/>
<path style=" stroke:none;fill-rule:nonzero;fill:rgb(100%,72.156863%,72.156863%);fill-opacity:1;" d="M 263.898438 223.992188 C 263.898438 223.992188 260.898438 231.503906 266.398438 234.507812 C 271.898438 237.511719 249.398438 261.542969 249.398438 261.542969 L 239.398438 232.503906 C 239.398438 232.503906 247.898438 229.5 246.398438 221.492188 Z M 263.898438 223.992188 "/>
<path style=" stroke:none;fill-rule:nonzero;fill:rgb(38.823529%,59.607843%,100%);fill-opacity:1;" d="M 251.398438 244.519531 L 263.507812 231.136719 L 279.898438 239.515625 L 277.398438 298.59375 L 273.398438 303.097656 C 273.398438 303.097656 256.398438 318.121094 230.398438 305.601562 C 230.398438 305.601562 221.398438 298.09375 221.898438 286.578125 C 222.398438 275.0625 220.898438 273.558594 220.898438 273.558594 L 220.398438 233.003906 L 245.082031 228.15625 Z M 251.398438 244.519531 "/>
<path style=" stroke:none;fill-rule:nonzero;fill:rgb(100%,72.156863%,72.156863%);fill-opacity:1;" d="M 195.875 308.226562 L 192.785156 317.75 C 192.785156 317.75 177.917969 333.132812 183.296875 337.300781 C 188.671875 341.46875 200.738281 319.492188 200.738281 319.492188 L 202.960938 308.738281 Z M 195.875 308.226562 "/>
<path style=" stroke:none;fill-rule:nonzero;fill:rgb(38.823529%,59.607843%,100%);fill-opacity:1;" d="M 224.398438 234.507812 L 219.898438 233.003906 C 219.898438 233.003906 212.898438 235.007812 211.898438 242.019531 C 210.898438 249.027344 203.398438 284.574219 203.398438 284.574219 C 203.398438 284.574219 200.398438 286.078125 202.398438 288.578125 C 204.398438 291.082031 192.398438 313.613281 192.398438 313.613281 L 201.898438 318.121094 C 201.898438 318.121094 220.898438 298.09375 220.898438 296.089844 C 220.898438 294.085938 220.398438 292.085938 220.398438 290.082031 C 220.398438 288.078125 220.898438 288.078125 220.398438 286.578125 C 220.0625 285.269531 219.894531 283.921875 219.898438 282.570312 L 223.398438 274.5625 Z M 224.398438 234.507812 "/>
<path style=" stroke:none;fill-rule:nonzero;fill:rgb(18.431373%,18.039216%,25.490196%);fill-opacity:1;" d="M 276.960938 191.167969 L 261.253906 182.855469 L 239.558594 186.253906 L 235.070312 206.277344 L 246.242188 205.84375 L 249.363281 198.488281 L 249.363281 205.722656 L 254.519531 205.523438 L 257.511719 193.8125 L 259.382812 206.277344 L 277.710938 205.898438 Z M 276.960938 191.167969 "/>
<path style=" stroke:none;fill-rule:nonzero;fill:rgb(100%,39.607843%,51.764706%);fill-opacity:1;" d="M 165.601562 319.964844 L 165.601562 348.84375 L 77.511719 348.84375 C 77.511719 332.894531 90.425781 319.96875 106.351562 319.964844 C 114.613281 317.386719 124.164062 316.566406 134.523438 316.835938 C 144.296875 317.089844 154.792969 318.316406 165.601562 319.964844 Z M 165.601562 319.964844 "/>
<path style=" stroke:none;fill-rule:nonzero;fill:rgb(24.705882%,23.921569%,33.72549%);fill-opacity:1;" d="M 153.019531 342.546875 L 194.441406 342.546875 C 195.890625 342.546875 197.0625 343.722656 197.0625 345.171875 C 197.0625 346.621094 195.890625 347.796875 194.441406 347.796875 L 153.019531 347.796875 Z M 153.019531 342.546875 "/>
<path style=" stroke:none;fill-rule:nonzero;fill:rgb(24.705882%,23.921569%,33.72549%);fill-opacity:1;" d="M 160.191406 295.253906 L 171.296875 281.777344 C 171.820312 280.679688 172.964844 280.027344 174.171875 280.128906 C 175.378906 280.234375 176.398438 281.074219 176.730469 282.242188 L 181.105469 297.722656 Z M 160.191406 295.253906 "/>
<path style=" stroke:none;fill-rule:nonzero;fill:rgb(100%,39.607843%,51.764706%);fill-opacity:1;" d="M 146.726562 302.117188 L 150.921875 285.15625 C 150.921875 283.945312 151.671875 282.855469 152.804688 282.429688 C 153.9375 282 155.21875 282.316406 156.019531 283.226562 L 166.652344 295.289062 Z M 146.726562 302.117188 "/>
<path style=" stroke:none;fill-rule:nonzero;fill:rgb(100%,39.607843%,51.764706%);fill-opacity:1;" d="M 77.511719 348.847656 L 85.902344 348.847656 L 85.902344 366.699219 C 85.902344 371.335938 82.144531 375.097656 77.511719 375.097656 Z M 77.511719 348.847656 "/>
<path style=" stroke:none;fill-rule:nonzero;fill:rgb(100%,39.607843%,51.764706%);fill-opacity:1;" d="M 151.445312 343.59375 L 192.871094 343.59375 C 194.316406 343.59375 195.492188 344.769531 195.492188 346.222656 C 195.492188 347.671875 194.316406 348.847656 192.871094 348.847656 L 151.445312 348.847656 Z M 151.445312 343.59375 "/>
<use xlink:href="#surface11" mask="url(#mask2)"/>
<path style=" stroke:none;fill-rule:nonzero;fill:rgb(100%,39.607843%,51.764706%);fill-opacity:1;" d="M 193.917969 320.492188 C 193.917969 336.152344 181.242188 348.847656 165.601562 348.847656 C 149.964844 348.847656 137.289062 336.152344 137.289062 320.492188 C 137.289062 304.835938 149.964844 292.140625 165.601562 292.140625 C 181.242188 292.140625 193.917969 304.835938 193.917969 320.492188 Z M 193.917969 320.492188 "/>
<path style=" stroke:none;fill-rule:nonzero;fill:rgb(24.705882%,23.921569%,33.72549%);fill-opacity:1;" d="M 196.015625 322.59375 C 196.015625 318.535156 194.605469 315.242188 192.871094 315.242188 C 191.132812 315.242188 189.722656 318.535156 189.722656 322.59375 C 189.722656 326.652344 191.132812 329.945312 192.871094 329.945312 C 194.605469 329.945312 196.015625 326.652344 196.015625 322.59375 Z M 196.015625 322.59375 "/>
<path style=" stroke:none;fill-rule:nonzero;fill:rgb(24.705882%,23.921569%,33.72549%);fill-opacity:1;" d="M 186.050781 314.980469 C 186.050781 313.964844 185.699219 313.144531 185.265625 313.144531 C 184.832031 313.144531 184.480469 313.964844 184.480469 314.980469 C 184.480469 315.996094 184.832031 316.816406 185.265625 316.816406 C 185.699219 316.816406 186.050781 315.996094 186.050781 314.980469 Z M 186.050781 314.980469 "/>
<path style=" stroke:none;fill-rule:nonzero;fill:rgb(24.705882%,23.921569%,33.72549%);fill-opacity:1;" d="M 191.820312 311.304688 C 191.820312 310.289062 191.46875 309.46875 191.035156 309.46875 C 190.597656 309.46875 190.246094 310.289062 190.246094 311.304688 C 190.246094 312.320312 190.597656 313.144531 191.035156 313.144531 C 191.46875 313.144531 191.820312 312.320312 191.820312 311.304688 Z M 191.820312 311.304688 "/>
<path style=" stroke:none;fill-rule:nonzero;fill:rgb(24.705882%,23.921569%,33.72549%);fill-opacity:1;" d="M 163.226562 291.824219 C 163.226562 291.824219 161.652344 289.082031 161.652344 287.410156 "/>
<path style=" stroke:none;fill-rule:nonzero;fill:rgb(24.705882%,23.921569%,33.72549%);fill-opacity:1;" d="M 163.917969 290.050781 C 163.917969 290.050781 164.777344 287.007812 165.972656 285.839844 "/>
</g>
</svg>
