<?xml version="1.0" encoding="UTF-8"?>
<svg xmlns="http://www.w3.org/2000/svg" xmlns:xlink="http://www.w3.org/1999/xlink" width="270pt" height="364pt" viewBox="0 0 270 364" version="1.1">
<g id="surface1">
<path style=" stroke:none;fill-rule:nonzero;fill:rgb(24.705882%,23.921569%,33.72549%);fill-opacity:1;" d="M 270.113281 86.472656 L 268.109375 86.472656 L 268.109375 31.699219 C 268.109375 14.191406 253.890625 0 236.351562 0 L 120.09375 0 C 102.550781 0 88.332031 14.191406 88.332031 31.699219 L 88.332031 332.1875 C 88.332031 349.695312 102.550781 363.890625 120.09375 363.890625 L 236.351562 363.890625 C 253.890625 363.890625 268.109375 349.695312 268.109375 332.1875 L 268.109375 125.460938 L 270.113281 125.460938 Z M 270.113281 86.472656 "/>
<path style=" stroke:none;fill-rule:nonzero;fill:rgb(100%,100%,100%);fill-opacity:1;" d="M 237.632812 8.246094 L 222.457031 8.246094 C 223.875 11.714844 223.46875 15.660156 221.375 18.769531 C 219.28125 21.878906 215.777344 23.742188 212.023438 23.742188 L 145.421875 23.742188 C 141.667969 23.742188 138.164062 21.878906 136.070312 18.769531 C 133.976562 15.660156 133.570312 11.714844 134.988281 8.246094 L 120.8125 8.246094 C 107.714844 8.246094 97.097656 18.847656 97.097656 31.921875 L 97.097656 331.96875 C 97.097656 345.042969 107.714844 355.640625 120.8125 355.640625 L 237.632812 355.640625 C 250.730469 355.640625 261.351562 345.042969 261.351562 331.96875 L 261.351562 31.921875 C 261.351562 18.847656 250.730469 8.246094 237.632812 8.246094 Z M 237.632812 8.246094 "/>
<path style=" stroke:none;fill-rule:nonzero;fill:rgb(90.196078%,90.196078%,90.196078%);fill-opacity:1;" d="M 111.957031 67.242188 L 246.488281 67.242188 L 246.488281 296.644531 L 111.957031 296.644531 Z M 111.957031 67.242188 "/>
<path style=" stroke:none;fill-rule:nonzero;fill:rgb(100%,72.156863%,72.156863%);fill-opacity:1;" d="M 66.777344 115.984375 C 72.941406 121.117188 60.609375 137.074219 60.609375 137.074219 C 60.609375 137.074219 89.902344 138.214844 87.589844 138.214844 C 85.277344 138.214844 83.347656 113.992188 83.347656 113.992188 C 83.347656 113.992188 60.609375 110.855469 66.777344 115.984375 Z M 66.777344 115.984375 "/>
<path style=" stroke:none;fill-rule:nonzero;fill:rgb(18.431373%,18.039216%,25.490196%);fill-opacity:1;" d="M 54.867188 180.902344 L 81.414062 190.402344 L 95.941406 196.402344 C 95.941406 196.402344 105.460938 222.402344 109.96875 233.902344 C 114.476562 245.402344 99.949219 263.902344 99.949219 263.902344 C 99.949219 263.902344 101.453125 269.402344 99.949219 271.902344 C 99.171875 273.179688 98.503906 274.515625 97.945312 275.902344 C 97.445312 276.902344 91.933594 276.402344 85.921875 275.902344 C 79.914062 275.402344 85.421875 265.902344 85.421875 265.902344 C 85.421875 265.902344 90.433594 245.902344 90.933594 245.402344 C 91.402344 244.933594 92.742188 241.414062 91.285156 240.136719 C 89.929688 239.019531 88.816406 237.636719 88.011719 236.074219 C 87.335938 234.726562 86.464844 233.488281 85.421875 232.402344 C 85.421875 232.402344 69.546875 209.03125 61.703125 203.714844 C 53.863281 198.402344 35.65625 204.714844 35.65625 204.714844 C 35.65625 204.714844 44.347656 217.902344 44.347656 220.902344 C 44.347656 223.902344 44.847656 225.402344 46.351562 226.402344 C 47.851562 227.402344 47.351562 229.402344 47.351562 231.402344 C 47.351562 233.402344 48.855469 237.402344 51.359375 239.402344 C 53.863281 241.402344 54.363281 243.402344 53.863281 247.402344 C 53.363281 251.402344 39.839844 249.402344 39.839844 249.402344 L 33.324219 236.902344 C 33.324219 236.902344 23.308594 220.902344 16.796875 203.902344 C 13.539062 195.402344 16.921875 189.652344 21.117188 186.027344 C 25.160156 182.605469 30.359375 180.855469 35.652344 181.144531 L 59.199219 182.214844 L 42.34375 177.402344 Z M 54.867188 180.902344 "/>
<path style=" stroke:none;fill-rule:nonzero;fill:rgb(100%,72.156863%,72.156863%);fill-opacity:1;" d="M 142.527344 136.402344 L 171.082031 123.402344 C 171.082031 123.402344 181.101562 106.402344 175.089844 104.402344 C 169.078125 102.402344 164.066406 119.402344 164.066406 119.402344 L 143.53125 123.402344 Z M 142.527344 136.402344 "/>
<path style=" stroke:none;fill-rule:nonzero;fill:rgb(100%,72.156863%,72.156863%);fill-opacity:1;" d="M 29.320312 145.402344 C 29.320312 145.402344 14.792969 158.402344 14.289062 159.902344 C 13.789062 161.402344 4.773438 165.402344 0.765625 158.402344 C -3.242188 151.402344 9.78125 151.902344 9.78125 151.902344 L 18.800781 140.402344 Z M 29.320312 145.402344 "/>
<path style=" stroke:none;fill-rule:nonzero;fill:rgb(38.823529%,59.607843%,100%);fill-opacity:1;" d="M 14.617188 137.714844 L 30.148438 149.214844 L 55.695312 140.214844 C 50.945312 155.054688 54.664062 170.769531 39.070312 179.875 L 98.179688 199.875 C 92.945312 178.851562 101.210938 161.445312 108.292969 140.214844 C 119.507812 134.445312 133.582031 135.8125 148.867188 140.214844 L 148.867188 119.714844 L 86.75 123.214844 L 77.140625 128.375 L 65.710938 125.214844 C 49.171875 122.539062 28.503906 128.390625 14.617188 137.714844 Z M 14.617188 137.714844 "/>
<path style=" stroke:none;fill-rule:nonzero;fill:rgb(18.431373%,18.039216%,25.490196%);fill-opacity:1;" d="M 52.863281 246.902344 C 54.363281 247.902344 56.871094 257.402344 57.371094 260.902344 C 57.871094 264.402344 53.363281 265.902344 50.859375 266.402344 C 48.355469 266.902344 48.855469 268.402344 47.351562 269.902344 C 45.847656 271.402344 40.339844 271.902344 32.824219 270.402344 C 25.3125 268.902344 36.332031 259.402344 37.332031 258.902344 C 38.335938 258.402344 41.339844 246.902344 41.339844 246.902344 C 41.339844 246.902344 51.359375 245.902344 52.863281 246.902344 Z M 52.863281 246.902344 "/>
<path style=" stroke:none;fill-rule:nonzero;fill:rgb(18.431373%,18.039216%,25.490196%);fill-opacity:1;" d="M 94.4375 274.402344 L 98.445312 284.902344 L 102.234375 290.574219 C 104.324219 293.636719 104.984375 297.445312 104.054688 301.03125 C 103.417969 303.375 102.09375 305.589844 99.449219 306.402344 C 92.9375 308.402344 88.929688 295.902344 88.929688 295.902344 C 88.929688 295.902344 85.421875 288.902344 82.917969 282.402344 C 80.414062 275.902344 84.921875 272.402344 84.921875 272.402344 Z M 94.4375 274.402344 "/>
<path style=" stroke:none;fill-rule:nonzero;fill:rgb(100%,72.156863%,72.156863%);fill-opacity:1;" d="M 87.246094 110.332031 C 87.246094 116.957031 81.867188 122.328125 75.226562 122.328125 C 68.589844 122.328125 63.207031 116.957031 63.207031 110.332031 C 63.207031 103.703125 68.589844 98.332031 75.226562 98.332031 C 81.867188 98.332031 87.246094 103.703125 87.246094 110.332031 Z M 87.246094 110.332031 "/>
<path style=" stroke:none;fill-rule:nonzero;fill:rgb(18.431373%,18.039216%,25.490196%);fill-opacity:1;" d="M 88.851562 107.367188 C 89.925781 104.304688 89.644531 100.933594 88.078125 98.09375 C 86.535156 95.359375 83.558594 92.796875 77.84375 92.652344 C 65.371094 92.335938 59.964844 101.722656 60.667969 104.476562 C 61.371094 107.230469 63.886719 113.777344 63.886719 113.777344 C 63.886719 113.777344 62.328125 107.472656 65.445312 106.839844 C 68.5625 106.210938 80.644531 103.6875 84.152344 106.527344 C 86.191406 108.082031 87.230469 110.609375 86.882812 113.148438 Z M 88.851562 107.367188 "/>
<path style=" stroke:none;fill-rule:nonzero;fill:rgb(90.196078%,90.196078%,90.196078%);fill-opacity:1;" d="M 192.445312 325.875 C 192.445312 333.054688 186.617188 338.875 179.421875 338.875 C 172.230469 338.875 166.398438 333.054688 166.398438 325.875 C 166.398438 318.695312 172.230469 312.875 179.421875 312.875 C 186.617188 312.875 192.445312 318.695312 192.445312 325.875 Z M 192.445312 325.875 "/>
</g>
</svg>
