<?xml version="1.0" encoding="UTF-8"?>
<svg xmlns="http://www.w3.org/2000/svg" xmlns:xlink="http://www.w3.org/1999/xlink" width="439pt" height="329pt" viewBox="0 0 439 329" version="1.1">
<g id="surface1">
<path style=" stroke:none;fill-rule:nonzero;fill:rgb(90.196078%,90.196078%,90.196078%);fill-opacity:1;" d="M 3.957031 0 C 1.773438 0.00390625 0.00390625 1.773438 0 3.957031 L 0 325.042969 C 0.00390625 327.226562 1.773438 328.996094 3.957031 329 L 435.074219 329 C 437.257812 328.996094 439.027344 327.226562 439.027344 325.042969 L 439.027344 3.957031 C 439.027344 1.773438 437.257812 0.00390625 435.074219 0 Z M 3.957031 0 "/>
<path style=" stroke:none;fill-rule:nonzero;fill:rgb(100%,100%,100%);fill-opacity:1;" d="M 12.65625 12.660156 L 12.65625 316.339844 L 426.371094 316.339844 L 426.371094 12.660156 Z M 12.65625 12.660156 "/>
<path style=" stroke:none;fill-rule:nonzero;fill:rgb(90.196078%,90.196078%,90.196078%);fill-opacity:1;" d="M 315.996094 29.082031 C 315.519531 29.082031 315.132812 29.46875 315.128906 29.945312 L 315.128906 100.132812 C 315.132812 100.609375 315.519531 100.996094 315.996094 100.996094 L 410.230469 100.996094 C 410.707031 100.996094 411.09375 100.609375 411.09375 100.132812 L 411.09375 29.945312 C 411.09375 29.46875 410.707031 29.082031 410.230469 29.082031 Z M 315.996094 29.082031 "/>
<path style=" stroke:none;fill-rule:nonzero;fill:rgb(100%,100%,100%);fill-opacity:1;" d="M 317.898438 31.851562 L 317.898438 98.230469 L 408.328125 98.230469 L 408.328125 31.851562 Z M 317.898438 31.851562 "/>
<path style=" stroke:none;fill-rule:nonzero;fill:rgb(90.196078%,90.196078%,90.196078%);fill-opacity:1;" d="M 315.996094 127.960938 C 315.519531 127.960938 315.132812 128.347656 315.128906 128.828125 L 315.128906 199.011719 C 315.132812 199.488281 315.519531 199.875 315.996094 199.875 L 410.230469 199.875 C 410.707031 199.875 411.09375 199.488281 411.09375 199.011719 L 411.09375 128.828125 C 411.09375 128.347656 410.707031 127.960938 410.230469 127.960938 Z M 315.996094 127.960938 "/>
<path style=" stroke:none;fill-rule:nonzero;fill:rgb(100%,100%,100%);fill-opacity:1;" d="M 317.898438 130.730469 L 317.898438 197.109375 L 408.328125 197.109375 L 408.328125 130.730469 Z M 317.898438 130.730469 "/>
<path style=" stroke:none;fill-rule:nonzero;fill:rgb(90.196078%,90.196078%,90.196078%);fill-opacity:1;" d="M 315.996094 226.839844 C 315.519531 226.839844 315.132812 227.226562 315.128906 227.707031 L 315.128906 297.890625 C 315.132812 298.367188 315.519531 298.753906 315.996094 298.753906 L 410.230469 298.753906 C 410.707031 298.753906 411.09375 298.367188 411.09375 297.890625 L 411.09375 227.707031 C 411.09375 227.226562 410.707031 226.839844 410.230469 226.839844 Z M 315.996094 226.839844 "/>
<path style=" stroke:none;fill-rule:nonzero;fill:rgb(100%,100%,100%);fill-opacity:1;" d="M 317.898438 229.609375 L 317.898438 295.988281 L 408.328125 295.988281 L 408.328125 229.609375 Z M 317.898438 229.609375 "/>
<path style=" stroke:none;fill-rule:nonzero;fill:rgb(90.196078%,90.196078%,90.196078%);fill-opacity:1;" d="M 391.359375 85.433594 L 373.34375 72.820312 L 373.335938 72.820312 L 373.335938 72.824219 C 372.722656 70.894531 372.300781 68.910156 372.074219 66.898438 C 373.765625 65.359375 374.964844 63.351562 375.527344 61.132812 C 375.597656 61.175781 375.667969 61.222656 375.734375 61.273438 C 377.3125 62.539062 380.3125 49.117188 375.261719 46.589844 C 375.261719 46.589844 371.472656 38.378906 364.214844 40.273438 C 356.953125 42.167969 352.847656 45.011719 352.53125 47.851562 C 352.21875 50.695312 352.691406 54.957031 352.691406 54.957031 C 352.691406 54.957031 353.128906 51.734375 355.425781 50.59375 C 353.125 53.21875 352.121094 56.734375 352.6875 60.175781 C 353.253906 63.617188 355.332031 66.625 358.351562 68.371094 C 357.804688 70.253906 357.074219 72.695312 356.457031 74.484375 L 350.953125 77.226562 L 338.957031 84.804688 C 338.957031 84.804688 334.222656 90.800781 332.644531 97.75 C 332.519531 98.296875 332.394531 98.84375 332.257812 99.390625 L 396.246094 99.390625 C 394.109375 92.941406 391.359375 85.433594 391.359375 85.433594 Z M 391.359375 85.433594 "/>
<path style=" stroke:none;fill-rule:nonzero;fill:rgb(90.196078%,90.196078%,90.196078%);fill-opacity:1;" d="M 387.402344 288.484375 C 388.632812 287.695312 389.9375 287.03125 391.296875 286.496094 L 377.890625 270.570312 L 369.027344 268.300781 C 367.472656 267.425781 366.246094 266.070312 365.535156 264.433594 L 370.277344 264.386719 L 372.085938 254.144531 C 373.183594 251.164062 372.738281 248.554688 370.277344 246.402344 C 370.71875 243.644531 369.46875 241.613281 366.15625 240.46875 C 362.859375 237.605469 357.988281 236.921875 355.0625 241.503906 C 352.609375 241.359375 350.476562 243.171875 350.226562 245.617188 C 347.539062 248.738281 350.523438 260.203125 351.40625 264.570312 L 356.121094 264.527344 C 355.847656 266.140625 355.054688 267.625 353.863281 268.75 L 353.800781 268.683594 L 344.375 273.296875 L 330.96875 288.804688 C 332.292969 289.320312 333.5625 289.964844 334.765625 290.722656 L 333.382812 295.988281 L 342.976562 295.988281 L 345.527344 292.277344 L 345.65625 292.277344 C 345.65625 292.210938 345.660156 292.148438 345.660156 292.082031 L 347.453125 289.476562 C 347.492188 291.582031 347.433594 293.753906 347.289062 295.988281 L 377.128906 295.988281 C 377.082031 294.132812 377.070312 292.289062 377.070312 290.457031 L 380.40625 295.300781 C 380.65625 294.933594 380.925781 294.589844 381.191406 294.242188 L 381.847656 295.988281 L 389.488281 295.988281 L 387.65625 289.019531 C 387.605469 288.824219 387.519531 288.644531 387.402344 288.484375 Z M 387.402344 288.484375 "/>
<path style=" stroke:none;fill-rule:nonzero;fill:rgb(90.196078%,90.196078%,90.196078%);fill-opacity:1;" d="M 380.730469 177.464844 L 368.0625 172.28125 C 367.761719 171.085938 367.503906 169.957031 367.34375 168.960938 C 369.96875 167.46875 371.882812 164.972656 372.644531 162.046875 L 373.980469 160.609375 C 375.417969 159.109375 376.140625 157.0625 375.957031 154.992188 C 375.726562 153.023438 374.730469 151.226562 373.183594 149.988281 C 373.703125 146.714844 372.21875 144.304688 368.289062 142.945312 C 364.382812 139.554688 358.597656 138.734375 355.132812 144.171875 C 352.21875 144 349.6875 146.148438 349.386719 149.050781 C 346.539062 152.367188 349.476562 158.980469 350.875 164.046875 C 351.09375 164.8125 351.753906 165.375 352.546875 165.464844 C 353.476562 166.84375 354.703125 167.996094 356.132812 168.84375 C 356.167969 170.308594 355.996094 171.769531 355.621094 173.183594 L 355.632812 172.742188 L 346.183594 176.992188 L 346.179688 176.878906 L 345.265625 177.40625 L 343.816406 178.058594 C 343.828125 178.117188 343.839844 178.167969 343.851562 178.226562 L 343.71875 178.304688 C 341.683594 179.480469 340.125 181.335938 339.3125 183.542969 L 334.457031 197.757812 L 377.925781 197.757812 C 378.367188 196.277344 378.910156 194.828125 379.550781 193.417969 L 379.5625 193.261719 L 383.425781 197.757812 L 395.214844 197.757812 Z M 380.730469 177.464844 "/>
<path style=" stroke:none;fill-rule:nonzero;fill:rgb(90.196078%,90.196078%,90.196078%);fill-opacity:1;" d="M 191.101562 269.882812 C 191.101562 283.945312 179.707031 295.34375 165.648438 295.34375 C 151.59375 295.34375 140.199219 283.945312 140.199219 269.882812 C 140.199219 255.820312 151.59375 244.421875 165.648438 244.421875 C 179.707031 244.421875 191.101562 255.820312 191.101562 269.882812 Z M 191.101562 269.882812 "/>
<path style=" stroke:none;fill-rule:nonzero;fill:rgb(100%,100%,100%);fill-opacity:1;" d="M 185.160156 269.882812 C 185.160156 280.664062 176.425781 289.402344 165.648438 289.402344 C 154.871094 289.402344 146.136719 280.664062 146.136719 269.882812 C 146.136719 259.101562 154.871094 250.363281 165.648438 250.363281 C 176.425781 250.363281 185.160156 259.101562 185.160156 269.882812 Z M 185.160156 269.882812 "/>
<path style=" stroke:none;fill-rule:nonzero;fill:rgb(38.823529%,59.607843%,100%);fill-opacity:1;" d="M 175.425781 280.542969 C 175.1875 280.542969 174.960938 280.449219 174.796875 280.28125 L 155.242188 260.722656 C 154.910156 260.375 154.917969 259.824219 155.257812 259.480469 C 155.601562 259.140625 156.148438 259.132812 156.5 259.464844 L 176.050781 279.027344 C 176.304688 279.28125 176.382812 279.664062 176.246094 279.996094 C 176.105469 280.328125 175.785156 280.542969 175.425781 280.542969 Z M 175.425781 280.542969 "/>
<path style=" stroke:none;fill-rule:nonzero;fill:rgb(38.823529%,59.607843%,100%);fill-opacity:1;" d="M 165.203125 273.199219 L 162.328125 270.324219 C 162.292969 270.289062 162.242188 270.28125 162.199219 270.300781 C 162.15625 270.324219 162.132812 270.367188 162.136719 270.417969 C 162.375 271.949219 163.578125 273.148438 165.109375 273.386719 C 165.15625 273.394531 165.203125 273.371094 165.222656 273.328125 C 165.246094 273.285156 165.238281 273.234375 165.203125 273.199219 Z M 165.203125 273.199219 "/>
<path style=" stroke:none;fill-rule:nonzero;fill:rgb(38.823529%,59.607843%,100%);fill-opacity:1;" d="M 166.09375 266.546875 L 168.972656 269.429688 C 169.007812 269.464844 169.058594 269.472656 169.101562 269.453125 C 169.144531 269.429688 169.167969 269.382812 169.164062 269.335938 C 168.925781 267.800781 167.722656 266.597656 166.1875 266.359375 C 166.140625 266.351562 166.09375 266.378906 166.070312 266.417969 C 166.050781 266.460938 166.058594 266.515625 166.09375 266.546875 Z M 166.09375 266.546875 "/>
<path style=" stroke:none;fill-rule:nonzero;fill:rgb(38.823529%,59.607843%,100%);fill-opacity:1;" d="M 178.703125 270.839844 C 179.078125 270.25 179.074219 269.496094 178.695312 268.90625 C 177.269531 266.679688 175.390625 264.773438 173.179688 263.320312 C 170.941406 261.832031 168.320312 261.019531 165.628906 260.984375 C 164.273438 260.984375 162.925781 261.207031 161.640625 261.640625 C 161.566406 261.664062 161.511719 261.722656 161.496094 261.796875 C 161.476562 261.875 161.5 261.953125 161.554688 262.007812 L 164.179688 264.632812 C 164.234375 264.6875 164.3125 264.710938 164.390625 264.691406 C 166.199219 264.25 168.105469 264.785156 169.421875 266.101562 C 170.738281 267.417969 171.273438 269.328125 170.832031 271.136719 C 170.8125 271.210938 170.835938 271.292969 170.890625 271.347656 L 174.667969 275.125 C 174.746094 275.207031 174.878906 275.214844 174.964844 275.140625 C 176.417969 273.902344 177.679688 272.453125 178.703125 270.839844 Z M 178.703125 270.839844 "/>
<path style=" stroke:none;fill-rule:nonzero;fill:rgb(38.823529%,59.607843%,100%);fill-opacity:1;" d="M 165.648438 275.210938 C 164.011719 275.210938 162.46875 274.457031 161.457031 273.171875 C 160.445312 271.886719 160.078125 270.207031 160.464844 268.617188 C 160.484375 268.542969 160.460938 268.460938 160.40625 268.40625 L 156.695312 264.6875 C 156.613281 264.609375 156.480469 264.601562 156.394531 264.675781 C 154.96875 265.914062 153.703125 267.328125 152.632812 268.882812 C 152.222656 269.472656 152.210938 270.253906 152.597656 270.859375 C 154 273.089844 155.863281 274.996094 158.058594 276.453125 C 160.300781 277.949219 162.933594 278.753906 165.628906 278.765625 C 167 278.761719 168.359375 278.546875 169.664062 278.125 C 169.738281 278.101562 169.796875 278.039062 169.8125 277.964844 C 169.832031 277.890625 169.808594 277.808594 169.753906 277.753906 L 167.117188 275.117188 C 167.0625 275.0625 166.980469 275.039062 166.90625 275.058594 C 166.492188 275.160156 166.070312 275.210938 165.648438 275.210938 Z M 165.648438 275.210938 "/>
<path style=" stroke:none;fill-rule:nonzero;fill:rgb(90.196078%,90.196078%,90.196078%);fill-opacity:1;" d="M 94.535156 269.882812 C 94.535156 283.945312 83.140625 295.34375 69.085938 295.34375 C 55.027344 295.34375 43.632812 283.945312 43.632812 269.882812 C 43.632812 255.820312 55.027344 244.421875 69.085938 244.421875 C 83.140625 244.421875 94.535156 255.820312 94.535156 269.882812 Z M 94.535156 269.882812 "/>
<path style=" stroke:none;fill-rule:nonzero;fill:rgb(100%,100%,100%);fill-opacity:1;" d="M 88.597656 269.882812 C 88.597656 280.664062 79.863281 289.402344 69.085938 289.402344 C 58.308594 289.402344 49.574219 280.664062 49.574219 269.882812 C 49.574219 259.101562 58.308594 250.363281 69.085938 250.363281 C 79.863281 250.363281 88.597656 259.101562 88.597656 269.882812 Z M 88.597656 269.882812 "/>
<path style=" stroke:none;fill-rule:nonzero;fill:rgb(38.823529%,59.607843%,100%);fill-opacity:1;" d="M 76.582031 282.328125 C 75.496094 282.328125 73.972656 281.9375 71.691406 280.664062 C 68.859375 279.148438 66.269531 277.210938 64.015625 274.917969 C 61.683594 272.695312 59.734375 270.101562 58.25 267.238281 C 56.203125 263.515625 56.554688 261.566406 56.941406 260.730469 C 57.394531 259.820312 58.101562 259.058594 58.980469 258.546875 C 59.480469 258.214844 60.015625 257.933594 60.570312 257.703125 C 60.625 257.675781 60.675781 257.65625 60.722656 257.632812 C 61.09375 257.425781 61.539062 257.382812 61.941406 257.523438 C 62.386719 257.738281 62.78125 258.039062 63.101562 258.414062 C 64.257812 259.710938 65.230469 261.15625 66 262.714844 C 66.3125 263.253906 66.507812 263.855469 66.566406 264.476562 C 66.519531 265.09375 66.269531 265.675781 65.859375 266.132812 C 65.785156 266.234375 65.714844 266.328125 65.644531 266.421875 C 65.21875 266.976562 65.128906 267.136719 65.1875 267.421875 C 65.3125 268 66.238281 269.714844 67.753906 271.230469 C 69.273438 272.746094 70.9375 273.613281 71.515625 273.734375 C 71.816406 273.796875 71.980469 273.703125 72.550781 273.265625 C 72.632812 273.203125 72.71875 273.136719 72.808594 273.070312 C 73.265625 272.636719 73.859375 272.371094 74.488281 272.320312 L 74.492188 272.320312 C 75.121094 272.382812 75.726562 272.597656 76.261719 272.941406 C 77.261719 273.445312 79.542969 274.804688 80.546875 275.816406 C 80.917969 276.136719 81.222656 276.53125 81.4375 276.972656 C 81.578125 277.378906 81.535156 277.824219 81.328125 278.195312 C 81.304688 278.242188 81.28125 278.292969 81.257812 278.347656 C 81.023438 278.902344 80.742188 279.433594 80.410156 279.9375 C 79.894531 280.8125 79.132812 281.519531 78.222656 281.96875 C 77.710938 282.210938 77.148438 282.335938 76.582031 282.328125 Z M 76.582031 282.328125 "/>
<path style=" stroke:none;fill-rule:nonzero;fill:rgb(90.196078%,90.196078%,90.196078%);fill-opacity:1;" d="M 288.414062 269.882812 C 288.414062 283.945312 277.019531 295.34375 262.960938 295.34375 C 248.90625 295.34375 237.511719 283.945312 237.511719 269.882812 C 237.511719 255.820312 248.90625 244.421875 262.960938 244.421875 C 277.019531 244.421875 288.414062 255.820312 288.414062 269.882812 Z M 288.414062 269.882812 "/>
<path style=" stroke:none;fill-rule:nonzero;fill:rgb(100%,100%,100%);fill-opacity:1;" d="M 282.472656 269.882812 C 282.472656 280.664062 273.738281 289.402344 262.960938 289.402344 C 252.183594 289.402344 243.449219 280.664062 243.449219 269.882812 C 243.449219 259.101562 252.183594 250.363281 262.960938 250.363281 C 273.738281 250.363281 282.472656 259.101562 282.472656 269.882812 Z M 282.472656 269.882812 "/>
<path style=" stroke:none;fill-rule:nonzero;fill:rgb(38.823529%,59.607843%,100%);fill-opacity:1;" d="M 266.515625 281.441406 L 259.40625 281.441406 C 258.914062 281.441406 258.519531 281.042969 258.519531 280.550781 C 258.519531 280.0625 258.914062 279.664062 259.40625 279.664062 L 266.515625 279.664062 C 267.007812 279.664062 267.40625 280.0625 267.40625 280.550781 C 267.40625 281.042969 267.007812 281.441406 266.515625 281.441406 Z M 266.515625 281.441406 "/>
<path style=" stroke:none;fill-rule:nonzero;fill:rgb(38.823529%,59.607843%,100%);fill-opacity:1;" d="M 262.960938 276.996094 C 258.546875 276.992188 254.96875 273.410156 254.960938 268.992188 L 254.960938 267.214844 C 254.960938 266.722656 255.359375 266.324219 255.851562 266.324219 C 256.34375 266.324219 256.742188 266.722656 256.742188 267.214844 L 256.742188 268.992188 C 256.742188 272.429688 259.527344 275.210938 262.960938 275.210938 C 266.394531 275.210938 269.179688 272.429688 269.183594 268.992188 L 269.183594 267.214844 C 269.183594 266.722656 269.582031 266.324219 270.070312 266.324219 C 270.5625 266.324219 270.960938 266.722656 270.960938 267.214844 L 270.960938 268.992188 C 270.957031 273.410156 267.378906 276.992188 262.960938 276.996094 Z M 262.960938 276.996094 "/>
<path style=" stroke:none;fill-rule:nonzero;fill:rgb(38.823529%,59.607843%,100%);fill-opacity:1;" d="M 262.960938 281.441406 C 262.46875 281.441406 262.074219 281.042969 262.074219 280.550781 L 262.074219 276.105469 C 262.074219 275.613281 262.46875 275.21875 262.960938 275.21875 C 263.453125 275.21875 263.851562 275.613281 263.851562 276.105469 L 263.851562 280.550781 C 263.851562 281.042969 263.453125 281.441406 262.960938 281.441406 Z M 262.960938 281.441406 "/>
<path style=" stroke:none;fill-rule:nonzero;fill:rgb(38.823529%,59.607843%,100%);fill-opacity:1;" d="M 262.960938 273.4375 C 261.777344 273.4375 260.644531 272.953125 259.820312 272.101562 C 258.988281 271.257812 258.519531 270.121094 258.519531 268.9375 L 258.519531 262.769531 C 258.507812 260.324219 260.480469 258.332031 262.925781 258.324219 C 262.9375 258.324219 262.949219 258.324219 262.960938 258.324219 C 264.144531 258.3125 265.28125 258.777344 266.117188 259.613281 C 266.953125 260.449219 267.417969 261.585938 267.40625 262.769531 L 267.40625 268.9375 C 267.417969 271.40625 265.429688 273.421875 262.960938 273.4375 Z M 262.960938 273.4375 "/>
<path style=" stroke:none;fill-rule:nonzero;fill:rgb(90.196078%,90.196078%,90.196078%);fill-opacity:1;" d="M 35.742188 29.222656 C 34.457031 29.222656 33.417969 30.261719 33.417969 31.546875 L 33.417969 220.144531 C 33.417969 221.425781 34.457031 222.464844 35.742188 222.46875 L 288.96875 222.46875 C 290.25 222.464844 291.289062 221.425781 291.292969 220.144531 L 291.292969 31.546875 C 291.289062 30.261719 290.25 29.222656 288.96875 29.222656 Z M 35.742188 29.222656 "/>
<path style=" stroke:none;fill-rule:nonzero;fill:rgb(100%,100%,100%);fill-opacity:1;" d="M 40.851562 36.65625 L 40.851562 215.03125 L 283.859375 215.03125 L 283.859375 36.65625 Z M 40.851562 36.65625 "/>
<path style=" stroke:none;fill-rule:nonzero;fill:rgb(100%,72.54902%,72.54902%);fill-opacity:1;" d="M 208.644531 215.03125 L 209.082031 213.316406 L 205.285156 197.574219 L 204.914062 196.027344 L 204.636719 194.875 L 205.078125 194.722656 L 227.523438 187.242188 L 227.808594 191.398438 L 229.4375 215.03125 Z M 208.644531 215.03125 "/>
<path style=" stroke:none;fill-rule:nonzero;fill:rgb(100%,72.54902%,72.54902%);fill-opacity:1;" d="M 119.425781 197.574219 L 115.628906 213.316406 L 116.066406 215.03125 L 95.273438 215.03125 L 96.902344 191.398438 L 97.1875 187.242188 L 120.074219 194.875 Z M 119.425781 197.574219 "/>
<path style=" stroke:none;fill-rule:nonzero;fill:rgb(100%,72.54902%,72.54902%);fill-opacity:1;" d="M 181.109375 134.453125 L 144.871094 138.269531 C 148.679688 128.464844 147.972656 117.214844 144.871094 105.195312 L 170.9375 105.195312 C 172.652344 115.453125 176.089844 125.347656 181.109375 134.453125 Z M 181.109375 134.453125 "/>
<path style=" stroke:none;fill-rule:nonzero;fill:rgb(100%,72.54902%,72.54902%);fill-opacity:1;" d="M 177.929688 100.746094 C 177.929688 111.632812 169.109375 120.460938 158.222656 120.460938 C 147.335938 120.460938 138.515625 111.632812 138.515625 100.746094 C 138.515625 89.855469 147.335938 81.027344 158.222656 81.027344 C 169.109375 81.027344 177.929688 89.855469 177.929688 100.746094 Z M 177.929688 100.746094 "/>
<path style=" stroke:none;fill-rule:nonzero;fill:rgb(38.823529%,59.607843%,100%);fill-opacity:1;" d="M 214.808594 142.085938 C 210.648438 160.480469 207.222656 177.96875 205.078125 194.722656 C 205.019531 195.160156 204.964844 195.59375 204.914062 196.027344 C 204.84375 196.597656 204.773438 197.164062 204.710938 197.730469 C 204.007812 203.585938 203.480469 209.351562 203.121094 215.03125 L 123.800781 215.03125 C 123.886719 209.675781 123.707031 204.195312 123.308594 198.640625 C 121.941406 179.59375 117.929688 159.671875 112.449219 140.8125 L 112.488281 140.796875 L 147.164062 128.816406 L 147.414062 128.730469 C 157.410156 133.34375 167.363281 133.558594 177.238281 126.554688 C 177.269531 126.535156 177.296875 126.507812 177.328125 126.488281 L 209.648438 139.941406 L 209.664062 139.945312 Z M 214.808594 142.085938 "/>
<path style=" stroke:none;fill-rule:nonzero;fill:rgb(38.823529%,59.607843%,100%);fill-opacity:1;" d="M 238.328125 188.515625 L 198.910156 199.324219 L 208.449219 139.542969 L 214.53125 141.570312 C 219.0625 143.082031 222.523438 146.785156 223.722656 151.410156 Z M 238.328125 188.515625 "/>
<path style=" stroke:none;fill-rule:nonzero;fill:rgb(38.823529%,59.607843%,100%);fill-opacity:1;" d="M 86.382812 188.515625 L 125.796875 199.324219 L 116.261719 139.542969 L 110.179688 141.570312 C 105.648438 143.082031 102.1875 146.785156 100.988281 151.410156 Z M 86.382812 188.515625 "/>
<path style=" stroke:none;fill-rule:nonzero;fill:rgb(18.431373%,18.039216%,25.490196%);fill-opacity:1;" d="M 156.957031 67.390625 C 153.601562 67.546875 150.335938 68.507812 147.4375 70.195312 C 146.769531 70.585938 147.078125 71.984375 146.460938 72.441406 C 145.683594 73.015625 144 72.667969 143.3125 73.34375 C 138.816406 77.730469 136.535156 83.914062 137.101562 90.171875 L 138.195312 101.0625 L 140.777344 98.238281 C 145.410156 93.101562 151.839844 89.941406 158.734375 89.417969 C 159.027344 89.398438 159.320312 89.382812 159.613281 89.371094 L 157.628906 85.894531 L 161.082031 89.347656 C 162.65625 89.363281 164.226562 89.492188 165.785156 89.730469 L 163.144531 85.105469 L 168.214844 90.175781 C 172.417969 91.101562 175.933594 93.972656 177.6875 97.90625 L 178.25 99.15625 L 178.878906 88.765625 C 179.007812 82.960938 176.71875 77.363281 172.5625 73.3125 C 168.40625 69.261719 162.753906 67.117188 156.957031 67.390625 Z M 156.957031 67.390625 "/>
<path style=" stroke:none;fill-rule:nonzero;fill:rgb(100%,72.54902%,72.54902%);fill-opacity:1;" d="M 140.292969 100.277344 C 140.292969 98.210938 139.585938 96.535156 138.714844 96.535156 C 137.84375 96.535156 137.140625 98.210938 137.140625 100.277344 C 137.140625 102.347656 137.84375 104.023438 138.714844 104.023438 C 139.585938 104.023438 140.292969 102.347656 140.292969 100.277344 Z M 140.292969 100.277344 "/>
<path style=" stroke:none;fill-rule:nonzero;fill:rgb(100%,72.54902%,72.54902%);fill-opacity:1;" d="M 179.691406 99.097656 C 179.691406 97.027344 178.984375 95.351562 178.113281 95.351562 C 177.246094 95.351562 176.539062 97.027344 176.539062 99.097656 C 176.539062 101.164062 177.246094 102.839844 178.113281 102.839844 C 178.984375 102.839844 179.691406 101.164062 179.691406 99.097656 Z M 179.691406 99.097656 "/>
</g>
</svg>
