<?xml version="1.0" encoding="UTF-8"?>
<svg xmlns="http://www.w3.org/2000/svg" xmlns:xlink="http://www.w3.org/1999/xlink" width="181pt" height="168pt" viewBox="0 0 181 168" version="1.1">
<defs>
<filter id="alpha" filterUnits="objectBoundingBox" x="0%" y="0%" width="100%" height="100%">
  <feColorMatrix type="matrix" in="SourceGraphic" values="0 0 0 0 1 0 0 0 0 1 0 0 0 0 1 0 0 0 1 0"/>
</filter>
<mask id="mask0">
  <g filter="url(#alpha)">
<rect x="0" y="0" width="181" height="168" style="fill:rgb(0%,0%,0%);fill-opacity:0.2;stroke:none;"/>
  </g>
</mask>
<clipPath id="clip1">
  <rect x="0" y="0" width="181" height="168"/>
</clipPath>
<g id="surface5" clip-path="url(#clip1)">
<path style=" stroke:none;fill-rule:nonzero;fill:rgb(0%,0%,0%);fill-opacity:1;" d="M 96.523438 96.515625 C 98.828125 96.21875 100.640625 93.308594 100.640625 89.773438 L 100.136719 89.773438 C 100.136719 93.230469 98.339844 96.042969 96.132812 96.042969 L 96.132812 96.324219 Z M 96.523438 96.515625 "/>
</g>
<mask id="mask1">
  <g filter="url(#alpha)">
<rect x="0" y="0" width="181" height="168" style="fill:rgb(0%,0%,0%);fill-opacity:0.2;stroke:none;"/>
  </g>
</mask>
<clipPath id="clip2">
  <rect x="0" y="0" width="181" height="168"/>
</clipPath>
<g id="surface8" clip-path="url(#clip2)">
<path style=" stroke:none;fill-rule:nonzero;fill:rgb(0%,0%,0%);fill-opacity:1;" d="M 101.390625 96.542969 L 101.390625 96.042969 C 103.597656 96.042969 105.394531 93.230469 105.394531 89.773438 L 105.894531 89.773438 C 105.894531 93.507812 103.875 96.542969 101.390625 96.542969 Z M 101.390625 96.542969 "/>
</g>
<mask id="mask2">
  <g filter="url(#alpha)">
<rect x="0" y="0" width="181" height="168" style="fill:rgb(0%,0%,0%);fill-opacity:0.2;stroke:none;"/>
  </g>
</mask>
<clipPath id="clip3">
  <rect x="0" y="0" width="181" height="168"/>
</clipPath>
<g id="surface11" clip-path="url(#clip3)">
<path style=" stroke:none;fill-rule:nonzero;fill:rgb(0%,0%,0%);fill-opacity:1;" d="M 106.648438 96.542969 L 106.648438 96.042969 C 108.855469 96.042969 110.652344 93.230469 110.652344 89.773438 L 111.152344 89.773438 C 111.152344 93.507812 109.132812 96.542969 106.648438 96.542969 Z M 106.648438 96.542969 "/>
</g>
<mask id="mask3">
  <g filter="url(#alpha)">
<rect x="0" y="0" width="181" height="168" style="fill:rgb(0%,0%,0%);fill-opacity:0.2;stroke:none;"/>
  </g>
</mask>
<clipPath id="clip4">
  <rect x="0" y="0" width="181" height="168"/>
</clipPath>
<g id="surface14" clip-path="url(#clip4)">
<path style=" stroke:none;fill-rule:nonzero;fill:rgb(0%,0%,0%);fill-opacity:1;" d="M 121.058594 96.515625 C 123.359375 96.21875 125.171875 93.308594 125.171875 89.773438 L 124.671875 89.773438 C 124.671875 93.230469 122.875 96.042969 120.667969 96.042969 L 120.667969 96.324219 Z M 121.058594 96.515625 "/>
</g>
<mask id="mask4">
  <g filter="url(#alpha)">
<rect x="0" y="0" width="181" height="168" style="fill:rgb(0%,0%,0%);fill-opacity:0.2;stroke:none;"/>
  </g>
</mask>
<clipPath id="clip5">
  <rect x="0" y="0" width="181" height="168"/>
</clipPath>
<g id="surface17" clip-path="url(#clip5)">
<path style=" stroke:none;fill-rule:nonzero;fill:rgb(0%,0%,0%);fill-opacity:1;" d="M 125.925781 96.542969 L 125.925781 96.042969 C 128.132812 96.042969 129.929688 93.230469 129.929688 89.773438 L 130.429688 89.773438 C 130.429688 93.507812 128.410156 96.542969 125.925781 96.542969 Z M 125.925781 96.542969 "/>
</g>
<mask id="mask5">
  <g filter="url(#alpha)">
<rect x="0" y="0" width="181" height="168" style="fill:rgb(0%,0%,0%);fill-opacity:0.2;stroke:none;"/>
  </g>
</mask>
<clipPath id="clip6">
  <rect x="0" y="0" width="181" height="168"/>
</clipPath>
<g id="surface20" clip-path="url(#clip6)">
<path style=" stroke:none;fill-rule:nonzero;fill:rgb(0%,0%,0%);fill-opacity:1;" d="M 131.179688 96.542969 L 131.179688 96.042969 C 133.390625 96.042969 135.1875 93.230469 135.1875 89.773438 L 135.6875 89.773438 C 135.6875 93.507812 133.664062 96.542969 131.179688 96.542969 Z M 131.179688 96.542969 "/>
</g>
</defs>
<g id="surface1">
<path style=" stroke:none;fill-rule:nonzero;fill:rgb(24.705882%,23.921569%,33.72549%);fill-opacity:1;" d="M 179.246094 161.988281 C 179.246094 158.664062 139.121094 155.96875 89.625 155.96875 C 40.125 155.96875 0 158.664062 0 161.988281 C 0 165.3125 40.125 168.003906 89.625 168.003906 C 139.121094 168.003906 179.246094 165.3125 179.246094 161.988281 Z M 179.246094 161.988281 "/>
<path style=" stroke:none;fill-rule:nonzero;fill:rgb(24.705882%,23.921569%,33.72549%);fill-opacity:1;" d="M 88.121094 96.292969 L 91.125 96.292969 L 91.125 98.046875 L 88.121094 98.046875 Z M 88.121094 96.292969 "/>
<path style=" stroke:none;fill-rule:nonzero;fill:rgb(24.705882%,23.921569%,33.72549%);fill-opacity:1;" d="M 94.128906 96.292969 L 97.132812 96.292969 L 97.132812 98.046875 L 94.128906 98.046875 Z M 94.128906 96.292969 "/>
<path style=" stroke:none;fill-rule:nonzero;fill:rgb(24.705882%,23.921569%,33.72549%);fill-opacity:1;" d="M 100.136719 96.292969 L 103.140625 96.292969 L 103.140625 98.046875 L 100.136719 98.046875 Z M 100.136719 96.292969 "/>
<path style=" stroke:none;fill-rule:nonzero;fill:rgb(24.705882%,23.921569%,33.72549%);fill-opacity:1;" d="M 106.148438 96.292969 L 109.152344 96.292969 L 109.152344 98.046875 L 106.148438 98.046875 Z M 106.148438 96.292969 "/>
<path style=" stroke:none;fill-rule:nonzero;fill:rgb(24.705882%,23.921569%,33.72549%);fill-opacity:1;" d="M 112.15625 96.292969 L 115.160156 96.292969 L 115.160156 98.046875 L 112.15625 98.046875 Z M 112.15625 96.292969 "/>
<path style=" stroke:none;fill-rule:nonzero;fill:rgb(24.705882%,23.921569%,33.72549%);fill-opacity:1;" d="M 118.164062 96.292969 L 121.167969 96.292969 L 121.167969 98.046875 L 118.164062 98.046875 Z M 118.164062 96.292969 "/>
<path style=" stroke:none;fill-rule:nonzero;fill:rgb(24.705882%,23.921569%,33.72549%);fill-opacity:1;" d="M 124.171875 96.292969 L 127.175781 96.292969 L 127.175781 98.046875 L 124.171875 98.046875 Z M 124.171875 96.292969 "/>
<path style=" stroke:none;fill-rule:nonzero;fill:rgb(24.705882%,23.921569%,33.72549%);fill-opacity:1;" d="M 130.179688 96.292969 L 133.183594 96.292969 L 133.183594 98.046875 L 130.179688 98.046875 Z M 130.179688 96.292969 "/>
<path style=" stroke:none;fill-rule:nonzero;fill:rgb(24.705882%,23.921569%,33.72549%);fill-opacity:1;" d="M 136.1875 96.292969 L 139.191406 96.292969 L 139.191406 98.046875 L 136.1875 98.046875 Z M 136.1875 96.292969 "/>
<path style=" stroke:none;fill-rule:nonzero;fill:rgb(24.705882%,23.921569%,33.72549%);fill-opacity:1;" d="M 142.195312 96.292969 L 145.199219 96.292969 L 145.199219 98.046875 L 142.195312 98.046875 Z M 142.195312 96.292969 "/>
<path style=" stroke:none;fill-rule:nonzero;fill:rgb(24.705882%,23.921569%,33.72549%);fill-opacity:1;" d="M 148.203125 96.292969 L 151.207031 96.292969 L 151.207031 98.046875 L 148.203125 98.046875 Z M 148.203125 96.292969 "/>
<path style=" stroke:none;fill-rule:nonzero;fill:rgb(24.705882%,23.921569%,33.72549%);fill-opacity:1;" d="M 158.09375 97.421875 C 158.09375 117.363281 141.953125 133.527344 122.042969 133.527344 C 102.132812 133.527344 85.992188 117.363281 85.992188 97.421875 Z M 158.09375 97.421875 "/>
<path style=" stroke:none;fill-rule:nonzero;fill:rgb(24.705882%,23.921569%,33.72549%);fill-opacity:1;" d="M 156.351562 97.652344 L 133.417969 29.1875 C 142.484375 26.136719 152.386719 26.816406 160.949219 31.085938 C 169.511719 35.351562 176.027344 42.851562 179.0625 51.933594 C 179.304688 52.660156 179.527344 53.390625 179.722656 54.121094 C 184.621094 72.535156 174.390625 91.589844 156.351562 97.652344 Z M 156.351562 97.652344 "/>
<path style=" stroke:none;fill-rule:nonzero;fill:rgb(24.705882%,23.921569%,33.72549%);fill-opacity:1;" d="M 161.722656 98.550781 C 161.722656 101.042969 159.707031 103.0625 157.21875 103.0625 C 154.726562 103.0625 152.710938 101.042969 152.710938 98.550781 C 152.710938 96.054688 154.726562 94.035156 157.21875 94.035156 C 159.707031 94.035156 161.722656 96.054688 161.722656 98.550781 Z M 161.722656 98.550781 "/>
<path style=" stroke:none;fill-rule:nonzero;fill:rgb(38.823529%,59.607843%,100%);fill-opacity:1;" d="M 111.402344 106.824219 C 110.710938 106.824219 110.152344 107.386719 110.152344 108.078125 C 110.152344 108.769531 110.710938 109.332031 111.402344 109.332031 L 132.933594 109.332031 C 133.625 109.332031 134.183594 108.769531 134.183594 108.078125 C 134.183594 107.386719 133.625 106.824219 132.933594 106.824219 Z M 111.402344 106.824219 "/>
<path style=" stroke:none;fill-rule:nonzero;fill:rgb(24.705882%,23.921569%,33.72549%);fill-opacity:1;" d="M 151.960938 162.738281 L 147.476562 162.90625 L 131.328125 128.117188 L 135.414062 126.214844 Z M 151.960938 162.738281 "/>
<path style=" stroke:none;fill-rule:nonzero;fill:rgb(24.705882%,23.921569%,33.72549%);fill-opacity:1;" d="M 92.128906 162.738281 L 96.609375 162.90625 L 112.757812 128.117188 L 108.671875 126.214844 Z M 92.128906 162.738281 "/>
<path style=" stroke:none;fill-rule:nonzero;fill:rgb(24.705882%,23.921569%,33.72549%);fill-opacity:1;" d="M 103.644531 142.679688 L 140.695312 142.679688 L 140.695312 145.1875 L 103.644531 145.1875 Z M 103.644531 142.679688 "/>
<path style=" stroke:none;fill-rule:nonzero;fill:rgb(38.823529%,59.607843%,100%);fill-opacity:1;" d="M 134.335938 27.910156 C 133.980469 27.910156 133.644531 28.078125 133.429688 28.367188 C 133.21875 28.652344 133.15625 29.023438 133.257812 29.367188 L 134.207031 32.484375 C 134.390625 33.082031 135.019531 33.414062 135.613281 33.234375 C 136.210938 33.050781 136.542969 32.421875 136.363281 31.828125 L 135.414062 28.707031 C 135.269531 28.234375 134.832031 27.910156 134.335938 27.910156 Z M 134.335938 27.910156 "/>
<path style=" stroke:none;fill-rule:nonzero;fill:rgb(38.823529%,59.607843%,100%);fill-opacity:1;" d="M 84.492188 98.046875 C 83.871094 98.046875 83.363281 98.554688 83.363281 99.175781 C 83.363281 99.800781 83.871094 100.304688 84.492188 100.304688 L 87.746094 100.304688 C 88.367188 100.304688 88.871094 99.800781 88.871094 99.175781 C 88.871094 98.554688 88.367188 98.046875 87.746094 98.046875 Z M 84.492188 98.046875 "/>
<path style=" stroke:none;fill-rule:nonzero;fill:rgb(100%,39.607843%,51.764706%);fill-opacity:1;" d="M 111.402344 89.773438 L 97.886719 89.773438 C 97.800781 89.773438 97.71875 89.777344 97.636719 89.78125 C 95.800781 89.914062 94.382812 91.441406 94.378906 93.28125 C 94.378906 95.121094 95.796875 96.648438 97.628906 96.785156 C 97.710938 96.792969 97.796875 96.792969 97.886719 96.792969 L 111.402344 96.792969 C 113.339844 96.792969 114.910156 95.222656 114.910156 93.285156 C 114.910156 91.34375 113.339844 89.773438 111.402344 89.773438 Z M 111.402344 89.773438 "/>
<use xlink:href="#surface5" mask="url(#mask0)"/>
<use xlink:href="#surface8" mask="url(#mask1)"/>
<use xlink:href="#surface11" mask="url(#mask2)"/>
<path style=" stroke:none;fill-rule:nonzero;fill:rgb(100%,39.607843%,51.764706%);fill-opacity:1;" d="M 135.9375 89.773438 L 122.417969 89.773438 C 122.332031 89.773438 122.25 89.777344 122.167969 89.78125 C 120.335938 89.914062 118.917969 91.441406 118.914062 93.28125 C 118.914062 95.121094 120.328125 96.648438 122.160156 96.785156 C 122.246094 96.792969 122.332031 96.792969 122.417969 96.792969 L 135.9375 96.792969 C 137.875 96.792969 139.441406 95.222656 139.441406 93.285156 C 139.441406 91.34375 137.875 89.773438 135.9375 89.773438 Z M 135.9375 89.773438 "/>
<use xlink:href="#surface14" mask="url(#mask3)"/>
<use xlink:href="#surface17" mask="url(#mask4)"/>
<use xlink:href="#surface20" mask="url(#mask5)"/>
<path style=" stroke:none;fill-rule:nonzero;fill:rgb(90.196078%,90.196078%,90.196078%);fill-opacity:1;" d="M 110.414062 56.0625 C 108.644531 55.101562 106.453125 56.148438 105.570312 57.84375 C 104.496094 59.910156 105.386719 62.390625 106.636719 64.15625 C 107.9375 65.988281 109.707031 67.503906 110.574219 69.621094 C 112.289062 73.738281 110.785156 78.496094 107.015625 80.871094 C 106.203125 81.386719 106.953125 82.691406 107.773438 82.171875 C 111.4375 79.878906 113.347656 75.59375 112.613281 71.332031 C 112.429688 70.25 112.082031 69.207031 111.578125 68.234375 C 111.035156 67.238281 110.378906 66.308594 109.625 65.464844 C 108.320312 63.921875 106.679688 62.21875 106.597656 60.070312 C 106.582031 59.789062 106.601562 59.511719 106.65625 59.238281 C 106.695312 59.042969 106.753906 58.859375 106.828125 58.679688 C 107.011719 58.292969 107.28125 57.953125 107.617188 57.691406 C 107.929688 57.441406 108.300781 57.273438 108.691406 57.203125 C 109.023438 57.15625 109.359375 57.210938 109.65625 57.359375 C 110.507812 57.820312 111.265625 56.523438 110.414062 56.0625 Z M 110.414062 56.0625 "/>
<path style=" stroke:none;fill-rule:nonzero;fill:rgb(90.196078%,90.196078%,90.196078%);fill-opacity:1;" d="M 133.015625 65.164062 C 131.480469 64.667969 129.796875 65.058594 128.632812 66.183594 C 128.035156 66.796875 127.769531 67.664062 127.921875 68.511719 C 128.066406 69.421875 128.640625 70.230469 129.261719 70.882812 C 130.484375 72.160156 132.191406 72.988281 133.214844 74.453125 C 133.667969 75.078125 133.953125 75.808594 134.039062 76.578125 C 134.09375 77.265625 133.964844 77.957031 133.671875 78.582031 C 132.910156 80.136719 131.394531 81.195312 129.796875 81.875 C 129.425781 82.03125 129.339844 82.585938 129.527344 82.902344 C 129.746094 83.253906 130.195312 83.371094 130.554688 83.171875 C 133.496094 81.921875 136.214844 79.117188 135.40625 75.671875 C 134.976562 73.859375 133.671875 72.582031 132.261719 71.46875 C 131.5625 70.957031 130.902344 70.390625 130.289062 69.78125 C 129.800781 69.261719 129.292969 68.554688 129.382812 67.855469 C 129.417969 67.609375 129.539062 67.386719 129.722656 67.21875 C 129.941406 67.019531 130.195312 66.851562 130.464844 66.726562 C 131.140625 66.402344 131.914062 66.359375 132.617188 66.613281 C 133.015625 66.71875 133.425781 66.484375 133.542969 66.085938 C 133.644531 65.6875 133.410156 65.28125 133.015625 65.164062 Z M 133.015625 65.164062 "/>
<path style=" stroke:none;fill-rule:nonzero;fill:rgb(90.196078%,90.196078%,90.196078%);fill-opacity:1;" d="M 121.582031 43.761719 C 121.132812 43.378906 120.570312 43.160156 119.980469 43.144531 C 119.421875 43.15625 118.878906 43.328125 118.421875 43.648438 C 117.386719 44.402344 116.652344 45.5 116.355469 46.75 C 115.597656 49.660156 116.585938 52.800781 117.960938 55.363281 C 118.65625 56.660156 119.46875 57.890625 120.167969 59.183594 C 120.84375 60.421875 121.359375 61.738281 121.710938 63.105469 C 122.421875 65.90625 122.488281 68.835938 121.894531 71.664062 C 121.296875 74.480469 120.03125 77.269531 117.878906 79.210938 C 117.585938 79.503906 117.585938 79.980469 117.878906 80.273438 C 118.171875 80.570312 118.648438 80.570312 118.941406 80.273438 C 120.851562 78.550781 122.128906 76.183594 122.898438 73.753906 C 123.75 71.003906 123.996094 68.105469 123.628906 65.253906 C 123.460938 63.832031 123.136719 62.433594 122.664062 61.085938 C 122.152344 59.726562 121.511719 58.417969 120.753906 57.179688 C 119.34375 54.789062 117.839844 52.371094 117.636719 49.523438 C 117.535156 48.125 117.710938 46.664062 118.574219 45.539062 C 118.527344 45.601562 118.613281 45.492188 118.613281 45.492188 C 118.664062 45.429688 118.71875 45.367188 118.777344 45.308594 C 118.882812 45.195312 119 45.085938 119.121094 44.988281 C 119.09375 45.007812 119.027344 45.050781 119.148438 44.96875 C 119.210938 44.925781 119.269531 44.886719 119.332031 44.847656 C 119.386719 44.820312 119.4375 44.792969 119.492188 44.765625 C 119.523438 44.75 119.554688 44.734375 119.585938 44.71875 C 119.511719 44.75 119.515625 44.75 119.597656 44.71875 C 119.65625 44.703125 119.949219 44.640625 119.785156 44.660156 C 119.839844 44.652344 119.894531 44.648438 119.949219 44.648438 C 119.972656 44.648438 120.175781 44.660156 120.074219 44.648438 C 119.960938 44.636719 120.167969 44.667969 120.167969 44.667969 C 120.234375 44.683594 120.296875 44.703125 120.359375 44.730469 C 120.203125 44.667969 120.613281 44.898438 120.519531 44.824219 C 120.816406 45.105469 121.28125 45.105469 121.582031 44.824219 C 121.839844 44.566406 121.902344 44.011719 121.582031 43.761719 Z M 121.582031 43.761719 "/>
<path style=" stroke:none;fill-rule:nonzero;fill:rgb(100%,72.54902%,72.54902%);fill-opacity:1;" d="M 63.910156 156.816406 L 58.246094 158.320312 L 47.847656 110.171875 L 59.519531 109.132812 Z M 63.910156 156.816406 "/>
<path style=" stroke:none;fill-rule:nonzero;fill:rgb(100%,72.54902%,72.54902%);fill-opacity:1;" d="M 38.003906 157.558594 L 32.210938 158.433594 L 27.121094 109.433594 L 38.835938 109.675781 Z M 38.003906 157.558594 "/>
<path style=" stroke:none;fill-rule:nonzero;fill:rgb(100%,72.54902%,72.54902%);fill-opacity:1;" d="M 35.019531 87.835938 L 35.554688 97.835938 C 35.597656 98.578125 35.3125 99.304688 34.773438 99.820312 C 34.238281 100.339844 33.503906 100.597656 32.765625 100.527344 C 31.527344 100.417969 30.550781 99.433594 30.441406 98.195312 L 29.472656 87.140625 L 21.847656 61.214844 L 22.078125 44.546875 L 31.09375 45.011719 Z M 35.019531 87.835938 "/>
<path style=" stroke:none;fill-rule:nonzero;fill:rgb(18.431373%,18.039216%,25.490196%);fill-opacity:1;" d="M 39.875 112.371094 C 35.359375 110.800781 30.121094 110.492188 24.160156 111.445312 C 25.003906 101.414062 25.492188 92.097656 25.082031 84.59375 L 55.820312 84.59375 Z M 39.875 112.371094 "/>
<path style=" stroke:none;fill-rule:nonzero;fill:rgb(18.431373%,18.039216%,25.490196%);fill-opacity:1;" d="M 61.367188 112.140625 C 56.714844 114.605469 49.984375 115.785156 42.1875 116.308594 L 32.480469 85.289062 L 56.285156 84.824219 Z M 61.367188 112.140625 "/>
<path style=" stroke:none;fill-rule:nonzero;fill:rgb(18.431373%,18.039216%,25.490196%);fill-opacity:1;" d="M 73.351562 161.851562 L 56.605469 162.472656 C 54.460938 162.550781 54.347656 160.707031 54.75 158.59375 L 56.734375 152.925781 C 61.199219 157.304688 61.617188 157.550781 63.53125 151.320312 L 69.371094 155.9375 L 73.695312 156.679688 C 74.945312 156.894531 75.855469 157.980469 75.855469 159.25 C 75.851562 160.652344 74.746094 161.796875 73.351562 161.851562 Z M 73.351562 161.851562 "/>
<path style=" stroke:none;fill-rule:nonzero;fill:rgb(18.431373%,18.039216%,25.490196%);fill-opacity:1;" d="M 47.988281 161.851562 L 31.242188 162.472656 C 29.097656 162.550781 28.984375 160.707031 29.390625 158.59375 L 31.371094 152.925781 C 35.835938 157.304688 36.257812 157.550781 38.167969 151.320312 L 44.007812 155.9375 L 48.332031 156.679688 C 49.582031 156.894531 50.496094 157.980469 50.492188 159.25 C 50.488281 160.652344 49.382812 161.796875 47.988281 161.851562 Z M 47.988281 161.851562 "/>
<path style=" stroke:none;fill-rule:nonzero;fill:rgb(100%,72.54902%,72.54902%);fill-opacity:1;" d="M 60.90625 10.980469 C 60.90625 15.96875 56.871094 20.007812 51.890625 20.007812 C 46.914062 20.007812 42.878906 15.96875 42.878906 10.980469 C 42.878906 5.996094 46.914062 1.953125 51.890625 1.953125 C 56.871094 1.953125 60.90625 5.996094 60.90625 10.980469 Z M 60.90625 10.980469 "/>
<path style=" stroke:none;fill-rule:nonzero;fill:rgb(100%,72.54902%,72.54902%);fill-opacity:1;" d="M 47.269531 26.953125 L 36.640625 23.714844 L 43.804688 13.066406 L 51.890625 16.539062 Z M 47.269531 26.953125 "/>
<path style=" stroke:none;fill-rule:nonzero;fill:rgb(38.823529%,59.607843%,100%);fill-opacity:1;" d="M 57.207031 87.371094 C 46.277344 89.832031 34.148438 88.855469 23.695312 85.984375 C 26.199219 72.003906 24.992188 56.992188 22.539062 44.777344 C 20.625 35.21875 25.683594 27.199219 34.097656 23.25 C 35.90625 22.601562 37.785156 22.175781 39.699219 21.988281 C 45.601562 21.464844 50.796875 25.894531 51.410156 31.800781 Z M 57.207031 87.371094 "/>
<path style=" stroke:none;fill-rule:nonzero;fill:rgb(38.823529%,59.607843%,100%);fill-opacity:1;" d="M 28.78125 49.410156 L 21.152344 48.480469 L 23.464844 36.445312 L 28.78125 36.445312 Z M 28.78125 49.410156 "/>
<path style=" stroke:none;fill-rule:nonzero;fill:rgb(18.431373%,18.039216%,25.490196%);fill-opacity:1;" d="M 51.765625 12.410156 L 50.386719 11.796875 C 49.753906 11.515625 49.027344 11.527344 48.402344 11.828125 C 47.78125 12.128906 47.320312 12.691406 47.144531 13.363281 L 45.222656 16.84375 L 40.429688 16.085938 L 40.59375 8.710938 C 41.035156 5.898438 42.621094 3.390625 44.976562 1.789062 C 47.328125 0.183594 50.242188 -0.371094 53.015625 0.253906 L 53.148438 0.285156 C 55.488281 0.816406 58.527344 2.535156 60.109375 4.34375 L 63.066406 7.707031 C 63.351562 8.035156 63.433594 8.492188 63.277344 8.894531 C 63.121094 9.300781 62.753906 9.582031 62.324219 9.632812 L 58.28125 10.078125 Z M 51.765625 12.410156 "/>
<path style=" stroke:none;fill-rule:nonzero;fill:rgb(90.196078%,90.196078%,90.196078%);fill-opacity:1;" d="M 81.664062 73.980469 L 76.488281 78.527344 C 76.332031 78.664062 76.09375 78.648438 75.957031 78.492188 C 75.820312 78.335938 75.835938 78.097656 75.992188 77.960938 L 81.167969 73.414062 L 80.175781 72.28125 L 75 76.828125 C 74.847656 76.964844 74.609375 76.949219 74.472656 76.792969 C 74.335938 76.640625 74.351562 76.402344 74.507812 76.265625 L 79.683594 71.71875 L 78.691406 70.585938 L 73.515625 75.132812 C 73.359375 75.269531 73.121094 75.253906 72.984375 75.097656 C 72.847656 74.941406 72.863281 74.703125 73.019531 74.566406 L 78.195312 70.019531 L 76.957031 68.605469 L 69.644531 75.03125 C 68.296875 76.214844 67.960938 78.179688 68.839844 79.742188 L 46.757812 99.144531 L 48.738281 101.40625 L 70.804688 82.019531 C 72.195312 83.117188 74.167969 83.066406 75.5 81.898438 L 82.902344 75.394531 Z M 81.664062 73.980469 "/>
<path style=" stroke:none;fill-rule:nonzero;fill:rgb(100%,72.54902%,72.54902%);fill-opacity:1;" d="M 56.515625 87.835938 L 57.050781 97.835938 C 57.089844 98.578125 56.804688 99.304688 56.269531 99.820312 C 55.734375 100.339844 55 100.597656 54.257812 100.527344 C 53.023438 100.417969 52.042969 99.433594 51.9375 98.195312 L 50.96875 87.140625 L 43.339844 61.214844 L 43.574219 44.546875 L 52.585938 45.011719 Z M 56.515625 87.835938 "/>
<path style=" stroke:none;fill-rule:nonzero;fill:rgb(38.823529%,59.607843%,100%);fill-opacity:1;" d="M 53.277344 47.554688 C 50.535156 44.921875 46.917969 44.824219 42.878906 45.9375 L 42.878906 33.496094 C 42.878906 30.394531 45.390625 27.878906 48.484375 27.878906 C 49.867188 27.878906 51.191406 28.4375 52.15625 29.429688 C 53.125 30.417969 53.648438 31.757812 53.617188 33.144531 Z M 53.277344 47.554688 "/>
</g>
</svg>
