<?xml version="1.0" encoding="UTF-8"?>
<svg xmlns="http://www.w3.org/2000/svg" xmlns:xlink="http://www.w3.org/1999/xlink" width="521pt" height="355pt" viewBox="0 0 521 355" version="1.1">
<defs>
<filter id="alpha" filterUnits="objectBoundingBox" x="0%" y="0%" width="100%" height="100%">
  <feColorMatrix type="matrix" in="SourceGraphic" values="0 0 0 0 1 0 0 0 0 1 0 0 0 0 1 0 0 0 1 0"/>
</filter>
<mask id="mask0">
  <g filter="url(#alpha)">
<rect x="0" y="0" width="521" height="355" style="fill:rgb(0%,0%,0%);fill-opacity:0.101961;stroke:none;"/>
  </g>
</mask>
<clipPath id="clip1">
  <rect x="0" y="0" width="521" height="355"/>
</clipPath>
<g id="surface5" clip-path="url(#clip1)">
<path style=" stroke:none;fill-rule:nonzero;fill:rgb(0%,0%,0%);fill-opacity:1;" d="M 237.25 219.980469 C 237.25 219.980469 231.25 203.457031 231.75 200.453125 C 232.25 197.449219 230.75 191.4375 230.75 191.4375 L 228.75 150.882812 C 228.75 150.882812 237.25 114.832031 218.25 108.824219 C 218.25 108.824219 213.441406 110.921875 209.503906 117.683594 C 205.609375 119.421875 200.882812 123.820312 199.75 134.859375 C 197.75 154.386719 206.75 204.457031 211.25 212.96875 C 215.75 221.480469 218.75 227.488281 218.75 227.488281 L 223.453125 225.398438 C 223.648438 225.78125 223.75 225.988281 223.75 225.988281 Z M 237.25 219.980469 "/>
</g>
</defs>
<g id="surface1">
<path style=" stroke:none;fill-rule:nonzero;fill:rgb(24.705882%,23.921569%,33.72549%);fill-opacity:1;" d="M 0 0 L 437.5 0 L 437.5 235.671875 L 0 235.671875 Z M 0 0 "/>
<path style=" stroke:none;fill-rule:nonzero;fill:rgb(38.823529%,59.607843%,100%);fill-opacity:1;" d="M 79.089844 33.226562 L 82.949219 33.226562 L 82.949219 39.40625 L 79.089844 39.40625 Z M 79.089844 33.226562 "/>
<path style=" stroke:none;fill-rule:nonzero;fill:rgb(38.823529%,59.607843%,100%);fill-opacity:1;" d="M 92.207031 31.679688 L 96.066406 31.679688 L 96.066406 37.863281 L 92.207031 37.863281 Z M 92.207031 31.679688 "/>
<path style=" stroke:none;fill-rule:nonzero;fill:rgb(38.823529%,59.607843%,100%);fill-opacity:1;" d="M 99.152344 31.679688 L 103.007812 31.679688 L 103.007812 37.863281 L 99.152344 37.863281 Z M 99.152344 31.679688 "/>
<path style=" stroke:none;fill-rule:nonzero;fill:rgb(38.823529%,59.607843%,100%);fill-opacity:1;" d="M 99.152344 50.226562 L 103.007812 50.226562 L 103.007812 56.40625 L 99.152344 56.40625 Z M 99.152344 50.226562 "/>
<path style=" stroke:none;fill-rule:nonzero;fill:rgb(38.823529%,59.607843%,100%);fill-opacity:1;" d="M 106.867188 40.953125 L 110.726562 40.953125 L 110.726562 47.132812 L 106.867188 47.132812 Z M 106.867188 40.953125 "/>
<path style=" stroke:none;fill-rule:nonzero;fill:rgb(38.823529%,59.607843%,100%);fill-opacity:1;" d="M 106.867188 50.996094 L 110.726562 50.996094 L 110.726562 57.179688 L 106.867188 57.179688 Z M 106.867188 50.996094 "/>
<path style=" stroke:none;fill-rule:nonzero;fill:rgb(38.823529%,59.607843%,100%);fill-opacity:1;" d="M 99.152344 70.316406 L 103.007812 70.316406 L 103.007812 76.496094 L 99.152344 76.496094 Z M 99.152344 70.316406 "/>
<path style=" stroke:none;fill-rule:nonzero;fill:rgb(38.823529%,59.607843%,100%);fill-opacity:1;" d="M 106.867188 80.359375 L 110.726562 80.359375 L 110.726562 86.542969 L 106.867188 86.542969 Z M 106.867188 80.359375 "/>
<path style=" stroke:none;fill-rule:nonzero;fill:rgb(38.823529%,59.607843%,100%);fill-opacity:1;" d="M 99.152344 118.222656 L 103.007812 118.222656 L 103.007812 124.402344 L 99.152344 124.402344 Z M 99.152344 118.222656 "/>
<path style=" stroke:none;fill-rule:nonzero;fill:rgb(38.823529%,59.607843%,100%);fill-opacity:1;" d="M 92.207031 80.359375 L 96.066406 80.359375 L 96.066406 86.542969 L 92.207031 86.542969 Z M 92.207031 80.359375 "/>
<path style=" stroke:none;fill-rule:nonzero;fill:rgb(38.823529%,59.607843%,100%);fill-opacity:1;" d="M 79.089844 43.269531 L 82.949219 43.269531 L 82.949219 49.453125 L 79.089844 49.453125 Z M 79.089844 43.269531 "/>
<path style=" stroke:none;fill-rule:nonzero;fill:rgb(38.823529%,59.607843%,100%);fill-opacity:1;" d="M 79.089844 139.859375 L 82.949219 139.859375 L 82.949219 146.039062 L 79.089844 146.039062 Z M 79.089844 139.859375 "/>
<path style=" stroke:none;fill-rule:nonzero;fill:rgb(38.823529%,59.607843%,100%);fill-opacity:1;" d="M 79.089844 159.949219 L 82.949219 159.949219 L 82.949219 166.128906 L 79.089844 166.128906 Z M 79.089844 159.949219 "/>
<path style=" stroke:none;fill-rule:nonzero;fill:rgb(38.823529%,59.607843%,100%);fill-opacity:1;" d="M 79.089844 169.992188 L 82.949219 169.992188 L 82.949219 176.175781 L 79.089844 176.175781 Z M 79.089844 169.992188 "/>
<path style=" stroke:none;fill-rule:nonzero;fill:rgb(38.823529%,59.607843%,100%);fill-opacity:1;" d="M 77.546875 54.089844 L 82.949219 54.089844 L 82.949219 54.859375 L 77.546875 54.859375 Z M 77.546875 54.089844 "/>
<path style=" stroke:none;fill-rule:nonzero;fill:rgb(38.823529%,59.607843%,100%);fill-opacity:1;" d="M 98.378906 63.359375 L 103.78125 63.359375 L 103.78125 64.132812 L 98.378906 64.132812 Z M 98.378906 63.359375 "/>
<path style=" stroke:none;fill-rule:nonzero;fill:rgb(38.823529%,59.607843%,100%);fill-opacity:1;" d="M 77.546875 103.539062 L 82.949219 103.539062 L 82.949219 104.3125 L 77.546875 104.3125 Z M 77.546875 103.539062 "/>
<path style=" stroke:none;fill-rule:nonzero;fill:rgb(38.823529%,59.607843%,100%);fill-opacity:1;" d="M 77.546875 112.039062 L 82.949219 112.039062 L 82.949219 112.8125 L 77.546875 112.8125 Z M 77.546875 112.039062 "/>
<path style=" stroke:none;fill-rule:nonzero;fill:rgb(38.823529%,59.607843%,100%);fill-opacity:1;" d="M 98.378906 161.492188 L 103.78125 161.492188 L 103.78125 162.265625 L 98.378906 162.265625 Z M 98.378906 161.492188 "/>
<path style=" stroke:none;fill-rule:nonzero;fill:rgb(38.823529%,59.607843%,100%);fill-opacity:1;" d="M 92.207031 180.039062 L 97.609375 180.039062 L 97.609375 180.808594 L 92.207031 180.808594 Z M 92.207031 180.039062 "/>
<path style=" stroke:none;fill-rule:nonzero;fill:rgb(38.823529%,59.607843%,100%);fill-opacity:1;" d="M 79.089844 61.042969 L 79.089844 62.589844 L 80.632812 62.589844 L 80.632812 65.679688 L 79.089844 65.679688 L 79.089844 67.222656 L 82.949219 67.222656 L 82.949219 61.042969 Z M 79.089844 61.042969 "/>
<path style=" stroke:none;fill-rule:nonzero;fill:rgb(38.823529%,59.607843%,100%);fill-opacity:1;" d="M 92.207031 50.226562 L 92.207031 51.769531 L 93.75 51.769531 L 93.75 54.859375 L 92.207031 54.859375 L 92.207031 56.40625 L 96.066406 56.40625 L 96.066406 50.226562 Z M 92.207031 50.226562 "/>
<path style=" stroke:none;fill-rule:nonzero;fill:rgb(38.823529%,59.607843%,100%);fill-opacity:1;" d="M 106.867188 60.269531 L 106.867188 61.816406 L 108.410156 61.816406 L 108.410156 64.90625 L 106.867188 64.90625 L 106.867188 66.453125 L 110.726562 66.453125 L 110.726562 60.269531 Z M 106.867188 60.269531 "/>
<path style=" stroke:none;fill-rule:nonzero;fill:rgb(38.823529%,59.607843%,100%);fill-opacity:1;" d="M 106.867188 90.40625 L 106.867188 91.949219 L 108.410156 91.949219 L 108.410156 95.042969 L 106.867188 95.042969 L 106.867188 96.585938 L 110.726562 96.585938 L 110.726562 90.40625 Z M 106.867188 90.40625 "/>
<path style=" stroke:none;fill-rule:nonzero;fill:rgb(38.823529%,59.607843%,100%);fill-opacity:1;" d="M 106.867188 100.449219 L 106.867188 101.996094 L 108.410156 101.996094 L 108.410156 105.085938 L 106.867188 105.085938 L 106.867188 106.632812 L 110.726562 106.632812 L 110.726562 100.449219 Z M 106.867188 100.449219 "/>
<path style=" stroke:none;fill-rule:nonzero;fill:rgb(38.823529%,59.607843%,100%);fill-opacity:1;" d="M 106.867188 69.542969 L 106.867188 71.085938 L 108.410156 71.085938 L 108.410156 74.179688 L 106.867188 74.179688 L 106.867188 75.722656 L 110.726562 75.722656 L 110.726562 69.542969 Z M 106.867188 69.542969 "/>
<path style=" stroke:none;fill-rule:nonzero;fill:rgb(38.823529%,59.607843%,100%);fill-opacity:1;" d="M 99.152344 40.953125 L 99.152344 42.5 L 100.695312 42.5 L 100.695312 45.589844 L 99.152344 45.589844 L 99.152344 47.132812 L 103.007812 47.132812 L 103.007812 40.953125 Z M 99.152344 40.953125 "/>
<path style=" stroke:none;fill-rule:nonzero;fill:rgb(38.823529%,59.607843%,100%);fill-opacity:1;" d="M 99.152344 90.40625 L 103.007812 90.40625 L 103.007812 96.585938 L 99.152344 96.585938 Z M 99.152344 90.40625 "/>
<path style=" stroke:none;fill-rule:nonzero;fill:rgb(38.823529%,59.607843%,100%);fill-opacity:1;" d="M 99.152344 108.949219 L 103.007812 108.949219 L 103.007812 115.132812 L 99.152344 115.132812 Z M 99.152344 108.949219 "/>
<path style=" stroke:none;fill-rule:nonzero;fill:rgb(38.823529%,59.607843%,100%);fill-opacity:1;" d="M 99.152344 99.675781 L 99.152344 101.222656 L 100.695312 101.222656 L 100.695312 104.3125 L 99.152344 104.3125 L 99.152344 105.859375 L 103.007812 105.859375 L 103.007812 99.675781 Z M 99.152344 99.675781 "/>
<path style=" stroke:none;fill-rule:nonzero;fill:rgb(38.823529%,59.607843%,100%);fill-opacity:1;" d="M 92.207031 60.269531 L 92.207031 61.816406 L 93.75 61.816406 L 93.75 64.90625 L 92.207031 64.90625 L 92.207031 66.453125 L 96.066406 66.453125 L 96.066406 60.269531 Z M 92.207031 60.269531 "/>
<path style=" stroke:none;fill-rule:nonzero;fill:rgb(38.823529%,59.607843%,100%);fill-opacity:1;" d="M 92.207031 70.316406 L 92.207031 71.859375 L 93.75 71.859375 L 93.75 74.949219 L 92.207031 74.949219 L 92.207031 76.496094 L 96.066406 76.496094 L 96.066406 70.316406 Z M 92.207031 70.316406 "/>
<path style=" stroke:none;fill-rule:nonzero;fill:rgb(38.823529%,59.607843%,100%);fill-opacity:1;" d="M 92.207031 100.449219 L 96.066406 100.449219 L 96.066406 106.632812 L 92.207031 106.632812 Z M 92.207031 100.449219 "/>
<path style=" stroke:none;fill-rule:nonzero;fill:rgb(38.823529%,59.607843%,100%);fill-opacity:1;" d="M 92.207031 90.40625 L 92.207031 91.949219 L 93.75 91.949219 L 93.75 95.042969 L 92.207031 95.042969 L 92.207031 96.585938 L 96.066406 96.585938 L 96.066406 90.40625 Z M 92.207031 90.40625 "/>
<path style=" stroke:none;fill-rule:nonzero;fill:rgb(38.823529%,59.607843%,100%);fill-opacity:1;" d="M 92.207031 120.539062 L 96.066406 120.539062 L 96.066406 126.722656 L 92.207031 126.722656 Z M 92.207031 120.539062 "/>
<path style=" stroke:none;fill-rule:nonzero;fill:rgb(38.823529%,59.607843%,100%);fill-opacity:1;" d="M 92.207031 110.496094 L 92.207031 112.039062 L 93.75 112.039062 L 93.75 115.132812 L 92.207031 115.132812 L 92.207031 116.675781 L 96.066406 116.675781 L 96.066406 110.496094 Z M 92.207031 110.496094 "/>
<path style=" stroke:none;fill-rule:nonzero;fill:rgb(38.823529%,59.607843%,100%);fill-opacity:1;" d="M 92.207031 140.628906 L 96.066406 140.628906 L 96.066406 146.8125 L 92.207031 146.8125 Z M 92.207031 140.628906 "/>
<path style=" stroke:none;fill-rule:nonzero;fill:rgb(38.823529%,59.607843%,100%);fill-opacity:1;" d="M 99.152344 139.085938 L 103.007812 139.085938 L 103.007812 145.265625 L 99.152344 145.265625 Z M 99.152344 139.085938 "/>
<path style=" stroke:none;fill-rule:nonzero;fill:rgb(38.823529%,59.607843%,100%);fill-opacity:1;" d="M 92.207031 130.585938 L 92.207031 132.128906 L 93.75 132.128906 L 93.75 135.222656 L 92.207031 135.222656 L 92.207031 136.765625 L 96.066406 136.765625 L 96.066406 130.585938 Z M 92.207031 130.585938 "/>
<path style=" stroke:none;fill-rule:nonzero;fill:rgb(38.823529%,59.607843%,100%);fill-opacity:1;" d="M 106.867188 130.585938 L 106.867188 132.128906 L 108.410156 132.128906 L 108.410156 135.222656 L 106.867188 135.222656 L 106.867188 136.765625 L 110.726562 136.765625 L 110.726562 130.585938 Z M 106.867188 130.585938 "/>
<path style=" stroke:none;fill-rule:nonzero;fill:rgb(38.823529%,59.607843%,100%);fill-opacity:1;" d="M 146.21875 40.953125 L 150.078125 40.953125 L 150.078125 47.132812 L 146.21875 47.132812 Z M 146.21875 40.953125 "/>
<path style=" stroke:none;fill-rule:nonzero;fill:rgb(38.823529%,59.607843%,100%);fill-opacity:1;" d="M 146.21875 50.996094 L 150.078125 50.996094 L 150.078125 57.179688 L 146.21875 57.179688 Z M 146.21875 50.996094 "/>
<path style=" stroke:none;fill-rule:nonzero;fill:rgb(38.823529%,59.607843%,100%);fill-opacity:1;" d="M 146.21875 80.359375 L 150.078125 80.359375 L 150.078125 86.542969 L 146.21875 86.542969 Z M 146.21875 80.359375 "/>
<path style=" stroke:none;fill-rule:nonzero;fill:rgb(38.823529%,59.607843%,100%);fill-opacity:1;" d="M 146.21875 60.269531 L 146.21875 61.816406 L 147.761719 61.816406 L 147.761719 64.90625 L 146.21875 64.90625 L 146.21875 66.453125 L 150.078125 66.453125 L 150.078125 60.269531 Z M 146.21875 60.269531 "/>
<path style=" stroke:none;fill-rule:nonzero;fill:rgb(38.823529%,59.607843%,100%);fill-opacity:1;" d="M 146.21875 90.40625 L 146.21875 91.949219 L 147.761719 91.949219 L 147.761719 95.042969 L 146.21875 95.042969 L 146.21875 96.585938 L 150.078125 96.585938 L 150.078125 90.40625 Z M 146.21875 90.40625 "/>
<path style=" stroke:none;fill-rule:nonzero;fill:rgb(38.823529%,59.607843%,100%);fill-opacity:1;" d="M 146.21875 100.449219 L 146.21875 101.996094 L 147.761719 101.996094 L 147.761719 105.085938 L 146.21875 105.085938 L 146.21875 106.632812 L 150.078125 106.632812 L 150.078125 100.449219 Z M 146.21875 100.449219 "/>
<path style=" stroke:none;fill-rule:nonzero;fill:rgb(38.823529%,59.607843%,100%);fill-opacity:1;" d="M 146.21875 69.542969 L 146.21875 71.085938 L 147.761719 71.085938 L 147.761719 74.179688 L 146.21875 74.179688 L 146.21875 75.722656 L 150.078125 75.722656 L 150.078125 69.542969 Z M 146.21875 69.542969 "/>
<path style=" stroke:none;fill-rule:nonzero;fill:rgb(38.823529%,59.607843%,100%);fill-opacity:1;" d="M 146.21875 130.585938 L 146.21875 132.128906 L 147.761719 132.128906 L 147.761719 135.222656 L 146.21875 135.222656 L 146.21875 136.765625 L 150.078125 136.765625 L 150.078125 130.585938 Z M 146.21875 130.585938 "/>
<path style=" stroke:none;fill-rule:nonzero;fill:rgb(38.823529%,59.607843%,100%);fill-opacity:1;" d="M 92.207031 160.71875 L 96.066406 160.71875 L 96.066406 166.902344 L 92.207031 166.902344 Z M 92.207031 160.71875 "/>
<path style=" stroke:none;fill-rule:nonzero;fill:rgb(38.823529%,59.607843%,100%);fill-opacity:1;" d="M 99.152344 149.128906 L 103.007812 149.128906 L 103.007812 155.3125 L 99.152344 155.3125 Z M 99.152344 149.128906 "/>
<path style=" stroke:none;fill-rule:nonzero;fill:rgb(38.823529%,59.607843%,100%);fill-opacity:1;" d="M 92.207031 186.992188 L 96.066406 186.992188 L 96.066406 193.171875 L 92.207031 193.171875 Z M 92.207031 186.992188 "/>
<path style=" stroke:none;fill-rule:nonzero;fill:rgb(38.823529%,59.607843%,100%);fill-opacity:1;" d="M 99.152344 168.445312 L 103.007812 168.445312 L 103.007812 174.628906 L 99.152344 174.628906 Z M 99.152344 168.445312 "/>
<path style=" stroke:none;fill-rule:nonzero;fill:rgb(38.823529%,59.607843%,100%);fill-opacity:1;" d="M 92.207031 150.675781 L 92.207031 152.21875 L 93.75 152.21875 L 93.75 155.3125 L 92.207031 155.3125 L 92.207031 156.855469 L 96.066406 156.855469 L 96.066406 150.675781 Z M 92.207031 150.675781 "/>
<path style=" stroke:none;fill-rule:nonzero;fill:rgb(38.823529%,59.607843%,100%);fill-opacity:1;" d="M 92.207031 197.808594 L 92.207031 199.355469 L 93.75 199.355469 L 93.75 202.445312 L 92.207031 202.445312 L 92.207031 203.992188 L 96.066406 203.992188 L 96.066406 197.808594 Z M 92.207031 197.808594 "/>
<path style=" stroke:none;fill-rule:nonzero;fill:rgb(38.823529%,59.607843%,100%);fill-opacity:1;" d="M 134.644531 31.679688 L 138.503906 31.679688 L 138.503906 37.863281 L 134.644531 37.863281 Z M 134.644531 31.679688 "/>
<path style=" stroke:none;fill-rule:nonzero;fill:rgb(38.823529%,59.607843%,100%);fill-opacity:1;" d="M 134.644531 80.359375 L 138.503906 80.359375 L 138.503906 86.542969 L 134.644531 86.542969 Z M 134.644531 80.359375 "/>
<path style=" stroke:none;fill-rule:nonzero;fill:rgb(38.823529%,59.607843%,100%);fill-opacity:1;" d="M 134.644531 180.039062 L 140.046875 180.039062 L 140.046875 180.808594 L 134.644531 180.808594 Z M 134.644531 180.039062 "/>
<path style=" stroke:none;fill-rule:nonzero;fill:rgb(38.823529%,59.607843%,100%);fill-opacity:1;" d="M 134.644531 50.226562 L 134.644531 51.769531 L 136.1875 51.769531 L 136.1875 54.859375 L 134.644531 54.859375 L 134.644531 56.40625 L 138.503906 56.40625 L 138.503906 50.226562 Z M 134.644531 50.226562 "/>
<path style=" stroke:none;fill-rule:nonzero;fill:rgb(38.823529%,59.607843%,100%);fill-opacity:1;" d="M 134.644531 60.269531 L 134.644531 61.816406 L 136.1875 61.816406 L 136.1875 64.90625 L 134.644531 64.90625 L 134.644531 66.453125 L 138.503906 66.453125 L 138.503906 60.269531 Z M 134.644531 60.269531 "/>
<path style=" stroke:none;fill-rule:nonzero;fill:rgb(38.823529%,59.607843%,100%);fill-opacity:1;" d="M 134.644531 70.316406 L 134.644531 71.859375 L 136.1875 71.859375 L 136.1875 74.949219 L 134.644531 74.949219 L 134.644531 76.496094 L 138.503906 76.496094 L 138.503906 70.316406 Z M 134.644531 70.316406 "/>
<path style=" stroke:none;fill-rule:nonzero;fill:rgb(38.823529%,59.607843%,100%);fill-opacity:1;" d="M 134.644531 100.449219 L 138.503906 100.449219 L 138.503906 106.632812 L 134.644531 106.632812 Z M 134.644531 100.449219 "/>
<path style=" stroke:none;fill-rule:nonzero;fill:rgb(38.823529%,59.607843%,100%);fill-opacity:1;" d="M 134.644531 90.40625 L 134.644531 91.949219 L 136.1875 91.949219 L 136.1875 95.042969 L 134.644531 95.042969 L 134.644531 96.585938 L 138.503906 96.585938 L 138.503906 90.40625 Z M 134.644531 90.40625 "/>
<path style=" stroke:none;fill-rule:nonzero;fill:rgb(38.823529%,59.607843%,100%);fill-opacity:1;" d="M 134.644531 120.539062 L 138.503906 120.539062 L 138.503906 126.722656 L 134.644531 126.722656 Z M 134.644531 120.539062 "/>
<path style=" stroke:none;fill-rule:nonzero;fill:rgb(38.823529%,59.607843%,100%);fill-opacity:1;" d="M 134.644531 110.496094 L 134.644531 112.039062 L 136.1875 112.039062 L 136.1875 115.132812 L 134.644531 115.132812 L 134.644531 116.675781 L 138.503906 116.675781 L 138.503906 110.496094 Z M 134.644531 110.496094 "/>
<path style=" stroke:none;fill-rule:nonzero;fill:rgb(38.823529%,59.607843%,100%);fill-opacity:1;" d="M 134.644531 140.628906 L 138.503906 140.628906 L 138.503906 146.8125 L 134.644531 146.8125 Z M 134.644531 140.628906 "/>
<path style=" stroke:none;fill-rule:nonzero;fill:rgb(38.823529%,59.607843%,100%);fill-opacity:1;" d="M 134.644531 130.585938 L 134.644531 132.128906 L 136.1875 132.128906 L 136.1875 135.222656 L 134.644531 135.222656 L 134.644531 136.765625 L 138.503906 136.765625 L 138.503906 130.585938 Z M 134.644531 130.585938 "/>
<path style=" stroke:none;fill-rule:nonzero;fill:rgb(38.823529%,59.607843%,100%);fill-opacity:1;" d="M 134.644531 160.71875 L 138.503906 160.71875 L 138.503906 166.902344 L 134.644531 166.902344 Z M 134.644531 160.71875 "/>
<path style=" stroke:none;fill-rule:nonzero;fill:rgb(38.823529%,59.607843%,100%);fill-opacity:1;" d="M 134.644531 186.992188 L 138.503906 186.992188 L 138.503906 193.171875 L 134.644531 193.171875 Z M 134.644531 186.992188 "/>
<path style=" stroke:none;fill-rule:nonzero;fill:rgb(38.823529%,59.607843%,100%);fill-opacity:1;" d="M 134.644531 150.675781 L 134.644531 152.21875 L 136.1875 152.21875 L 136.1875 155.3125 L 134.644531 155.3125 L 134.644531 156.855469 L 138.503906 156.855469 L 138.503906 150.675781 Z M 134.644531 150.675781 "/>
<path style=" stroke:none;fill-rule:nonzero;fill:rgb(38.823529%,59.607843%,100%);fill-opacity:1;" d="M 134.644531 197.808594 L 134.644531 199.355469 L 136.1875 199.355469 L 136.1875 202.445312 L 134.644531 202.445312 L 134.644531 203.992188 L 138.503906 203.992188 L 138.503906 197.808594 Z M 134.644531 197.808594 "/>
<path style=" stroke:none;fill-rule:nonzero;fill:rgb(38.823529%,59.607843%,100%);fill-opacity:1;" d="M 153.164062 31.679688 L 157.023438 31.679688 L 157.023438 37.863281 L 153.164062 37.863281 Z M 153.164062 31.679688 "/>
<path style=" stroke:none;fill-rule:nonzero;fill:rgb(38.823529%,59.607843%,100%);fill-opacity:1;" d="M 153.164062 80.359375 L 157.023438 80.359375 L 157.023438 86.542969 L 153.164062 86.542969 Z M 153.164062 80.359375 "/>
<path style=" stroke:none;fill-rule:nonzero;fill:rgb(38.823529%,59.607843%,100%);fill-opacity:1;" d="M 153.164062 180.039062 L 158.566406 180.039062 L 158.566406 180.808594 L 153.164062 180.808594 Z M 153.164062 180.039062 "/>
<path style=" stroke:none;fill-rule:nonzero;fill:rgb(38.823529%,59.607843%,100%);fill-opacity:1;" d="M 153.164062 50.226562 L 153.164062 51.769531 L 154.707031 51.769531 L 154.707031 54.859375 L 153.164062 54.859375 L 153.164062 56.40625 L 157.023438 56.40625 L 157.023438 50.226562 Z M 153.164062 50.226562 "/>
<path style=" stroke:none;fill-rule:nonzero;fill:rgb(38.823529%,59.607843%,100%);fill-opacity:1;" d="M 153.164062 60.269531 L 153.164062 61.816406 L 154.707031 61.816406 L 154.707031 64.90625 L 153.164062 64.90625 L 153.164062 66.453125 L 157.023438 66.453125 L 157.023438 60.269531 Z M 153.164062 60.269531 "/>
<path style=" stroke:none;fill-rule:nonzero;fill:rgb(38.823529%,59.607843%,100%);fill-opacity:1;" d="M 153.164062 70.316406 L 153.164062 71.859375 L 154.707031 71.859375 L 154.707031 74.949219 L 153.164062 74.949219 L 153.164062 76.496094 L 157.023438 76.496094 L 157.023438 70.316406 Z M 153.164062 70.316406 "/>
<path style=" stroke:none;fill-rule:nonzero;fill:rgb(38.823529%,59.607843%,100%);fill-opacity:1;" d="M 153.164062 100.449219 L 157.023438 100.449219 L 157.023438 106.632812 L 153.164062 106.632812 Z M 153.164062 100.449219 "/>
<path style=" stroke:none;fill-rule:nonzero;fill:rgb(38.823529%,59.607843%,100%);fill-opacity:1;" d="M 153.164062 90.40625 L 153.164062 91.949219 L 154.707031 91.949219 L 154.707031 95.042969 L 153.164062 95.042969 L 153.164062 96.585938 L 157.023438 96.585938 L 157.023438 90.40625 Z M 153.164062 90.40625 "/>
<path style=" stroke:none;fill-rule:nonzero;fill:rgb(38.823529%,59.607843%,100%);fill-opacity:1;" d="M 153.164062 120.539062 L 157.023438 120.539062 L 157.023438 126.722656 L 153.164062 126.722656 Z M 153.164062 120.539062 "/>
<path style=" stroke:none;fill-rule:nonzero;fill:rgb(38.823529%,59.607843%,100%);fill-opacity:1;" d="M 153.164062 110.496094 L 153.164062 112.039062 L 154.707031 112.039062 L 154.707031 115.132812 L 153.164062 115.132812 L 153.164062 116.675781 L 157.023438 116.675781 L 157.023438 110.496094 Z M 153.164062 110.496094 "/>
<path style=" stroke:none;fill-rule:nonzero;fill:rgb(38.823529%,59.607843%,100%);fill-opacity:1;" d="M 153.164062 140.628906 L 157.023438 140.628906 L 157.023438 146.8125 L 153.164062 146.8125 Z M 153.164062 140.628906 "/>
<path style=" stroke:none;fill-rule:nonzero;fill:rgb(38.823529%,59.607843%,100%);fill-opacity:1;" d="M 153.164062 130.585938 L 153.164062 132.128906 L 154.707031 132.128906 L 154.707031 135.222656 L 153.164062 135.222656 L 153.164062 136.765625 L 157.023438 136.765625 L 157.023438 130.585938 Z M 153.164062 130.585938 "/>
<path style=" stroke:none;fill-rule:nonzero;fill:rgb(38.823529%,59.607843%,100%);fill-opacity:1;" d="M 153.164062 160.71875 L 157.023438 160.71875 L 157.023438 166.902344 L 153.164062 166.902344 Z M 153.164062 160.71875 "/>
<path style=" stroke:none;fill-rule:nonzero;fill:rgb(38.823529%,59.607843%,100%);fill-opacity:1;" d="M 153.164062 186.992188 L 157.023438 186.992188 L 157.023438 193.171875 L 153.164062 193.171875 Z M 153.164062 186.992188 "/>
<path style=" stroke:none;fill-rule:nonzero;fill:rgb(38.823529%,59.607843%,100%);fill-opacity:1;" d="M 153.164062 150.675781 L 153.164062 152.21875 L 154.707031 152.21875 L 154.707031 155.3125 L 153.164062 155.3125 L 153.164062 156.855469 L 157.023438 156.855469 L 157.023438 150.675781 Z M 153.164062 150.675781 "/>
<path style=" stroke:none;fill-rule:nonzero;fill:rgb(38.823529%,59.607843%,100%);fill-opacity:1;" d="M 153.164062 197.808594 L 153.164062 199.355469 L 154.707031 199.355469 L 154.707031 202.445312 L 153.164062 202.445312 L 153.164062 203.992188 L 157.023438 203.992188 L 157.023438 197.808594 Z M 153.164062 197.808594 "/>
<path style=" stroke:none;fill-rule:nonzero;fill:rgb(38.823529%,59.607843%,100%);fill-opacity:1;" d="M 99.152344 186.992188 L 99.152344 188.535156 L 100.695312 188.535156 L 100.695312 191.628906 L 99.152344 191.628906 L 99.152344 193.171875 L 103.007812 193.171875 L 103.007812 186.992188 Z M 99.152344 186.992188 "/>
<path style=" stroke:none;fill-rule:nonzero;fill:rgb(38.823529%,59.607843%,100%);fill-opacity:1;" d="M 99.152344 197.035156 L 99.152344 198.582031 L 100.695312 198.582031 L 100.695312 201.671875 L 99.152344 201.671875 L 99.152344 203.21875 L 103.007812 203.21875 L 103.007812 197.035156 Z M 99.152344 197.035156 "/>
<path style=" stroke:none;fill-rule:nonzero;fill:rgb(38.823529%,59.607843%,100%);fill-opacity:1;" d="M 79.089844 80.359375 L 79.089844 81.90625 L 80.632812 81.90625 L 80.632812 84.996094 L 79.089844 84.996094 L 79.089844 86.542969 L 82.949219 86.542969 L 82.949219 80.359375 Z M 79.089844 80.359375 "/>
<path style=" stroke:none;fill-rule:nonzero;fill:rgb(38.823529%,59.607843%,100%);fill-opacity:1;" d="M 79.089844 119.769531 L 79.089844 121.3125 L 80.632812 121.3125 L 80.632812 124.402344 L 79.089844 124.402344 L 79.089844 125.949219 L 82.949219 125.949219 L 82.949219 119.769531 Z M 79.089844 119.769531 "/>
<path style=" stroke:none;fill-rule:nonzero;fill:rgb(38.823529%,59.607843%,100%);fill-opacity:1;" d="M 79.089844 129.8125 L 79.089844 131.359375 L 80.632812 131.359375 L 80.632812 134.449219 L 79.089844 134.449219 L 79.089844 135.992188 L 82.949219 135.992188 L 82.949219 129.8125 Z M 79.089844 129.8125 "/>
<path style=" stroke:none;fill-rule:nonzero;fill:rgb(38.823529%,59.607843%,100%);fill-opacity:1;" d="M 79.089844 149.902344 L 79.089844 151.449219 L 80.632812 151.449219 L 80.632812 154.539062 L 79.089844 154.539062 L 79.089844 156.082031 L 82.949219 156.082031 L 82.949219 149.902344 Z M 79.089844 149.902344 "/>
<path style=" stroke:none;fill-rule:nonzero;fill:rgb(38.823529%,59.607843%,100%);fill-opacity:1;" d="M 79.089844 178.492188 L 79.089844 180.039062 L 80.632812 180.039062 L 80.632812 183.128906 L 79.089844 183.128906 L 79.089844 184.671875 L 82.949219 184.671875 L 82.949219 178.492188 Z M 79.089844 178.492188 "/>
<path style=" stroke:none;fill-rule:nonzero;fill:rgb(38.823529%,59.607843%,100%);fill-opacity:1;" d="M 79.089844 186.992188 L 79.089844 188.535156 L 80.632812 188.535156 L 80.632812 191.628906 L 79.089844 191.628906 L 79.089844 193.171875 L 82.949219 193.171875 L 82.949219 186.992188 Z M 79.089844 186.992188 "/>
<path style=" stroke:none;fill-rule:nonzero;fill:rgb(38.823529%,59.607843%,100%);fill-opacity:1;" d="M 119.214844 33.226562 L 123.070312 33.226562 L 123.070312 39.40625 L 119.214844 39.40625 Z M 119.214844 33.226562 "/>
<path style=" stroke:none;fill-rule:nonzero;fill:rgb(38.823529%,59.607843%,100%);fill-opacity:1;" d="M 119.214844 43.269531 L 123.070312 43.269531 L 123.070312 49.453125 L 119.214844 49.453125 Z M 119.214844 43.269531 "/>
<path style=" stroke:none;fill-rule:nonzero;fill:rgb(38.823529%,59.607843%,100%);fill-opacity:1;" d="M 117.667969 54.089844 L 123.070312 54.089844 L 123.070312 54.859375 L 117.667969 54.859375 Z M 117.667969 54.089844 "/>
<path style=" stroke:none;fill-rule:nonzero;fill:rgb(38.823529%,59.607843%,100%);fill-opacity:1;" d="M 117.667969 103.539062 L 123.070312 103.539062 L 123.070312 104.3125 L 117.667969 104.3125 Z M 117.667969 103.539062 "/>
<path style=" stroke:none;fill-rule:nonzero;fill:rgb(38.823529%,59.607843%,100%);fill-opacity:1;" d="M 117.667969 112.039062 L 123.070312 112.039062 L 123.070312 112.8125 L 117.667969 112.8125 Z M 117.667969 112.039062 "/>
<path style=" stroke:none;fill-rule:nonzero;fill:rgb(38.823529%,59.607843%,100%);fill-opacity:1;" d="M 119.214844 61.042969 L 119.214844 62.589844 L 120.757812 62.589844 L 120.757812 65.679688 L 119.214844 65.679688 L 119.214844 67.222656 L 123.070312 67.222656 L 123.070312 61.042969 Z M 119.214844 61.042969 "/>
<path style=" stroke:none;fill-rule:nonzero;fill:rgb(38.823529%,59.607843%,100%);fill-opacity:1;" d="M 119.214844 80.359375 L 119.214844 81.90625 L 120.757812 81.90625 L 120.757812 84.996094 L 119.214844 84.996094 L 119.214844 86.542969 L 123.070312 86.542969 L 123.070312 80.359375 Z M 119.214844 80.359375 "/>
<path style=" stroke:none;fill-rule:nonzero;fill:rgb(38.823529%,59.607843%,100%);fill-opacity:1;" d="M 119.214844 119.769531 L 119.214844 121.3125 L 120.757812 121.3125 L 120.757812 124.402344 L 119.214844 124.402344 L 119.214844 125.949219 L 123.070312 125.949219 L 123.070312 119.769531 Z M 119.214844 119.769531 "/>
<path style=" stroke:none;fill-rule:nonzero;fill:rgb(38.823529%,59.607843%,100%);fill-opacity:1;" d="M 163.195312 100.449219 L 167.050781 100.449219 L 167.050781 106.632812 L 163.195312 106.632812 Z M 163.195312 100.449219 "/>
<path style=" stroke:none;fill-rule:nonzero;fill:rgb(38.823529%,59.607843%,100%);fill-opacity:1;" d="M 163.195312 110.496094 L 167.050781 110.496094 L 167.050781 116.675781 L 163.195312 116.675781 Z M 163.195312 110.496094 "/>
<path style=" stroke:none;fill-rule:nonzero;fill:rgb(38.823529%,59.607843%,100%);fill-opacity:1;" d="M 161.652344 121.3125 L 167.050781 121.3125 L 167.050781 122.085938 L 161.652344 122.085938 Z M 161.652344 121.3125 "/>
<path style=" stroke:none;fill-rule:nonzero;fill:rgb(38.823529%,59.607843%,100%);fill-opacity:1;" d="M 161.652344 170.765625 L 167.050781 170.765625 L 167.050781 171.539062 L 161.652344 171.539062 Z M 161.652344 170.765625 "/>
<path style=" stroke:none;fill-rule:nonzero;fill:rgb(38.823529%,59.607843%,100%);fill-opacity:1;" d="M 161.652344 179.265625 L 167.050781 179.265625 L 167.050781 180.039062 L 161.652344 180.039062 Z M 161.652344 179.265625 "/>
<path style=" stroke:none;fill-rule:nonzero;fill:rgb(38.823529%,59.607843%,100%);fill-opacity:1;" d="M 163.195312 128.265625 L 163.195312 129.8125 L 164.738281 129.8125 L 164.738281 132.902344 L 163.195312 132.902344 L 163.195312 134.449219 L 167.050781 134.449219 L 167.050781 128.265625 Z M 163.195312 128.265625 "/>
<path style=" stroke:none;fill-rule:nonzero;fill:rgb(38.823529%,59.607843%,100%);fill-opacity:1;" d="M 163.195312 147.585938 L 163.195312 149.128906 L 164.738281 149.128906 L 164.738281 152.21875 L 163.195312 152.21875 L 163.195312 153.765625 L 167.050781 153.765625 L 167.050781 147.585938 Z M 163.195312 147.585938 "/>
<path style=" stroke:none;fill-rule:nonzero;fill:rgb(38.823529%,59.607843%,100%);fill-opacity:1;" d="M 163.195312 186.992188 L 163.195312 188.535156 L 164.738281 188.535156 L 164.738281 191.628906 L 163.195312 191.628906 L 163.195312 193.171875 L 167.050781 193.171875 L 167.050781 186.992188 Z M 163.195312 186.992188 "/>
<path style=" stroke:none;fill-rule:nonzero;fill:rgb(38.823529%,59.607843%,100%);fill-opacity:1;" d="M 175.539062 33.226562 L 179.398438 33.226562 L 179.398438 39.40625 L 175.539062 39.40625 Z M 175.539062 33.226562 "/>
<path style=" stroke:none;fill-rule:nonzero;fill:rgb(38.823529%,59.607843%,100%);fill-opacity:1;" d="M 188.65625 31.679688 L 192.515625 31.679688 L 192.515625 37.863281 L 188.65625 37.863281 Z M 188.65625 31.679688 "/>
<path style=" stroke:none;fill-rule:nonzero;fill:rgb(38.823529%,59.607843%,100%);fill-opacity:1;" d="M 195.601562 31.679688 L 199.460938 31.679688 L 199.460938 37.863281 L 195.601562 37.863281 Z M 195.601562 31.679688 "/>
<path style=" stroke:none;fill-rule:nonzero;fill:rgb(38.823529%,59.607843%,100%);fill-opacity:1;" d="M 195.601562 50.226562 L 199.460938 50.226562 L 199.460938 56.40625 L 195.601562 56.40625 Z M 195.601562 50.226562 "/>
<path style=" stroke:none;fill-rule:nonzero;fill:rgb(38.823529%,59.607843%,100%);fill-opacity:1;" d="M 203.316406 40.953125 L 207.175781 40.953125 L 207.175781 47.132812 L 203.316406 47.132812 Z M 203.316406 40.953125 "/>
<path style=" stroke:none;fill-rule:nonzero;fill:rgb(38.823529%,59.607843%,100%);fill-opacity:1;" d="M 203.316406 50.996094 L 207.175781 50.996094 L 207.175781 57.179688 L 203.316406 57.179688 Z M 203.316406 50.996094 "/>
<path style=" stroke:none;fill-rule:nonzero;fill:rgb(38.823529%,59.607843%,100%);fill-opacity:1;" d="M 195.601562 70.316406 L 199.460938 70.316406 L 199.460938 76.496094 L 195.601562 76.496094 Z M 195.601562 70.316406 "/>
<path style=" stroke:none;fill-rule:nonzero;fill:rgb(38.823529%,59.607843%,100%);fill-opacity:1;" d="M 203.316406 80.359375 L 207.175781 80.359375 L 207.175781 86.542969 L 203.316406 86.542969 Z M 203.316406 80.359375 "/>
<path style=" stroke:none;fill-rule:nonzero;fill:rgb(38.823529%,59.607843%,100%);fill-opacity:1;" d="M 195.601562 118.222656 L 199.460938 118.222656 L 199.460938 124.402344 L 195.601562 124.402344 Z M 195.601562 118.222656 "/>
<path style=" stroke:none;fill-rule:nonzero;fill:rgb(38.823529%,59.607843%,100%);fill-opacity:1;" d="M 188.65625 80.359375 L 192.515625 80.359375 L 192.515625 86.542969 L 188.65625 86.542969 Z M 188.65625 80.359375 "/>
<path style=" stroke:none;fill-rule:nonzero;fill:rgb(38.823529%,59.607843%,100%);fill-opacity:1;" d="M 175.539062 43.269531 L 179.398438 43.269531 L 179.398438 49.453125 L 175.539062 49.453125 Z M 175.539062 43.269531 "/>
<path style=" stroke:none;fill-rule:nonzero;fill:rgb(38.823529%,59.607843%,100%);fill-opacity:1;" d="M 175.539062 139.859375 L 179.398438 139.859375 L 179.398438 146.039062 L 175.539062 146.039062 Z M 175.539062 139.859375 "/>
<path style=" stroke:none;fill-rule:nonzero;fill:rgb(38.823529%,59.607843%,100%);fill-opacity:1;" d="M 175.539062 159.949219 L 179.398438 159.949219 L 179.398438 166.128906 L 175.539062 166.128906 Z M 175.539062 159.949219 "/>
<path style=" stroke:none;fill-rule:nonzero;fill:rgb(38.823529%,59.607843%,100%);fill-opacity:1;" d="M 175.539062 169.992188 L 179.398438 169.992188 L 179.398438 176.175781 L 175.539062 176.175781 Z M 175.539062 169.992188 "/>
<path style=" stroke:none;fill-rule:nonzero;fill:rgb(38.823529%,59.607843%,100%);fill-opacity:1;" d="M 173.996094 54.089844 L 179.398438 54.089844 L 179.398438 54.859375 L 173.996094 54.859375 Z M 173.996094 54.089844 "/>
<path style=" stroke:none;fill-rule:nonzero;fill:rgb(38.823529%,59.607843%,100%);fill-opacity:1;" d="M 194.832031 63.359375 L 200.230469 63.359375 L 200.230469 64.132812 L 194.832031 64.132812 Z M 194.832031 63.359375 "/>
<path style=" stroke:none;fill-rule:nonzero;fill:rgb(38.823529%,59.607843%,100%);fill-opacity:1;" d="M 173.996094 103.539062 L 179.398438 103.539062 L 179.398438 104.3125 L 173.996094 104.3125 Z M 173.996094 103.539062 "/>
<path style=" stroke:none;fill-rule:nonzero;fill:rgb(38.823529%,59.607843%,100%);fill-opacity:1;" d="M 173.996094 112.039062 L 179.398438 112.039062 L 179.398438 112.8125 L 173.996094 112.8125 Z M 173.996094 112.039062 "/>
<path style=" stroke:none;fill-rule:nonzero;fill:rgb(38.823529%,59.607843%,100%);fill-opacity:1;" d="M 194.832031 161.492188 L 200.230469 161.492188 L 200.230469 162.265625 L 194.832031 162.265625 Z M 194.832031 161.492188 "/>
<path style=" stroke:none;fill-rule:nonzero;fill:rgb(38.823529%,59.607843%,100%);fill-opacity:1;" d="M 188.65625 180.039062 L 194.058594 180.039062 L 194.058594 180.808594 L 188.65625 180.808594 Z M 188.65625 180.039062 "/>
<path style=" stroke:none;fill-rule:nonzero;fill:rgb(38.823529%,59.607843%,100%);fill-opacity:1;" d="M 175.539062 61.042969 L 175.539062 62.589844 L 177.082031 62.589844 L 177.082031 65.679688 L 175.539062 65.679688 L 175.539062 67.222656 L 179.398438 67.222656 L 179.398438 61.042969 Z M 175.539062 61.042969 "/>
<path style=" stroke:none;fill-rule:nonzero;fill:rgb(38.823529%,59.607843%,100%);fill-opacity:1;" d="M 188.65625 50.226562 L 188.65625 51.769531 L 190.199219 51.769531 L 190.199219 54.859375 L 188.65625 54.859375 L 188.65625 56.40625 L 192.515625 56.40625 L 192.515625 50.226562 Z M 188.65625 50.226562 "/>
<path style=" stroke:none;fill-rule:nonzero;fill:rgb(38.823529%,59.607843%,100%);fill-opacity:1;" d="M 203.316406 60.269531 L 203.316406 61.816406 L 204.859375 61.816406 L 204.859375 64.90625 L 203.316406 64.90625 L 203.316406 66.453125 L 207.175781 66.453125 L 207.175781 60.269531 Z M 203.316406 60.269531 "/>
<path style=" stroke:none;fill-rule:nonzero;fill:rgb(38.823529%,59.607843%,100%);fill-opacity:1;" d="M 203.316406 90.40625 L 203.316406 91.949219 L 204.859375 91.949219 L 204.859375 95.042969 L 203.316406 95.042969 L 203.316406 96.585938 L 207.175781 96.585938 L 207.175781 90.40625 Z M 203.316406 90.40625 "/>
<path style=" stroke:none;fill-rule:nonzero;fill:rgb(38.823529%,59.607843%,100%);fill-opacity:1;" d="M 203.316406 100.449219 L 203.316406 101.996094 L 204.859375 101.996094 L 204.859375 105.085938 L 203.316406 105.085938 L 203.316406 106.632812 L 207.175781 106.632812 L 207.175781 100.449219 Z M 203.316406 100.449219 "/>
<path style=" stroke:none;fill-rule:nonzero;fill:rgb(38.823529%,59.607843%,100%);fill-opacity:1;" d="M 203.316406 69.542969 L 203.316406 71.085938 L 204.859375 71.085938 L 204.859375 74.179688 L 203.316406 74.179688 L 203.316406 75.722656 L 207.175781 75.722656 L 207.175781 69.542969 Z M 203.316406 69.542969 "/>
<path style=" stroke:none;fill-rule:nonzero;fill:rgb(38.823529%,59.607843%,100%);fill-opacity:1;" d="M 195.601562 40.953125 L 195.601562 42.5 L 197.144531 42.5 L 197.144531 45.589844 L 195.601562 45.589844 L 195.601562 47.132812 L 199.460938 47.132812 L 199.460938 40.953125 Z M 195.601562 40.953125 "/>
<path style=" stroke:none;fill-rule:nonzero;fill:rgb(38.823529%,59.607843%,100%);fill-opacity:1;" d="M 195.601562 90.40625 L 199.460938 90.40625 L 199.460938 96.585938 L 195.601562 96.585938 Z M 195.601562 90.40625 "/>
<path style=" stroke:none;fill-rule:nonzero;fill:rgb(38.823529%,59.607843%,100%);fill-opacity:1;" d="M 195.601562 108.949219 L 199.460938 108.949219 L 199.460938 115.132812 L 195.601562 115.132812 Z M 195.601562 108.949219 "/>
<path style=" stroke:none;fill-rule:nonzero;fill:rgb(38.823529%,59.607843%,100%);fill-opacity:1;" d="M 195.601562 99.675781 L 195.601562 101.222656 L 197.144531 101.222656 L 197.144531 104.3125 L 195.601562 104.3125 L 195.601562 105.859375 L 199.460938 105.859375 L 199.460938 99.675781 Z M 195.601562 99.675781 "/>
<path style=" stroke:none;fill-rule:nonzero;fill:rgb(38.823529%,59.607843%,100%);fill-opacity:1;" d="M 188.65625 60.269531 L 188.65625 61.816406 L 190.199219 61.816406 L 190.199219 64.90625 L 188.65625 64.90625 L 188.65625 66.453125 L 192.515625 66.453125 L 192.515625 60.269531 Z M 188.65625 60.269531 "/>
<path style=" stroke:none;fill-rule:nonzero;fill:rgb(38.823529%,59.607843%,100%);fill-opacity:1;" d="M 188.65625 70.316406 L 188.65625 71.859375 L 190.199219 71.859375 L 190.199219 74.949219 L 188.65625 74.949219 L 188.65625 76.496094 L 192.515625 76.496094 L 192.515625 70.316406 Z M 188.65625 70.316406 "/>
<path style=" stroke:none;fill-rule:nonzero;fill:rgb(38.823529%,59.607843%,100%);fill-opacity:1;" d="M 188.65625 100.449219 L 192.515625 100.449219 L 192.515625 106.632812 L 188.65625 106.632812 Z M 188.65625 100.449219 "/>
<path style=" stroke:none;fill-rule:nonzero;fill:rgb(38.823529%,59.607843%,100%);fill-opacity:1;" d="M 188.65625 90.40625 L 188.65625 91.949219 L 190.199219 91.949219 L 190.199219 95.042969 L 188.65625 95.042969 L 188.65625 96.585938 L 192.515625 96.585938 L 192.515625 90.40625 Z M 188.65625 90.40625 "/>
<path style=" stroke:none;fill-rule:nonzero;fill:rgb(38.823529%,59.607843%,100%);fill-opacity:1;" d="M 188.65625 120.539062 L 192.515625 120.539062 L 192.515625 126.722656 L 188.65625 126.722656 Z M 188.65625 120.539062 "/>
<path style=" stroke:none;fill-rule:nonzero;fill:rgb(38.823529%,59.607843%,100%);fill-opacity:1;" d="M 188.65625 110.496094 L 188.65625 112.039062 L 190.199219 112.039062 L 190.199219 115.132812 L 188.65625 115.132812 L 188.65625 116.675781 L 192.515625 116.675781 L 192.515625 110.496094 Z M 188.65625 110.496094 "/>
<path style=" stroke:none;fill-rule:nonzero;fill:rgb(38.823529%,59.607843%,100%);fill-opacity:1;" d="M 188.65625 140.628906 L 192.515625 140.628906 L 192.515625 146.8125 L 188.65625 146.8125 Z M 188.65625 140.628906 "/>
<path style=" stroke:none;fill-rule:nonzero;fill:rgb(38.823529%,59.607843%,100%);fill-opacity:1;" d="M 195.601562 139.085938 L 199.460938 139.085938 L 199.460938 145.265625 L 195.601562 145.265625 Z M 195.601562 139.085938 "/>
<path style=" stroke:none;fill-rule:nonzero;fill:rgb(38.823529%,59.607843%,100%);fill-opacity:1;" d="M 188.65625 130.585938 L 188.65625 132.128906 L 190.199219 132.128906 L 190.199219 135.222656 L 188.65625 135.222656 L 188.65625 136.765625 L 192.515625 136.765625 L 192.515625 130.585938 Z M 188.65625 130.585938 "/>
<path style=" stroke:none;fill-rule:nonzero;fill:rgb(38.823529%,59.607843%,100%);fill-opacity:1;" d="M 203.316406 130.585938 L 203.316406 132.128906 L 204.859375 132.128906 L 204.859375 135.222656 L 203.316406 135.222656 L 203.316406 136.765625 L 207.175781 136.765625 L 207.175781 130.585938 Z M 203.316406 130.585938 "/>
<path style=" stroke:none;fill-rule:nonzero;fill:rgb(38.823529%,59.607843%,100%);fill-opacity:1;" d="M 242.667969 40.953125 L 246.527344 40.953125 L 246.527344 47.132812 L 242.667969 47.132812 Z M 242.667969 40.953125 "/>
<path style=" stroke:none;fill-rule:nonzero;fill:rgb(38.823529%,59.607843%,100%);fill-opacity:1;" d="M 242.667969 50.996094 L 246.527344 50.996094 L 246.527344 57.179688 L 242.667969 57.179688 Z M 242.667969 50.996094 "/>
<path style=" stroke:none;fill-rule:nonzero;fill:rgb(38.823529%,59.607843%,100%);fill-opacity:1;" d="M 242.667969 80.359375 L 246.527344 80.359375 L 246.527344 86.542969 L 242.667969 86.542969 Z M 242.667969 80.359375 "/>
<path style=" stroke:none;fill-rule:nonzero;fill:rgb(38.823529%,59.607843%,100%);fill-opacity:1;" d="M 242.671875 60.269531 L 242.671875 61.816406 L 244.214844 61.816406 L 244.214844 64.90625 L 242.671875 64.90625 L 242.671875 66.453125 L 246.527344 66.453125 L 246.527344 60.269531 Z M 242.671875 60.269531 "/>
<path style=" stroke:none;fill-rule:nonzero;fill:rgb(38.823529%,59.607843%,100%);fill-opacity:1;" d="M 242.671875 90.40625 L 242.671875 91.949219 L 244.214844 91.949219 L 244.214844 95.042969 L 242.671875 95.042969 L 242.671875 96.585938 L 246.527344 96.585938 L 246.527344 90.40625 Z M 242.671875 90.40625 "/>
<path style=" stroke:none;fill-rule:nonzero;fill:rgb(38.823529%,59.607843%,100%);fill-opacity:1;" d="M 242.671875 100.449219 L 242.671875 101.996094 L 244.214844 101.996094 L 244.214844 105.085938 L 242.671875 105.085938 L 242.671875 106.632812 L 246.527344 106.632812 L 246.527344 100.449219 Z M 242.671875 100.449219 "/>
<path style=" stroke:none;fill-rule:nonzero;fill:rgb(38.823529%,59.607843%,100%);fill-opacity:1;" d="M 242.671875 69.542969 L 242.671875 71.085938 L 244.214844 71.085938 L 244.214844 74.179688 L 242.671875 74.179688 L 242.671875 75.722656 L 246.527344 75.722656 L 246.527344 69.542969 Z M 242.671875 69.542969 "/>
<path style=" stroke:none;fill-rule:nonzero;fill:rgb(38.823529%,59.607843%,100%);fill-opacity:1;" d="M 242.671875 130.585938 L 242.671875 132.128906 L 244.214844 132.128906 L 244.214844 135.222656 L 242.671875 135.222656 L 242.671875 136.765625 L 246.527344 136.765625 L 246.527344 130.585938 Z M 242.671875 130.585938 "/>
<path style=" stroke:none;fill-rule:nonzero;fill:rgb(38.823529%,59.607843%,100%);fill-opacity:1;" d="M 188.65625 160.71875 L 192.515625 160.71875 L 192.515625 166.902344 L 188.65625 166.902344 Z M 188.65625 160.71875 "/>
<path style=" stroke:none;fill-rule:nonzero;fill:rgb(38.823529%,59.607843%,100%);fill-opacity:1;" d="M 195.601562 149.128906 L 199.460938 149.128906 L 199.460938 155.3125 L 195.601562 155.3125 Z M 195.601562 149.128906 "/>
<path style=" stroke:none;fill-rule:nonzero;fill:rgb(38.823529%,59.607843%,100%);fill-opacity:1;" d="M 188.65625 186.992188 L 192.515625 186.992188 L 192.515625 193.171875 L 188.65625 193.171875 Z M 188.65625 186.992188 "/>
<path style=" stroke:none;fill-rule:nonzero;fill:rgb(38.823529%,59.607843%,100%);fill-opacity:1;" d="M 195.601562 168.445312 L 199.460938 168.445312 L 199.460938 174.628906 L 195.601562 174.628906 Z M 195.601562 168.445312 "/>
<path style=" stroke:none;fill-rule:nonzero;fill:rgb(38.823529%,59.607843%,100%);fill-opacity:1;" d="M 188.65625 150.675781 L 188.65625 152.21875 L 190.199219 152.21875 L 190.199219 155.3125 L 188.65625 155.3125 L 188.65625 156.855469 L 192.515625 156.855469 L 192.515625 150.675781 Z M 188.65625 150.675781 "/>
<path style=" stroke:none;fill-rule:nonzero;fill:rgb(38.823529%,59.607843%,100%);fill-opacity:1;" d="M 188.65625 197.808594 L 188.65625 199.355469 L 190.199219 199.355469 L 190.199219 202.445312 L 188.65625 202.445312 L 188.65625 203.992188 L 192.515625 203.992188 L 192.515625 197.808594 Z M 188.65625 197.808594 "/>
<path style=" stroke:none;fill-rule:nonzero;fill:rgb(38.823529%,59.607843%,100%);fill-opacity:1;" d="M 231.09375 31.679688 L 234.953125 31.679688 L 234.953125 37.863281 L 231.09375 37.863281 Z M 231.09375 31.679688 "/>
<path style=" stroke:none;fill-rule:nonzero;fill:rgb(38.823529%,59.607843%,100%);fill-opacity:1;" d="M 231.09375 80.359375 L 234.953125 80.359375 L 234.953125 86.542969 L 231.09375 86.542969 Z M 231.09375 80.359375 "/>
<path style=" stroke:none;fill-rule:nonzero;fill:rgb(38.823529%,59.607843%,100%);fill-opacity:1;" d="M 231.09375 180.039062 L 236.496094 180.039062 L 236.496094 180.808594 L 231.09375 180.808594 Z M 231.09375 180.039062 "/>
<path style=" stroke:none;fill-rule:nonzero;fill:rgb(38.823529%,59.607843%,100%);fill-opacity:1;" d="M 231.09375 50.226562 L 231.09375 51.769531 L 232.640625 51.769531 L 232.640625 54.859375 L 231.09375 54.859375 L 231.09375 56.40625 L 234.953125 56.40625 L 234.953125 50.226562 Z M 231.09375 50.226562 "/>
<path style=" stroke:none;fill-rule:nonzero;fill:rgb(38.823529%,59.607843%,100%);fill-opacity:1;" d="M 231.09375 60.269531 L 231.09375 61.816406 L 232.640625 61.816406 L 232.640625 64.90625 L 231.09375 64.90625 L 231.09375 66.453125 L 234.953125 66.453125 L 234.953125 60.269531 Z M 231.09375 60.269531 "/>
<path style=" stroke:none;fill-rule:nonzero;fill:rgb(38.823529%,59.607843%,100%);fill-opacity:1;" d="M 231.09375 70.316406 L 231.09375 71.859375 L 232.640625 71.859375 L 232.640625 74.949219 L 231.09375 74.949219 L 231.09375 76.496094 L 234.953125 76.496094 L 234.953125 70.316406 Z M 231.09375 70.316406 "/>
<path style=" stroke:none;fill-rule:nonzero;fill:rgb(38.823529%,59.607843%,100%);fill-opacity:1;" d="M 231.09375 100.449219 L 234.953125 100.449219 L 234.953125 106.632812 L 231.09375 106.632812 Z M 231.09375 100.449219 "/>
<path style=" stroke:none;fill-rule:nonzero;fill:rgb(38.823529%,59.607843%,100%);fill-opacity:1;" d="M 231.09375 90.40625 L 231.09375 91.949219 L 232.640625 91.949219 L 232.640625 95.042969 L 231.09375 95.042969 L 231.09375 96.585938 L 234.953125 96.585938 L 234.953125 90.40625 Z M 231.09375 90.40625 "/>
<path style=" stroke:none;fill-rule:nonzero;fill:rgb(38.823529%,59.607843%,100%);fill-opacity:1;" d="M 231.09375 120.539062 L 234.953125 120.539062 L 234.953125 126.722656 L 231.09375 126.722656 Z M 231.09375 120.539062 "/>
<path style=" stroke:none;fill-rule:nonzero;fill:rgb(38.823529%,59.607843%,100%);fill-opacity:1;" d="M 231.09375 110.496094 L 231.09375 112.039062 L 232.640625 112.039062 L 232.640625 115.132812 L 231.09375 115.132812 L 231.09375 116.675781 L 234.953125 116.675781 L 234.953125 110.496094 Z M 231.09375 110.496094 "/>
<path style=" stroke:none;fill-rule:nonzero;fill:rgb(38.823529%,59.607843%,100%);fill-opacity:1;" d="M 231.09375 140.628906 L 234.953125 140.628906 L 234.953125 146.8125 L 231.09375 146.8125 Z M 231.09375 140.628906 "/>
<path style=" stroke:none;fill-rule:nonzero;fill:rgb(38.823529%,59.607843%,100%);fill-opacity:1;" d="M 231.09375 130.585938 L 231.09375 132.128906 L 232.640625 132.128906 L 232.640625 135.222656 L 231.09375 135.222656 L 231.09375 136.765625 L 234.953125 136.765625 L 234.953125 130.585938 Z M 231.09375 130.585938 "/>
<path style=" stroke:none;fill-rule:nonzero;fill:rgb(38.823529%,59.607843%,100%);fill-opacity:1;" d="M 231.09375 160.71875 L 234.953125 160.71875 L 234.953125 166.902344 L 231.09375 166.902344 Z M 231.09375 160.71875 "/>
<path style=" stroke:none;fill-rule:nonzero;fill:rgb(38.823529%,59.607843%,100%);fill-opacity:1;" d="M 231.09375 186.992188 L 234.953125 186.992188 L 234.953125 193.171875 L 231.09375 193.171875 Z M 231.09375 186.992188 "/>
<path style=" stroke:none;fill-rule:nonzero;fill:rgb(38.823529%,59.607843%,100%);fill-opacity:1;" d="M 231.09375 150.675781 L 231.09375 152.21875 L 232.640625 152.21875 L 232.640625 155.3125 L 231.09375 155.3125 L 231.09375 156.855469 L 234.953125 156.855469 L 234.953125 150.675781 Z M 231.09375 150.675781 "/>
<path style=" stroke:none;fill-rule:nonzero;fill:rgb(38.823529%,59.607843%,100%);fill-opacity:1;" d="M 231.09375 197.808594 L 231.09375 199.355469 L 232.640625 199.355469 L 232.640625 202.445312 L 231.09375 202.445312 L 231.09375 203.992188 L 234.953125 203.992188 L 234.953125 197.808594 Z M 231.09375 197.808594 "/>
<path style=" stroke:none;fill-rule:nonzero;fill:rgb(38.823529%,59.607843%,100%);fill-opacity:1;" d="M 249.613281 31.679688 L 253.472656 31.679688 L 253.472656 37.863281 L 249.613281 37.863281 Z M 249.613281 31.679688 "/>
<path style=" stroke:none;fill-rule:nonzero;fill:rgb(38.823529%,59.607843%,100%);fill-opacity:1;" d="M 249.613281 80.359375 L 253.472656 80.359375 L 253.472656 86.542969 L 249.613281 86.542969 Z M 249.613281 80.359375 "/>
<path style=" stroke:none;fill-rule:nonzero;fill:rgb(38.823529%,59.607843%,100%);fill-opacity:1;" d="M 249.613281 180.039062 L 255.015625 180.039062 L 255.015625 180.808594 L 249.613281 180.808594 Z M 249.613281 180.039062 "/>
<path style=" stroke:none;fill-rule:nonzero;fill:rgb(38.823529%,59.607843%,100%);fill-opacity:1;" d="M 249.613281 50.226562 L 249.613281 51.769531 L 251.15625 51.769531 L 251.15625 54.859375 L 249.613281 54.859375 L 249.613281 56.40625 L 253.472656 56.40625 L 253.472656 50.226562 Z M 249.613281 50.226562 "/>
<path style=" stroke:none;fill-rule:nonzero;fill:rgb(38.823529%,59.607843%,100%);fill-opacity:1;" d="M 249.613281 60.269531 L 249.613281 61.816406 L 251.15625 61.816406 L 251.15625 64.90625 L 249.613281 64.90625 L 249.613281 66.453125 L 253.472656 66.453125 L 253.472656 60.269531 Z M 249.613281 60.269531 "/>
<path style=" stroke:none;fill-rule:nonzero;fill:rgb(38.823529%,59.607843%,100%);fill-opacity:1;" d="M 249.613281 70.316406 L 249.613281 71.859375 L 251.15625 71.859375 L 251.15625 74.949219 L 249.613281 74.949219 L 249.613281 76.496094 L 253.472656 76.496094 L 253.472656 70.316406 Z M 249.613281 70.316406 "/>
<path style=" stroke:none;fill-rule:nonzero;fill:rgb(38.823529%,59.607843%,100%);fill-opacity:1;" d="M 249.613281 100.449219 L 253.472656 100.449219 L 253.472656 106.632812 L 249.613281 106.632812 Z M 249.613281 100.449219 "/>
<path style=" stroke:none;fill-rule:nonzero;fill:rgb(38.823529%,59.607843%,100%);fill-opacity:1;" d="M 249.613281 90.40625 L 249.613281 91.949219 L 251.15625 91.949219 L 251.15625 95.042969 L 249.613281 95.042969 L 249.613281 96.585938 L 253.472656 96.585938 L 253.472656 90.40625 Z M 249.613281 90.40625 "/>
<path style=" stroke:none;fill-rule:nonzero;fill:rgb(38.823529%,59.607843%,100%);fill-opacity:1;" d="M 249.613281 120.539062 L 253.472656 120.539062 L 253.472656 126.722656 L 249.613281 126.722656 Z M 249.613281 120.539062 "/>
<path style=" stroke:none;fill-rule:nonzero;fill:rgb(38.823529%,59.607843%,100%);fill-opacity:1;" d="M 249.613281 110.496094 L 249.613281 112.039062 L 251.15625 112.039062 L 251.15625 115.132812 L 249.613281 115.132812 L 249.613281 116.675781 L 253.472656 116.675781 L 253.472656 110.496094 Z M 249.613281 110.496094 "/>
<path style=" stroke:none;fill-rule:nonzero;fill:rgb(38.823529%,59.607843%,100%);fill-opacity:1;" d="M 249.613281 140.628906 L 253.472656 140.628906 L 253.472656 146.8125 L 249.613281 146.8125 Z M 249.613281 140.628906 "/>
<path style=" stroke:none;fill-rule:nonzero;fill:rgb(38.823529%,59.607843%,100%);fill-opacity:1;" d="M 249.613281 130.585938 L 249.613281 132.128906 L 251.15625 132.128906 L 251.15625 135.222656 L 249.613281 135.222656 L 249.613281 136.765625 L 253.472656 136.765625 L 253.472656 130.585938 Z M 249.613281 130.585938 "/>
<path style=" stroke:none;fill-rule:nonzero;fill:rgb(38.823529%,59.607843%,100%);fill-opacity:1;" d="M 249.613281 160.71875 L 253.472656 160.71875 L 253.472656 166.902344 L 249.613281 166.902344 Z M 249.613281 160.71875 "/>
<path style=" stroke:none;fill-rule:nonzero;fill:rgb(38.823529%,59.607843%,100%);fill-opacity:1;" d="M 249.613281 186.992188 L 253.472656 186.992188 L 253.472656 193.171875 L 249.613281 193.171875 Z M 249.613281 186.992188 "/>
<path style=" stroke:none;fill-rule:nonzero;fill:rgb(38.823529%,59.607843%,100%);fill-opacity:1;" d="M 249.613281 150.675781 L 249.613281 152.21875 L 251.15625 152.21875 L 251.15625 155.3125 L 249.613281 155.3125 L 249.613281 156.855469 L 253.472656 156.855469 L 253.472656 150.675781 Z M 249.613281 150.675781 "/>
<path style=" stroke:none;fill-rule:nonzero;fill:rgb(38.823529%,59.607843%,100%);fill-opacity:1;" d="M 249.613281 197.808594 L 249.613281 199.355469 L 251.15625 199.355469 L 251.15625 202.445312 L 249.613281 202.445312 L 249.613281 203.992188 L 253.472656 203.992188 L 253.472656 197.808594 Z M 249.613281 197.808594 "/>
<path style=" stroke:none;fill-rule:nonzero;fill:rgb(38.823529%,59.607843%,100%);fill-opacity:1;" d="M 195.601562 186.992188 L 195.601562 188.535156 L 197.144531 188.535156 L 197.144531 191.628906 L 195.601562 191.628906 L 195.601562 193.171875 L 199.460938 193.171875 L 199.460938 186.992188 Z M 195.601562 186.992188 "/>
<path style=" stroke:none;fill-rule:nonzero;fill:rgb(38.823529%,59.607843%,100%);fill-opacity:1;" d="M 195.601562 197.035156 L 195.601562 198.582031 L 197.144531 198.582031 L 197.144531 201.671875 L 195.601562 201.671875 L 195.601562 203.21875 L 199.460938 203.21875 L 199.460938 197.035156 Z M 195.601562 197.035156 "/>
<path style=" stroke:none;fill-rule:nonzero;fill:rgb(38.823529%,59.607843%,100%);fill-opacity:1;" d="M 175.539062 80.359375 L 175.539062 81.90625 L 177.082031 81.90625 L 177.082031 84.996094 L 175.539062 84.996094 L 175.539062 86.542969 L 179.398438 86.542969 L 179.398438 80.359375 Z M 175.539062 80.359375 "/>
<path style=" stroke:none;fill-rule:nonzero;fill:rgb(38.823529%,59.607843%,100%);fill-opacity:1;" d="M 175.539062 119.769531 L 175.539062 121.3125 L 177.082031 121.3125 L 177.082031 124.402344 L 175.539062 124.402344 L 175.539062 125.949219 L 179.398438 125.949219 L 179.398438 119.769531 Z M 175.539062 119.769531 "/>
<path style=" stroke:none;fill-rule:nonzero;fill:rgb(38.823529%,59.607843%,100%);fill-opacity:1;" d="M 175.539062 129.8125 L 175.539062 131.359375 L 177.082031 131.359375 L 177.082031 134.449219 L 175.539062 134.449219 L 175.539062 135.992188 L 179.398438 135.992188 L 179.398438 129.8125 Z M 175.539062 129.8125 "/>
<path style=" stroke:none;fill-rule:nonzero;fill:rgb(38.823529%,59.607843%,100%);fill-opacity:1;" d="M 175.539062 149.902344 L 175.539062 151.449219 L 177.082031 151.449219 L 177.082031 154.539062 L 175.539062 154.539062 L 175.539062 156.082031 L 179.398438 156.082031 L 179.398438 149.902344 Z M 175.539062 149.902344 "/>
<path style=" stroke:none;fill-rule:nonzero;fill:rgb(38.823529%,59.607843%,100%);fill-opacity:1;" d="M 175.539062 178.492188 L 175.539062 180.039062 L 177.082031 180.039062 L 177.082031 183.128906 L 175.539062 183.128906 L 175.539062 184.671875 L 179.398438 184.671875 L 179.398438 178.492188 Z M 175.539062 178.492188 "/>
<path style=" stroke:none;fill-rule:nonzero;fill:rgb(38.823529%,59.607843%,100%);fill-opacity:1;" d="M 175.539062 186.992188 L 175.539062 188.535156 L 177.082031 188.535156 L 177.082031 191.628906 L 175.539062 191.628906 L 175.539062 193.171875 L 179.398438 193.171875 L 179.398438 186.992188 Z M 175.539062 186.992188 "/>
<path style=" stroke:none;fill-rule:nonzero;fill:rgb(38.823529%,59.607843%,100%);fill-opacity:1;" d="M 215.664062 33.226562 L 219.523438 33.226562 L 219.523438 39.40625 L 215.664062 39.40625 Z M 215.664062 33.226562 "/>
<path style=" stroke:none;fill-rule:nonzero;fill:rgb(38.823529%,59.607843%,100%);fill-opacity:1;" d="M 215.664062 43.269531 L 219.523438 43.269531 L 219.523438 49.453125 L 215.664062 49.453125 Z M 215.664062 43.269531 "/>
<path style=" stroke:none;fill-rule:nonzero;fill:rgb(38.823529%,59.607843%,100%);fill-opacity:1;" d="M 214.121094 54.089844 L 219.523438 54.089844 L 219.523438 54.859375 L 214.121094 54.859375 Z M 214.121094 54.089844 "/>
<path style=" stroke:none;fill-rule:nonzero;fill:rgb(38.823529%,59.607843%,100%);fill-opacity:1;" d="M 214.121094 103.539062 L 219.523438 103.539062 L 219.523438 104.3125 L 214.121094 104.3125 Z M 214.121094 103.539062 "/>
<path style=" stroke:none;fill-rule:nonzero;fill:rgb(38.823529%,59.607843%,100%);fill-opacity:1;" d="M 214.121094 112.039062 L 219.523438 112.039062 L 219.523438 112.8125 L 214.121094 112.8125 Z M 214.121094 112.039062 "/>
<path style=" stroke:none;fill-rule:nonzero;fill:rgb(38.823529%,59.607843%,100%);fill-opacity:1;" d="M 215.664062 61.042969 L 215.664062 62.589844 L 217.207031 62.589844 L 217.207031 65.679688 L 215.664062 65.679688 L 215.664062 67.222656 L 219.523438 67.222656 L 219.523438 61.042969 Z M 215.664062 61.042969 "/>
<path style=" stroke:none;fill-rule:nonzero;fill:rgb(38.823529%,59.607843%,100%);fill-opacity:1;" d="M 215.664062 80.359375 L 215.664062 81.90625 L 217.207031 81.90625 L 217.207031 84.996094 L 215.664062 84.996094 L 215.664062 86.542969 L 219.523438 86.542969 L 219.523438 80.359375 Z M 215.664062 80.359375 "/>
<path style=" stroke:none;fill-rule:nonzero;fill:rgb(38.823529%,59.607843%,100%);fill-opacity:1;" d="M 215.664062 119.769531 L 215.664062 121.3125 L 217.207031 121.3125 L 217.207031 124.402344 L 215.664062 124.402344 L 215.664062 125.949219 L 219.523438 125.949219 L 219.523438 119.769531 Z M 215.664062 119.769531 "/>
<path style=" stroke:none;fill-rule:nonzero;fill:rgb(38.823529%,59.607843%,100%);fill-opacity:1;" d="M 259.644531 100.449219 L 263.503906 100.449219 L 263.503906 106.632812 L 259.644531 106.632812 Z M 259.644531 100.449219 "/>
<path style=" stroke:none;fill-rule:nonzero;fill:rgb(38.823529%,59.607843%,100%);fill-opacity:1;" d="M 259.644531 110.496094 L 263.503906 110.496094 L 263.503906 116.675781 L 259.644531 116.675781 Z M 259.644531 110.496094 "/>
<path style=" stroke:none;fill-rule:nonzero;fill:rgb(38.823529%,59.607843%,100%);fill-opacity:1;" d="M 258.101562 121.3125 L 263.503906 121.3125 L 263.503906 122.085938 L 258.101562 122.085938 Z M 258.101562 121.3125 "/>
<path style=" stroke:none;fill-rule:nonzero;fill:rgb(38.823529%,59.607843%,100%);fill-opacity:1;" d="M 258.101562 170.765625 L 263.503906 170.765625 L 263.503906 171.539062 L 258.101562 171.539062 Z M 258.101562 170.765625 "/>
<path style=" stroke:none;fill-rule:nonzero;fill:rgb(38.823529%,59.607843%,100%);fill-opacity:1;" d="M 258.101562 179.265625 L 263.503906 179.265625 L 263.503906 180.039062 L 258.101562 180.039062 Z M 258.101562 179.265625 "/>
<path style=" stroke:none;fill-rule:nonzero;fill:rgb(38.823529%,59.607843%,100%);fill-opacity:1;" d="M 259.644531 128.265625 L 259.644531 129.8125 L 261.1875 129.8125 L 261.1875 132.902344 L 259.644531 132.902344 L 259.644531 134.449219 L 263.503906 134.449219 L 263.503906 128.265625 Z M 259.644531 128.265625 "/>
<path style=" stroke:none;fill-rule:nonzero;fill:rgb(38.823529%,59.607843%,100%);fill-opacity:1;" d="M 259.644531 147.585938 L 259.644531 149.128906 L 261.1875 149.128906 L 261.1875 152.21875 L 259.644531 152.21875 L 259.644531 153.765625 L 263.503906 153.765625 L 263.503906 147.585938 Z M 259.644531 147.585938 "/>
<path style=" stroke:none;fill-rule:nonzero;fill:rgb(38.823529%,59.607843%,100%);fill-opacity:1;" d="M 259.644531 186.992188 L 259.644531 188.535156 L 261.1875 188.535156 L 261.1875 191.628906 L 259.644531 191.628906 L 259.644531 193.171875 L 263.503906 193.171875 L 263.503906 186.992188 Z M 259.644531 186.992188 "/>
<path style=" stroke:none;fill-rule:nonzero;fill:rgb(38.823529%,59.607843%,100%);fill-opacity:1;" d="M 271.992188 33.226562 L 275.847656 33.226562 L 275.847656 39.40625 L 271.992188 39.40625 Z M 271.992188 33.226562 "/>
<path style=" stroke:none;fill-rule:nonzero;fill:rgb(38.823529%,59.607843%,100%);fill-opacity:1;" d="M 285.109375 31.679688 L 288.964844 31.679688 L 288.964844 37.863281 L 285.109375 37.863281 Z M 285.109375 31.679688 "/>
<path style=" stroke:none;fill-rule:nonzero;fill:rgb(38.823529%,59.607843%,100%);fill-opacity:1;" d="M 292.050781 31.679688 L 295.910156 31.679688 L 295.910156 37.863281 L 292.050781 37.863281 Z M 292.050781 31.679688 "/>
<path style=" stroke:none;fill-rule:nonzero;fill:rgb(38.823529%,59.607843%,100%);fill-opacity:1;" d="M 292.050781 50.226562 L 295.910156 50.226562 L 295.910156 56.40625 L 292.050781 56.40625 Z M 292.050781 50.226562 "/>
<path style=" stroke:none;fill-rule:nonzero;fill:rgb(38.823529%,59.607843%,100%);fill-opacity:1;" d="M 299.769531 40.953125 L 303.625 40.953125 L 303.625 47.132812 L 299.769531 47.132812 Z M 299.769531 40.953125 "/>
<path style=" stroke:none;fill-rule:nonzero;fill:rgb(38.823529%,59.607843%,100%);fill-opacity:1;" d="M 299.769531 50.996094 L 303.625 50.996094 L 303.625 57.179688 L 299.769531 57.179688 Z M 299.769531 50.996094 "/>
<path style=" stroke:none;fill-rule:nonzero;fill:rgb(38.823529%,59.607843%,100%);fill-opacity:1;" d="M 292.050781 70.316406 L 295.910156 70.316406 L 295.910156 76.496094 L 292.050781 76.496094 Z M 292.050781 70.316406 "/>
<path style=" stroke:none;fill-rule:nonzero;fill:rgb(38.823529%,59.607843%,100%);fill-opacity:1;" d="M 299.769531 80.359375 L 303.625 80.359375 L 303.625 86.542969 L 299.769531 86.542969 Z M 299.769531 80.359375 "/>
<path style=" stroke:none;fill-rule:nonzero;fill:rgb(38.823529%,59.607843%,100%);fill-opacity:1;" d="M 292.050781 118.222656 L 295.910156 118.222656 L 295.910156 124.402344 L 292.050781 124.402344 Z M 292.050781 118.222656 "/>
<path style=" stroke:none;fill-rule:nonzero;fill:rgb(38.823529%,59.607843%,100%);fill-opacity:1;" d="M 285.109375 80.359375 L 288.964844 80.359375 L 288.964844 86.542969 L 285.109375 86.542969 Z M 285.109375 80.359375 "/>
<path style=" stroke:none;fill-rule:nonzero;fill:rgb(38.823529%,59.607843%,100%);fill-opacity:1;" d="M 271.992188 43.269531 L 275.847656 43.269531 L 275.847656 49.453125 L 271.992188 49.453125 Z M 271.992188 43.269531 "/>
<path style=" stroke:none;fill-rule:nonzero;fill:rgb(38.823529%,59.607843%,100%);fill-opacity:1;" d="M 271.992188 139.859375 L 275.847656 139.859375 L 275.847656 146.039062 L 271.992188 146.039062 Z M 271.992188 139.859375 "/>
<path style=" stroke:none;fill-rule:nonzero;fill:rgb(38.823529%,59.607843%,100%);fill-opacity:1;" d="M 271.992188 159.949219 L 275.847656 159.949219 L 275.847656 166.128906 L 271.992188 166.128906 Z M 271.992188 159.949219 "/>
<path style=" stroke:none;fill-rule:nonzero;fill:rgb(38.823529%,59.607843%,100%);fill-opacity:1;" d="M 271.992188 169.992188 L 275.847656 169.992188 L 275.847656 176.175781 L 271.992188 176.175781 Z M 271.992188 169.992188 "/>
<path style=" stroke:none;fill-rule:nonzero;fill:rgb(38.823529%,59.607843%,100%);fill-opacity:1;" d="M 270.449219 54.089844 L 275.847656 54.089844 L 275.847656 54.859375 L 270.449219 54.859375 Z M 270.449219 54.089844 "/>
<path style=" stroke:none;fill-rule:nonzero;fill:rgb(38.823529%,59.607843%,100%);fill-opacity:1;" d="M 291.28125 63.359375 L 296.683594 63.359375 L 296.683594 64.132812 L 291.28125 64.132812 Z M 291.28125 63.359375 "/>
<path style=" stroke:none;fill-rule:nonzero;fill:rgb(38.823529%,59.607843%,100%);fill-opacity:1;" d="M 270.449219 103.539062 L 275.847656 103.539062 L 275.847656 104.3125 L 270.449219 104.3125 Z M 270.449219 103.539062 "/>
<path style=" stroke:none;fill-rule:nonzero;fill:rgb(38.823529%,59.607843%,100%);fill-opacity:1;" d="M 270.449219 112.039062 L 275.847656 112.039062 L 275.847656 112.8125 L 270.449219 112.8125 Z M 270.449219 112.039062 "/>
<path style=" stroke:none;fill-rule:nonzero;fill:rgb(38.823529%,59.607843%,100%);fill-opacity:1;" d="M 291.28125 161.492188 L 296.683594 161.492188 L 296.683594 162.265625 L 291.28125 162.265625 Z M 291.28125 161.492188 "/>
<path style=" stroke:none;fill-rule:nonzero;fill:rgb(38.823529%,59.607843%,100%);fill-opacity:1;" d="M 285.109375 180.039062 L 290.507812 180.039062 L 290.507812 180.808594 L 285.109375 180.808594 Z M 285.109375 180.039062 "/>
<path style=" stroke:none;fill-rule:nonzero;fill:rgb(38.823529%,59.607843%,100%);fill-opacity:1;" d="M 271.992188 61.042969 L 271.992188 62.589844 L 273.535156 62.589844 L 273.535156 65.679688 L 271.992188 65.679688 L 271.992188 67.222656 L 275.847656 67.222656 L 275.847656 61.042969 Z M 271.992188 61.042969 "/>
<path style=" stroke:none;fill-rule:nonzero;fill:rgb(38.823529%,59.607843%,100%);fill-opacity:1;" d="M 285.109375 50.226562 L 285.109375 51.769531 L 286.652344 51.769531 L 286.652344 54.859375 L 285.109375 54.859375 L 285.109375 56.40625 L 288.964844 56.40625 L 288.964844 50.226562 Z M 285.109375 50.226562 "/>
<path style=" stroke:none;fill-rule:nonzero;fill:rgb(38.823529%,59.607843%,100%);fill-opacity:1;" d="M 299.769531 60.269531 L 299.769531 61.816406 L 301.3125 61.816406 L 301.3125 64.90625 L 299.769531 64.90625 L 299.769531 66.453125 L 303.625 66.453125 L 303.625 60.269531 Z M 299.769531 60.269531 "/>
<path style=" stroke:none;fill-rule:nonzero;fill:rgb(38.823529%,59.607843%,100%);fill-opacity:1;" d="M 299.769531 90.40625 L 299.769531 91.949219 L 301.3125 91.949219 L 301.3125 95.042969 L 299.769531 95.042969 L 299.769531 96.585938 L 303.625 96.585938 L 303.625 90.40625 Z M 299.769531 90.40625 "/>
<path style=" stroke:none;fill-rule:nonzero;fill:rgb(38.823529%,59.607843%,100%);fill-opacity:1;" d="M 299.769531 100.449219 L 299.769531 101.996094 L 301.3125 101.996094 L 301.3125 105.085938 L 299.769531 105.085938 L 299.769531 106.632812 L 303.625 106.632812 L 303.625 100.449219 Z M 299.769531 100.449219 "/>
<path style=" stroke:none;fill-rule:nonzero;fill:rgb(38.823529%,59.607843%,100%);fill-opacity:1;" d="M 299.769531 69.542969 L 299.769531 71.085938 L 301.3125 71.085938 L 301.3125 74.179688 L 299.769531 74.179688 L 299.769531 75.722656 L 303.625 75.722656 L 303.625 69.542969 Z M 299.769531 69.542969 "/>
<path style=" stroke:none;fill-rule:nonzero;fill:rgb(38.823529%,59.607843%,100%);fill-opacity:1;" d="M 292.050781 40.953125 L 292.050781 42.5 L 293.59375 42.5 L 293.59375 45.589844 L 292.050781 45.589844 L 292.050781 47.132812 L 295.910156 47.132812 L 295.910156 40.953125 Z M 292.050781 40.953125 "/>
<path style=" stroke:none;fill-rule:nonzero;fill:rgb(38.823529%,59.607843%,100%);fill-opacity:1;" d="M 292.050781 90.40625 L 295.910156 90.40625 L 295.910156 96.585938 L 292.050781 96.585938 Z M 292.050781 90.40625 "/>
<path style=" stroke:none;fill-rule:nonzero;fill:rgb(38.823529%,59.607843%,100%);fill-opacity:1;" d="M 292.050781 108.949219 L 295.910156 108.949219 L 295.910156 115.132812 L 292.050781 115.132812 Z M 292.050781 108.949219 "/>
<path style=" stroke:none;fill-rule:nonzero;fill:rgb(38.823529%,59.607843%,100%);fill-opacity:1;" d="M 292.050781 99.675781 L 292.050781 101.222656 L 293.59375 101.222656 L 293.59375 104.3125 L 292.050781 104.3125 L 292.050781 105.859375 L 295.910156 105.859375 L 295.910156 99.675781 Z M 292.050781 99.675781 "/>
<path style=" stroke:none;fill-rule:nonzero;fill:rgb(38.823529%,59.607843%,100%);fill-opacity:1;" d="M 285.109375 60.269531 L 285.109375 61.816406 L 286.652344 61.816406 L 286.652344 64.90625 L 285.109375 64.90625 L 285.109375 66.453125 L 288.964844 66.453125 L 288.964844 60.269531 Z M 285.109375 60.269531 "/>
<path style=" stroke:none;fill-rule:nonzero;fill:rgb(38.823529%,59.607843%,100%);fill-opacity:1;" d="M 285.109375 70.316406 L 285.109375 71.859375 L 286.652344 71.859375 L 286.652344 74.949219 L 285.109375 74.949219 L 285.109375 76.496094 L 288.964844 76.496094 L 288.964844 70.316406 Z M 285.109375 70.316406 "/>
<path style=" stroke:none;fill-rule:nonzero;fill:rgb(38.823529%,59.607843%,100%);fill-opacity:1;" d="M 285.109375 100.449219 L 288.964844 100.449219 L 288.964844 106.632812 L 285.109375 106.632812 Z M 285.109375 100.449219 "/>
<path style=" stroke:none;fill-rule:nonzero;fill:rgb(38.823529%,59.607843%,100%);fill-opacity:1;" d="M 285.109375 90.40625 L 285.109375 91.949219 L 286.652344 91.949219 L 286.652344 95.042969 L 285.109375 95.042969 L 285.109375 96.585938 L 288.964844 96.585938 L 288.964844 90.40625 Z M 285.109375 90.40625 "/>
<path style=" stroke:none;fill-rule:nonzero;fill:rgb(38.823529%,59.607843%,100%);fill-opacity:1;" d="M 285.109375 120.539062 L 288.964844 120.539062 L 288.964844 126.722656 L 285.109375 126.722656 Z M 285.109375 120.539062 "/>
<path style=" stroke:none;fill-rule:nonzero;fill:rgb(38.823529%,59.607843%,100%);fill-opacity:1;" d="M 285.109375 110.496094 L 285.109375 112.039062 L 286.652344 112.039062 L 286.652344 115.132812 L 285.109375 115.132812 L 285.109375 116.675781 L 288.964844 116.675781 L 288.964844 110.496094 Z M 285.109375 110.496094 "/>
<path style=" stroke:none;fill-rule:nonzero;fill:rgb(38.823529%,59.607843%,100%);fill-opacity:1;" d="M 285.109375 140.628906 L 288.964844 140.628906 L 288.964844 146.8125 L 285.109375 146.8125 Z M 285.109375 140.628906 "/>
<path style=" stroke:none;fill-rule:nonzero;fill:rgb(38.823529%,59.607843%,100%);fill-opacity:1;" d="M 292.050781 139.085938 L 295.910156 139.085938 L 295.910156 145.265625 L 292.050781 145.265625 Z M 292.050781 139.085938 "/>
<path style=" stroke:none;fill-rule:nonzero;fill:rgb(38.823529%,59.607843%,100%);fill-opacity:1;" d="M 285.109375 130.585938 L 285.109375 132.128906 L 286.652344 132.128906 L 286.652344 135.222656 L 285.109375 135.222656 L 285.109375 136.765625 L 288.964844 136.765625 L 288.964844 130.585938 Z M 285.109375 130.585938 "/>
<path style=" stroke:none;fill-rule:nonzero;fill:rgb(38.823529%,59.607843%,100%);fill-opacity:1;" d="M 299.769531 130.585938 L 299.769531 132.128906 L 301.3125 132.128906 L 301.3125 135.222656 L 299.769531 135.222656 L 299.769531 136.765625 L 303.625 136.765625 L 303.625 130.585938 Z M 299.769531 130.585938 "/>
<path style=" stroke:none;fill-rule:nonzero;fill:rgb(38.823529%,59.607843%,100%);fill-opacity:1;" d="M 339.121094 40.953125 L 342.976562 40.953125 L 342.976562 47.132812 L 339.121094 47.132812 Z M 339.121094 40.953125 "/>
<path style=" stroke:none;fill-rule:nonzero;fill:rgb(38.823529%,59.607843%,100%);fill-opacity:1;" d="M 339.121094 50.996094 L 342.976562 50.996094 L 342.976562 57.179688 L 339.121094 57.179688 Z M 339.121094 50.996094 "/>
<path style=" stroke:none;fill-rule:nonzero;fill:rgb(38.823529%,59.607843%,100%);fill-opacity:1;" d="M 339.121094 80.359375 L 342.976562 80.359375 L 342.976562 86.542969 L 339.121094 86.542969 Z M 339.121094 80.359375 "/>
<path style=" stroke:none;fill-rule:nonzero;fill:rgb(38.823529%,59.607843%,100%);fill-opacity:1;" d="M 339.121094 60.269531 L 339.121094 61.816406 L 340.664062 61.816406 L 340.664062 64.90625 L 339.121094 64.90625 L 339.121094 66.453125 L 342.976562 66.453125 L 342.976562 60.269531 Z M 339.121094 60.269531 "/>
<path style=" stroke:none;fill-rule:nonzero;fill:rgb(38.823529%,59.607843%,100%);fill-opacity:1;" d="M 339.121094 90.40625 L 339.121094 91.949219 L 340.664062 91.949219 L 340.664062 95.042969 L 339.121094 95.042969 L 339.121094 96.585938 L 342.976562 96.585938 L 342.976562 90.40625 Z M 339.121094 90.40625 "/>
<path style=" stroke:none;fill-rule:nonzero;fill:rgb(38.823529%,59.607843%,100%);fill-opacity:1;" d="M 339.121094 100.449219 L 339.121094 101.996094 L 340.664062 101.996094 L 340.664062 105.085938 L 339.121094 105.085938 L 339.121094 106.632812 L 342.976562 106.632812 L 342.976562 100.449219 Z M 339.121094 100.449219 "/>
<path style=" stroke:none;fill-rule:nonzero;fill:rgb(38.823529%,59.607843%,100%);fill-opacity:1;" d="M 339.121094 69.542969 L 339.121094 71.085938 L 340.664062 71.085938 L 340.664062 74.179688 L 339.121094 74.179688 L 339.121094 75.722656 L 342.976562 75.722656 L 342.976562 69.542969 Z M 339.121094 69.542969 "/>
<path style=" stroke:none;fill-rule:nonzero;fill:rgb(38.823529%,59.607843%,100%);fill-opacity:1;" d="M 339.121094 130.585938 L 339.121094 132.128906 L 340.664062 132.128906 L 340.664062 135.222656 L 339.121094 135.222656 L 339.121094 136.765625 L 342.976562 136.765625 L 342.976562 130.585938 Z M 339.121094 130.585938 "/>
<path style=" stroke:none;fill-rule:nonzero;fill:rgb(38.823529%,59.607843%,100%);fill-opacity:1;" d="M 285.109375 160.71875 L 288.964844 160.71875 L 288.964844 166.902344 L 285.109375 166.902344 Z M 285.109375 160.71875 "/>
<path style=" stroke:none;fill-rule:nonzero;fill:rgb(38.823529%,59.607843%,100%);fill-opacity:1;" d="M 292.050781 149.128906 L 295.910156 149.128906 L 295.910156 155.3125 L 292.050781 155.3125 Z M 292.050781 149.128906 "/>
<path style=" stroke:none;fill-rule:nonzero;fill:rgb(38.823529%,59.607843%,100%);fill-opacity:1;" d="M 285.109375 186.992188 L 288.964844 186.992188 L 288.964844 193.171875 L 285.109375 193.171875 Z M 285.109375 186.992188 "/>
<path style=" stroke:none;fill-rule:nonzero;fill:rgb(38.823529%,59.607843%,100%);fill-opacity:1;" d="M 292.050781 168.445312 L 295.910156 168.445312 L 295.910156 174.628906 L 292.050781 174.628906 Z M 292.050781 168.445312 "/>
<path style=" stroke:none;fill-rule:nonzero;fill:rgb(38.823529%,59.607843%,100%);fill-opacity:1;" d="M 285.109375 150.675781 L 285.109375 152.21875 L 286.652344 152.21875 L 286.652344 155.3125 L 285.109375 155.3125 L 285.109375 156.855469 L 288.964844 156.855469 L 288.964844 150.675781 Z M 285.109375 150.675781 "/>
<path style=" stroke:none;fill-rule:nonzero;fill:rgb(38.823529%,59.607843%,100%);fill-opacity:1;" d="M 285.109375 197.808594 L 285.109375 199.355469 L 286.652344 199.355469 L 286.652344 202.445312 L 285.109375 202.445312 L 285.109375 203.992188 L 288.964844 203.992188 L 288.964844 197.808594 Z M 285.109375 197.808594 "/>
<path style=" stroke:none;fill-rule:nonzero;fill:rgb(38.823529%,59.607843%,100%);fill-opacity:1;" d="M 327.546875 31.679688 L 331.40625 31.679688 L 331.40625 37.863281 L 327.546875 37.863281 Z M 327.546875 31.679688 "/>
<path style=" stroke:none;fill-rule:nonzero;fill:rgb(38.823529%,59.607843%,100%);fill-opacity:1;" d="M 327.546875 80.359375 L 331.40625 80.359375 L 331.40625 86.542969 L 327.546875 86.542969 Z M 327.546875 80.359375 "/>
<path style=" stroke:none;fill-rule:nonzero;fill:rgb(38.823529%,59.607843%,100%);fill-opacity:1;" d="M 327.546875 180.039062 L 332.949219 180.039062 L 332.949219 180.808594 L 327.546875 180.808594 Z M 327.546875 180.039062 "/>
<path style=" stroke:none;fill-rule:nonzero;fill:rgb(38.823529%,59.607843%,100%);fill-opacity:1;" d="M 327.546875 50.226562 L 327.546875 51.769531 L 329.089844 51.769531 L 329.089844 54.859375 L 327.546875 54.859375 L 327.546875 56.40625 L 331.40625 56.40625 L 331.40625 50.226562 Z M 327.546875 50.226562 "/>
<path style=" stroke:none;fill-rule:nonzero;fill:rgb(38.823529%,59.607843%,100%);fill-opacity:1;" d="M 327.546875 60.269531 L 327.546875 61.816406 L 329.089844 61.816406 L 329.089844 64.90625 L 327.546875 64.90625 L 327.546875 66.453125 L 331.40625 66.453125 L 331.40625 60.269531 Z M 327.546875 60.269531 "/>
<path style=" stroke:none;fill-rule:nonzero;fill:rgb(38.823529%,59.607843%,100%);fill-opacity:1;" d="M 327.546875 70.316406 L 327.546875 71.859375 L 329.089844 71.859375 L 329.089844 74.949219 L 327.546875 74.949219 L 327.546875 76.496094 L 331.40625 76.496094 L 331.40625 70.316406 Z M 327.546875 70.316406 "/>
<path style=" stroke:none;fill-rule:nonzero;fill:rgb(38.823529%,59.607843%,100%);fill-opacity:1;" d="M 327.546875 100.449219 L 331.40625 100.449219 L 331.40625 106.632812 L 327.546875 106.632812 Z M 327.546875 100.449219 "/>
<path style=" stroke:none;fill-rule:nonzero;fill:rgb(38.823529%,59.607843%,100%);fill-opacity:1;" d="M 327.546875 90.40625 L 327.546875 91.949219 L 329.089844 91.949219 L 329.089844 95.042969 L 327.546875 95.042969 L 327.546875 96.585938 L 331.40625 96.585938 L 331.40625 90.40625 Z M 327.546875 90.40625 "/>
<path style=" stroke:none;fill-rule:nonzero;fill:rgb(38.823529%,59.607843%,100%);fill-opacity:1;" d="M 327.546875 120.539062 L 331.40625 120.539062 L 331.40625 126.722656 L 327.546875 126.722656 Z M 327.546875 120.539062 "/>
<path style=" stroke:none;fill-rule:nonzero;fill:rgb(38.823529%,59.607843%,100%);fill-opacity:1;" d="M 327.546875 110.496094 L 327.546875 112.039062 L 329.089844 112.039062 L 329.089844 115.132812 L 327.546875 115.132812 L 327.546875 116.675781 L 331.40625 116.675781 L 331.40625 110.496094 Z M 327.546875 110.496094 "/>
<path style=" stroke:none;fill-rule:nonzero;fill:rgb(38.823529%,59.607843%,100%);fill-opacity:1;" d="M 327.546875 140.628906 L 331.40625 140.628906 L 331.40625 146.8125 L 327.546875 146.8125 Z M 327.546875 140.628906 "/>
<path style=" stroke:none;fill-rule:nonzero;fill:rgb(38.823529%,59.607843%,100%);fill-opacity:1;" d="M 327.546875 130.585938 L 327.546875 132.128906 L 329.089844 132.128906 L 329.089844 135.222656 L 327.546875 135.222656 L 327.546875 136.765625 L 331.40625 136.765625 L 331.40625 130.585938 Z M 327.546875 130.585938 "/>
<path style=" stroke:none;fill-rule:nonzero;fill:rgb(38.823529%,59.607843%,100%);fill-opacity:1;" d="M 327.546875 160.71875 L 331.40625 160.71875 L 331.40625 166.902344 L 327.546875 166.902344 Z M 327.546875 160.71875 "/>
<path style=" stroke:none;fill-rule:nonzero;fill:rgb(38.823529%,59.607843%,100%);fill-opacity:1;" d="M 327.546875 186.992188 L 331.40625 186.992188 L 331.40625 193.171875 L 327.546875 193.171875 Z M 327.546875 186.992188 "/>
<path style=" stroke:none;fill-rule:nonzero;fill:rgb(38.823529%,59.607843%,100%);fill-opacity:1;" d="M 327.546875 150.675781 L 327.546875 152.21875 L 329.089844 152.21875 L 329.089844 155.3125 L 327.546875 155.3125 L 327.546875 156.855469 L 331.40625 156.855469 L 331.40625 150.675781 Z M 327.546875 150.675781 "/>
<path style=" stroke:none;fill-rule:nonzero;fill:rgb(38.823529%,59.607843%,100%);fill-opacity:1;" d="M 327.546875 197.808594 L 327.546875 199.355469 L 329.089844 199.355469 L 329.089844 202.445312 L 327.546875 202.445312 L 327.546875 203.992188 L 331.40625 203.992188 L 331.40625 197.808594 Z M 327.546875 197.808594 "/>
<path style=" stroke:none;fill-rule:nonzero;fill:rgb(38.823529%,59.607843%,100%);fill-opacity:1;" d="M 346.066406 31.679688 L 349.921875 31.679688 L 349.921875 37.863281 L 346.066406 37.863281 Z M 346.066406 31.679688 "/>
<path style=" stroke:none;fill-rule:nonzero;fill:rgb(38.823529%,59.607843%,100%);fill-opacity:1;" d="M 346.066406 80.359375 L 349.921875 80.359375 L 349.921875 86.542969 L 346.066406 86.542969 Z M 346.066406 80.359375 "/>
<path style=" stroke:none;fill-rule:nonzero;fill:rgb(38.823529%,59.607843%,100%);fill-opacity:1;" d="M 346.066406 180.039062 L 351.464844 180.039062 L 351.464844 180.808594 L 346.066406 180.808594 Z M 346.066406 180.039062 "/>
<path style=" stroke:none;fill-rule:nonzero;fill:rgb(38.823529%,59.607843%,100%);fill-opacity:1;" d="M 346.066406 50.226562 L 346.066406 51.769531 L 347.609375 51.769531 L 347.609375 54.859375 L 346.066406 54.859375 L 346.066406 56.40625 L 349.921875 56.40625 L 349.921875 50.226562 Z M 346.066406 50.226562 "/>
<path style=" stroke:none;fill-rule:nonzero;fill:rgb(38.823529%,59.607843%,100%);fill-opacity:1;" d="M 346.066406 60.269531 L 346.066406 61.816406 L 347.609375 61.816406 L 347.609375 64.90625 L 346.066406 64.90625 L 346.066406 66.453125 L 349.921875 66.453125 L 349.921875 60.269531 Z M 346.066406 60.269531 "/>
<path style=" stroke:none;fill-rule:nonzero;fill:rgb(38.823529%,59.607843%,100%);fill-opacity:1;" d="M 346.066406 70.316406 L 346.066406 71.859375 L 347.609375 71.859375 L 347.609375 74.949219 L 346.066406 74.949219 L 346.066406 76.496094 L 349.921875 76.496094 L 349.921875 70.316406 Z M 346.066406 70.316406 "/>
<path style=" stroke:none;fill-rule:nonzero;fill:rgb(38.823529%,59.607843%,100%);fill-opacity:1;" d="M 346.066406 100.449219 L 349.921875 100.449219 L 349.921875 106.632812 L 346.066406 106.632812 Z M 346.066406 100.449219 "/>
<path style=" stroke:none;fill-rule:nonzero;fill:rgb(38.823529%,59.607843%,100%);fill-opacity:1;" d="M 346.066406 90.40625 L 346.066406 91.949219 L 347.609375 91.949219 L 347.609375 95.042969 L 346.066406 95.042969 L 346.066406 96.585938 L 349.921875 96.585938 L 349.921875 90.40625 Z M 346.066406 90.40625 "/>
<path style=" stroke:none;fill-rule:nonzero;fill:rgb(38.823529%,59.607843%,100%);fill-opacity:1;" d="M 346.066406 120.539062 L 349.921875 120.539062 L 349.921875 126.722656 L 346.066406 126.722656 Z M 346.066406 120.539062 "/>
<path style=" stroke:none;fill-rule:nonzero;fill:rgb(38.823529%,59.607843%,100%);fill-opacity:1;" d="M 346.066406 110.496094 L 346.066406 112.039062 L 347.609375 112.039062 L 347.609375 115.132812 L 346.066406 115.132812 L 346.066406 116.675781 L 349.921875 116.675781 L 349.921875 110.496094 Z M 346.066406 110.496094 "/>
<path style=" stroke:none;fill-rule:nonzero;fill:rgb(38.823529%,59.607843%,100%);fill-opacity:1;" d="M 346.066406 140.628906 L 349.921875 140.628906 L 349.921875 146.8125 L 346.066406 146.8125 Z M 346.066406 140.628906 "/>
<path style=" stroke:none;fill-rule:nonzero;fill:rgb(38.823529%,59.607843%,100%);fill-opacity:1;" d="M 346.066406 130.585938 L 346.066406 132.128906 L 347.609375 132.128906 L 347.609375 135.222656 L 346.066406 135.222656 L 346.066406 136.765625 L 349.921875 136.765625 L 349.921875 130.585938 Z M 346.066406 130.585938 "/>
<path style=" stroke:none;fill-rule:nonzero;fill:rgb(38.823529%,59.607843%,100%);fill-opacity:1;" d="M 346.066406 160.71875 L 349.921875 160.71875 L 349.921875 166.902344 L 346.066406 166.902344 Z M 346.066406 160.71875 "/>
<path style=" stroke:none;fill-rule:nonzero;fill:rgb(38.823529%,59.607843%,100%);fill-opacity:1;" d="M 346.066406 186.992188 L 349.921875 186.992188 L 349.921875 193.171875 L 346.066406 193.171875 Z M 346.066406 186.992188 "/>
<path style=" stroke:none;fill-rule:nonzero;fill:rgb(38.823529%,59.607843%,100%);fill-opacity:1;" d="M 346.066406 150.675781 L 346.066406 152.21875 L 347.609375 152.21875 L 347.609375 155.3125 L 346.066406 155.3125 L 346.066406 156.855469 L 349.921875 156.855469 L 349.921875 150.675781 Z M 346.066406 150.675781 "/>
<path style=" stroke:none;fill-rule:nonzero;fill:rgb(38.823529%,59.607843%,100%);fill-opacity:1;" d="M 346.066406 197.808594 L 346.066406 199.355469 L 347.609375 199.355469 L 347.609375 202.445312 L 346.066406 202.445312 L 346.066406 203.992188 L 349.921875 203.992188 L 349.921875 197.808594 Z M 346.066406 197.808594 "/>
<path style=" stroke:none;fill-rule:nonzero;fill:rgb(38.823529%,59.607843%,100%);fill-opacity:1;" d="M 292.050781 186.992188 L 292.050781 188.535156 L 293.59375 188.535156 L 293.59375 191.628906 L 292.050781 191.628906 L 292.050781 193.171875 L 295.910156 193.171875 L 295.910156 186.992188 Z M 292.050781 186.992188 "/>
<path style=" stroke:none;fill-rule:nonzero;fill:rgb(38.823529%,59.607843%,100%);fill-opacity:1;" d="M 292.050781 197.035156 L 292.050781 198.582031 L 293.59375 198.582031 L 293.59375 201.671875 L 292.050781 201.671875 L 292.050781 203.21875 L 295.910156 203.21875 L 295.910156 197.035156 Z M 292.050781 197.035156 "/>
<path style=" stroke:none;fill-rule:nonzero;fill:rgb(38.823529%,59.607843%,100%);fill-opacity:1;" d="M 271.992188 80.359375 L 271.992188 81.90625 L 273.535156 81.90625 L 273.535156 84.996094 L 271.992188 84.996094 L 271.992188 86.542969 L 275.847656 86.542969 L 275.847656 80.359375 Z M 271.992188 80.359375 "/>
<path style=" stroke:none;fill-rule:nonzero;fill:rgb(38.823529%,59.607843%,100%);fill-opacity:1;" d="M 271.992188 119.769531 L 271.992188 121.3125 L 273.535156 121.3125 L 273.535156 124.402344 L 271.992188 124.402344 L 271.992188 125.949219 L 275.847656 125.949219 L 275.847656 119.769531 Z M 271.992188 119.769531 "/>
<path style=" stroke:none;fill-rule:nonzero;fill:rgb(38.823529%,59.607843%,100%);fill-opacity:1;" d="M 271.992188 129.8125 L 271.992188 131.359375 L 273.535156 131.359375 L 273.535156 134.449219 L 271.992188 134.449219 L 271.992188 135.992188 L 275.847656 135.992188 L 275.847656 129.8125 Z M 271.992188 129.8125 "/>
<path style=" stroke:none;fill-rule:nonzero;fill:rgb(38.823529%,59.607843%,100%);fill-opacity:1;" d="M 271.992188 149.902344 L 271.992188 151.449219 L 273.535156 151.449219 L 273.535156 154.539062 L 271.992188 154.539062 L 271.992188 156.082031 L 275.847656 156.082031 L 275.847656 149.902344 Z M 271.992188 149.902344 "/>
<path style=" stroke:none;fill-rule:nonzero;fill:rgb(38.823529%,59.607843%,100%);fill-opacity:1;" d="M 271.992188 178.492188 L 271.992188 180.039062 L 273.535156 180.039062 L 273.535156 183.128906 L 271.992188 183.128906 L 271.992188 184.671875 L 275.847656 184.671875 L 275.847656 178.492188 Z M 271.992188 178.492188 "/>
<path style=" stroke:none;fill-rule:nonzero;fill:rgb(38.823529%,59.607843%,100%);fill-opacity:1;" d="M 271.992188 186.992188 L 271.992188 188.535156 L 273.535156 188.535156 L 273.535156 191.628906 L 271.992188 191.628906 L 271.992188 193.171875 L 275.847656 193.171875 L 275.847656 186.992188 Z M 271.992188 186.992188 "/>
<path style=" stroke:none;fill-rule:nonzero;fill:rgb(38.823529%,59.607843%,100%);fill-opacity:1;" d="M 312.113281 33.226562 L 315.972656 33.226562 L 315.972656 39.40625 L 312.113281 39.40625 Z M 312.113281 33.226562 "/>
<path style=" stroke:none;fill-rule:nonzero;fill:rgb(38.823529%,59.607843%,100%);fill-opacity:1;" d="M 312.113281 43.269531 L 315.972656 43.269531 L 315.972656 49.453125 L 312.113281 49.453125 Z M 312.113281 43.269531 "/>
<path style=" stroke:none;fill-rule:nonzero;fill:rgb(38.823529%,59.607843%,100%);fill-opacity:1;" d="M 310.570312 54.089844 L 315.972656 54.089844 L 315.972656 54.859375 L 310.570312 54.859375 Z M 310.570312 54.089844 "/>
<path style=" stroke:none;fill-rule:nonzero;fill:rgb(38.823529%,59.607843%,100%);fill-opacity:1;" d="M 310.570312 103.539062 L 315.972656 103.539062 L 315.972656 104.3125 L 310.570312 104.3125 Z M 310.570312 103.539062 "/>
<path style=" stroke:none;fill-rule:nonzero;fill:rgb(38.823529%,59.607843%,100%);fill-opacity:1;" d="M 310.570312 112.039062 L 315.972656 112.039062 L 315.972656 112.8125 L 310.570312 112.8125 Z M 310.570312 112.039062 "/>
<path style=" stroke:none;fill-rule:nonzero;fill:rgb(38.823529%,59.607843%,100%);fill-opacity:1;" d="M 312.113281 61.042969 L 312.113281 62.589844 L 313.65625 62.589844 L 313.65625 65.679688 L 312.113281 65.679688 L 312.113281 67.222656 L 315.972656 67.222656 L 315.972656 61.042969 Z M 312.113281 61.042969 "/>
<path style=" stroke:none;fill-rule:nonzero;fill:rgb(38.823529%,59.607843%,100%);fill-opacity:1;" d="M 312.113281 80.359375 L 312.113281 81.90625 L 313.65625 81.90625 L 313.65625 84.996094 L 312.113281 84.996094 L 312.113281 86.542969 L 315.972656 86.542969 L 315.972656 80.359375 Z M 312.113281 80.359375 "/>
<path style=" stroke:none;fill-rule:nonzero;fill:rgb(38.823529%,59.607843%,100%);fill-opacity:1;" d="M 312.113281 119.769531 L 312.113281 121.3125 L 313.65625 121.3125 L 313.65625 124.402344 L 312.113281 124.402344 L 312.113281 125.949219 L 315.972656 125.949219 L 315.972656 119.769531 Z M 312.113281 119.769531 "/>
<path style=" stroke:none;fill-rule:nonzero;fill:rgb(38.823529%,59.607843%,100%);fill-opacity:1;" d="M 356.09375 100.449219 L 359.953125 100.449219 L 359.953125 106.632812 L 356.09375 106.632812 Z M 356.09375 100.449219 "/>
<path style=" stroke:none;fill-rule:nonzero;fill:rgb(38.823529%,59.607843%,100%);fill-opacity:1;" d="M 356.09375 110.496094 L 359.953125 110.496094 L 359.953125 116.675781 L 356.09375 116.675781 Z M 356.09375 110.496094 "/>
<path style=" stroke:none;fill-rule:nonzero;fill:rgb(38.823529%,59.607843%,100%);fill-opacity:1;" d="M 354.550781 121.3125 L 359.953125 121.3125 L 359.953125 122.085938 L 354.550781 122.085938 Z M 354.550781 121.3125 "/>
<path style=" stroke:none;fill-rule:nonzero;fill:rgb(38.823529%,59.607843%,100%);fill-opacity:1;" d="M 354.550781 170.765625 L 359.953125 170.765625 L 359.953125 171.539062 L 354.550781 171.539062 Z M 354.550781 170.765625 "/>
<path style=" stroke:none;fill-rule:nonzero;fill:rgb(38.823529%,59.607843%,100%);fill-opacity:1;" d="M 354.550781 179.265625 L 359.953125 179.265625 L 359.953125 180.039062 L 354.550781 180.039062 Z M 354.550781 179.265625 "/>
<path style=" stroke:none;fill-rule:nonzero;fill:rgb(38.823529%,59.607843%,100%);fill-opacity:1;" d="M 356.09375 128.265625 L 356.09375 129.8125 L 357.640625 129.8125 L 357.640625 132.902344 L 356.09375 132.902344 L 356.09375 134.449219 L 359.953125 134.449219 L 359.953125 128.265625 Z M 356.09375 128.265625 "/>
<path style=" stroke:none;fill-rule:nonzero;fill:rgb(38.823529%,59.607843%,100%);fill-opacity:1;" d="M 356.09375 147.585938 L 356.09375 149.128906 L 357.640625 149.128906 L 357.640625 152.21875 L 356.09375 152.21875 L 356.09375 153.765625 L 359.953125 153.765625 L 359.953125 147.585938 Z M 356.09375 147.585938 "/>
<path style=" stroke:none;fill-rule:nonzero;fill:rgb(38.823529%,59.607843%,100%);fill-opacity:1;" d="M 356.09375 186.992188 L 356.09375 188.535156 L 357.640625 188.535156 L 357.640625 191.628906 L 356.09375 191.628906 L 356.09375 193.171875 L 359.953125 193.171875 L 359.953125 186.992188 Z M 356.09375 186.992188 "/>
<path style=" stroke:none;fill-rule:nonzero;fill:rgb(18.431373%,18.039216%,25.490196%);fill-opacity:1;" d="M 107.21875 353.765625 L 521.019531 353.765625 L 521.019531 355.042969 L 107.21875 355.042969 Z M 107.21875 353.765625 "/>
<path style=" stroke:none;fill-rule:nonzero;fill:rgb(18.431373%,18.039216%,25.490196%);fill-opacity:1;" d="M 192.75 202.453125 L 192.75 228.492188 L 196.25 244.515625 C 196.25 244.515625 195.75 254.527344 196.25 257.53125 C 196.75 260.535156 195.75 265.542969 192.75 265.542969 C 189.75 265.542969 188.25 273.054688 188.25 273.054688 C 188.25 273.054688 187.25 276.058594 184.75 276.558594 C 182.25 277.058594 182.25 276.558594 182.25 276.558594 L 180.25 281.566406 L 138.75 309.105469 L 146.75 329.132812 C 146.75 329.132812 159.25 324.628906 160.25 323.125 C 161.25 321.621094 169.75 325.128906 169.75 321.621094 C 169.75 318.117188 171.25 309.105469 174.25 308.605469 C 177.25 308.105469 202.25 296.585938 202.25 296.585938 C 202.25 296.585938 215.25 282.066406 216.25 276.558594 C 217.25 271.050781 221.75 255.53125 221.75 255.53125 L 234.25 276.558594 L 234.25 318.617188 L 232.25 341.148438 L 254.25 338.144531 C 254.25 338.144531 252.25 324.125 254.25 322.125 C 256.25 320.121094 259.25 296.085938 257.25 293.082031 C 255.25 290.078125 258.25 276.558594 257.25 274.554688 C 256.25 272.554688 256.75 258.03125 254.25 254.027344 C 251.75 250.023438 236.75 208.964844 236.75 208.964844 Z M 192.75 202.453125 "/>
<path style=" stroke:none;fill-rule:nonzero;fill:rgb(18.431373%,18.039216%,25.490196%);fill-opacity:1;" d="M 235.25 340.148438 C 235.25 340.148438 227.75 352.667969 232.75 354.167969 C 237.75 355.671875 247.25 354.167969 248.25 354.167969 C 249.25 354.167969 267.25 354.667969 267.25 354.667969 C 267.25 354.667969 279.25 352.164062 279.25 348.660156 C 279.25 345.15625 271.75 345.15625 269.25 344.65625 C 266.75 344.15625 251.25 338.144531 251.25 338.144531 Z M 235.25 340.148438 "/>
<path style=" stroke:none;fill-rule:nonzero;fill:rgb(18.431373%,18.039216%,25.490196%);fill-opacity:1;" d="M 141.046875 309.671875 C 141.046875 309.671875 126.59375 307.753906 127.207031 312.945312 C 127.816406 318.136719 132.96875 326.269531 133.367188 327.1875 C 133.636719 327.8125 136.792969 335.6875 138.804688 340.710938 C 140.257812 344.390625 142.441406 347.738281 145.222656 350.550781 C 147.1875 352.515625 149.328125 354.09375 150.734375 353.484375 C 153.945312 352.09375 150.964844 345.199219 150.429688 342.703125 C 149.894531 340.207031 149.242188 323.578125 149.242188 323.578125 Z M 141.046875 309.671875 "/>
<path style=" stroke:none;fill-rule:nonzero;fill:rgb(53.72549%,52.156863%,65.882353%);fill-opacity:1;" d="M 241.5 119.589844 L 257.5 82.535156 C 257.5 82.535156 256 79.03125 252.5 79.53125 C 252.5 79.53125 247.75 67.265625 238.75 67.265625 C 238.75 67.265625 225.25 59.753906 221.25 67.265625 C 221.25 67.265625 212.75 74.773438 213.25 81.785156 C 213.75 88.792969 214.25 93.800781 214.25 93.800781 C 214.25 93.800781 206.25 94.804688 207.75 98.808594 C 209.25 102.816406 209.75 102.816406 207.75 104.316406 L 205.75 105.820312 C 205.75 105.820312 164.25 143.371094 187.25 198.449219 L 189.25 206.960938 L 189.25 214.972656 C 189.25 214.972656 239.75 215.472656 239.75 214.972656 C 239.75 214.472656 238.75 211.46875 240.75 209.464844 C 242.75 207.460938 242.75 204.457031 242.75 204.457031 C 242.75 204.457031 240.75 194.445312 241.75 191.4375 C 242.75 188.433594 243.25 175.417969 241.25 172.414062 C 239.25 169.410156 240.25 145.375 240.25 145.375 L 244.75 136.863281 L 241.75 126.847656 Z M 241.5 119.589844 "/>
<use xlink:href="#surface5" mask="url(#mask0)"/>
<path style=" stroke:none;fill-rule:nonzero;fill:rgb(94.901961%,94.901961%,94.901961%);fill-opacity:1;" d="M 241.5 113.578125 C 241.5 114.410156 240.828125 115.082031 240 115.082031 C 239.171875 115.082031 238.5 114.410156 238.5 113.578125 C 238.5 112.75 239.171875 112.078125 240 112.078125 C 240.828125 112.078125 241.5 112.75 241.5 113.578125 Z M 241.5 113.578125 "/>
<path style=" stroke:none;fill-rule:nonzero;fill:rgb(24.705882%,23.921569%,33.72549%);fill-opacity:1;" d="M 239.5 113.578125 L 240.5 113.578125 L 240.5 137.113281 L 239.5 137.113281 Z M 239.5 113.578125 "/>
<path style=" stroke:none;fill-rule:nonzero;fill:rgb(100%,72.156863%,72.156863%);fill-opacity:1;" d="M 222 221.730469 L 226 230.242188 C 226 230.242188 235 227.238281 235 225.738281 C 235 224.234375 231 217.726562 231 217.726562 Z M 222 221.730469 "/>
<path style=" stroke:none;fill-rule:nonzero;fill:rgb(53.72549%,52.156863%,65.882353%);fill-opacity:1;" d="M 216.25 108.824219 C 216.25 108.824219 204.75 113.832031 202.75 133.359375 C 200.75 152.886719 209.75 202.957031 214.25 211.46875 C 218.75 219.980469 221.75 225.988281 221.75 225.988281 L 235.25 219.980469 C 235.25 219.980469 229.25 203.457031 229.75 200.453125 C 230.25 197.449219 228.75 191.4375 228.75 191.4375 L 226.75 150.882812 C 226.75 150.882812 235.25 114.832031 216.25 108.824219 Z M 216.25 108.824219 "/>
</g>
</svg>
