<?xml version="1.0" encoding="UTF-8"?>
<svg xmlns="http://www.w3.org/2000/svg" xmlns:xlink="http://www.w3.org/1999/xlink" width="444pt" height="387pt" viewBox="0 0 444 387" version="1.1">
<g id="surface1">
<path style=" stroke:none;fill-rule:nonzero;fill:rgb(90.196078%,90.196078%,90.196078%);fill-opacity:1;" d="M 443.886719 382.117188 L 126.132812 386.914062 L 0 364.53125 L 196.910156 364.53125 Z M 443.886719 382.117188 "/>
<path style=" stroke:none;fill-rule:nonzero;fill:rgb(100%,39.607843%,51.764706%);fill-opacity:1;" d="M 416.742188 50.894531 C 416.742188 79.003906 393.984375 101.792969 365.910156 101.792969 C 337.839844 101.792969 315.082031 79.003906 315.082031 50.894531 C 315.082031 22.785156 337.839844 0 365.910156 0 C 393.984375 0 416.742188 22.785156 416.742188 50.894531 Z M 416.742188 50.894531 "/>
<path style=" stroke:none;fill-rule:nonzero;fill:rgb(24.705882%,23.921569%,33.72549%);fill-opacity:1;" d="M 89.921875 367.191406 C 89.921875 367.191406 90.664062 351.59375 105.90625 353.40625 "/>
<path style=" stroke:none;fill-rule:nonzero;fill:rgb(38.823529%,59.607843%,100%);fill-opacity:1;" d="M 93.242188 344.707031 C 93.242188 348.925781 89.828125 352.347656 85.613281 352.347656 C 81.398438 352.347656 77.984375 348.925781 77.984375 344.707031 C 77.984375 340.488281 81.398438 337.070312 85.613281 337.070312 C 89.828125 337.070312 93.242188 340.488281 93.242188 344.707031 Z M 93.242188 344.707031 "/>
<path style=" stroke:none;fill-rule:nonzero;fill:rgb(24.705882%,23.921569%,33.72549%);fill-opacity:1;" d="M 84.371094 357.570312 L 86.527344 357.570312 L 86.527344 372.664062 L 84.371094 372.664062 Z M 84.371094 357.570312 "/>
<path style=" stroke:none;fill-rule:nonzero;fill:rgb(24.705882%,23.921569%,33.72549%);fill-opacity:1;" d="M 341.144531 369.855469 C 341.144531 369.855469 341.886719 354.257812 357.128906 356.070312 "/>
<path style=" stroke:none;fill-rule:nonzero;fill:rgb(38.823529%,59.607843%,100%);fill-opacity:1;" d="M 344.464844 347.375 C 344.464844 351.59375 341.050781 355.011719 336.835938 355.011719 C 332.625 355.011719 329.207031 351.59375 329.207031 347.375 C 329.207031 343.15625 332.625 339.734375 336.835938 339.734375 C 341.050781 339.734375 344.464844 343.15625 344.464844 347.375 Z M 344.464844 347.375 "/>
<path style=" stroke:none;fill-rule:nonzero;fill:rgb(24.705882%,23.921569%,33.72549%);fill-opacity:1;" d="M 335.59375 360.234375 L 337.75 360.234375 L 337.75 375.328125 L 335.59375 375.328125 Z M 335.59375 360.234375 "/>
<path style=" stroke:none;fill-rule:nonzero;fill:rgb(24.705882%,23.921569%,33.72549%);fill-opacity:1;" d="M 377.867188 372.519531 C 377.867188 372.519531 378.613281 356.921875 393.855469 358.734375 "/>
<path style=" stroke:none;fill-rule:nonzero;fill:rgb(38.823529%,59.607843%,100%);fill-opacity:1;" d="M 381.191406 350.039062 C 381.191406 354.257812 377.773438 357.675781 373.5625 357.675781 C 369.347656 357.675781 365.933594 354.257812 365.933594 350.039062 C 365.933594 345.820312 369.347656 342.398438 373.5625 342.398438 C 377.773438 342.398438 381.191406 345.820312 381.191406 350.039062 Z M 381.191406 350.039062 "/>
<path style=" stroke:none;fill-rule:nonzero;fill:rgb(24.705882%,23.921569%,33.72549%);fill-opacity:1;" d="M 372.320312 362.902344 L 374.472656 362.902344 L 374.472656 377.992188 L 372.320312 377.992188 Z M 372.320312 362.902344 "/>
<path style=" stroke:none;fill-rule:nonzero;fill:rgb(24.705882%,23.921569%,33.72549%);fill-opacity:1;" d="M 150.066406 359.730469 C 150.066406 359.730469 150.808594 344.132812 166.050781 345.945312 "/>
<path style=" stroke:none;fill-rule:nonzero;fill:rgb(38.823529%,59.607843%,100%);fill-opacity:1;" d="M 153.386719 337.246094 C 153.386719 341.464844 149.972656 344.886719 145.757812 344.886719 C 141.542969 344.886719 138.128906 341.464844 138.128906 337.246094 C 138.128906 333.027344 141.542969 329.609375 145.757812 329.609375 C 149.972656 329.609375 153.386719 333.027344 153.386719 337.246094 Z M 153.386719 337.246094 "/>
<path style=" stroke:none;fill-rule:nonzero;fill:rgb(24.705882%,23.921569%,33.72549%);fill-opacity:1;" d="M 144.515625 350.109375 L 146.671875 350.109375 L 146.671875 365.203125 L 144.515625 365.203125 Z M 144.515625 350.109375 "/>
<path style=" stroke:none;fill-rule:nonzero;fill:rgb(24.705882%,23.921569%,33.72549%);fill-opacity:1;" d="M 36.695312 362.394531 C 36.695312 362.394531 37.4375 346.796875 52.679688 348.609375 "/>
<path style=" stroke:none;fill-rule:nonzero;fill:rgb(38.823529%,59.607843%,100%);fill-opacity:1;" d="M 40.015625 339.910156 C 40.015625 344.128906 36.601562 347.550781 32.386719 347.550781 C 28.175781 347.550781 24.757812 344.128906 24.757812 339.910156 C 24.757812 335.695312 28.175781 332.273438 32.386719 332.273438 C 36.601562 332.273438 40.015625 335.695312 40.015625 339.910156 Z M 40.015625 339.910156 "/>
<path style=" stroke:none;fill-rule:nonzero;fill:rgb(24.705882%,23.921569%,33.72549%);fill-opacity:1;" d="M 31.148438 352.773438 L 33.300781 352.773438 L 33.300781 367.867188 L 31.148438 367.867188 Z M 31.148438 352.773438 "/>
<path style=" stroke:none;fill-rule:nonzero;fill:rgb(24.705882%,23.921569%,33.72549%);fill-opacity:1;" d="M 304.253906 252.066406 C 304.253906 298.027344 267.042969 335.289062 221.136719 335.289062 C 175.234375 335.289062 138.023438 298.027344 138.023438 252.066406 C 138.023438 206.105469 175.234375 168.84375 221.136719 168.84375 C 267.042969 168.84375 304.253906 206.105469 304.253906 252.066406 Z M 304.253906 252.066406 "/>
<path style=" stroke:none;fill-rule:nonzero;fill:rgb(100%,100%,100%);fill-opacity:1;" d="M 168.8125 258.746094 C 172.992188 253.738281 179.175781 250.84375 185.691406 250.84375 C 192.210938 250.84375 198.394531 253.738281 202.574219 258.746094 C 209.800781 251.839844 212.101562 241.222656 208.382812 231.9375 C 204.667969 222.652344 195.683594 216.566406 185.691406 216.566406 C 175.703125 216.566406 166.71875 222.652344 163 231.9375 C 159.285156 241.222656 161.585938 251.839844 168.8125 258.746094 Z M 168.8125 258.746094 "/>
<path style=" stroke:none;fill-rule:nonzero;fill:rgb(100%,100%,100%);fill-opacity:1;" d="M 234.816406 258.746094 C 238.992188 253.738281 245.175781 250.84375 251.695312 250.84375 C 258.214844 250.84375 264.394531 253.738281 268.574219 258.746094 C 275.800781 251.839844 278.101562 241.222656 274.386719 231.9375 C 270.671875 222.652344 261.6875 216.566406 251.695312 216.566406 C 241.703125 216.566406 232.71875 222.652344 229.003906 231.9375 C 225.289062 241.222656 227.589844 251.839844 234.816406 258.746094 Z M 234.816406 258.746094 "/>
<path style=" stroke:none;fill-rule:nonzero;fill:rgb(24.705882%,23.921569%,33.72549%);fill-opacity:1;" d="M 185.761719 232.707031 C 185.761719 237.359375 181.996094 241.128906 177.355469 241.128906 C 172.710938 241.128906 168.945312 237.359375 168.945312 232.707031 C 168.945312 228.058594 172.710938 224.289062 177.355469 224.289062 C 181.996094 224.289062 185.761719 228.058594 185.761719 232.707031 Z M 185.761719 232.707031 "/>
<path style=" stroke:none;fill-rule:nonzero;fill:rgb(24.705882%,23.921569%,33.72549%);fill-opacity:1;" d="M 251.761719 232.707031 C 251.761719 237.359375 247.996094 241.128906 243.355469 241.128906 C 238.710938 241.128906 234.945312 237.359375 234.945312 232.707031 C 234.945312 228.058594 238.710938 224.289062 243.355469 224.289062 C 247.996094 224.289062 251.761719 228.058594 251.761719 232.707031 Z M 251.761719 232.707031 "/>
<path style=" stroke:none;fill-rule:nonzero;fill:rgb(100%,39.607843%,51.764706%);fill-opacity:1;" d="M 171.027344 272.871094 C 171.027344 278.28125 166.648438 282.664062 161.246094 282.664062 C 155.847656 282.664062 151.46875 278.28125 151.46875 272.871094 C 151.46875 267.464844 155.847656 263.082031 161.246094 263.082031 C 166.648438 263.082031 171.027344 267.464844 171.027344 272.871094 Z M 171.027344 272.871094 "/>
<path style=" stroke:none;fill-rule:nonzero;fill:rgb(100%,39.607843%,51.764706%);fill-opacity:1;" d="M 283.472656 272.871094 C 283.472656 278.28125 279.097656 282.664062 273.695312 282.664062 C 268.296875 282.664062 263.917969 278.28125 263.917969 272.871094 C 263.917969 267.464844 268.296875 263.082031 273.695312 263.082031 C 279.097656 263.082031 283.472656 267.464844 283.472656 272.871094 Z M 283.472656 272.871094 "/>
<path style=" stroke:none;fill-rule:nonzero;fill:rgb(100%,39.607843%,51.764706%);fill-opacity:1;" d="M 217.472656 253.289062 L 210.136719 285.109375 L 222.359375 272.871094 Z M 217.472656 253.289062 "/>
<path style=" stroke:none;fill-rule:nonzero;fill:rgb(24.705882%,23.921569%,33.72549%);fill-opacity:1;" d="M 255.152344 375.675781 L 246.828125 368.679688 L 247.023438 375.675781 L 244.433594 375.675781 L 244.230469 368.277344 L 232.988281 375.675781 L 228.28125 375.675781 L 244.144531 365.234375 L 243.53125 343.3125 L 243.070312 326.753906 L 245.652344 326.683594 L 246.117188 343.3125 L 246.730469 365.214844 L 259.175781 375.675781 Z M 255.152344 375.675781 "/>
<path style=" stroke:none;fill-rule:nonzero;fill:rgb(24.705882%,23.921569%,33.72549%);fill-opacity:1;" d="M 216.039062 375.675781 L 207.710938 368.679688 L 207.90625 375.675781 L 205.328125 375.675781 L 205.121094 368.277344 L 193.878906 375.675781 L 189.171875 375.675781 L 205.03125 365.234375 L 204.414062 343.3125 L 203.957031 326.753906 L 206.542969 326.683594 L 207.007812 343.3125 L 207.613281 365.214844 L 220.058594 375.675781 Z M 216.039062 375.675781 "/>
<path style=" stroke:none;fill-rule:nonzero;fill:rgb(24.705882%,23.921569%,33.72549%);fill-opacity:1;" d="M 222.359375 162.726562 C 220.082031 162.726562 218.066406 164.5 216.722656 167.222656 C 215.539062 163.128906 213.046875 160.277344 210.136719 160.277344 C 209.941406 160.296875 209.746094 160.332031 209.550781 160.375 C 208.433594 156.003906 205.835938 152.933594 202.804688 152.933594 C 198.753906 152.933594 195.472656 158.414062 195.472656 165.171875 C 195.472656 171.933594 198.753906 177.410156 202.804688 177.410156 C 203.003906 177.390625 203.199219 177.359375 203.390625 177.3125 C 204.507812 181.6875 207.109375 184.753906 210.136719 184.753906 C 212.417969 184.753906 214.429688 182.980469 215.777344 180.257812 C 216.960938 184.355469 219.453125 187.203125 222.359375 187.203125 C 226.410156 187.203125 229.695312 181.722656 229.695312 174.964844 C 229.695312 168.207031 226.410156 162.726562 222.359375 162.726562 Z M 222.359375 162.726562 "/>
<path style=" stroke:none;fill-rule:nonzero;fill:rgb(38.823529%,59.607843%,100%);fill-opacity:1;" d="M 143.125 283.605469 C 129.625 283.605469 118.679688 272.644531 118.679688 259.128906 L 118.679688 246.886719 C 118.679688 233.371094 129.625 222.410156 143.125 222.410156 Z M 143.125 283.605469 "/>
<path style=" stroke:none;fill-rule:nonzero;fill:rgb(38.823529%,59.607843%,100%);fill-opacity:1;" d="M 299.152344 222.410156 C 312.652344 222.410156 323.597656 233.371094 323.597656 246.886719 L 323.597656 259.128906 C 323.597656 272.644531 312.652344 283.605469 299.152344 283.605469 Z M 299.152344 222.410156 "/>
<path style=" stroke:none;fill-rule:nonzero;fill:rgb(38.823529%,59.607843%,100%);fill-opacity:1;" d="M 311.960938 248.8125 L 308.082031 248.8125 C 308.082031 199.558594 268.066406 159.488281 218.875 159.488281 C 169.6875 159.488281 129.667969 199.558594 129.667969 248.8125 L 125.789062 248.8125 C 125.789062 197.417969 167.546875 155.605469 218.875 155.605469 C 270.203125 155.605469 311.960938 197.417969 311.960938 248.8125 Z M 311.960938 248.8125 "/>
<path style=" stroke:none;fill-rule:nonzero;fill:rgb(24.705882%,23.921569%,33.72549%);fill-opacity:1;" d="M 85.773438 173.960938 L 83.953125 173.199219 L 76.265625 169.945312 L 73.507812 168.78125 L 73.296875 169.3125 L 69.59375 178.671875 L 80.011719 183.089844 L 80.066406 183.136719 L 79.367188 184.796875 C 79.269531 184.945312 79.1875 185.105469 79.121094 185.273438 C 78.628906 186.515625 79.558594 187.753906 80.4375 188.101562 C 81.3125 188.449219 82.425781 187.726562 82.917969 186.480469 C 83.402344 185.253906 82.925781 183.695312 82.070312 183.320312 L 82.074219 183.320312 L 80.25 182.558594 L 74.015625 180.132812 L 77.578125 171.128906 L 77.050781 170.917969 L 73.488281 179.925781 L 72.71875 179.628906 L 76.292969 170.585938 L 76.386719 170.625 L 83.714844 173.730469 L 83.769531 173.777344 L 83.066406 175.4375 C 82.972656 175.589844 82.890625 175.75 82.824219 175.914062 C 82.332031 177.15625 83.257812 178.394531 84.136719 178.742188 C 85.015625 179.089844 86.125 178.367188 86.617188 177.121094 C 87.101562 175.894531 86.628906 174.335938 85.773438 173.960938 Z M 85.773438 173.960938 "/>
<path style=" stroke:none;fill-rule:nonzero;fill:rgb(24.705882%,23.921569%,33.72549%);fill-opacity:1;" d="M 121.832031 196.9375 C 118.050781 194.773438 118.808594 190.023438 118.808594 190.023438 C 118.714844 186.933594 116.167969 187.371094 116.167969 187.371094 L 115.238281 187.582031 C 114.808594 187.382812 114.335938 187.296875 113.859375 187.328125 L 112.449219 187.566406 C 115.660156 188.320312 115.398438 191.011719 115.398438 191.011719 L 115.847656 194.15625 L 107.433594 190.757812 L 108.402344 188.476562 C 108.535156 188.265625 108.648438 188.042969 108.742188 187.8125 C 109.425781 186.085938 108.132812 184.367188 106.914062 183.882812 C 105.695312 183.398438 104.152344 184.410156 103.46875 186.136719 C 102.796875 187.839844 103.453125 190.003906 104.640625 190.523438 L 104.640625 190.527344 L 107.171875 191.582031 L 107.191406 191.523438 Z M 117.5625 191.414062 L 117.832031 194.421875 C 116.878906 193.085938 116.429688 191.453125 116.566406 189.8125 C 116.546875 189.230469 116.351562 188.667969 116.003906 188.199219 C 117.085938 188.890625 117.6875 190.132812 117.5625 191.414062 Z M 117.5625 191.414062 "/>
<path style=" stroke:none;fill-rule:nonzero;fill:rgb(24.705882%,23.921569%,33.72549%);fill-opacity:1;" d="M 57.660156 152.425781 L 57.660156 152.421875 L 55.128906 151.367188 L 44.550781 147.25 L 47.222656 144.871094 C 48.308594 143.421875 50.339844 143.089844 51.832031 144.117188 L 51.003906 142.882812 C 51.003906 142.882812 49.445312 140.820312 47.265625 143.003906 C 47.265625 143.003906 44.566406 146.984375 40.332031 145.96875 L 54.800781 152.101562 L 54.875 152.171875 L 53.902344 154.472656 C 53.769531 154.683594 53.652344 154.90625 53.5625 155.136719 C 52.878906 156.863281 54.167969 158.582031 55.386719 159.066406 C 56.605469 159.550781 58.148438 158.542969 58.832031 156.816406 C 59.507812 155.113281 58.847656 152.949219 57.660156 152.425781 Z M 57.660156 152.425781 "/>
<path style=" stroke:none;fill-rule:nonzero;fill:rgb(24.705882%,23.921569%,33.72549%);fill-opacity:1;" d="M 96.382812 138.949219 L 95.40625 141.253906 C 95.273438 141.460938 95.160156 141.683594 95.066406 141.917969 C 94.382812 143.644531 95.675781 145.363281 96.894531 145.84375 C 98.113281 146.328125 99.65625 145.320312 100.339844 143.59375 C 101.011719 141.890625 100.355469 139.726562 99.167969 139.203125 L 96.636719 138.144531 L 87.980469 134.777344 L 92.925781 122.269531 L 92.191406 121.980469 L 87.242188 134.492188 L 86.171875 134.074219 L 91.140625 121.515625 L 91.273438 121.570312 L 101.449219 125.882812 L 101.523438 125.953125 L 100.550781 128.253906 C 100.414062 128.464844 100.300781 128.6875 100.210938 128.917969 C 99.527344 130.644531 100.816406 132.363281 102.035156 132.847656 C 103.253906 133.328125 104.796875 132.320312 105.480469 130.59375 C 106.15625 128.890625 105.496094 126.726562 104.308594 126.203125 L 101.777344 125.148438 L 91.4375 120.769531 L 91.433594 120.769531 L 91.101562 120.628906 L 87.273438 119.007812 L 81.835938 132.75 L 96.308594 138.882812 Z M 86.976562 119.75 Z M 86.976562 119.75 "/>
<path style=" stroke:none;fill-rule:nonzero;fill:rgb(24.705882%,23.921569%,33.72549%);fill-opacity:1;" d="M 50.527344 68.574219 L 50.527344 68.570312 L 46.171875 66.753906 L 27.964844 59.667969 L 32.558594 55.574219 C 32.558594 55.574219 35.617188 51.328125 40.492188 54.273438 L 39.066406 52.148438 C 39.066406 52.148438 36.386719 48.59375 32.632812 52.355469 C 32.632812 52.355469 27.988281 59.210938 20.695312 57.464844 L 45.605469 68.019531 L 45.734375 68.136719 L 44.058594 72.101562 C 43.828125 72.464844 43.632812 72.847656 43.472656 73.246094 C 42.296875 76.21875 44.515625 79.175781 46.617188 80.007812 C 48.714844 80.839844 51.371094 79.105469 52.546875 76.132812 C 53.707031 73.199219 52.574219 69.476562 50.527344 68.574219 Z M 50.527344 68.574219 "/>
<path style=" stroke:none;fill-rule:nonzero;fill:rgb(24.705882%,23.921569%,33.72549%);fill-opacity:1;" d="M 63.898438 128.109375 C 54.855469 122.929688 56.664062 111.570312 56.664062 111.570312 C 56.4375 104.191406 50.347656 105.238281 50.347656 105.238281 L 48.128906 105.742188 C 47.101562 105.265625 45.96875 105.054688 44.835938 105.132812 L 41.464844 105.699219 C 49.140625 107.507812 48.511719 113.9375 48.511719 113.9375 L 49.585938 121.453125 L 29.472656 113.328125 L 31.78125 107.878906 C 32.097656 107.375 32.371094 106.84375 32.59375 106.289062 C 34.226562 102.160156 31.140625 98.054688 28.226562 96.898438 C 25.308594 95.742188 21.621094 98.148438 19.988281 102.277344 C 18.378906 106.351562 19.953125 111.527344 22.792969 112.777344 L 22.792969 112.78125 L 28.84375 115.304688 L 28.886719 115.160156 Z M 53.683594 114.898438 L 54.328125 122.121094 C 50.53125 117.070312 51.308594 111.074219 51.308594 111.074219 C 51.253906 109.679688 50.785156 108.335938 49.960938 107.214844 C 54.324219 109.828125 53.683594 114.898438 53.683594 114.898438 Z M 53.683594 114.898438 "/>
</g>
</svg>
