<?xml version="1.0" encoding="UTF-8"?>
<svg xmlns="http://www.w3.org/2000/svg" xmlns:xlink="http://www.w3.org/1999/xlink" width="452pt" height="355pt" viewBox="0 0 452 355" version="1.1">
<defs>
<filter id="alpha" filterUnits="objectBoundingBox" x="0%" y="0%" width="100%" height="100%">
  <feColorMatrix type="matrix" in="SourceGraphic" values="0 0 0 0 1 0 0 0 0 1 0 0 0 0 1 0 0 0 1 0"/>
</filter>
<mask id="mask0">
  <g filter="url(#alpha)">
<rect x="0" y="0" width="452" height="355" style="fill:rgb(0%,0%,0%);fill-opacity:0.101961;stroke:none;"/>
  </g>
</mask>
<clipPath id="clip1">
  <rect x="0" y="0" width="452" height="355"/>
</clipPath>
<g id="surface5" clip-path="url(#clip1)">
<path style=" stroke:none;fill-rule:nonzero;fill:rgb(0%,0%,0%);fill-opacity:1;" d="M 238.425781 7.894531 L 255.828125 7.894531 L 255.828125 14.425781 L 238.425781 14.425781 Z M 238.425781 7.894531 "/>
</g>
<mask id="mask1">
  <g filter="url(#alpha)">
<rect x="0" y="0" width="452" height="355" style="fill:rgb(0%,0%,0%);fill-opacity:0.101961;stroke:none;"/>
  </g>
</mask>
<clipPath id="clip2">
  <rect x="0" y="0" width="452" height="355"/>
</clipPath>
<g id="surface8" clip-path="url(#clip2)">
<path style=" stroke:none;fill-rule:nonzero;fill:rgb(0%,0%,0%);fill-opacity:1;" d="M 238.425781 28.582031 L 255.828125 28.582031 L 255.828125 35.117188 L 238.425781 35.117188 Z M 238.425781 28.582031 "/>
</g>
<mask id="mask2">
  <g filter="url(#alpha)">
<rect x="0" y="0" width="452" height="355" style="fill:rgb(0%,0%,0%);fill-opacity:0.101961;stroke:none;"/>
  </g>
</mask>
<clipPath id="clip3">
  <rect x="0" y="0" width="452" height="355"/>
</clipPath>
<g id="surface11" clip-path="url(#clip3)">
<path style=" stroke:none;fill-rule:nonzero;fill:rgb(0%,0%,0%);fill-opacity:1;" d="M 238.425781 49.269531 L 255.828125 49.269531 L 255.828125 55.804688 L 238.425781 55.804688 Z M 238.425781 49.269531 "/>
</g>
<mask id="mask3">
  <g filter="url(#alpha)">
<rect x="0" y="0" width="452" height="355" style="fill:rgb(0%,0%,0%);fill-opacity:0.101961;stroke:none;"/>
  </g>
</mask>
<clipPath id="clip4">
  <rect x="0" y="0" width="452" height="355"/>
</clipPath>
<g id="surface14" clip-path="url(#clip4)">
<path style=" stroke:none;fill-rule:nonzero;fill:rgb(0%,0%,0%);fill-opacity:1;" d="M 238.425781 69.957031 L 255.828125 69.957031 L 255.828125 76.492188 L 238.425781 76.492188 Z M 238.425781 69.957031 "/>
</g>
<mask id="mask4">
  <g filter="url(#alpha)">
<rect x="0" y="0" width="452" height="355" style="fill:rgb(0%,0%,0%);fill-opacity:0.101961;stroke:none;"/>
  </g>
</mask>
<clipPath id="clip5">
  <rect x="0" y="0" width="452" height="355"/>
</clipPath>
<g id="surface17" clip-path="url(#clip5)">
<path style=" stroke:none;fill-rule:nonzero;fill:rgb(0%,0%,0%);fill-opacity:1;" d="M 238.425781 90.644531 L 255.828125 90.644531 L 255.828125 97.179688 L 238.425781 97.179688 Z M 238.425781 90.644531 "/>
</g>
<mask id="mask5">
  <g filter="url(#alpha)">
<rect x="0" y="0" width="452" height="355" style="fill:rgb(0%,0%,0%);fill-opacity:0.101961;stroke:none;"/>
  </g>
</mask>
<clipPath id="clip6">
  <rect x="0" y="0" width="452" height="355"/>
</clipPath>
<g id="surface20" clip-path="url(#clip6)">
<path style=" stroke:none;fill-rule:nonzero;fill:rgb(0%,0%,0%);fill-opacity:1;" d="M 238.425781 111.335938 L 255.828125 111.335938 L 255.828125 117.867188 L 238.425781 117.867188 Z M 238.425781 111.335938 "/>
</g>
<mask id="mask6">
  <g filter="url(#alpha)">
<rect x="0" y="0" width="452" height="355" style="fill:rgb(0%,0%,0%);fill-opacity:0.101961;stroke:none;"/>
  </g>
</mask>
<clipPath id="clip7">
  <rect x="0" y="0" width="452" height="355"/>
</clipPath>
<g id="surface23" clip-path="url(#clip7)">
<path style=" stroke:none;fill-rule:nonzero;fill:rgb(0%,0%,0%);fill-opacity:1;" d="M 238.425781 132.023438 L 255.828125 132.023438 L 255.828125 138.554688 L 238.425781 138.554688 Z M 238.425781 132.023438 "/>
</g>
<mask id="mask7">
  <g filter="url(#alpha)">
<rect x="0" y="0" width="452" height="355" style="fill:rgb(0%,0%,0%);fill-opacity:0.101961;stroke:none;"/>
  </g>
</mask>
<clipPath id="clip8">
  <rect x="0" y="0" width="452" height="355"/>
</clipPath>
<g id="surface26" clip-path="url(#clip8)">
<path style=" stroke:none;fill-rule:nonzero;fill:rgb(0%,0%,0%);fill-opacity:1;" d="M 238.425781 152.710938 L 255.828125 152.710938 L 255.828125 159.242188 L 238.425781 159.242188 Z M 238.425781 152.710938 "/>
</g>
<mask id="mask8">
  <g filter="url(#alpha)">
<rect x="0" y="0" width="452" height="355" style="fill:rgb(0%,0%,0%);fill-opacity:0.101961;stroke:none;"/>
  </g>
</mask>
<clipPath id="clip9">
  <rect x="0" y="0" width="452" height="355"/>
</clipPath>
<g id="surface29" clip-path="url(#clip9)">
<path style=" stroke:none;fill-rule:nonzero;fill:rgb(0%,0%,0%);fill-opacity:1;" d="M 255.828125 2.722656 C 255.828125 1.21875 251.929688 0 247.125 0 C 242.320312 0 238.425781 1.21875 238.425781 2.722656 C 238.425781 4.226562 242.320312 5.445312 247.125 5.445312 C 251.929688 5.445312 255.828125 4.226562 255.828125 2.722656 Z M 255.828125 2.722656 "/>
</g>
<mask id="mask9">
  <g filter="url(#alpha)">
<rect x="0" y="0" width="452" height="355" style="fill:rgb(0%,0%,0%);fill-opacity:0.101961;stroke:none;"/>
  </g>
</mask>
<clipPath id="clip10">
  <rect x="0" y="0" width="452" height="355"/>
</clipPath>
<g id="surface32" clip-path="url(#clip10)">
<path style=" stroke:none;fill-rule:nonzero;fill:rgb(0%,0%,0%);fill-opacity:1;" d="M 317.179688 34.871094 L 321.308594 29.8125 L 334.785156 40.835938 L 330.65625 45.894531 Z M 317.179688 34.871094 "/>
</g>
<mask id="mask10">
  <g filter="url(#alpha)">
<rect x="0" y="0" width="452" height="355" style="fill:rgb(0%,0%,0%);fill-opacity:0.101961;stroke:none;"/>
  </g>
</mask>
<clipPath id="clip11">
  <rect x="0" y="0" width="452" height="355"/>
</clipPath>
<g id="surface35" clip-path="url(#clip11)">
<path style=" stroke:none;fill-rule:nonzero;fill:rgb(0%,0%,0%);fill-opacity:1;" d="M 304.105469 50.890625 L 308.234375 45.832031 L 321.707031 56.855469 L 317.578125 61.914062 Z M 304.105469 50.890625 "/>
</g>
<mask id="mask11">
  <g filter="url(#alpha)">
<rect x="0" y="0" width="452" height="355" style="fill:rgb(0%,0%,0%);fill-opacity:0.101961;stroke:none;"/>
  </g>
</mask>
<clipPath id="clip12">
  <rect x="0" y="0" width="452" height="355"/>
</clipPath>
<g id="surface38" clip-path="url(#clip12)">
<path style=" stroke:none;fill-rule:nonzero;fill:rgb(0%,0%,0%);fill-opacity:1;" d="M 291.027344 66.910156 L 295.15625 61.851562 L 308.632812 72.875 L 304.503906 77.933594 Z M 291.027344 66.910156 "/>
</g>
<mask id="mask12">
  <g filter="url(#alpha)">
<rect x="0" y="0" width="452" height="355" style="fill:rgb(0%,0%,0%);fill-opacity:0.101961;stroke:none;"/>
  </g>
</mask>
<clipPath id="clip13">
  <rect x="0" y="0" width="452" height="355"/>
</clipPath>
<g id="surface41" clip-path="url(#clip13)">
<path style=" stroke:none;fill-rule:nonzero;fill:rgb(0%,0%,0%);fill-opacity:1;" d="M 277.953125 82.929688 L 282.082031 77.871094 L 295.554688 88.894531 L 291.425781 93.953125 Z M 277.953125 82.929688 "/>
</g>
<mask id="mask13">
  <g filter="url(#alpha)">
<rect x="0" y="0" width="452" height="355" style="fill:rgb(0%,0%,0%);fill-opacity:0.101961;stroke:none;"/>
  </g>
</mask>
<clipPath id="clip14">
  <rect x="0" y="0" width="452" height="355"/>
</clipPath>
<g id="surface44" clip-path="url(#clip14)">
<path style=" stroke:none;fill-rule:nonzero;fill:rgb(0%,0%,0%);fill-opacity:1;" d="M 264.875 98.949219 L 269.003906 93.890625 L 282.480469 104.914062 L 278.351562 109.972656 Z M 264.875 98.949219 "/>
</g>
<mask id="mask14">
  <g filter="url(#alpha)">
<rect x="0" y="0" width="452" height="355" style="fill:rgb(0%,0%,0%);fill-opacity:0.101961;stroke:none;"/>
  </g>
</mask>
<clipPath id="clip15">
  <rect x="0" y="0" width="452" height="355"/>
</clipPath>
<g id="surface47" clip-path="url(#clip15)">
<path style=" stroke:none;fill-rule:nonzero;fill:rgb(0%,0%,0%);fill-opacity:1;" d="M 251.796875 114.96875 L 255.929688 109.910156 L 269.402344 120.933594 L 265.273438 125.992188 Z M 251.796875 114.96875 "/>
</g>
<mask id="mask15">
  <g filter="url(#alpha)">
<rect x="0" y="0" width="452" height="355" style="fill:rgb(0%,0%,0%);fill-opacity:0.101961;stroke:none;"/>
  </g>
</mask>
<clipPath id="clip16">
  <rect x="0" y="0" width="452" height="355"/>
</clipPath>
<g id="surface50" clip-path="url(#clip16)">
<path style=" stroke:none;fill-rule:nonzero;fill:rgb(0%,0%,0%);fill-opacity:1;" d="M 238.722656 130.988281 L 242.851562 125.929688 L 256.328125 136.953125 L 252.195312 142.011719 Z M 238.722656 130.988281 "/>
</g>
<mask id="mask16">
  <g filter="url(#alpha)">
<rect x="0" y="0" width="452" height="355" style="fill:rgb(0%,0%,0%);fill-opacity:0.101961;stroke:none;"/>
  </g>
</mask>
<clipPath id="clip17">
  <rect x="0" y="0" width="452" height="355"/>
</clipPath>
<g id="surface53" clip-path="url(#clip17)">
<path style=" stroke:none;fill-rule:nonzero;fill:rgb(0%,0%,0%);fill-opacity:1;" d="M 225.644531 147.007812 L 229.773438 141.949219 L 243.25 152.972656 L 239.121094 158.03125 Z M 225.644531 147.007812 "/>
</g>
<mask id="mask17">
  <g filter="url(#alpha)">
<rect x="0" y="0" width="452" height="355" style="fill:rgb(0%,0%,0%);fill-opacity:0.101961;stroke:none;"/>
  </g>
</mask>
<clipPath id="clip18">
  <rect x="0" y="0" width="452" height="355"/>
</clipPath>
<g id="surface56" clip-path="url(#clip18)">
<path style=" stroke:none;fill-rule:nonzero;fill:rgb(0%,0%,0%);fill-opacity:1;" d="M 333.035156 29.210938 C 329.316406 26.167969 325.527344 24.640625 324.578125 25.808594 C 323.628906 26.972656 325.875 30.382812 329.597656 33.425781 C 333.316406 36.46875 337.105469 37.996094 338.054688 36.832031 C 339.003906 35.667969 336.757812 32.253906 333.035156 29.210938 Z M 333.035156 29.210938 "/>
</g>
<mask id="mask18">
  <g filter="url(#alpha)">
<rect x="0" y="0" width="452" height="355" style="fill:rgb(0%,0%,0%);fill-opacity:0.2;stroke:none;"/>
  </g>
</mask>
<clipPath id="clip19">
  <rect x="0" y="0" width="452" height="355"/>
</clipPath>
<g id="surface59" clip-path="url(#clip19)">
<path style=" stroke:none;fill-rule:nonzero;fill:rgb(0%,0%,0%);fill-opacity:1;" d="M 44.859375 179.460938 L 37.386719 192.722656 L 38.746094 193.402344 Z M 44.859375 179.460938 "/>
</g>
<mask id="mask19">
  <g filter="url(#alpha)">
<rect x="0" y="0" width="452" height="355" style="fill:rgb(0%,0%,0%);fill-opacity:0.2;stroke:none;"/>
  </g>
</mask>
<clipPath id="clip20">
  <rect x="0" y="0" width="452" height="355"/>
</clipPath>
<g id="surface62" clip-path="url(#clip20)">
<path style=" stroke:none;fill-rule:nonzero;fill:rgb(0%,0%,0%);fill-opacity:1;" d="M 49.277344 247.722656 L 59.140625 209.300781 L 59.800781 209.472656 L 49.933594 247.890625 Z M 49.277344 247.722656 "/>
</g>
</defs>
<g id="surface1">
<path style=" stroke:none;fill-rule:nonzero;fill:rgb(81.568627%,80.392157%,88.235294%);fill-opacity:1;" d="M 428.726562 333.585938 L 448.285156 306.046875 L 428.6875 336.601562 L 428.644531 339.753906 C 427.269531 339.730469 425.910156 339.671875 424.5625 339.578125 C 424.566406 338.863281 426.597656 299.464844 426.535156 298.75 C 426.632812 298.726562 426.722656 295.023438 426.761719 294.863281 L 406.921875 264.359375 L 426.8125 291.996094 L 426.863281 292.808594 L 428.367188 262.195312 L 411.367188 230.664062 L 428.554688 256.816406 C 428.566406 256.398438 430.015625 193.53125 430.027344 193.144531 C 430.03125 193.351562 429.90625 243.183594 429.90625 243.394531 L 446.667969 223.503906 L 429.847656 247.703125 L 429.492188 275.113281 L 445.121094 248.761719 C 425.558594 287.222656 429.9375 273.738281 429.242188 294.378906 L 451.929688 257.699219 L 429.167969 299.695312 Z M 428.726562 333.585938 "/>
<path style=" stroke:none;fill-rule:nonzero;fill:rgb(81.568627%,80.392157%,88.235294%);fill-opacity:1;" d="M 449.003906 344.5 C 449.003906 338.699219 348.492188 334 224.5 334 C 100.511719 334 0 338.699219 0 344.5 C 0 350.300781 100.511719 355 224.5 355 C 348.492188 355 449.003906 350.300781 449.003906 344.5 Z M 449.003906 344.5 "/>
<path style=" stroke:none;fill-rule:nonzero;fill:rgb(62.745098%,38.039216%,41.568627%);fill-opacity:1;" d="M 255.828125 3.8125 L 255.828125 163.328125 C 255.828125 168.136719 251.929688 172.039062 247.125 172.039062 C 242.320312 172.039062 238.425781 168.136719 238.425781 163.328125 L 238.425781 3.8125 C 238.425781 -1 242.316406 2.722656 247.125 2.722656 C 249.527344 2.722656 249.355469 0.0585938 250.933594 1.632812 C 252.503906 3.210938 255.828125 1.40625 255.828125 3.8125 Z M 255.828125 3.8125 "/>
<use xlink:href="#surface5" mask="url(#mask0)"/>
<use xlink:href="#surface8" mask="url(#mask1)"/>
<use xlink:href="#surface11" mask="url(#mask2)"/>
<use xlink:href="#surface14" mask="url(#mask3)"/>
<use xlink:href="#surface17" mask="url(#mask4)"/>
<use xlink:href="#surface20" mask="url(#mask5)"/>
<use xlink:href="#surface23" mask="url(#mask6)"/>
<use xlink:href="#surface26" mask="url(#mask7)"/>
<path style=" stroke:none;fill-rule:nonzero;fill:rgb(62.745098%,38.039216%,41.568627%);fill-opacity:1;" d="M 255.828125 2.722656 C 255.828125 1.21875 251.929688 0 247.125 0 C 242.320312 0 238.425781 1.21875 238.425781 2.722656 C 238.425781 4.226562 242.320312 5.445312 247.125 5.445312 C 251.929688 5.445312 255.828125 4.226562 255.828125 2.722656 Z M 255.828125 2.722656 "/>
<use xlink:href="#surface29" mask="url(#mask8)"/>
<path style=" stroke:none;fill-rule:nonzero;fill:rgb(62.745098%,38.039216%,41.568627%);fill-opacity:1;" d="M 337.367188 37.671875 L 236.539062 161.191406 C 233.5 164.917969 228.015625 165.472656 224.296875 162.425781 C 220.574219 159.382812 220.023438 153.894531 223.066406 150.167969 L 323.890625 26.648438 C 326.933594 22.921875 327.59375 28.273438 331.316406 31.320312 C 333.179688 32.839844 334.726562 30.667969 334.953125 32.886719 C 335.171875 35.105469 338.886719 35.808594 337.367188 37.671875 Z M 337.367188 37.671875 "/>
<use xlink:href="#surface32" mask="url(#mask9)"/>
<use xlink:href="#surface35" mask="url(#mask10)"/>
<use xlink:href="#surface38" mask="url(#mask11)"/>
<use xlink:href="#surface41" mask="url(#mask12)"/>
<use xlink:href="#surface44" mask="url(#mask13)"/>
<use xlink:href="#surface47" mask="url(#mask14)"/>
<use xlink:href="#surface50" mask="url(#mask15)"/>
<use xlink:href="#surface53" mask="url(#mask16)"/>
<path style=" stroke:none;fill-rule:nonzero;fill:rgb(62.745098%,38.039216%,41.568627%);fill-opacity:1;" d="M 333.035156 29.210938 C 329.316406 26.167969 325.527344 24.640625 324.578125 25.808594 C 323.628906 26.972656 325.875 30.382812 329.597656 33.425781 C 333.316406 36.46875 337.105469 37.996094 338.054688 36.832031 C 339.003906 35.667969 336.757812 32.253906 333.035156 29.210938 Z M 333.035156 29.210938 "/>
<use xlink:href="#surface56" mask="url(#mask17)"/>
<path style=" stroke:none;fill-rule:nonzero;fill:rgb(24.705882%,23.921569%,33.72549%);fill-opacity:1;" d="M 336.539062 185.648438 L 313.253906 185.648438 L 313.421875 181.289062 L 314.421875 155.523438 L 314.921875 142.726562 L 152.773438 142.726562 L 153.027344 149.273438 L 153.691406 166.355469 L 154.953125 198.761719 L 155.796875 220.339844 L 156.882812 248.246094 L 157.808594 272.082031 L 158.074219 278.933594 L 158.078125 279.015625 L 158.210938 282.429688 L 158.546875 290.984375 L 158.582031 291.9375 L 158.808594 297.738281 L 158.847656 298.785156 L 159.179688 307.21875 L 159.472656 314.816406 L 159.574219 317.441406 L 159.625 318.632812 L 159.667969 319.789062 C 159.664062 323.707031 160.421875 327.585938 161.910156 331.210938 C 162.296875 332.171875 162.738281 333.109375 163.230469 334.019531 C 166.8125 340.71875 172.789062 345.816406 179.964844 348.300781 C 180.910156 348.632812 181.875 348.914062 182.851562 349.144531 C 185.128906 349.6875 187.464844 349.957031 189.804688 349.957031 L 277.882812 349.957031 C 282.3125 349.960938 286.691406 348.988281 290.703125 347.101562 C 295.164062 344.988281 299.046875 341.816406 302.011719 337.863281 C 303.273438 336.1875 304.351562 334.382812 305.234375 332.480469 C 305.304688 332.328125 305.375 332.175781 305.433594 332.023438 C 306.933594 328.660156 307.796875 325.046875 307.980469 321.367188 C 308.007812 320.84375 308.023438 320.316406 308.023438 319.789062 L 308.304688 312.519531 L 308.652344 303.597656 L 308.6875 302.710938 L 309.046875 293.445312 L 336.539062 293.445312 C 356.828125 293.421875 373.269531 276.960938 373.292969 256.648438 L 373.292969 222.441406 C 373.269531 202.132812 356.828125 185.671875 336.539062 185.648438 Z M 351.539062 256.648438 C 351.53125 264.941406 344.820312 271.65625 336.539062 271.667969 L 309.898438 271.667969 L 309.902344 271.570312 L 310.152344 265.132812 L 310.34375 260.222656 L 311.421875 232.597656 L 312.402344 207.425781 L 336.539062 207.425781 C 344.820312 207.433594 351.53125 214.152344 351.539062 222.441406 Z M 351.539062 256.648438 "/>
<path style=" stroke:none;fill-rule:nonzero;fill:rgb(81.568627%,80.392157%,88.235294%);fill-opacity:1;" d="M 209.378906 25.273438 C 209.378906 35 201.5 42.886719 191.78125 42.886719 C 182.0625 42.886719 174.1875 35 174.1875 25.273438 C 174.1875 15.542969 182.0625 7.65625 191.78125 7.65625 C 201.5 7.65625 209.378906 15.542969 209.378906 25.273438 Z M 209.378906 25.273438 "/>
<path style=" stroke:none;fill-rule:nonzero;fill:rgb(81.568627%,80.392157%,88.235294%);fill-opacity:1;" d="M 226.996094 60.449219 C 226.996094 73.8125 216.179688 84.644531 202.832031 84.644531 C 189.484375 84.644531 178.667969 73.8125 178.667969 60.449219 C 178.667969 47.089844 189.484375 36.257812 202.832031 36.257812 C 216.179688 36.257812 226.996094 47.089844 226.996094 60.449219 Z M 226.996094 60.449219 "/>
<path style=" stroke:none;fill-rule:nonzero;fill:rgb(38.823529%,59.607843%,100%);fill-opacity:1;" d="M 209.945312 33.34375 L 182.171875 42.085938 C 181.746094 42.21875 181.507812 42.675781 181.644531 43.105469 L 182.140625 44.691406 C 182.277344 45.121094 182.730469 45.355469 183.160156 45.222656 L 187.878906 43.738281 L 188.511719 44.050781 L 190.976562 66.847656 L 194.882812 69.601562 L 192.222656 45.878906 L 210.128906 54.707031 L 213.945312 52.765625 L 192.671875 42.226562 L 210.929688 36.480469 C 211.359375 36.34375 211.59375 35.890625 211.460938 35.460938 L 210.960938 33.875 C 210.828125 33.445312 210.371094 33.207031 209.945312 33.34375 Z M 209.945312 33.34375 "/>
<path style=" stroke:none;fill-rule:nonzero;fill:rgb(38.823529%,59.607843%,100%);fill-opacity:1;" d="M 180.074219 19.847656 C 180.074219 19.847656 186.132812 13.984375 185.730469 12.699219 C 185.328125 11.414062 181.289062 8.445312 176.152344 10.0625 C 176.152344 10.0625 174.140625 8.152344 173.167969 10.4375 C 172.191406 12.722656 174.90625 13.28125 174.90625 13.28125 C 174.90625 13.28125 173.535156 18.800781 178.53125 20.332031 Z M 180.074219 19.847656 "/>
<path style=" stroke:none;fill-rule:nonzero;fill:rgb(24.705882%,23.921569%,33.72549%);fill-opacity:1;" d="M 185.867188 23.882812 C 185.867188 24.664062 185.238281 25.292969 184.460938 25.292969 C 183.683594 25.292969 183.050781 24.664062 183.050781 23.882812 C 183.050781 23.105469 183.683594 22.476562 184.460938 22.476562 C 185.238281 22.476562 185.867188 23.105469 185.867188 23.882812 Z M 185.867188 23.882812 "/>
<path style=" stroke:none;fill-rule:nonzero;fill:rgb(24.705882%,23.921569%,33.72549%);fill-opacity:1;" d="M 198.402344 19.9375 C 198.402344 20.71875 197.769531 21.347656 196.992188 21.347656 C 196.214844 21.347656 195.585938 20.71875 195.585938 19.9375 C 195.585938 19.160156 196.214844 18.53125 196.992188 18.53125 C 197.769531 18.53125 198.402344 19.160156 198.402344 19.9375 Z M 198.402344 19.9375 "/>
<path style=" stroke:none;fill-rule:nonzero;fill:rgb(100%,39.607843%,51.764706%);fill-opacity:1;" d="M 190.410156 25.210938 L 192.871094 24.4375 L 195.265625 32.054688 L 192.804688 32.832031 Z M 190.410156 25.210938 "/>
<path style=" stroke:none;fill-rule:nonzero;fill:rgb(24.705882%,23.921569%,33.72549%);fill-opacity:1;" d="M 202.082031 52.019531 C 202.082031 52.796875 201.453125 53.429688 200.675781 53.429688 C 199.898438 53.429688 199.269531 52.796875 199.269531 52.019531 C 199.269531 51.242188 199.898438 50.609375 200.675781 50.609375 C 201.453125 50.609375 202.082031 51.242188 202.082031 52.019531 Z M 202.082031 52.019531 "/>
<path style=" stroke:none;fill-rule:nonzero;fill:rgb(24.705882%,23.921569%,33.72549%);fill-opacity:1;" d="M 203.632812 56.949219 C 203.632812 57.726562 203 58.359375 202.222656 58.359375 C 201.445312 58.359375 200.816406 57.726562 200.816406 56.949219 C 200.816406 56.171875 201.445312 55.539062 202.222656 55.539062 C 203 55.539062 203.632812 56.171875 203.632812 56.949219 Z M 203.632812 56.949219 "/>
<path style=" stroke:none;fill-rule:nonzero;fill:rgb(24.705882%,23.921569%,33.72549%);fill-opacity:1;" d="M 205.179688 61.878906 C 205.179688 62.65625 204.550781 63.289062 203.773438 63.289062 C 202.996094 63.289062 202.363281 62.65625 202.363281 61.878906 C 202.363281 61.101562 202.996094 60.46875 203.773438 60.46875 C 204.550781 60.46875 205.179688 61.101562 205.179688 61.878906 Z M 205.179688 61.878906 "/>
<path style=" stroke:none;fill-rule:nonzero;fill:rgb(24.705882%,23.921569%,33.72549%);fill-opacity:1;" d="M 194.914062 35.242188 C 192.671875 35.917969 190.296875 36.023438 188.003906 35.542969 L 188.09375 35.082031 C 192.597656 36.078125 197.292969 34.601562 200.414062 31.203125 L 200.75 31.53125 C 199.144531 33.234375 197.136719 34.511719 194.914062 35.242188 Z M 194.914062 35.242188 "/>
<path style=" stroke:none;fill-rule:nonzero;fill:rgb(100%,39.607843%,51.764706%);fill-opacity:1;" d="M 203.015625 22.84375 C 203.015625 23.492188 202.488281 24.019531 201.839844 24.019531 C 201.191406 24.019531 200.667969 23.492188 200.667969 22.84375 C 200.667969 22.195312 201.191406 21.671875 201.839844 21.671875 C 202.488281 21.671875 203.015625 22.195312 203.015625 22.84375 Z M 203.015625 22.84375 "/>
<path style=" stroke:none;fill-rule:nonzero;fill:rgb(100%,39.607843%,51.764706%);fill-opacity:1;" d="M 183.320312 29.046875 C 183.320312 29.695312 182.792969 30.21875 182.144531 30.21875 C 181.496094 30.21875 180.972656 29.695312 180.972656 29.046875 C 180.972656 28.398438 181.496094 27.871094 182.144531 27.871094 C 182.792969 27.871094 183.320312 28.398438 183.320312 29.046875 Z M 183.320312 29.046875 "/>
<path style=" stroke:none;fill-rule:nonzero;fill:rgb(81.568627%,80.392157%,88.235294%);fill-opacity:1;" d="M 259.101562 207.1875 C 259.101562 208.714844 257.863281 209.953125 256.339844 209.953125 C 254.8125 209.953125 253.578125 208.714844 253.578125 207.1875 C 253.578125 205.660156 254.8125 204.421875 256.339844 204.421875 C 257.863281 204.421875 259.101562 205.660156 259.101562 207.1875 Z M 259.101562 207.1875 "/>
<path style=" stroke:none;fill-rule:nonzero;fill:rgb(81.568627%,80.392157%,88.235294%);fill-opacity:1;" d="M 267.800781 252.917969 C 267.800781 254.445312 266.566406 255.683594 265.039062 255.683594 C 263.515625 255.683594 262.277344 254.445312 262.277344 252.917969 C 262.277344 251.390625 263.515625 250.152344 265.039062 250.152344 C 266.566406 250.152344 267.800781 251.390625 267.800781 252.917969 Z M 267.800781 252.917969 "/>
<path style=" stroke:none;fill-rule:nonzero;fill:rgb(81.568627%,80.392157%,88.235294%);fill-opacity:1;" d="M 213.421875 264.351562 C 213.421875 265.878906 212.183594 267.117188 210.660156 267.117188 C 209.132812 267.117188 207.894531 265.878906 207.894531 264.351562 C 207.894531 262.824219 209.132812 261.585938 210.660156 261.585938 C 212.183594 261.585938 213.421875 262.824219 213.421875 264.351562 Z M 213.421875 264.351562 "/>
<path style=" stroke:none;fill-rule:nonzero;fill:rgb(81.568627%,80.392157%,88.235294%);fill-opacity:1;" d="M 241.15625 316.617188 C 241.15625 318.144531 239.917969 319.382812 238.394531 319.382812 C 236.867188 319.382812 235.632812 318.144531 235.632812 316.617188 C 235.632812 315.089844 236.867188 313.851562 238.394531 313.851562 C 239.917969 313.851562 241.15625 315.089844 241.15625 316.617188 Z M 241.15625 316.617188 "/>
<path style=" stroke:none;fill-rule:nonzero;fill:rgb(81.568627%,80.392157%,88.235294%);fill-opacity:1;" d="M 179.160156 274.695312 C 179.160156 276.222656 177.921875 277.460938 176.398438 277.460938 C 174.871094 277.460938 173.636719 276.222656 173.636719 274.695312 C 173.636719 273.167969 174.871094 271.929688 176.398438 271.929688 C 177.921875 271.929688 179.160156 273.167969 179.160156 274.695312 Z M 179.160156 274.695312 "/>
<path style=" stroke:none;fill-rule:nonzero;fill:rgb(81.568627%,80.392157%,88.235294%);fill-opacity:1;" d="M 176.984375 221.339844 C 176.984375 222.867188 175.746094 224.105469 174.222656 224.105469 C 172.695312 224.105469 171.460938 222.867188 171.460938 221.339844 C 171.460938 219.816406 172.695312 218.578125 174.222656 218.578125 C 175.746094 218.578125 176.984375 219.816406 176.984375 221.339844 Z M 176.984375 221.339844 "/>
<path style=" stroke:none;fill-rule:nonzero;fill:rgb(81.568627%,80.392157%,88.235294%);fill-opacity:1;" d="M 291.730469 200.109375 C 291.730469 201.636719 290.492188 202.875 288.96875 202.875 C 287.441406 202.875 286.207031 201.636719 286.207031 200.109375 C 286.207031 198.582031 287.441406 197.34375 288.96875 197.34375 C 290.492188 197.34375 291.730469 198.582031 291.730469 200.109375 Z M 291.730469 200.109375 "/>
<path style=" stroke:none;fill-rule:nonzero;fill:rgb(81.568627%,80.392157%,88.235294%);fill-opacity:1;" d="M 205.261719 313.894531 C 205.261719 315.421875 204.027344 316.660156 202.5 316.660156 C 200.976562 316.660156 199.738281 315.421875 199.738281 313.894531 C 199.738281 312.367188 200.976562 311.128906 202.5 311.128906 C 204.027344 311.128906 205.261719 312.367188 205.261719 313.894531 Z M 205.261719 313.894531 "/>
<path style=" stroke:none;fill-rule:nonzero;fill:rgb(81.568627%,80.392157%,88.235294%);fill-opacity:1;" d="M 192.648438 187.585938 C 192.648438 189.65625 190.972656 191.335938 188.90625 191.335938 C 186.835938 191.335938 185.160156 189.65625 185.160156 187.585938 C 185.160156 185.515625 186.835938 183.839844 188.90625 183.839844 C 190.972656 183.839844 192.648438 185.515625 192.648438 187.585938 Z M 192.648438 187.585938 "/>
<path style=" stroke:none;fill-rule:nonzero;fill:rgb(81.568627%,80.392157%,88.235294%);fill-opacity:1;" d="M 229.628906 226.785156 C 229.628906 228.855469 227.953125 230.535156 225.886719 230.535156 C 223.816406 230.535156 222.140625 228.855469 222.140625 226.785156 C 222.140625 224.714844 223.816406 223.039062 225.886719 223.039062 C 227.953125 223.039062 229.628906 224.714844 229.628906 226.785156 Z M 229.628906 226.785156 "/>
<path style=" stroke:none;fill-rule:nonzero;fill:rgb(81.568627%,80.392157%,88.235294%);fill-opacity:1;" d="M 277.484375 305.726562 C 277.484375 307.796875 275.808594 309.476562 273.742188 309.476562 C 271.671875 309.476562 269.996094 307.796875 269.996094 305.726562 C 269.996094 303.65625 271.671875 301.980469 273.742188 301.980469 C 275.808594 301.980469 277.484375 303.65625 277.484375 305.726562 Z M 277.484375 305.726562 "/>
<path style=" stroke:none;fill-rule:nonzero;fill:rgb(62.745098%,38.039216%,41.568627%);fill-opacity:1;" d="M 315.101562 142.726562 C 315.101562 137.277344 278.722656 132.859375 233.847656 132.859375 C 188.96875 132.859375 152.589844 137.277344 152.589844 142.726562 C 152.589844 148.175781 188.96875 152.589844 233.847656 152.589844 C 278.722656 152.589844 315.101562 148.175781 315.101562 142.726562 Z M 315.101562 142.726562 "/>
<path style=" stroke:none;fill-rule:nonzero;fill:rgb(81.568627%,80.392157%,88.235294%);fill-opacity:1;" d="M 235.859375 40.609375 C 235.859375 40.609375 238.363281 60.164062 214.203125 66.726562 C 190.046875 73.289062 183.828125 87.472656 183.828125 87.472656 C 183.828125 87.472656 157.992188 94.570312 173.800781 110.636719 C 173.800781 110.636719 137.117188 135.976562 172.945312 146.421875 C 208.777344 156.867188 305.574219 149.796875 301.515625 130 C 301.515625 130 306.550781 120.816406 294.878906 118.972656 C 294.878906 118.972656 311.132812 96.792969 270.101562 83.929688 C 270.101562 83.929688 276.773438 77.003906 258.921875 78.972656 C 258.921875 78.972656 270.050781 33.632812 235.859375 40.609375 Z M 235.859375 40.609375 "/>
<path style=" stroke:none;fill-rule:nonzero;fill:rgb(62.745098%,38.039216%,41.568627%);fill-opacity:1;" d="M 183.410156 88.589844 L 183.34375 87.011719 C 212.050781 85.835938 227.816406 76.871094 235.984375 69.558594 C 244.8125 61.65625 246.914062 53.929688 246.933594 53.855469 L 248.460938 54.25 C 248.375 54.582031 246.257812 62.433594 237.128906 70.648438 C 228.769531 78.171875 212.664062 87.386719 183.410156 88.589844 Z M 183.410156 88.589844 "/>
<path style=" stroke:none;fill-rule:nonzero;fill:rgb(62.745098%,38.039216%,41.568627%);fill-opacity:1;" d="M 173.523438 111.730469 L 173.171875 110.195312 C 173.296875 110.167969 185.996094 107.28125 221.015625 100.179688 C 244.988281 95.320312 250.730469 90.324219 252.023438 87.78125 C 252.285156 87.355469 252.390625 86.847656 252.3125 86.355469 L 253.742188 85.695312 C 253.796875 85.8125 254.242188 86.882812 253.425781 88.496094 C 251.691406 91.914062 244.71875 96.984375 221.328125 101.726562 C 186.332031 108.820312 173.648438 111.703125 173.523438 111.730469 Z M 173.523438 111.730469 "/>
<path style=" stroke:none;fill-rule:nonzero;fill:rgb(62.745098%,38.039216%,41.568627%);fill-opacity:1;" d="M 189.394531 118.226562 C 189.246094 118.226562 189.136719 118.226562 189.070312 118.226562 L 189.078125 116.648438 C 189.625 116.65625 246.71875 116.726562 264.289062 97.816406 C 268.023438 93.800781 269.714844 89.148438 269.316406 83.992188 L 270.886719 83.871094 C 271.320312 89.484375 269.488281 94.539062 265.441406 98.894531 C 247.910156 117.757812 194.554688 118.226562 189.394531 118.226562 Z M 189.394531 118.226562 "/>
<path style=" stroke:none;fill-rule:nonzero;fill:rgb(62.745098%,38.039216%,41.568627%);fill-opacity:1;" d="M 256.265625 137.601562 C 256.214844 137.601562 256.183594 137.601562 256.175781 137.601562 L 256.199219 136.023438 C 256.46875 136.023438 283.71875 136.203125 294.203125 118.570312 L 295.554688 119.378906 C 284.910156 137.285156 258.023438 137.601562 256.265625 137.601562 Z M 256.265625 137.601562 "/>
<path style=" stroke:none;fill-rule:nonzero;fill:rgb(81.568627%,80.392157%,88.235294%);fill-opacity:1;" d="M 239.667969 39.519531 C 239.667969 39.519531 242.167969 59.074219 218.011719 65.636719 C 193.855469 72.199219 187.632812 86.382812 187.632812 86.382812 C 187.632812 86.382812 161.796875 93.480469 177.605469 109.546875 C 177.605469 109.546875 140.921875 134.886719 176.753906 145.332031 C 212.582031 155.777344 309.378906 148.710938 305.320312 128.910156 C 305.320312 128.910156 310.355469 119.726562 298.6875 117.886719 C 298.6875 117.886719 314.9375 95.707031 273.90625 82.84375 C 273.90625 82.84375 280.578125 75.914062 262.726562 77.882812 C 262.726562 77.882812 273.855469 32.546875 239.667969 39.519531 Z M 239.667969 39.519531 "/>
<path style=" stroke:none;fill-rule:nonzero;fill:rgb(62.745098%,38.039216%,41.568627%);fill-opacity:1;" d="M 187.214844 87.5 L 187.152344 85.925781 C 215.859375 84.746094 231.625 75.78125 239.792969 68.46875 C 248.621094 60.566406 250.722656 52.84375 250.742188 52.765625 L 252.265625 53.160156 C 252.179688 53.492188 250.066406 61.347656 240.9375 69.558594 C 232.574219 77.082031 216.46875 86.300781 187.214844 87.5 Z M 187.214844 87.5 "/>
<path style=" stroke:none;fill-rule:nonzero;fill:rgb(62.745098%,38.039216%,41.568627%);fill-opacity:1;" d="M 177.332031 110.644531 L 176.980469 109.105469 C 177.105469 109.078125 189.800781 106.191406 224.824219 99.089844 C 248.792969 94.230469 254.539062 89.238281 255.828125 86.691406 C 256.09375 86.265625 256.195312 85.761719 256.117188 85.265625 L 257.546875 84.605469 C 257.601562 84.722656 258.050781 85.792969 257.234375 87.40625 C 255.5 90.824219 248.523438 95.894531 225.136719 100.636719 C 190.136719 107.730469 177.453125 110.613281 177.332031 110.644531 Z M 177.332031 110.644531 "/>
<path style=" stroke:none;fill-rule:nonzero;fill:rgb(62.745098%,38.039216%,41.568627%);fill-opacity:1;" d="M 193.199219 117.136719 C 193.050781 117.136719 192.941406 117.136719 192.875 117.136719 L 192.882812 115.558594 C 193.429688 115.566406 250.523438 115.636719 268.097656 96.730469 C 271.828125 92.710938 273.519531 88.058594 273.121094 82.902344 L 274.691406 82.78125 C 275.125 88.394531 273.296875 93.449219 269.25 97.804688 C 251.714844 116.671875 198.363281 117.136719 193.199219 117.136719 Z M 193.199219 117.136719 "/>
<path style=" stroke:none;fill-rule:nonzero;fill:rgb(62.745098%,38.039216%,41.568627%);fill-opacity:1;" d="M 260.074219 136.511719 C 260.023438 136.511719 259.992188 136.511719 259.984375 136.511719 L 260.007812 134.9375 C 260.273438 134.933594 287.523438 135.113281 298.007812 117.480469 L 299.363281 118.289062 C 288.714844 136.195312 261.832031 136.511719 260.074219 136.511719 Z M 260.074219 136.511719 "/>
<path style=" stroke:none;fill-rule:nonzero;fill:rgb(18.431373%,18.039216%,25.490196%);fill-opacity:1;" d="M 67.953125 143.078125 C 67.953125 147.773438 64.152344 151.578125 59.464844 151.578125 C 54.773438 151.578125 50.972656 147.773438 50.972656 143.078125 C 50.972656 138.382812 54.773438 134.578125 59.464844 134.578125 C 64.152344 134.578125 67.953125 138.382812 67.953125 143.078125 Z M 67.953125 143.078125 "/>
<path style=" stroke:none;fill-rule:nonzero;fill:rgb(18.431373%,18.039216%,25.490196%);fill-opacity:1;" d="M 67.941406 139.621094 L 62.628906 138.316406 C 58.519531 138.316406 54.628906 136.46875 52.027344 133.285156 C 49.429688 130.101562 48.398438 125.914062 49.214844 121.886719 C 49.214844 111.992188 57.226562 103.972656 67.105469 103.972656 C 76.988281 103.972656 84.996094 111.992188 84.996094 121.886719 C 86.390625 126.761719 85.085938 132.011719 81.570312 135.667969 C 78.054688 139.324219 72.863281 140.828125 67.941406 139.621094 Z M 67.941406 139.621094 "/>
<path style=" stroke:none;fill-rule:nonzero;fill:rgb(34.117647%,35.294118%,53.72549%);fill-opacity:1;" d="M 33.757812 194.101562 L 46.894531 175.382812 L 54.027344 188.644531 L 45.878906 198.164062 Z M 33.757812 194.101562 "/>
<path style=" stroke:none;fill-rule:nonzero;fill:rgb(34.117647%,35.294118%,53.72549%);fill-opacity:1;" d="M 40.613281 192.214844 C 40.613281 192.214844 36.535156 190.511719 34.160156 193.574219 C 31.78125 196.632812 27.707031 203.09375 29.0625 204.113281 C 30.421875 205.136719 34.839844 201.054688 34.839844 201.054688 Z M 40.613281 192.214844 "/>
<path style=" stroke:none;fill-rule:nonzero;fill:rgb(100%,72.156863%,72.156863%);fill-opacity:1;" d="M 36.570312 199.761719 C 35.25 198.710938 32.566406 199.878906 30.578125 202.375 C 28.59375 204.871094 28.050781 207.75 29.371094 208.804688 C 30.691406 209.855469 33.371094 208.6875 35.359375 206.191406 C 37.347656 203.695312 37.890625 200.816406 36.570312 199.761719 Z M 36.570312 199.761719 "/>
<path style=" stroke:none;fill-rule:nonzero;fill:rgb(100%,72.156863%,72.156863%);fill-opacity:1;" d="M 27.367188 239.476562 C 27.367188 239.476562 28.046875 261.242188 30.421875 273.820312 C 32.800781 286.402344 29.0625 331.628906 29.0625 331.628906 L 36.535156 335.027344 L 41.292969 329.925781 C 41.292969 329.925781 39.59375 320.746094 41.972656 314.285156 C 44.347656 307.824219 45.367188 279.941406 45.367188 279.941406 L 49.445312 242.539062 Z M 27.367188 239.476562 "/>
<path style=" stroke:none;fill-rule:nonzero;fill:rgb(100%,72.156863%,72.156863%);fill-opacity:1;" d="M 55.21875 245.9375 L 76.617188 285.042969 L 95.976562 320.746094 L 95.976562 328.226562 L 105.828125 325.167969 L 102.429688 317.347656 C 102.429688 317.347656 100.730469 286.742188 88.503906 274.84375 L 77.976562 244.578125 Z M 55.21875 245.9375 "/>
<path style=" stroke:none;fill-rule:nonzero;fill:rgb(18.431373%,18.039216%,25.490196%);fill-opacity:1;" d="M 42.480469 193.402344 L 38.746094 193.402344 C 38.746094 193.402344 18.363281 221.285156 19.382812 238.289062 L 48.59375 250.191406 L 49.613281 247.808594 C 49.613281 247.808594 73.730469 252.230469 79.84375 247.128906 L 71.351562 203.605469 L 70.671875 197.484375 Z M 42.480469 193.402344 "/>
<path style=" stroke:none;fill-rule:nonzero;fill:rgb(18.431373%,18.039216%,25.490196%);fill-opacity:1;" d="M 33.140625 331.289062 C 33.140625 331.289062 37.894531 325.167969 32.121094 324.828125 C 26.347656 324.488281 26.347656 328.226562 26.347656 328.226562 L 13.441406 337.070312 C 13.441406 337.070312 -7.957031 344.890625 7.324219 347.269531 C 7.324219 347.269531 13.78125 348.628906 21.929688 345.570312 C 26.828125 343.730469 31.988281 342.695312 37.214844 342.507812 C 37.214844 342.507812 44.6875 342.167969 44.6875 338.429688 C 44.6875 334.6875 41.042969 328.226562 41.042969 328.226562 C 41.042969 328.226562 35.179688 332.308594 33.140625 331.289062 Z M 33.140625 331.289062 "/>
<path style=" stroke:none;fill-rule:nonzero;fill:rgb(18.431373%,18.039216%,25.490196%);fill-opacity:1;" d="M 106.507812 322.785156 C 106.507812 322.785156 94.957031 320.40625 94.617188 324.828125 C 94.277344 329.246094 94.617188 336.726562 94.617188 336.726562 C 94.617188 336.726562 97.335938 340.128906 96.65625 342.507812 C 95.976562 344.890625 98.355469 352.371094 106.507812 351.351562 C 114.65625 350.328125 111.941406 338.769531 111.941406 338.769531 L 106.507812 325.507812 Z M 106.507812 322.785156 "/>
<path style=" stroke:none;fill-rule:nonzero;fill:rgb(100%,72.156863%,72.156863%);fill-opacity:1;" d="M 80.863281 123.527344 C 80.863281 129.816406 75.769531 134.917969 69.484375 134.917969 C 63.199219 134.917969 58.105469 129.816406 58.105469 123.527344 C 58.105469 117.234375 63.199219 112.136719 69.484375 112.136719 C 75.769531 112.136719 80.863281 117.234375 80.863281 123.527344 Z M 80.863281 123.527344 "/>
<path style=" stroke:none;fill-rule:nonzero;fill:rgb(100%,72.156863%,72.156863%);fill-opacity:1;" d="M 61.839844 129.816406 L 61.671875 149.367188 L 75.597656 144.609375 C 75.597656 144.609375 73.898438 133.386719 74.238281 132.367188 Z M 61.839844 129.816406 "/>
<path style=" stroke:none;fill-rule:nonzero;fill:rgb(34.117647%,35.294118%,53.72549%);fill-opacity:1;" d="M 59.292969 143.589844 C 59.292969 143.589844 73.898438 138.488281 75.597656 139.167969 C 77.296875 139.847656 77.976562 143.589844 77.976562 143.589844 C 77.976562 143.589844 86.125 141.886719 87.144531 147.328125 C 88.164062 152.769531 80.691406 176.570312 80.691406 176.570312 L 73.21875 190.511719 C 73.21875 190.511719 76.957031 196.292969 70.503906 198.335938 C 64.050781 200.375 40.613281 193.914062 40.613281 193.914062 C 40.613281 193.914062 36.535156 189.152344 40.613281 189.152344 C 40.613281 189.152344 41.972656 184.734375 43.328125 183.710938 C 44.6875 182.691406 42.3125 180.992188 43.667969 180.652344 C 45.027344 180.3125 45.027344 179.632812 45.027344 179.632812 C 45.027344 179.632812 38.234375 170.453125 44.347656 162.96875 C 50.460938 155.488281 51.3125 148.519531 54.367188 147.5 C 57.425781 146.480469 59.292969 143.589844 59.292969 143.589844 Z M 59.292969 143.589844 "/>
<path style=" stroke:none;fill-rule:nonzero;fill:rgb(100%,72.156863%,72.156863%);fill-opacity:1;" d="M 71.945312 219.453125 C 71.3125 217.886719 68.402344 217.589844 65.445312 218.789062 C 62.492188 219.992188 60.609375 222.234375 61.246094 223.800781 C 61.882812 225.367188 64.792969 225.664062 67.746094 224.460938 C 70.699219 223.261719 72.582031 221.019531 71.945312 219.453125 Z M 71.945312 219.453125 "/>
<path style=" stroke:none;fill-rule:nonzero;fill:rgb(34.117647%,35.294118%,53.72549%);fill-opacity:1;" d="M 82.050781 146.308594 L 86.839844 146.308594 C 86.839844 146.308594 100.730469 179.972656 96.65625 190.511719 C 92.582031 201.054688 77.636719 219.417969 77.636719 219.417969 C 77.636719 219.417969 72.878906 227.917969 69.484375 227.917969 C 66.085938 227.917969 62.351562 215.675781 62.351562 215.675781 L 73.21875 210.914062 L 86.125 187.113281 L 80.011719 168.75 Z M 82.050781 146.308594 "/>
<use xlink:href="#surface59" mask="url(#mask18)"/>
<use xlink:href="#surface62" mask="url(#mask19)"/>
<path style=" stroke:none;fill-rule:nonzero;fill:rgb(18.431373%,18.039216%,25.490196%);fill-opacity:1;" d="M 83.238281 118.9375 L 81.203125 115.195312 L 78.144531 117.246094 C 77.507812 118.128906 76.476562 118.640625 75.390625 118.621094 L 64.71875 118.402344 C 63.75 118.382812 62.832031 117.964844 62.179688 117.246094 C 60.476562 117.878906 59.191406 119.304688 58.730469 121.0625 L 57.425781 126.078125 L 57.425781 109.074219 L 77.804688 109.074219 Z M 83.238281 118.9375 "/>
</g>
</svg>
