<?xml version="1.0" encoding="UTF-8"?>
<svg xmlns="http://www.w3.org/2000/svg" xmlns:xlink="http://www.w3.org/1999/xlink" width="385pt" height="326pt" viewBox="0 0 385 326" version="1.1">
<g id="surface1">
<path style=" stroke:none;fill-rule:nonzero;fill:rgb(90.196078%,90.196078%,90.196078%);fill-opacity:1;" d="M 359.710938 285.222656 C 359.710938 285.222656 303.558594 259.335938 323.285156 241.378906 C 343.011719 223.425781 359.710938 285.222656 359.710938 285.222656 Z M 359.710938 285.222656 "/>
<path style=" stroke:none;fill-rule:nonzero;fill:rgb(90.196078%,90.196078%,90.196078%);fill-opacity:1;" d="M 358.734375 291.265625 C 358.734375 291.265625 332.921875 206.332031 370.929688 210.394531 C 408.9375 214.457031 358.734375 291.265625 358.734375 291.265625 Z M 358.734375 291.265625 "/>
<path style=" stroke:none;fill-rule:nonzero;fill:rgb(90.196078%,90.196078%,90.196078%);fill-opacity:1;" d="M 339.914062 283.734375 L 341 297.941406 L 341.015625 298.1875 C 341.015625 300.40625 341.125 302.621094 341.351562 304.828125 C 342.820312 319.320312 349.140625 325.925781 356.523438 325.925781 C 363.910156 325.925781 369.953125 319.320312 371.425781 304.828125 C 371.648438 302.621094 371.761719 300.40625 371.761719 298.1875 L 371.769531 297.988281 L 371.773438 297.941406 L 372.859375 283.734375 Z M 339.914062 283.734375 "/>
<path style=" stroke:none;fill-rule:nonzero;fill:rgb(100%,100%,100%);fill-opacity:1;" d="M 371.773438 297.941406 L 371.769531 297.988281 L 371.761719 298.1875 C 371.761719 300.40625 371.648438 302.621094 371.425781 304.828125 L 341.351562 304.828125 C 341.125 302.621094 341.015625 300.40625 341.015625 298.1875 L 341 297.941406 Z M 371.773438 297.941406 "/>
<path style=" stroke:none;fill-rule:nonzero;fill:rgb(90.196078%,90.196078%,90.196078%);fill-opacity:1;" d="M 42.40625 297.589844 C 42.40625 297.589844 21.523438 287.960938 28.859375 281.285156 C 36.195312 274.609375 42.40625 297.589844 42.40625 297.589844 Z M 42.40625 297.589844 "/>
<path style=" stroke:none;fill-rule:nonzero;fill:rgb(90.196078%,90.196078%,90.196078%);fill-opacity:1;" d="M 28.578125 296.570312 L 29.332031 306.453125 L 29.34375 306.625 C 29.34375 308.167969 29.421875 309.710938 29.578125 311.246094 C 30.597656 321.328125 34.996094 325.925781 40.132812 325.925781 C 45.273438 325.925781 49.476562 321.328125 50.5 311.246094 C 50.65625 309.710938 50.734375 308.167969 50.734375 306.625 L 50.742188 306.488281 L 50.742188 306.453125 L 51.5 296.570312 Z M 28.578125 296.570312 "/>
<path style=" stroke:none;fill-rule:nonzero;fill:rgb(100%,72.54902%,72.54902%);fill-opacity:1;" d="M 261.703125 153.398438 C 263.300781 152.292969 264.128906 150.371094 263.84375 148.449219 C 263.558594 146.523438 262.203125 144.929688 260.355469 144.339844 L 248.664062 140.605469 L 242.238281 146.179688 L 256.421875 153.707031 C 258.101562 154.601562 260.136719 154.480469 261.703125 153.398438 Z M 261.703125 153.398438 "/>
<path style=" stroke:none;fill-rule:nonzero;fill:rgb(90.196078%,90.196078%,90.196078%);fill-opacity:1;" d="M 242.042969 149.820312 L 249.75 140.871094 L 221.050781 109.414062 L 207.839844 78.734375 C 206.042969 74.5625 201.53125 72.269531 197.109375 73.277344 C 194.269531 73.925781 191.886719 75.855469 190.664062 78.503906 C 189.4375 81.152344 189.507812 84.21875 190.847656 86.808594 L 208.09375 120.078125 Z M 242.042969 149.820312 "/>
<path style=" stroke:none;fill-rule:nonzero;fill:rgb(24.705882%,23.921569%,33.72549%);fill-opacity:1;" d="M 260.453125 268.378906 L 258.976562 266.082031 L 256.25 266.082031 L 256.25 265.082031 L 259.523438 265.082031 L 261.296875 267.835938 Z M 260.453125 268.378906 "/>
<path style=" stroke:none;fill-rule:nonzero;fill:rgb(24.705882%,23.921569%,33.72549%);fill-opacity:1;" d="M 254.332031 266.082031 L 248.585938 266.082031 L 248.585938 265.082031 L 254.332031 265.082031 Z M 246.667969 266.082031 L 240.921875 266.082031 L 240.921875 265.082031 L 246.667969 265.082031 Z M 239.003906 266.082031 L 233.257812 266.082031 L 233.257812 265.082031 L 239.003906 265.082031 Z M 231.339844 266.082031 L 225.589844 266.082031 L 225.589844 265.082031 L 231.339844 265.082031 Z M 223.675781 266.082031 L 217.925781 266.082031 L 217.925781 265.082031 L 223.675781 265.082031 Z M 216.007812 266.082031 L 210.683594 266.078125 L 210.199219 266.015625 L 210.332031 265.019531 L 210.78125 265.082031 L 216.007812 265.082031 Z M 208.300781 265.761719 L 202.601562 265.003906 L 202.734375 264.011719 L 208.433594 264.769531 Z M 200.703125 264.75 L 195.003906 263.992188 L 195.136719 263 L 200.832031 263.757812 Z M 193.105469 263.738281 L 187.40625 262.980469 L 187.539062 261.988281 L 193.234375 262.746094 Z M 185.507812 262.726562 L 179.808594 261.96875 L 179.9375 260.976562 L 185.636719 261.734375 Z M 185.507812 262.726562 "/>
<path style=" stroke:none;fill-rule:nonzero;fill:rgb(24.705882%,23.921569%,33.72549%);fill-opacity:1;" d="M 175.414062 263.84375 L 174.414062 263.816406 L 174.515625 260.253906 L 178.039062 260.722656 L 177.90625 261.71875 L 175.484375 261.394531 Z M 175.414062 263.84375 "/>
<path style=" stroke:none;fill-rule:nonzero;fill:rgb(24.705882%,23.921569%,33.72549%);fill-opacity:1;" d="M 174.648438 290.65625 L 173.648438 290.625 L 173.839844 283.921875 L 174.839844 283.953125 Z M 174.902344 281.71875 L 173.90625 281.6875 L 174.097656 274.984375 L 175.09375 275.015625 Z M 175.160156 272.78125 L 174.160156 272.75 L 174.351562 266.046875 L 175.351562 266.078125 Z M 175.160156 272.78125 "/>
<path style=" stroke:none;fill-rule:nonzero;fill:rgb(24.705882%,23.921569%,33.72549%);fill-opacity:1;" d="M 173.484375 296.421875 L 173.585938 292.859375 L 174.585938 292.890625 L 174.515625 295.335938 L 176.953125 295.148438 L 177.03125 296.144531 Z M 173.484375 296.421875 "/>
<path style=" stroke:none;fill-rule:nonzero;fill:rgb(24.705882%,23.921569%,33.72549%);fill-opacity:1;" d="M 178.945312 295.996094 L 178.867188 295 L 184.605469 294.550781 L 184.683594 295.550781 Z M 186.597656 295.402344 L 186.519531 294.402344 L 192.261719 293.957031 L 192.339844 294.953125 Z M 194.253906 294.804688 L 194.175781 293.808594 L 199.917969 293.359375 L 199.992188 294.359375 Z M 201.90625 294.210938 L 201.828125 293.210938 L 207.570312 292.765625 L 207.648438 293.761719 Z M 209.5625 293.613281 L 209.484375 292.617188 L 215.226562 292.167969 L 215.300781 293.167969 Z M 217.214844 293.019531 L 217.140625 292.019531 L 222.878906 291.574219 L 222.957031 292.570312 Z M 224.871094 292.421875 L 224.792969 291.425781 L 230.535156 290.976562 L 230.613281 291.976562 Z M 232.523438 291.828125 L 232.449219 290.828125 L 238.1875 290.382812 L 238.265625 291.378906 Z M 240.179688 291.230469 L 240.101562 290.234375 L 245.84375 289.785156 L 245.921875 290.785156 Z M 247.835938 290.636719 L 247.757812 289.636719 L 253.496094 289.191406 L 253.574219 290.1875 Z M 255.488281 290.039062 L 255.410156 289.042969 L 261.152344 288.59375 L 261.230469 289.59375 Z M 263.144531 289.445312 L 263.066406 288.445312 L 268.808594 288 L 268.882812 288.996094 Z M 263.144531 289.445312 "/>
<path style=" stroke:none;fill-rule:nonzero;fill:rgb(24.705882%,23.921569%,33.72549%);fill-opacity:1;" d="M 270.796875 288.847656 L 270.71875 287.851562 L 272.875 287.683594 L 271.703125 285.863281 L 272.546875 285.320312 L 274.625 288.550781 Z M 270.796875 288.847656 "/>
<path style=" stroke:none;fill-rule:nonzero;fill:rgb(24.705882%,23.921569%,33.72549%);fill-opacity:1;" d="M 270.453125 283.921875 L 266.703125 278.09375 L 267.546875 277.550781 L 271.296875 283.378906 Z M 265.453125 276.148438 L 261.703125 270.320312 L 262.546875 269.777344 L 266.296875 275.605469 Z M 265.453125 276.148438 "/>
<path style=" stroke:none;fill-rule:nonzero;fill:rgb(38.823529%,59.607843%,100%);fill-opacity:1;" d="M 286 276.347656 C 286 295.15625 270.777344 310.402344 252 310.402344 C 233.222656 310.402344 218 295.15625 218 276.347656 C 218 257.542969 233.222656 242.296875 252 242.296875 C 270.777344 242.296875 286 257.542969 286 276.347656 Z M 286 276.347656 "/>
<path style=" stroke:none;fill-rule:nonzero;fill:rgb(24.705882%,23.921569%,33.72549%);fill-opacity:1;" d="M 280 315.910156 L 230.25 227.523438 L 219.25 238.539062 L 268.25 315.660156 Z M 280 315.910156 "/>
<path style=" stroke:none;fill-rule:nonzero;fill:rgb(24.705882%,23.921569%,33.72549%);fill-opacity:1;" d="M 129.25 313.65625 L 241 200.230469 L 250.25 218.511719 L 144.25 318.664062 Z M 129.25 313.65625 "/>
<path style=" stroke:none;fill-rule:nonzero;fill:rgb(24.705882%,23.921569%,33.72549%);fill-opacity:1;" d="M 197.25 279.101562 C 197.25 291.546875 187.175781 301.636719 174.75 301.636719 C 162.324219 301.636719 152.25 291.546875 152.25 279.101562 C 152.25 266.65625 162.324219 256.570312 174.75 256.570312 C 187.175781 256.570312 197.25 266.65625 197.25 279.101562 Z M 197.25 279.101562 "/>
<path style=" stroke:none;fill-rule:nonzero;fill:rgb(38.823529%,59.607843%,100%);fill-opacity:1;" d="M 144.75 285.613281 C 144.472656 285.613281 144.25 285.835938 144.25 286.113281 L 144.25 290.121094 C 144.25 290.394531 144.472656 290.621094 144.75 290.621094 L 157.25 290.621094 C 157.527344 290.621094 157.75 290.394531 157.75 290.121094 L 157.75 286.113281 C 157.75 285.835938 157.527344 285.613281 157.25 285.613281 Z M 144.75 285.613281 "/>
<path style=" stroke:none;fill-rule:nonzero;fill:rgb(38.823529%,59.607843%,100%);fill-opacity:1;" d="M 173.5 229.777344 C 173.222656 229.777344 173 230 173 230.277344 L 173 234.285156 C 173 234.5625 173.222656 234.785156 173.5 234.785156 L 186 234.785156 C 186.277344 234.785156 186.5 234.5625 186.5 234.285156 L 186.5 230.277344 C 186.5 230 186.277344 229.777344 186 229.777344 Z M 173.5 229.777344 "/>
<path style=" stroke:none;fill-rule:nonzero;fill:rgb(24.705882%,23.921569%,33.72549%);fill-opacity:1;" d="M 234.25 221.515625 L 221.25 221.515625 L 221.25 211.5 L 226.25 209.496094 L 234.25 215.503906 Z M 234.25 221.515625 "/>
<path style=" stroke:none;fill-rule:nonzero;fill:rgb(24.705882%,23.921569%,33.72549%);fill-opacity:1;" d="M 221.539062 207.601562 L 222.894531 206.960938 L 225.460938 212.390625 L 224.105469 213.035156 Z M 221.539062 207.601562 "/>
<path style=" stroke:none;fill-rule:nonzero;fill:rgb(38.823529%,59.607843%,100%);fill-opacity:1;" d="M 224.332031 200.460938 C 224.238281 200.460938 224.144531 200.488281 224.0625 200.539062 L 215.230469 206.230469 C 215 206.378906 214.933594 206.6875 215.082031 206.921875 L 217.246094 210.289062 C 217.394531 210.523438 217.703125 210.589844 217.9375 210.441406 L 226.769531 204.75 L 226.769531 204.753906 C 227 204.601562 227.066406 204.292969 226.917969 204.058594 L 224.753906 200.691406 C 224.683594 200.578125 224.570312 200.5 224.441406 200.472656 C 224.40625 200.464844 224.367188 200.460938 224.332031 200.460938 Z M 224.332031 200.460938 "/>
<path style=" stroke:none;fill-rule:nonzero;fill:rgb(24.705882%,23.921569%,33.72549%);fill-opacity:1;" d="M 244.25 220.511719 L 234 170.6875 L 246 168.683594 L 254.183594 208.824219 C 254.894531 211.773438 254.15625 214.890625 252.191406 217.203125 C 250.226562 219.515625 247.273438 220.746094 244.25 220.511719 Z M 244.25 220.511719 "/>
<path style=" stroke:none;fill-rule:nonzero;fill:rgb(24.705882%,23.921569%,33.72549%);fill-opacity:1;" d="M 282.015625 160.871094 L 270.144531 160.019531 C 269.824219 159.996094 269.53125 159.820312 269.363281 159.542969 C 269.195312 159.269531 269.167969 158.929688 269.296875 158.628906 L 286.539062 117.855469 C 286.671875 117.542969 286.949219 117.320312 287.285156 117.257812 L 298.992188 115.164062 C 299.347656 115.101562 299.710938 115.234375 299.941406 115.515625 C 300.171875 115.796875 300.230469 116.179688 300.097656 116.515625 L 283.019531 160.234375 C 282.859375 160.644531 282.453125 160.902344 282.015625 160.871094 Z M 282.015625 160.871094 "/>
<path style=" stroke:none;fill-rule:nonzero;fill:rgb(38.823529%,59.607843%,100%);fill-opacity:1;" d="M 271.75 156.914062 L 281.25 157.917969 L 296.75 118.855469 L 286.75 120.359375 Z M 271.75 156.914062 "/>
<path style=" stroke:none;fill-rule:nonzero;fill:rgb(24.705882%,23.921569%,33.72549%);fill-opacity:1;" d="M 168.25 264.078125 L 155.75 276.597656 L 137.75 197.980469 L 147.75 199.480469 Z M 168.25 264.078125 "/>
<path style=" stroke:none;fill-rule:nonzero;fill:rgb(24.705882%,23.921569%,33.72549%);fill-opacity:1;" d="M 153.683594 199.363281 L 151.523438 198.714844 C 147.28125 200.585938 142.664062 201.457031 138.035156 201.253906 C 135.953125 201.167969 134.316406 199.449219 134.328125 197.367188 C 134.328125 195.214844 136.070312 193.472656 138.214844 193.472656 L 157.074219 193.472656 C 158.136719 193.472656 159 194.335938 159 195.398438 C 159 196.707031 158.382812 197.9375 157.335938 198.71875 C 156.289062 199.5 154.933594 199.738281 153.683594 199.363281 Z M 153.683594 199.363281 "/>
<path style=" stroke:none;fill-rule:nonzero;fill:rgb(24.705882%,23.921569%,33.72549%);fill-opacity:1;" d="M 273.132812 150.195312 C 272.652344 150.195312 272.183594 150.351562 271.796875 150.644531 L 256.445312 162.402344 L 239.265625 164.648438 C 236.304688 165.035156 234.257812 168.257812 234 171.1875 L 254.226562 168.375 C 257.035156 168.101562 259.691406 166.960938 261.824219 165.109375 L 274.574219 154.0625 C 275.269531 153.460938 275.519531 152.492188 275.199219 151.628906 C 274.878906 150.765625 274.054688 150.191406 273.132812 150.195312 Z M 273.132812 150.195312 "/>
<path style=" stroke:none;fill-rule:nonzero;fill:rgb(24.705882%,23.921569%,33.72549%);fill-opacity:1;" d="M 265.632812 142.683594 C 265.152344 142.683594 264.683594 142.839844 264.296875 143.132812 L 248.945312 154.890625 L 231.765625 157.136719 C 228.804688 157.523438 226.757812 160.746094 226.5 163.675781 L 246.726562 160.863281 C 249.535156 160.589844 252.191406 159.449219 254.324219 157.597656 L 267.074219 146.550781 C 267.769531 145.949219 268.019531 144.980469 267.699219 144.117188 C 267.378906 143.253906 266.554688 142.679688 265.632812 142.683594 Z M 265.632812 142.683594 "/>
<path style=" stroke:none;fill-rule:nonzero;fill:rgb(24.705882%,23.921569%,33.72549%);fill-opacity:1;" d="M 275 172.941406 C 267.75 172.925781 260.9375 169.464844 256.644531 163.617188 L 258.660156 162.136719 C 263.0625 168.160156 270.417969 171.273438 277.800781 170.242188 C 285.183594 169.210938 291.402344 164.195312 293.992188 157.195312 C 296.578125 150.191406 295.113281 142.332031 290.179688 136.734375 L 292.054688 135.074219 C 297.976562 141.792969 299.414062 151.359375 295.738281 159.523438 C 292.058594 167.691406 283.945312 172.941406 275 172.941406 Z M 275 172.941406 "/>
<path style=" stroke:none;fill-rule:nonzero;fill:rgb(24.705882%,23.921569%,33.72549%);fill-opacity:1;" d="M 115.5 313.40625 L 292.5 313.40625 L 292.5 325.925781 L 115.5 325.925781 Z M 115.5 313.40625 "/>
<path style=" stroke:none;fill-rule:nonzero;fill:rgb(100%,72.54902%,72.54902%);fill-opacity:1;" d="M 249.125 166.28125 C 250.925781 165.558594 252.164062 163.871094 252.3125 161.933594 C 252.457031 159.992188 251.492188 158.136719 249.820312 157.148438 L 239.25 150.90625 L 231.75 154.914062 L 243.90625 165.40625 C 245.347656 166.652344 247.359375 166.988281 249.125 166.28125 Z M 249.125 166.28125 "/>
<path style=" stroke:none;fill-rule:nonzero;fill:rgb(38.823529%,59.607843%,100%);fill-opacity:1;" d="M 166.25 210.496094 L 173.25 214.503906 L 216.472656 182.640625 C 219.679688 180.445312 221.824219 177.015625 222.390625 173.167969 C 223.105469 168.277344 221.191406 163.367188 217.351562 160.261719 C 207.804688 152.496094 196.007812 145.453125 183.5 138.636719 L 165 147.652344 C 172.625 163.308594 181.085938 176.21875 193.5 176.195312 Z M 166.25 210.496094 "/>
<path style=" stroke:none;fill-rule:nonzero;fill:rgb(18.431373%,18.039216%,25.490196%);fill-opacity:1;" d="M 163.199219 220.699219 C 169.007812 226.589844 176.652344 230.808594 185.195312 234.210938 C 186.515625 234.734375 188.023438 234.367188 188.953125 233.292969 C 190.101562 231.980469 190.046875 230.003906 188.828125 228.75 L 183.292969 223.058594 L 179.945312 211.125 C 172.761719 214.679688 168.050781 213.886719 167.125 206.433594 L 162.59375 212.617188 C 160.785156 215.09375 161.042969 218.519531 163.199219 220.699219 Z M 163.199219 220.699219 "/>
<path style=" stroke:none;fill-rule:nonzero;fill:rgb(38.823529%,59.607843%,100%);fill-opacity:1;" d="M 143.75 273.59375 L 154.25 274.09375 L 178.25 150.40625 L 137 137.136719 C 132.882812 152.558594 138.996094 177.800781 149.75 207.492188 Z M 143.75 273.59375 "/>
<path style=" stroke:none;fill-rule:nonzero;fill:rgb(100%,72.54902%,72.54902%);fill-opacity:1;" d="M 241 53.007812 C 241 62.132812 233.613281 69.53125 224.5 69.53125 C 215.386719 69.53125 208 62.132812 208 53.007812 C 208 43.878906 215.386719 36.480469 224.5 36.480469 C 233.613281 36.480469 241 43.878906 241 53.007812 Z M 241 53.007812 "/>
<path style=" stroke:none;fill-rule:nonzero;fill:rgb(100%,72.54902%,72.54902%);fill-opacity:1;" d="M 194.25 73.289062 L 204.75 80.800781 L 220.75 64.773438 L 212.75 54.757812 Z M 194.25 73.289062 "/>
<path style=" stroke:none;fill-rule:nonzero;fill:rgb(90.196078%,90.196078%,90.196078%);fill-opacity:1;" d="M 135.25 138.386719 C 148.199219 148.957031 162.339844 155.902344 179.75 152.910156 C 185.011719 144.484375 188.894531 126.738281 195.5 119.109375 C 209.921875 102.441406 217.074219 87.585938 212.5 74.039062 C 208.050781 71.125 208.246094 71.132812 205 61.519531 C 179.5625 66.234375 154.933594 94.992188 135.25 138.386719 Z M 135.25 138.386719 "/>
<path style=" stroke:none;fill-rule:nonzero;fill:rgb(18.431373%,18.039216%,25.490196%);fill-opacity:1;" d="M 143.582031 283.902344 C 151.054688 287.441406 159.683594 288.773438 168.871094 289.03125 C 170.292969 289.070312 171.582031 288.210938 172.089844 286.882812 C 172.714844 285.253906 171.988281 283.414062 170.417969 282.660156 L 163.265625 279.214844 L 156.035156 269.152344 C 150.503906 274.960938 145.808594 275.832031 142.382812 269.152344 L 140.246094 276.519531 C 139.398438 279.464844 140.8125 282.59375 143.582031 283.902344 Z M 143.582031 283.902344 "/>
<path style=" stroke:none;fill-rule:nonzero;fill:rgb(90.196078%,90.196078%,90.196078%);fill-opacity:1;" d="M 230.75 158.417969 L 240.25 151.40625 L 219.25 114.351562 L 213.175781 81.496094 C 212.347656 77.027344 208.460938 73.789062 203.921875 73.789062 C 201.007812 73.789062 198.261719 75.140625 196.480469 77.449219 C 194.695312 79.757812 194.082031 82.761719 194.816406 85.585938 L 204.25 121.863281 Z M 230.75 158.417969 "/>
<path style=" stroke:none;fill-rule:nonzero;fill:rgb(24.705882%,23.921569%,33.72549%);fill-opacity:1;" d="M 177.5 234.285156 L 183 234.285156 L 183 264.332031 L 177.5 264.332031 Z M 177.5 234.285156 "/>
<path style=" stroke:none;fill-rule:nonzero;fill:rgb(18.431373%,18.039216%,25.490196%);fill-opacity:1;" d="M 237.558594 48.214844 C 238.871094 49.789062 240.890625 50.597656 242.921875 50.359375 C 244.910156 50.050781 246.675781 48.351562 246.804688 46.34375 C 246.914062 44.609375 245.894531 43.019531 244.828125 41.648438 C 242.46875 38.625 239.671875 35.980469 236.523438 33.796875 C 235.023438 32.753906 233.367188 31.796875 231.542969 31.683594 C 230.644531 31.628906 229.738281 31.785156 228.835938 31.746094 C 227.179688 31.675781 225.625 30.957031 224.003906 30.582031 C 220.640625 29.832031 217.121094 30.582031 214.351562 32.632812 C 213.4375 33.332031 212.613281 34.136719 211.890625 35.03125 C 209.898438 37.472656 208.5625 40.386719 208.007812 43.488281 C 207.136719 48.410156 208.222656 53.808594 205.863281 58.210938 C 208.632812 57.953125 210.855469 55.835938 213.488281 54.929688 C 215.441406 54.265625 217.558594 54.285156 219.5 54.984375 C 220 55.242188 220.5625 55.347656 221.121094 55.289062 C 221.585938 55.125 221.988281 54.832031 222.28125 54.4375 L 227.316406 48.953125 C 228.339844 47.839844 229.503906 46.648438 231.007812 46.496094 C 231.910156 46.464844 232.800781 46.640625 233.621094 47.015625 C 235.640625 47.777344 237.589844 48.707031 239.457031 49.792969 "/>
<path style=" stroke:none;fill-rule:nonzero;fill:rgb(24.705882%,23.921569%,33.72549%);fill-opacity:1;" d="M 228 162.675781 L 226.5 163.675781 L 236.5 173.691406 L 242.5 168.183594 L 232.5 160.171875 Z M 228 162.675781 "/>
<path style=" stroke:none;fill-rule:nonzero;fill:rgb(90.196078%,90.196078%,90.196078%);fill-opacity:1;" d="M 0 0 L 123.828125 0 L 123.828125 128.320312 L 0 128.320312 Z M 0 0 "/>
<path style=" stroke:none;fill-rule:nonzero;fill:rgb(100%,100%,100%);fill-opacity:1;" d="M 6.609375 6.851562 L 117.21875 6.851562 L 117.21875 121.472656 L 6.609375 121.472656 Z M 6.609375 6.851562 "/>
<path style=" stroke:none;fill-rule:nonzero;fill:rgb(90.196078%,90.196078%,90.196078%);fill-opacity:1;" d="M 28.128906 123.472656 L 32.070312 123.472656 L 32.042969 121.886719 L 31.976562 118.363281 L 31.351562 82.132812 L 31.34375 81.964844 L 31.023438 63.453125 L 30.238281 18.453125 L 30.0625 18.453125 L 29.226562 63.78125 L 28.898438 81.972656 L 28.890625 82.140625 Z M 28.128906 123.472656 "/>
<path style=" stroke:none;fill-rule:nonzero;fill:rgb(90.196078%,90.196078%,90.196078%);fill-opacity:1;" d="M 40.179688 114.039062 L 41.644531 116.824219 L 31.132812 122.367188 L 29.667969 119.582031 Z M 40.179688 114.039062 "/>
<path style=" stroke:none;fill-rule:nonzero;fill:rgb(90.196078%,90.196078%,90.196078%);fill-opacity:1;" d="M 59.5 3.429688 L 64.5 3.429688 L 64.5 124.617188 L 59.5 124.617188 Z M 59.5 3.429688 "/>
<path style=" stroke:none;fill-rule:nonzero;fill:rgb(90.196078%,90.196078%,90.196078%);fill-opacity:1;" d="M 0 61.519531 L 123.828125 61.519531 L 123.828125 66.527344 L 0 66.527344 Z M 0 61.519531 "/>
</g>
</svg>
