<?xml version="1.0" encoding="UTF-8"?>
<svg xmlns="http://www.w3.org/2000/svg" xmlns:xlink="http://www.w3.org/1999/xlink" width="350pt" height="361pt" viewBox="0 0 350 361" version="1.1">
<g id="surface1">
<path style=" stroke:none;fill-rule:nonzero;fill:rgb(90.196078%,90.196078%,90.196078%);fill-opacity:1;" d="M 235.910156 357.480469 C 235.910156 355.550781 208.597656 353.988281 174.910156 353.988281 C 141.21875 353.988281 113.910156 355.550781 113.910156 357.480469 C 113.910156 359.414062 141.21875 360.976562 174.910156 360.976562 C 208.597656 360.976562 235.910156 359.414062 235.910156 357.480469 Z M 235.910156 357.480469 "/>
<path style=" stroke:none;fill-rule:nonzero;fill:rgb(90.196078%,90.196078%,90.196078%);fill-opacity:1;" d="M 223.777344 354.578125 C 231.429688 345.886719 267.453125 303.105469 241.847656 296.050781 C 222.617188 290.753906 220.476562 319.898438 221.121094 339.457031 C 218.042969 326.28125 212.066406 310.886719 201.566406 317.679688 C 186.433594 327.46875 214.789062 349.128906 222.195312 354.445312 C 222.316406 355.527344 222.394531 356.128906 222.394531 356.128906 C 222.394531 356.128906 222.699219 355.796875 223.242188 355.1875 C 223.664062 355.484375 223.898438 355.640625 223.898438 355.640625 C 223.898438 355.640625 223.859375 355.257812 223.777344 354.578125 Z M 223.777344 354.578125 "/>
<path style=" stroke:none;fill-rule:nonzero;fill:rgb(90.196078%,90.196078%,90.196078%);fill-opacity:1;" d="M 0.148438 4.046875 L 349.820312 4.046875 L 349.820312 227.683594 L 0.148438 227.683594 Z M 0.148438 4.046875 "/>
<path style=" stroke:none;fill-rule:nonzero;fill:rgb(100%,100%,100%);fill-opacity:1;" d="M 10.148438 32.097656 L 339.820312 32.097656 L 339.820312 214.453125 L 10.148438 214.453125 Z M 10.148438 32.097656 "/>
<path style=" stroke:none;fill-rule:nonzero;fill:rgb(90.196078%,90.196078%,90.196078%);fill-opacity:1;" d="M 247.417969 50.785156 L 318.46875 50.785156 L 318.46875 90.695312 L 247.417969 90.695312 Z M 247.417969 50.785156 "/>
<path style=" stroke:none;fill-rule:nonzero;fill:rgb(90.196078%,90.196078%,90.196078%);fill-opacity:1;" d="M 247.417969 103.320312 L 318.46875 103.320312 L 318.46875 143.230469 L 247.417969 143.230469 Z M 247.417969 103.320312 "/>
<path style=" stroke:none;fill-rule:nonzero;fill:rgb(90.196078%,90.196078%,90.196078%);fill-opacity:1;" d="M 247.417969 155.855469 L 318.46875 155.855469 L 318.46875 195.765625 L 247.417969 195.765625 Z M 247.417969 155.855469 "/>
<path style=" stroke:none;fill-rule:nonzero;fill:rgb(90.196078%,90.196078%,90.196078%);fill-opacity:1;" d="M 31.5 50.785156 L 102.550781 50.785156 L 102.550781 90.695312 L 31.5 90.695312 Z M 31.5 50.785156 "/>
<path style=" stroke:none;fill-rule:nonzero;fill:rgb(90.196078%,90.196078%,90.196078%);fill-opacity:1;" d="M 31.5 103.320312 L 102.550781 103.320312 L 102.550781 143.230469 L 31.5 143.230469 Z M 31.5 103.320312 "/>
<path style=" stroke:none;fill-rule:nonzero;fill:rgb(90.196078%,90.196078%,90.196078%);fill-opacity:1;" d="M 31.5 155.855469 L 102.550781 155.855469 L 102.550781 195.765625 L 31.5 195.765625 Z M 31.5 155.855469 "/>
<path style=" stroke:none;fill-rule:nonzero;fill:rgb(18.431373%,18.039216%,25.490196%);fill-opacity:1;" d="M 193.40625 60 C 193.40625 67.964844 186.9375 74.425781 178.957031 74.425781 C 170.976562 74.425781 164.507812 67.964844 164.507812 60 C 164.507812 52.03125 170.976562 45.570312 178.957031 45.570312 C 186.9375 45.570312 193.40625 52.03125 193.40625 60 Z M 193.40625 60 "/>
<path style=" stroke:none;fill-rule:nonzero;fill:rgb(62.745098%,38.039216%,41.568627%);fill-opacity:1;" d="M 230.445312 14.105469 L 235.273438 10.0625 C 236.488281 9.046875 237.222656 7.570312 237.304688 5.988281 C 237.382812 4.40625 236.804688 2.863281 235.699219 1.730469 C 234.347656 0.339844 232.378906 -0.269531 230.480469 0.113281 C 228.578125 0.496094 227 1.820312 226.292969 3.621094 L 223.992188 9.5 L 205.546875 41.121094 L 196.171875 66.75 L 203.703125 75.808594 L 213.847656 44.496094 Z M 230.445312 14.105469 "/>
<path style=" stroke:none;fill-rule:nonzero;fill:rgb(62.745098%,38.039216%,41.568627%);fill-opacity:1;" d="M 127.777344 14.105469 L 122.949219 10.0625 C 121.734375 9.046875 121 7.570312 120.917969 5.988281 C 120.835938 4.40625 121.417969 2.863281 122.523438 1.730469 C 123.875 0.339844 125.839844 -0.269531 127.742188 0.113281 C 129.644531 0.496094 131.21875 1.820312 131.925781 3.621094 L 134.230469 9.5 L 152.675781 41.121094 L 162.972656 67.058594 L 154.519531 75.808594 L 144.375 44.496094 Z M 127.777344 14.105469 "/>
<path style=" stroke:none;fill-rule:nonzero;fill:rgb(18.431373%,18.039216%,25.490196%);fill-opacity:1;" d="M 186.949219 45.570312 C 186.949219 49.640625 183.644531 52.9375 179.570312 52.9375 C 175.496094 52.9375 172.195312 49.640625 172.195312 45.570312 C 172.195312 41.5 175.496094 38.203125 179.570312 38.203125 C 183.644531 38.203125 186.949219 41.5 186.949219 45.570312 Z M 186.949219 45.570312 "/>
<path style=" stroke:none;fill-rule:nonzero;fill:rgb(62.745098%,38.039216%,41.568627%);fill-opacity:1;" d="M 180.1875 276.105469 L 173.578125 275.644531 L 173.886719 185.703125 L 190.175781 189.691406 Z M 180.1875 276.105469 "/>
<path style=" stroke:none;fill-rule:nonzero;fill:rgb(18.431373%,18.039216%,25.490196%);fill-opacity:1;" d="M 172.773438 298.464844 C 170.09375 298.40625 167.734375 296.691406 166.851562 294.167969 C 165.414062 289.949219 166.15625 285.9375 168.660156 282.089844 L 167.839844 276.375 C 167.578125 274.546875 168.128906 272.695312 169.339844 271.300781 L 173.578125 266.433594 L 173.578125 272.574219 C 176.679688 269.863281 178.589844 269.765625 181.261719 271.960938 L 178.804688 284.546875 L 179.402344 291.441406 C 179.5625 293.277344 178.929688 295.09375 177.664062 296.4375 C 176.398438 297.777344 174.617188 298.515625 172.773438 298.464844 Z M 172.773438 298.464844 "/>
<path style=" stroke:none;fill-rule:nonzero;fill:rgb(62.745098%,38.039216%,41.568627%);fill-opacity:1;" d="M 190.792969 93.609375 L 164.96875 92.996094 C 168.628906 89.445312 173.871094 75.828125 172.960938 71.816406 L 185.566406 71.816406 C 184.054688 75.945312 186.980469 89.964844 190.792969 93.609375 Z M 190.792969 93.609375 "/>
<path style=" stroke:none;fill-rule:nonzero;fill:rgb(38.823529%,59.607843%,100%);fill-opacity:1;" d="M 197.554688 140.882812 L 161.898438 130.449219 L 163.125 115.097656 L 160.050781 99.445312 C 160.367188 97.746094 152.25 76.765625 152.675781 75.191406 C 154.371094 68.90625 158.820312 69.777344 162.050781 65.214844 C 162.574219 64.476562 166.671875 69.683594 169.320312 73.203125 C 169.632812 73.746094 169.847656 74.113281 170 74.363281 C 170.996094 76.042969 171.429688 77.996094 171.234375 79.941406 L 171.230469 79.972656 C 169.78125 84.992188 173.113281 82.933594 178.34375 83.019531 C 182.777344 83.09375 186.796875 86.605469 186.796875 82.175781 C 186.789062 81.921875 186.777344 81.660156 186.765625 81.390625 C 186.675781 79.125 187.214844 76.875 188.324219 74.894531 C 188.390625 74.769531 188.066406 75.289062 189.738281 72.441406 C 192.738281 68.207031 196.867188 62.578125 197.09375 63.375 C 198.039062 66.734375 202.917969 69.554688 204.625 75.5 C 204.886719 76.414062 203.304688 81.96875 203.394531 82.867188 C 204.078125 89.601562 202.78125 93.304688 202.164062 98.523438 C 198.34375 112.300781 196.789062 126.609375 197.554688 140.882812 Z M 197.554688 140.882812 "/>
<path style=" stroke:none;fill-rule:nonzero;fill:rgb(18.431373%,18.039216%,25.490196%);fill-opacity:1;" d="M 192.636719 193.375 L 172.347656 187.238281 L 172.039062 168.820312 L 156.054688 138.121094 L 162.203125 127.992188 L 197.246094 137.199219 C 199.636719 152.5 197.003906 172.183594 192.636719 193.375 Z M 192.636719 193.375 "/>
<path style=" stroke:none;fill-rule:nonzero;fill:rgb(18.431373%,18.039216%,25.490196%);fill-opacity:1;" d="M 183.105469 168.820312 L 172.039062 168.820312 L 151.445312 139.964844 L 158.824219 133.824219 Z M 183.105469 168.820312 "/>
<path style=" stroke:none;fill-rule:nonzero;fill:rgb(18.431373%,18.039216%,25.490196%);fill-opacity:1;" d="M 188.332031 168.511719 L 169.945312 168.511719 C 165.582031 168.519531 161.320312 167.21875 157.707031 164.777344 C 149.644531 159.335938 147.066406 148.640625 151.445312 139.964844 L 188.332031 141.804688 Z M 188.332031 168.511719 "/>
<path style=" stroke:none;fill-rule:nonzero;fill:rgb(62.745098%,38.039216%,41.568627%);fill-opacity:1;" d="M 172.242188 147.820312 L 156.054688 147.332031 C 155.996094 147.175781 155.9375 147.023438 155.882812 146.867188 C 153.730469 140.746094 156.96875 134.089844 162.957031 131.574219 C 163.5625 131.320312 164.171875 131.085938 164.800781 130.871094 C 167.726562 129.847656 170.96875 130.292969 173.515625 132.066406 C 176.058594 133.839844 177.597656 136.722656 177.652344 139.820312 C 177.667969 141.050781 177.589844 142.277344 177.421875 143.496094 C 177.050781 146.046875 174.820312 147.90625 172.242188 147.820312 Z M 172.242188 147.820312 "/>
<path style=" stroke:none;fill-rule:nonzero;fill:rgb(62.745098%,38.039216%,41.568627%);fill-opacity:1;" d="M 163.433594 197.058594 L 156.976562 197.058594 L 156.054688 144.875 L 174.191406 144.566406 Z M 163.433594 197.058594 "/>
<path style=" stroke:none;fill-rule:nonzero;fill:rgb(18.431373%,18.039216%,25.490196%);fill-opacity:1;" d="M 156.175781 219.992188 C 153.496094 219.929688 151.136719 218.21875 150.25 215.691406 C 148.8125 211.476562 149.558594 207.464844 152.058594 203.617188 L 151.242188 197.898438 C 150.980469 196.070312 151.527344 194.21875 152.742188 192.824219 L 156.976562 187.960938 L 156.976562 194.097656 C 160.078125 191.390625 161.992188 191.292969 164.664062 193.484375 L 162.203125 206.070312 L 162.804688 212.964844 C 162.964844 214.804688 162.332031 216.621094 161.066406 217.960938 C 159.800781 219.304688 158.019531 220.042969 156.175781 219.992188 Z M 156.175781 219.992188 "/>
<path style=" stroke:none;fill-rule:nonzero;fill:rgb(62.745098%,38.039216%,41.568627%);fill-opacity:1;" d="M 192.019531 63.835938 C 192.019531 70.785156 186.378906 76.421875 179.417969 76.421875 C 172.457031 76.421875 166.816406 70.785156 166.816406 63.835938 C 166.816406 56.882812 172.457031 51.25 179.417969 51.25 C 186.378906 51.25 192.019531 56.882812 192.019531 63.835938 Z M 192.019531 63.835938 "/>
<path style=" stroke:none;fill-rule:nonzero;fill:rgb(18.431373%,18.039216%,25.490196%);fill-opacity:1;" d="M 190.484375 58.308594 C 190.484375 64.753906 184.640625 55.546875 178.1875 55.546875 C 171.738281 55.546875 167.121094 64.753906 167.121094 58.308594 C 167.121094 51.867188 172.351562 46.644531 178.804688 46.644531 C 185.253906 46.644531 190.484375 51.867188 190.484375 58.308594 Z M 190.484375 58.308594 "/>
<path style=" stroke:none;fill-rule:nonzero;fill:rgb(38.823529%,59.607843%,100%);fill-opacity:1;" d="M 0 3.851562 L 349.671875 3.851562 L 349.671875 18.6875 L 0 18.6875 Z M 0 3.851562 "/>
<path style=" stroke:none;fill-rule:nonzero;fill:rgb(100%,100%,100%);fill-opacity:1;" d="M 13.792969 11.433594 C 13.792969 12.953125 12.558594 14.183594 11.039062 14.183594 C 9.519531 14.183594 8.285156 12.953125 8.285156 11.433594 C 8.285156 9.917969 9.519531 8.6875 11.039062 8.6875 C 12.558594 8.6875 13.792969 9.917969 13.792969 11.433594 Z M 13.792969 11.433594 "/>
<path style=" stroke:none;fill-rule:nonzero;fill:rgb(100%,100%,100%);fill-opacity:1;" d="M 24.242188 11.433594 C 24.242188 12.953125 23.011719 14.183594 21.488281 14.183594 C 19.96875 14.183594 18.738281 12.953125 18.738281 11.433594 C 18.738281 9.917969 19.96875 8.6875 21.488281 8.6875 C 23.011719 8.6875 24.242188 9.917969 24.242188 11.433594 Z M 24.242188 11.433594 "/>
<path style=" stroke:none;fill-rule:nonzero;fill:rgb(100%,100%,100%);fill-opacity:1;" d="M 34.695312 11.433594 C 34.695312 12.953125 33.460938 14.183594 31.941406 14.183594 C 30.421875 14.183594 29.1875 12.953125 29.1875 11.433594 C 29.1875 9.917969 30.421875 8.6875 31.941406 8.6875 C 33.460938 8.6875 34.695312 9.917969 34.695312 11.433594 Z M 34.695312 11.433594 "/>
</g>
</svg>
