<?xml version="1.0" encoding="UTF-8"?>
<svg xmlns="http://www.w3.org/2000/svg" xmlns:xlink="http://www.w3.org/1999/xlink" width="444pt" height="309pt" viewBox="0 0 444 309" version="1.1">
<defs>
<filter id="alpha" filterUnits="objectBoundingBox" x="0%" y="0%" width="100%" height="100%">
  <feColorMatrix type="matrix" in="SourceGraphic" values="0 0 0 0 1 0 0 0 0 1 0 0 0 0 1 0 0 0 1 0"/>
</filter>
<mask id="mask0">
  <g filter="url(#alpha)">
<rect x="0" y="0" width="444" height="309" style="fill:rgb(0%,0%,0%);fill-opacity:0.2;stroke:none;"/>
  </g>
</mask>
<clipPath id="clip1">
  <rect x="0" y="0" width="444" height="309"/>
</clipPath>
<g id="surface5" clip-path="url(#clip1)">
<path style=" stroke:none;fill-rule:nonzero;fill:rgb(0%,0%,0%);fill-opacity:1;" d="M 210.097656 289.570312 C 210.824219 290.402344 211.222656 291.46875 211.222656 292.570312 C 211.214844 295.109375 209.160156 297.160156 206.625 297.167969 L 198.726562 297.167969 L 198.726562 297.640625 L 207.097656 297.640625 C 209.632812 297.632812 211.6875 295.578125 211.695312 293.042969 C 211.691406 291.707031 211.109375 290.441406 210.097656 289.570312 Z M 210.097656 289.570312 "/>
</g>
<mask id="mask1">
  <g filter="url(#alpha)">
<rect x="0" y="0" width="444" height="309" style="fill:rgb(0%,0%,0%);fill-opacity:0.2;stroke:none;"/>
  </g>
</mask>
<clipPath id="clip2">
  <rect x="0" y="0" width="444" height="309"/>
</clipPath>
<g id="surface8" clip-path="url(#clip2)">
<path style=" stroke:none;fill-rule:nonzero;fill:rgb(0%,0%,0%);fill-opacity:1;" d="M 241.992188 234.148438 C 241.882812 235.246094 241.382812 236.269531 240.582031 237.027344 C 238.730469 238.761719 235.824219 238.675781 234.082031 236.835938 L 228.664062 231.085938 L 228.320312 231.410156 L 234.0625 237.5 C 235.804688 239.339844 238.710938 239.425781 240.5625 237.691406 C 241.53125 236.777344 242.054688 235.480469 241.992188 234.148438 Z M 241.992188 234.148438 "/>
</g>
<mask id="mask2">
  <g filter="url(#alpha)">
<rect x="0" y="0" width="444" height="309" style="fill:rgb(0%,0%,0%);fill-opacity:0.2;stroke:none;"/>
  </g>
</mask>
<clipPath id="clip3">
  <rect x="0" y="0" width="444" height="309"/>
</clipPath>
<g id="surface11" clip-path="url(#clip3)">
<path style=" stroke:none;fill-rule:nonzero;fill:rgb(0%,0%,0%);fill-opacity:1;" d="M 217.492188 248.648438 C 217.382812 249.746094 216.882812 250.769531 216.082031 251.527344 C 214.230469 253.261719 211.324219 253.175781 209.582031 251.335938 L 204.164062 245.585938 L 203.820312 245.910156 L 209.5625 252 C 211.304688 253.839844 214.210938 253.925781 216.0625 252.191406 C 217.03125 251.277344 217.554688 249.980469 217.492188 248.648438 Z M 217.492188 248.648438 "/>
</g>
<mask id="mask3">
  <g filter="url(#alpha)">
<rect x="0" y="0" width="444" height="309" style="fill:rgb(0%,0%,0%);fill-opacity:0.2;stroke:none;"/>
  </g>
</mask>
<clipPath id="clip4">
  <rect x="0" y="0" width="444" height="309"/>
</clipPath>
<g id="surface14" clip-path="url(#clip4)">
<path style=" stroke:none;fill-rule:nonzero;fill:rgb(0%,0%,0%);fill-opacity:1;" d="M 241.992188 262.148438 C 241.882812 263.246094 241.382812 264.269531 240.582031 265.027344 C 238.730469 266.761719 235.824219 266.675781 234.082031 264.835938 L 228.664062 259.085938 L 228.320312 259.410156 L 234.0625 265.5 C 235.804688 267.339844 238.710938 267.425781 240.5625 265.691406 C 241.53125 264.777344 242.054688 263.480469 241.992188 262.148438 Z M 241.992188 262.148438 "/>
</g>
<mask id="mask4">
  <g filter="url(#alpha)">
<rect x="0" y="0" width="444" height="309" style="fill:rgb(0%,0%,0%);fill-opacity:0.2;stroke:none;"/>
  </g>
</mask>
<clipPath id="clip5">
  <rect x="0" y="0" width="444" height="309"/>
</clipPath>
<g id="surface17" clip-path="url(#clip5)">
<path style=" stroke:none;fill-rule:nonzero;fill:rgb(0%,0%,0%);fill-opacity:1;" d="M 229.5625 288.65625 C 228.464844 288.5625 227.4375 288.074219 226.667969 287.28125 C 224.910156 285.453125 224.960938 282.546875 226.78125 280.777344 L 232.464844 275.289062 L 232.136719 274.953125 L 226.113281 280.765625 C 224.296875 282.535156 224.246094 285.441406 226.003906 287.269531 C 226.929688 288.226562 228.230469 288.734375 229.5625 288.65625 Z M 229.5625 288.65625 "/>
</g>
<mask id="mask5">
  <g filter="url(#alpha)">
<rect x="0" y="0" width="444" height="309" style="fill:rgb(0%,0%,0%);fill-opacity:0.2;stroke:none;"/>
  </g>
</mask>
<clipPath id="clip6">
  <rect x="0" y="0" width="444" height="309"/>
</clipPath>
<g id="surface20" clip-path="url(#clip6)">
<path style=" stroke:none;fill-rule:nonzero;fill:rgb(0%,0%,0%);fill-opacity:1;" d="M 196.5625 274.15625 C 195.464844 274.0625 194.4375 273.574219 193.667969 272.78125 C 191.910156 270.953125 191.960938 268.046875 193.78125 266.277344 L 199.464844 260.789062 L 199.136719 260.453125 L 193.113281 266.265625 C 191.296875 268.035156 191.246094 270.941406 193.003906 272.769531 C 193.929688 273.726562 195.230469 274.234375 196.5625 274.15625 Z M 196.5625 274.15625 "/>
</g>
<mask id="mask6">
  <g filter="url(#alpha)">
<rect x="0" y="0" width="444" height="309" style="fill:rgb(0%,0%,0%);fill-opacity:0.2;stroke:none;"/>
  </g>
</mask>
<clipPath id="clip7">
  <rect x="0" y="0" width="444" height="309"/>
</clipPath>
<g id="surface23" clip-path="url(#clip7)">
<path style=" stroke:none;fill-rule:nonzero;fill:rgb(0%,0%,0%);fill-opacity:1;" d="M 243.5625 256.65625 C 242.464844 256.5625 241.4375 256.074219 240.667969 255.28125 C 238.910156 253.453125 238.960938 250.546875 240.78125 248.777344 L 246.464844 243.289062 L 246.136719 242.953125 L 240.113281 248.765625 C 238.296875 250.535156 238.246094 253.441406 240.003906 255.269531 C 240.929688 256.226562 242.230469 256.734375 243.5625 256.65625 Z M 243.5625 256.65625 "/>
</g>
<mask id="mask7">
  <g filter="url(#alpha)">
<rect x="0" y="0" width="444" height="309" style="fill:rgb(0%,0%,0%);fill-opacity:0.2;stroke:none;"/>
  </g>
</mask>
<clipPath id="clip8">
  <rect x="0" y="0" width="444" height="309"/>
</clipPath>
<g id="surface26" clip-path="url(#clip8)">
<path style=" stroke:none;fill-rule:nonzero;fill:rgb(0%,0%,0%);fill-opacity:1;" d="M 260.492188 295.148438 C 260.382812 296.246094 259.882812 297.269531 259.082031 298.027344 C 257.230469 299.761719 254.324219 299.675781 252.582031 297.835938 L 247.164062 292.085938 L 246.820312 292.410156 L 252.5625 298.5 C 254.304688 300.339844 257.210938 300.425781 259.0625 298.691406 C 260.03125 297.777344 260.554688 296.480469 260.492188 295.148438 Z M 260.492188 295.148438 "/>
</g>
<mask id="mask8">
  <g filter="url(#alpha)">
<rect x="0" y="0" width="444" height="309" style="fill:rgb(0%,0%,0%);fill-opacity:0.2;stroke:none;"/>
  </g>
</mask>
<clipPath id="clip9">
  <rect x="0" y="0" width="444" height="309"/>
</clipPath>
<g id="surface29" clip-path="url(#clip9)">
<path style=" stroke:none;fill-rule:nonzero;fill:rgb(0%,0%,0%);fill-opacity:1;" d="M 227.992188 294.648438 C 227.882812 295.746094 227.382812 296.769531 226.582031 297.527344 C 224.730469 299.261719 221.824219 299.175781 220.082031 297.335938 L 214.664062 291.585938 L 214.320312 291.910156 L 220.0625 298 C 221.804688 299.839844 224.710938 299.925781 226.5625 298.191406 C 227.53125 297.277344 228.054688 295.980469 227.992188 294.648438 Z M 227.992188 294.648438 "/>
</g>
<mask id="mask9">
  <g filter="url(#alpha)">
<rect x="0" y="0" width="444" height="309" style="fill:rgb(0%,0%,0%);fill-opacity:0.2;stroke:none;"/>
  </g>
</mask>
<clipPath id="clip10">
  <rect x="0" y="0" width="444" height="309"/>
</clipPath>
<g id="surface32" clip-path="url(#clip10)">
<path style=" stroke:none;fill-rule:nonzero;fill:rgb(0%,0%,0%);fill-opacity:1;" d="M 219.273438 256.6875 L 219.273438 269.683594 C 218.398438 269.859375 217.496094 269.859375 216.621094 269.683594 L 216.621094 256.6875 C 217.496094 256.507812 218.398438 256.507812 219.273438 256.6875 Z M 219.273438 256.6875 "/>
</g>
<mask id="mask10">
  <g filter="url(#alpha)">
<rect x="0" y="0" width="444" height="309" style="fill:rgb(0%,0%,0%);fill-opacity:0.2;stroke:none;"/>
  </g>
</mask>
<clipPath id="clip11">
  <rect x="0" y="0" width="444" height="309"/>
</clipPath>
<g id="surface35" clip-path="url(#clip11)">
<path style=" stroke:none;fill-rule:nonzero;fill:rgb(0%,0%,0%);fill-opacity:1;" d="M 222.273438 230.1875 L 222.273438 243.183594 C 221.398438 243.359375 220.496094 243.359375 219.621094 243.183594 L 219.621094 230.1875 C 220.496094 230.007812 221.398438 230.007812 222.273438 230.1875 Z M 222.273438 230.1875 "/>
</g>
<mask id="mask11">
  <g filter="url(#alpha)">
<rect x="0" y="0" width="444" height="309" style="fill:rgb(0%,0%,0%);fill-opacity:0.2;stroke:none;"/>
  </g>
</mask>
<clipPath id="clip12">
  <rect x="0" y="0" width="444" height="309"/>
</clipPath>
<g id="surface38" clip-path="url(#clip12)">
<path style=" stroke:none;fill-rule:nonzero;fill:rgb(0%,0%,0%);fill-opacity:1;" d="M 222.273438 268.1875 L 222.273438 281.183594 C 221.398438 281.359375 220.496094 281.359375 219.621094 281.183594 L 219.621094 268.1875 C 220.496094 268.007812 221.398438 268.007812 222.273438 268.1875 Z M 222.273438 268.1875 "/>
</g>
<mask id="mask12">
  <g filter="url(#alpha)">
<rect x="0" y="0" width="444" height="309" style="fill:rgb(0%,0%,0%);fill-opacity:0.2;stroke:none;"/>
  </g>
</mask>
<clipPath id="clip13">
  <rect x="0" y="0" width="444" height="309"/>
</clipPath>
<g id="surface41" clip-path="url(#clip13)">
<path style=" stroke:none;fill-rule:nonzero;fill:rgb(0%,0%,0%);fill-opacity:1;" d="M 238.773438 286.6875 L 238.773438 299.683594 C 237.898438 299.859375 236.996094 299.859375 236.121094 299.683594 L 236.121094 286.6875 C 236.996094 286.507812 237.898438 286.507812 238.773438 286.6875 Z M 238.773438 286.6875 "/>
</g>
<mask id="mask13">
  <g filter="url(#alpha)">
<rect x="0" y="0" width="444" height="309" style="fill:rgb(0%,0%,0%);fill-opacity:0.2;stroke:none;"/>
  </g>
</mask>
<clipPath id="clip14">
  <rect x="0" y="0" width="444" height="309"/>
</clipPath>
<g id="surface44" clip-path="url(#clip14)">
<path style=" stroke:none;fill-rule:nonzero;fill:rgb(0%,0%,0%);fill-opacity:1;" d="M 250.292969 258.457031 L 259.652344 267.476562 C 259.171875 268.230469 258.546875 268.878906 257.8125 269.386719 L 248.453125 260.367188 C 248.933594 259.613281 249.558594 258.964844 250.292969 258.457031 Z M 250.292969 258.457031 "/>
</g>
<mask id="mask14">
  <g filter="url(#alpha)">
<rect x="0" y="0" width="444" height="309" style="fill:rgb(0%,0%,0%);fill-opacity:0.2;stroke:none;"/>
  </g>
</mask>
<clipPath id="clip15">
  <rect x="0" y="0" width="444" height="309"/>
</clipPath>
<g id="surface47" clip-path="url(#clip15)">
<path style=" stroke:none;fill-rule:nonzero;fill:rgb(0%,0%,0%);fill-opacity:1;" d="M 252.292969 272.957031 L 261.652344 281.976562 C 261.171875 282.730469 260.546875 283.378906 259.8125 283.886719 L 250.453125 274.867188 C 250.933594 274.113281 251.558594 273.464844 252.292969 272.957031 Z M 252.292969 272.957031 "/>
</g>
<mask id="mask15">
  <g filter="url(#alpha)">
<rect x="0" y="0" width="444" height="309" style="fill:rgb(0%,0%,0%);fill-opacity:0.2;stroke:none;"/>
  </g>
</mask>
<clipPath id="clip16">
  <rect x="0" y="0" width="444" height="309"/>
</clipPath>
<g id="surface50" clip-path="url(#clip16)">
<path style=" stroke:none;fill-rule:nonzero;fill:rgb(0%,0%,0%);fill-opacity:1;" d="M 192.792969 276.457031 L 202.152344 285.476562 C 201.671875 286.230469 201.046875 286.878906 200.3125 287.386719 L 190.953125 278.367188 C 191.433594 277.613281 192.058594 276.964844 192.792969 276.457031 Z M 192.792969 276.457031 "/>
</g>
<mask id="mask16">
  <g filter="url(#alpha)">
<rect x="0" y="0" width="444" height="309" style="fill:rgb(0%,0%,0%);fill-opacity:0.2;stroke:none;"/>
  </g>
</mask>
<clipPath id="clip17">
  <rect x="0" y="0" width="444" height="309"/>
</clipPath>
<g id="surface53" clip-path="url(#clip17)">
<path style=" stroke:none;fill-rule:nonzero;fill:rgb(0%,0%,0%);fill-opacity:1;" d="M 177.25 158.054688 L 179.75 158.054688 L 179.75 176.554688 L 177.25 176.554688 Z M 177.25 158.054688 "/>
</g>
<mask id="mask17">
  <g filter="url(#alpha)">
<rect x="0" y="0" width="444" height="309" style="fill:rgb(0%,0%,0%);fill-opacity:0.2;stroke:none;"/>
  </g>
</mask>
<clipPath id="clip18">
  <rect x="0" y="0" width="444" height="309"/>
</clipPath>
<g id="surface56" clip-path="url(#clip18)">
<path style=" stroke:none;fill-rule:nonzero;fill:rgb(0%,0%,0%);fill-opacity:1;" d="M 191.75 158.054688 L 194.25 158.054688 L 194.25 176.554688 L 191.75 176.554688 Z M 191.75 158.054688 "/>
</g>
<mask id="mask18">
  <g filter="url(#alpha)">
<rect x="0" y="0" width="444" height="309" style="fill:rgb(0%,0%,0%);fill-opacity:0.2;stroke:none;"/>
  </g>
</mask>
<clipPath id="clip19">
  <rect x="0" y="0" width="444" height="309"/>
</clipPath>
<g id="surface59" clip-path="url(#clip19)">
<path style=" stroke:none;fill-rule:nonzero;fill:rgb(0%,0%,0%);fill-opacity:1;" d="M 206.25 158.054688 L 208.75 158.054688 L 208.75 176.554688 L 206.25 176.554688 Z M 206.25 158.054688 "/>
</g>
<mask id="mask19">
  <g filter="url(#alpha)">
<rect x="0" y="0" width="444" height="309" style="fill:rgb(0%,0%,0%);fill-opacity:0.2;stroke:none;"/>
  </g>
</mask>
<clipPath id="clip20">
  <rect x="0" y="0" width="444" height="309"/>
</clipPath>
<g id="surface62" clip-path="url(#clip20)">
<path style=" stroke:none;fill-rule:nonzero;fill:rgb(0%,0%,0%);fill-opacity:1;" d="M 220.75 158.054688 L 223.25 158.054688 L 223.25 176.554688 L 220.75 176.554688 Z M 220.75 158.054688 "/>
</g>
<mask id="mask20">
  <g filter="url(#alpha)">
<rect x="0" y="0" width="444" height="309" style="fill:rgb(0%,0%,0%);fill-opacity:0.2;stroke:none;"/>
  </g>
</mask>
<clipPath id="clip21">
  <rect x="0" y="0" width="444" height="309"/>
</clipPath>
<g id="surface65" clip-path="url(#clip21)">
<path style=" stroke:none;fill-rule:nonzero;fill:rgb(0%,0%,0%);fill-opacity:1;" d="M 235.25 158.054688 L 237.75 158.054688 L 237.75 176.554688 L 235.25 176.554688 Z M 235.25 158.054688 "/>
</g>
<mask id="mask21">
  <g filter="url(#alpha)">
<rect x="0" y="0" width="444" height="309" style="fill:rgb(0%,0%,0%);fill-opacity:0.2;stroke:none;"/>
  </g>
</mask>
<clipPath id="clip22">
  <rect x="0" y="0" width="444" height="309"/>
</clipPath>
<g id="surface68" clip-path="url(#clip22)">
<path style=" stroke:none;fill-rule:nonzero;fill:rgb(0%,0%,0%);fill-opacity:1;" d="M 249.75 158.054688 L 252.25 158.054688 L 252.25 176.554688 L 249.75 176.554688 Z M 249.75 158.054688 "/>
</g>
<mask id="mask22">
  <g filter="url(#alpha)">
<rect x="0" y="0" width="444" height="309" style="fill:rgb(0%,0%,0%);fill-opacity:0.2;stroke:none;"/>
  </g>
</mask>
<clipPath id="clip23">
  <rect x="0" y="0" width="444" height="309"/>
</clipPath>
<g id="surface71" clip-path="url(#clip23)">
<path style=" stroke:none;fill-rule:nonzero;fill:rgb(0%,0%,0%);fill-opacity:1;" d="M 264.25 158.054688 L 266.75 158.054688 L 266.75 176.554688 L 264.25 176.554688 Z M 264.25 158.054688 "/>
</g>
</defs>
<g id="surface1">
<path style=" stroke:none;fill-rule:nonzero;fill:rgb(18.431373%,18.039216%,25.490196%);fill-opacity:1;" d="M 370.976562 47.523438 L 336.726562 47.855469 C 335.117188 39.929688 329.707031 19.132812 334.578125 13.460938 C 335.039062 9.027344 338.910156 5.738281 343.363281 6 C 348.671875 -2.308594 357.511719 -1.0625 363.488281 4.128906 C 369.503906 6.203125 371.769531 9.890625 370.976562 14.894531 C 375.433594 18.792969 376.253906 23.539062 374.253906 28.9375 Z M 370.976562 47.523438 "/>
<path style=" stroke:none;fill-rule:nonzero;fill:rgb(100%,72.54902%,72.54902%);fill-opacity:1;" d="M 367.679688 68.621094 L 342.96875 65.199219 L 338.027344 57.976562 C 344.835938 53.460938 347.246094 47.152344 344.109375 38.585938 L 361.21875 38.207031 C 360.417969 45.835938 362.9375 51.742188 369.960938 55.316406 Z M 367.679688 68.621094 "/>
<path style=" stroke:none;fill-rule:nonzero;fill:rgb(90.196078%,90.196078%,90.196078%);fill-opacity:1;" d="M 337.128906 291.507812 L 336.183594 304.425781 C 336.097656 305.609375 336.523438 306.773438 337.359375 307.617188 C 338.191406 308.460938 339.347656 308.902344 340.53125 308.832031 L 347.167969 308.429688 C 347.789062 308.390625 348.363281 308.078125 348.730469 307.578125 C 349.101562 307.074219 349.226562 306.433594 349.074219 305.828125 L 345.390625 291.097656 Z M 337.128906 291.507812 "/>
<path style=" stroke:none;fill-rule:nonzero;fill:rgb(90.196078%,90.196078%,90.196078%);fill-opacity:1;" d="M 358.609375 291.097656 L 354.925781 305.828125 C 354.773438 306.433594 354.898438 307.074219 355.269531 307.578125 C 355.636719 308.078125 356.210938 308.390625 356.832031 308.429688 L 363.46875 308.832031 C 364.652344 308.902344 365.808594 308.460938 366.640625 307.617188 C 367.476562 306.773438 367.902344 305.609375 367.816406 304.425781 L 366.871094 291.507812 Z M 358.609375 291.097656 "/>
<path style=" stroke:none;fill-rule:nonzero;fill:rgb(38.823529%,59.607843%,100%);fill-opacity:1;" d="M 367.300781 293.304688 L 358.347656 292.40625 L 349.433594 197.121094 L 346.0625 292.097656 L 337.265625 291.78125 L 322.441406 160.242188 L 379.085938 160.242188 Z M 367.300781 293.304688 "/>
<path style=" stroke:none;fill-rule:nonzero;fill:rgb(100%,72.54902%,72.54902%);fill-opacity:1;" d="M 370.722656 27.5625 C 370.722656 37.011719 363.0625 44.671875 353.613281 44.671875 C 344.167969 44.671875 336.507812 37.011719 336.507812 27.5625 C 336.507812 18.113281 344.167969 10.453125 353.613281 10.453125 C 363.0625 10.453125 370.722656 18.113281 370.722656 27.5625 Z M 370.722656 27.5625 "/>
<path style=" stroke:none;fill-rule:nonzero;fill:rgb(38.823529%,59.607843%,100%);fill-opacity:1;" d="M 387.449219 163.285156 L 318.257812 164.042969 C 328.527344 124.953125 334.667969 88.640625 323.960938 63.679688 L 341.070312 55.316406 C 349.316406 63.917969 358.503906 63.03125 368.441406 54.554688 L 384.789062 58.738281 C 381.988281 91.472656 383.242188 126.53125 387.449219 163.285156 Z M 387.449219 163.285156 "/>
<path style=" stroke:none;fill-rule:nonzero;fill:rgb(100%,72.54902%,72.54902%);fill-opacity:1;" d="M 299.25 122.984375 L 342.210938 140.09375 L 351.8125 142.917969 C 352.683594 143.171875 353.617188 143.0625 354.402344 142.613281 C 355.1875 142.164062 355.753906 141.414062 355.976562 140.535156 C 356.367188 138.964844 355.570312 137.335938 354.082031 136.6875 L 344.109375 133.628906 L 314.078125 116.144531 L 320.347656 99.605469 L 307.234375 92.570312 Z M 299.25 122.984375 "/>
<path style=" stroke:none;fill-rule:nonzero;fill:rgb(38.823529%,59.607843%,100%);fill-opacity:1;" d="M 299.628906 91.8125 C 307.804688 95 314.304688 100.441406 319.398438 107.777344 L 335.367188 84.589844 L 323.960938 63.679688 Z M 299.628906 91.8125 "/>
<path style=" stroke:none;fill-rule:nonzero;fill:rgb(18.431373%,18.039216%,25.490196%);fill-opacity:1;" d="M 372.894531 24.789062 C 365.953125 23 359.125 22.753906 352.488281 25.023438 C 348.261719 27.070312 343.1875 26.882812 337.539062 25.195312 L 337.539062 8.128906 L 368.019531 8.941406 Z M 372.894531 24.789062 "/>
<path style=" stroke:none;fill-rule:nonzero;fill:rgb(24.705882%,23.921569%,33.72549%);fill-opacity:1;" d="M 342.066406 103.054688 C 339.269531 103.054688 337.003906 105.324219 337 108.121094 L 339 149.984375 C 339.003906 152.78125 341.269531 155.050781 344.066406 155.054688 L 366.933594 155.054688 C 369.730469 155.050781 371.996094 152.78125 372 149.984375 L 374 108.121094 C 373.996094 105.324219 371.730469 103.054688 368.933594 103.054688 Z M 342.066406 103.054688 "/>
<path style=" stroke:none;fill-rule:nonzero;fill:rgb(100%,72.54902%,72.54902%);fill-opacity:1;" d="M 406.945312 119.824219 L 369.5 134.734375 L 366.675781 135.859375 C 366.585938 135.894531 366.496094 135.921875 366.398438 135.953125 L 356.933594 138.738281 C 355.726562 139.09375 354.050781 137.464844 353.070312 136.339844 C 352.066406 135.21875 352.035156 133.53125 352.988281 132.371094 C 353.121094 132.222656 353.265625 132.082031 353.421875 131.957031 C 353.785156 131.675781 354.214844 131.484375 354.671875 131.40625 L 364.125 129.546875 C 364.464844 129.480469 364.789062 129.359375 365.089844 129.1875 L 369.5 126.617188 L 392.394531 113.289062 C 393.710938 112.523438 394.277344 110.921875 393.738281 109.496094 L 389.371094 97.972656 C 388.816406 96.515625 389.429688 94.871094 390.804688 94.132812 L 398.046875 90.253906 C 398.882812 89.804688 399.882812 89.761719 400.753906 90.144531 C 401.625 90.523438 402.273438 91.28125 402.515625 92.203125 L 408.800781 116.144531 C 409.199219 117.664062 408.402344 119.242188 406.945312 119.824219 Z M 406.945312 119.824219 "/>
<path style=" stroke:none;fill-rule:nonzero;fill:rgb(38.823529%,59.607843%,100%);fill-opacity:1;" d="M 409.121094 87.628906 C 400.945312 90.820312 394.445312 96.261719 389.351562 103.597656 L 373.382812 80.40625 L 384.789062 58.738281 Z M 409.121094 87.628906 "/>
<path style=" stroke:none;fill-rule:nonzero;fill:rgb(100%,100%,100%);fill-opacity:1;" d="M 365 42.789062 C 357.515625 45.902344 349.667969 45.777344 341.5 42.789062 C 343.875 38.730469 340.324219 35.554688 338.5 31.460938 L 369 30.554688 C 366.667969 34.109375 363.226562 38.3125 365 42.789062 Z M 365 42.789062 "/>
<path style=" stroke:none;fill-rule:nonzero;fill:rgb(100%,100%,100%);fill-opacity:1;" d="M 368.675781 31.230469 L 368.324219 30.875 L 368.824219 30.375 L 371.808594 26.890625 L 372.191406 27.214844 L 369.191406 30.714844 Z M 368.675781 31.230469 "/>
<path style=" stroke:none;fill-rule:nonzero;fill:rgb(100%,100%,100%);fill-opacity:1;" d="M 336.089844 29.496094 L 336.410156 29.109375 L 339.410156 31.609375 L 339.089844 31.996094 Z M 336.089844 29.496094 "/>
<path style=" stroke:none;fill-rule:nonzero;fill:rgb(100%,100%,100%);fill-opacity:1;" d="M 364.289062 42.417969 L 369.539062 34.167969 L 369.960938 34.4375 L 364.710938 42.6875 Z M 364.289062 42.417969 "/>
<path style=" stroke:none;fill-rule:nonzero;fill:rgb(100%,100%,100%);fill-opacity:1;" d="M 336.539062 34.4375 L 336.960938 34.167969 L 342.210938 42.417969 L 341.789062 42.6875 Z M 336.539062 34.4375 "/>
<path style=" stroke:none;fill-rule:nonzero;fill:rgb(100%,100%,100%);fill-opacity:1;" d="M 370.5 125.910156 L 370.5 134.96875 L 367.347656 136.226562 C 367.246094 136.265625 367.144531 136.296875 367.039062 136.332031 L 356.472656 139.441406 C 355.125 139.835938 353.253906 138.015625 352.160156 136.761719 C 351.039062 135.511719 351.003906 133.628906 352.070312 132.335938 C 352.21875 132.167969 352.378906 132.011719 352.550781 131.871094 C 352.957031 131.554688 353.4375 131.34375 353.945312 131.257812 L 364.5 129.179688 C 364.878906 129.105469 365.242188 128.972656 365.578125 128.78125 Z M 370.5 125.910156 "/>
<path style=" stroke:none;fill-rule:nonzero;fill:rgb(24.705882%,23.921569%,33.72549%);fill-opacity:1;" d="M 375.070312 93.601562 L 373.261719 93.601562 C 373.261719 68.046875 368 50.238281 362.875 50.238281 L 362.421875 48.429688 C 367.019531 48.429688 369.953125 55.839844 371.601562 62.058594 C 373.839844 70.488281 375.070312 81.691406 375.070312 93.601562 Z M 375.070312 93.601562 "/>
<path style=" stroke:none;fill-rule:nonzero;fill:rgb(24.705882%,23.921569%,33.72549%);fill-opacity:1;" d="M 333.511719 87.277344 L 331.707031 87.277344 C 331.707031 63.871094 337.003906 49.332031 344.804688 49.332031 L 344.351562 51.140625 C 338.957031 51.140625 333.511719 62.3125 333.511719 87.277344 Z M 333.511719 87.277344 "/>
<path style=" stroke:none;fill-rule:nonzero;fill:rgb(24.705882%,23.921569%,33.72549%);fill-opacity:1;" d="M 378.683594 94.050781 C 378.683594 96.546875 376.660156 98.570312 374.167969 98.570312 C 371.671875 98.570312 369.648438 96.546875 369.648438 94.050781 C 369.648438 91.558594 371.671875 89.535156 374.167969 89.535156 C 376.660156 89.535156 378.683594 91.558594 378.683594 94.050781 Z M 378.683594 94.050781 "/>
<path style=" stroke:none;fill-rule:nonzero;fill:rgb(24.705882%,23.921569%,33.72549%);fill-opacity:1;" d="M 326.285156 98.117188 L 324.476562 98.117188 C 324.476562 91.640625 328.125 86.375 332.609375 86.375 L 332.609375 88.179688 C 329.121094 88.179688 326.285156 92.636719 326.285156 98.117188 Z M 326.285156 98.117188 "/>
<path style=" stroke:none;fill-rule:nonzero;fill:rgb(24.705882%,23.921569%,33.72549%);fill-opacity:1;" d="M 340.738281 98.117188 L 338.933594 98.117188 C 338.933594 92.636719 336.097656 88.179688 332.609375 88.179688 L 332.609375 86.375 C 337.09375 86.375 340.738281 91.640625 340.738281 98.117188 Z M 340.738281 98.117188 "/>
<path style=" stroke:none;fill-rule:nonzero;fill:rgb(24.705882%,23.921569%,33.72549%);fill-opacity:1;" d="M 341.644531 98.570312 C 341.644531 99.566406 340.835938 100.375 339.835938 100.375 C 338.839844 100.375 338.03125 99.566406 338.03125 98.570312 C 338.03125 97.570312 338.839844 96.761719 339.835938 96.761719 C 340.835938 96.761719 341.644531 97.570312 341.644531 98.570312 Z M 341.644531 98.570312 "/>
<path style=" stroke:none;fill-rule:nonzero;fill:rgb(24.705882%,23.921569%,33.72549%);fill-opacity:1;" d="M 327.1875 98.570312 C 327.1875 99.566406 326.378906 100.375 325.382812 100.375 C 324.382812 100.375 323.574219 99.566406 323.574219 98.570312 C 323.574219 97.570312 324.382812 96.761719 325.382812 96.761719 C 326.378906 96.761719 327.1875 97.570312 327.1875 98.570312 Z M 327.1875 98.570312 "/>
<path style=" stroke:none;fill-rule:nonzero;fill:rgb(18.431373%,18.039216%,25.490196%);fill-opacity:1;" d="M 107.636719 37.847656 L 75.902344 43.222656 C 74.277344 43.5 72.707031 42.503906 72.265625 40.917969 C 69.972656 32.640625 65.179688 21.847656 69.835938 16.429688 C 70.328125 11.691406 74.460938 8.183594 79.210938 8.460938 C 84.882812 -0.414062 94.324219 0.921875 100.707031 6.460938 C 107.128906 8.679688 109.550781 12.617188 108.703125 17.957031 C 111.476562 20.386719 112.933594 23.121094 113.238281 26.125 C 113.535156 29.503906 112.359375 32.847656 110.011719 35.300781 Z M 107.636719 37.847656 "/>
<path style=" stroke:none;fill-rule:nonzero;fill:rgb(62.352941%,38.039216%,41.568627%);fill-opacity:1;" d="M 102.703125 62.832031 L 78.101562 61.382812 C 80.511719 55.851562 81.476562 50.523438 80.511719 45.464844 L 98.84375 45.464844 C 98.800781 49.347656 100.734375 56.0625 102.703125 62.832031 Z M 102.703125 62.832031 "/>
<path style=" stroke:none;fill-rule:nonzero;fill:rgb(90.196078%,90.196078%,90.196078%);fill-opacity:1;" d="M 73.089844 290.144531 L 72.082031 303.9375 C 71.988281 305.203125 72.445312 306.441406 73.335938 307.34375 C 74.226562 308.246094 75.460938 308.71875 76.726562 308.640625 L 83.8125 308.210938 C 84.476562 308.171875 85.085938 307.839844 85.480469 307.300781 C 85.875 306.765625 86.007812 306.078125 85.847656 305.433594 L 81.914062 289.703125 Z M 73.089844 290.144531 "/>
<path style=" stroke:none;fill-rule:nonzero;fill:rgb(90.196078%,90.196078%,90.196078%);fill-opacity:1;" d="M 96.027344 289.703125 L 92.09375 305.433594 C 91.933594 306.078125 92.066406 306.765625 92.460938 307.300781 C 92.855469 307.839844 93.46875 308.171875 94.132812 308.210938 L 101.214844 308.640625 C 102.480469 308.71875 103.714844 308.246094 104.605469 307.34375 C 105.496094 306.441406 105.953125 305.203125 105.863281 303.9375 L 104.851562 290.144531 Z M 96.027344 289.703125 "/>
<path style=" stroke:none;fill-rule:nonzero;fill:rgb(38.823529%,59.607843%,100%);fill-opacity:1;" d="M 105.308594 292.058594 L 95.75 291.101562 L 86.230469 189.351562 L 82.632812 290.773438 L 73.238281 290.433594 L 57.40625 149.972656 L 117.894531 149.972656 Z M 105.308594 292.058594 "/>
<path style=" stroke:none;fill-rule:nonzero;fill:rgb(62.352941%,38.039216%,41.568627%);fill-opacity:1;" d="M 108.429688 33.054688 C 108.429688 43.144531 100.25 51.320312 90.160156 51.320312 C 80.070312 51.320312 71.894531 43.144531 71.894531 33.054688 C 71.894531 22.964844 80.070312 14.785156 90.160156 14.785156 C 100.25 14.785156 108.429688 22.964844 108.429688 33.054688 Z M 108.429688 33.054688 "/>
<path style=" stroke:none;fill-rule:nonzero;fill:rgb(18.431373%,18.039216%,25.490196%);fill-opacity:1;" d="M 110.75 24.328125 C 103.335938 23.035156 96.046875 22.859375 88.960938 24.496094 C 84.445312 25.972656 79.023438 25.835938 72.996094 24.621094 L 72.996094 12.300781 L 105.542969 12.886719 Z M 110.75 24.328125 "/>
<path style=" stroke:none;fill-rule:nonzero;fill:rgb(100%,100%,100%);fill-opacity:1;" d="M 102.320312 47.710938 C 94.328125 51.035156 85.949219 50.902344 77.226562 47.710938 C 79.761719 43.378906 75.96875 39.988281 74.023438 35.613281 L 106.589844 34.644531 C 104.101562 38.445312 100.425781 42.933594 102.320312 47.710938 Z M 102.320312 47.710938 "/>
<path style=" stroke:none;fill-rule:nonzero;fill:rgb(100%,100%,100%);fill-opacity:1;" d="M 71.457031 33.503906 L 71.777344 33.117188 L 74.980469 35.789062 L 74.664062 36.171875 Z M 71.457031 33.503906 "/>
<path style=" stroke:none;fill-rule:nonzero;fill:rgb(100%,100%,100%);fill-opacity:1;" d="M 101.574219 47.324219 L 107.179688 38.515625 L 107.601562 38.785156 L 101.996094 47.59375 Z M 101.574219 47.324219 "/>
<path style=" stroke:none;fill-rule:nonzero;fill:rgb(100%,100%,100%);fill-opacity:1;" d="M 71.941406 38.785156 L 72.363281 38.515625 L 77.96875 47.324219 L 77.546875 47.59375 Z M 71.941406 38.785156 "/>
<path style=" stroke:none;fill-rule:nonzero;fill:rgb(38.823529%,59.607843%,100%);fill-opacity:1;" d="M 55.429688 116.371094 L 41.441406 107.691406 L 53.371094 72.75 C 54.703125 69.144531 57.25 66.117188 60.578125 64.191406 L 64.59375 61.867188 L 64.945312 97.113281 Z M 55.429688 116.371094 "/>
<path style=" stroke:none;fill-rule:nonzero;fill:rgb(38.823529%,59.607843%,100%);fill-opacity:1;" d="M 115.894531 133.34375 L 113.824219 115.617188 C 113.714844 106.257812 115.304688 97.214844 119.101562 88.878906 L 121.03125 62.832031 L 99.808594 54.148438 C 99.742188 54.582031 99.6875 55.011719 99.625 55.445312 L 89.679688 60.417969 L 79.976562 58.214844 L 80.03125 55.113281 L 60.738281 63.796875 C 67.117188 93.460938 63.636719 124.265625 52.664062 160.652344 L 78.082031 167.601562 L 78.292969 155.394531 L 100.949219 153.777344 C 101.179688 157.738281 101.367188 161.625 101.476562 165.429688 C 114.261719 170.136719 114.699219 170.058594 126.347656 163.320312 C 121.707031 153.570312 118.035156 143.421875 115.894531 133.34375 Z M 115.894531 133.34375 "/>
<path style=" stroke:none;fill-rule:nonzero;fill:rgb(38.823529%,59.607843%,100%);fill-opacity:1;" d="M 148.527344 112.03125 L 135.503906 107.691406 L 114.671875 83.4375 L 121.03125 62.832031 L 149.972656 103.347656 Z M 148.527344 112.03125 "/>
<path style=" stroke:none;fill-rule:nonzero;fill:rgb(90.196078%,90.196078%,90.196078%);fill-opacity:1;" d="M 107.710938 130.808594 C 108.152344 132.753906 110.089844 133.972656 112.039062 133.535156 L 123.09375 131.03125 L 121.496094 123.976562 L 110.4375 126.480469 C 108.492188 126.921875 107.269531 128.859375 107.710938 130.808594 Z M 107.710938 130.808594 "/>
<path style=" stroke:none;fill-rule:nonzero;fill:rgb(38.823529%,59.607843%,100%);fill-opacity:1;" d="M 117.65625 122.644531 L 123.925781 134.21875 C 134.472656 131.277344 143.613281 122.003906 152.382812 111.066406 L 149.972656 103.347656 L 135.019531 107.207031 Z M 117.65625 122.644531 "/>
<path style=" stroke:none;fill-rule:nonzero;fill:rgb(90.196078%,90.196078%,90.196078%);fill-opacity:1;" d="M 35.894531 86.332031 L 47.933594 88.480469 L 75.449219 127.601562 L 60.832031 124.164062 Z M 35.894531 86.332031 "/>
<path style=" stroke:none;fill-rule:nonzero;fill:rgb(24.705882%,23.921569%,33.72549%);fill-opacity:1;" d="M 33.761719 85.851562 C 33.386719 85.855469 33.046875 86.066406 32.871094 86.394531 C 32.695312 86.726562 32.714844 87.125 32.917969 87.4375 L 58.640625 126.460938 C 58.78125 126.679688 59.003906 126.832031 59.257812 126.894531 L 71.226562 129.710938 C 71.636719 129.804688 72.070312 129.636719 72.304688 129.285156 C 72.542969 128.933594 72.539062 128.472656 72.296875 128.125 L 44.058594 87.972656 C 43.902344 87.753906 43.667969 87.601562 43.402344 87.554688 L 33.953125 85.867188 C 33.890625 85.859375 33.824219 85.851562 33.761719 85.851562 Z M 33.761719 85.851562 "/>
<path style=" stroke:none;fill-rule:nonzero;fill:rgb(90.196078%,90.196078%,90.196078%);fill-opacity:1;" d="M 49.804688 113.753906 L 50.519531 120.953125 L 61.796875 119.832031 C 63.785156 119.636719 65.238281 117.863281 65.042969 115.875 C 64.84375 113.886719 63.070312 112.4375 61.082031 112.632812 Z M 49.804688 113.753906 "/>
<path style=" stroke:none;fill-rule:nonzero;fill:rgb(38.823529%,59.607843%,100%);fill-opacity:1;" d="M 39.996094 112.917969 C 40.03125 118.027344 44.179688 122.15625 49.289062 122.160156 L 51.144531 122.160156 L 52.492188 110.910156 L 41.3125 106.882812 Z M 39.996094 112.917969 "/>
<path style=" stroke:none;fill-rule:nonzero;fill:rgb(100%,100%,100%);fill-opacity:1;" d="M 105.699219 35.890625 L 105.347656 35.535156 L 105.878906 35.003906 L 109.070312 31.277344 L 109.449219 31.605469 L 106.246094 35.339844 Z M 105.699219 35.890625 "/>
<path style=" stroke:none;fill-rule:nonzero;fill:rgb(24.705882%,23.921569%,33.72549%);fill-opacity:1;" d="M 0 308.054688 L 444 308.054688 L 444 309.054688 L 0 309.054688 Z M 0 308.054688 "/>
<path style=" stroke:none;fill-rule:nonzero;fill:rgb(90.196078%,90.196078%,90.196078%);fill-opacity:1;" d="M 169.5 307.554688 L 274.5 307.554688 L 274.5 180.195312 C 274.5 173.449219 267.855469 167.964844 259.691406 167.964844 L 184.308594 167.964844 C 176.140625 167.964844 169.5 173.449219 169.5 180.195312 Z M 169.5 307.554688 "/>
<path style=" stroke:none;fill-rule:nonzero;fill:rgb(100%,100%,100%);fill-opacity:1;" d="M 177.5 302.285156 L 266.5 302.285156 L 266.5 194.335938 C 266.5 188.617188 260.871094 183.96875 253.949219 183.96875 L 190.050781 183.96875 C 183.128906 183.96875 177.5 188.617188 177.5 194.335938 Z M 177.5 302.285156 "/>
<path style=" stroke:none;fill-rule:nonzero;fill:rgb(24.705882%,23.921569%,33.72549%);fill-opacity:1;" d="M 168.707031 158.054688 C 166.113281 158.054688 164 159.796875 164 161.941406 L 164 173.164062 C 164 175.304688 166.113281 177.050781 168.707031 177.050781 L 275.292969 177.050781 C 277.886719 177.050781 280 175.304688 280 173.164062 L 280 161.941406 C 280 159.796875 277.886719 158.054688 275.292969 158.054688 Z M 168.707031 158.054688 "/>
<path style=" stroke:none;fill-rule:nonzero;fill:rgb(24.705882%,23.921569%,33.72549%);fill-opacity:1;" d="M 190.589844 288.445312 C 188.054688 288.453125 186 290.507812 185.992188 293.042969 C 186 295.578125 188.054688 297.632812 190.589844 297.640625 L 199.199219 297.640625 L 199.199219 288.445312 Z M 190.589844 288.445312 "/>
<path style=" stroke:none;fill-rule:nonzero;fill:rgb(38.823529%,59.607843%,100%);fill-opacity:1;" d="M 207.097656 288.445312 L 198.726562 288.445312 L 198.726562 297.640625 L 207.097656 297.640625 C 209.632812 297.632812 211.6875 295.578125 211.695312 293.042969 C 211.6875 290.507812 209.632812 288.453125 207.097656 288.445312 Z M 207.097656 288.445312 "/>
<use xlink:href="#surface5" mask="url(#mask0)"/>
<path style=" stroke:none;fill-rule:nonzero;fill:rgb(24.705882%,23.921569%,33.72549%);fill-opacity:1;" d="M 229.429688 219.179688 C 227.683594 217.339844 224.78125 217.253906 222.929688 218.988281 C 221.089844 220.734375 221.003906 223.640625 222.738281 225.488281 L 228.640625 231.753906 L 235.335938 225.445312 Z M 229.429688 219.179688 "/>
<path style=" stroke:none;fill-rule:nonzero;fill:rgb(38.823529%,59.607843%,100%);fill-opacity:1;" d="M 240.753906 231.191406 L 235.011719 225.101562 L 228.320312 231.410156 L 234.0625 237.5 C 235.804688 239.339844 238.710938 239.425781 240.5625 237.691406 C 242.402344 235.949219 242.488281 233.042969 240.753906 231.191406 Z M 240.753906 231.191406 "/>
<use xlink:href="#surface8" mask="url(#mask1)"/>
<path style=" stroke:none;fill-rule:nonzero;fill:rgb(24.705882%,23.921569%,33.72549%);fill-opacity:1;" d="M 204.929688 233.679688 C 203.183594 231.839844 200.28125 231.753906 198.429688 233.488281 C 196.589844 235.234375 196.503906 238.140625 198.238281 239.988281 L 204.140625 246.253906 L 210.835938 239.945312 Z M 204.929688 233.679688 "/>
<path style=" stroke:none;fill-rule:nonzero;fill:rgb(38.823529%,59.607843%,100%);fill-opacity:1;" d="M 216.253906 245.691406 L 210.511719 239.601562 L 203.820312 245.910156 L 209.5625 252 C 211.304688 253.839844 214.210938 253.925781 216.0625 252.191406 C 217.902344 250.449219 217.988281 247.542969 216.253906 245.691406 Z M 216.253906 245.691406 "/>
<use xlink:href="#surface11" mask="url(#mask2)"/>
<path style=" stroke:none;fill-rule:nonzero;fill:rgb(24.705882%,23.921569%,33.72549%);fill-opacity:1;" d="M 229.429688 247.179688 C 227.683594 245.339844 224.78125 245.253906 222.929688 246.988281 C 221.089844 248.734375 221.003906 251.640625 222.738281 253.488281 L 228.640625 259.753906 L 235.335938 253.445312 Z M 229.429688 247.179688 "/>
<path style=" stroke:none;fill-rule:nonzero;fill:rgb(38.823529%,59.607843%,100%);fill-opacity:1;" d="M 240.753906 259.191406 L 235.011719 253.101562 L 228.320312 259.410156 L 234.0625 265.5 C 235.804688 267.339844 238.710938 267.425781 240.5625 265.691406 C 242.402344 263.949219 242.488281 261.042969 240.753906 259.191406 Z M 240.753906 259.191406 "/>
<use xlink:href="#surface14" mask="url(#mask3)"/>
<path style=" stroke:none;fill-rule:nonzero;fill:rgb(24.705882%,23.921569%,33.72549%);fill-opacity:1;" d="M 244.378906 275.914062 C 246.195312 274.148438 246.246094 271.242188 244.488281 269.414062 C 242.722656 267.59375 239.816406 267.542969 237.988281 269.300781 L 231.796875 275.28125 L 238.1875 281.894531 Z M 244.378906 275.914062 "/>
<path style=" stroke:none;fill-rule:nonzero;fill:rgb(38.823529%,59.607843%,100%);fill-opacity:1;" d="M 232.503906 287.382812 L 238.523438 281.566406 L 232.136719 274.953125 L 226.113281 280.765625 C 224.296875 282.535156 224.246094 285.441406 226.003906 287.269531 C 227.769531 289.089844 230.675781 289.140625 232.503906 287.382812 Z M 232.503906 287.382812 "/>
<use xlink:href="#surface17" mask="url(#mask4)"/>
<path style=" stroke:none;fill-rule:nonzero;fill:rgb(24.705882%,23.921569%,33.72549%);fill-opacity:1;" d="M 211.378906 261.414062 C 213.195312 259.648438 213.246094 256.742188 211.488281 254.914062 C 209.722656 253.09375 206.816406 253.042969 204.988281 254.800781 L 198.796875 260.78125 L 205.1875 267.394531 Z M 211.378906 261.414062 "/>
<path style=" stroke:none;fill-rule:nonzero;fill:rgb(38.823529%,59.607843%,100%);fill-opacity:1;" d="M 199.503906 272.882812 L 205.523438 267.066406 L 199.136719 260.453125 L 193.113281 266.265625 C 191.296875 268.035156 191.246094 270.941406 193.003906 272.769531 C 194.769531 274.589844 197.675781 274.640625 199.503906 272.882812 Z M 199.503906 272.882812 "/>
<use xlink:href="#surface20" mask="url(#mask5)"/>
<path style=" stroke:none;fill-rule:nonzero;fill:rgb(24.705882%,23.921569%,33.72549%);fill-opacity:1;" d="M 258.378906 243.914062 C 260.195312 242.148438 260.246094 239.242188 258.488281 237.414062 C 256.722656 235.59375 253.816406 235.542969 251.988281 237.300781 L 245.796875 243.28125 L 252.1875 249.894531 Z M 258.378906 243.914062 "/>
<path style=" stroke:none;fill-rule:nonzero;fill:rgb(38.823529%,59.607843%,100%);fill-opacity:1;" d="M 246.503906 255.382812 L 252.523438 249.566406 L 246.136719 242.953125 L 240.113281 248.765625 C 238.296875 250.535156 238.246094 253.441406 240.003906 255.269531 C 241.769531 257.089844 244.675781 257.140625 246.503906 255.382812 Z M 246.503906 255.382812 "/>
<use xlink:href="#surface23" mask="url(#mask6)"/>
<path style=" stroke:none;fill-rule:nonzero;fill:rgb(24.705882%,23.921569%,33.72549%);fill-opacity:1;" d="M 247.929688 280.179688 C 246.183594 278.339844 243.28125 278.253906 241.429688 279.988281 C 239.589844 281.734375 239.503906 284.640625 241.238281 286.488281 L 247.140625 292.753906 L 253.835938 286.445312 Z M 247.929688 280.179688 "/>
<path style=" stroke:none;fill-rule:nonzero;fill:rgb(38.823529%,59.607843%,100%);fill-opacity:1;" d="M 259.253906 292.191406 L 253.511719 286.101562 L 246.820312 292.410156 L 252.5625 298.5 C 254.304688 300.339844 257.210938 300.425781 259.0625 298.691406 C 260.902344 296.949219 260.988281 294.042969 259.253906 292.191406 Z M 259.253906 292.191406 "/>
<use xlink:href="#surface26" mask="url(#mask7)"/>
<path style=" stroke:none;fill-rule:nonzero;fill:rgb(24.705882%,23.921569%,33.72549%);fill-opacity:1;" d="M 215.429688 279.679688 C 213.683594 277.839844 210.78125 277.753906 208.929688 279.488281 C 207.089844 281.234375 207.003906 284.140625 208.738281 285.988281 L 214.640625 292.253906 L 221.335938 285.945312 Z M 215.429688 279.679688 "/>
<path style=" stroke:none;fill-rule:nonzero;fill:rgb(38.823529%,59.607843%,100%);fill-opacity:1;" d="M 226.753906 291.691406 L 221.011719 285.601562 L 214.320312 291.910156 L 220.0625 298 C 221.804688 299.839844 224.710938 299.925781 226.5625 298.191406 C 228.402344 296.449219 228.488281 293.542969 226.753906 291.691406 Z M 226.753906 291.691406 "/>
<use xlink:href="#surface29" mask="url(#mask8)"/>
<path style=" stroke:none;fill-rule:nonzero;fill:rgb(38.823529%,59.607843%,100%);fill-opacity:1;" d="M 224.578125 263.183594 C 224.578125 266.335938 222.363281 269.054688 219.273438 269.683594 C 218.398438 269.859375 217.496094 269.859375 216.621094 269.683594 C 213.535156 269.050781 211.316406 266.335938 211.316406 263.183594 C 211.316406 260.03125 213.535156 257.316406 216.621094 256.6875 C 217.496094 256.507812 218.398438 256.507812 219.273438 256.6875 C 222.363281 257.316406 224.578125 260.03125 224.578125 263.183594 Z M 224.578125 263.183594 "/>
<use xlink:href="#surface32" mask="url(#mask9)"/>
<path style=" stroke:none;fill-rule:nonzero;fill:rgb(38.823529%,59.607843%,100%);fill-opacity:1;" d="M 227.578125 236.683594 C 227.578125 239.835938 225.363281 242.554688 222.273438 243.183594 C 221.398438 243.359375 220.496094 243.359375 219.621094 243.183594 C 216.535156 242.550781 214.316406 239.835938 214.316406 236.683594 C 214.316406 233.53125 216.535156 230.816406 219.621094 230.1875 C 220.496094 230.007812 221.398438 230.007812 222.273438 230.1875 C 225.363281 230.816406 227.578125 233.53125 227.578125 236.683594 Z M 227.578125 236.683594 "/>
<use xlink:href="#surface35" mask="url(#mask10)"/>
<path style=" stroke:none;fill-rule:nonzero;fill:rgb(38.823529%,59.607843%,100%);fill-opacity:1;" d="M 227.578125 274.683594 C 227.578125 277.835938 225.363281 280.554688 222.273438 281.183594 C 221.398438 281.359375 220.496094 281.359375 219.621094 281.183594 C 216.535156 280.550781 214.316406 277.835938 214.316406 274.683594 C 214.316406 271.53125 216.535156 268.816406 219.621094 268.1875 C 220.496094 268.007812 221.398438 268.007812 222.273438 268.1875 C 225.363281 268.816406 227.578125 271.53125 227.578125 274.683594 Z M 227.578125 274.683594 "/>
<use xlink:href="#surface38" mask="url(#mask11)"/>
<path style=" stroke:none;fill-rule:nonzero;fill:rgb(38.823529%,59.607843%,100%);fill-opacity:1;" d="M 244.078125 293.183594 C 244.078125 296.335938 241.863281 299.054688 238.773438 299.683594 C 237.898438 299.859375 236.996094 299.859375 236.121094 299.683594 C 233.035156 299.050781 230.816406 296.335938 230.816406 293.183594 C 230.816406 290.03125 233.035156 287.316406 236.121094 286.6875 C 236.996094 286.507812 237.898438 286.507812 238.773438 286.6875 C 241.863281 287.316406 244.078125 290.03125 244.078125 293.183594 Z M 244.078125 293.183594 "/>
<use xlink:href="#surface41" mask="url(#mask12)"/>
<path style=" stroke:none;fill-rule:nonzero;fill:rgb(38.823529%,59.607843%,100%);fill-opacity:1;" d="M 258.65625 259.148438 C 260.925781 261.332031 261.339844 264.816406 259.652344 267.476562 C 259.171875 268.230469 258.546875 268.878906 257.8125 269.386719 C 255.214844 271.171875 251.71875 270.882812 249.449219 268.695312 C 247.179688 266.507812 246.765625 263.027344 248.453125 260.367188 C 248.933594 259.613281 249.558594 258.964844 250.292969 258.457031 C 252.890625 256.671875 256.386719 256.957031 258.65625 259.148438 Z M 258.65625 259.148438 "/>
<use xlink:href="#surface44" mask="url(#mask13)"/>
<path style=" stroke:none;fill-rule:nonzero;fill:rgb(38.823529%,59.607843%,100%);fill-opacity:1;" d="M 260.65625 273.648438 C 262.925781 275.832031 263.339844 279.316406 261.652344 281.976562 C 261.171875 282.730469 260.546875 283.378906 259.8125 283.886719 C 257.214844 285.671875 253.71875 285.382812 251.449219 283.195312 C 249.179688 281.007812 248.765625 277.527344 250.453125 274.867188 C 250.933594 274.113281 251.558594 273.464844 252.292969 272.957031 C 254.890625 271.171875 258.386719 271.457031 260.65625 273.648438 Z M 260.65625 273.648438 "/>
<use xlink:href="#surface47" mask="url(#mask14)"/>
<path style=" stroke:none;fill-rule:nonzero;fill:rgb(38.823529%,59.607843%,100%);fill-opacity:1;" d="M 201.15625 277.148438 C 203.425781 279.332031 203.839844 282.816406 202.152344 285.476562 C 201.671875 286.230469 201.046875 286.878906 200.3125 287.386719 C 197.714844 289.171875 194.21875 288.882812 191.949219 286.695312 C 189.679688 284.507812 189.265625 281.027344 190.953125 278.367188 C 191.433594 277.613281 192.058594 276.964844 192.792969 276.457031 C 195.390625 274.671875 198.886719 274.957031 201.15625 277.148438 Z M 201.15625 277.148438 "/>
<use xlink:href="#surface50" mask="url(#mask15)"/>
<use xlink:href="#surface53" mask="url(#mask16)"/>
<use xlink:href="#surface56" mask="url(#mask17)"/>
<use xlink:href="#surface59" mask="url(#mask18)"/>
<use xlink:href="#surface62" mask="url(#mask19)"/>
<use xlink:href="#surface65" mask="url(#mask20)"/>
<use xlink:href="#surface68" mask="url(#mask21)"/>
<use xlink:href="#surface71" mask="url(#mask22)"/>
</g>
</svg>
