<?xml version="1.0" encoding="UTF-8"?>
<svg xmlns="http://www.w3.org/2000/svg" xmlns:xlink="http://www.w3.org/1999/xlink" width="378pt" height="385pt" viewBox="0 0 378 385" version="1.1">
<defs>
<filter id="alpha" filterUnits="objectBoundingBox" x="0%" y="0%" width="100%" height="100%">
  <feColorMatrix type="matrix" in="SourceGraphic" values="0 0 0 0 1 0 0 0 0 1 0 0 0 0 1 0 0 0 1 0"/>
</filter>
<mask id="mask0">
  <g filter="url(#alpha)">
<rect x="0" y="0" width="378" height="385" style="fill:rgb(0%,0%,0%);fill-opacity:0.2;stroke:none;"/>
  </g>
</mask>
<clipPath id="clip1">
  <rect x="0" y="0" width="378" height="385"/>
</clipPath>
<g id="surface5" clip-path="url(#clip1)">
<path style=" stroke:none;fill-rule:nonzero;fill:rgb(0%,0%,0%);fill-opacity:1;" d="M 313.007812 88.503906 L 291.84375 99.746094 L 294.203125 79.15625 L 294.375 77.671875 L 294.457031 76.929688 L 296.269531 78.058594 Z M 313.007812 88.503906 "/>
</g>
<mask id="mask1">
  <g filter="url(#alpha)">
<rect x="0" y="0" width="378" height="385" style="fill:rgb(0%,0%,0%);fill-opacity:0.2;stroke:none;"/>
  </g>
</mask>
<clipPath id="clip2">
  <rect x="0" y="0" width="378" height="385"/>
</clipPath>
<g id="surface8" clip-path="url(#clip2)">
<path style=" stroke:none;fill-rule:nonzero;fill:rgb(0%,0%,0%);fill-opacity:1;" d="M 22.539062 143.535156 C 24.738281 145.523438 25.152344 148.820312 23.507812 151.289062 C 21.863281 153.753906 18.660156 154.648438 15.976562 153.390625 C 17.71875 154.980469 20.234375 155.394531 22.398438 154.457031 C 24.566406 153.519531 25.976562 151.398438 26.007812 149.042969 C 26.039062 146.6875 24.679688 144.53125 22.539062 143.535156 Z M 22.539062 143.535156 "/>
</g>
<mask id="mask2">
  <g filter="url(#alpha)">
<rect x="0" y="0" width="378" height="385" style="fill:rgb(0%,0%,0%);fill-opacity:0.2;stroke:none;"/>
  </g>
</mask>
<clipPath id="clip3">
  <rect x="0" y="0" width="378" height="385"/>
</clipPath>
<g id="surface11" clip-path="url(#clip3)">
<path style=" stroke:none;fill-rule:nonzero;fill:rgb(0%,0%,0%);fill-opacity:1;" d="M 174.257812 149.460938 C 173.753906 149.460938 173.253906 149.472656 172.757812 149.492188 C 180.199219 149.796875 186.007812 152.351562 186.007812 155.453125 C 186.007812 158.558594 180.199219 161.109375 172.757812 161.417969 C 173.25 161.4375 173.75 161.445312 174.257812 161.445312 C 182.40625 161.445312 189.007812 158.765625 189.007812 155.453125 C 189.007812 152.144531 182.40625 149.460938 174.257812 149.460938 Z M 174.257812 149.460938 "/>
</g>
<mask id="mask3">
  <g filter="url(#alpha)">
<rect x="0" y="0" width="378" height="385" style="fill:rgb(0%,0%,0%);fill-opacity:0.2;stroke:none;"/>
  </g>
</mask>
<clipPath id="clip4">
  <rect x="0" y="0" width="378" height="385"/>
</clipPath>
<g id="surface14" clip-path="url(#clip4)">
<path style=" stroke:none;fill-rule:nonzero;fill:rgb(0%,0%,0%);fill-opacity:1;" d="M 193.5 249.488281 L 1.5 249.488281 C 1.101562 249.488281 0.71875 249.328125 0.4375 249.046875 C 0.15625 248.765625 0 248.386719 0 247.988281 L 0 254.980469 C 0 255.378906 0.15625 255.757812 0.4375 256.039062 C 0.71875 256.320312 1.101562 256.476562 1.5 256.476562 L 193.5 256.476562 C 193.898438 256.476562 194.28125 256.320312 194.5625 256.039062 C 194.84375 255.757812 195 255.378906 195 254.980469 L 195 247.988281 C 195 248.386719 194.84375 248.765625 194.5625 249.046875 C 194.28125 249.328125 193.898438 249.488281 193.5 249.488281 Z M 193.5 249.488281 "/>
</g>
<mask id="mask4">
  <g filter="url(#alpha)">
<rect x="0" y="0" width="378" height="385" style="fill:rgb(0%,0%,0%);fill-opacity:0.2;stroke:none;"/>
  </g>
</mask>
<clipPath id="clip5">
  <rect x="0" y="0" width="378" height="385"/>
</clipPath>
<g id="surface17" clip-path="url(#clip5)">
<path style=" stroke:none;fill-rule:nonzero;fill:rgb(0%,0%,0%);fill-opacity:1;" d="M 0.0078125 201.394531 L 195.007812 201.394531 L 195.007812 220.371094 L 0.0078125 220.371094 Z M 0.0078125 201.394531 "/>
</g>
<mask id="mask5">
  <g filter="url(#alpha)">
<rect x="0" y="0" width="378" height="385" style="fill:rgb(0%,0%,0%);fill-opacity:0.2;stroke:none;"/>
  </g>
</mask>
<clipPath id="clip6">
  <rect x="0" y="0" width="378" height="385"/>
</clipPath>
<g id="surface20" clip-path="url(#clip6)">
<path style=" stroke:none;fill-rule:nonzero;fill:rgb(0%,0%,0%);fill-opacity:1;" d="M 0.0078125 191.90625 L 195.007812 191.90625 L 195.007812 210.882812 L 0.0078125 210.882812 Z M 0.0078125 191.90625 "/>
</g>
<mask id="mask6">
  <g filter="url(#alpha)">
<rect x="0" y="0" width="378" height="385" style="fill:rgb(0%,0%,0%);fill-opacity:0.2;stroke:none;"/>
  </g>
</mask>
<clipPath id="clip7">
  <rect x="0" y="0" width="378" height="385"/>
</clipPath>
<g id="surface23" clip-path="url(#clip7)">
<path style=" stroke:none;fill-rule:nonzero;fill:rgb(0%,0%,0%);fill-opacity:1;" d="M 126.777344 181.6875 C 136.800781 198.746094 132.03125 220.628906 115.8125 231.976562 C 99.59375 243.324219 77.367188 240.332031 64.738281 225.097656 C 71.980469 237.417969 85.535156 244.636719 99.816406 243.769531 C 114.09375 242.902344 126.675781 234.097656 132.371094 220.992188 C 138.0625 207.882812 135.902344 192.695312 126.777344 181.6875 Z M 126.777344 181.6875 "/>
</g>
<mask id="mask7">
  <g filter="url(#alpha)">
<rect x="0" y="0" width="378" height="385" style="fill:rgb(0%,0%,0%);fill-opacity:0.2;stroke:none;"/>
  </g>
</mask>
<clipPath id="clip8">
  <rect x="0" y="0" width="378" height="385"/>
</clipPath>
<g id="surface26" clip-path="url(#clip8)">
<path style=" stroke:none;fill-rule:nonzero;fill:rgb(0%,0%,0%);fill-opacity:1;" d="M 119.273438 202.6875 C 118.453125 197.101562 115.507812 192.046875 111.050781 188.574219 C 114.972656 194.707031 115.597656 202.382812 112.722656 209.070312 C 112.089844 210.546875 111.292969 211.949219 110.347656 213.25 C 106.851562 218.09375 101.527344 221.308594 95.605469 222.148438 C 89.683594 222.988281 83.675781 221.382812 78.964844 217.703125 C 82.882812 223.84375 89.59375 227.648438 96.878906 227.855469 C 104.167969 228.0625 111.085938 224.648438 115.347656 218.742188 C 116.292969 217.441406 117.089844 216.039062 117.722656 214.5625 C 119.332031 210.824219 119.867188 206.714844 119.273438 202.6875 Z M 119.273438 202.6875 "/>
</g>
</defs>
<g id="surface1">
<path style=" stroke:none;fill-rule:nonzero;fill:rgb(90.196078%,90.196078%,90.196078%);fill-opacity:1;" d="M 249.882812 155.285156 C 249.152344 155.289062 248.558594 155.882812 248.554688 156.613281 L 248.554688 247.675781 C 248.558594 248.40625 249.152344 249 249.882812 249 L 376.914062 249 C 377.648438 249 378.242188 248.40625 378.242188 247.675781 L 378.242188 156.613281 C 378.242188 155.882812 377.648438 155.289062 376.914062 155.285156 Z M 249.882812 155.285156 "/>
<path style=" stroke:none;fill-rule:nonzero;fill:rgb(100%,100%,100%);fill-opacity:1;" d="M 369.898438 163.429688 L 369.898438 228.148438 C 369.898438 229.046875 369.167969 229.773438 368.269531 229.773438 L 258.269531 229.773438 C 258.191406 229.777344 258.113281 229.769531 258.039062 229.753906 C 257.234375 229.640625 256.640625 228.957031 256.636719 228.148438 L 256.636719 163.429688 C 256.636719 162.53125 257.367188 161.804688 258.269531 161.804688 L 368.269531 161.804688 C 369.167969 161.804688 369.898438 162.53125 369.898438 163.429688 Z M 369.898438 163.429688 "/>
<path style=" stroke:none;fill-rule:nonzero;fill:rgb(100%,39.607843%,51.764706%);fill-opacity:1;" d="M 353.007812 185.515625 C 353.007812 188.777344 350.363281 191.417969 347.097656 191.417969 C 343.835938 191.417969 341.1875 188.777344 341.1875 185.515625 C 341.1875 182.257812 343.835938 179.617188 347.097656 179.617188 C 350.363281 179.617188 353.007812 182.257812 353.007812 185.515625 Z M 353.007812 185.515625 "/>
<path style=" stroke:none;fill-rule:nonzero;fill:rgb(24.705882%,23.921569%,33.72549%);fill-opacity:1;" d="M 254.300781 158.558594 C 254.300781 159.632812 253.429688 160.503906 252.351562 160.503906 C 251.277344 160.503906 250.402344 159.632812 250.402344 158.558594 C 250.402344 157.484375 251.277344 156.613281 252.351562 156.613281 C 253.429688 156.613281 254.300781 157.484375 254.300781 158.558594 Z M 254.300781 158.558594 "/>
<path style=" stroke:none;fill-rule:nonzero;fill:rgb(24.705882%,23.921569%,33.72549%);fill-opacity:1;" d="M 376.132812 158.558594 C 376.132812 159.632812 375.261719 160.503906 374.1875 160.503906 C 373.109375 160.503906 372.238281 159.632812 372.238281 158.558594 C 372.238281 157.484375 373.109375 156.613281 374.1875 156.613281 C 375.261719 156.613281 376.132812 157.484375 376.132812 158.558594 Z M 376.132812 158.558594 "/>
<path style=" stroke:none;fill-rule:nonzero;fill:rgb(24.705882%,23.921569%,33.72549%);fill-opacity:1;" d="M 254.300781 245.730469 C 254.300781 246.804688 253.429688 247.675781 252.351562 247.675781 C 251.277344 247.675781 250.402344 246.804688 250.402344 245.730469 C 250.402344 244.65625 251.277344 243.785156 252.351562 243.785156 C 253.429688 243.785156 254.300781 244.65625 254.300781 245.730469 Z M 254.300781 245.730469 "/>
<path style=" stroke:none;fill-rule:nonzero;fill:rgb(24.705882%,23.921569%,33.72549%);fill-opacity:1;" d="M 376.132812 245.730469 C 376.132812 246.804688 375.261719 247.675781 374.1875 247.675781 C 373.109375 247.675781 372.238281 246.804688 372.238281 245.730469 C 372.238281 244.65625 373.109375 243.785156 374.1875 243.785156 C 375.261719 243.785156 376.132812 244.65625 376.132812 245.730469 Z M 376.132812 245.730469 "/>
<path style=" stroke:none;fill-rule:nonzero;fill:rgb(38.823529%,59.607843%,100%);fill-opacity:1;" d="M 299.96875 201.605469 C 299.96875 205.515625 296.796875 208.6875 292.878906 208.6875 C 288.964844 208.6875 285.789062 205.515625 285.789062 201.605469 C 285.789062 197.695312 288.964844 194.523438 292.878906 194.523438 C 296.796875 194.523438 299.96875 197.695312 299.96875 201.605469 Z M 299.96875 201.605469 "/>
<path style=" stroke:none;fill-rule:nonzero;fill:rgb(24.705882%,23.921569%,33.72549%);fill-opacity:1;" d="M 293.5625 222.933594 L 292.113281 222.933594 L 292.773438 200.539062 Z M 293.5625 222.933594 "/>
<path style=" stroke:none;fill-rule:nonzero;fill:rgb(24.705882%,23.921569%,33.72549%);fill-opacity:1;" d="M 292.902344 204.78125 L 294.460938 202.628906 L 292.878906 205.316406 L 292.710938 205.015625 Z M 292.902344 204.78125 "/>
<path style=" stroke:none;fill-rule:nonzero;fill:rgb(24.705882%,23.921569%,33.72549%);fill-opacity:1;" d="M 292.730469 206.957031 L 291.171875 204.804688 L 292.753906 207.492188 L 292.921875 207.191406 Z M 292.730469 206.957031 "/>
<path style=" stroke:none;fill-rule:nonzero;fill:rgb(38.823529%,59.607843%,100%);fill-opacity:1;" d="M 365.007812 201.605469 C 365.007812 205.515625 361.835938 208.6875 357.917969 208.6875 C 354.003906 208.6875 350.828125 205.515625 350.828125 201.605469 C 350.828125 197.695312 354.003906 194.523438 357.917969 194.523438 C 361.835938 194.523438 365.007812 197.695312 365.007812 201.605469 Z M 365.007812 201.605469 "/>
<path style=" stroke:none;fill-rule:nonzero;fill:rgb(24.705882%,23.921569%,33.72549%);fill-opacity:1;" d="M 358.601562 222.933594 L 357.148438 222.933594 L 357.8125 200.539062 Z M 358.601562 222.933594 "/>
<path style=" stroke:none;fill-rule:nonzero;fill:rgb(24.705882%,23.921569%,33.72549%);fill-opacity:1;" d="M 357.941406 204.78125 L 359.5 202.628906 L 357.917969 205.316406 L 357.746094 205.015625 Z M 357.941406 204.78125 "/>
<path style=" stroke:none;fill-rule:nonzero;fill:rgb(24.705882%,23.921569%,33.72549%);fill-opacity:1;" d="M 357.769531 206.957031 L 356.210938 204.804688 L 357.789062 207.492188 L 357.960938 207.191406 Z M 357.769531 206.957031 "/>
<path style=" stroke:none;fill-rule:nonzero;fill:rgb(38.823529%,59.607843%,100%);fill-opacity:1;" d="M 323.890625 195.429688 C 323.890625 201.203125 319.203125 205.886719 313.417969 205.886719 C 307.636719 205.886719 302.949219 201.203125 302.949219 195.429688 C 302.949219 189.652344 307.636719 184.96875 313.417969 184.96875 C 319.203125 184.96875 323.890625 189.652344 323.890625 195.429688 Z M 323.890625 195.429688 "/>
<path style=" stroke:none;fill-rule:nonzero;fill:rgb(24.705882%,23.921569%,33.72549%);fill-opacity:1;" d="M 314.429688 226.925781 L 312.285156 226.925781 L 313.261719 193.851562 Z M 314.429688 226.925781 "/>
<path style=" stroke:none;fill-rule:nonzero;fill:rgb(24.705882%,23.921569%,33.72549%);fill-opacity:1;" d="M 313.449219 200.121094 L 315.753906 196.941406 L 313.417969 200.910156 L 313.167969 200.46875 Z M 313.449219 200.121094 "/>
<path style=" stroke:none;fill-rule:nonzero;fill:rgb(24.705882%,23.921569%,33.72549%);fill-opacity:1;" d="M 313.199219 203.335938 L 310.894531 200.152344 L 313.230469 204.121094 L 313.480469 203.679688 Z M 313.199219 203.335938 "/>
<path style=" stroke:none;fill-rule:nonzero;fill:rgb(38.823529%,59.607843%,100%);fill-opacity:1;" d="M 349.425781 191.433594 C 349.425781 197.207031 344.738281 201.890625 338.957031 201.890625 C 333.171875 201.890625 328.484375 197.207031 328.484375 191.433594 C 328.484375 185.65625 333.171875 180.976562 338.957031 180.976562 C 344.738281 180.976562 349.425781 185.65625 349.425781 191.433594 Z M 349.425781 191.433594 "/>
<path style=" stroke:none;fill-rule:nonzero;fill:rgb(24.705882%,23.921569%,33.72549%);fill-opacity:1;" d="M 339.964844 222.933594 L 337.820312 222.933594 L 338.796875 189.859375 Z M 339.964844 222.933594 "/>
<path style=" stroke:none;fill-rule:nonzero;fill:rgb(24.705882%,23.921569%,33.72549%);fill-opacity:1;" d="M 338.988281 196.125 L 341.289062 192.945312 L 338.953125 196.914062 L 338.703125 196.472656 Z M 338.988281 196.125 "/>
<path style=" stroke:none;fill-rule:nonzero;fill:rgb(24.705882%,23.921569%,33.72549%);fill-opacity:1;" d="M 338.734375 199.339844 L 336.433594 196.15625 L 338.765625 200.128906 L 339.019531 199.6875 Z M 338.734375 199.339844 "/>
<path style=" stroke:none;fill-rule:nonzero;fill:rgb(38.823529%,59.607843%,100%);fill-opacity:1;" d="M 283.191406 191.433594 C 283.191406 197.207031 278.503906 201.890625 272.71875 201.890625 C 266.9375 201.890625 262.25 197.207031 262.25 191.433594 C 262.25 185.65625 266.9375 180.976562 272.71875 180.976562 C 278.503906 180.976562 283.191406 185.65625 283.191406 191.433594 Z M 283.191406 191.433594 "/>
<path style=" stroke:none;fill-rule:nonzero;fill:rgb(24.705882%,23.921569%,33.72549%);fill-opacity:1;" d="M 273.730469 222.933594 L 271.585938 222.933594 L 272.5625 189.859375 Z M 273.730469 222.933594 "/>
<path style=" stroke:none;fill-rule:nonzero;fill:rgb(24.705882%,23.921569%,33.72549%);fill-opacity:1;" d="M 272.75 196.125 L 275.054688 192.945312 L 272.71875 196.914062 L 272.46875 196.472656 Z M 272.75 196.125 "/>
<path style=" stroke:none;fill-rule:nonzero;fill:rgb(24.705882%,23.921569%,33.72549%);fill-opacity:1;" d="M 272.5 199.339844 L 270.195312 196.15625 L 272.53125 200.128906 L 272.78125 199.6875 Z M 272.5 199.339844 "/>
<path style=" stroke:none;fill-rule:nonzero;fill:rgb(24.705882%,23.921569%,33.72549%);fill-opacity:1;" d="M 314.003906 229.773438 L 258.269531 229.773438 C 258.191406 229.777344 258.113281 229.769531 258.039062 229.753906 C 257.234375 229.640625 256.640625 228.957031 256.636719 228.148438 L 256.636719 214.25 C 261.882812 213.378906 267.191406 212.945312 272.507812 212.960938 C 292.292969 212.960938 308.84375 218.625 312.992188 226.203125 C 313.621094 227.292969 313.964844 228.519531 314.003906 229.773438 Z M 314.003906 229.773438 "/>
<path style=" stroke:none;fill-rule:nonzero;fill:rgb(24.705882%,23.921569%,33.72549%);fill-opacity:1;" d="M 369.898438 224.996094 L 369.898438 228.148438 C 369.898438 229.046875 369.167969 229.773438 368.269531 229.773438 L 306.601562 229.773438 C 308.585938 228.339844 310.730469 227.140625 312.992188 226.203125 C 320.546875 222.96875 331.203125 220.953125 343.007812 220.953125 C 353.269531 220.953125 362.652344 222.46875 369.898438 224.996094 Z M 369.898438 224.996094 "/>
<path style=" stroke:none;fill-rule:nonzero;fill:rgb(90.196078%,90.196078%,90.196078%);fill-opacity:1;" d="M 320.5625 0 C 320.34375 0 320.132812 0.0546875 319.941406 0.15625 L 207.789062 59.734375 C 207.144531 60.078125 206.898438 60.882812 207.242188 61.527344 L 250.0625 141.921875 C 250.40625 142.570312 251.210938 142.816406 251.859375 142.472656 L 364.007812 82.894531 C 364.65625 82.550781 364.898438 81.746094 364.554688 81.101562 L 321.738281 0.703125 C 321.570312 0.394531 321.289062 0.160156 320.953125 0.0585938 C 320.824219 0.0195312 320.695312 0 320.5625 0 Z M 320.5625 0 "/>
<path style=" stroke:none;fill-rule:nonzero;fill:rgb(100%,100%,100%);fill-opacity:1;" d="M 317.578125 10.636719 L 348.007812 67.769531 C 348.429688 68.5625 348.128906 69.550781 347.332031 69.972656 L 250.21875 121.5625 C 250.152344 121.601562 250.078125 121.632812 250.003906 121.65625 C 249.242188 121.933594 248.394531 121.605469 248.011719 120.890625 L 217.582031 63.757812 C 217.160156 62.960938 217.460938 61.976562 218.257812 61.554688 L 315.371094 9.960938 C 316.167969 9.539062 317.15625 9.839844 317.578125 10.636719 Z M 317.578125 10.636719 "/>
<path style=" stroke:none;fill-rule:nonzero;fill:rgb(100%,39.607843%,51.764706%);fill-opacity:1;" d="M 266.980469 70.664062 C 266.980469 78.558594 260.574219 84.957031 252.667969 84.957031 C 244.765625 84.957031 238.355469 78.558594 238.355469 70.664062 C 238.355469 62.769531 244.765625 56.371094 252.667969 56.371094 C 260.574219 56.371094 266.980469 62.769531 266.980469 70.664062 Z M 266.980469 70.664062 "/>
<path style=" stroke:none;fill-rule:nonzero;fill:rgb(24.705882%,23.921569%,33.72549%);fill-opacity:1;" d="M 313.003906 88.503906 L 251.019531 121.433594 C 250.941406 121.476562 250.859375 121.511719 250.777344 121.539062 L 253.082031 55.25 C 253.105469 54.410156 253.574219 53.652344 254.316406 53.257812 C 255.054688 52.867188 255.949219 52.902344 256.65625 53.351562 L 294.457031 76.933594 L 296.269531 78.058594 Z M 313.003906 88.503906 "/>
<use xlink:href="#surface5" mask="url(#mask0)"/>
<path style=" stroke:none;fill-rule:nonzero;fill:rgb(24.705882%,23.921569%,33.72549%);fill-opacity:1;" d="M 347.519531 70.167969 L 293.90625 98.648438 L 296.269531 78.058594 L 296.4375 76.578125 L 299.515625 49.742188 C 299.714844 47.984375 301.808594 46.769531 303.453125 47.339844 C 303.5625 47.378906 303.671875 47.425781 303.777344 47.480469 Z M 347.519531 70.167969 "/>
<path style=" stroke:none;fill-rule:nonzero;fill:rgb(24.705882%,23.921569%,33.72549%);fill-opacity:1;" d="M 213.457031 61.464844 C 213.457031 62.539062 212.582031 63.410156 211.507812 63.410156 C 210.433594 63.410156 209.558594 62.539062 209.558594 61.464844 C 209.558594 60.390625 210.433594 59.519531 211.507812 59.519531 C 212.582031 59.519531 213.457031 60.390625 213.457031 61.464844 Z M 213.457031 61.464844 "/>
<path style=" stroke:none;fill-rule:nonzero;fill:rgb(24.705882%,23.921569%,33.72549%);fill-opacity:1;" d="M 321.019531 4.324219 C 321.019531 5.398438 320.148438 6.269531 319.070312 6.269531 C 317.996094 6.269531 317.121094 5.398438 317.121094 4.324219 C 317.121094 3.25 317.996094 2.378906 319.070312 2.378906 C 320.148438 2.378906 321.019531 3.25 321.019531 4.324219 Z M 321.019531 4.324219 "/>
<path style=" stroke:none;fill-rule:nonzero;fill:rgb(24.705882%,23.921569%,33.72549%);fill-opacity:1;" d="M 254.445312 138.425781 C 254.445312 139.5 253.574219 140.371094 252.5 140.371094 C 251.421875 140.371094 250.550781 139.5 250.550781 138.425781 C 250.550781 137.351562 251.421875 136.480469 252.5 136.480469 C 253.574219 136.480469 254.445312 137.351562 254.445312 138.425781 Z M 254.445312 138.425781 "/>
<path style=" stroke:none;fill-rule:nonzero;fill:rgb(24.705882%,23.921569%,33.72549%);fill-opacity:1;" d="M 362.007812 81.285156 C 362.007812 82.359375 361.136719 83.230469 360.0625 83.230469 C 358.984375 83.230469 358.113281 82.359375 358.113281 81.285156 C 358.113281 80.210938 358.984375 79.339844 360.0625 79.339844 C 361.136719 79.339844 362.007812 80.210938 362.007812 81.285156 Z M 362.007812 81.285156 "/>
<path style=" stroke:none;fill-rule:nonzero;fill:rgb(90.196078%,90.196078%,90.196078%);fill-opacity:1;" d="M 347.71875 385.078125 C 348.425781 385.261719 349.152344 384.84375 349.34375 384.136719 L 372.78125 296.132812 C 372.972656 295.425781 372.550781 294.699219 371.839844 294.511719 L 249.082031 261.898438 C 248.371094 261.710938 247.644531 262.128906 247.457031 262.839844 L 224.015625 350.839844 C 223.828125 351.546875 224.25 352.273438 224.957031 352.460938 Z M 347.71875 385.078125 "/>
<path style=" stroke:none;fill-rule:nonzero;fill:rgb(100%,100%,100%);fill-opacity:1;" d="M 362.964844 300.582031 L 346.304688 363.121094 C 346.074219 363.988281 345.183594 364.507812 344.3125 364.277344 L 238.007812 336.035156 C 237.933594 336.015625 237.859375 335.988281 237.792969 335.957031 C 237.046875 335.640625 236.644531 334.824219 236.851562 334.042969 L 253.511719 271.5 C 253.742188 270.632812 254.636719 270.117188 255.503906 270.347656 L 361.808594 298.589844 C 362.679688 298.820312 363.195312 299.710938 362.964844 300.582031 Z M 362.964844 300.582031 "/>
<path style=" stroke:none;fill-rule:nonzero;fill:rgb(24.705882%,23.921569%,33.72549%);fill-opacity:1;" d="M 348.671875 354.238281 L 346.304688 363.121094 C 346.074219 363.988281 345.183594 364.507812 344.3125 364.277344 L 238.007812 336.035156 C 237.933594 336.015625 237.859375 335.988281 237.792969 335.957031 C 237.046875 335.640625 236.644531 334.824219 236.851562 334.042969 L 239.21875 325.160156 Z M 348.671875 354.238281 "/>
<path style=" stroke:none;fill-rule:nonzero;fill:rgb(80%,80%,80%);fill-opacity:1;" d="M 284.789062 342.949219 L 301.703125 347.441406 L 301.1875 349.371094 L 284.277344 344.878906 Z M 284.789062 342.949219 "/>
<path style=" stroke:none;fill-rule:nonzero;fill:rgb(80%,80%,80%);fill-opacity:1;" d="M 245.894531 332.617188 L 262.804688 337.109375 L 262.292969 339.039062 L 245.378906 334.546875 Z M 245.894531 332.617188 "/>
<path style=" stroke:none;fill-rule:nonzero;fill:rgb(80%,80%,80%);fill-opacity:1;" d="M 323.6875 353.285156 L 340.601562 357.777344 L 340.085938 359.707031 L 323.175781 355.214844 Z M 323.6875 353.285156 "/>
<path style=" stroke:none;fill-rule:nonzero;fill:rgb(24.705882%,23.921569%,33.72549%);fill-opacity:1;" d="M 252.570312 265.691406 C 252.570312 266.769531 251.699219 267.640625 250.625 267.640625 C 249.546875 267.640625 248.675781 266.769531 248.675781 265.691406 C 248.675781 264.617188 249.546875 263.746094 250.625 263.746094 C 251.699219 263.746094 252.570312 264.617188 252.570312 265.691406 Z M 252.570312 265.691406 "/>
<path style=" stroke:none;fill-rule:nonzero;fill:rgb(24.705882%,23.921569%,33.72549%);fill-opacity:1;" d="M 370.308594 296.972656 C 370.308594 298.046875 369.4375 298.917969 368.363281 298.917969 C 367.285156 298.917969 366.414062 298.046875 366.414062 296.972656 C 366.414062 295.898438 367.285156 295.027344 368.363281 295.027344 C 369.4375 295.027344 370.308594 295.898438 370.308594 296.972656 Z M 370.308594 296.972656 "/>
<path style=" stroke:none;fill-rule:nonzero;fill:rgb(24.705882%,23.921569%,33.72549%);fill-opacity:1;" d="M 230.132812 349.933594 C 230.132812 351.007812 229.261719 351.878906 228.183594 351.878906 C 227.109375 351.878906 226.238281 351.007812 226.238281 349.933594 C 226.238281 348.859375 227.109375 347.988281 228.183594 347.988281 C 229.261719 347.988281 230.132812 348.859375 230.132812 349.933594 Z M 230.132812 349.933594 "/>
<path style=" stroke:none;fill-rule:nonzero;fill:rgb(24.705882%,23.921569%,33.72549%);fill-opacity:1;" d="M 347.871094 381.214844 C 347.871094 382.289062 347 383.160156 345.921875 383.160156 C 344.847656 383.160156 343.976562 382.289062 343.976562 381.214844 C 343.976562 380.140625 344.847656 379.269531 345.921875 379.269531 C 347 379.269531 347.871094 380.140625 347.871094 381.214844 Z M 347.871094 381.214844 "/>
<path style=" stroke:none;fill-rule:nonzero;fill:rgb(24.705882%,23.921569%,33.72549%);fill-opacity:1;" d="M 331.929688 352.6875 L 322.53125 350.183594 L 322.929688 348.695312 L 332.328125 351.195312 Z M 331.929688 352.6875 "/>
<path style=" stroke:none;fill-rule:nonzero;fill:rgb(38.823529%,59.607843%,100%);fill-opacity:1;" d="M 254.878906 330.972656 L 256.699219 331.9375 L 330.390625 351.558594 L 331.464844 350.191406 C 333.324219 347.851562 334.5 345.042969 334.851562 342.078125 C 335.101562 339.863281 334.871094 337.535156 333.308594 336.136719 L 335.832031 313.511719 L 295.078125 302.605469 L 275.914062 311.125 C 275.914062 311.125 268.507812 309.011719 263.128906 312.964844 C 261.171875 314.445312 259.707031 316.484375 258.925781 318.808594 L 258.070312 321.378906 Z M 254.878906 330.972656 "/>
<path style=" stroke:none;fill-rule:nonzero;fill:rgb(24.705882%,23.921569%,33.72549%);fill-opacity:1;" d="M 280.582031 334.910156 C 280.582031 340.105469 276.363281 344.316406 271.164062 344.316406 C 265.960938 344.316406 261.746094 340.105469 261.746094 334.910156 C 261.746094 329.714844 265.960938 325.503906 271.164062 325.503906 C 276.363281 325.503906 280.582031 329.714844 280.582031 334.910156 Z M 280.582031 334.910156 "/>
<path style=" stroke:none;fill-rule:nonzero;fill:rgb(80%,80%,80%);fill-opacity:1;" d="M 276.121094 334.910156 C 276.121094 337.644531 273.902344 339.859375 271.164062 339.859375 C 268.425781 339.859375 266.207031 337.644531 266.207031 334.910156 C 266.207031 332.175781 268.425781 329.960938 271.164062 329.960938 C 273.902344 329.960938 276.121094 332.175781 276.121094 334.910156 Z M 276.121094 334.910156 "/>
<path style=" stroke:none;fill-rule:nonzero;fill:rgb(24.705882%,23.921569%,33.72549%);fill-opacity:1;" d="M 325.484375 346.867188 C 325.484375 352.058594 321.265625 356.269531 316.066406 356.269531 C 310.863281 356.269531 306.648438 352.058594 306.648438 346.867188 C 306.648438 341.671875 310.863281 337.460938 316.066406 337.460938 C 321.265625 337.460938 325.484375 341.671875 325.484375 346.867188 Z M 325.484375 346.867188 "/>
<path style=" stroke:none;fill-rule:nonzero;fill:rgb(80%,80%,80%);fill-opacity:1;" d="M 321.023438 346.867188 C 321.023438 349.597656 318.804688 351.816406 316.066406 351.816406 C 313.328125 351.816406 311.109375 349.597656 311.109375 346.867188 C 311.109375 344.132812 313.328125 341.914062 316.066406 341.914062 C 318.804688 341.914062 321.023438 344.132812 321.023438 346.867188 Z M 321.023438 346.867188 "/>
<path style=" stroke:none;fill-rule:nonzero;fill:rgb(100%,100%,100%);fill-opacity:1;" d="M 282.578125 311.304688 L 304.59375 317.160156 L 307.28125 317.875 L 311.816406 319.085938 L 311.90625 318.753906 L 312.96875 314.769531 L 314.164062 310.296875 L 311.144531 309.492188 L 308.460938 308.777344 L 303.699219 307.507812 L 301.011719 306.796875 L 295.515625 305.332031 Z M 282.578125 311.304688 "/>
<path style=" stroke:none;fill-rule:nonzero;fill:rgb(100%,100%,100%);fill-opacity:1;" d="M 315.398438 320.039062 L 327.03125 323.136719 L 327.640625 320.855469 L 328.703125 316.871094 L 329.378906 314.347656 L 327.675781 313.894531 L 324.988281 313.179688 L 317.742188 311.25 Z M 315.398438 320.039062 "/>
<path style=" stroke:none;fill-rule:nonzero;fill:rgb(24.705882%,23.921569%,33.72549%);fill-opacity:1;" d="M 309.3125 328.472656 L 307.820312 328.078125 L 308.578125 325.246094 L 310.070312 325.644531 Z M 309.3125 328.472656 "/>
<path style=" stroke:none;fill-rule:nonzero;fill:rgb(24.705882%,23.921569%,33.72549%);fill-opacity:1;" d="M 287.871094 315.421875 L 287.472656 316.914062 L 284.636719 316.160156 L 285.035156 314.667969 Z M 287.871094 315.421875 "/>
<path style=" stroke:none;fill-rule:nonzero;fill:rgb(24.705882%,23.921569%,33.72549%);fill-opacity:1;" d="M 286.648438 315.800781 L 286.484375 315.757812 C 284.765625 315.296875 283.742188 313.53125 284.199219 311.8125 C 284.660156 310.09375 286.425781 309.070312 288.148438 309.53125 L 288.3125 309.574219 Z M 286.648438 315.800781 "/>
<path style=" stroke:none;fill-rule:nonzero;fill:rgb(24.705882%,23.921569%,33.72549%);fill-opacity:1;" d="M 258.070312 321.378906 C 260.332031 322.25 262.894531 321.371094 264.140625 319.296875 C 265.390625 317.21875 264.960938 314.550781 263.128906 312.964844 C 261.171875 314.445312 259.707031 316.484375 258.925781 318.808594 Z M 258.070312 321.378906 "/>
<path style=" stroke:none;fill-rule:nonzero;fill:rgb(94.901961%,94.901961%,94.901961%);fill-opacity:1;" d="M 308.460938 308.777344 L 311.90625 318.753906 L 312.96875 314.769531 L 311.144531 309.492188 Z M 308.460938 308.777344 "/>
<path style=" stroke:none;fill-rule:nonzero;fill:rgb(94.901961%,94.901961%,94.901961%);fill-opacity:1;" d="M 324.988281 313.179688 L 327.640625 320.855469 L 328.703125 316.871094 L 327.675781 313.894531 Z M 324.988281 313.179688 "/>
<path style=" stroke:none;fill-rule:nonzero;fill:rgb(94.901961%,94.901961%,94.901961%);fill-opacity:1;" d="M 301.011719 306.796875 L 304.59375 317.160156 L 307.28125 317.875 L 303.699219 307.507812 Z M 301.011719 306.796875 "/>
<path style=" stroke:none;fill-rule:nonzero;fill:rgb(38.823529%,59.607843%,100%);fill-opacity:1;" d="M 26.007812 148.964844 C 26.007812 152.273438 23.320312 154.957031 20.007812 154.957031 C 16.695312 154.957031 14.007812 152.273438 14.007812 148.964844 C 14.007812 145.652344 16.695312 142.972656 20.007812 142.972656 C 23.320312 142.972656 26.007812 145.652344 26.007812 148.964844 Z M 26.007812 148.964844 "/>
<use xlink:href="#surface8" mask="url(#mask1)"/>
<path style=" stroke:none;fill-rule:nonzero;fill:rgb(24.705882%,23.921569%,33.72549%);fill-opacity:1;" d="M 189.007812 155.453125 C 189.007812 152.144531 182.40625 149.460938 174.257812 149.460938 C 166.113281 149.460938 159.507812 152.144531 159.507812 155.453125 C 159.507812 158.765625 166.113281 161.445312 174.257812 161.445312 C 182.40625 161.445312 189.007812 158.765625 189.007812 155.453125 Z M 189.007812 155.453125 "/>
<use xlink:href="#surface11" mask="url(#mask2)"/>
<path style=" stroke:none;fill-rule:nonzero;fill:rgb(24.705882%,23.921569%,33.72549%);fill-opacity:1;" d="M 193.507812 155.453125 L 119.507812 155.453125 L 119.507812 147.464844 C 119.507812 146.636719 118.835938 145.96875 118.007812 145.96875 L 77.007812 145.96875 C 76.179688 145.96875 75.507812 146.636719 75.507812 147.464844 L 75.507812 155.453125 L 32.507812 155.453125 L 32.507812 150.460938 C 32.507812 149.632812 31.835938 148.964844 31.007812 148.964844 L 9.007812 148.964844 C 8.179688 148.964844 7.507812 149.632812 7.507812 150.460938 L 7.507812 155.453125 L 1.507812 155.453125 C 1.109375 155.453125 0.730469 155.613281 0.445312 155.894531 C 0.164062 156.175781 0.0078125 156.554688 0.0078125 156.953125 L 0.0078125 255.324219 C 0.0078125 255.722656 0.164062 256.105469 0.445312 256.386719 C 0.730469 256.667969 1.109375 256.824219 1.507812 256.824219 L 193.507812 256.824219 C 193.90625 256.824219 194.289062 256.667969 194.570312 256.386719 C 194.851562 256.105469 195.007812 255.722656 195.007812 255.324219 L 195.007812 156.953125 C 195.007812 156.554688 194.851562 156.175781 194.570312 155.894531 C 194.289062 155.613281 193.90625 155.453125 193.507812 155.453125 Z M 193.507812 155.453125 "/>
<use xlink:href="#surface14" mask="url(#mask3)"/>
<use xlink:href="#surface17" mask="url(#mask4)"/>
<use xlink:href="#surface20" mask="url(#mask5)"/>
<path style=" stroke:none;fill-rule:nonzero;fill:rgb(38.823529%,59.607843%,100%);fill-opacity:1;" d="M 0.0078125 196.402344 L 195.007812 196.402344 L 195.007812 215.378906 L 0.0078125 215.378906 Z M 0.0078125 196.402344 "/>
<path style=" stroke:none;fill-rule:nonzero;fill:rgb(38.823529%,59.607843%,100%);fill-opacity:1;" d="M 135.507812 205.890625 C 135.507812 226.847656 118.496094 243.839844 97.507812 243.839844 C 76.523438 243.839844 59.507812 226.847656 59.507812 205.890625 C 59.507812 184.929688 76.523438 167.9375 97.507812 167.9375 C 118.496094 167.9375 135.507812 184.929688 135.507812 205.890625 Z M 135.507812 205.890625 "/>
<use xlink:href="#surface23" mask="url(#mask6)"/>
<path style=" stroke:none;fill-rule:nonzero;fill:rgb(24.705882%,23.921569%,33.72549%);fill-opacity:1;" d="M 125.789062 205.890625 C 125.789062 221.488281 113.125 234.132812 97.507812 234.132812 C 81.890625 234.132812 69.230469 221.488281 69.230469 205.890625 C 69.230469 190.292969 81.890625 177.648438 97.507812 177.648438 C 113.125 177.648438 125.789062 190.292969 125.789062 205.890625 Z M 125.789062 205.890625 "/>
<path style=" stroke:none;fill-rule:nonzero;fill:rgb(100%,100%,100%);fill-opacity:1;" d="M 119.507812 205.890625 C 119.511719 208.871094 118.90625 211.824219 117.722656 214.5625 C 117.089844 216.039062 116.292969 217.441406 115.347656 218.742188 C 110.257812 225.796875 101.476562 229.191406 92.957031 227.390625 C 84.433594 225.59375 77.777344 218.945312 75.976562 210.4375 C 74.179688 201.925781 77.574219 193.15625 84.636719 188.074219 C 85.941406 187.128906 87.34375 186.332031 88.824219 185.699219 C 95.621094 182.785156 103.433594 183.476562 109.609375 187.542969 C 115.789062 191.605469 119.507812 198.5 119.507812 205.890625 Z M 119.507812 205.890625 "/>
<use xlink:href="#surface26" mask="url(#mask7)"/>
</g>
</svg>
