<?xml version="1.0" encoding="UTF-8"?>
<svg xmlns="http://www.w3.org/2000/svg" xmlns:xlink="http://www.w3.org/1999/xlink" width="508pt" height="252pt" viewBox="0 0 508 252" version="1.1">
<defs>
<filter id="alpha" filterUnits="objectBoundingBox" x="0%" y="0%" width="100%" height="100%">
  <feColorMatrix type="matrix" in="SourceGraphic" values="0 0 0 0 1 0 0 0 0 1 0 0 0 0 1 0 0 0 1 0"/>
</filter>
<mask id="mask0">
  <g filter="url(#alpha)">
<rect x="0" y="0" width="508" height="252" style="fill:rgb(0%,0%,0%);fill-opacity:0.101961;stroke:none;"/>
  </g>
</mask>
<clipPath id="clip1">
  <rect x="0" y="0" width="508" height="252"/>
</clipPath>
<g id="surface5" clip-path="url(#clip1)">
<path style=" stroke:none;fill-rule:nonzero;fill:rgb(94.901961%,94.901961%,94.901961%);fill-opacity:1;" d="M 472.238281 248.886719 C 473.035156 248.886719 473.679688 248.242188 473.679688 247.445312 C 473.679688 246.652344 473.035156 246.003906 472.238281 246.003906 L 460.386719 246.003906 C 461.179688 247.597656 460.535156 249.535156 458.945312 250.328125 C 458.945312 251.125 459.589844 251.773438 460.386719 251.773438 L 472.238281 251.773438 C 473.035156 251.773438 473.679688 251.125 473.679688 250.328125 C 473.679688 249.535156 473.035156 248.886719 472.238281 248.886719 Z M 472.238281 248.886719 "/>
</g>
<mask id="mask1">
  <g filter="url(#alpha)">
<rect x="0" y="0" width="508" height="252" style="fill:rgb(0%,0%,0%);fill-opacity:0.101961;stroke:none;"/>
  </g>
</mask>
<clipPath id="clip2">
  <rect x="0" y="0" width="508" height="252"/>
</clipPath>
<g id="surface8" clip-path="url(#clip2)">
<path style=" stroke:none;fill-rule:nonzero;fill:rgb(0%,0%,0%);fill-opacity:1;" d="M 468.714844 245.632812 C 468.714844 248.046875 467.640625 247.378906 466.3125 247.378906 C 464.984375 247.378906 463.910156 248.046875 463.910156 245.632812 C 463.910156 243.21875 466.3125 238.644531 466.3125 238.644531 C 466.3125 238.644531 468.714844 243.21875 468.714844 245.632812 Z M 468.714844 245.632812 "/>
</g>
<mask id="mask2">
  <g filter="url(#alpha)">
<rect x="0" y="0" width="508" height="252" style="fill:rgb(0%,0%,0%);fill-opacity:0.101961;stroke:none;"/>
  </g>
</mask>
<clipPath id="clip3">
  <rect x="0" y="0" width="508" height="252"/>
</clipPath>
<g id="surface11" clip-path="url(#clip3)">
<path style=" stroke:none;fill-rule:nonzero;fill:rgb(94.901961%,94.901961%,94.901961%);fill-opacity:1;" d="M 287.929688 139.253906 L 277 129.203125 L 276.902344 129.226562 L 272.523438 125.25 L 272.3125 125.1875 L 272.539062 125.101562 L 225.988281 82.296875 L 181.03125 40.960938 L 158.125 53.113281 L 156.25 53.527344 L 183.703125 94.960938 L 287.601562 251.773438 L 410.300781 251.773438 Z M 287.929688 139.253906 "/>
</g>
</defs>
<g id="surface1">
<path style=" stroke:none;fill-rule:nonzero;fill:rgb(18.431373%,18.039216%,25.490196%);fill-opacity:1;" d="M 253.988281 0 C 114.375 0 1.078125 112.640625 0 252 L 507.972656 252 C 506.898438 112.640625 393.597656 0 253.988281 0 Z M 253.988281 0 "/>
<path style=" stroke:none;fill-rule:nonzero;fill:rgb(94.901961%,94.901961%,94.901961%);fill-opacity:1;" d="M 243.371094 26.324219 C 243.371094 27.707031 242.25 28.828125 240.867188 28.828125 C 239.484375 28.828125 238.363281 27.707031 238.363281 26.324219 C 238.363281 24.941406 239.484375 23.820312 240.867188 23.820312 C 242.25 23.820312 243.371094 24.941406 243.371094 26.324219 Z M 243.371094 26.324219 "/>
<path style=" stroke:none;fill-rule:nonzero;fill:rgb(94.901961%,94.901961%,94.901961%);fill-opacity:1;" d="M 163.214844 108.988281 C 163.214844 109.542969 162.765625 109.988281 162.214844 109.988281 C 161.660156 109.988281 161.210938 109.542969 161.210938 108.988281 C 161.210938 108.433594 161.660156 107.984375 162.214844 107.984375 C 162.765625 107.984375 163.214844 108.433594 163.214844 108.988281 Z M 163.214844 108.988281 "/>
<path style=" stroke:none;fill-rule:nonzero;fill:rgb(94.901961%,94.901961%,94.901961%);fill-opacity:1;" d="M 311.007812 156.082031 C 311.007812 156.636719 310.558594 157.082031 310.003906 157.082031 C 309.449219 157.082031 309.003906 156.636719 309.003906 156.082031 C 309.003906 155.527344 309.449219 155.078125 310.003906 155.078125 C 310.558594 155.078125 311.007812 155.527344 311.007812 156.082031 Z M 311.007812 156.082031 "/>
<path style=" stroke:none;fill-rule:nonzero;fill:rgb(94.901961%,94.901961%,94.901961%);fill-opacity:1;" d="M 49.992188 143.558594 C 49.992188 144.109375 49.542969 144.558594 48.988281 144.558594 C 48.4375 144.558594 47.988281 144.109375 47.988281 143.558594 C 47.988281 143.003906 48.4375 142.554688 48.988281 142.554688 C 49.542969 142.554688 49.992188 143.003906 49.992188 143.558594 Z M 49.992188 143.558594 "/>
<path style=" stroke:none;fill-rule:nonzero;fill:rgb(94.901961%,94.901961%,94.901961%);fill-opacity:1;" d="M 440.761719 107.984375 C 440.761719 108.539062 440.3125 108.988281 439.757812 108.988281 C 439.207031 108.988281 438.757812 108.539062 438.757812 107.984375 C 438.757812 107.433594 439.207031 106.984375 439.757812 106.984375 C 440.3125 106.984375 440.761719 107.433594 440.761719 107.984375 Z M 440.761719 107.984375 "/>
<path style=" stroke:none;fill-rule:nonzero;fill:rgb(94.901961%,94.901961%,94.901961%);fill-opacity:1;" d="M 119.128906 118.507812 C 119.128906 119.058594 118.679688 119.507812 118.125 119.507812 C 117.574219 119.507812 117.125 119.058594 117.125 118.507812 C 117.125 117.953125 117.574219 117.503906 118.125 117.503906 C 118.679688 117.503906 119.128906 117.953125 119.128906 118.507812 Z M 119.128906 118.507812 "/>
<path style=" stroke:none;fill-rule:nonzero;fill:rgb(94.901961%,94.901961%,94.901961%);fill-opacity:1;" d="M 283.453125 98.46875 C 283.453125 99.019531 283.003906 99.46875 282.449219 99.46875 C 281.894531 99.46875 281.449219 99.019531 281.449219 98.46875 C 281.449219 97.914062 281.894531 97.464844 282.449219 97.464844 C 283.003906 97.464844 283.453125 97.914062 283.453125 98.46875 Z M 283.453125 98.46875 "/>
<path style=" stroke:none;fill-rule:nonzero;fill:rgb(94.901961%,94.901961%,94.901961%);fill-opacity:1;" d="M 316.515625 26.324219 C 316.515625 26.878906 316.066406 27.328125 315.515625 27.328125 C 314.960938 27.328125 314.511719 26.878906 314.511719 26.324219 C 314.511719 25.769531 314.960938 25.320312 315.515625 25.320312 C 316.066406 25.320312 316.515625 25.769531 316.515625 26.324219 Z M 316.515625 26.324219 "/>
<path style=" stroke:none;fill-rule:nonzero;fill:rgb(94.901961%,94.901961%,94.901961%);fill-opacity:1;" d="M 106.101562 144.558594 L 107.105469 144.558594 L 107.105469 145.058594 L 106.101562 145.058594 Z M 106.101562 144.558594 "/>
<path style=" stroke:none;fill-rule:nonzero;fill:rgb(94.901961%,94.901961%,94.901961%);fill-opacity:1;" d="M 135.660156 67.90625 L 136.664062 67.90625 L 136.664062 68.40625 L 135.660156 68.40625 Z M 135.660156 67.90625 "/>
<path style=" stroke:none;fill-rule:nonzero;fill:rgb(94.901961%,94.901961%,94.901961%);fill-opacity:1;" d="M 207.804688 125.019531 L 208.804688 125.019531 L 208.804688 125.519531 L 207.804688 125.519531 Z M 207.804688 125.019531 "/>
<path style=" stroke:none;fill-rule:nonzero;fill:rgb(94.901961%,94.901961%,94.901961%);fill-opacity:1;" d="M 399.179688 147.0625 L 400.179688 147.0625 L 400.179688 147.566406 L 399.179688 147.566406 Z M 399.179688 147.0625 "/>
<path style=" stroke:none;fill-rule:nonzero;fill:rgb(94.901961%,94.901961%,94.901961%);fill-opacity:1;" d="M 339.5625 70.410156 L 340.5625 70.410156 L 340.5625 70.914062 L 339.5625 70.914062 Z M 339.5625 70.410156 "/>
<path style=" stroke:none;fill-rule:nonzero;fill:rgb(24.705882%,23.921569%,33.72549%);fill-opacity:1;" d="M 112.765625 182.203125 L 114.53125 182.203125 L 114.53125 251.839844 L 112.765625 251.839844 Z M 112.765625 182.203125 "/>
<path style=" stroke:none;fill-rule:nonzero;fill:rgb(24.705882%,23.921569%,33.72549%);fill-opacity:1;" d="M 130.800781 170.035156 C 130.914062 194.386719 113.78125 214.207031 113.78125 214.207031 C 113.78125 214.207031 96.464844 194.542969 96.355469 170.191406 C 96.242188 145.84375 113.375 126.023438 113.375 126.023438 C 113.375 126.023438 130.6875 145.683594 130.800781 170.035156 Z M 130.800781 170.035156 "/>
<path style=" stroke:none;fill-rule:nonzero;fill:rgb(24.705882%,23.921569%,33.72549%);fill-opacity:1;" d="M 90.484375 161.554688 L 92.769531 161.554688 L 92.769531 251.839844 L 90.484375 251.839844 Z M 90.484375 161.554688 "/>
<path style=" stroke:none;fill-rule:nonzero;fill:rgb(24.705882%,23.921569%,33.72549%);fill-opacity:1;" d="M 113.863281 152.019531 C 114.007812 183.589844 91.796875 209.285156 91.796875 209.285156 C 91.796875 209.285156 69.351562 183.796875 69.203125 152.226562 C 69.058594 120.65625 91.269531 94.960938 91.269531 94.960938 C 91.269531 94.960938 113.71875 120.449219 113.863281 152.019531 Z M 113.863281 152.019531 "/>
<path style=" stroke:none;fill-rule:nonzero;fill:rgb(38.823529%,59.607843%,100%);fill-opacity:1;" d="M 356.746094 182.203125 L 358.511719 182.203125 L 358.511719 251.839844 L 356.746094 251.839844 Z M 356.746094 182.203125 "/>
<path style=" stroke:none;fill-rule:nonzero;fill:rgb(24.705882%,23.921569%,33.72549%);fill-opacity:1;" d="M 374.78125 191.078125 C 374.894531 215.425781 357.761719 235.246094 357.761719 235.246094 C 357.761719 235.246094 340.445312 215.585938 340.335938 191.234375 C 340.222656 166.882812 357.355469 147.0625 357.355469 147.0625 C 357.355469 147.0625 374.667969 166.726562 374.78125 191.078125 Z M 374.78125 191.078125 "/>
<path style=" stroke:none;fill-rule:nonzero;fill:rgb(24.705882%,23.921569%,33.72549%);fill-opacity:1;" d="M 70.683594 182.203125 L 72.445312 182.203125 L 72.445312 251.839844 L 70.683594 251.839844 Z M 70.683594 182.203125 "/>
<path style=" stroke:none;fill-rule:nonzero;fill:rgb(24.705882%,23.921569%,33.72549%);fill-opacity:1;" d="M 88.71875 170.035156 C 88.828125 194.386719 71.699219 214.207031 71.699219 214.207031 C 71.699219 214.207031 54.382812 194.542969 54.269531 170.191406 C 54.160156 145.84375 71.289062 126.023438 71.289062 126.023438 C 71.289062 126.023438 88.605469 145.683594 88.71875 170.035156 Z M 88.71875 170.035156 "/>
<path style=" stroke:none;fill-rule:nonzero;fill:rgb(24.705882%,23.921569%,33.72549%);fill-opacity:1;" d="M 225.988281 182.203125 L 227.753906 182.203125 L 227.753906 251.839844 L 225.988281 251.839844 Z M 225.988281 182.203125 "/>
<path style=" stroke:none;fill-rule:nonzero;fill:rgb(24.705882%,23.921569%,33.72549%);fill-opacity:1;" d="M 244.023438 170.035156 C 244.136719 194.386719 227.003906 214.207031 227.003906 214.207031 C 227.003906 214.207031 209.6875 194.542969 209.578125 170.191406 C 209.464844 145.84375 226.597656 126.023438 226.597656 126.023438 C 226.597656 126.023438 243.910156 145.683594 244.023438 170.035156 Z M 244.023438 170.035156 "/>
<path style=" stroke:none;fill-rule:nonzero;fill:rgb(24.705882%,23.921569%,33.72549%);fill-opacity:1;" d="M 203.707031 161.554688 L 205.992188 161.554688 L 205.992188 251.839844 L 203.707031 251.839844 Z M 203.707031 161.554688 "/>
<path style=" stroke:none;fill-rule:nonzero;fill:rgb(24.705882%,23.921569%,33.72549%);fill-opacity:1;" d="M 227.085938 152.019531 C 227.230469 183.589844 205.019531 209.285156 205.019531 209.285156 C 205.019531 209.285156 182.574219 183.796875 182.425781 152.226562 C 182.28125 120.65625 204.492188 94.960938 204.492188 94.960938 C 204.492188 94.960938 226.941406 120.449219 227.085938 152.019531 Z M 227.085938 152.019531 "/>
<path style=" stroke:none;fill-rule:nonzero;fill:rgb(24.705882%,23.921569%,33.72549%);fill-opacity:1;" d="M 183.90625 182.203125 L 185.667969 182.203125 L 185.667969 251.839844 L 183.90625 251.839844 Z M 183.90625 182.203125 "/>
<path style=" stroke:none;fill-rule:nonzero;fill:rgb(24.705882%,23.921569%,33.72549%);fill-opacity:1;" d="M 201.941406 170.035156 C 202.050781 194.386719 184.921875 214.207031 184.921875 214.207031 C 184.921875 214.207031 167.605469 194.542969 167.492188 170.191406 C 167.382812 145.84375 184.515625 126.023438 184.515625 126.023438 C 184.515625 126.023438 201.828125 145.683594 201.941406 170.035156 Z M 201.941406 170.035156 "/>
<path style=" stroke:none;fill-rule:nonzero;fill:rgb(38.823529%,59.607843%,100%);fill-opacity:1;" d="M 369.910156 214.632812 L 340.449219 187.542969 C 340.371094 188.761719 340.328125 189.992188 340.335938 191.234375 C 340.445312 215.585938 357.761719 235.246094 357.761719 235.246094 C 362.800781 229.011719 366.894531 222.0625 369.910156 214.632812 Z M 369.910156 214.632812 "/>
<path style=" stroke:none;fill-rule:nonzero;fill:rgb(24.705882%,23.921569%,33.72549%);fill-opacity:1;" d="M 150.617188 245.628906 C 151.628906 249.359375 155.085938 251.671875 155.085938 251.671875 C 155.085938 251.671875 156.90625 247.933594 155.894531 244.203125 C 154.886719 240.46875 151.429688 238.160156 151.429688 238.160156 C 151.429688 238.160156 149.609375 241.898438 150.617188 245.628906 Z M 150.617188 245.628906 "/>
<path style=" stroke:none;fill-rule:nonzero;fill:rgb(24.705882%,23.921569%,33.72549%);fill-opacity:1;" d="M 152.101562 244.828125 C 154.871094 247.523438 155.210938 251.667969 155.210938 251.667969 C 155.210938 251.667969 151.058594 251.441406 148.289062 248.746094 C 145.519531 246.050781 145.179688 241.90625 145.179688 241.90625 C 145.179688 241.90625 149.332031 242.132812 152.101562 244.828125 Z M 152.101562 244.828125 "/>
<path style=" stroke:none;fill-rule:nonzero;fill:rgb(38.823529%,59.607843%,100%);fill-opacity:1;" d="M 292.898438 245.628906 C 293.90625 249.359375 297.363281 251.671875 297.363281 251.671875 C 297.363281 251.671875 299.1875 247.933594 298.175781 244.203125 C 297.167969 240.46875 293.710938 238.160156 293.710938 238.160156 C 293.710938 238.160156 291.890625 241.898438 292.898438 245.628906 Z M 292.898438 245.628906 "/>
<path style=" stroke:none;fill-rule:nonzero;fill:rgb(38.823529%,59.607843%,100%);fill-opacity:1;" d="M 294.382812 244.828125 C 297.152344 247.523438 297.488281 251.667969 297.488281 251.667969 C 297.488281 251.667969 293.335938 251.441406 290.566406 248.746094 C 287.796875 246.050781 287.460938 241.90625 287.460938 241.90625 C 287.460938 241.90625 291.613281 242.132812 294.382812 244.828125 Z M 294.382812 244.828125 "/>
<path style=" stroke:none;fill-rule:nonzero;fill:rgb(24.705882%,23.921569%,33.72549%);fill-opacity:1;" d="M 38.398438 245.628906 C 39.40625 249.359375 42.863281 251.671875 42.863281 251.671875 C 42.863281 251.671875 44.683594 247.933594 43.675781 244.203125 C 42.667969 240.46875 39.207031 238.160156 39.207031 238.160156 C 39.207031 238.160156 37.386719 241.898438 38.398438 245.628906 Z M 38.398438 245.628906 "/>
<path style=" stroke:none;fill-rule:nonzero;fill:rgb(24.705882%,23.921569%,33.72549%);fill-opacity:1;" d="M 39.878906 244.828125 C 42.648438 247.523438 42.988281 251.667969 42.988281 251.667969 C 42.988281 251.667969 38.835938 251.441406 36.066406 248.746094 C 33.296875 246.050781 32.957031 241.90625 32.957031 241.90625 C 32.957031 241.90625 37.109375 242.132812 39.878906 244.828125 Z M 39.878906 244.828125 "/>
<path style=" stroke:none;fill-rule:nonzero;fill:rgb(38.823529%,59.607843%,100%);fill-opacity:1;" d="M 194.046875 110.574219 L 242.398438 183.546875 C 243.480469 179.125 244.023438 174.589844 244.023438 170.035156 C 243.96875 158.160156 239.824219 147.402344 235.589844 139.492188 L 233.351562 140.050781 L 235.457031 139.246094 C 232.964844 134.546875 229.996094 130.117188 226.597656 126.023438 C 226.597656 126.023438 225.363281 127.449219 223.5625 130.007812 C 217.207031 109.402344 204.492188 94.960938 204.492188 94.960938 C 200.523438 99.820312 197.027344 105.050781 194.046875 110.574219 Z M 194.046875 110.574219 "/>
<use xlink:href="#surface5" mask="url(#mask0)"/>
<path style=" stroke:none;fill-rule:nonzero;fill:rgb(24.705882%,23.921569%,33.72549%);fill-opacity:1;" d="M 444.066406 245.914062 C 444.269531 253.777344 439.511719 251.773438 433.746094 251.773438 C 427.980469 251.773438 423.226562 252.773438 423.1875 245.914062 C 423.167969 242.535156 427.894531 241.800781 433.660156 241.800781 C 439.425781 241.800781 443.980469 242.535156 444.066406 245.914062 Z M 444.066406 245.914062 "/>
<path style=" stroke:none;fill-rule:nonzero;fill:rgb(24.705882%,23.921569%,33.72549%);fill-opacity:1;" d="M 457.554688 249.019531 C 457.460938 248.972656 457.359375 248.9375 457.253906 248.925781 C 456.730469 248.839844 456.214844 248.730469 455.703125 248.59375 C 455.1875 248.453125 454.714844 248.191406 454.328125 247.828125 C 454.183594 247.65625 454.019531 247.5 453.84375 247.363281 C 453.660156 247.226562 453.414062 247.207031 453.210938 247.320312 C 453.191406 247.335938 453.171875 247.351562 453.15625 247.371094 C 453.085938 247.324219 453.011719 247.277344 452.941406 247.230469 C 452.558594 246.980469 452.175781 246.730469 451.792969 246.484375 L 451.777344 246.476562 C 451.785156 246.414062 451.789062 246.351562 451.777344 246.292969 C 451.710938 246.09375 451.574219 245.925781 451.394531 245.816406 C 451.890625 245.8125 452.390625 245.765625 452.882812 245.714844 C 453.355469 245.722656 453.808594 245.542969 454.148438 245.21875 C 454.199219 245.164062 454.230469 245.089844 454.238281 245.015625 C 454.238281 244.859375 454.078125 244.757812 453.933594 244.699219 C 453.742188 244.621094 453.542969 244.5625 453.339844 244.523438 C 453.195312 244.503906 453.054688 244.472656 452.917969 244.433594 C 452.792969 244.390625 452.675781 244.332031 452.5625 244.265625 C 452.316406 244.132812 452.074219 243.996094 451.828125 243.863281 C 451.722656 243.8125 451.628906 243.746094 451.542969 243.664062 C 451.417969 243.535156 451.363281 243.347656 451.238281 243.21875 C 451.121094 243.097656 450.644531 242.941406 450.578125 243.183594 C 450.550781 243.28125 450.652344 243.390625 450.667969 243.496094 C 450.503906 243.394531 450.332031 243.300781 450.15625 243.21875 C 450.167969 243.195312 450.179688 243.175781 450.1875 243.15625 C 449.375 242.503906 448.730469 241.667969 448.304688 240.714844 C 448.378906 240.71875 448.449219 240.722656 448.523438 240.722656 C 448.648438 240.734375 448.769531 240.703125 448.875 240.636719 C 448.964844 240.554688 449.007812 240.441406 449 240.324219 C 448.992188 240.207031 448.964844 240.09375 448.917969 239.984375 C 448.8125 239.664062 448.648438 239.367188 448.429688 239.109375 C 448.21875 238.90625 447.976562 238.734375 447.714844 238.601562 L 447.671875 238.578125 C 447.65625 238.523438 447.636719 238.46875 447.617188 238.417969 C 447.457031 238.089844 447.28125 237.769531 447.082031 237.464844 C 446.800781 236.953125 446.59375 236.402344 446.46875 235.832031 C 446.421875 235.484375 446.289062 235.15625 446.082031 234.871094 C 445.699219 234.453125 445.042969 234.460938 444.476562 234.527344 C 444.15625 234.5625 443.835938 234.609375 443.515625 234.660156 C 443.511719 234.652344 443.511719 234.644531 443.507812 234.636719 C 443.46875 234.558594 443.441406 234.476562 443.433594 234.390625 C 443.441406 234.324219 443.457031 234.253906 443.480469 234.1875 C 443.515625 234.019531 443.460938 233.847656 443.339844 233.726562 C 443.324219 233.714844 443.3125 233.699219 443.296875 233.683594 C 443.335938 233.601562 443.367188 233.519531 443.394531 233.433594 C 443.449219 233.371094 443.476562 233.289062 443.464844 233.203125 C 443.523438 233 443.554688 232.789062 443.558594 232.574219 C 443.492188 232.101562 443.476562 231.625 443.507812 231.152344 C 443.492188 231.03125 443.449219 230.921875 443.382812 230.820312 C 443.371094 230.804688 443.351562 230.796875 443.335938 230.785156 C 443.433594 230.65625 443.546875 230.539062 443.671875 230.433594 C 443.921875 230.246094 444.183594 230.078125 444.460938 229.933594 C 444.527344 229.898438 444.621094 229.871094 444.683594 229.832031 C 444.78125 229.847656 444.882812 229.855469 444.980469 229.859375 C 445.726562 229.863281 446.425781 229.5 446.847656 228.886719 C 447.269531 228.269531 447.359375 227.488281 447.089844 226.792969 C 447.292969 226.742188 447.472656 226.613281 447.578125 226.429688 C 447.6875 226.238281 447.753906 226.027344 447.773438 225.804688 C 447.808594 225.636719 447.773438 225.457031 447.675781 225.3125 C 447.59375 225.230469 447.496094 225.164062 447.390625 225.113281 C 447.246094 225.023438 447.121094 224.898438 447.035156 224.75 C 446.96875 224.644531 446.925781 224.53125 446.867188 224.421875 C 446.675781 224.015625 446.269531 223.746094 445.820312 223.730469 C 445.609375 223.757812 445.402344 223.796875 445.195312 223.851562 C 444.496094 223.976562 443.734375 223.605469 443.082031 223.894531 C 442.921875 223.972656 442.773438 224.070312 442.640625 224.191406 C 442.457031 224.339844 442.28125 224.5 442.113281 224.667969 C 441.964844 224.792969 441.855469 224.953125 441.789062 225.136719 C 441.703125 225.46875 441.910156 225.839844 441.777344 226.15625 C 441.730469 226.246094 441.675781 226.332031 441.613281 226.410156 C 441.46875 226.628906 441.628906 227.472656 441.609375 227.734375 C 441.59375 227.863281 441.625 227.992188 441.703125 228.097656 C 441.722656 228.117188 441.742188 228.132812 441.769531 228.148438 C 440.675781 228.535156 439.609375 228.988281 438.570312 229.503906 C 437.324219 230.109375 436.292969 231.074219 435.605469 232.277344 C 435.429688 232.621094 435.296875 232.984375 435.136719 233.335938 C 434.925781 233.804688 434.667969 234.25 434.410156 234.695312 C 434.097656 235.242188 433.785156 235.785156 433.421875 236.296875 C 433.214844 236.570312 433.023438 236.855469 432.847656 237.148438 C 432.84375 237.191406 432.84375 237.234375 432.84375 237.277344 C 432.851562 237.316406 432.847656 237.359375 432.832031 237.394531 C 432.800781 237.441406 432.753906 237.46875 432.695312 237.476562 L 432.6875 237.496094 C 432.605469 237.761719 432.539062 238.027344 432.484375 238.300781 C 432.378906 238.730469 432.207031 239.144531 432.140625 239.582031 C 432.066406 239.695312 432.0625 239.84375 432.132812 239.960938 C 432.207031 240.074219 432.339844 240.136719 432.476562 240.117188 C 432.851562 240.28125 433.210938 240.476562 433.574219 240.675781 C 433.566406 240.703125 433.558594 240.726562 433.554688 240.753906 C 433.53125 241.324219 433.835938 241.855469 434.339844 242.125 C 434.835938 242.378906 435.382812 242.527344 435.941406 242.558594 C 436.15625 242.585938 436.375 242.597656 436.589844 242.617188 C 436.90625 242.792969 437.242188 242.929688 437.589844 243.023438 C 437.667969 243.046875 437.746094 243.058594 437.824219 243.0625 C 438.039062 243.046875 438.238281 242.933594 438.359375 242.757812 C 440.222656 242.863281 442.09375 242.824219 443.949219 242.644531 C 444.464844 242.523438 445.003906 242.609375 445.457031 242.878906 C 445.859375 243.207031 445.941406 243.785156 446.242188 244.210938 C 446.457031 244.472656 446.703125 244.710938 446.96875 244.921875 C 447.5 245.484375 447.96875 246.097656 448.367188 246.761719 C 448.773438 247.429688 449.355469 247.96875 450.054688 248.316406 C 450.179688 248.117188 450.359375 247.957031 450.578125 247.859375 C 450.632812 247.828125 450.6875 247.789062 450.742188 247.753906 C 450.8125 247.875 450.898438 247.984375 450.996094 248.085938 C 451.066406 248.164062 451.140625 248.246094 451.207031 248.332031 C 451.203125 248.332031 451.203125 248.332031 451.199219 248.332031 C 451.101562 248.347656 451.070312 248.46875 451.058594 248.566406 C 451.015625 248.941406 450.972656 249.316406 450.929688 249.691406 C 450.914062 249.765625 450.921875 249.84375 450.945312 249.914062 C 450.992188 249.992188 451.0625 250.050781 451.148438 250.082031 C 451.496094 250.25 451.875 250.351562 452.257812 250.375 C 452.453125 250.390625 452.648438 250.382812 452.84375 250.402344 C 453.160156 250.441406 453.476562 250.503906 453.785156 250.589844 C 454.625 250.78125 455.492188 250.847656 456.351562 250.789062 C 456.53125 250.785156 456.707031 250.753906 456.875 250.691406 C 457.070312 250.597656 457.246094 250.460938 457.386719 250.292969 C 457.566406 250.125 457.699219 249.910156 457.773438 249.675781 C 457.847656 249.429688 457.757812 249.171875 457.554688 249.019531 Z M 457.554688 249.019531 "/>
<path style=" stroke:none;fill-rule:nonzero;fill:rgb(100%,39.607843%,51.764706%);fill-opacity:1;" d="M 443.695312 223.855469 C 443.777344 223.839844 443.859375 223.816406 443.941406 223.796875 C 443.675781 223.761719 443.410156 223.789062 443.15625 223.871094 C 443.335938 223.886719 443.515625 223.882812 443.695312 223.855469 Z M 443.695312 223.855469 "/>
<path style=" stroke:none;fill-rule:nonzero;fill:rgb(100%,39.607843%,51.764706%);fill-opacity:1;" d="M 445.363281 224.421875 C 445.421875 224.53125 445.46875 224.644531 445.53125 224.75 C 445.621094 224.898438 445.742188 225.023438 445.886719 225.113281 C 445.992188 225.164062 446.089844 225.230469 446.175781 225.3125 C 446.269531 225.457031 446.304688 225.636719 446.269531 225.804688 C 446.253906 226.027344 446.1875 226.238281 446.078125 226.429688 C 445.96875 226.613281 445.789062 226.742188 445.585938 226.792969 C 445.898438 227.535156 445.785156 228.390625 445.285156 229.023438 C 444.78125 229.65625 443.976562 229.964844 443.183594 229.832031 C 443.117188 229.871094 443.027344 229.898438 442.960938 229.933594 C 442.683594 230.078125 442.417969 230.246094 442.171875 230.433594 C 442.046875 230.539062 441.933594 230.65625 441.835938 230.785156 C 441.847656 230.796875 441.867188 230.804688 441.878906 230.820312 C 441.945312 230.921875 441.988281 231.03125 442.003906 231.152344 C 441.972656 231.625 441.988281 232.101562 442.054688 232.574219 C 442.050781 232.789062 442.023438 233 441.964844 233.203125 C 441.972656 233.289062 441.945312 233.371094 441.894531 233.433594 C 441.863281 233.519531 441.832031 233.601562 441.796875 233.683594 C 441.808594 233.699219 441.824219 233.714844 441.835938 233.726562 C 441.957031 233.847656 442.011719 234.019531 441.976562 234.1875 C 441.953125 234.253906 441.9375 234.324219 441.929688 234.390625 C 441.9375 234.476562 441.964844 234.558594 442.003906 234.636719 C 442.007812 234.644531 442.007812 234.652344 442.011719 234.660156 C 442.332031 234.609375 442.652344 234.5625 442.976562 234.527344 C 443.132812 234.507812 443.292969 234.496094 443.453125 234.496094 C 443.441406 234.460938 443.433594 234.425781 443.433594 234.390625 C 443.441406 234.324219 443.457031 234.253906 443.480469 234.1875 C 443.515625 234.019531 443.460938 233.847656 443.339844 233.726562 C 443.324219 233.714844 443.3125 233.699219 443.296875 233.683594 C 443.335938 233.601562 443.367188 233.519531 443.394531 233.433594 C 443.449219 233.371094 443.476562 233.289062 443.464844 233.203125 C 443.523438 233 443.554688 232.789062 443.558594 232.574219 C 443.492188 232.101562 443.476562 231.625 443.507812 231.152344 C 443.492188 231.03125 443.449219 230.921875 443.382812 230.820312 C 443.371094 230.804688 443.351562 230.796875 443.335938 230.785156 C 443.433594 230.65625 443.546875 230.539062 443.671875 230.433594 C 443.921875 230.246094 444.183594 230.078125 444.460938 229.933594 C 444.527344 229.898438 444.621094 229.871094 444.683594 229.832031 C 444.78125 229.847656 444.882812 229.855469 444.980469 229.859375 C 445.726562 229.863281 446.425781 229.5 446.847656 228.886719 C 447.269531 228.269531 447.359375 227.488281 447.089844 226.792969 C 447.292969 226.742188 447.472656 226.613281 447.578125 226.429688 C 447.6875 226.238281 447.753906 226.027344 447.773438 225.804688 C 447.808594 225.636719 447.773438 225.457031 447.675781 225.3125 C 447.59375 225.230469 447.496094 225.164062 447.390625 225.113281 C 447.246094 225.023438 447.121094 224.898438 447.035156 224.75 C 446.96875 224.644531 446.925781 224.53125 446.867188 224.421875 C 446.675781 224.015625 446.269531 223.746094 445.820312 223.730469 C 445.609375 223.757812 445.402344 223.796875 445.195312 223.851562 C 445.082031 223.871094 444.964844 223.878906 444.847656 223.875 C 445.066406 224.007812 445.246094 224.199219 445.363281 224.421875 Z M 445.363281 224.421875 "/>
<path style=" stroke:none;fill-rule:nonzero;fill:rgb(100%,39.607843%,51.764706%);fill-opacity:1;" d="M 457.554688 249.019531 C 457.460938 248.972656 457.359375 248.9375 457.253906 248.925781 C 456.730469 248.839844 456.214844 248.730469 455.703125 248.59375 C 455.1875 248.453125 454.714844 248.191406 454.328125 247.828125 C 454.183594 247.65625 454.019531 247.5 453.84375 247.363281 C 453.660156 247.226562 453.414062 247.207031 453.210938 247.320312 C 453.191406 247.335938 453.171875 247.351562 453.15625 247.371094 C 453.085938 247.324219 453.011719 247.277344 452.941406 247.230469 C 452.558594 246.980469 452.175781 246.730469 451.792969 246.484375 L 451.777344 246.476562 C 451.785156 246.414062 451.789062 246.351562 451.777344 246.292969 C 451.710938 246.09375 451.574219 245.925781 451.394531 245.816406 C 451.890625 245.8125 452.390625 245.765625 452.882812 245.714844 C 453.355469 245.722656 453.808594 245.542969 454.148438 245.21875 C 454.199219 245.164062 454.230469 245.089844 454.238281 245.015625 C 454.238281 244.859375 454.078125 244.757812 453.933594 244.699219 C 453.742188 244.621094 453.542969 244.5625 453.339844 244.523438 C 453.195312 244.503906 453.054688 244.472656 452.917969 244.433594 C 452.792969 244.390625 452.675781 244.332031 452.5625 244.265625 C 452.316406 244.132812 452.074219 243.996094 451.828125 243.863281 C 451.722656 243.8125 451.628906 243.746094 451.542969 243.664062 C 451.417969 243.535156 451.363281 243.347656 451.238281 243.21875 C 451.121094 243.097656 450.644531 242.941406 450.578125 243.183594 C 450.550781 243.28125 450.652344 243.390625 450.667969 243.496094 C 450.503906 243.394531 450.332031 243.300781 450.15625 243.21875 C 450.167969 243.195312 450.179688 243.175781 450.1875 243.15625 C 449.375 242.503906 448.730469 241.667969 448.304688 240.714844 C 448.378906 240.71875 448.449219 240.722656 448.523438 240.722656 C 448.648438 240.734375 448.769531 240.703125 448.875 240.636719 C 448.964844 240.554688 449.007812 240.441406 449 240.324219 C 448.992188 240.207031 448.964844 240.09375 448.917969 239.984375 C 448.8125 239.664062 448.648438 239.367188 448.429688 239.109375 C 448.21875 238.90625 447.976562 238.734375 447.714844 238.601562 L 447.671875 238.578125 C 447.65625 238.523438 447.636719 238.46875 447.617188 238.417969 C 447.457031 238.089844 447.28125 237.769531 447.082031 237.464844 C 446.800781 236.953125 446.59375 236.402344 446.46875 235.832031 C 446.421875 235.484375 446.289062 235.15625 446.082031 234.871094 C 445.699219 234.453125 445.042969 234.460938 444.476562 234.527344 C 444.351562 234.539062 444.226562 234.5625 444.101562 234.578125 C 444.28125 234.632812 444.449219 234.734375 444.578125 234.871094 C 444.785156 235.15625 444.917969 235.484375 444.964844 235.832031 C 445.09375 236.402344 445.296875 236.953125 445.578125 237.464844 C 445.777344 237.769531 445.957031 238.089844 446.113281 238.417969 C 446.136719 238.46875 446.152344 238.523438 446.167969 238.578125 L 446.210938 238.601562 C 446.472656 238.734375 446.714844 238.90625 446.925781 239.109375 C 447.144531 239.367188 447.308594 239.664062 447.414062 239.984375 C 447.460938 240.09375 447.488281 240.207031 447.5 240.324219 C 447.507812 240.441406 447.460938 240.554688 447.371094 240.636719 C 447.269531 240.703125 447.144531 240.734375 447.019531 240.722656 C 446.949219 240.722656 446.875 240.71875 446.800781 240.714844 C 447.226562 241.667969 447.871094 242.503906 448.683594 243.15625 C 448.675781 243.175781 448.664062 243.195312 448.65625 243.21875 C 448.828125 243.300781 449 243.394531 449.164062 243.496094 C 449.152344 243.390625 449.046875 243.28125 449.074219 243.183594 C 449.144531 242.941406 449.617188 243.097656 449.734375 243.21875 C 449.859375 243.347656 449.917969 243.535156 450.042969 243.664062 C 450.125 243.746094 450.222656 243.8125 450.324219 243.863281 C 450.570312 243.996094 450.816406 244.132812 451.058594 244.265625 C 451.171875 244.332031 451.292969 244.390625 451.414062 244.433594 C 451.554688 244.472656 451.695312 244.503906 451.835938 244.523438 C 452.039062 244.5625 452.238281 244.621094 452.429688 244.699219 C 452.574219 244.757812 452.734375 244.859375 452.734375 245.015625 C 452.730469 245.089844 452.699219 245.164062 452.648438 245.21875 C 452.304688 245.542969 451.851562 245.722656 451.382812 245.714844 C 450.886719 245.765625 450.386719 245.8125 449.890625 245.816406 C 450.070312 245.925781 450.207031 246.09375 450.273438 246.292969 C 450.285156 246.351562 450.285156 246.414062 450.273438 246.476562 L 450.289062 246.484375 C 450.671875 246.730469 451.058594 246.980469 451.4375 247.230469 C 451.511719 247.277344 451.582031 247.324219 451.652344 247.371094 C 451.671875 247.351562 451.6875 247.335938 451.710938 247.320312 C 451.910156 247.207031 452.15625 247.226562 452.339844 247.363281 C 452.515625 247.5 452.679688 247.65625 452.824219 247.828125 C 453.214844 248.191406 453.683594 248.453125 454.199219 248.59375 C 454.710938 248.730469 455.226562 248.839844 455.75 248.925781 C 455.855469 248.9375 455.957031 248.972656 456.050781 249.019531 C 456.253906 249.171875 456.34375 249.429688 456.273438 249.675781 C 456.199219 249.910156 456.066406 250.125 455.886719 250.292969 C 455.742188 250.460938 455.570312 250.597656 455.371094 250.691406 C 455.25 250.738281 455.121094 250.765625 454.988281 250.777344 C 455.441406 250.816406 455.898438 250.820312 456.351562 250.789062 C 456.53125 250.785156 456.707031 250.753906 456.875 250.691406 C 457.070312 250.597656 457.246094 250.460938 457.386719 250.292969 C 457.566406 250.125 457.699219 249.910156 457.773438 249.675781 C 457.847656 249.429688 457.757812 249.171875 457.554688 249.019531 Z M 457.554688 249.019531 "/>
<path style=" stroke:none;fill-rule:nonzero;fill:rgb(100%,39.607843%,51.764706%);fill-opacity:1;" d="M 449.21875 247.765625 C 449.242188 247.789062 449.269531 247.8125 449.292969 247.835938 C 449.273438 247.808594 449.253906 247.78125 449.238281 247.753906 Z M 449.21875 247.765625 "/>
<path style=" stroke:none;fill-rule:nonzero;fill:rgb(100%,39.607843%,51.764706%);fill-opacity:1;" d="M 471.597656 243.601562 C 471.597656 248.910156 469.230469 247.445312 466.3125 247.445312 C 463.390625 247.445312 461.027344 248.910156 461.027344 243.601562 C 461.027344 238.292969 466.3125 228.226562 466.3125 228.226562 C 466.3125 228.226562 471.597656 238.292969 471.597656 243.601562 Z M 471.597656 243.601562 "/>
<use xlink:href="#surface8" mask="url(#mask1)"/>
<path style=" stroke:none;fill-rule:nonzero;fill:rgb(100%,39.607843%,51.764706%);fill-opacity:1;" d="M 472.9375 229.417969 C 472.9375 229.417969 474.035156 228.277344 474.011719 227.15625 "/>
<path style=" stroke:none;fill-rule:nonzero;fill:rgb(100%,39.607843%,51.764706%);fill-opacity:1;" d="M 461.683594 219.902344 C 461.683594 219.902344 461.226562 218.386719 460.238281 217.859375 "/>
<path style=" stroke:none;fill-rule:nonzero;fill:rgb(100%,39.607843%,51.764706%);fill-opacity:1;" d="M 450.660156 199.363281 C 450.660156 199.363281 450.203125 197.847656 449.214844 197.316406 "/>
<path style=" stroke:none;fill-rule:nonzero;fill:rgb(100%,39.607843%,51.764706%);fill-opacity:1;" d="M 463.6875 226.917969 C 463.6875 226.917969 463.230469 225.402344 462.242188 224.871094 "/>
<path style=" stroke:none;fill-rule:nonzero;fill:rgb(100%,39.607843%,51.764706%);fill-opacity:1;" d="M 462.183594 202.371094 C 462.183594 202.371094 461.726562 200.851562 460.738281 200.324219 "/>
<path style=" stroke:none;fill-rule:nonzero;fill:rgb(100%,39.607843%,51.764706%);fill-opacity:1;" d="M 459.179688 211.386719 C 459.179688 211.386719 458.71875 209.871094 457.734375 209.34375 "/>
<path style=" stroke:none;fill-rule:nonzero;fill:rgb(100%,39.607843%,51.764706%);fill-opacity:1;" d="M 471.933594 244.949219 C 471.933594 244.949219 473.035156 243.808594 473.011719 242.6875 "/>
<path style=" stroke:none;fill-rule:nonzero;fill:rgb(100%,39.607843%,51.764706%);fill-opacity:1;" d="M 473.9375 236.433594 C 473.9375 236.433594 475.039062 235.292969 475.015625 234.171875 "/>
<path style=" stroke:none;fill-rule:nonzero;fill:rgb(100%,39.607843%,51.764706%);fill-opacity:1;" d="M 448.195312 239.007812 L 460.21875 235 L 460.378906 235.476562 L 448.355469 239.484375 Z M 448.195312 239.007812 "/>
<path style=" stroke:none;fill-rule:nonzero;fill:rgb(100%,39.607843%,51.764706%);fill-opacity:1;" d="M 459.347656 235.480469 C 459.800781 237.242188 459.042969 236.820312 458.351562 236.964844 C 457.660156 237.105469 457.796875 237.742188 456.84375 235.996094 C 456.1875 234.789062 457.152344 234.65625 457.84375 234.511719 C 458.535156 234.367188 459.039062 234.273438 459.347656 235.480469 Z M 459.347656 235.480469 "/>
<use xlink:href="#surface11" mask="url(#mask2)"/>
<path style=" stroke:none;fill-rule:nonzero;fill:rgb(94.901961%,94.901961%,94.901961%);fill-opacity:1;" d="M 181.25 46.363281 C 181.25 53.835938 175.195312 59.890625 167.722656 59.890625 C 160.253906 59.890625 154.199219 53.835938 154.199219 46.363281 C 154.199219 38.894531 160.253906 32.835938 167.722656 32.835938 C 175.195312 32.835938 181.25 38.894531 181.25 46.363281 Z M 181.25 46.363281 "/>
</g>
</svg>
