<?xml version="1.0" encoding="UTF-8"?>
<svg xmlns="http://www.w3.org/2000/svg" xmlns:xlink="http://www.w3.org/1999/xlink" width="418pt" height="277pt" viewBox="0 0 418 277" version="1.1">
<defs>
<filter id="alpha" filterUnits="objectBoundingBox" x="0%" y="0%" width="100%" height="100%">
  <feColorMatrix type="matrix" in="SourceGraphic" values="0 0 0 0 1 0 0 0 0 1 0 0 0 0 1 0 0 0 1 0"/>
</filter>
<mask id="mask0">
  <g filter="url(#alpha)">
<rect x="0" y="0" width="418" height="277" style="fill:rgb(0%,0%,0%);fill-opacity:0.101961;stroke:none;"/>
  </g>
</mask>
<clipPath id="clip1">
  <rect x="0" y="0" width="418" height="277"/>
</clipPath>
<g id="surface5" clip-path="url(#clip1)">
<path style=" stroke:none;fill-rule:nonzero;fill:rgb(0%,0%,0%);fill-opacity:1;" d="M 160.9375 66.136719 C 160.9375 66.136719 154.378906 68.78125 153.617188 76.1875 C 152.855469 83.597656 152.792969 125.386719 152.792969 125.386719 C 152.792969 125.386719 169.9375 115.5 179.15625 115.300781 C 188.371094 115.097656 209.785156 99.519531 209.785156 99.519531 C 209.785156 99.519531 169.441406 63.015625 160.9375 66.136719 Z M 160.9375 66.136719 "/>
</g>
<mask id="mask1">
  <g filter="url(#alpha)">
<rect x="0" y="0" width="418" height="277" style="fill:rgb(0%,0%,0%);fill-opacity:0.101961;stroke:none;"/>
  </g>
</mask>
<clipPath id="clip2">
  <rect x="0" y="0" width="418" height="277"/>
</clipPath>
<g id="surface8" clip-path="url(#clip2)">
<path style=" stroke:none;fill-rule:nonzero;fill:rgb(0%,0%,0%);fill-opacity:1;" d="M 170.25 106.941406 C 171.0625 110.773438 171.519531 114.671875 171.613281 118.589844 C 168.121094 119.226562 164.964844 119.457031 162.75 118.964844 C 153.75 116.960938 134.75 122.472656 134.75 122.472656 C 134.75 122.472656 144.75 81.898438 147.25 74.886719 C 148.457031 71.503906 151.078125 68.820312 154.429688 67.546875 C 161.050781 69.480469 172.285156 78.011719 173.25 81.398438 C 174.25 84.902344 170.25 106.941406 170.25 106.941406 Z M 170.25 106.941406 "/>
</g>
<mask id="mask2">
  <g filter="url(#alpha)">
<rect x="0" y="0" width="418" height="277" style="fill:rgb(0%,0%,0%);fill-opacity:0.101961;stroke:none;"/>
  </g>
</mask>
<clipPath id="clip3">
  <rect x="0" y="0" width="418" height="277"/>
</clipPath>
<g id="surface11" clip-path="url(#clip3)">
<path style=" stroke:none;fill-rule:nonzero;fill:rgb(0%,0%,0%);fill-opacity:1;" d="M 196.25 110.949219 C 196.25 110.949219 189.660156 113.644531 182.058594 115.964844 L 175.25 108.945312 L 193.25 106.941406 L 193.695312 107.253906 C 195.304688 109.550781 196.25 110.949219 196.25 110.949219 Z M 196.25 110.949219 "/>
</g>
<mask id="mask3">
  <g filter="url(#alpha)">
<rect x="0" y="0" width="418" height="277" style="fill:rgb(0%,0%,0%);fill-opacity:0.101961;stroke:none;"/>
  </g>
</mask>
<clipPath id="clip4">
  <rect x="0" y="0" width="418" height="277"/>
</clipPath>
<g id="surface14" clip-path="url(#clip4)">
<path style=" stroke:none;fill-rule:nonzero;fill:rgb(0%,0%,0%);fill-opacity:1;" d="M 348.703125 193.035156 L 253.296875 193.035156 L 245.273438 155.519531 L 356.726562 155.519531 Z M 348.703125 193.035156 "/>
</g>
</defs>
<g id="surface1">
<path style=" stroke:none;fill-rule:nonzero;fill:rgb(24.705882%,23.921569%,33.72549%);fill-opacity:1;" d="M 0 269.777344 L 418 269.777344 L 418 270.777344 L 0 270.777344 Z M 0 269.777344 "/>
<path style=" stroke:none;fill-rule:nonzero;fill:rgb(24.705882%,23.921569%,33.72549%);fill-opacity:1;" d="M 46 189.339844 L 146.5 189.339844 L 146.5 270.488281 L 46 270.488281 Z M 46 189.339844 "/>
<path style=" stroke:none;fill-rule:nonzero;fill:rgb(38.823529%,59.607843%,100%);fill-opacity:1;" d="M 82.5 246.945312 L 99.5 246.945312 L 99.5 269.988281 L 82.5 269.988281 Z M 82.5 246.945312 "/>
<path style=" stroke:none;fill-rule:nonzero;fill:rgb(62.745098%,38.039216%,41.568627%);fill-opacity:1;" d="M 292.5 137.246094 C 289.242188 144.160156 261.773438 135.222656 261.773438 135.222656 L 209.335938 118.710938 L 196.332031 110.566406 L 188.050781 105.375 L 205.054688 99.132812 L 205.5625 99.328125 L 218.132812 104.171875 L 266.773438 128.320312 C 266.773438 128.320312 301 119.214844 292.5 137.246094 Z M 292.5 137.246094 "/>
<path style=" stroke:none;fill-rule:nonzero;fill:rgb(81.568627%,80.392157%,88.235294%);fill-opacity:1;" d="M 160.9375 66.136719 C 160.9375 66.136719 154.378906 68.78125 153.617188 76.1875 C 152.855469 83.597656 152.792969 125.386719 152.792969 125.386719 C 152.792969 125.386719 169.9375 115.5 179.15625 115.300781 C 188.371094 115.097656 209.785156 99.519531 209.785156 99.519531 C 209.785156 99.519531 169.441406 63.015625 160.9375 66.136719 Z M 160.9375 66.136719 "/>
<use xlink:href="#surface5" mask="url(#mask0)"/>
<path style=" stroke:none;fill-rule:nonzero;fill:rgb(24.705882%,23.921569%,33.72549%);fill-opacity:1;" d="M 301.65625 127.714844 L 301.402344 127.199219 C 301.328125 127.042969 293.808594 111.300781 298 95.777344 C 302.191406 80.253906 316.609375 70.457031 316.753906 70.359375 L 317.230469 70.039062 L 317.480469 70.554688 C 317.554688 70.710938 325.074219 86.457031 320.882812 101.976562 C 316.691406 117.5 302.277344 127.300781 302.132812 127.398438 Z M 316.824219 71.535156 C 314.300781 73.371094 302.625 82.484375 298.964844 96.039062 C 295.304688 109.605469 300.804688 123.359375 302.058594 126.222656 C 304.582031 124.382812 316.257812 115.269531 319.917969 101.71875 C 323.578125 88.152344 318.078125 74.394531 316.824219 71.535156 Z M 316.824219 71.535156 "/>
<path style=" stroke:none;fill-rule:nonzero;fill:rgb(38.823529%,59.607843%,100%);fill-opacity:1;" d="M 282.273438 101.847656 C 286.464844 117.367188 300.820312 126.980469 300.820312 126.980469 C 300.820312 126.980469 308.378906 111.429688 304.1875 95.910156 C 299.996094 80.386719 285.640625 70.773438 285.640625 70.773438 C 285.640625 70.773438 278.082031 86.328125 282.273438 101.847656 Z M 282.273438 101.847656 "/>
<path style=" stroke:none;fill-rule:nonzero;fill:rgb(24.705882%,23.921569%,33.72549%);fill-opacity:1;" d="M 301.882812 127.5 L 301.308594 127.46875 C 301.132812 127.457031 283.746094 126.386719 272.246094 115.167969 C 260.742188 103.953125 259.207031 86.570312 259.191406 86.394531 L 259.144531 85.820312 L 259.714844 85.851562 C 259.890625 85.863281 277.277344 86.9375 288.78125 98.152344 C 300.28125 109.371094 301.820312 126.753906 301.835938 126.925781 Z M 260.25 86.902344 C 260.628906 90.003906 262.898438 104.65625 272.941406 114.449219 C 282.988281 124.246094 297.667969 126.125 300.773438 126.417969 C 300.394531 123.316406 298.125 108.664062 288.082031 98.871094 C 278.03125 89.070312 263.355469 87.195312 260.25 86.902344 Z M 260.25 86.902344 "/>
<path style=" stroke:none;fill-rule:nonzero;fill:rgb(24.705882%,23.921569%,33.72549%);fill-opacity:1;" d="M 314.242188 98.511719 C 302.742188 109.726562 301.335938 126.96875 301.335938 126.96875 C 301.335938 126.96875 318.578125 126.023438 330.078125 114.808594 C 341.578125 103.59375 342.984375 86.355469 342.984375 86.355469 C 342.984375 86.355469 325.742188 87.296875 314.242188 98.511719 Z M 314.242188 98.511719 "/>
<path style=" stroke:none;fill-rule:nonzero;fill:rgb(38.823529%,59.607843%,100%);fill-opacity:1;" d="M 308.597656 60.699219 C 308.597656 64.851562 305.238281 68.214844 301.097656 68.214844 C 296.953125 68.214844 293.597656 64.851562 293.597656 60.699219 C 293.597656 56.550781 296.953125 53.1875 301.097656 53.1875 C 305.238281 53.1875 308.597656 56.550781 308.597656 60.699219 Z M 308.597656 60.699219 "/>
<path style=" stroke:none;fill-rule:nonzero;fill:rgb(81.568627%,80.392157%,88.235294%);fill-opacity:1;" d="M 283.40625 123.722656 L 320.59375 123.722656 C 325.238281 123.722656 329 127.492188 329 132.144531 L 329 141.351562 C 329 146 325.238281 149.769531 320.59375 149.769531 L 283.40625 149.769531 C 278.761719 149.769531 275 146 275 141.351562 L 275 132.144531 C 275 127.492188 278.761719 123.722656 283.40625 123.722656 Z M 283.40625 123.722656 "/>
<path style=" stroke:none;fill-rule:nonzero;fill:rgb(18.431373%,18.039216%,25.490196%);fill-opacity:1;" d="M 199.820312 40.574219 C 199.820312 54.191406 188.800781 65.230469 175.207031 65.230469 C 161.613281 65.230469 150.597656 54.191406 150.597656 40.574219 C 150.597656 26.957031 161.613281 15.917969 175.207031 15.917969 C 188.800781 15.917969 199.820312 26.957031 199.820312 40.574219 Z M 199.820312 40.574219 "/>
<path style=" stroke:none;fill-rule:nonzero;fill:rgb(62.745098%,38.039216%,41.568627%);fill-opacity:1;" d="M 225.25 202.867188 L 211.25 203.867188 C 211.25 203.867188 210.820312 230.183594 209 236.925781 L 233 255.960938 L 228 239.933594 Z M 225.25 202.867188 "/>
<path style=" stroke:none;fill-rule:nonzero;fill:rgb(18.431373%,18.039216%,25.490196%);fill-opacity:1;" d="M 234.359375 256.507812 C 233.363281 256.15625 233.5 255.960938 233.5 255.960938 L 233.5 254.960938 L 209.039062 235.292969 C 208.800781 236.175781 208.539062 236.753906 208.25 236.925781 C 207.351562 237.46875 206.070312 239.230469 204.792969 241.273438 C 201.785156 246.113281 201.039062 252.027344 202.75 257.464844 L 201.75 274.496094 L 205.75 274.496094 L 206.75 258.96875 L 211.75 258.96875 C 211.75 258.96875 220.25 269.988281 222.75 273.996094 C 225.25 278 236.25 279.003906 247.25 271.488281 C 256.542969 265.140625 239.78125 258.433594 234.359375 256.507812 Z M 234.359375 256.507812 "/>
<path style=" stroke:none;fill-rule:nonzero;fill:rgb(62.745098%,38.039216%,41.568627%);fill-opacity:1;" d="M 191.25 52.34375 C 191.25 61.195312 184.085938 68.375 175.25 68.375 C 166.414062 68.375 159.25 61.195312 159.25 52.34375 C 159.25 43.492188 166.414062 36.316406 175.25 36.316406 C 184.085938 36.316406 191.25 43.492188 191.25 52.34375 Z M 191.25 52.34375 "/>
<path style=" stroke:none;fill-rule:nonzero;fill:rgb(62.745098%,38.039216%,41.568627%);fill-opacity:1;" d="M 184 61.109375 L 175.5 89.660156 L 155 74.632812 C 155 74.632812 165.5 63.113281 165.5 60.109375 C 165.5 57.101562 184 61.109375 184 61.109375 Z M 184 61.109375 "/>
<path style=" stroke:none;fill-rule:nonzero;fill:rgb(18.431373%,18.039216%,25.490196%);fill-opacity:1;" d="M 102.25 143.507812 C 102.25 143.507812 77.75 173.0625 101.25 191.09375 C 111.589844 199.03125 120.671875 214.042969 127.601562 228.371094 C 138.605469 251.242188 159.171875 268.046875 183.75 274.246094 C 183.75 274.246094 267.25 176.570312 238.75 149.019531 C 210.25 121.46875 133.25 145.511719 133.25 145.511719 Z M 102.25 143.507812 "/>
<path style=" stroke:none;fill-rule:nonzero;fill:rgb(81.568627%,80.392157%,88.235294%);fill-opacity:1;" d="M 171.613281 118.589844 C 171.726562 125.1875 170.464844 132.429688 164.75 133.992188 C 153.75 136.996094 152.75 135.496094 152.75 135.496094 C 152.75 135.496094 150.75 139 151.25 143.007812 C 151.75 147.015625 146.5 143.757812 146.5 143.757812 C 146.5 143.757812 93.25 150.523438 95.25 143.007812 C 97.25 135.496094 116.25 109.449219 116.25 109.449219 C 116.25 109.449219 147.25 65.867188 153.75 67.371094 C 153.96875 67.421875 154.195312 67.480469 154.429688 67.546875 C 161.050781 69.480469 172.285156 78.011719 173.25 81.398438 C 174.25 84.902344 170.25 106.941406 170.25 106.941406 C 171.0625 110.773438 171.519531 114.671875 171.613281 118.589844 Z M 171.613281 118.589844 "/>
<path style=" stroke:none;fill-rule:nonzero;fill:rgb(18.431373%,18.039216%,25.490196%);fill-opacity:1;" d="M 186.671875 8.191406 C 186.671875 12.714844 183.011719 16.378906 178.496094 16.378906 C 173.980469 16.378906 170.320312 12.714844 170.320312 8.191406 C 170.320312 3.667969 173.980469 0 178.496094 0 C 183.011719 0 186.671875 3.667969 186.671875 8.191406 Z M 186.671875 8.191406 "/>
<path style=" stroke:none;fill-rule:nonzero;fill:rgb(18.431373%,18.039216%,25.490196%);fill-opacity:1;" d="M 187.695312 13.261719 C 190.304688 9.96875 190.003906 5.234375 186.996094 2.300781 C 187.222656 2.445312 187.449219 2.605469 187.664062 2.777344 C 189.957031 4.597656 191.105469 7.503906 190.675781 10.402344 C 190.25 13.296875 188.308594 15.746094 185.585938 16.820312 C 182.867188 17.894531 179.78125 17.429688 177.496094 15.605469 C 177.277344 15.433594 177.070312 15.25 176.878906 15.0625 C 180.410156 17.332031 185.082031 16.554688 187.695312 13.261719 Z M 187.695312 13.261719 "/>
<path style=" stroke:none;fill-rule:nonzero;fill:rgb(18.431373%,18.039216%,25.490196%);fill-opacity:1;" d="M 179.707031 29.109375 C 189.011719 31.640625 195.359375 38.101562 193.882812 43.539062 C 193.222656 45.972656 191.105469 47.785156 188.136719 48.820312 L 185.53125 45.582031 L 185.414062 49.511719 C 185 49.582031 184.582031 49.644531 184.152344 49.691406 L 180.839844 42.707031 L 178.953125 49.664062 C 177.40625 49.5 175.871094 49.210938 174.367188 48.800781 C 165.0625 46.265625 158.714844 39.804688 160.1875 34.367188 C 161.664062 28.929688 170.402344 26.574219 179.707031 29.109375 Z M 179.707031 29.109375 "/>
<path style=" stroke:none;fill-rule:nonzero;fill:rgb(62.745098%,38.039216%,41.568627%);fill-opacity:1;" d="M 250.25 180.074219 C 243.75 184.082031 239.75 155.53125 239.75 155.53125 L 192.75 126.980469 L 182.058594 115.964844 L 175.25 108.945312 L 193.25 106.941406 L 193.695312 107.253906 L 204.75 114.957031 L 246.25 150.019531 C 246.25 150.019531 256.75 176.066406 250.25 180.074219 Z M 250.25 180.074219 "/>
<use xlink:href="#surface8" mask="url(#mask1)"/>
<use xlink:href="#surface11" mask="url(#mask2)"/>
<path style=" stroke:none;fill-rule:nonzero;fill:rgb(81.568627%,80.392157%,88.235294%);fill-opacity:1;" d="M 158.25 64.367188 C 158.25 64.367188 151.25 65.367188 148.75 72.378906 C 146.25 79.394531 136.25 119.964844 136.25 119.964844 C 136.25 119.964844 155.25 114.457031 164.25 116.460938 C 173.25 118.464844 197.75 108.445312 197.75 108.445312 C 197.75 108.445312 167.25 63.363281 158.25 64.367188 Z M 158.25 64.367188 "/>
<path style=" stroke:none;fill-rule:nonzero;fill:rgb(24.705882%,23.921569%,33.72549%);fill-opacity:1;" d="M 346.917969 191.25 L 349.59375 184.101562 L 374.558594 169.8125 L 391.5 166.238281 Z M 346.917969 191.25 "/>
<path style=" stroke:none;fill-rule:nonzero;fill:rgb(24.705882%,23.921569%,33.72549%);fill-opacity:1;" d="M 255.082031 191.25 L 252.40625 184.101562 L 227.441406 169.8125 L 210.5 166.238281 Z M 255.082031 191.25 "/>
<path style=" stroke:none;fill-rule:nonzero;fill:rgb(24.705882%,23.921569%,33.72549%);fill-opacity:1;" d="M 348.703125 193.035156 L 253.296875 193.035156 L 245.273438 155.519531 L 356.726562 155.519531 Z M 348.703125 193.035156 "/>
<use xlink:href="#surface14" mask="url(#mask3)"/>
<path style=" stroke:none;fill-rule:nonzero;fill:rgb(24.705882%,23.921569%,33.72549%);fill-opacity:1;" d="M 252.851562 190.800781 L 349.148438 190.800781 L 349.148438 270 L 252.851562 270 Z M 252.851562 190.800781 "/>
<path style=" stroke:none;fill-rule:nonzero;fill:rgb(38.823529%,59.607843%,100%);fill-opacity:1;" d="M 292.5 246.445312 L 309.5 246.445312 L 309.5 269.488281 L 292.5 269.488281 Z M 292.5 246.445312 "/>
</g>
</svg>
