<?xml version="1.0" encoding="UTF-8"?>
<svg xmlns="http://www.w3.org/2000/svg" xmlns:xlink="http://www.w3.org/1999/xlink" width="433pt" height="325pt" viewBox="0 0 433 325" version="1.1">
<g id="surface1">
<path style=" stroke:none;fill-rule:nonzero;fill:rgb(90.196078%,90.196078%,90.196078%);fill-opacity:1;" d="M 203 315.335938 C 203 320.304688 157.5 320.835938 101.5 324.335938 C 45.550781 327.832031 0 320.304688 0 315.335938 C 0 310.363281 45.761719 300.363281 101.5 306.335938 C 157.5 312.335938 203 310.363281 203 315.335938 Z M 203 315.335938 "/>
<path style=" stroke:none;fill-rule:nonzero;fill:rgb(24.705882%,23.921569%,33.72549%);fill-opacity:1;" d="M 417.023438 0 L 296.714844 0 C 284.757812 0 274.394531 8.285156 271.765625 19.949219 L 210.976562 289.585938 C 209.632812 295.539062 210.992188 301.78125 214.683594 306.636719 C 218.375 311.496094 224.027344 314.476562 230.121094 314.777344 L 353.800781 320.871094 C 367.5 321.542969 379.574219 311.953125 382.015625 298.457031 L 416.5 107.820312 L 419.0625 108.554688 L 425.660156 72.421875 L 423.019531 71.761719 L 432.648438 18.550781 C 433.480469 13.933594 432.214844 9.1875 429.195312 5.601562 C 426.171875 2.015625 421.710938 -0.0390625 417.023438 0 Z M 417.023438 0 "/>
<path style=" stroke:none;fill-rule:nonzero;fill:rgb(100%,100%,100%);fill-opacity:1;" d="M 312.550781 5.8125 L 298.507812 5.8125 C 290.199219 5.8125 283.011719 11.601562 281.242188 19.71875 L 222.890625 287.152344 C 222.210938 290.269531 222.921875 293.527344 224.839844 296.074219 C 226.757812 298.621094 229.691406 300.207031 232.875 300.417969 L 356.152344 308.496094 C 363.351562 308.96875 369.757812 303.957031 371.039062 296.855469 L 420.828125 20.4375 C 421.480469 16.816406 420.492188 13.089844 418.132812 10.269531 C 415.773438 7.445312 412.28125 5.8125 408.601562 5.8125 L 395.28125 5.8125 C 392.628906 5.8125 390.308594 7.59375 389.617188 10.152344 C 389.011719 12.410156 386.960938 13.980469 384.621094 13.980469 L 321.375 13.980469 C 316.75 13.980469 312.90625 10.421875 312.550781 5.8125 Z M 312.550781 5.8125 "/>
<path style=" stroke:none;fill-rule:nonzero;fill:rgb(62.745098%,38.039216%,41.568627%);fill-opacity:1;" d="M 180.59375 143.371094 L 191.464844 164.890625 L 223.964844 179.667969 C 227.433594 185.53125 238.464844 185.980469 239.265625 182.1875 C 240.164062 177.933594 225.875 171.082031 225.875 171.082031 L 198.6875 152.695312 L 196.3125 136.867188 Z M 180.59375 143.371094 "/>
<path style=" stroke:none;fill-rule:nonzero;fill:rgb(62.745098%,38.039216%,41.568627%);fill-opacity:1;" d="M 181.875 287.78125 L 179.871094 303.816406 L 191.5 304.617188 L 192.699219 287.78125 Z M 181.875 287.78125 "/>
<path style=" stroke:none;fill-rule:nonzero;fill:rgb(18.431373%,18.039216%,25.490196%);fill-opacity:1;" d="M 183.480469 301.410156 C 182.441406 300.3125 181.480469 299.140625 180.613281 297.902344 C 178.945312 295.597656 177.464844 307.425781 177.464844 307.425781 C 177.464844 307.425781 175.863281 312.234375 176.265625 314.640625 C 176.664062 317.046875 185.886719 317.046875 187.488281 316.644531 C 189.09375 316.246094 197.113281 316.644531 197.113281 316.644531 L 209.136719 316.644531 C 219.5625 311.835938 209.136719 308.628906 209.136719 308.628906 C 205.929688 308.226562 195.105469 298.203125 195.105469 298.203125 L 192.703125 293.792969 C 191.097656 293.390625 189.492188 299.40625 189.492188 299.40625 Z M 183.480469 301.410156 "/>
<path style=" stroke:none;fill-rule:nonzero;fill:rgb(62.745098%,38.039216%,41.568627%);fill-opacity:1;" d="M 151.808594 287.980469 L 149.804688 304.015625 L 161.429688 304.820312 L 162.632812 287.980469 Z M 151.808594 287.980469 "/>
<path style=" stroke:none;fill-rule:nonzero;fill:rgb(18.431373%,18.039216%,25.490196%);fill-opacity:1;" d="M 153.410156 301.609375 C 152.371094 300.511719 151.414062 299.339844 150.542969 298.101562 C 148.875 295.796875 147.398438 307.625 147.398438 307.625 C 147.398438 307.625 145.792969 312.035156 146.195312 314.441406 C 146.597656 316.84375 155.816406 316.84375 157.421875 316.445312 C 159.023438 316.042969 167.042969 316.84375 167.042969 316.84375 L 179.070312 316.84375 C 189.492188 312.035156 179.070312 308.828125 179.070312 308.828125 C 175.863281 308.425781 165.039062 298.402344 165.039062 298.402344 L 162.632812 293.992188 C 161.03125 293.59375 159.425781 299.605469 159.425781 299.605469 Z M 153.410156 301.609375 "/>
<path style=" stroke:none;fill-rule:nonzero;fill:rgb(18.431373%,18.039216%,25.490196%);fill-opacity:1;" d="M 165.039062 184.546875 C 163.433594 186.550781 164.238281 193.363281 164.238281 193.363281 C 164.238281 193.363281 161.429688 215.414062 162.632812 217.417969 C 163.835938 219.425781 161.832031 221.027344 160.628906 223.835938 C 159.425781 226.640625 158.222656 233.457031 158.222656 233.457031 C 151.40625 239.070312 151.808594 264.726562 151.808594 264.726562 L 149.402344 287.578125 C 150.203125 289.984375 161.429688 290.386719 163.035156 289.984375 C 164.636719 289.582031 169.449219 253.5 169.449219 253.5 L 180.273438 233.054688 C 180.273438 233.054688 179.472656 287.578125 179.472656 289.984375 C 179.472656 292.390625 190.296875 291.1875 192.703125 291.1875 C 195.105469 291.1875 195.105469 251.097656 195.105469 251.097656 L 197.511719 240.671875 L 210.339844 192.964844 L 210.339844 187.351562 L 208.335938 184.546875 C 208.335938 184.546875 166.640625 182.539062 165.039062 184.546875 Z M 165.039062 184.546875 "/>
<path style=" stroke:none;fill-rule:nonzero;fill:rgb(62.745098%,38.039216%,41.568627%);fill-opacity:1;" d="M 195.105469 81.109375 C 195.105469 87.972656 189.542969 93.539062 182.679688 93.539062 C 175.816406 93.539062 170.25 87.972656 170.25 81.109375 C 170.25 74.246094 175.816406 68.683594 182.679688 68.683594 C 189.542969 68.683594 195.105469 74.246094 195.105469 81.109375 Z M 195.105469 81.109375 "/>
<path style=" stroke:none;fill-rule:nonzero;fill:rgb(62.745098%,38.039216%,41.568627%);fill-opacity:1;" d="M 188.894531 86.921875 C 186.375 92.53125 187.863281 100.367188 192.902344 108.972656 L 172.457031 99.351562 L 175.664062 96.546875 L 174.859375 88.527344 Z M 188.894531 86.921875 "/>
<path style=" stroke:none;fill-rule:nonzero;fill:rgb(38.823529%,59.607843%,100%);fill-opacity:1;" d="M 188.894531 99.753906 C 191.570312 101.34375 193.171875 104.269531 194.089844 107.246094 C 195.792969 112.753906 196.816406 118.453125 197.140625 124.210938 L 198.113281 141.445312 L 210.140625 187.152344 C 199.71875 195.972656 193.703125 193.964844 179.671875 186.75 C 165.640625 179.535156 164.035156 189.15625 164.035156 189.15625 C 164.035156 189.15625 162.832031 188.753906 164.035156 187.550781 C 165.238281 186.347656 164.035156 187.550781 162.832031 186.347656 C 161.628906 185.144531 162.832031 186.347656 163.234375 185.144531 C 163.636719 183.945312 163.234375 184.746094 162.832031 184.34375 C 162.433594 183.945312 164.4375 180.335938 164.4375 180.335938 L 161.230469 150.265625 L 157.222656 107.769531 C 162.03125 101.757812 175.664062 96.546875 175.664062 96.546875 L 188.089844 105.363281 C 192.101562 106.96875 188.894531 100.554688 188.894531 100.554688 Z M 188.894531 99.753906 "/>
<path style=" stroke:none;fill-rule:nonzero;fill:rgb(62.745098%,38.039216%,41.568627%);fill-opacity:1;" d="M 150.605469 133.226562 L 149.003906 157.28125 L 169.449219 186.550781 C 169.449219 193.363281 173.058594 194.96875 173.058594 194.96875 C 174.421875 192.789062 175.628906 190.507812 176.664062 188.152344 C 178.667969 183.742188 175.460938 180.136719 175.460938 180.136719 L 161.429688 150.46875 L 167.445312 135.632812 Z M 150.605469 133.226562 "/>
<path style=" stroke:none;fill-rule:nonzero;fill:rgb(38.823529%,59.607843%,100%);fill-opacity:1;" d="M 157.421875 107.972656 C 150.605469 110.375 149.402344 136.4375 149.402344 136.4375 C 157.421875 132.027344 167.042969 139.242188 167.042969 139.242188 C 167.042969 139.242188 169.046875 132.425781 171.453125 123.605469 C 172.929688 118.5625 171.71875 113.117188 168.246094 109.175781 C 168.246094 109.175781 164.238281 105.566406 157.421875 107.972656 Z M 157.421875 107.972656 "/>
<path style=" stroke:none;fill-rule:nonzero;fill:rgb(18.431373%,18.039216%,25.490196%);fill-opacity:1;" d="M 171.253906 84.917969 C 172.835938 83.652344 174.992188 85.953125 174.992188 85.953125 L 176.257812 74.5625 C 176.257812 74.5625 184.167969 75.511719 189.234375 74.246094 C 194.296875 72.980469 195.085938 78.835938 195.085938 78.835938 C 195.347656 76.46875 195.402344 74.085938 195.246094 71.714844 C 194.929688 68.867188 190.816406 66.019531 183.535156 64.121094 C 176.257812 62.222656 172.460938 70.449219 172.460938 70.449219 C 167.398438 72.980469 169.671875 86.183594 171.253906 84.917969 Z M 171.253906 84.917969 "/>
<path style=" stroke:none;fill-rule:nonzero;fill:rgb(90.196078%,90.196078%,90.196078%);fill-opacity:1;" d="M 382.511719 192.773438 C 383.011719 192.792969 383.449219 192.445312 383.542969 191.953125 L 411.1875 41.496094 C 411.238281 41.207031 411.164062 40.90625 410.976562 40.679688 C 410.789062 40.453125 410.507812 40.316406 410.214844 40.316406 L 284.453125 38.847656 L 284.441406 38.847656 C 283.972656 38.851562 283.570312 39.175781 283.464844 39.628906 L 250.878906 185.207031 C 250.8125 185.492188 250.878906 185.792969 251.058594 186.03125 C 251.238281 186.265625 251.511719 186.40625 251.804688 186.421875 Z M 382.511719 192.773438 "/>
<path style=" stroke:none;fill-rule:nonzero;fill:rgb(90.196078%,90.196078%,90.196078%);fill-opacity:1;" d="M 273.066406 202.382812 C 272.832031 202.382812 272.632812 202.542969 272.578125 202.769531 L 271.417969 207.746094 C 271.382812 207.890625 271.414062 208.039062 271.503906 208.15625 C 271.589844 208.277344 271.722656 208.351562 271.867188 208.359375 L 337.484375 213.023438 C 337.734375 213.039062 337.960938 212.867188 338.011719 212.621094 L 339.128906 206.859375 C 339.15625 206.71875 339.121094 206.574219 339.03125 206.460938 C 338.941406 206.34375 338.808594 206.277344 338.667969 206.265625 L 273.09375 202.382812 C 273.085938 202.382812 273.074219 202.382812 273.066406 202.382812 Z M 273.066406 202.382812 "/>
<path style=" stroke:none;fill-rule:nonzero;fill:rgb(90.196078%,90.196078%,90.196078%);fill-opacity:1;" d="M 352.785156 231.519531 C 353.027344 231.539062 353.25 231.378906 353.308594 231.140625 L 354.730469 225.371094 C 354.765625 225.226562 354.734375 225.074219 354.648438 224.957031 C 354.5625 224.835938 354.425781 224.761719 354.28125 224.75 L 270.488281 218.890625 C 270.25 218.871094 270.035156 219.019531 269.972656 219.246094 L 268.496094 224.234375 C 268.453125 224.378906 268.476562 224.535156 268.5625 224.660156 C 268.648438 224.785156 268.785156 224.863281 268.933594 224.875 Z M 352.785156 231.519531 "/>
<path style=" stroke:none;fill-rule:nonzero;fill:rgb(90.196078%,90.196078%,90.196078%);fill-opacity:1;" d="M 348.285156 250.019531 C 348.527344 250.039062 348.75 249.878906 348.808594 249.640625 L 350.230469 243.871094 C 350.265625 243.726562 350.234375 243.574219 350.148438 243.457031 C 350.0625 243.335938 349.925781 243.261719 349.78125 243.25 L 265.988281 237.390625 C 265.75 237.371094 265.535156 237.519531 265.472656 237.746094 L 263.996094 242.734375 C 263.953125 242.878906 263.976562 243.035156 264.0625 243.160156 C 264.148438 243.285156 264.285156 243.363281 264.433594 243.375 Z M 348.285156 250.019531 "/>
<path style=" stroke:none;fill-rule:nonzero;fill:rgb(38.823529%,59.607843%,100%);fill-opacity:1;" d="M 309.691406 281.757812 C 309.9375 281.78125 310.164062 281.621094 310.222656 281.378906 L 313.230469 269.355469 C 313.265625 269.210938 313.238281 269.0625 313.152344 268.941406 C 313.066406 268.824219 312.933594 268.746094 312.785156 268.734375 L 261.328125 264.40625 C 261.082031 264.390625 260.855469 264.554688 260.796875 264.796875 L 258.234375 276.335938 C 258.203125 276.476562 258.234375 276.625 258.316406 276.742188 C 258.402344 276.855469 258.53125 276.929688 258.675781 276.945312 Z M 309.691406 281.757812 "/>
</g>
</svg>
