<?xml version="1.0" encoding="UTF-8"?>
<svg xmlns="http://www.w3.org/2000/svg" xmlns:xlink="http://www.w3.org/1999/xlink" width="221pt" height="121pt" viewBox="0 0 221 121" version="1.1">
<defs>
<filter id="alpha" filterUnits="objectBoundingBox" x="0%" y="0%" width="100%" height="100%">
  <feColorMatrix type="matrix" in="SourceGraphic" values="0 0 0 0 1 0 0 0 0 1 0 0 0 0 1 0 0 0 1 0"/>
</filter>
<mask id="mask0">
  <g filter="url(#alpha)">
<rect x="0" y="0" width="221" height="121" style="fill:rgb(0%,0%,0%);fill-opacity:0.2;stroke:none;"/>
  </g>
</mask>
<clipPath id="clip1">
  <rect x="0" y="0" width="221" height="121"/>
</clipPath>
<g id="surface5" clip-path="url(#clip1)">
<path style=" stroke:none;fill-rule:nonzero;fill:rgb(0%,0%,0%);fill-opacity:1;" d="M 28.246094 64.144531 C 28.246094 65.265625 27.339844 66.171875 26.222656 66.171875 C 25.105469 66.171875 24.199219 65.265625 24.199219 64.144531 "/>
</g>
<mask id="mask1">
  <g filter="url(#alpha)">
<rect x="0" y="0" width="221" height="121" style="fill:rgb(0%,0%,0%);fill-opacity:0.2;stroke:none;"/>
  </g>
</mask>
<clipPath id="clip2">
  <rect x="0" y="0" width="221" height="121"/>
</clipPath>
<g id="surface8" clip-path="url(#clip2)">
<path style=" stroke:none;fill-rule:nonzero;fill:rgb(0%,0%,0%);fill-opacity:1;" d="M 110.625 104.335938 C 89.675781 104.335938 71.640625 89.5 67.554688 68.902344 C 63.46875 48.304688 74.464844 27.679688 93.820312 19.640625 C 113.175781 11.605469 135.5 18.394531 147.140625 35.855469 C 158.78125 53.320312 156.492188 76.59375 141.679688 91.441406 C 133.460938 99.726562 122.28125 104.367188 110.625 104.335938 Z M 110.625 19.003906 C 87.90625 19.003906 69.417969 37.535156 69.417969 60.3125 C 69.417969 83.089844 87.90625 101.621094 110.625 101.621094 C 133.347656 101.621094 151.832031 83.089844 151.832031 60.3125 C 151.832031 37.535156 133.347656 19.003906 110.625 19.003906 Z M 110.625 19.003906 "/>
</g>
<mask id="mask2">
  <g filter="url(#alpha)">
<rect x="0" y="0" width="221" height="121" style="fill:rgb(0%,0%,0%);fill-opacity:0.2;stroke:none;"/>
  </g>
</mask>
<clipPath id="clip3">
  <rect x="0" y="0" width="221" height="121"/>
</clipPath>
<g id="surface11" clip-path="url(#clip3)">
<path style=" stroke:none;fill-rule:nonzero;fill:rgb(0%,0%,0%);fill-opacity:1;" d="M 80.316406 45.894531 L 79.761719 44.800781 C 82.53125 42.644531 85.78125 41.058594 89.386719 39.886719 L 89.941406 40.980469 C 86.042969 41.792969 82.722656 43.300781 80.316406 45.894531 Z M 80.316406 45.894531 "/>
</g>
<mask id="mask3">
  <g filter="url(#alpha)">
<rect x="0" y="0" width="221" height="121" style="fill:rgb(0%,0%,0%);fill-opacity:0.2;stroke:none;"/>
  </g>
</mask>
<clipPath id="clip4">
  <rect x="0" y="0" width="221" height="121"/>
</clipPath>
<g id="surface14" clip-path="url(#clip4)">
<path style=" stroke:none;fill-rule:nonzero;fill:rgb(0%,0%,0%);fill-opacity:1;" d="M 82.90625 50.992188 L 82.351562 49.898438 C 85.121094 47.742188 88.371094 46.15625 91.976562 44.984375 L 92.53125 46.078125 C 88.632812 46.890625 85.3125 48.398438 82.90625 50.992188 Z M 82.90625 50.992188 "/>
</g>
<mask id="mask4">
  <g filter="url(#alpha)">
<rect x="0" y="0" width="221" height="121" style="fill:rgb(0%,0%,0%);fill-opacity:0.2;stroke:none;"/>
  </g>
</mask>
<clipPath id="clip5">
  <rect x="0" y="0" width="221" height="121"/>
</clipPath>
<g id="surface17" clip-path="url(#clip5)">
<path style=" stroke:none;fill-rule:nonzero;fill:rgb(0%,0%,0%);fill-opacity:1;" d="M 85.496094 56.089844 L 84.941406 54.996094 C 87.710938 52.839844 90.960938 51.253906 94.566406 50.082031 L 95.121094 51.175781 C 91.222656 51.992188 87.902344 53.496094 85.496094 56.089844 Z M 85.496094 56.089844 "/>
</g>
<mask id="mask5">
  <g filter="url(#alpha)">
<rect x="0" y="0" width="221" height="121" style="fill:rgb(0%,0%,0%);fill-opacity:0.2;stroke:none;"/>
  </g>
</mask>
<clipPath id="clip6">
  <rect x="0" y="0" width="221" height="121"/>
</clipPath>
<g id="surface20" clip-path="url(#clip6)">
<path style=" stroke:none;fill-rule:nonzero;fill:rgb(0%,0%,0%);fill-opacity:1;" d="M 88.085938 61.1875 L 87.53125 60.097656 C 90.300781 57.9375 93.554688 56.351562 97.15625 55.183594 L 97.710938 56.273438 C 93.8125 57.089844 90.492188 58.597656 88.085938 61.1875 Z M 88.085938 61.1875 "/>
</g>
<mask id="mask6">
  <g filter="url(#alpha)">
<rect x="0" y="0" width="221" height="121" style="fill:rgb(0%,0%,0%);fill-opacity:0.2;stroke:none;"/>
  </g>
</mask>
<clipPath id="clip7">
  <rect x="0" y="0" width="221" height="121"/>
</clipPath>
<g id="surface23" clip-path="url(#clip7)">
<path style=" stroke:none;fill-rule:nonzero;fill:rgb(0%,0%,0%);fill-opacity:1;" d="M 90.675781 66.285156 L 90.121094 65.195312 C 92.890625 63.039062 96.144531 61.449219 99.746094 60.28125 L 100.300781 61.371094 C 96.402344 62.1875 93.082031 63.695312 90.675781 66.285156 Z M 90.675781 66.285156 "/>
</g>
<mask id="mask7">
  <g filter="url(#alpha)">
<rect x="0" y="0" width="221" height="121" style="fill:rgb(0%,0%,0%);fill-opacity:0.2;stroke:none;"/>
  </g>
</mask>
<clipPath id="clip8">
  <rect x="0" y="0" width="221" height="121"/>
</clipPath>
<g id="surface26" clip-path="url(#clip8)">
<path style=" stroke:none;fill-rule:nonzero;fill:rgb(0%,0%,0%);fill-opacity:1;" d="M 71.292969 54.753906 L 70.738281 53.664062 C 73.507812 51.503906 76.761719 49.917969 80.367188 48.75 L 80.921875 49.839844 C 77.019531 50.65625 73.699219 52.164062 71.292969 54.753906 Z M 71.292969 54.753906 "/>
</g>
<mask id="mask8">
  <g filter="url(#alpha)">
<rect x="0" y="0" width="221" height="121" style="fill:rgb(0%,0%,0%);fill-opacity:0.2;stroke:none;"/>
  </g>
</mask>
<clipPath id="clip9">
  <rect x="0" y="0" width="221" height="121"/>
</clipPath>
<g id="surface29" clip-path="url(#clip9)">
<path style=" stroke:none;fill-rule:nonzero;fill:rgb(0%,0%,0%);fill-opacity:1;" d="M 73.882812 59.855469 L 73.328125 58.761719 C 76.097656 56.605469 79.351562 55.015625 82.957031 53.847656 L 83.511719 54.9375 C 79.609375 55.753906 76.289062 57.261719 73.882812 59.855469 Z M 73.882812 59.855469 "/>
</g>
<mask id="mask9">
  <g filter="url(#alpha)">
<rect x="0" y="0" width="221" height="121" style="fill:rgb(0%,0%,0%);fill-opacity:0.2;stroke:none;"/>
  </g>
</mask>
<clipPath id="clip10">
  <rect x="0" y="0" width="221" height="121"/>
</clipPath>
<g id="surface32" clip-path="url(#clip10)">
<path style=" stroke:none;fill-rule:nonzero;fill:rgb(0%,0%,0%);fill-opacity:1;" d="M 76.472656 64.953125 L 75.917969 63.859375 C 78.6875 61.703125 81.941406 60.117188 85.546875 58.945312 L 86.101562 60.039062 C 82.199219 60.851562 78.878906 62.359375 76.472656 64.953125 Z M 76.472656 64.953125 "/>
</g>
<mask id="mask10">
  <g filter="url(#alpha)">
<rect x="0" y="0" width="221" height="121" style="fill:rgb(0%,0%,0%);fill-opacity:0.2;stroke:none;"/>
  </g>
</mask>
<clipPath id="clip11">
  <rect x="0" y="0" width="221" height="121"/>
</clipPath>
<g id="surface35" clip-path="url(#clip11)">
<path style=" stroke:none;fill-rule:nonzero;fill:rgb(0%,0%,0%);fill-opacity:1;" d="M 79.0625 70.050781 L 78.507812 68.957031 C 81.277344 66.800781 84.53125 65.214844 88.136719 64.042969 L 88.691406 65.136719 C 84.789062 65.949219 81.472656 67.457031 79.0625 70.050781 Z M 79.0625 70.050781 "/>
</g>
<mask id="mask11">
  <g filter="url(#alpha)">
<rect x="0" y="0" width="221" height="121" style="fill:rgb(0%,0%,0%);fill-opacity:0.2;stroke:none;"/>
  </g>
</mask>
<clipPath id="clip12">
  <rect x="0" y="0" width="221" height="121"/>
</clipPath>
<g id="surface38" clip-path="url(#clip12)">
<path style=" stroke:none;fill-rule:nonzero;fill:rgb(0%,0%,0%);fill-opacity:1;" d="M 81.652344 75.148438 L 81.097656 74.054688 C 83.867188 71.898438 87.121094 70.3125 90.726562 69.140625 L 91.28125 70.234375 C 87.378906 71.046875 84.0625 72.554688 81.652344 75.148438 Z M 81.652344 75.148438 "/>
</g>
<mask id="mask12">
  <g filter="url(#alpha)">
<rect x="0" y="0" width="221" height="121" style="fill:rgb(0%,0%,0%);fill-opacity:0.2;stroke:none;"/>
  </g>
</mask>
<clipPath id="clip13">
  <rect x="0" y="0" width="221" height="121"/>
</clipPath>
<g id="surface41" clip-path="url(#clip13)">
<path style=" stroke:none;fill-rule:nonzero;fill:rgb(0%,0%,0%);fill-opacity:1;" d="M 126.683594 72.53125 C 126.683594 73.816406 125.644531 74.859375 124.363281 74.859375 C 123.078125 74.859375 122.039062 73.816406 122.039062 72.53125 "/>
</g>
<mask id="mask13">
  <g filter="url(#alpha)">
<rect x="0" y="0" width="221" height="121" style="fill:rgb(0%,0%,0%);fill-opacity:0.2;stroke:none;"/>
  </g>
</mask>
<clipPath id="clip14">
  <rect x="0" y="0" width="221" height="121"/>
</clipPath>
<g id="surface44" clip-path="url(#clip14)">
<path style=" stroke:none;fill-rule:nonzero;fill:rgb(0%,0%,0%);fill-opacity:1;" d="M 122.039062 72.144531 C 122.039062 70.859375 123.078125 69.816406 124.363281 69.816406 C 125.644531 69.816406 126.683594 70.859375 126.683594 72.144531 "/>
</g>
<mask id="mask14">
  <g filter="url(#alpha)">
<rect x="0" y="0" width="221" height="121" style="fill:rgb(0%,0%,0%);fill-opacity:0.2;stroke:none;"/>
  </g>
</mask>
<clipPath id="clip15">
  <rect x="0" y="0" width="221" height="121"/>
</clipPath>
<g id="surface47" clip-path="url(#clip15)">
<path style=" stroke:none;fill-rule:nonzero;fill:rgb(0%,0%,0%);fill-opacity:1;" d="M 132.875 64.191406 C 132.875 65.476562 131.835938 66.519531 130.554688 66.519531 C 129.269531 66.519531 128.230469 65.476562 128.230469 64.191406 "/>
</g>
<mask id="mask15">
  <g filter="url(#alpha)">
<rect x="0" y="0" width="221" height="121" style="fill:rgb(0%,0%,0%);fill-opacity:0.2;stroke:none;"/>
  </g>
</mask>
<clipPath id="clip16">
  <rect x="0" y="0" width="221" height="121"/>
</clipPath>
<g id="surface50" clip-path="url(#clip16)">
<path style=" stroke:none;fill-rule:nonzero;fill:rgb(0%,0%,0%);fill-opacity:1;" d="M 128.230469 63.804688 C 128.230469 62.519531 129.269531 61.476562 130.554688 61.476562 C 131.835938 61.476562 132.875 62.519531 132.875 63.804688 "/>
</g>
<mask id="mask16">
  <g filter="url(#alpha)">
<rect x="0" y="0" width="221" height="121" style="fill:rgb(0%,0%,0%);fill-opacity:0.2;stroke:none;"/>
  </g>
</mask>
<clipPath id="clip17">
  <rect x="0" y="0" width="221" height="121"/>
</clipPath>
<g id="surface53" clip-path="url(#clip17)">
<path style=" stroke:none;fill-rule:nonzero;fill:rgb(0%,0%,0%);fill-opacity:1;" d="M 139.066406 68.460938 C 139.066406 69.746094 138.027344 70.785156 136.742188 70.785156 C 135.460938 70.785156 134.421875 69.746094 134.421875 68.460938 "/>
</g>
<mask id="mask17">
  <g filter="url(#alpha)">
<rect x="0" y="0" width="221" height="121" style="fill:rgb(0%,0%,0%);fill-opacity:0.2;stroke:none;"/>
  </g>
</mask>
<clipPath id="clip18">
  <rect x="0" y="0" width="221" height="121"/>
</clipPath>
<g id="surface56" clip-path="url(#clip18)">
<path style=" stroke:none;fill-rule:nonzero;fill:rgb(0%,0%,0%);fill-opacity:1;" d="M 134.421875 68.070312 C 134.421875 66.785156 135.460938 65.742188 136.742188 65.742188 C 138.027344 65.742188 139.066406 66.785156 139.066406 68.070312 "/>
</g>
<mask id="mask18">
  <g filter="url(#alpha)">
<rect x="0" y="0" width="221" height="121" style="fill:rgb(0%,0%,0%);fill-opacity:0.2;stroke:none;"/>
  </g>
</mask>
<clipPath id="clip19">
  <rect x="0" y="0" width="221" height="121"/>
</clipPath>
<g id="surface59" clip-path="url(#clip19)">
<path style=" stroke:none;fill-rule:nonzero;fill:rgb(0%,0%,0%);fill-opacity:1;" d="M 123.589844 68.847656 C 123.589844 70.132812 122.550781 71.175781 121.265625 71.175781 C 119.984375 71.175781 118.945312 70.132812 118.945312 68.847656 "/>
</g>
<mask id="mask19">
  <g filter="url(#alpha)">
<rect x="0" y="0" width="221" height="121" style="fill:rgb(0%,0%,0%);fill-opacity:0.2;stroke:none;"/>
  </g>
</mask>
<clipPath id="clip20">
  <rect x="0" y="0" width="221" height="121"/>
</clipPath>
<g id="surface62" clip-path="url(#clip20)">
<path style=" stroke:none;fill-rule:nonzero;fill:rgb(0%,0%,0%);fill-opacity:1;" d="M 118.945312 68.460938 C 118.945312 67.175781 119.984375 66.132812 121.265625 66.132812 C 122.550781 66.132812 123.589844 67.175781 123.589844 68.460938 "/>
</g>
<mask id="mask20">
  <g filter="url(#alpha)">
<rect x="0" y="0" width="221" height="121" style="fill:rgb(0%,0%,0%);fill-opacity:0.2;stroke:none;"/>
  </g>
</mask>
<clipPath id="clip21">
  <rect x="0" y="0" width="221" height="121"/>
</clipPath>
<g id="surface65" clip-path="url(#clip21)">
<path style=" stroke:none;fill-rule:nonzero;fill:rgb(0%,0%,0%);fill-opacity:1;" d="M 130.554688 70.203125 C 130.554688 71.488281 129.511719 72.53125 128.230469 72.53125 C 126.949219 72.53125 125.910156 71.488281 125.910156 70.203125 "/>
</g>
<mask id="mask21">
  <g filter="url(#alpha)">
<rect x="0" y="0" width="221" height="121" style="fill:rgb(0%,0%,0%);fill-opacity:0.2;stroke:none;"/>
  </g>
</mask>
<clipPath id="clip22">
  <rect x="0" y="0" width="221" height="121"/>
</clipPath>
<g id="surface68" clip-path="url(#clip22)">
<path style=" stroke:none;fill-rule:nonzero;fill:rgb(0%,0%,0%);fill-opacity:1;" d="M 125.910156 69.816406 C 125.910156 68.53125 126.949219 67.488281 128.230469 67.488281 C 129.511719 67.488281 130.554688 68.53125 130.554688 69.816406 "/>
</g>
<mask id="mask22">
  <g filter="url(#alpha)">
<rect x="0" y="0" width="221" height="121" style="fill:rgb(0%,0%,0%);fill-opacity:0.2;stroke:none;"/>
  </g>
</mask>
<clipPath id="clip23">
  <rect x="0" y="0" width="221" height="121"/>
</clipPath>
<g id="surface71" clip-path="url(#clip23)">
<path style=" stroke:none;fill-rule:nonzero;fill:rgb(0%,0%,0%);fill-opacity:1;" d="M 135.390625 73.5 C 135.390625 74.785156 134.351562 75.828125 133.066406 75.828125 C 131.785156 75.828125 130.746094 74.785156 130.746094 73.5 "/>
</g>
<mask id="mask23">
  <g filter="url(#alpha)">
<rect x="0" y="0" width="221" height="121" style="fill:rgb(0%,0%,0%);fill-opacity:0.2;stroke:none;"/>
  </g>
</mask>
<clipPath id="clip24">
  <rect x="0" y="0" width="221" height="121"/>
</clipPath>
<g id="surface74" clip-path="url(#clip24)">
<path style=" stroke:none;fill-rule:nonzero;fill:rgb(0%,0%,0%);fill-opacity:1;" d="M 130.746094 73.113281 C 130.746094 71.828125 131.785156 70.785156 133.066406 70.785156 C 134.351562 70.785156 135.390625 71.828125 135.390625 73.113281 "/>
</g>
</defs>
<g id="surface1">
<path style=" stroke:none;fill-rule:nonzero;fill:rgb(38.823529%,59.607843%,100%);fill-opacity:1;" d="M 29.71875 63.128906 L 22.644531 63.128906 C 22.128906 63.128906 21.707031 63.550781 21.707031 64.070312 L 21.707031 67.183594 C 21.707031 67.703125 22.128906 68.121094 22.644531 68.121094 L 23.816406 68.121094 L 23.816406 72.785156 L 28.546875 72.785156 L 28.546875 68.121094 L 29.71875 68.121094 C 30.238281 68.121094 30.65625 67.703125 30.65625 67.183594 L 30.65625 64.070312 C 30.65625 63.550781 30.238281 63.128906 29.71875 63.128906 Z M 29.71875 63.128906 "/>
<path style=" stroke:none;fill-rule:nonzero;fill:rgb(24.705882%,23.921569%,33.72549%);fill-opacity:1;" d="M 36.800781 91.613281 C 32.472656 85.257812 30.257812 77.691406 30.476562 70 C 30.484375 69.632812 30.234375 69.3125 29.878906 69.234375 L 29.878906 67.890625 L 22.410156 67.890625 L 22.410156 69.214844 L 22.304688 69.214844 C 22.09375 69.214844 21.890625 69.304688 21.746094 69.460938 C 21.601562 69.617188 21.527344 69.828125 21.542969 70.039062 C 22.128906 78.261719 20.144531 85.636719 15.582031 92.164062 C 15.316406 92.539062 15.183594 92.988281 15.199219 93.445312 L 16.015625 118.773438 C 16.054688 119.949219 17.011719 120.882812 18.183594 120.890625 L 35.078125 120.890625 C 36.265625 120.878906 37.226562 119.925781 37.25 118.738281 L 37.5625 94.144531 C 37.574219 93.242188 37.308594 92.359375 36.800781 91.613281 Z M 36.800781 91.613281 "/>
<use xlink:href="#surface5" mask="url(#mask0)"/>
<path style=" stroke:none;fill-rule:nonzero;fill:rgb(38.823529%,59.607843%,100%);fill-opacity:1;" d="M 34.128906 100.023438 L 32.082031 100.023438 C 31.679688 97.398438 29.425781 95.460938 26.773438 95.460938 C 24.125 95.460938 21.871094 97.398438 21.46875 100.023438 L 19.421875 100.023438 C 18.980469 100.023438 18.5625 100.21875 18.277344 100.554688 C 17.988281 100.886719 17.863281 101.332031 17.929688 101.769531 L 20.152344 116.25 L 32.914062 116.25 L 35.613281 101.816406 C 35.695312 101.375 35.578125 100.917969 35.289062 100.570312 C 35.003906 100.226562 34.578125 100.023438 34.128906 100.023438 Z M 34.128906 100.023438 "/>
<path style=" stroke:none;fill-rule:nonzero;fill:rgb(90.196078%,90.196078%,90.196078%);fill-opacity:1;" d="M 206.054688 76.75 L 205.566406 96.414062 L 204.957031 120.796875 L 184.269531 120.796875 L 183.558594 92.226562 L 183.171875 76.75 Z M 206.054688 76.75 "/>
<path style=" stroke:none;fill-rule:nonzero;fill:rgb(38.823529%,59.607843%,100%);fill-opacity:1;" d="M 193.058594 66.289062 L 195.988281 66.289062 L 195.988281 105.195312 L 193.058594 105.195312 Z M 193.058594 66.289062 "/>
<path style=" stroke:none;fill-rule:nonzero;fill:rgb(24.705882%,23.921569%,33.72549%);fill-opacity:1;" d="M 204.589844 91.566406 L 204.035156 119.511719 L 185.179688 119.511719 L 184.53125 86.769531 C 187.964844 85.804688 191.644531 86.308594 194.691406 88.171875 C 197.84375 90.039062 201.382812 91.042969 204.589844 91.566406 Z M 204.589844 91.566406 "/>
<path style=" stroke:none;fill-rule:nonzero;fill:rgb(90.196078%,90.196078%,90.196078%);fill-opacity:1;" d="M 187.160156 94.710938 L 189.847656 94.710938 L 189.847656 97.40625 L 187.160156 97.40625 Z M 187.160156 94.710938 "/>
<path style=" stroke:none;fill-rule:nonzero;fill:rgb(90.196078%,90.196078%,90.196078%);fill-opacity:1;" d="M 188.992188 89.207031 L 191.679688 89.207031 L 191.679688 91.902344 L 188.992188 91.902344 Z M 188.992188 89.207031 "/>
<path style=" stroke:none;fill-rule:nonzero;fill:rgb(90.196078%,90.196078%,90.196078%);fill-opacity:1;" d="M 195.292969 91.414062 L 197.449219 93.019531 L 195.851562 95.183594 L 193.691406 93.578125 Z M 195.292969 91.414062 "/>
<path style=" stroke:none;fill-rule:nonzero;fill:rgb(90.196078%,90.196078%,90.196078%);fill-opacity:1;" d="M 200.148438 96.1875 L 202.308594 97.792969 L 200.707031 99.957031 L 198.546875 98.351562 Z M 200.148438 96.1875 "/>
<path style=" stroke:none;fill-rule:nonzero;fill:rgb(90.196078%,90.196078%,90.196078%);fill-opacity:1;" d="M 191.910156 98.941406 L 194.070312 100.542969 L 192.46875 102.707031 L 190.308594 101.105469 Z M 191.910156 98.941406 "/>
<path style=" stroke:none;fill-rule:nonzero;fill:rgb(24.705882%,23.921569%,33.72549%);fill-opacity:1;" d="M 200.929688 87.578125 C 200.929688 87.882812 200.683594 88.128906 200.378906 88.128906 C 200.078125 88.128906 199.832031 87.882812 199.832031 87.578125 C 199.832031 87.273438 200.078125 87.027344 200.378906 87.027344 C 200.683594 87.027344 200.929688 87.273438 200.929688 87.578125 Z M 200.929688 87.578125 "/>
<path style=" stroke:none;fill-rule:nonzero;fill:rgb(24.705882%,23.921569%,33.72549%);fill-opacity:1;" d="M 189.761719 83.90625 C 189.761719 84.210938 189.515625 84.457031 189.210938 84.457031 C 188.910156 84.457031 188.664062 84.210938 188.664062 83.90625 C 188.664062 83.601562 188.910156 83.355469 189.210938 83.355469 C 189.515625 83.355469 189.761719 83.601562 189.761719 83.90625 Z M 189.761719 83.90625 "/>
<path style=" stroke:none;fill-rule:nonzero;fill:rgb(24.705882%,23.921569%,33.72549%);fill-opacity:1;" d="M 199.097656 80.054688 C 199.097656 80.355469 198.851562 80.605469 198.550781 80.605469 C 198.246094 80.605469 198 80.355469 198 80.054688 C 198 79.75 198.246094 79.503906 198.550781 79.503906 C 198.851562 79.503906 199.097656 79.75 199.097656 80.054688 Z M 199.097656 80.054688 "/>
<path style=" stroke:none;fill-rule:nonzero;fill:rgb(38.823529%,59.607843%,100%);fill-opacity:1;" d="M 170.792969 60.3125 C 170.792969 93.625 143.855469 120.628906 110.625 120.628906 C 77.398438 120.628906 50.460938 93.625 50.460938 60.3125 C 50.460938 27.003906 77.398438 0 110.625 0 C 143.855469 0 170.792969 27.003906 170.792969 60.3125 Z M 170.792969 60.3125 "/>
<use xlink:href="#surface8" mask="url(#mask1)"/>
<path style=" stroke:none;fill-rule:nonzero;fill:rgb(24.705882%,23.921569%,33.72549%);fill-opacity:1;" d="M 153.1875 60.3125 C 153.1875 83.878906 134.132812 102.980469 110.625 102.980469 C 87.121094 102.980469 68.066406 83.878906 68.066406 60.3125 C 68.066406 36.75 87.121094 17.648438 110.625 17.648438 C 134.132812 17.648438 153.1875 36.75 153.1875 60.3125 Z M 153.1875 60.3125 "/>
<path style=" stroke:none;fill-rule:nonzero;fill:rgb(100%,39.607843%,51.764706%);fill-opacity:1;" d="M 78.972656 43.253906 C 78.097656 41.53125 78.203125 39.464844 79.253906 37.84375 C 80.304688 36.21875 82.144531 35.28125 84.070312 35.382812 C 86 35.488281 87.726562 36.613281 88.601562 38.339844 L 100.625 62.011719 C 101.503906 63.734375 101.398438 65.796875 100.34375 67.421875 C 99.292969 69.042969 97.457031 69.980469 95.53125 69.878906 C 93.601562 69.777344 91.875 68.648438 91 66.925781 Z M 78.972656 43.253906 "/>
<use xlink:href="#surface11" mask="url(#mask2)"/>
<use xlink:href="#surface14" mask="url(#mask3)"/>
<use xlink:href="#surface17" mask="url(#mask4)"/>
<use xlink:href="#surface20" mask="url(#mask5)"/>
<use xlink:href="#surface23" mask="url(#mask6)"/>
<path style=" stroke:none;fill-rule:nonzero;fill:rgb(100%,39.607843%,51.764706%);fill-opacity:1;" d="M 69.953125 52.113281 C 68.597656 49.449219 69.652344 46.1875 72.3125 44.828125 C 74.972656 43.46875 78.226562 44.53125 79.578125 47.199219 L 91.605469 70.871094 C 92.953125 73.535156 91.894531 76.792969 89.238281 78.148438 C 86.582031 79.503906 83.332031 78.445312 81.976562 75.785156 Z M 69.953125 52.113281 "/>
<use xlink:href="#surface26" mask="url(#mask7)"/>
<use xlink:href="#surface29" mask="url(#mask8)"/>
<use xlink:href="#surface32" mask="url(#mask9)"/>
<use xlink:href="#surface35" mask="url(#mask10)"/>
<use xlink:href="#surface38" mask="url(#mask11)"/>
<path style=" stroke:none;fill-rule:nonzero;fill:rgb(90.196078%,90.196078%,90.196078%);fill-opacity:1;" d="M 139.066406 61.671875 L 139.101562 61.671875 C 141.753906 61.695312 144.148438 60.085938 145.136719 57.621094 C 146.128906 55.105469 146.628906 52.417969 146.609375 49.714844 C 146.542969 38.257812 137.246094 28.863281 125.820312 28.703125 C 115.789062 28.5625 107.046875 35.527344 104.917969 45.355469 C 102.785156 55.183594 107.855469 65.15625 117.042969 69.199219 C 119.453125 70.269531 122.269531 69.746094 124.136719 67.882812 C 128.089844 63.898438 133.460938 61.664062 139.066406 61.671875 Z M 139.066406 61.671875 "/>
<path style=" stroke:none;fill-rule:nonzero;fill:rgb(97.647059%,65.882353%,14.509804%);fill-opacity:1;" d="M 135.195312 48.289062 C 135.195312 52.144531 132.078125 55.273438 128.230469 55.273438 C 124.386719 55.273438 121.265625 52.144531 121.265625 48.289062 C 121.265625 44.433594 124.386719 41.308594 128.230469 41.308594 C 132.078125 41.308594 135.195312 44.433594 135.195312 48.289062 Z M 135.195312 48.289062 "/>
<path style=" stroke:none;fill-rule:nonzero;fill:rgb(24.705882%,23.921569%,33.72549%);fill-opacity:1;" d="M 113.914062 46.683594 C 113.914062 47.136719 113.546875 47.503906 113.09375 47.503906 C 112.640625 47.503906 112.273438 47.136719 112.273438 46.683594 C 112.273438 46.226562 112.640625 45.859375 113.09375 45.859375 C 113.546875 45.859375 113.914062 46.226562 113.914062 46.683594 Z M 113.914062 46.683594 "/>
<path style=" stroke:none;fill-rule:nonzero;fill:rgb(24.705882%,23.921569%,33.72549%);fill-opacity:1;" d="M 86.832031 47.457031 C 86.832031 47.914062 86.464844 48.28125 86.011719 48.28125 C 85.558594 48.28125 85.191406 47.914062 85.191406 47.457031 C 85.191406 47.003906 85.558594 46.636719 86.011719 46.636719 C 86.464844 46.636719 86.832031 47.003906 86.832031 47.457031 Z M 86.832031 47.457031 "/>
<path style=" stroke:none;fill-rule:nonzero;fill:rgb(24.705882%,23.921569%,33.72549%);fill-opacity:1;" d="M 118.289062 38.160156 C 118.289062 38.613281 117.921875 38.980469 117.46875 38.980469 C 117.015625 38.980469 116.648438 38.613281 116.648438 38.160156 C 116.648438 37.703125 117.015625 37.335938 117.46875 37.335938 C 117.921875 37.335938 118.289062 37.703125 118.289062 38.160156 Z M 118.289062 38.160156 "/>
<path style=" stroke:none;fill-rule:nonzero;fill:rgb(24.705882%,23.921569%,33.72549%);fill-opacity:1;" d="M 118.265625 61.867188 C 118.265625 62.320312 117.898438 62.6875 117.445312 62.6875 C 116.992188 62.6875 116.625 62.320312 116.625 61.867188 C 116.625 61.410156 116.992188 61.042969 117.445312 61.042969 C 117.898438 61.042969 118.265625 61.410156 118.265625 61.867188 Z M 118.265625 61.867188 "/>
<path style=" stroke:none;fill-rule:nonzero;fill:rgb(24.705882%,23.921569%,33.72549%);fill-opacity:1;" d="M 134.515625 36.460938 C 134.515625 36.914062 134.148438 37.28125 133.695312 37.28125 C 133.242188 37.28125 132.875 36.914062 132.875 36.460938 C 132.875 36.003906 133.242188 35.636719 133.695312 35.636719 C 134.148438 35.636719 134.515625 36.003906 134.515625 36.460938 Z M 134.515625 36.460938 "/>
<path style=" stroke:none;fill-rule:nonzero;fill:rgb(24.705882%,23.921569%,33.72549%);fill-opacity:1;" d="M 81.507812 58.957031 C 81.507812 59.410156 81.140625 59.777344 80.6875 59.777344 C 80.234375 59.777344 79.867188 59.410156 79.867188 58.957031 C 79.867188 58.503906 80.234375 58.132812 80.6875 58.132812 C 81.140625 58.132812 81.507812 58.503906 81.507812 58.957031 Z M 81.507812 58.957031 "/>
<path style=" stroke:none;fill-rule:nonzero;fill:rgb(24.705882%,23.921569%,33.72549%);fill-opacity:1;" d="M 87.503906 70.785156 C 87.503906 71.242188 87.136719 71.609375 86.683594 71.609375 C 86.230469 71.609375 85.863281 71.242188 85.863281 70.785156 C 85.863281 70.332031 86.230469 69.964844 86.683594 69.964844 C 87.136719 69.964844 87.503906 70.332031 87.503906 70.785156 Z M 87.503906 70.785156 "/>
<path style=" stroke:none;fill-rule:nonzero;fill:rgb(100%,39.607843%,51.764706%);fill-opacity:1;" d="M 127.457031 72.335938 C 127.457031 74.050781 126.070312 75.441406 124.363281 75.441406 C 122.652344 75.441406 121.265625 74.050781 121.265625 72.335938 C 121.265625 70.625 122.652344 69.234375 124.363281 69.234375 C 126.070312 69.234375 127.457031 70.625 127.457031 72.335938 Z M 127.457031 72.335938 "/>
<use xlink:href="#surface41" mask="url(#mask12)"/>
<use xlink:href="#surface44" mask="url(#mask13)"/>
<path style=" stroke:none;fill-rule:nonzero;fill:rgb(100%,39.607843%,51.764706%);fill-opacity:1;" d="M 123.394531 71.269531 C 123.394531 71.109375 123.308594 70.980469 123.203125 70.980469 C 123.09375 70.980469 123.007812 71.109375 123.007812 71.269531 C 123.007812 71.433594 123.09375 71.5625 123.203125 71.5625 C 123.308594 71.5625 123.394531 71.433594 123.394531 71.269531 Z M 123.394531 71.269531 "/>
<path style=" stroke:none;fill-rule:nonzero;fill:rgb(100%,39.607843%,51.764706%);fill-opacity:1;" d="M 124.554688 70.882812 C 124.554688 70.722656 124.46875 70.59375 124.363281 70.59375 C 124.253906 70.59375 124.167969 70.722656 124.167969 70.882812 C 124.167969 71.042969 124.253906 71.175781 124.363281 71.175781 C 124.46875 71.175781 124.554688 71.042969 124.554688 70.882812 Z M 124.554688 70.882812 "/>
<path style=" stroke:none;fill-rule:nonzero;fill:rgb(100%,39.607843%,51.764706%);fill-opacity:1;" d="M 124.554688 73.40625 C 124.554688 73.242188 124.46875 73.113281 124.363281 73.113281 C 124.253906 73.113281 124.167969 73.242188 124.167969 73.40625 C 124.167969 73.566406 124.253906 73.695312 124.363281 73.695312 C 124.46875 73.695312 124.554688 73.566406 124.554688 73.40625 Z M 124.554688 73.40625 "/>
<path style=" stroke:none;fill-rule:nonzero;fill:rgb(100%,39.607843%,51.764706%);fill-opacity:1;" d="M 125.714844 71.851562 C 125.714844 71.691406 125.628906 71.5625 125.523438 71.5625 C 125.417969 71.5625 125.328125 71.691406 125.328125 71.851562 C 125.328125 72.015625 125.417969 72.144531 125.523438 72.144531 C 125.628906 72.144531 125.714844 72.015625 125.714844 71.851562 Z M 125.714844 71.851562 "/>
<path style=" stroke:none;fill-rule:nonzero;fill:rgb(100%,39.607843%,51.764706%);fill-opacity:1;" d="M 125.523438 73.988281 C 125.523438 73.824219 125.4375 73.695312 125.328125 73.695312 C 125.222656 73.695312 125.136719 73.824219 125.136719 73.988281 C 125.136719 74.148438 125.222656 74.277344 125.328125 74.277344 C 125.4375 74.277344 125.523438 74.148438 125.523438 73.988281 Z M 125.523438 73.988281 "/>
<path style=" stroke:none;fill-rule:nonzero;fill:rgb(100%,39.607843%,51.764706%);fill-opacity:1;" d="M 123.203125 73.015625 C 123.203125 72.855469 123.113281 72.726562 123.007812 72.726562 C 122.902344 72.726562 122.816406 72.855469 122.816406 73.015625 C 122.816406 73.175781 122.902344 73.308594 123.007812 73.308594 C 123.113281 73.308594 123.203125 73.175781 123.203125 73.015625 Z M 123.203125 73.015625 "/>
<path style=" stroke:none;fill-rule:nonzero;fill:rgb(100%,39.607843%,51.764706%);fill-opacity:1;" d="M 133.648438 64 C 133.648438 65.710938 132.261719 67.101562 130.554688 67.101562 C 128.84375 67.101562 127.457031 65.710938 127.457031 64 C 127.457031 62.285156 128.84375 60.894531 130.554688 60.894531 C 132.261719 60.894531 133.648438 62.285156 133.648438 64 Z M 133.648438 64 "/>
<use xlink:href="#surface47" mask="url(#mask14)"/>
<use xlink:href="#surface50" mask="url(#mask15)"/>
<path style=" stroke:none;fill-rule:nonzero;fill:rgb(100%,39.607843%,51.764706%);fill-opacity:1;" d="M 129.585938 62.933594 C 129.585938 62.769531 129.5 62.640625 129.390625 62.640625 C 129.285156 62.640625 129.199219 62.769531 129.199219 62.933594 C 129.199219 63.09375 129.285156 63.222656 129.390625 63.222656 C 129.5 63.222656 129.585938 63.09375 129.585938 62.933594 Z M 129.585938 62.933594 "/>
<path style=" stroke:none;fill-rule:nonzero;fill:rgb(100%,39.607843%,51.764706%);fill-opacity:1;" d="M 130.746094 62.542969 C 130.746094 62.382812 130.660156 62.253906 130.554688 62.253906 C 130.445312 62.253906 130.359375 62.382812 130.359375 62.542969 C 130.359375 62.703125 130.445312 62.835938 130.554688 62.835938 C 130.660156 62.835938 130.746094 62.703125 130.746094 62.542969 Z M 130.746094 62.542969 "/>
<path style=" stroke:none;fill-rule:nonzero;fill:rgb(100%,39.607843%,51.764706%);fill-opacity:1;" d="M 130.746094 65.066406 C 130.746094 64.90625 130.660156 64.773438 130.554688 64.773438 C 130.445312 64.773438 130.359375 64.90625 130.359375 65.066406 C 130.359375 65.226562 130.445312 65.355469 130.554688 65.355469 C 130.660156 65.355469 130.746094 65.226562 130.746094 65.066406 Z M 130.746094 65.066406 "/>
<path style=" stroke:none;fill-rule:nonzero;fill:rgb(100%,39.607843%,51.764706%);fill-opacity:1;" d="M 131.90625 63.515625 C 131.90625 63.351562 131.820312 63.222656 131.714844 63.222656 C 131.605469 63.222656 131.519531 63.351562 131.519531 63.515625 C 131.519531 63.675781 131.605469 63.804688 131.714844 63.804688 C 131.820312 63.804688 131.90625 63.675781 131.90625 63.515625 Z M 131.90625 63.515625 "/>
<path style=" stroke:none;fill-rule:nonzero;fill:rgb(100%,39.607843%,51.764706%);fill-opacity:1;" d="M 131.714844 65.648438 C 131.714844 65.488281 131.628906 65.355469 131.519531 65.355469 C 131.414062 65.355469 131.328125 65.488281 131.328125 65.648438 C 131.328125 65.808594 131.414062 65.9375 131.519531 65.9375 C 131.628906 65.9375 131.714844 65.808594 131.714844 65.648438 Z M 131.714844 65.648438 "/>
<path style=" stroke:none;fill-rule:nonzero;fill:rgb(100%,39.607843%,51.764706%);fill-opacity:1;" d="M 129.390625 64.675781 C 129.390625 64.515625 129.304688 64.386719 129.199219 64.386719 C 129.09375 64.386719 129.003906 64.515625 129.003906 64.675781 C 129.003906 64.839844 129.09375 64.96875 129.199219 64.96875 C 129.304688 64.96875 129.390625 64.839844 129.390625 64.675781 Z M 129.390625 64.675781 "/>
<path style=" stroke:none;fill-rule:nonzero;fill:rgb(38.823529%,59.607843%,100%);fill-opacity:1;" d="M 139.839844 68.265625 C 139.839844 69.980469 138.453125 71.367188 136.742188 71.367188 C 135.035156 71.367188 133.648438 69.980469 133.648438 68.265625 C 133.648438 66.550781 135.035156 65.164062 136.742188 65.164062 C 138.453125 65.164062 139.839844 66.550781 139.839844 68.265625 Z M 139.839844 68.265625 "/>
<use xlink:href="#surface53" mask="url(#mask16)"/>
<use xlink:href="#surface56" mask="url(#mask17)"/>
<path style=" stroke:none;fill-rule:nonzero;fill:rgb(38.823529%,59.607843%,100%);fill-opacity:1;" d="M 135.777344 67.199219 C 135.777344 67.039062 135.691406 66.90625 135.582031 66.90625 C 135.476562 66.90625 135.390625 67.039062 135.390625 67.199219 C 135.390625 67.359375 135.476562 67.488281 135.582031 67.488281 C 135.691406 67.488281 135.777344 67.359375 135.777344 67.199219 Z M 135.777344 67.199219 "/>
<path style=" stroke:none;fill-rule:nonzero;fill:rgb(38.823529%,59.607843%,100%);fill-opacity:1;" d="M 136.9375 66.8125 C 136.9375 66.648438 136.851562 66.519531 136.742188 66.519531 C 136.636719 66.519531 136.550781 66.648438 136.550781 66.8125 C 136.550781 66.972656 136.636719 67.101562 136.742188 67.101562 C 136.851562 67.101562 136.9375 66.972656 136.9375 66.8125 Z M 136.9375 66.8125 "/>
<path style=" stroke:none;fill-rule:nonzero;fill:rgb(38.823529%,59.607843%,100%);fill-opacity:1;" d="M 136.9375 69.332031 C 136.9375 69.171875 136.851562 69.039062 136.742188 69.039062 C 136.636719 69.039062 136.550781 69.171875 136.550781 69.332031 C 136.550781 69.492188 136.636719 69.621094 136.742188 69.621094 C 136.851562 69.621094 136.9375 69.492188 136.9375 69.332031 Z M 136.9375 69.332031 "/>
<path style=" stroke:none;fill-rule:nonzero;fill:rgb(38.823529%,59.607843%,100%);fill-opacity:1;" d="M 138.097656 67.78125 C 138.097656 67.621094 138.011719 67.488281 137.90625 67.488281 C 137.796875 67.488281 137.710938 67.621094 137.710938 67.78125 C 137.710938 67.941406 137.796875 68.070312 137.90625 68.070312 C 138.011719 68.070312 138.097656 67.941406 138.097656 67.78125 Z M 138.097656 67.78125 "/>
<path style=" stroke:none;fill-rule:nonzero;fill:rgb(38.823529%,59.607843%,100%);fill-opacity:1;" d="M 137.90625 69.914062 C 137.90625 69.753906 137.816406 69.621094 137.710938 69.621094 C 137.605469 69.621094 137.515625 69.753906 137.515625 69.914062 C 137.515625 70.074219 137.605469 70.203125 137.710938 70.203125 C 137.816406 70.203125 137.90625 70.074219 137.90625 69.914062 Z M 137.90625 69.914062 "/>
<path style=" stroke:none;fill-rule:nonzero;fill:rgb(38.823529%,59.607843%,100%);fill-opacity:1;" d="M 135.582031 68.945312 C 135.582031 68.785156 135.496094 68.652344 135.390625 68.652344 C 135.28125 68.652344 135.195312 68.785156 135.195312 68.945312 C 135.195312 69.105469 135.28125 69.234375 135.390625 69.234375 C 135.496094 69.234375 135.582031 69.105469 135.582031 68.945312 Z M 135.582031 68.945312 "/>
<path style=" stroke:none;fill-rule:nonzero;fill:rgb(38.823529%,59.607843%,100%);fill-opacity:1;" d="M 124.363281 68.652344 C 124.363281 70.367188 122.976562 71.757812 121.265625 71.757812 C 119.558594 71.757812 118.171875 70.367188 118.171875 68.652344 C 118.171875 66.9375 119.558594 65.550781 121.265625 65.550781 C 122.976562 65.550781 124.363281 66.9375 124.363281 68.652344 Z M 124.363281 68.652344 "/>
<use xlink:href="#surface59" mask="url(#mask18)"/>
<use xlink:href="#surface62" mask="url(#mask19)"/>
<path style=" stroke:none;fill-rule:nonzero;fill:rgb(38.823529%,59.607843%,100%);fill-opacity:1;" d="M 120.300781 67.585938 C 120.300781 67.425781 120.210938 67.296875 120.105469 67.296875 C 120 67.296875 119.914062 67.425781 119.914062 67.585938 C 119.914062 67.746094 120 67.878906 120.105469 67.878906 C 120.210938 67.878906 120.300781 67.746094 120.300781 67.585938 Z M 120.300781 67.585938 "/>
<path style=" stroke:none;fill-rule:nonzero;fill:rgb(38.823529%,59.607843%,100%);fill-opacity:1;" d="M 121.460938 67.199219 C 121.460938 67.039062 121.375 66.90625 121.265625 66.90625 C 121.160156 66.90625 121.074219 67.039062 121.074219 67.199219 C 121.074219 67.359375 121.160156 67.488281 121.265625 67.488281 C 121.375 67.488281 121.460938 67.359375 121.460938 67.199219 Z M 121.460938 67.199219 "/>
<path style=" stroke:none;fill-rule:nonzero;fill:rgb(38.823529%,59.607843%,100%);fill-opacity:1;" d="M 121.460938 69.71875 C 121.460938 69.558594 121.375 69.429688 121.265625 69.429688 C 121.160156 69.429688 121.074219 69.558594 121.074219 69.71875 C 121.074219 69.878906 121.160156 70.011719 121.265625 70.011719 C 121.375 70.011719 121.460938 69.878906 121.460938 69.71875 Z M 121.460938 69.71875 "/>
<path style=" stroke:none;fill-rule:nonzero;fill:rgb(38.823529%,59.607843%,100%);fill-opacity:1;" d="M 122.621094 68.167969 C 122.621094 68.007812 122.535156 67.878906 122.425781 67.878906 C 122.320312 67.878906 122.234375 68.007812 122.234375 68.167969 C 122.234375 68.328125 122.320312 68.460938 122.425781 68.460938 C 122.535156 68.460938 122.621094 68.328125 122.621094 68.167969 Z M 122.621094 68.167969 "/>
<path style=" stroke:none;fill-rule:nonzero;fill:rgb(38.823529%,59.607843%,100%);fill-opacity:1;" d="M 122.425781 70.300781 C 122.425781 70.140625 122.339844 70.011719 122.234375 70.011719 C 122.128906 70.011719 122.039062 70.140625 122.039062 70.300781 C 122.039062 70.460938 122.128906 70.59375 122.234375 70.59375 C 122.339844 70.59375 122.425781 70.460938 122.425781 70.300781 Z M 122.425781 70.300781 "/>
<path style=" stroke:none;fill-rule:nonzero;fill:rgb(38.823529%,59.607843%,100%);fill-opacity:1;" d="M 120.105469 69.332031 C 120.105469 69.171875 120.019531 69.039062 119.914062 69.039062 C 119.804688 69.039062 119.71875 69.171875 119.71875 69.332031 C 119.71875 69.492188 119.804688 69.621094 119.914062 69.621094 C 120.019531 69.621094 120.105469 69.492188 120.105469 69.332031 Z M 120.105469 69.332031 "/>
<path style=" stroke:none;fill-rule:nonzero;fill:rgb(38.823529%,59.607843%,100%);fill-opacity:1;" d="M 131.328125 70.011719 C 131.328125 71.722656 129.941406 73.113281 128.230469 73.113281 C 126.523438 73.113281 125.136719 71.722656 125.136719 70.011719 C 125.136719 68.296875 126.523438 66.90625 128.230469 66.90625 C 129.941406 66.90625 131.328125 68.296875 131.328125 70.011719 Z M 131.328125 70.011719 "/>
<use xlink:href="#surface65" mask="url(#mask20)"/>
<use xlink:href="#surface68" mask="url(#mask21)"/>
<path style=" stroke:none;fill-rule:nonzero;fill:rgb(38.823529%,59.607843%,100%);fill-opacity:1;" d="M 127.265625 68.945312 C 127.265625 68.785156 127.175781 68.652344 127.070312 68.652344 C 126.964844 68.652344 126.878906 68.785156 126.878906 68.945312 C 126.878906 69.105469 126.964844 69.234375 127.070312 69.234375 C 127.175781 69.234375 127.265625 69.105469 127.265625 68.945312 Z M 127.265625 68.945312 "/>
<path style=" stroke:none;fill-rule:nonzero;fill:rgb(38.823529%,59.607843%,100%);fill-opacity:1;" d="M 128.425781 68.554688 C 128.425781 68.394531 128.339844 68.265625 128.230469 68.265625 C 128.125 68.265625 128.039062 68.394531 128.039062 68.554688 C 128.039062 68.71875 128.125 68.847656 128.230469 68.847656 C 128.339844 68.847656 128.425781 68.71875 128.425781 68.554688 Z M 128.425781 68.554688 "/>
<path style=" stroke:none;fill-rule:nonzero;fill:rgb(38.823529%,59.607843%,100%);fill-opacity:1;" d="M 128.425781 71.078125 C 128.425781 70.917969 128.339844 70.785156 128.230469 70.785156 C 128.125 70.785156 128.039062 70.917969 128.039062 71.078125 C 128.039062 71.238281 128.125 71.367188 128.230469 71.367188 C 128.339844 71.367188 128.425781 71.238281 128.425781 71.078125 Z M 128.425781 71.078125 "/>
<path style=" stroke:none;fill-rule:nonzero;fill:rgb(38.823529%,59.607843%,100%);fill-opacity:1;" d="M 129.585938 69.527344 C 129.585938 69.363281 129.5 69.234375 129.390625 69.234375 C 129.285156 69.234375 129.199219 69.363281 129.199219 69.527344 C 129.199219 69.6875 129.285156 69.816406 129.390625 69.816406 C 129.5 69.816406 129.585938 69.6875 129.585938 69.527344 Z M 129.585938 69.527344 "/>
<path style=" stroke:none;fill-rule:nonzero;fill:rgb(38.823529%,59.607843%,100%);fill-opacity:1;" d="M 129.390625 71.660156 C 129.390625 71.5 129.304688 71.367188 129.199219 71.367188 C 129.09375 71.367188 129.003906 71.5 129.003906 71.660156 C 129.003906 71.820312 129.09375 71.949219 129.199219 71.949219 C 129.304688 71.949219 129.390625 71.820312 129.390625 71.660156 Z M 129.390625 71.660156 "/>
<path style=" stroke:none;fill-rule:nonzero;fill:rgb(38.823529%,59.607843%,100%);fill-opacity:1;" d="M 127.070312 70.6875 C 127.070312 70.527344 126.984375 70.398438 126.878906 70.398438 C 126.769531 70.398438 126.683594 70.527344 126.683594 70.6875 C 126.683594 70.851562 126.769531 70.980469 126.878906 70.980469 C 126.984375 70.980469 127.070312 70.851562 127.070312 70.6875 Z M 127.070312 70.6875 "/>
<path style=" stroke:none;fill-rule:nonzero;fill:rgb(100%,39.607843%,51.764706%);fill-opacity:1;" d="M 136.164062 73.308594 C 136.164062 75.019531 134.777344 76.410156 133.066406 76.410156 C 131.359375 76.410156 129.972656 75.019531 129.972656 73.308594 C 129.972656 71.59375 131.359375 70.203125 133.066406 70.203125 C 134.777344 70.203125 136.164062 71.59375 136.164062 73.308594 Z M 136.164062 73.308594 "/>
<use xlink:href="#surface71" mask="url(#mask22)"/>
<use xlink:href="#surface74" mask="url(#mask23)"/>
<path style=" stroke:none;fill-rule:nonzero;fill:rgb(100%,39.607843%,51.764706%);fill-opacity:1;" d="M 132.101562 72.242188 C 132.101562 72.082031 132.015625 71.949219 131.90625 71.949219 C 131.800781 71.949219 131.714844 72.082031 131.714844 72.242188 C 131.714844 72.402344 131.800781 72.53125 131.90625 72.53125 C 132.015625 72.53125 132.101562 72.402344 132.101562 72.242188 Z M 132.101562 72.242188 "/>
<path style=" stroke:none;fill-rule:nonzero;fill:rgb(100%,39.607843%,51.764706%);fill-opacity:1;" d="M 133.261719 71.851562 C 133.261719 71.691406 133.175781 71.5625 133.066406 71.5625 C 132.960938 71.5625 132.875 71.691406 132.875 71.851562 C 132.875 72.015625 132.960938 72.144531 133.066406 72.144531 C 133.175781 72.144531 133.261719 72.015625 133.261719 71.851562 Z M 133.261719 71.851562 "/>
<path style=" stroke:none;fill-rule:nonzero;fill:rgb(100%,39.607843%,51.764706%);fill-opacity:1;" d="M 133.261719 74.375 C 133.261719 74.214844 133.175781 74.082031 133.066406 74.082031 C 132.960938 74.082031 132.875 74.214844 132.875 74.375 C 132.875 74.535156 132.960938 74.664062 133.066406 74.664062 C 133.175781 74.664062 133.261719 74.535156 133.261719 74.375 Z M 133.261719 74.375 "/>
<path style=" stroke:none;fill-rule:nonzero;fill:rgb(100%,39.607843%,51.764706%);fill-opacity:1;" d="M 134.421875 72.824219 C 134.421875 72.660156 134.335938 72.53125 134.230469 72.53125 C 134.121094 72.53125 134.035156 72.660156 134.035156 72.824219 C 134.035156 72.984375 134.121094 73.113281 134.230469 73.113281 C 134.335938 73.113281 134.421875 72.984375 134.421875 72.824219 Z M 134.421875 72.824219 "/>
<path style=" stroke:none;fill-rule:nonzero;fill:rgb(100%,39.607843%,51.764706%);fill-opacity:1;" d="M 134.230469 74.957031 C 134.230469 74.796875 134.140625 74.664062 134.035156 74.664062 C 133.929688 74.664062 133.839844 74.796875 133.839844 74.957031 C 133.839844 75.117188 133.929688 75.246094 134.035156 75.246094 C 134.140625 75.246094 134.230469 75.117188 134.230469 74.957031 Z M 134.230469 74.957031 "/>
<path style=" stroke:none;fill-rule:nonzero;fill:rgb(100%,39.607843%,51.764706%);fill-opacity:1;" d="M 131.90625 73.988281 C 131.90625 73.824219 131.820312 73.695312 131.714844 73.695312 C 131.605469 73.695312 131.519531 73.824219 131.519531 73.988281 C 131.519531 74.148438 131.605469 74.277344 131.714844 74.277344 C 131.820312 74.277344 131.90625 74.148438 131.90625 73.988281 Z M 131.90625 73.988281 "/>
<path style=" stroke:none;fill-rule:nonzero;fill:rgb(24.705882%,23.921569%,33.72549%);fill-opacity:1;" d="M 94.082031 61.476562 C 94.082031 61.933594 93.714844 62.300781 93.261719 62.300781 C 92.808594 62.300781 92.441406 61.933594 92.441406 61.476562 C 92.441406 61.023438 92.808594 60.65625 93.261719 60.65625 C 93.714844 60.65625 94.082031 61.023438 94.082031 61.476562 Z M 94.082031 61.476562 "/>
<path style=" stroke:none;fill-rule:nonzero;fill:rgb(97.647059%,65.882353%,14.509804%);fill-opacity:1;" d="M 115.5625 91.332031 L 95.859375 85.851562 L 96.613281 83.042969 L 116.316406 88.519531 Z M 115.5625 91.332031 "/>
<path style=" stroke:none;fill-rule:nonzero;fill:rgb(97.647059%,65.882353%,14.509804%);fill-opacity:1;" d="M 112.675781 90.390625 C 105.925781 91.6875 98.996094 91.6875 92.246094 90.390625 L 92.246094 87.476562 C 99.011719 88.601562 105.910156 88.601562 112.675781 87.476562 Z M 112.675781 90.390625 "/>
<path style=" stroke:none;fill-rule:nonzero;fill:rgb(97.647059%,65.882353%,14.509804%);fill-opacity:1;" d="M 114.773438 81.652344 C 108.027344 82.945312 101.09375 82.945312 94.347656 81.652344 L 94.347656 78.738281 C 101.109375 79.863281 108.011719 79.863281 114.773438 78.738281 Z M 114.773438 81.652344 "/>
<path style=" stroke:none;fill-rule:nonzero;fill:rgb(97.647059%,65.882353%,14.509804%);fill-opacity:1;" d="M 121.839844 85.148438 C 115.089844 86.441406 108.160156 86.441406 101.410156 85.148438 L 101.410156 82.234375 C 108.175781 83.359375 115.074219 83.359375 121.839844 82.234375 Z M 121.839844 85.148438 "/>
<path style=" stroke:none;fill-rule:nonzero;fill:rgb(97.647059%,65.882353%,14.509804%);fill-opacity:1;" d="M 123.554688 88.449219 C 116.808594 89.746094 109.878906 89.746094 103.128906 88.449219 L 103.128906 85.535156 C 109.890625 86.660156 116.792969 86.660156 123.554688 85.535156 Z M 123.554688 88.449219 "/>
<path style=" stroke:none;fill-rule:nonzero;fill:rgb(97.647059%,65.882353%,14.509804%);fill-opacity:1;" d="M 129.546875 92.765625 L 109.394531 96.15625 L 108.925781 93.285156 L 129.078125 89.890625 Z M 129.546875 92.765625 "/>
<path style=" stroke:none;fill-rule:nonzero;fill:rgb(97.647059%,65.882353%,14.509804%);fill-opacity:1;" d="M 126.535156 93.136719 C 120.949219 97.175781 114.652344 100.121094 107.976562 101.816406 L 106.78125 99.167969 C 113.398438 97.3125 119.667969 94.378906 125.339844 90.492188 Z M 126.535156 93.136719 "/>
<path style=" stroke:none;fill-rule:nonzero;fill:rgb(97.647059%,65.882353%,14.509804%);fill-opacity:1;" d="M 124.855469 84.304688 C 119.269531 88.339844 112.972656 91.285156 106.296875 92.980469 L 105.101562 90.335938 C 111.71875 88.476562 117.988281 85.546875 123.660156 81.65625 Z M 124.855469 84.304688 "/>
<path style=" stroke:none;fill-rule:nonzero;fill:rgb(97.647059%,65.882353%,14.509804%);fill-opacity:1;" d="M 132.710938 84.480469 C 127.121094 88.515625 120.824219 91.460938 114.148438 93.15625 L 112.953125 90.511719 C 119.570312 88.652344 125.839844 85.722656 131.515625 81.832031 Z M 132.710938 84.480469 "/>
<path style=" stroke:none;fill-rule:nonzero;fill:rgb(97.647059%,65.882353%,14.509804%);fill-opacity:1;" d="M 135.625 86.75 C 130.039062 90.789062 123.742188 93.730469 117.066406 95.429688 L 115.871094 92.78125 C 122.488281 90.921875 128.757812 87.992188 134.429688 84.101562 Z M 135.625 86.75 "/>
<path style=" stroke:none;fill-rule:nonzero;fill:rgb(0%,74.901961%,44.313725%);fill-opacity:1;" d="M 110.238281 81.066406 L 111.207031 81.066406 L 111.207031 82.035156 L 110.238281 82.035156 Z M 110.238281 81.066406 "/>
<path style=" stroke:none;fill-rule:nonzero;fill:rgb(0%,74.901961%,44.313725%);fill-opacity:1;" d="M 113.140625 97.9375 L 114.109375 97.9375 L 114.109375 98.90625 L 113.140625 98.90625 Z M 113.140625 97.9375 "/>
<path style=" stroke:none;fill-rule:nonzero;fill:rgb(0%,74.901961%,44.313725%);fill-opacity:1;" d="M 97.664062 81.066406 L 98.632812 81.066406 L 98.632812 82.035156 L 97.664062 82.035156 Z M 97.664062 81.066406 "/>
<path style=" stroke:none;fill-rule:nonzero;fill:rgb(0%,74.901961%,44.313725%);fill-opacity:1;" d="M 120.105469 93.089844 L 121.074219 93.089844 L 121.074219 94.058594 L 120.105469 94.058594 Z M 120.105469 93.089844 "/>
<path style=" stroke:none;fill-rule:nonzero;fill:rgb(0%,74.901961%,44.313725%);fill-opacity:1;" d="M 120.6875 87.464844 L 121.652344 87.464844 L 121.652344 88.433594 L 120.6875 88.433594 Z M 120.6875 87.464844 "/>
<path style=" stroke:none;fill-rule:nonzero;fill:rgb(0%,74.901961%,44.313725%);fill-opacity:1;" d="M 104.578125 84.046875 L 105.695312 84.808594 L 105.261719 85.453125 L 104.140625 84.691406 Z M 104.578125 84.046875 "/>
<path style=" stroke:none;fill-rule:nonzero;fill:rgb(0%,74.901961%,44.313725%);fill-opacity:1;" d="M 115.992188 86.179688 L 117.109375 86.941406 L 116.675781 87.585938 L 115.554688 86.824219 Z M 115.992188 86.179688 "/>
<path style=" stroke:none;fill-rule:nonzero;fill:rgb(0%,74.901961%,44.313725%);fill-opacity:1;" d="M 102.0625 89.867188 L 103.183594 90.628906 L 102.746094 91.269531 L 101.625 90.507812 Z M 102.0625 89.867188 "/>
<path style=" stroke:none;fill-rule:nonzero;fill:rgb(0%,74.901961%,44.313725%);fill-opacity:1;" d="M 111.035156 89.449219 L 110.277344 90.570312 L 109.636719 90.136719 L 110.394531 89.011719 Z M 111.035156 89.449219 "/>
<path style=" stroke:none;fill-rule:nonzero;fill:rgb(0%,74.901961%,44.313725%);fill-opacity:1;" d="M 116.261719 90.804688 L 115.5 91.929688 L 114.859375 91.492188 L 115.621094 90.371094 Z M 116.261719 90.804688 "/>
<path style=" stroke:none;fill-rule:nonzero;fill:rgb(0%,74.901961%,44.313725%);fill-opacity:1;" d="M 130.191406 86.152344 L 129.429688 87.273438 L 128.789062 86.839844 L 129.550781 85.714844 Z M 130.191406 86.152344 "/>
<path style=" stroke:none;fill-rule:nonzero;fill:rgb(24.705882%,23.921569%,33.72549%);fill-opacity:1;" d="M 0 120.5625 L 221 120.5625 L 221 121.121094 L 0 121.121094 Z M 0 120.5625 "/>
</g>
</svg>
