<?xml version="1.0" encoding="UTF-8"?>
<svg xmlns="http://www.w3.org/2000/svg" xmlns:xlink="http://www.w3.org/1999/xlink" width="379pt" height="342pt" viewBox="0 0 379 342" version="1.1">
<g id="surface1">
<path style=" stroke:none;fill-rule:nonzero;fill:rgb(90.196078%,90.196078%,90.196078%);fill-opacity:1;" d="M 363.578125 135.5 C 363.578125 194.800781 325.535156 245.199219 272.558594 263.570312 C 251.230469 270.921875 228.417969 272.855469 206.160156 269.199219 C 204.046875 268.855469 201.949219 268.457031 199.867188 268.011719 C 197.046875 267.410156 194.257812 266.71875 191.503906 265.941406 C 134.625 249.910156 92.933594 197.578125 92.933594 135.5 C 92.933594 60.664062 153.519531 0 228.253906 0 C 302.992188 0 363.578125 60.664062 363.578125 135.5 Z M 363.578125 135.5 "/>
<path style=" stroke:none;fill-rule:nonzero;fill:rgb(24.705882%,23.921569%,33.72549%);fill-opacity:1;" d="M 143.5 177.320312 C 143.003906 177.585938 142.816406 178.203125 143.078125 178.703125 L 193.957031 274.121094 C 194.222656 274.617188 194.839844 274.804688 195.335938 274.542969 L 267.257812 236.09375 C 267.753906 235.828125 267.941406 235.210938 267.675781 234.710938 L 216.796875 139.292969 C 216.53125 138.796875 215.914062 138.609375 215.417969 138.871094 Z M 143.5 177.320312 "/>
<path style=" stroke:none;fill-rule:nonzero;fill:rgb(100%,100%,100%);fill-opacity:1;" d="M 150.183594 180.109375 L 196.742188 267.425781 L 260.570312 233.304688 L 214.011719 145.988281 Z M 146.140625 182.273438 L 146.148438 182.265625 L 146.136719 182.273438 Z M 146.140625 182.273438 "/>
<path style=" stroke:none;fill-rule:nonzero;fill:rgb(38.823529%,59.607843%,100%);fill-opacity:1;" d="M 166.277344 189.710938 C 165.285156 190.238281 165.074219 191.785156 165.804688 193.160156 C 166.539062 194.53125 167.9375 195.214844 168.929688 194.683594 L 215.679688 169.695312 C 216.671875 169.164062 216.882812 167.617188 216.148438 166.246094 C 215.417969 164.871094 214.015625 164.1875 213.027344 164.71875 Z M 166.277344 189.710938 "/>
<path style=" stroke:none;fill-rule:nonzero;fill:rgb(38.823529%,59.607843%,100%);fill-opacity:1;" d="M 172.039062 200.511719 C 171.046875 201.042969 170.835938 202.589844 171.566406 203.960938 C 172.296875 205.332031 173.699219 206.019531 174.691406 205.488281 L 221.4375 180.496094 C 222.429688 179.964844 222.640625 178.417969 221.910156 177.046875 C 221.179688 175.675781 219.777344 174.988281 218.785156 175.519531 Z M 172.039062 200.511719 "/>
<path style=" stroke:none;fill-rule:nonzero;fill:rgb(38.823529%,59.607843%,100%);fill-opacity:1;" d="M 177.796875 211.3125 C 176.804688 211.84375 176.59375 213.390625 177.324219 214.761719 C 178.058594 216.132812 179.457031 216.820312 180.449219 216.289062 L 227.199219 191.296875 C 228.191406 190.769531 228.402344 189.21875 227.667969 187.847656 C 226.9375 186.476562 225.535156 185.792969 224.546875 186.320312 Z M 177.796875 211.3125 "/>
<path style=" stroke:none;fill-rule:nonzero;fill:rgb(38.823529%,59.607843%,100%);fill-opacity:1;" d="M 183.558594 222.117188 C 182.566406 222.644531 182.355469 224.195312 183.085938 225.566406 C 183.816406 226.9375 185.21875 227.621094 186.210938 227.09375 L 232.957031 202.101562 C 233.949219 201.570312 234.160156 200.023438 233.429688 198.652344 C 232.699219 197.28125 231.296875 196.59375 230.304688 197.125 Z M 183.558594 222.117188 "/>
<path style=" stroke:none;fill-rule:nonzero;fill:rgb(38.823529%,59.607843%,100%);fill-opacity:1;" d="M 189.316406 232.917969 C 188.324219 233.449219 188.113281 234.996094 188.84375 236.367188 C 189.578125 237.738281 190.976562 238.425781 191.96875 237.894531 L 238.71875 212.902344 C 239.710938 212.371094 239.921875 210.824219 239.1875 209.453125 C 238.457031 208.082031 237.054688 207.398438 236.0625 207.925781 Z M 189.316406 232.917969 "/>
<path style=" stroke:none;fill-rule:nonzero;fill:rgb(18.431373%,18.039216%,25.490196%);fill-opacity:1;" d="M 198.394531 136.097656 L 240.753906 138.6875 L 252.617188 103.261719 L 215.460938 95.402344 Z M 198.394531 136.097656 "/>
<path style=" stroke:none;fill-rule:nonzero;fill:rgb(100%,72.156863%,72.156863%);fill-opacity:1;" d="M 245.886719 110.175781 C 245.886719 119.542969 238.300781 127.140625 228.945312 127.140625 C 219.585938 127.140625 212.003906 119.542969 212.003906 110.175781 C 212.003906 100.804688 219.585938 93.210938 228.945312 93.210938 C 238.300781 93.210938 245.886719 100.804688 245.886719 110.175781 Z M 245.886719 110.175781 "/>
<path style=" stroke:none;fill-rule:nonzero;fill:rgb(100%,72.156863%,72.156863%);fill-opacity:1;" d="M 256.46875 144.25 L 229.003906 148.75 L 221.765625 120 L 240.988281 118.25 Z M 256.46875 144.25 "/>
<path style=" stroke:none;fill-rule:nonzero;fill:rgb(18.431373%,18.039216%,25.490196%);fill-opacity:1;" d="M 272.445312 262.25 L 272.558594 263.570312 C 251.230469 270.921875 228.417969 272.855469 206.160156 269.199219 L 206.015625 271.546875 C 205.851562 274.09375 204.484375 276.410156 202.335938 277.789062 C 200.1875 279.164062 197.511719 279.433594 195.132812 278.515625 L 199.867188 268.011719 L 205.855469 254.714844 L 209.78125 246 L 208.367188 215.851562 L 208.21875 212.730469 L 208.03125 208.75 L 210.589844 208.734375 L 228.765625 208.625 L 246.085938 208.515625 L 248.726562 208.5 C 265.292969 228.898438 278.957031 245.480469 272.445312 262.25 Z M 272.445312 262.25 "/>
<path style=" stroke:none;fill-rule:nonzero;fill:rgb(38.823529%,59.607843%,100%);fill-opacity:1;" d="M 248.480469 208.25 L 208.03125 212.75 L 206.535156 184.75 C 201.789062 172.628906 204.921875 161.808594 214.773438 152.097656 L 216.773438 144.160156 C 217.847656 139.914062 221.1875 136.617188 225.445312 135.605469 C 232.066406 131.800781 239.566406 129.988281 247.980469 130.25 C 254.878906 132.949219 259.203125 139.847656 258.628906 147.242188 C 256.886719 169.25 253.761719 189.847656 248.480469 208.25 Z M 248.480469 208.25 "/>
<path style=" stroke:none;fill-rule:nonzero;fill:rgb(100%,72.156863%,72.156863%);fill-opacity:1;" d="M 236.992188 161.25 L 236.667969 163.703125 L 231.5 202.75 L 228.765625 208.625 L 227.871094 210.546875 L 207.035156 255.25 L 206.160156 269.199219 L 206.015625 271.546875 C 205.824219 274.734375 203.757812 277.507812 200.757812 278.597656 C 197.757812 279.691406 194.398438 278.894531 192.207031 276.570312 C 190.015625 274.246094 189.410156 270.84375 190.671875 267.90625 L 191.503906 265.941406 L 196.046875 255.25 L 208.367188 215.851562 L 209.378906 212.601562 L 210.589844 208.734375 L 214.023438 197.75 L 219.496094 163.96875 L 220.015625 160.75 Z M 236.992188 161.25 "/>
<path style=" stroke:none;fill-rule:nonzero;fill:rgb(38.823529%,59.607843%,100%);fill-opacity:1;" d="M 239.988281 164.75 C 232.140625 161.925781 224.613281 161.625 217.519531 164.75 L 219.835938 144.652344 C 219.660156 139.429688 223.691406 135.03125 228.898438 134.753906 C 231.441406 134.621094 233.929688 135.507812 235.820312 137.214844 C 237.707031 138.921875 238.839844 141.3125 238.964844 143.855469 Z M 239.988281 164.75 "/>
<path style=" stroke:none;fill-rule:nonzero;fill:rgb(18.431373%,18.039216%,25.490196%);fill-opacity:1;" d="M 216.128906 90.132812 C 216.128906 90.132812 207.367188 93.332031 207.144531 104.972656 C 207.128906 106.929688 207.390625 108.878906 207.917969 110.765625 C 208.488281 112.90625 208.941406 117.546875 205.121094 123.730469 C 202.625 127.746094 200.371094 131.90625 198.363281 136.1875 L 208.226562 137.140625 L 209.859375 120.769531 C 210.648438 112.832031 212.605469 105.054688 215.65625 97.683594 L 215.722656 97.53125 C 215.722656 97.53125 220.246094 105.40625 228.847656 105.164062 L 225.6875 102.175781 C 225.6875 102.175781 236.460938 106.238281 242.316406 107.050781 C 243.679688 107.242188 244.824219 108.171875 245.292969 109.464844 C 245.761719 110.761719 245.476562 112.210938 244.550781 113.230469 C 244.515625 113.265625 244.480469 113.304688 244.445312 113.34375 C 240.863281 117.136719 233.734375 125.957031 238.226562 132.601562 C 242.714844 139.246094 239.082031 141.195312 239.082031 141.195312 L 245.734375 137.316406 L 248.753906 135.382812 L 248.824219 137.84375 L 264.742188 135.546875 C 264.742188 135.546875 269.027344 134.8125 259.519531 124.613281 C 259.519531 124.613281 256.972656 120.621094 257.9375 117.089844 C 258.738281 114.402344 258.886719 111.566406 258.375 108.808594 C 255.984375 97.335938 247.242188 74.636719 216.128906 90.132812 Z M 216.128906 90.132812 "/>
<path style=" stroke:none;fill-rule:nonzero;fill:rgb(90.196078%,90.196078%,90.196078%);fill-opacity:1;" d="M 289.175781 337.078125 C 289.175781 335.144531 261.902344 333.578125 228.253906 333.578125 C 194.609375 333.578125 167.335938 335.144531 167.335938 337.078125 C 167.335938 339.011719 194.609375 340.578125 228.253906 340.578125 C 261.902344 340.578125 289.175781 339.011719 289.175781 337.078125 Z M 289.175781 337.078125 "/>
<path style=" stroke:none;fill-rule:nonzero;fill:rgb(94.901961%,94.901961%,94.901961%);fill-opacity:1;" d="M 0.371094 161.265625 C 0.105469 161.335938 -0.0546875 161.613281 0.015625 161.878906 L 13.644531 213.089844 C 13.714844 213.359375 13.988281 213.515625 14.253906 213.445312 L 52.855469 203.148438 C 53.121094 203.078125 53.28125 202.804688 53.210938 202.535156 L 39.582031 151.324219 C 39.511719 151.054688 39.238281 150.898438 38.972656 150.96875 Z M 0.371094 161.265625 "/>
<path style=" stroke:none;fill-rule:nonzero;fill:rgb(100%,100%,100%);fill-opacity:1;" d="M 9.855469 169.722656 C 9.324219 169.867188 9.050781 170.582031 9.246094 171.316406 C 9.441406 172.054688 10.035156 172.535156 10.566406 172.394531 L 35.65625 165.703125 C 36.1875 165.558594 36.460938 164.84375 36.265625 164.109375 C 36.070312 163.371094 35.480469 162.886719 34.945312 163.03125 Z M 9.855469 169.722656 "/>
<path style=" stroke:none;fill-rule:nonzero;fill:rgb(100%,100%,100%);fill-opacity:1;" d="M 11.398438 175.523438 C 10.867188 175.664062 10.59375 176.378906 10.789062 177.113281 C 10.984375 177.851562 11.578125 178.335938 12.109375 178.191406 L 37.199219 171.5 C 37.730469 171.355469 38.003906 170.640625 37.808594 169.90625 C 37.613281 169.171875 37.019531 168.6875 36.488281 168.828125 Z M 11.398438 175.523438 "/>
<path style=" stroke:none;fill-rule:nonzero;fill:rgb(100%,100%,100%);fill-opacity:1;" d="M 12.941406 181.320312 C 12.410156 181.460938 12.136719 182.175781 12.332031 182.914062 C 12.527344 183.648438 13.121094 184.132812 13.652344 183.992188 L 38.742188 177.296875 C 39.273438 177.15625 39.546875 176.441406 39.351562 175.703125 C 39.15625 174.96875 38.5625 174.484375 38.03125 174.625 Z M 12.941406 181.320312 "/>
<path style=" stroke:none;fill-rule:nonzero;fill:rgb(100%,100%,100%);fill-opacity:1;" d="M 14.484375 187.117188 C 13.953125 187.257812 13.679688 187.972656 13.875 188.710938 C 14.070312 189.445312 14.664062 189.929688 15.195312 189.789062 L 40.285156 183.09375 C 40.816406 182.953125 41.089844 182.238281 40.894531 181.5 C 40.699219 180.765625 40.105469 180.28125 39.574219 180.421875 Z M 14.484375 187.117188 "/>
<path style=" stroke:none;fill-rule:nonzero;fill:rgb(100%,100%,100%);fill-opacity:1;" d="M 16.027344 192.914062 C 15.496094 193.058594 15.222656 193.773438 15.417969 194.507812 C 15.613281 195.246094 16.207031 195.726562 16.738281 195.585938 L 41.828125 188.890625 C 42.359375 188.75 42.632812 188.035156 42.4375 187.300781 C 42.242188 186.5625 41.648438 186.078125 41.117188 186.222656 Z M 16.027344 192.914062 "/>
<path style=" stroke:none;fill-rule:nonzero;fill:rgb(100%,100%,100%);fill-opacity:1;" d="M 17.570312 198.714844 C 17.039062 198.855469 16.765625 199.570312 16.960938 200.304688 C 17.15625 201.042969 17.746094 201.527344 18.28125 201.382812 L 43.371094 194.691406 C 43.902344 194.546875 44.175781 193.832031 43.980469 193.097656 C 43.785156 192.359375 43.191406 191.878906 42.660156 192.019531 Z M 17.570312 198.714844 "/>
<path style=" stroke:none;fill-rule:nonzero;fill:rgb(94.901961%,94.901961%,94.901961%);fill-opacity:1;" d="M 99.019531 341.710938 C 99.019531 341.777344 99.242188 341.828125 99.515625 341.828125 L 152.445312 341.828125 C 152.722656 341.828125 152.945312 341.777344 152.945312 341.710938 L 152.945312 332.445312 C 152.945312 332.378906 152.722656 332.328125 152.445312 332.328125 L 99.515625 332.328125 C 99.242188 332.328125 99.019531 332.378906 99.019531 332.445312 Z M 99.019531 341.710938 "/>
<path style=" stroke:none;fill-rule:nonzero;fill:rgb(100%,100%,100%);fill-opacity:1;" d="M 109.621094 340.089844 C 109.621094 340.21875 110.242188 340.324219 111 340.324219 C 111.761719 340.324219 112.382812 340.21875 112.382812 340.089844 L 112.382812 334.066406 C 112.382812 333.9375 111.761719 333.835938 111 333.835938 C 110.242188 333.835938 109.621094 333.9375 109.621094 334.066406 Z M 109.621094 340.089844 "/>
<path style=" stroke:none;fill-rule:nonzero;fill:rgb(100%,100%,100%);fill-opacity:1;" d="M 115.613281 340.089844 C 115.613281 340.21875 116.234375 340.324219 116.992188 340.324219 C 117.753906 340.324219 118.375 340.21875 118.375 340.089844 L 118.375 334.066406 C 118.375 333.9375 117.753906 333.835938 116.992188 333.835938 C 116.234375 333.835938 115.613281 333.9375 115.613281 334.066406 Z M 115.613281 340.089844 "/>
<path style=" stroke:none;fill-rule:nonzero;fill:rgb(100%,100%,100%);fill-opacity:1;" d="M 121.605469 340.089844 C 121.605469 340.21875 122.226562 340.324219 122.984375 340.324219 C 123.746094 340.324219 124.367188 340.21875 124.367188 340.089844 L 124.367188 334.066406 C 124.367188 333.9375 123.746094 333.835938 122.984375 333.835938 C 122.226562 333.835938 121.605469 333.9375 121.605469 334.066406 Z M 121.605469 340.089844 "/>
<path style=" stroke:none;fill-rule:nonzero;fill:rgb(100%,100%,100%);fill-opacity:1;" d="M 127.597656 340.089844 C 127.597656 340.21875 128.21875 340.324219 128.976562 340.324219 C 129.738281 340.324219 130.359375 340.21875 130.359375 340.089844 L 130.359375 334.066406 C 130.359375 333.9375 129.738281 333.835938 128.976562 333.835938 C 128.21875 333.835938 127.597656 333.9375 127.597656 334.066406 Z M 127.597656 340.089844 "/>
<path style=" stroke:none;fill-rule:nonzero;fill:rgb(100%,100%,100%);fill-opacity:1;" d="M 133.589844 340.089844 C 133.589844 340.21875 134.210938 340.324219 134.96875 340.324219 C 135.730469 340.324219 136.351562 340.21875 136.351562 340.089844 L 136.351562 334.066406 C 136.351562 333.9375 135.730469 333.835938 134.96875 333.835938 C 134.210938 333.835938 133.589844 333.9375 133.589844 334.066406 Z M 133.589844 340.089844 "/>
<path style=" stroke:none;fill-rule:nonzero;fill:rgb(100%,100%,100%);fill-opacity:1;" d="M 139.582031 340.089844 C 139.582031 340.21875 140.203125 340.324219 140.960938 340.324219 C 141.722656 340.324219 142.34375 340.21875 142.34375 340.089844 L 142.34375 334.066406 C 142.34375 333.9375 141.722656 333.835938 140.960938 333.835938 C 140.203125 333.835938 139.582031 333.9375 139.582031 334.066406 Z M 139.582031 340.089844 "/>
<path style=" stroke:none;fill-rule:nonzero;fill:rgb(90.196078%,90.196078%,90.196078%);fill-opacity:1;" d="M 1.785156 124.308594 C 1.542969 124.4375 1.453125 124.742188 1.582031 124.984375 L 26.511719 171.738281 C 26.640625 171.980469 26.941406 172.074219 27.1875 171.945312 L 62.425781 153.105469 C 62.667969 152.976562 62.761719 152.671875 62.628906 152.429688 L 37.703125 105.675781 C 37.570312 105.433594 37.269531 105.339844 37.027344 105.46875 Z M 1.785156 124.308594 "/>
<path style=" stroke:none;fill-rule:nonzero;fill:rgb(100%,100%,100%);fill-opacity:1;" d="M 5.0625 125.675781 L 27.875 168.457031 L 59.148438 151.738281 L 36.335938 108.957031 Z M 3.082031 126.734375 L 3.085938 126.730469 Z M 3.082031 126.734375 "/>
<path style=" stroke:none;fill-rule:nonzero;fill:rgb(38.823529%,59.607843%,100%);fill-opacity:1;" d="M 12.949219 130.378906 C 12.460938 130.636719 12.359375 131.398438 12.71875 132.070312 C 13.074219 132.742188 13.761719 133.078125 14.246094 132.816406 L 37.152344 120.570312 C 37.640625 120.3125 37.742188 119.554688 37.382812 118.882812 C 37.027344 118.210938 36.339844 117.875 35.855469 118.132812 Z M 12.949219 130.378906 "/>
<path style=" stroke:none;fill-rule:nonzero;fill:rgb(38.823529%,59.607843%,100%);fill-opacity:1;" d="M 15.769531 135.671875 C 15.285156 135.929688 15.179688 136.6875 15.539062 137.363281 C 15.898438 138.035156 16.585938 138.371094 17.070312 138.109375 L 39.976562 125.863281 C 40.460938 125.605469 40.566406 124.847656 40.207031 124.175781 C 39.847656 123.503906 39.160156 123.167969 38.675781 123.425781 Z M 15.769531 135.671875 "/>
<path style=" stroke:none;fill-rule:nonzero;fill:rgb(38.823529%,59.607843%,100%);fill-opacity:1;" d="M 18.59375 140.964844 C 18.105469 141.222656 18.003906 141.980469 18.359375 142.65625 C 18.71875 143.328125 19.40625 143.664062 19.890625 143.402344 L 42.796875 131.15625 C 43.285156 130.898438 43.386719 130.140625 43.027344 129.46875 C 42.671875 128.796875 41.984375 128.460938 41.496094 128.71875 Z M 18.59375 140.964844 "/>
<path style=" stroke:none;fill-rule:nonzero;fill:rgb(38.823529%,59.607843%,100%);fill-opacity:1;" d="M 21.414062 146.257812 C 20.929688 146.515625 20.824219 147.273438 21.183594 147.945312 C 21.542969 148.621094 22.226562 148.957031 22.714844 148.695312 L 45.621094 136.449219 C 46.105469 136.191406 46.210938 135.433594 45.851562 134.761719 C 45.492188 134.085938 44.804688 133.753906 44.320312 134.011719 Z M 21.414062 146.257812 "/>
<path style=" stroke:none;fill-rule:nonzero;fill:rgb(38.823529%,59.607843%,100%);fill-opacity:1;" d="M 24.238281 151.550781 C 23.75 151.808594 23.648438 152.566406 24.003906 153.238281 C 24.363281 153.914062 25.050781 154.246094 25.535156 153.988281 L 48.441406 141.742188 C 48.929688 141.484375 49.03125 140.726562 48.671875 140.054688 C 48.316406 139.378906 47.628906 139.046875 47.140625 139.304688 Z M 24.238281 151.550781 "/>
<path style=" stroke:none;fill-rule:nonzero;fill:rgb(38.823529%,59.607843%,100%);fill-opacity:1;" d="M 27.058594 156.84375 C 26.574219 157.101562 26.46875 157.859375 26.828125 158.53125 C 27.1875 159.203125 27.871094 159.539062 28.359375 159.28125 L 51.265625 147.035156 C 51.75 146.777344 51.851562 146.019531 51.496094 145.34375 C 51.136719 144.671875 50.449219 144.335938 49.964844 144.597656 Z M 27.058594 156.84375 "/>
<path style=" stroke:none;fill-rule:nonzero;fill:rgb(90.196078%,90.196078%,90.196078%);fill-opacity:1;" d="M 344.210938 243.789062 C 343.976562 243.648438 343.667969 243.726562 343.527344 243.964844 L 316.601562 289.59375 C 316.460938 289.828125 316.539062 290.136719 316.777344 290.277344 L 351.167969 310.625 C 351.40625 310.765625 351.710938 310.6875 351.851562 310.449219 L 378.78125 264.824219 C 378.917969 264.585938 378.839844 264.277344 378.601562 264.136719 Z M 344.210938 243.789062 "/>
<path style=" stroke:none;fill-rule:nonzero;fill:rgb(100%,100%,100%);fill-opacity:1;" d="M 344.75 247.300781 L 320.109375 289.054688 L 350.628906 307.113281 L 375.273438 265.359375 Z M 342.816406 246.15625 L 342.820312 246.15625 Z M 342.816406 246.15625 "/>
<path style=" stroke:none;fill-rule:nonzero;fill:rgb(38.823529%,59.607843%,100%);fill-opacity:1;" d="M 344.835938 256.488281 C 344.363281 256.210938 343.660156 256.515625 343.273438 257.171875 C 342.886719 257.828125 342.957031 258.589844 343.433594 258.871094 L 365.785156 272.097656 C 366.261719 272.378906 366.960938 272.070312 367.347656 271.414062 C 367.734375 270.761719 367.664062 270 367.191406 269.71875 Z M 344.835938 256.488281 "/>
<path style=" stroke:none;fill-rule:nonzero;fill:rgb(38.823529%,59.607843%,100%);fill-opacity:1;" d="M 341.789062 261.65625 C 341.3125 261.375 340.613281 261.679688 340.226562 262.335938 C 339.839844 262.992188 339.910156 263.753906 340.382812 264.035156 L 362.738281 277.261719 C 363.210938 277.542969 363.914062 277.238281 364.300781 276.582031 C 364.6875 275.925781 364.617188 275.164062 364.140625 274.882812 Z M 341.789062 261.65625 "/>
<path style=" stroke:none;fill-rule:nonzero;fill:rgb(38.823529%,59.607843%,100%);fill-opacity:1;" d="M 338.738281 266.820312 C 338.265625 266.539062 337.5625 266.847656 337.175781 267.5 C 336.789062 268.15625 336.859375 268.917969 337.335938 269.199219 L 359.6875 282.429688 C 360.164062 282.707031 360.863281 282.402344 361.25 281.746094 C 361.636719 281.089844 361.566406 280.328125 361.09375 280.046875 Z M 338.738281 266.820312 "/>
<path style=" stroke:none;fill-rule:nonzero;fill:rgb(38.823529%,59.607843%,100%);fill-opacity:1;" d="M 335.691406 271.988281 C 335.214844 271.707031 334.515625 272.011719 334.128906 272.667969 C 333.742188 273.324219 333.8125 274.085938 334.285156 274.367188 L 356.640625 287.59375 C 357.113281 287.875 357.816406 287.566406 358.203125 286.914062 C 358.589844 286.257812 358.519531 285.496094 358.042969 285.214844 Z M 335.691406 271.988281 "/>
<path style=" stroke:none;fill-rule:nonzero;fill:rgb(38.823529%,59.607843%,100%);fill-opacity:1;" d="M 332.640625 277.152344 C 332.167969 276.871094 331.46875 277.175781 331.078125 277.832031 C 330.691406 278.488281 330.761719 279.25 331.238281 279.53125 L 353.59375 292.757812 C 354.066406 293.039062 354.765625 292.734375 355.152344 292.078125 C 355.539062 291.421875 355.46875 290.660156 354.996094 290.378906 Z M 332.640625 277.152344 "/>
<path style=" stroke:none;fill-rule:nonzero;fill:rgb(38.823529%,59.607843%,100%);fill-opacity:1;" d="M 329.59375 282.316406 C 329.121094 282.035156 328.417969 282.34375 328.03125 283 C 327.644531 283.652344 327.714844 284.417969 328.1875 284.695312 L 350.542969 297.925781 C 351.019531 298.203125 351.71875 297.898438 352.105469 297.242188 C 352.492188 296.585938 352.421875 295.824219 351.949219 295.542969 Z M 329.59375 282.316406 "/>
</g>
</svg>
