<?xml version="1.0" encoding="UTF-8"?>
<svg xmlns="http://www.w3.org/2000/svg" xmlns:xlink="http://www.w3.org/1999/xlink" width="443pt" height="246pt" viewBox="0 0 443 246" version="1.1">
<defs>
<filter id="alpha" filterUnits="objectBoundingBox" x="0%" y="0%" width="100%" height="100%">
  <feColorMatrix type="matrix" in="SourceGraphic" values="0 0 0 0 1 0 0 0 0 1 0 0 0 0 1 0 0 0 1 0"/>
</filter>
<mask id="mask0">
  <g filter="url(#alpha)">
<rect x="0" y="0" width="443" height="246" style="fill:rgb(0%,0%,0%);fill-opacity:0.2;stroke:none;"/>
  </g>
</mask>
<clipPath id="clip1">
  <rect width="443" height="246"/>
</clipPath>
<g id="surface6" clip-path="url(#clip1)">
<path style=" stroke:none;fill-rule:nonzero;fill:rgb(0%,0%,0%);fill-opacity:1;" d="M 195.789062 129.839844 L 153.277344 129.839844 L 174.148438 99.527344 L 175.648438 97.34375 L 176.402344 96.25 L 178.292969 99.527344 Z M 195.789062 129.839844 "/>
</g>
</defs>
<g id="surface1">
<path style=" stroke:none;fill-rule:nonzero;fill:rgb(100%,39.607843%,51.764706%);fill-opacity:1;" d="M 141.578125 51.625 C 141.578125 65.640625 130.214844 77.003906 116.199219 77.003906 C 102.179688 77.003906 90.816406 65.640625 90.816406 51.625 C 90.816406 37.605469 102.179688 26.242188 116.199219 26.242188 C 130.214844 26.242188 141.578125 37.605469 141.578125 51.625 Z M 141.578125 51.625 "/>
<path style=" stroke:none;fill-rule:nonzero;fill:rgb(24.705882%,23.921569%,33.72549%);fill-opacity:1;" d="M 195.789062 129.839844 L 71.277344 129.839844 C 71.121094 129.839844 70.964844 129.828125 70.8125 129.800781 L 129.703125 27.796875 C 130.433594 26.503906 131.804688 25.707031 133.289062 25.707031 C 134.777344 25.707031 136.148438 26.503906 136.878906 27.796875 L 176.402344 96.25 L 178.292969 99.527344 Z M 195.789062 129.839844 "/>
<use xlink:href="#surface6" mask="url(#mask0)"/>
<path style=" stroke:none;fill-rule:nonzero;fill:rgb(24.705882%,23.921569%,33.72549%);fill-opacity:1;" d="M 265.117188 129.839844 L 157.425781 129.839844 L 178.292969 99.527344 L 179.796875 97.34375 L 206.988281 57.839844 C 208.773438 55.25 213.0625 55.089844 215.15625 57.351562 C 215.296875 57.503906 215.429688 57.667969 215.550781 57.839844 Z M 265.117188 129.839844 "/>
<path style=" stroke:none;fill-rule:nonzero;fill:rgb(38.823529%,59.607843%,100%);fill-opacity:1;" d="M 304.378906 105.410156 C 304.378906 109.632812 300.957031 113.058594 296.730469 113.058594 C 292.507812 113.058594 289.082031 109.632812 289.082031 105.410156 C 289.082031 101.1875 292.507812 97.761719 296.730469 97.761719 C 300.957031 97.761719 304.378906 101.1875 304.378906 105.410156 Z M 304.378906 105.410156 "/>
<path style=" stroke:none;fill-rule:nonzero;fill:rgb(24.705882%,23.921569%,33.72549%);fill-opacity:1;" d="M 297.46875 128.445312 L 295.902344 128.445312 L 296.617188 104.257812 Z M 297.46875 128.445312 "/>
<path style=" stroke:none;fill-rule:nonzero;fill:rgb(24.705882%,23.921569%,33.72549%);fill-opacity:1;" d="M 296.753906 108.84375 L 298.4375 106.515625 L 296.730469 109.417969 L 296.546875 109.097656 Z M 296.753906 108.84375 "/>
<path style=" stroke:none;fill-rule:nonzero;fill:rgb(24.705882%,23.921569%,33.72549%);fill-opacity:1;" d="M 296.570312 111.191406 L 294.886719 108.867188 L 296.59375 111.769531 L 296.777344 111.445312 Z M 296.570312 111.191406 "/>
<path style=" stroke:none;fill-rule:nonzero;fill:rgb(38.823529%,59.607843%,100%);fill-opacity:1;" d="M 374.539062 105.410156 C 374.539062 109.632812 371.113281 113.058594 366.890625 113.058594 C 362.667969 113.058594 359.242188 109.632812 359.242188 105.410156 C 359.242188 101.1875 362.667969 97.761719 366.890625 97.761719 C 371.113281 97.761719 374.539062 101.1875 374.539062 105.410156 Z M 374.539062 105.410156 "/>
<path style=" stroke:none;fill-rule:nonzero;fill:rgb(24.705882%,23.921569%,33.72549%);fill-opacity:1;" d="M 367.628906 128.445312 L 366.058594 128.445312 L 366.773438 104.257812 Z M 367.628906 128.445312 "/>
<path style=" stroke:none;fill-rule:nonzero;fill:rgb(24.705882%,23.921569%,33.72549%);fill-opacity:1;" d="M 366.914062 108.84375 L 368.59375 106.515625 L 366.890625 109.417969 L 366.707031 109.097656 Z M 366.914062 108.84375 "/>
<path style=" stroke:none;fill-rule:nonzero;fill:rgb(24.705882%,23.921569%,33.72549%);fill-opacity:1;" d="M 366.730469 111.191406 L 365.046875 108.867188 L 366.753906 111.769531 L 366.9375 111.445312 Z M 366.730469 111.191406 "/>
<path style=" stroke:none;fill-rule:nonzero;fill:rgb(38.823529%,59.607843%,100%);fill-opacity:1;" d="M 330.183594 94.421875 C 330.183594 100.660156 325.125 105.71875 318.886719 105.71875 C 312.648438 105.71875 307.589844 100.660156 307.589844 94.421875 C 307.589844 88.183594 312.648438 83.128906 318.886719 83.128906 C 325.125 83.128906 330.183594 88.183594 330.183594 94.421875 Z M 330.183594 94.421875 "/>
<path style=" stroke:none;fill-rule:nonzero;fill:rgb(24.705882%,23.921569%,33.72549%);fill-opacity:1;" d="M 319.976562 128.445312 L 317.664062 128.445312 L 318.71875 92.722656 Z M 319.976562 128.445312 "/>
<path style=" stroke:none;fill-rule:nonzero;fill:rgb(24.705882%,23.921569%,33.72549%);fill-opacity:1;" d="M 318.921875 99.492188 L 321.40625 96.054688 L 318.886719 100.34375 L 318.613281 99.867188 Z M 318.921875 99.492188 "/>
<path style=" stroke:none;fill-rule:nonzero;fill:rgb(24.705882%,23.921569%,33.72549%);fill-opacity:1;" d="M 318.648438 102.964844 L 316.164062 99.527344 L 318.683594 103.8125 L 318.957031 103.335938 Z M 318.648438 102.964844 "/>
<path style=" stroke:none;fill-rule:nonzero;fill:rgb(38.823529%,59.607843%,100%);fill-opacity:1;" d="M 357.730469 94.421875 C 357.730469 100.660156 352.671875 105.71875 346.433594 105.71875 C 340.195312 105.71875 335.136719 100.660156 335.136719 94.421875 C 335.136719 88.183594 340.195312 83.128906 346.433594 83.128906 C 352.671875 83.128906 357.730469 88.183594 357.730469 94.421875 Z M 357.730469 94.421875 "/>
<path style=" stroke:none;fill-rule:nonzero;fill:rgb(24.705882%,23.921569%,33.72549%);fill-opacity:1;" d="M 347.523438 128.445312 L 345.210938 128.445312 L 346.265625 92.722656 Z M 347.523438 128.445312 "/>
<path style=" stroke:none;fill-rule:nonzero;fill:rgb(24.705882%,23.921569%,33.72549%);fill-opacity:1;" d="M 346.46875 99.492188 L 348.953125 96.054688 L 346.433594 100.34375 L 346.160156 99.867188 Z M 346.46875 99.492188 "/>
<path style=" stroke:none;fill-rule:nonzero;fill:rgb(24.705882%,23.921569%,33.72549%);fill-opacity:1;" d="M 346.195312 102.964844 L 343.710938 99.527344 L 346.230469 103.8125 L 346.503906 103.335938 Z M 346.195312 102.964844 "/>
<path style=" stroke:none;fill-rule:nonzero;fill:rgb(38.823529%,59.607843%,100%);fill-opacity:1;" d="M 286.28125 94.421875 C 286.28125 100.660156 281.222656 105.71875 274.984375 105.71875 C 268.746094 105.71875 263.6875 100.660156 263.6875 94.421875 C 263.6875 88.183594 268.746094 83.128906 274.984375 83.128906 C 281.222656 83.128906 286.28125 88.183594 286.28125 94.421875 Z M 286.28125 94.421875 "/>
<path style=" stroke:none;fill-rule:nonzero;fill:rgb(24.705882%,23.921569%,33.72549%);fill-opacity:1;" d="M 276.074219 128.445312 L 273.757812 128.445312 L 274.816406 92.722656 Z M 276.074219 128.445312 "/>
<path style=" stroke:none;fill-rule:nonzero;fill:rgb(24.705882%,23.921569%,33.72549%);fill-opacity:1;" d="M 275.019531 99.492188 L 277.503906 96.054688 L 274.984375 100.34375 L 274.710938 99.867188 Z M 275.019531 99.492188 "/>
<path style=" stroke:none;fill-rule:nonzero;fill:rgb(24.705882%,23.921569%,33.72549%);fill-opacity:1;" d="M 274.746094 102.964844 L 272.261719 99.527344 L 274.78125 103.8125 L 275.050781 103.335938 Z M 274.746094 102.964844 "/>
<path style=" stroke:none;fill-rule:nonzero;fill:rgb(90.196078%,90.196078%,90.196078%);fill-opacity:1;" d="M 408.625 245.816406 L 39.992188 245.816406 C 20.460938 245.816406 4.625 229.980469 4.625 210.449219 C 4.625 190.914062 20.460938 175.082031 39.992188 175.082031 L 407.808594 175.082031 C 415.320312 175.082031 421.410156 168.992188 421.410156 161.480469 C 421.410156 153.964844 415.320312 147.875 407.808594 147.875 L 27.75 147.875 L 27.75 126.113281 L 407.808594 126.113281 C 427.339844 126.113281 443.175781 141.945312 443.175781 161.480469 C 443.175781 181.011719 427.339844 196.847656 407.808594 196.847656 L 39.992188 196.847656 C 32.480469 196.847656 26.390625 202.9375 26.390625 210.449219 C 26.390625 217.960938 32.480469 224.050781 39.992188 224.050781 L 408.625 224.050781 Z M 408.625 245.816406 "/>
<path style=" stroke:none;fill-rule:nonzero;fill:rgb(100%,100%,100%);fill-opacity:1;" d="M 41.351562 136.449219 L 58.21875 136.449219 L 58.21875 137.539062 L 41.351562 137.539062 Z M 41.351562 136.449219 "/>
<path style=" stroke:none;fill-rule:nonzero;fill:rgb(100%,100%,100%);fill-opacity:1;" d="M 89.234375 136.449219 L 106.101562 136.449219 L 106.101562 137.539062 L 89.234375 137.539062 Z M 89.234375 136.449219 "/>
<path style=" stroke:none;fill-rule:nonzero;fill:rgb(100%,100%,100%);fill-opacity:1;" d="M 137.113281 136.449219 L 153.984375 136.449219 L 153.984375 137.539062 L 137.113281 137.539062 Z M 137.113281 136.449219 "/>
<path style=" stroke:none;fill-rule:nonzero;fill:rgb(100%,100%,100%);fill-opacity:1;" d="M 184.996094 136.449219 L 201.863281 136.449219 L 201.863281 137.539062 L 184.996094 137.539062 Z M 184.996094 136.449219 "/>
<path style=" stroke:none;fill-rule:nonzero;fill:rgb(100%,100%,100%);fill-opacity:1;" d="M 232.878906 136.449219 L 249.746094 136.449219 L 249.746094 137.539062 L 232.878906 137.539062 Z M 232.878906 136.449219 "/>
<path style=" stroke:none;fill-rule:nonzero;fill:rgb(100%,100%,100%);fill-opacity:1;" d="M 280.757812 136.449219 L 297.625 136.449219 L 297.625 137.539062 L 280.757812 137.539062 Z M 280.757812 136.449219 "/>
<path style=" stroke:none;fill-rule:nonzero;fill:rgb(100%,100%,100%);fill-opacity:1;" d="M 328.640625 136.449219 L 345.507812 136.449219 L 345.507812 137.539062 L 328.640625 137.539062 Z M 328.640625 136.449219 "/>
<path style=" stroke:none;fill-rule:nonzero;fill:rgb(100%,100%,100%);fill-opacity:1;" d="M 376.523438 136.449219 L 393.390625 136.449219 L 393.390625 137.539062 L 376.523438 137.539062 Z M 376.523438 136.449219 "/>
<path style=" stroke:none;fill-rule:nonzero;fill:rgb(100%,100%,100%);fill-opacity:1;" d="M 41.351562 185.417969 L 58.21875 185.417969 L 58.21875 186.507812 L 41.351562 186.507812 Z M 41.351562 185.417969 "/>
<path style=" stroke:none;fill-rule:nonzero;fill:rgb(100%,100%,100%);fill-opacity:1;" d="M 89.234375 185.417969 L 106.101562 185.417969 L 106.101562 186.507812 L 89.234375 186.507812 Z M 89.234375 185.417969 "/>
<path style=" stroke:none;fill-rule:nonzero;fill:rgb(100%,100%,100%);fill-opacity:1;" d="M 137.113281 185.417969 L 153.984375 185.417969 L 153.984375 186.507812 L 137.113281 186.507812 Z M 137.113281 185.417969 "/>
<path style=" stroke:none;fill-rule:nonzero;fill:rgb(100%,100%,100%);fill-opacity:1;" d="M 184.996094 185.417969 L 201.863281 185.417969 L 201.863281 186.507812 L 184.996094 186.507812 Z M 184.996094 185.417969 "/>
<path style=" stroke:none;fill-rule:nonzero;fill:rgb(100%,100%,100%);fill-opacity:1;" d="M 232.878906 185.417969 L 249.746094 185.417969 L 249.746094 186.507812 L 232.878906 186.507812 Z M 232.878906 185.417969 "/>
<path style=" stroke:none;fill-rule:nonzero;fill:rgb(100%,100%,100%);fill-opacity:1;" d="M 280.757812 185.417969 L 297.625 185.417969 L 297.625 186.507812 L 280.757812 186.507812 Z M 280.757812 185.417969 "/>
<path style=" stroke:none;fill-rule:nonzero;fill:rgb(100%,100%,100%);fill-opacity:1;" d="M 328.640625 185.417969 L 345.507812 185.417969 L 345.507812 186.507812 L 328.640625 186.507812 Z M 328.640625 185.417969 "/>
<path style=" stroke:none;fill-rule:nonzero;fill:rgb(100%,100%,100%);fill-opacity:1;" d="M 376.523438 185.417969 L 393.390625 185.417969 L 393.390625 186.507812 L 376.523438 186.507812 Z M 376.523438 185.417969 "/>
<path style=" stroke:none;fill-rule:nonzero;fill:rgb(100%,100%,100%);fill-opacity:1;" d="M 41.351562 234.390625 L 58.21875 234.390625 L 58.21875 235.476562 L 41.351562 235.476562 Z M 41.351562 234.390625 "/>
<path style=" stroke:none;fill-rule:nonzero;fill:rgb(100%,100%,100%);fill-opacity:1;" d="M 89.234375 234.390625 L 106.101562 234.390625 L 106.101562 235.476562 L 89.234375 235.476562 Z M 89.234375 234.390625 "/>
<path style=" stroke:none;fill-rule:nonzero;fill:rgb(100%,100%,100%);fill-opacity:1;" d="M 137.113281 234.390625 L 153.984375 234.390625 L 153.984375 235.476562 L 137.113281 235.476562 Z M 137.113281 234.390625 "/>
<path style=" stroke:none;fill-rule:nonzero;fill:rgb(100%,100%,100%);fill-opacity:1;" d="M 184.996094 234.390625 L 201.863281 234.390625 L 201.863281 235.476562 L 184.996094 235.476562 Z M 184.996094 234.390625 "/>
<path style=" stroke:none;fill-rule:nonzero;fill:rgb(100%,100%,100%);fill-opacity:1;" d="M 232.878906 234.390625 L 249.746094 234.390625 L 249.746094 235.476562 L 232.878906 235.476562 Z M 232.878906 234.390625 "/>
<path style=" stroke:none;fill-rule:nonzero;fill:rgb(100%,100%,100%);fill-opacity:1;" d="M 280.757812 234.390625 L 297.625 234.390625 L 297.625 235.476562 L 280.757812 235.476562 Z M 280.757812 234.390625 "/>
<path style=" stroke:none;fill-rule:nonzero;fill:rgb(100%,100%,100%);fill-opacity:1;" d="M 328.640625 234.390625 L 345.507812 234.390625 L 345.507812 235.476562 L 328.640625 235.476562 Z M 328.640625 234.390625 "/>
<path style=" stroke:none;fill-rule:nonzero;fill:rgb(100%,100%,100%);fill-opacity:1;" d="M 376.523438 234.390625 L 393.390625 234.390625 L 393.390625 235.476562 L 376.523438 235.476562 Z M 376.523438 234.390625 "/>
<path style=" stroke:none;fill-rule:nonzero;fill:rgb(90.196078%,90.196078%,90.196078%);fill-opacity:1;" d="M 295.933594 43.1875 C 297.707031 43.183594 299.449219 43.636719 301 44.496094 L 290.882812 44.496094 C 292.425781 43.636719 294.164062 43.1875 295.933594 43.1875 Z M 295.933594 43.1875 "/>
<path style=" stroke:none;fill-rule:nonzero;fill:rgb(90.196078%,90.196078%,90.196078%);fill-opacity:1;" d="M 276.304688 41.878906 C 279.261719 41.875 282.152344 42.789062 284.570312 44.496094 L 268.046875 44.496094 C 270.464844 42.792969 273.347656 41.878906 276.304688 41.878906 Z M 276.304688 41.878906 "/>
<path style=" stroke:none;fill-rule:nonzero;fill:rgb(90.196078%,90.196078%,90.196078%);fill-opacity:1;" d="M 165.105469 25.3125 C 165.847656 12.203125 175.96875 1.554688 189.023438 0.152344 C 202.082031 -1.25 214.234375 7.003906 217.742188 19.65625 C 218.066406 19.644531 218.394531 19.628906 218.71875 19.628906 C 230.625 19.632812 241.105469 27.476562 244.460938 38.898438 C 252.359375 35.429688 261.605469 37.730469 266.960938 44.496094 L 183.273438 44.496094 C 178.339844 44.507812 173.613281 42.515625 170.183594 38.96875 C 166.753906 35.425781 164.914062 30.636719 165.085938 25.707031 C 165.09375 25.574219 165.097656 25.445312 165.105469 25.3125 Z M 165.105469 25.3125 "/>
<path style=" stroke:none;fill-rule:nonzero;fill:rgb(90.196078%,90.196078%,90.196078%);fill-opacity:1;" d="M 302.039062 62.773438 C 300.269531 62.773438 298.523438 63.222656 296.976562 64.082031 L 307.09375 64.082031 C 305.546875 63.222656 303.808594 62.773438 302.039062 62.773438 Z M 302.039062 62.773438 "/>
<path style=" stroke:none;fill-rule:nonzero;fill:rgb(90.196078%,90.196078%,90.196078%);fill-opacity:1;" d="M 321.671875 61.464844 C 318.710938 61.460938 315.824219 62.378906 313.402344 64.082031 L 329.925781 64.082031 C 327.511719 62.378906 324.628906 61.464844 321.671875 61.464844 Z M 321.671875 61.464844 "/>
<path style=" stroke:none;fill-rule:nonzero;fill:rgb(90.196078%,90.196078%,90.196078%);fill-opacity:1;" d="M 432.867188 44.898438 C 432.125 31.789062 422.003906 21.144531 408.949219 19.738281 C 395.894531 18.335938 383.742188 26.589844 380.230469 39.242188 C 379.90625 39.230469 379.582031 39.21875 379.253906 39.21875 C 367.347656 39.21875 356.867188 47.066406 353.511719 58.488281 C 345.613281 55.015625 336.367188 57.316406 331.015625 64.082031 L 414.699219 64.082031 C 419.632812 64.097656 424.359375 62.101562 427.789062 58.558594 C 431.222656 55.011719 433.0625 50.226562 432.886719 45.296875 C 432.882812 45.164062 432.875 45.03125 432.867188 44.898438 Z M 432.867188 44.898438 "/>
<path style=" stroke:none;fill-rule:nonzero;fill:rgb(24.705882%,23.921569%,33.72549%);fill-opacity:1;" d="M 386.800781 230.613281 L 377.074219 230.605469 L 377.078125 229.0625 L 386.804688 229.066406 Z M 386.800781 230.613281 "/>
<path style=" stroke:none;fill-rule:nonzero;fill:rgb(38.823529%,59.607843%,100%);fill-opacity:1;" d="M 306.753906 229.410156 L 308.761719 229.875 L 385.027344 229.914062 L 385.710938 228.316406 C 386.910156 225.578125 387.320312 222.558594 386.898438 219.597656 C 386.570312 217.390625 385.746094 215.199219 383.878906 214.246094 L 380.492188 191.703125 L 338.296875 191.628906 L 321.972656 204.792969 C 321.972656 204.792969 314.273438 204.65625 310.089844 209.863281 C 308.582031 211.800781 307.6875 214.148438 307.53125 216.597656 L 307.367188 219.304688 Z M 306.753906 229.410156 "/>
<path style=" stroke:none;fill-rule:nonzero;fill:rgb(24.705882%,23.921569%,33.72549%);fill-opacity:1;" d="M 332.921875 229.035156 C 332.921875 234.234375 328.707031 238.453125 323.503906 238.453125 C 318.304688 238.453125 314.085938 234.234375 314.085938 229.035156 C 314.085938 223.832031 318.304688 219.617188 323.503906 219.617188 C 328.707031 219.617188 332.921875 223.832031 332.921875 229.035156 Z M 332.921875 229.035156 "/>
<path style=" stroke:none;fill-rule:nonzero;fill:rgb(80%,80%,80%);fill-opacity:1;" d="M 328.460938 229.035156 C 328.460938 231.769531 326.242188 233.992188 323.503906 233.992188 C 320.765625 233.992188 318.546875 231.769531 318.546875 229.035156 C 318.546875 226.296875 320.765625 224.078125 323.503906 224.078125 C 326.242188 224.078125 328.460938 226.296875 328.460938 229.035156 Z M 328.460938 229.035156 "/>
<path style=" stroke:none;fill-rule:nonzero;fill:rgb(24.705882%,23.921569%,33.72549%);fill-opacity:1;" d="M 379.390625 229.058594 C 379.390625 234.257812 375.175781 238.476562 369.976562 238.476562 C 364.773438 238.476562 360.558594 234.257812 360.558594 229.058594 C 360.558594 223.859375 364.773438 219.640625 369.976562 219.640625 C 375.175781 219.640625 379.390625 223.859375 379.390625 229.058594 Z M 379.390625 229.058594 "/>
<path style=" stroke:none;fill-rule:nonzero;fill:rgb(80%,80%,80%);fill-opacity:1;" d="M 374.929688 229.058594 C 374.929688 231.796875 372.710938 234.015625 369.976562 234.015625 C 367.238281 234.015625 365.019531 231.796875 365.019531 229.058594 C 365.019531 226.320312 367.238281 224.101562 369.976562 224.101562 C 372.710938 224.101562 374.929688 226.320312 374.929688 229.058594 Z M 374.929688 229.058594 "/>
<path style=" stroke:none;fill-rule:nonzero;fill:rgb(100%,100%,100%);fill-opacity:1;" d="M 328.460938 203.253906 L 351.242188 203.265625 L 354.023438 203.265625 L 358.71875 203.269531 L 358.71875 202.925781 L 358.722656 198.796875 L 358.722656 194.160156 L 355.601562 194.160156 L 352.820312 194.15625 L 345.113281 194.15625 L 339.425781 194.152344 Z M 328.460938 203.253906 "/>
<path style=" stroke:none;fill-rule:nonzero;fill:rgb(100%,100%,100%);fill-opacity:1;" d="M 362.425781 203.273438 L 374.464844 203.277344 L 374.46875 200.914062 L 374.46875 196.785156 L 374.472656 194.171875 L 372.707031 194.171875 L 369.925781 194.167969 L 362.429688 194.164062 Z M 362.425781 203.273438 "/>
<path style=" stroke:none;fill-rule:nonzero;fill:rgb(24.705882%,23.921569%,33.72549%);fill-opacity:1;" d="M 358.714844 212.996094 L 357.167969 212.996094 L 357.171875 210.0625 L 358.714844 210.0625 Z M 358.714844 212.996094 "/>
<path style=" stroke:none;fill-rule:nonzero;fill:rgb(24.705882%,23.921569%,33.72549%);fill-opacity:1;" d="M 334.632812 205.882812 L 334.632812 207.425781 L 331.699219 207.425781 L 331.699219 205.878906 Z M 334.632812 205.882812 "/>
<path style=" stroke:none;fill-rule:nonzero;fill:rgb(24.705882%,23.921569%,33.72549%);fill-opacity:1;" d="M 333.550781 206.558594 L 333.382812 206.558594 C 331.601562 206.558594 330.15625 205.113281 330.15625 203.332031 C 330.15625 201.550781 331.601562 200.105469 333.386719 200.105469 L 333.554688 200.105469 Z M 333.550781 206.558594 "/>
<path style=" stroke:none;fill-rule:nonzero;fill:rgb(24.705882%,23.921569%,33.72549%);fill-opacity:1;" d="M 307.367188 219.304688 C 309.777344 219.570312 312.027344 218.058594 312.699219 215.730469 C 313.371094 213.402344 312.269531 210.925781 310.089844 209.863281 C 308.582031 211.800781 307.6875 214.148438 307.53125 216.597656 Z M 307.367188 219.304688 "/>
<path style=" stroke:none;fill-rule:nonzero;fill:rgb(94.901961%,94.901961%,94.901961%);fill-opacity:1;" d="M 352.820312 194.15625 L 358.71875 202.925781 L 358.722656 198.796875 L 355.601562 194.160156 Z M 352.820312 194.15625 "/>
<path style=" stroke:none;fill-rule:nonzero;fill:rgb(94.901961%,94.901961%,94.901961%);fill-opacity:1;" d="M 369.925781 194.167969 L 374.46875 200.914062 L 374.46875 196.785156 L 372.707031 194.171875 Z M 369.925781 194.167969 "/>
<path style=" stroke:none;fill-rule:nonzero;fill:rgb(94.901961%,94.901961%,94.901961%);fill-opacity:1;" d="M 345.113281 194.15625 L 351.242188 203.265625 L 354.023438 203.265625 L 347.894531 194.15625 Z M 345.113281 194.15625 "/>
<path style=" stroke:none;fill-rule:nonzero;fill:rgb(24.705882%,23.921569%,33.72549%);fill-opacity:1;" d="M 50.058594 130.464844 C 50.058594 144.289062 38.851562 155.492188 25.027344 155.492188 C 11.207031 155.492188 0 144.289062 0 130.464844 C 0 116.640625 11.207031 105.4375 25.027344 105.4375 C 38.851562 105.4375 50.058594 116.640625 50.058594 130.464844 Z M 50.058594 130.464844 "/>
<path style=" stroke:none;fill-rule:nonzero;fill:rgb(38.823529%,59.607843%,100%);fill-opacity:1;" d="M 25.132812 138 L 12.609375 125.472656 C 11.757812 124.625 11.761719 123.246094 12.609375 122.398438 C 13.457031 121.546875 14.835938 121.546875 15.6875 122.394531 L 24.925781 131.636719 L 54.40625 98.015625 C 55.199219 97.113281 56.574219 97.023438 57.476562 97.816406 C 58.378906 98.609375 58.46875 99.980469 57.679688 100.886719 Z M 25.132812 138 "/>
</g>
</svg>
