<?xml version="1.0" encoding="UTF-8"?>
<svg xmlns="http://www.w3.org/2000/svg" xmlns:xlink="http://www.w3.org/1999/xlink" width="444pt" height="212pt" viewBox="0 0 444 212" version="1.1">
<defs>
<filter id="alpha" filterUnits="objectBoundingBox" x="0%" y="0%" width="100%" height="100%">
  <feColorMatrix type="matrix" in="SourceGraphic" values="0 0 0 0 1 0 0 0 0 1 0 0 0 0 1 0 0 0 1 0"/>
</filter>
<mask id="mask0">
  <g filter="url(#alpha)">
<rect x="0" y="0" width="444" height="212" style="fill:rgb(0%,0%,0%);fill-opacity:0.101961;stroke:none;"/>
  </g>
</mask>
<clipPath id="clip1">
  <rect width="444" height="212"/>
</clipPath>
<g id="surface6" clip-path="url(#clip1)">
<path style=" stroke:none;fill-rule:nonzero;fill:rgb(0%,0%,0%);fill-opacity:1;" d="M 384.230469 184.734375 C 384.210938 185.832031 384.097656 186.925781 383.886719 188 C 383.421875 190.316406 382.796875 192.597656 382.015625 194.824219 L 368.703125 194.824219 C 369.113281 190.621094 369.238281 186.394531 369.078125 182.175781 C 369.054688 181.554688 369.019531 180.925781 368.96875 180.300781 L 368.96875 180.289062 C 368.933594 179.75 368.890625 179.210938 368.835938 178.671875 C 368.753906 178.046875 368.785156 177.410156 368.933594 176.800781 L 368.933594 176.789062 C 369.042969 176.324219 369.296875 175.90625 369.660156 175.601562 C 369.71875 175.550781 369.78125 175.503906 369.851562 175.464844 C 369.910156 175.425781 369.972656 175.390625 370.039062 175.363281 C 370.101562 175.332031 370.164062 175.304688 370.230469 175.28125 C 370.75 175.109375 371.304688 175.058594 371.851562 175.140625 C 372.367188 175.203125 372.875 175.316406 373.371094 175.484375 C 375.574219 176.292969 377.632812 177.449219 379.464844 178.914062 C 380.683594 179.832031 381.804688 180.875 382.808594 182.023438 C 383.691406 183.066406 384.230469 184.023438 384.230469 184.734375 Z M 384.230469 184.734375 "/>
</g>
</defs>
<g id="surface1">
<path style=" stroke:none;fill-rule:nonzero;fill:rgb(90.196078%,90.196078%,90.196078%);fill-opacity:1;" d="M 221.375 177.195312 L 219.199219 179.425781 L 218.988281 175 L 218.730469 181.53125 L 216.722656 179.476562 L 218.710938 181.984375 L 218.054688 198.5 L 220.109375 198.5 L 219.222656 179.910156 Z M 221.375 177.195312 "/>
<path style=" stroke:none;fill-rule:nonzero;fill:rgb(90.196078%,90.196078%,90.196078%);fill-opacity:1;" d="M 225.425781 182.695312 L 223.25 184.925781 L 223.039062 180.5 L 222.777344 187.03125 L 220.773438 184.976562 L 222.761719 187.484375 L 222.101562 204 L 224.15625 204 L 223.273438 185.410156 Z M 225.425781 182.695312 "/>
<path style=" stroke:none;fill-rule:nonzero;fill:rgb(90.196078%,90.196078%,90.196078%);fill-opacity:1;" d="M 231.5 179.695312 L 229.324219 181.925781 L 229.113281 177.5 L 228.851562 184.03125 L 226.847656 181.976562 L 228.835938 184.484375 L 228.175781 201 L 230.230469 201 L 229.347656 182.410156 Z M 231.5 179.695312 "/>
<path style=" stroke:none;fill-rule:nonzero;fill:rgb(90.196078%,90.196078%,90.196078%);fill-opacity:1;" d="M 216.652344 182.195312 L 214.476562 184.425781 L 214.265625 180 L 214.003906 186.53125 L 212 184.476562 L 213.988281 186.984375 L 213.328125 203.5 L 215.382812 203.5 L 214.5 184.910156 Z M 216.652344 182.195312 "/>
<path style=" stroke:none;fill-rule:nonzero;fill:rgb(90.196078%,90.196078%,90.196078%);fill-opacity:1;" d="M 6.5 0 L 170.5 0 L 170.5 210 L 6.5 210 Z M 6.5 0 "/>
<path style=" stroke:none;fill-rule:nonzero;fill:rgb(100%,100%,100%);fill-opacity:1;" d="M 17.386719 12.664062 L 159.273438 12.664062 L 159.273438 102.496094 L 17.386719 102.496094 Z M 17.386719 12.664062 "/>
<path style=" stroke:none;fill-rule:nonzero;fill:rgb(100%,100%,100%);fill-opacity:1;" d="M 17.386719 98.808594 L 159.273438 98.808594 L 159.273438 195.089844 L 17.386719 195.089844 Z M 17.386719 98.808594 "/>
<path style=" stroke:none;fill-rule:nonzero;fill:rgb(24.705882%,23.921569%,33.72549%);fill-opacity:1;" d="M 84.644531 12.203125 L 92.015625 12.203125 L 92.015625 102.496094 L 84.644531 102.496094 Z M 84.644531 12.203125 "/>
<path style=" stroke:none;fill-rule:nonzero;fill:rgb(24.705882%,23.921569%,33.72549%);fill-opacity:1;" d="M 151.902344 12.203125 L 159.273438 12.203125 L 159.273438 102.496094 L 151.902344 102.496094 Z M 151.902344 12.203125 "/>
<path style=" stroke:none;fill-rule:nonzero;fill:rgb(24.705882%,23.921569%,33.72549%);fill-opacity:1;" d="M 17.386719 95.125 L 159.273438 95.125 L 159.273438 102.496094 L 17.386719 102.496094 Z M 17.386719 95.125 "/>
<path style=" stroke:none;fill-rule:nonzero;fill:rgb(100%,100%,100%);fill-opacity:1;" d="M 37.4375 61.035156 L 24.757812 69.558594 L 24.757812 76.609375 L 43.96875 61.035156 Z M 37.4375 61.035156 "/>
<path style=" stroke:none;fill-rule:nonzero;fill:rgb(90.196078%,90.196078%,90.196078%);fill-opacity:1;" d="M 58.332031 61.035156 L 24.757812 87.316406 L 24.757812 93.324219 L 68.515625 61.035156 Z M 58.332031 61.035156 "/>
<path style=" stroke:none;fill-rule:nonzero;fill:rgb(24.705882%,23.921569%,33.72549%);fill-opacity:1;" d="M 17.386719 12.203125 L 24.757812 12.203125 L 24.757812 102.496094 L 17.386719 102.496094 Z M 17.386719 12.203125 "/>
<path style=" stroke:none;fill-rule:nonzero;fill:rgb(90.196078%,90.196078%,90.196078%);fill-opacity:1;" d="M 138.773438 19.574219 L 110.441406 55.503906 L 119.195312 56.425781 L 143.609375 18.191406 Z M 138.773438 19.574219 "/>
<path style=" stroke:none;fill-rule:nonzero;fill:rgb(24.705882%,23.921569%,33.72549%);fill-opacity:1;" d="M 17.386719 12.203125 L 159.273438 12.203125 L 159.273438 19.574219 L 17.386719 19.574219 Z M 17.386719 12.203125 "/>
<path style=" stroke:none;fill-rule:nonzero;fill:rgb(24.705882%,23.921569%,33.72549%);fill-opacity:1;" d="M 17.386719 53.664062 L 159.273438 53.664062 L 159.273438 61.035156 L 17.386719 61.035156 Z M 17.386719 53.664062 "/>
<path style=" stroke:none;fill-rule:nonzero;fill:rgb(90.196078%,90.196078%,90.196078%);fill-opacity:1;" d="M 275 0 L 439 0 L 439 210 L 275 210 Z M 275 0 "/>
<path style=" stroke:none;fill-rule:nonzero;fill:rgb(100%,100%,100%);fill-opacity:1;" d="M 285.875 12.398438 L 427.761719 12.398438 L 427.761719 102.230469 L 285.875 102.230469 Z M 285.875 12.398438 "/>
<path style=" stroke:none;fill-rule:nonzero;fill:rgb(100%,100%,100%);fill-opacity:1;" d="M 285.875 98.546875 L 427.761719 98.546875 L 427.761719 194.824219 L 285.875 194.824219 Z M 285.875 98.546875 "/>
<path style=" stroke:none;fill-rule:nonzero;fill:rgb(24.705882%,23.921569%,33.72549%);fill-opacity:1;" d="M 353.132812 11.9375 L 360.503906 11.9375 L 360.503906 102.230469 L 353.132812 102.230469 Z M 353.132812 11.9375 "/>
<path style=" stroke:none;fill-rule:nonzero;fill:rgb(24.705882%,23.921569%,33.72549%);fill-opacity:1;" d="M 420.390625 11.9375 L 427.761719 11.9375 L 427.761719 102.230469 L 420.390625 102.230469 Z M 420.390625 11.9375 "/>
<path style=" stroke:none;fill-rule:nonzero;fill:rgb(24.705882%,23.921569%,33.72549%);fill-opacity:1;" d="M 285.875 94.859375 L 427.761719 94.859375 L 427.761719 102.230469 L 285.875 102.230469 Z M 285.875 94.859375 "/>
<path style=" stroke:none;fill-rule:nonzero;fill:rgb(90.196078%,90.196078%,90.196078%);fill-opacity:1;" d="M 305.925781 60.769531 L 293.246094 69.292969 L 293.246094 76.34375 L 312.457031 60.769531 Z M 305.925781 60.769531 "/>
<path style=" stroke:none;fill-rule:nonzero;fill:rgb(90.196078%,90.196078%,90.196078%);fill-opacity:1;" d="M 326.820312 60.769531 L 293.246094 87.054688 L 293.246094 93.058594 L 337.003906 60.769531 Z M 326.820312 60.769531 "/>
<path style=" stroke:none;fill-rule:nonzero;fill:rgb(24.705882%,23.921569%,33.72549%);fill-opacity:1;" d="M 285.875 11.9375 L 293.246094 11.9375 L 293.246094 102.230469 L 285.875 102.230469 Z M 285.875 11.9375 "/>
<path style=" stroke:none;fill-rule:nonzero;fill:rgb(90.196078%,90.196078%,90.196078%);fill-opacity:1;" d="M 407.261719 19.308594 L 378.929688 55.242188 L 387.683594 56.164062 L 412.097656 17.925781 Z M 407.261719 19.308594 "/>
<path style=" stroke:none;fill-rule:nonzero;fill:rgb(24.705882%,23.921569%,33.72549%);fill-opacity:1;" d="M 285.875 11.9375 L 427.761719 11.9375 L 427.761719 19.308594 L 285.875 19.308594 Z M 285.875 11.9375 "/>
<path style=" stroke:none;fill-rule:nonzero;fill:rgb(24.705882%,23.921569%,33.72549%);fill-opacity:1;" d="M 285.875 53.398438 L 427.761719 53.398438 L 427.761719 60.769531 L 285.875 60.769531 Z M 285.875 53.398438 "/>
<path style=" stroke:none;fill-rule:nonzero;fill:rgb(18.431373%,18.039216%,25.490196%);fill-opacity:1;" d="M 353.679688 120.371094 C 353.679688 120.371094 354.21875 122.171875 351.160156 123.789062 C 348.101562 125.410156 347.203125 131.527344 350.800781 133.324219 C 354.398438 135.125 355.480469 137.464844 353.679688 139.082031 C 351.878906 140.703125 348.640625 145.019531 352.960938 146.101562 C 357.277344 147.179688 357.816406 149.339844 356.558594 150.238281 C 355.300781 151.136719 359.4375 148.621094 359.4375 148.621094 C 359.4375 148.621094 360.15625 152.9375 363.933594 151.859375 C 367.714844 150.777344 378.328125 130.265625 372.929688 127.390625 C 367.535156 124.511719 353.679688 120.371094 353.679688 120.371094 Z M 353.679688 120.371094 "/>
<path style=" stroke:none;fill-rule:nonzero;fill:rgb(100%,72.54902%,72.54902%);fill-opacity:1;" d="M 348.769531 161.40625 L 331.507812 173.535156 C 331.507812 173.535156 318.441406 160.003906 318.441406 152.074219 C 318.441406 144.140625 311.445312 129.210938 308.179688 135.277344 C 304.910156 141.34375 311.910156 155.804688 311.910156 155.804688 L 324.976562 186.601562 C 324.976562 186.601562 332.441406 188 336.640625 184.734375 C 340.839844 181.46875 352.503906 174.9375 352.503906 174.9375 Z M 348.769531 161.40625 "/>
<path style=" stroke:none;fill-rule:nonzero;fill:rgb(100%,72.54902%,72.54902%);fill-opacity:1;" d="M 378.863281 128.046875 C 378.863281 135.261719 373.015625 141.109375 365.800781 141.109375 C 358.585938 141.109375 352.734375 135.261719 352.734375 128.046875 C 352.734375 120.828125 358.585938 114.980469 365.800781 114.980469 C 373.015625 114.980469 378.863281 120.828125 378.863281 128.046875 Z M 378.863281 128.046875 "/>
<path style=" stroke:none;fill-rule:nonzero;fill:rgb(100%,72.54902%,72.54902%);fill-opacity:1;" d="M 359.035156 137.144531 C 359.035156 137.144531 363.699219 149.273438 361.835938 152.074219 C 359.96875 154.875 357.636719 154.875 355.769531 155.804688 C 354.835938 156.273438 345.039062 160.003906 345.039062 162.804688 C 345.082031 164.605469 345.5625 166.363281 346.4375 167.9375 L 347.835938 175.867188 L 359.5 183.335938 L 374.898438 181.46875 L 386.5625 174.9375 C 386.5625 174.9375 388.429688 157.671875 383.296875 154.875 C 378.164062 152.074219 372.097656 145.542969 372.566406 143.207031 C 373.03125 140.875 373.5 135.277344 373.5 135.277344 Z M 359.035156 137.144531 "/>
<path style=" stroke:none;fill-rule:nonzero;fill:rgb(38.823529%,59.607843%,100%);fill-opacity:1;" d="M 383.765625 172.605469 L 383.765625 172.621094 L 383.34375 176.738281 L 382.808594 182.023438 L 382.199219 188 L 381.511719 194.824219 L 347.699219 194.824219 C 347.246094 191.09375 346.441406 187.140625 345.035156 184.734375 C 344.152344 183.304688 343.757812 181.625 343.914062 179.949219 C 344.230469 176.824219 346.433594 174.644531 346.433594 174.003906 C 346.433594 173.304688 342.503906 169.199219 340.539062 167.183594 C 339.878906 166.511719 339.441406 166.070312 339.441406 166.070312 L 345.503906 161.40625 L 345.589844 161.550781 L 346.441406 163.039062 L 349.234375 167.933594 L 348.304688 171.671875 C 348.304688 171.671875 349.75 171.921875 351.761719 172.238281 C 355.234375 172.785156 360.40625 173.535156 362.765625 173.535156 C 364.953125 173.535156 367.628906 174.660156 369.839844 175.304688 C 369.910156 175.324219 369.976562 175.34375 370.039062 175.363281 C 371.429688 175.753906 372.621094 175.933594 373.371094 175.484375 C 373.414062 175.460938 373.457031 175.429688 373.5 175.398438 C 373.890625 175.136719 374.316406 174.921875 374.761719 174.765625 L 374.765625 174.765625 C 376.382812 174.191406 378.035156 173.734375 379.714844 173.394531 C 381.605469 172.980469 383.265625 172.691406 383.671875 172.621094 C 383.671875 172.617188 383.671875 172.617188 383.675781 172.617188 C 383.675781 172.617188 383.679688 172.617188 383.679688 172.621094 C 383.734375 172.609375 383.765625 172.605469 383.765625 172.605469 Z M 383.765625 172.605469 "/>
<path style=" stroke:none;fill-rule:nonzero;fill:rgb(100%,72.54902%,72.54902%);fill-opacity:1;" d="M 385.21875 171.894531 C 385.183594 172.144531 385.15625 172.398438 385.125 172.648438 C 384.980469 173.75 384.859375 174.851562 384.753906 175.949219 C 384.464844 178.871094 384.289062 181.796875 384.230469 184.734375 C 384.210938 185.832031 384.097656 186.925781 383.886719 188 C 383.421875 190.316406 382.796875 192.597656 382.015625 194.824219 L 368.804688 194.824219 C 369.15625 192.226562 369.625 188.226562 369.855469 184.035156 L 369.855469 184.03125 C 369.890625 183.378906 369.914062 182.726562 369.941406 182.070312 C 370.027344 179.867188 369.996094 177.664062 369.851562 175.464844 C 369.84375 175.410156 369.84375 175.355469 369.839844 175.304688 C 369.816406 175.019531 369.789062 174.746094 369.765625 174.46875 C 368.835938 165.140625 374.429688 154.875 374.429688 154.875 C 376.324219 154.875 378.175781 155.921875 379.824219 157.359375 C 383.914062 161.015625 385.933594 166.457031 385.21875 171.894531 Z M 385.21875 171.894531 "/>
<use xlink:href="#surface6" mask="url(#mask0)"/>
<path style=" stroke:none;fill-rule:nonzero;fill:rgb(38.823529%,59.607843%,100%);fill-opacity:1;" d="M 368.367188 177.734375 L 369.855469 184.035156 L 378.164062 188 L 385.164062 188 L 388.429688 173.070312 C 388.429688 173.070312 382.664062 171.851562 379.714844 173.394531 C 376.765625 174.9375 369.839844 175.304688 369.839844 175.304688 Z M 368.367188 177.734375 "/>
<path style=" stroke:none;fill-rule:nonzero;fill:rgb(18.431373%,18.039216%,25.490196%);fill-opacity:1;" d="M 365.90625 114.933594 C 365.90625 114.933594 366.503906 116.925781 363.117188 118.71875 C 359.726562 120.515625 358.730469 127.289062 362.71875 129.285156 C 366.703125 131.277344 367.898438 133.867188 365.90625 135.660156 C 363.914062 137.457031 360.324219 142.238281 365.109375 143.433594 C 369.894531 144.628906 370.492188 147.023438 369.097656 148.019531 C 367.699219 149.015625 372.285156 146.226562 372.285156 146.226562 C 372.285156 146.226562 373.082031 151.007812 377.269531 149.8125 C 381.453125 148.617188 385.628906 126.878906 380.964844 121.28125 C 376.625 116.074219 365.90625 114.933594 365.90625 114.933594 Z M 365.90625 114.933594 "/>
<path style=" stroke:none;fill-rule:nonzero;fill:rgb(18.431373%,18.039216%,25.490196%);fill-opacity:1;" d="M 364.632812 112.882812 C 364.632812 109.960938 382.785156 113.167969 386.527344 117.242188 C 389.121094 120.066406 393.0625 124.316406 389.761719 127.308594 C 386.460938 130.304688 386.007812 133.121094 388.410156 134.3125 C 390.8125 135.5 395.558594 139.140625 391.273438 141.582031 C 386.988281 144.023438 387.058594 146.488281 388.671875 147.070312 C 390.28125 147.652344 385.117188 146.203125 385.117188 146.203125 C 385.117188 146.203125 385.636719 151.023438 381.285156 151 C 376.933594 150.976562 364.445312 127.054688 367.425781 120.40625 C 370.199219 114.222656 364.632812 112.882812 364.632812 112.882812 Z M 364.632812 112.882812 "/>
<path style=" stroke:none;fill-rule:nonzero;fill:rgb(18.431373%,18.039216%,25.490196%);fill-opacity:1;" d="M 366.527344 112.242188 C 354.84375 111.539062 353.671875 120.332031 353.671875 120.332031 C 353.75 125.421875 361.832031 122.941406 364.078125 123.699219 C 366.785156 121.75 372.003906 118.066406 375.738281 115.433594 C 373.027344 113.527344 369.835938 112.421875 366.527344 112.242188 Z M 366.527344 112.242188 "/>
<path style=" stroke:none;fill-rule:nonzero;fill:rgb(90.196078%,90.196078%,90.196078%);fill-opacity:1;" d="M 208.085938 192 L 209 197.75 C 209 204.792969 214.707031 210.5 221.75 210.5 C 228.792969 210.5 234.5 204.792969 234.5 197.75 L 234.507812 197.671875 L 235.414062 192 Z M 208.085938 192 "/>
<path style=" stroke:none;fill-rule:nonzero;fill:rgb(24.705882%,23.921569%,33.72549%);fill-opacity:1;" d="M 0 209.917969 L 444 209.917969 L 444 210.917969 L 0 210.917969 Z M 0 209.917969 "/>
<path style=" stroke:none;fill-rule:nonzero;fill:rgb(61.960784%,38.039216%,41.568627%);fill-opacity:1;" d="M 46.117188 193.714844 L 46.117188 196.652344 C 46.117188 196.652344 44.15625 211.839844 38.769531 211.839844 C 33.378906 211.839844 37.789062 196.164062 37.789062 196.164062 L 37.789062 193.714844 Z M 46.117188 193.714844 "/>
<path style=" stroke:none;fill-rule:nonzero;fill:rgb(61.960784%,38.039216%,41.568627%);fill-opacity:1;" d="M 127.925781 138.359375 L 126.945312 135.910156 C 126.945312 135.910156 120.578125 126.601562 124.984375 124.152344 C 129.394531 121.703125 134.785156 133.949219 134.785156 133.949219 L 135.761719 137.871094 Z M 127.925781 138.359375 "/>
<path style=" stroke:none;fill-rule:nonzero;fill:rgb(61.960784%,38.039216%,41.568627%);fill-opacity:1;" d="M 120.527344 122.4375 C 120.527344 129.578125 114.738281 135.367188 107.59375 135.367188 C 100.453125 135.367188 94.664062 129.578125 94.664062 122.4375 C 94.664062 115.296875 100.453125 109.507812 107.59375 109.507812 C 114.738281 109.507812 120.527344 115.296875 120.527344 122.4375 Z M 120.527344 122.4375 "/>
<path style=" stroke:none;fill-rule:nonzero;fill:rgb(61.960784%,38.039216%,41.568627%);fill-opacity:1;" d="M 98.289062 123.90625 L 89.472656 130.765625 L 101.71875 141.054688 L 108.574219 132.726562 Z M 98.289062 123.90625 "/>
<path style=" stroke:none;fill-rule:nonzero;fill:rgb(38.823529%,59.607843%,100%);fill-opacity:1;" d="M 106.335938 195.089844 L 61.304688 195.089844 L 64.71875 158.875 L 67.253906 131.980469 L 67.253906 131.976562 C 67.363281 130.808594 67.933594 129.734375 68.835938 128.988281 C 69.738281 128.246094 70.898438 127.886719 72.066406 128 L 90.75 129.769531 L 104.5 137.675781 L 104.898438 141.300781 L 118.621094 151.09375 L 109.296875 168.835938 L 103.429688 180 Z M 106.335938 195.089844 "/>
<path style=" stroke:none;fill-rule:nonzero;fill:rgb(38.823529%,59.607843%,100%);fill-opacity:1;" d="M 67.671875 155.015625 L 54.933594 171.671875 L 47.097656 195.183594 L 35.339844 195.183594 L 43.667969 160.402344 L 65.648438 130.347656 C 66.8125 128.765625 68.871094 128.136719 70.71875 128.804688 C 71 128.917969 71.289062 129 71.589844 129.050781 Z M 67.671875 155.015625 "/>
<path style=" stroke:none;fill-rule:nonzero;fill:rgb(38.823529%,59.607843%,100%);fill-opacity:1;" d="M 107.839844 168.242188 L 138.457031 180.734375 L 143.84375 175.34375 L 136.253906 135.910156 L 126.457031 137.871094 L 130.375 161.382812 L 118.617188 151.097656 L 114.699219 150.117188 Z M 107.839844 168.242188 "/>
<path style=" stroke:none;fill-rule:nonzero;fill:rgb(18.431373%,18.039216%,25.490196%);fill-opacity:1;" d="M 94.933594 126.625 C 94.3125 121.480469 94.890625 116.261719 96.617188 111.378906 C 99.484375 103.675781 108.632812 105.996094 113.839844 107.742188 C 119.050781 109.488281 125.953125 116.796875 124.15625 120.78125 C 122.359375 124.769531 113.835938 119.734375 110.796875 117.164062 C 107.757812 114.597656 102.445312 122.394531 102.445312 122.394531 Z M 94.933594 126.625 "/>
<path style=" stroke:none;fill-rule:nonzero;fill:rgb(61.960784%,38.039216%,41.568627%);fill-opacity:1;" d="M 103.636719 119.140625 C 102.910156 118.875 101.929688 119.726562 101.453125 121.039062 C 100.976562 122.351562 101.179688 123.628906 101.910156 123.894531 C 102.640625 124.160156 103.617188 123.3125 104.09375 122 C 104.570312 120.683594 104.367188 119.40625 103.636719 119.140625 Z M 103.636719 119.140625 "/>
</g>
</svg>
