<?xml version="1.0" encoding="UTF-8"?>
<svg xmlns="http://www.w3.org/2000/svg" xmlns:xlink="http://www.w3.org/1999/xlink" width="443pt" height="290pt" viewBox="0 0 443 290" version="1.1">
<g id="surface1">
<path style=" stroke:none;fill-rule:nonzero;fill:rgb(90.196078%,90.196078%,90.196078%);fill-opacity:1;" d="M 0.128906 0.171875 L 305.394531 0.171875 L 305.394531 195.679688 L 0.128906 195.679688 Z M 0.128906 0.171875 "/>
<path style=" stroke:none;fill-rule:nonzero;fill:rgb(100%,100%,100%);fill-opacity:1;" d="M 8.859375 24.695312 L 296.667969 24.695312 L 296.667969 184.113281 L 8.859375 184.113281 Z M 8.859375 24.695312 "/>
<path style=" stroke:none;fill-rule:nonzero;fill:rgb(38.823529%,59.607843%,100%);fill-opacity:1;" d="M 0 0 L 305.265625 0 L 305.265625 12.96875 L 0 12.96875 Z M 0 0 "/>
<path style=" stroke:none;fill-rule:nonzero;fill:rgb(100%,100%,100%);fill-opacity:1;" d="M 12.042969 6.628906 C 12.042969 7.957031 10.964844 9.035156 9.636719 9.035156 C 8.308594 9.035156 7.234375 7.957031 7.234375 6.628906 C 7.234375 5.304688 8.308594 4.226562 9.636719 4.226562 C 10.964844 4.226562 12.042969 5.304688 12.042969 6.628906 Z M 12.042969 6.628906 "/>
<path style=" stroke:none;fill-rule:nonzero;fill:rgb(100%,100%,100%);fill-opacity:1;" d="M 21.164062 6.628906 C 21.164062 7.957031 20.089844 9.035156 18.761719 9.035156 C 17.433594 9.035156 16.359375 7.957031 16.359375 6.628906 C 16.359375 5.304688 17.433594 4.226562 18.761719 4.226562 C 20.089844 4.226562 21.164062 5.304688 21.164062 6.628906 Z M 21.164062 6.628906 "/>
<path style=" stroke:none;fill-rule:nonzero;fill:rgb(100%,100%,100%);fill-opacity:1;" d="M 30.289062 6.628906 C 30.289062 7.957031 29.210938 9.035156 27.886719 9.035156 C 26.558594 9.035156 25.480469 7.957031 25.480469 6.628906 C 25.480469 5.304688 26.558594 4.226562 27.886719 4.226562 C 29.210938 4.226562 30.289062 5.304688 30.289062 6.628906 Z M 30.289062 6.628906 "/>
<path style=" stroke:none;fill-rule:nonzero;fill:rgb(38.823529%,59.607843%,100%);fill-opacity:1;" d="M 33.347656 49.167969 L 196.222656 49.167969 L 196.222656 140.789062 L 33.347656 140.789062 Z M 33.347656 49.167969 "/>
<path style=" stroke:none;fill-rule:nonzero;fill:rgb(90.196078%,90.196078%,90.196078%);fill-opacity:1;" d="M 218.953125 49.167969 L 280.976562 49.167969 L 280.976562 84.058594 L 218.953125 84.058594 Z M 218.953125 49.167969 "/>
<path style=" stroke:none;fill-rule:nonzero;fill:rgb(90.196078%,90.196078%,90.196078%);fill-opacity:1;" d="M 218.953125 95.097656 L 280.976562 95.097656 L 280.976562 129.988281 L 218.953125 129.988281 Z M 218.953125 95.097656 "/>
<path style=" stroke:none;fill-rule:nonzero;fill:rgb(90.196078%,90.196078%,90.196078%);fill-opacity:1;" d="M 218.953125 141.027344 L 280.976562 141.027344 L 280.976562 175.914062 L 218.953125 175.914062 Z M 218.953125 141.027344 "/>
<path style=" stroke:none;fill-rule:nonzero;fill:rgb(90.196078%,90.196078%,90.196078%);fill-opacity:1;" d="M 33.347656 156.175781 L 145.5625 156.175781 L 145.5625 163.753906 L 33.347656 163.753906 Z M 33.347656 156.175781 "/>
<path style=" stroke:none;fill-rule:nonzero;fill:rgb(100%,100%,100%);fill-opacity:1;" d="M 136.09375 94.980469 L 100.582031 74.476562 L 100.582031 115.480469 L 136.09375 94.980469 L 100.582031 74.476562 L 100.582031 115.480469 Z M 136.09375 94.980469 "/>
<path style=" stroke:none;fill-rule:nonzero;fill:rgb(100%,72.156863%,72.156863%);fill-opacity:1;" d="M 364.679688 269.820312 L 366.140625 277.113281 L 358.84375 278.570312 L 359.941406 269.453125 Z M 364.679688 269.820312 "/>
<path style=" stroke:none;fill-rule:nonzero;fill:rgb(100%,72.156863%,72.156863%);fill-opacity:1;" d="M 394.539062 268.492188 L 392.886719 276.75 L 386.089844 276.914062 L 388.261719 266.839844 Z M 394.539062 268.492188 "/>
<path style=" stroke:none;fill-rule:nonzero;fill:rgb(18.431373%,18.039216%,25.490196%);fill-opacity:1;" d="M 405.371094 183.640625 L 407.261719 196.421875 C 407.261719 196.421875 405.371094 224.832031 404.894531 226.253906 C 404.421875 227.671875 403 234.773438 403 234.773438 L 394.953125 268.867188 C 394.953125 268.867188 387.984375 269.8125 386.5625 266.023438 L 386.902344 245.664062 L 386.429688 222.464844 L 380.75 195.949219 L 370.804688 231.933594 C 370.804688 231.933594 370.332031 243.769531 368.910156 248.03125 C 367.492188 252.292969 365.597656 270.761719 365.597656 270.761719 C 365.597656 270.761719 359.574219 272.179688 359.101562 270.761719 C 358.628906 269.339844 356.128906 235.722656 356.128906 230.515625 C 356.128906 225.304688 353.34375 175.367188 353.34375 175.367188 Z M 405.371094 183.640625 "/>
<path style=" stroke:none;fill-rule:nonzero;fill:rgb(18.431373%,18.039216%,25.490196%);fill-opacity:1;" d="M 388.273438 276.28125 C 389.054688 276.441406 389.859375 276.441406 390.636719 276.28125 C 391.527344 275.984375 390.636719 274.210938 390.636719 274.210938 L 393.890625 274.210938 C 393.890625 274.210938 397.441406 282.195312 398.917969 282.785156 C 400.398438 283.375 405.128906 289.882812 399.511719 289.882812 C 396.042969 289.839844 392.660156 288.8125 389.75 286.925781 C 389.75 286.925781 389.160156 284.265625 386.5 283.96875 C 383.835938 283.671875 382.0625 280.417969 382.0625 280.417969 L 384.953125 275.085938 C 385.117188 274.78125 385.441406 274.589844 385.789062 274.589844 C 386.136719 274.589844 386.460938 274.777344 386.628906 275.082031 C 387.03125 275.792969 387.589844 276.417969 388.273438 276.28125 Z M 388.273438 276.28125 "/>
<path style=" stroke:none;fill-rule:nonzero;fill:rgb(18.431373%,18.039216%,25.490196%);fill-opacity:1;" d="M 363.523438 275.363281 C 363.523438 275.363281 362.863281 276.683594 362.203125 276.023438 C 361.652344 275.324219 361.210938 274.546875 360.886719 273.714844 C 360.886719 273.714844 358.90625 272.726562 358.578125 273.714844 C 358.246094 274.703125 356.929688 279.980469 356.269531 280.640625 C 355.609375 281.300781 348.683594 288.226562 355.609375 289.542969 C 362.535156 290.863281 363.855469 287.894531 363.855469 287.894531 C 363.855469 287.894531 362.863281 286.246094 364.84375 285.585938 C 366.820312 284.925781 367.152344 282.617188 367.152344 282.617188 L 366.15625 275.164062 C 366.113281 274.839844 365.875 274.574219 365.558594 274.492188 C 365.242188 274.410156 364.90625 274.527344 364.710938 274.792969 C 364.328125 275.289062 363.902344 275.617188 363.523438 275.363281 Z M 363.523438 275.363281 "/>
<path style=" stroke:none;fill-rule:nonzero;fill:rgb(100%,72.156863%,72.156863%);fill-opacity:1;" d="M 416.257812 150.496094 L 417.679688 175.117188 C 417.679688 175.117188 424.308594 190.742188 415.3125 190.269531 C 406.316406 189.792969 412 174.644531 412 174.644531 L 403.191406 152.667969 Z M 416.257812 150.496094 "/>
<path style=" stroke:none;fill-rule:nonzero;fill:rgb(100%,72.156863%,72.156863%);fill-opacity:1;" d="M 343.34375 143.394531 L 341.921875 168.015625 C 341.921875 168.015625 335.292969 183.640625 344.289062 183.164062 C 353.285156 182.691406 347.605469 167.539062 347.605469 167.539062 L 356.414062 145.566406 Z M 343.34375 143.394531 "/>
<path style=" stroke:none;fill-rule:nonzero;fill:rgb(100%,72.156863%,72.156863%);fill-opacity:1;" d="M 393.53125 77.578125 C 393.53125 84.378906 388.019531 89.890625 381.222656 89.890625 C 374.421875 89.890625 368.910156 84.378906 368.910156 77.578125 C 368.910156 70.78125 374.421875 65.269531 381.222656 65.269531 C 388.019531 65.269531 393.53125 70.78125 393.53125 77.578125 Z M 393.53125 77.578125 "/>
<path style=" stroke:none;fill-rule:nonzero;fill:rgb(100%,72.156863%,72.156863%);fill-opacity:1;" d="M 390.929688 82.550781 C 390.929688 82.550781 387.613281 95.808594 394.242188 99.121094 C 400.871094 102.4375 373.410156 107.171875 371.515625 99.121094 L 372.460938 95.335938 C 372.460938 95.335938 376.25 90.601562 375.304688 86.339844 Z M 390.929688 82.550781 "/>
<path style=" stroke:none;fill-rule:nonzero;fill:rgb(90.196078%,90.196078%,90.196078%);fill-opacity:1;" d="M 383.589844 99.359375 C 383.589844 99.359375 375.417969 100.121094 372.875 94.769531 C 372.875 94.769531 353.757812 96.042969 349.5 113.5625 C 354.445312 113.703125 360.578125 169.980469 352.472656 175.589844 C 345.894531 180.144531 363.828125 187.15625 388.796875 187.425781 L 407.738281 186.480469 C 404.207031 183.4375 395.753906 143.84375 401.109375 144.339844 C 401.109375 144.339844 415.3125 122.085938 413.890625 118.773438 C 412.472656 115.457031 410.195312 102.390625 391.921875 97.085938 C 391.921875 97.085938 391.636719 99.832031 383.589844 99.359375 Z M 383.589844 99.359375 "/>
<path style=" stroke:none;fill-rule:nonzero;fill:rgb(90.196078%,90.196078%,90.196078%);fill-opacity:1;" d="M 407.738281 110.722656 L 413.890625 118.773438 C 413.890625 118.773438 420.046875 152.390625 418.152344 152.863281 C 416.257812 153.335938 404.894531 157.125 403 155.703125 C 401.109375 154.28125 392.585938 126.347656 392.585938 126.347656 Z M 407.738281 110.722656 "/>
<path style=" stroke:none;fill-rule:nonzero;fill:rgb(90.196078%,90.196078%,90.196078%);fill-opacity:1;" d="M 357.546875 108.355469 L 349.5 113.5625 C 349.5 113.5625 337.660156 146.707031 340.976562 148.128906 C 344.289062 149.546875 362.757812 148.601562 362.757812 148.601562 Z M 357.546875 108.355469 "/>
<path style=" stroke:none;fill-rule:nonzero;fill:rgb(18.431373%,18.039216%,25.490196%);fill-opacity:1;" d="M 394.679688 66.5625 C 394.679688 66.5625 390.414062 57.324219 382.242188 59.457031 C 374.070312 61.585938 369.449219 64.785156 369.09375 67.984375 C 368.738281 71.179688 369.273438 75.976562 369.273438 75.976562 C 369.273438 75.976562 370.160156 69.40625 375.84375 70.824219 C 381.53125 72.246094 390.414062 71.179688 390.414062 71.179688 L 391.835938 83.972656 C 391.835938 83.972656 393.433594 81.664062 395.210938 83.085938 C 396.988281 84.507812 400.363281 69.40625 394.679688 66.5625 Z M 394.679688 66.5625 "/>
<path style=" stroke:none;fill-rule:nonzero;fill:rgb(24.705882%,23.921569%,33.72549%);fill-opacity:1;" d="M 442.628906 289.621094 L 320.59375 289.621094 L 320.59375 288.625 L 442.808594 288.625 Z M 442.628906 289.621094 "/>
</g>
</svg>
