<?xml version="1.0" encoding="UTF-8"?>
<svg xmlns="http://www.w3.org/2000/svg" xmlns:xlink="http://www.w3.org/1999/xlink" width="476pt" height="363pt" viewBox="0 0 476 363" version="1.1">
<defs>
<filter id="alpha" filterUnits="objectBoundingBox" x="0%" y="0%" width="100%" height="100%">
  <feColorMatrix type="matrix" in="SourceGraphic" values="0 0 0 0 1 0 0 0 0 1 0 0 0 0 1 0 0 0 1 0"/>
</filter>
<mask id="mask0">
  <g filter="url(#alpha)">
<rect x="0" y="0" width="476" height="363" style="fill:rgb(0%,0%,0%);fill-opacity:0.101961;stroke:none;"/>
  </g>
</mask>
<clipPath id="clip1">
  <rect width="476" height="363"/>
</clipPath>
<g id="surface6" clip-path="url(#clip1)">
<path style=" stroke:none;fill-rule:nonzero;fill:rgb(0%,0%,0%);fill-opacity:1;" d="M 197.121094 155.292969 C 197.121094 155.292969 171.273438 235.402344 179.480469 239.511719 C 187.683594 243.621094 205.738281 246.085938 205.738281 246.085938 Z M 197.121094 155.292969 "/>
</g>
</defs>
<g id="surface1">
<path style=" stroke:none;fill-rule:nonzero;fill:rgb(94.901961%,94.901961%,94.901961%);fill-opacity:1;" d="M 381.316406 328.523438 L 123.925781 328.523438 C 55.710938 313.394531 0 261.292969 0 183.371094 C -0.0117188 171.585938 1.261719 159.832031 3.796875 148.320312 L 211.265625 114.855469 L 371.3125 89.042969 C 382.8125 96.574219 393.753906 104.925781 404.050781 114.03125 L 250.855469 172.550781 L 178.585938 200.160156 L 259.746094 179.957031 L 428.199219 138.035156 C 438.429688 149.488281 447.730469 161.742188 456.011719 174.683594 L 405.070312 212.824219 L 462.625 185.542969 C 462.867188 185.964844 463.109375 186.386719 463.351562 186.808594 C 499.460938 249.910156 453.945312 328.523438 381.316406 328.523438 Z M 381.316406 328.523438 "/>
<path style=" stroke:none;fill-rule:nonzero;fill:rgb(94.901961%,94.901961%,94.901961%);fill-opacity:1;" d="M 340.1875 71.332031 C 301.226562 79.390625 253.324219 89.574219 204.074219 100.160156 C 132.867188 115.472656 58.839844 131.632812 4.945312 143.449219 L 4.980469 143.308594 C 7.292969 134.464844 12.0625 126.460938 18.742188 120.230469 C 59.605469 81.667969 110.921875 56.035156 166.265625 46.542969 L 166.269531 46.542969 C 182.300781 43.804688 198.539062 42.429688 214.800781 42.4375 C 258.25 42.375 301.136719 52.257812 340.1875 71.332031 Z M 340.1875 71.332031 "/>
<path style=" stroke:none;fill-rule:nonzero;fill:rgb(24.705882%,23.921569%,33.72549%);fill-opacity:1;" d="M 48.605469 0 L 48.605469 363.171875 L 403.894531 363.171875 L 403.894531 0 Z M 371.070312 256.355469 L 82.246094 256.355469 L 82.246094 31.222656 L 371.070312 31.222656 Z M 371.070312 256.355469 "/>
<path style=" stroke:none;fill-rule:nonzero;fill:rgb(18.431373%,18.039216%,25.490196%);fill-opacity:1;" d="M 245.015625 94.675781 C 236.257812 79.855469 218.929688 79.164062 218.929688 79.164062 C 218.929688 79.164062 202.042969 77.003906 191.210938 99.574219 C 181.117188 120.613281 167.183594 140.925781 188.96875 145.851562 L 192.90625 133.585938 L 195.339844 146.761719 C 198.445312 146.988281 201.554688 147.039062 204.664062 146.921875 C 227.996094 146.167969 250.214844 147.144531 249.5 138.757812 C 248.550781 127.613281 253.445312 108.9375 245.015625 94.675781 Z M 245.015625 94.675781 "/>
<path style=" stroke:none;fill-rule:nonzero;fill:rgb(100%,72.156863%,72.156863%);fill-opacity:1;" d="M 185.222656 235.402344 L 155.683594 255.945312 C 155.683594 255.945312 138.453125 274.023438 150.761719 274.023438 C 163.070312 274.023438 167.992188 258.410156 167.992188 258.410156 L 205.738281 241.976562 Z M 185.222656 235.402344 "/>
<path style=" stroke:none;fill-rule:nonzero;fill:rgb(81.568627%,80.392157%,88.235294%);fill-opacity:1;" d="M 197.121094 155.292969 C 197.121094 155.292969 171.273438 235.402344 179.480469 239.511719 C 187.683594 243.621094 205.738281 246.085938 205.738281 246.085938 Z M 197.121094 155.292969 "/>
<use xlink:href="#surface6" mask="url(#mask0)"/>
<path style=" stroke:none;fill-rule:nonzero;fill:rgb(18.431373%,18.039216%,25.490196%);fill-opacity:1;" d="M 278.378906 256.355469 L 220.195312 256.355469 L 261.53125 235.402344 C 262.445312 235.996094 263.316406 236.644531 264.148438 237.34375 C 270.277344 242.511719 275.144531 249.015625 278.378906 256.355469 Z M 278.378906 256.355469 "/>
<path style=" stroke:none;fill-rule:nonzero;fill:rgb(100%,72.156863%,72.156863%);fill-opacity:1;" d="M 234.863281 113.386719 C 234.863281 125.1875 225.3125 134.75 213.53125 134.75 C 201.75 134.75 192.199219 125.1875 192.199219 113.386719 C 192.199219 101.589844 201.75 92.023438 213.53125 92.023438 C 225.3125 92.023438 234.863281 101.589844 234.863281 113.386719 Z M 234.863281 113.386719 "/>
<path style=" stroke:none;fill-rule:nonzero;fill:rgb(100%,72.156863%,72.156863%);fill-opacity:1;" d="M 213.121094 131.054688 C 213.121094 131.054688 218.042969 146.664062 213.121094 152.417969 C 208.199219 158.167969 240.199219 144.199219 240.199219 144.199219 C 240.199219 144.199219 228.710938 127.765625 231.992188 120.371094 Z M 213.121094 131.054688 "/>
<path style=" stroke:none;fill-rule:nonzero;fill:rgb(81.568627%,80.392157%,88.235294%);fill-opacity:1;" d="M 260.382812 202.382812 L 258.660156 213.628906 C 258.660156 213.628906 259.53125 216.183594 260.589844 219.90625 C 261.96875 224.761719 263.664062 231.609375 264.148438 237.34375 C 264.648438 243.160156 263.894531 247.84375 260.300781 248.140625 C 255.148438 248.566406 252.464844 251.695312 249.789062 256.355469 L 190.433594 256.355469 C 190.589844 253.792969 190.777344 251.128906 191 248.394531 C 191.121094 246.75 191.261719 245.085938 191.410156 243.398438 C 191.574219 241.460938 197.386719 205.035156 193.019531 197.195312 C 183.996094 181.011719 195.480469 171.726562 195.480469 171.726562 C 195.480469 171.726562 197.121094 159.402344 197.121094 155.292969 C 197.121094 152.070312 209.722656 148.351562 215.171875 146.886719 C 215.523438 146.796875 215.835938 146.707031 216.125 146.640625 C 217.066406 146.394531 217.632812 146.253906 217.632812 146.253906 L 221.941406 144.488281 C 221.941406 144.488281 234.042969 142.144531 234.863281 140.503906 C 235.160156 139.910156 235.988281 139.425781 236.964844 139.007812 C 238.695312 138.269531 240.902344 137.742188 241.429688 137.214844 C 242.179688 136.351562 242.855469 135.429688 243.457031 134.457031 C 244.949219 132.625 247.082031 131.523438 249.496094 130.921875 C 258.308594 128.695312 270.96875 133.109375 270.96875 133.109375 L 266.539062 162.070312 Z M 260.382812 202.382812 "/>
<path style=" stroke:none;fill-rule:nonzero;fill:rgb(100%,72.156863%,72.156863%);fill-opacity:1;" d="M 286.148438 184.460938 L 256.609375 205.003906 C 256.609375 205.003906 239.378906 223.078125 251.6875 223.078125 C 263.992188 223.078125 268.917969 207.46875 268.917969 207.46875 L 306.660156 191.035156 Z M 286.148438 184.460938 "/>
<path style=" stroke:none;fill-rule:nonzero;fill:rgb(18.431373%,18.039216%,25.490196%);fill-opacity:1;" d="M 235.402344 93.246094 L 218.28125 84.269531 L 207.539062 85.9375 C 199.753906 87.148438 193.496094 92.996094 191.757812 100.691406 L 189.75 109.574219 L 201.925781 109.105469 L 205.328125 101.15625 L 205.328125 108.976562 L 210.945312 108.757812 L 214.207031 96.105469 L 216.242188 109.574219 L 236.214844 109.167969 Z M 235.402344 93.246094 "/>
<path style=" stroke:none;fill-rule:nonzero;fill:rgb(81.568627%,80.392157%,88.235294%);fill-opacity:1;" d="M 265.222656 134.75 L 270.96875 133.109375 C 270.96875 133.109375 329.226562 156.9375 327.585938 177.476562 C 325.941406 198.019531 328.40625 198.019531 318.558594 198.839844 C 308.710938 199.660156 279.992188 189.800781 280.8125 188.160156 C 281.636719 186.515625 287.378906 178.300781 287.378906 178.300781 L 265.222656 161.042969 Z M 265.222656 134.75 "/>
<path style=" stroke:none;fill-rule:nonzero;fill:rgb(100%,72.156863%,72.156863%);fill-opacity:1;" d="M 238.148438 113.386719 C 238.148438 115.203125 236.675781 116.675781 234.863281 116.675781 C 233.050781 116.675781 231.582031 115.203125 231.582031 113.386719 C 231.582031 111.574219 233.050781 110.101562 234.863281 110.101562 C 236.675781 110.101562 238.148438 111.574219 238.148438 113.386719 Z M 238.148438 113.386719 "/>
<path style=" stroke:none;fill-rule:nonzero;fill:rgb(24.705882%,23.921569%,33.72549%);fill-opacity:1;" d="M 332.351562 258.476562 C 332.183594 258.203125 328.25 251.621094 326.882812 237.957031 C 325.632812 225.417969 326.4375 204.285156 337.382812 174.804688 C 358.117188 118.957031 332.605469 73.894531 332.34375 73.445312 L 333.601562 72.714844 C 333.667969 72.828125 340.25 84.316406 344.140625 102.613281 C 349.28125 126.867188 347.40625 152.085938 338.746094 175.3125 C 318.046875 231.0625 333.433594 257.457031 333.59375 257.71875 Z M 332.351562 258.476562 "/>
<path style=" stroke:none;fill-rule:nonzero;fill:rgb(38.823529%,59.607843%,100%);fill-opacity:1;" d="M 333.699219 60.699219 C 333.699219 65.929688 329.464844 70.167969 324.242188 70.167969 C 319.019531 70.167969 314.789062 65.929688 314.789062 60.699219 C 314.789062 55.46875 319.019531 51.230469 324.242188 51.230469 C 329.464844 51.230469 333.699219 55.46875 333.699219 60.699219 Z M 333.699219 60.699219 "/>
<path style=" stroke:none;fill-rule:nonzero;fill:rgb(24.705882%,23.921569%,33.72549%);fill-opacity:1;" d="M 363.523438 95.660156 C 363.523438 100.890625 359.289062 105.132812 354.066406 105.132812 C 348.84375 105.132812 344.609375 100.890625 344.609375 95.660156 C 344.609375 90.433594 348.84375 86.191406 354.066406 86.191406 C 359.289062 86.191406 363.523438 90.433594 363.523438 95.660156 Z M 363.523438 95.660156 "/>
<path style=" stroke:none;fill-rule:nonzero;fill:rgb(38.823529%,59.607843%,100%);fill-opacity:1;" d="M 343.15625 118.972656 C 343.15625 124.199219 338.921875 128.441406 333.699219 128.441406 C 328.476562 128.441406 324.242188 124.199219 324.242188 118.972656 C 324.242188 113.742188 328.476562 109.5 333.699219 109.5 C 338.921875 109.5 343.15625 113.742188 343.15625 118.972656 Z M 343.15625 118.972656 "/>
<path style=" stroke:none;fill-rule:nonzero;fill:rgb(38.823529%,59.607843%,100%);fill-opacity:1;" d="M 367.886719 138.636719 C 367.886719 143.867188 363.652344 148.105469 358.429688 148.105469 C 353.207031 148.105469 348.976562 143.867188 348.976562 138.636719 C 348.976562 133.40625 353.207031 129.167969 358.429688 129.167969 C 363.652344 129.167969 367.886719 133.40625 367.886719 138.636719 Z M 367.886719 138.636719 "/>
<path style=" stroke:none;fill-rule:nonzero;fill:rgb(24.705882%,23.921569%,33.72549%);fill-opacity:1;" d="M 335.882812 169.230469 C 335.882812 174.460938 331.648438 178.699219 326.425781 178.699219 C 321.203125 178.699219 316.96875 174.460938 316.96875 169.230469 C 316.96875 164 321.203125 159.761719 326.425781 159.761719 C 331.648438 159.761719 335.882812 164 335.882812 169.230469 Z M 335.882812 169.230469 "/>
<path style=" stroke:none;fill-rule:nonzero;fill:rgb(24.705882%,23.921569%,33.72549%);fill-opacity:1;" d="M 338.0625 258.824219 C 338.0625 258.824219 328.609375 235.515625 356.976562 218.035156 Z M 338.0625 258.824219 "/>
<path style=" stroke:none;fill-rule:nonzero;fill:rgb(24.705882%,23.921569%,33.72549%);fill-opacity:1;" d="M 326.433594 258.402344 C 326.433594 258.402344 322.128906 233.613281 288.820312 233.828125 Z M 326.433594 258.402344 "/>
</g>
</svg>
