<?xml version="1.0" encoding="UTF-8"?>
<svg xmlns="http://www.w3.org/2000/svg" xmlns:xlink="http://www.w3.org/1999/xlink" width="428pt" height="298pt" viewBox="0 0 428 298" version="1.1">
<g id="surface1">
<path style=" stroke:none;fill-rule:nonzero;fill:rgb(24.705882%,23.921569%,33.72549%);fill-opacity:1;" d="M 127.292969 200.207031 C 122.980469 204.441406 122.878906 211.363281 127.066406 215.71875 L 196.675781 287.847656 C 198.722656 289.96875 201.527344 291.175781 204.472656 291.203125 C 207.414062 291.234375 210.246094 290.078125 212.328125 288 L 424.738281 76.265625 C 427.085938 73.921875 428.253906 70.640625 427.914062 67.339844 C 427.574219 64.039062 425.761719 61.066406 422.980469 59.253906 L 339.457031 4.789062 C 335.152344 1.953125 329.453125 2.515625 325.785156 6.136719 Z M 127.292969 200.207031 "/>
<path style=" stroke:none;fill-rule:nonzero;fill:rgb(38.823529%,59.607843%,100%);fill-opacity:1;" d="M 426.195312 62.46875 C 425.773438 63.117188 425.285156 63.71875 424.738281 64.265625 L 212.828125 280 C 210.746094 282.078125 207.914062 283.234375 204.972656 283.203125 C 202.027344 283.175781 199.21875 281.96875 197.175781 279.847656 L 126.070312 204.71875 C 125.585938 204.214844 125.148438 203.667969 124.769531 203.078125 C 122.042969 207.28125 123.453125 211.972656 127.066406 215.71875 L 196.675781 287.847656 C 198.722656 289.96875 201.527344 291.175781 204.472656 291.203125 C 207.414062 291.234375 210.246094 290.078125 212.328125 288 L 424.738281 76.265625 C 428.421875 72.589844 429.03125 66.835938 426.195312 62.46875 Z M 426.195312 62.46875 "/>
<path style=" stroke:none;fill-rule:nonzero;fill:rgb(100%,100%,100%);fill-opacity:1;" d="M 406.527344 65.078125 L 397.882812 59.5625 C 399.757812 62.90625 399.082031 67.101562 396.253906 69.6875 C 393.421875 72.273438 389.183594 72.5625 386.03125 70.386719 L 330.097656 31.886719 C 327.5 30.105469 326.148438 26.996094 326.613281 23.882812 C 327.074219 20.765625 329.273438 18.1875 332.273438 17.238281 L 327.820312 14.394531 C 326.628906 13.632812 325.070312 13.808594 324.078125 14.816406 L 135.90625 199.949219 C 135.339844 200.523438 135.027344 201.304688 135.042969 202.109375 C 135.058594 202.917969 135.398438 203.6875 135.984375 204.242188 L 204.320312 270.90625 C 205.5 272.019531 207.347656 271.992188 208.492188 270.847656 L 407.03125 69.734375 C 407.675781 69.089844 407.992188 68.191406 407.894531 67.285156 C 407.796875 66.378906 407.292969 65.570312 406.527344 65.078125 Z M 406.527344 65.078125 "/>
<path style=" stroke:none;fill-rule:nonzero;fill:rgb(90.196078%,90.196078%,90.196078%);fill-opacity:1;" d="M 189.351562 159.070312 L 247.078125 213.558594 L 384.378906 77.75 L 314.695312 32.339844 Z M 189.351562 159.070312 "/>
<path style=" stroke:none;fill-rule:nonzero;fill:rgb(24.705882%,23.921569%,33.72549%);fill-opacity:1;" d="M 379.039062 111.265625 C 379.832031 112.019531 381.074219 112.019531 381.867188 111.265625 L 393.871094 99.246094 C 394.652344 98.464844 394.652344 97.199219 393.871094 96.417969 C 393.082031 95.660156 391.839844 95.660156 391.046875 96.417969 L 379.039062 108.4375 C 378.261719 109.21875 378.261719 110.484375 379.039062 111.265625 Z M 379.039062 111.265625 "/>
<path style=" stroke:none;fill-rule:nonzero;fill:rgb(24.705882%,23.921569%,33.72549%);fill-opacity:1;" d="M 358.8125 131.515625 C 359.59375 132.296875 360.859375 132.296875 361.640625 131.515625 L 373.644531 119.496094 C 374.425781 118.714844 374.421875 117.449219 373.644531 116.667969 C 372.863281 115.886719 371.601562 115.886719 370.820312 116.667969 L 358.8125 128.6875 C 358.035156 129.46875 358.035156 130.734375 358.8125 131.515625 Z M 358.8125 131.515625 "/>
<path style=" stroke:none;fill-rule:nonzero;fill:rgb(38.823529%,59.607843%,100%);fill-opacity:1;" d="M 204.167969 205.839844 C 204.167969 213.296875 198.132812 219.339844 190.683594 219.339844 C 183.238281 219.339844 177.199219 213.296875 177.199219 205.839844 C 177.199219 198.386719 183.238281 192.339844 190.683594 192.339844 C 198.132812 192.339844 204.167969 198.386719 204.167969 205.839844 Z M 204.167969 205.839844 "/>
<path style=" stroke:none;fill-rule:nonzero;fill:rgb(24.705882%,23.921569%,33.72549%);fill-opacity:1;" d="M 321.222656 292.042969 L 34.515625 292.042969 L 34.515625 290.953125 L 321.417969 290.953125 Z M 321.222656 292.042969 "/>
<path style=" stroke:none;fill-rule:nonzero;fill:rgb(90.196078%,90.196078%,90.196078%);fill-opacity:1;" d="M 146.53125 89.1875 L 289.070312 89.1875 L 289.070312 117.359375 L 146.53125 117.359375 Z M 146.53125 89.1875 "/>
<path style=" stroke:none;fill-rule:nonzero;fill:rgb(90.196078%,90.196078%,90.196078%);fill-opacity:1;" d="M 146.53125 44.667969 L 289.070312 44.667969 L 289.070312 72.839844 L 146.53125 72.839844 Z M 146.53125 44.667969 "/>
<path style=" stroke:none;fill-rule:nonzero;fill:rgb(90.196078%,90.196078%,90.196078%);fill-opacity:1;" d="M 146.53125 0 L 289.070312 0 L 289.070312 28.175781 L 146.53125 28.175781 Z M 146.53125 0 "/>
<path style=" stroke:none;fill-rule:nonzero;fill:rgb(100%,100%,100%);fill-opacity:1;" d="M 149.570312 25.132812 L 286.03125 25.132812 L 286.03125 3.042969 L 149.570312 3.042969 Z M 149.570312 25.132812 "/>
<path style=" stroke:none;fill-rule:nonzero;fill:rgb(100%,100%,100%);fill-opacity:1;" d="M 149.570312 69.898438 L 286.03125 69.898438 L 286.03125 47.808594 L 149.570312 47.808594 Z M 149.570312 69.898438 "/>
<path style=" stroke:none;fill-rule:nonzero;fill:rgb(100%,100%,100%);fill-opacity:1;" d="M 149.570312 114.320312 L 286.03125 114.320312 L 286.03125 92.226562 L 149.570312 92.226562 Z M 149.570312 114.320312 "/>
<path style=" stroke:none;fill-rule:nonzero;fill:rgb(38.823529%,59.607843%,100%);fill-opacity:1;" d="M 169.921875 13.90625 C 169.921875 18.550781 166.160156 22.320312 161.515625 22.320312 C 156.875 22.320312 153.109375 18.550781 153.109375 13.90625 C 153.109375 9.257812 156.875 5.488281 161.515625 5.488281 C 166.160156 5.488281 169.921875 9.257812 169.921875 13.90625 Z M 169.921875 13.90625 "/>
<path style=" stroke:none;fill-rule:nonzero;fill:rgb(38.823529%,59.607843%,100%);fill-opacity:1;" d="M 181.617188 10.613281 L 264.582031 10.613281 L 264.582031 12.441406 L 181.617188 12.441406 Z M 181.617188 10.613281 "/>
<path style=" stroke:none;fill-rule:nonzero;fill:rgb(38.823529%,59.607843%,100%);fill-opacity:1;" d="M 181.617188 15.367188 L 264.582031 15.367188 L 264.582031 17.199219 L 181.617188 17.199219 Z M 181.617188 15.367188 "/>
<path style=" stroke:none;fill-rule:nonzero;fill:rgb(80%,80%,80%);fill-opacity:1;" d="M 169.921875 58.9375 C 169.921875 63.585938 166.160156 67.351562 161.515625 67.351562 C 156.875 67.351562 153.109375 63.585938 153.109375 58.9375 C 153.109375 54.289062 156.875 50.519531 161.515625 50.519531 C 166.160156 50.519531 169.921875 54.289062 169.921875 58.9375 Z M 169.921875 58.9375 "/>
<path style=" stroke:none;fill-rule:nonzero;fill:rgb(80%,80%,80%);fill-opacity:1;" d="M 181.617188 55.644531 L 264.582031 55.644531 L 264.582031 57.472656 L 181.617188 57.472656 Z M 181.617188 55.644531 "/>
<path style=" stroke:none;fill-rule:nonzero;fill:rgb(80%,80%,80%);fill-opacity:1;" d="M 181.617188 60.398438 L 264.582031 60.398438 L 264.582031 62.230469 L 181.617188 62.230469 Z M 181.617188 60.398438 "/>
<path style=" stroke:none;fill-rule:nonzero;fill:rgb(80%,80%,80%);fill-opacity:1;" d="M 169.921875 103.457031 C 169.921875 108.105469 166.160156 111.871094 161.515625 111.871094 C 156.875 111.871094 153.109375 108.105469 153.109375 103.457031 C 153.109375 98.808594 156.875 95.039062 161.515625 95.039062 C 166.160156 95.039062 169.921875 98.808594 169.921875 103.457031 Z M 169.921875 103.457031 "/>
<path style=" stroke:none;fill-rule:nonzero;fill:rgb(80%,80%,80%);fill-opacity:1;" d="M 181.617188 100.164062 L 264.582031 100.164062 L 264.582031 101.992188 L 181.617188 101.992188 Z M 181.617188 100.164062 "/>
<path style=" stroke:none;fill-rule:nonzero;fill:rgb(80%,80%,80%);fill-opacity:1;" d="M 181.617188 104.921875 L 264.582031 104.921875 L 264.582031 106.75 L 181.617188 106.75 Z M 181.617188 104.921875 "/>
<path style=" stroke:none;fill-rule:nonzero;fill:rgb(18.431373%,18.039216%,25.490196%);fill-opacity:1;" d="M 6.394531 295.363281 L 10.070312 295.792969 C 12.976562 297.546875 16.382812 298.207031 20.160156 298.074219 C 21.234375 298.042969 22.207031 297.441406 22.722656 296.5 C 23.167969 295.675781 23.203125 294.691406 22.820312 293.839844 C 22.4375 292.984375 21.679688 292.359375 20.765625 292.148438 L 17.972656 291.496094 L 11.230469 284.894531 L 7.164062 277.523438 L 1.253906 278.203125 L 0.0273438 287.5625 C -0.300781 291.457031 2.519531 294.90625 6.394531 295.363281 Z M 6.394531 295.363281 "/>
<path style=" stroke:none;fill-rule:nonzero;fill:rgb(18.431373%,18.039216%,25.490196%);fill-opacity:1;" d="M 63.664062 290.625 L 67.269531 291.476562 C 69.953125 293.546875 73.265625 294.59375 77.03125 294.890625 C 78.101562 294.980469 79.136719 294.496094 79.757812 293.621094 C 80.292969 292.851562 80.441406 291.878906 80.15625 290.988281 C 79.875 290.09375 79.191406 289.386719 78.308594 289.070312 L 75.609375 288.105469 L 69.660156 280.777344 L 66.457031 272.992188 L 60.511719 272.992188 L 58.222656 282.152344 C 57.460938 285.984375 59.867188 289.730469 63.664062 290.625 Z M 63.664062 290.625 "/>
<path style=" stroke:none;fill-rule:nonzero;fill:rgb(18.431373%,18.039216%,25.490196%);fill-opacity:1;" d="M 66.617188 273.511719 L 59.894531 274.546875 L 49.289062 220.941406 L 30.925781 189.609375 L 8.679688 280.761719 L 0.402344 282.3125 C 1.332031 230.984375 -3.199219 166.359375 7.128906 158.53125 L 52.132812 163.710938 L 71.792969 216.539062 Z M 66.617188 273.511719 "/>
<path style=" stroke:none;fill-rule:nonzero;fill:rgb(100%,72.156863%,72.156863%);fill-opacity:1;" d="M 49.546875 63.238281 C 49.546875 71.816406 42.597656 78.773438 34.027344 78.773438 C 25.457031 78.773438 18.507812 71.816406 18.507812 63.238281 C 18.507812 54.65625 25.457031 47.699219 34.027344 47.699219 C 42.597656 47.699219 49.546875 54.65625 49.546875 63.238281 Z M 49.546875 63.238281 "/>
<path style=" stroke:none;fill-rule:nonzero;fill:rgb(100%,72.156863%,72.156863%);fill-opacity:1;" d="M 12.300781 87.058594 L 30.925781 90.167969 L 35.578125 73.59375 L 22.128906 69.453125 Z M 12.300781 87.058594 "/>
<path style=" stroke:none;fill-rule:nonzero;fill:rgb(38.823529%,59.607843%,100%);fill-opacity:1;" d="M 4.542969 160.605469 L 54.203125 165.265625 C 50.222656 151.40625 46.574219 137.59375 49.546875 123.832031 C 53.324219 111.546875 49.679688 104.242188 39.71875 98.453125 L 32.992188 83.433594 L 14.886719 81.363281 C 10.09375 89.082031 8.132812 98.230469 9.339844 107.238281 C 11.921875 126.828125 11.222656 145.003906 4.542969 160.605469 Z M 4.542969 160.605469 "/>
<path style=" stroke:none;fill-rule:nonzero;fill:rgb(18.431373%,18.039216%,25.490196%);fill-opacity:1;" d="M 27.925781 45.601562 C 33.226562 45.238281 39.355469 45.136719 40.121094 46.53125 C 45.609375 46.277344 50.390625 48.191406 52.59375 52.652344 C 52.976562 53.433594 52.992188 54.347656 52.636719 55.140625 C 52.28125 55.933594 51.597656 56.53125 50.761719 56.769531 C 47.976562 57.574219 43.730469 58.566406 40.636719 58.25 C 34.203125 65.820312 36.910156 79.625 43.152344 87.691406 L 37.511719 88.847656 L 26.808594 73.925781 L 30.183594 90.351562 L 17.160156 92.484375 L 12.617188 71.609375 C 11.660156 66.65625 11.902344 61.542969 13.3125 56.699219 C 13.464844 56.210938 13.648438 55.730469 13.859375 55.265625 C 16.414062 49.699219 21.820312 45.988281 27.925781 45.601562 Z M 27.925781 45.601562 "/>
<path style=" stroke:none;fill-rule:nonzero;fill:rgb(100%,72.156863%,72.156863%);fill-opacity:1;" d="M 36.613281 176.140625 L 36.269531 188.164062 C 36.171875 191.605469 38.746094 194.535156 42.164062 194.875 C 44.308594 195.089844 46.417969 194.238281 47.8125 192.59375 C 49.203125 190.949219 49.699219 188.722656 49.136719 186.640625 L 46.441406 176.660156 L 38.683594 134.191406 L 39.199219 109.332031 L 22.648438 108.8125 L 25.75 136.78125 Z M 36.613281 176.140625 "/>
<path style=" stroke:none;fill-rule:nonzero;fill:rgb(38.823529%,59.607843%,100%);fill-opacity:1;" d="M 21.613281 111.402344 C 27.609375 109.117188 34.238281 109.117188 40.234375 111.402344 L 39.199219 90.6875 C 39.199219 86.109375 35.496094 82.398438 30.925781 82.398438 C 26.351562 82.398438 22.648438 86.109375 22.648438 90.6875 Z M 21.613281 111.402344 "/>
</g>
</svg>
