<?xml version="1.0" encoding="UTF-8"?>
<svg xmlns="http://www.w3.org/2000/svg" xmlns:xlink="http://www.w3.org/1999/xlink" width="442pt" height="336pt" viewBox="0 0 442 336" version="1.1">
<g id="surface1">
<path style=" stroke:none;fill-rule:nonzero;fill:rgb(90.196078%,90.196078%,90.196078%);fill-opacity:1;" d="M 0.109375 303.5 L 441.890625 303.5 L 441.890625 336.125 L 0.109375 336.125 Z M 0.109375 303.5 "/>
<path style=" stroke:none;fill-rule:nonzero;fill:rgb(24.705882%,23.921569%,33.72549%);fill-opacity:1;" d="M 441.277344 303.527344 L 0 303.527344 L 0 302.433594 L 441.476562 302.433594 Z M 441.277344 303.527344 "/>
<path style=" stroke:none;fill-rule:nonzero;fill:rgb(90.196078%,90.196078%,90.196078%);fill-opacity:1;" d="M 346.59375 125.59375 L 346.59375 222.183594 L 95.40625 222.183594 L 95.40625 125.59375 C 95.40625 59.046875 147.3125 4.050781 213.75 0.207031 C 216.148438 0.0664062 218.5625 0 221 0 C 222.386719 0 223.769531 0.0195312 225.144531 0.0742188 C 257.011719 1.082031 287.292969 14.210938 309.808594 36.789062 C 310.484375 37.464844 311.152344 38.148438 311.820312 38.84375 C 334.148438 62.207031 346.601562 93.28125 346.59375 125.59375 Z M 346.59375 125.59375 "/>
<path style=" stroke:none;fill-rule:nonzero;fill:rgb(100%,100%,100%);fill-opacity:1;" d="M 225.144531 0.0742188 L 225.144531 222.183594 L 213.75 222.183594 L 213.75 0.207031 C 216.148438 0.0664062 218.5625 0 221 0 C 222.386719 0 223.769531 0.0195312 225.144531 0.0742188 Z M 225.144531 0.0742188 "/>
<path style=" stroke:none;fill-rule:nonzero;fill:rgb(100%,100%,100%);fill-opacity:1;" d="M 321.480469 50.238281 L 120.519531 50.238281 C 123.511719 46.253906 126.734375 42.449219 130.179688 38.84375 L 311.820312 38.84375 C 315.265625 42.449219 318.488281 46.253906 321.480469 50.238281 Z M 321.480469 50.238281 "/>
<path style=" stroke:none;fill-rule:nonzero;fill:rgb(100%,100%,100%);fill-opacity:1;" d="M 238.453125 82.867188 L 327.476562 82.867188 L 327.476562 233.578125 L 238.453125 233.578125 Z M 238.453125 82.867188 "/>
<path style=" stroke:none;fill-rule:nonzero;fill:rgb(90.196078%,90.196078%,90.196078%);fill-opacity:1;" d="M 256.03125 108.328125 L 269.5 108.328125 L 269.5 121.792969 L 256.03125 121.792969 Z M 256.03125 108.328125 "/>
<path style=" stroke:none;fill-rule:nonzero;fill:rgb(90.196078%,90.196078%,90.196078%);fill-opacity:1;" d="M 277.726562 108.328125 L 291.195312 108.328125 L 291.195312 121.792969 L 277.726562 121.792969 Z M 277.726562 108.328125 "/>
<path style=" stroke:none;fill-rule:nonzero;fill:rgb(90.196078%,90.196078%,90.196078%);fill-opacity:1;" d="M 299.421875 108.328125 L 312.890625 108.328125 L 312.890625 121.792969 L 299.421875 121.792969 Z M 299.421875 108.328125 "/>
<path style=" stroke:none;fill-rule:nonzero;fill:rgb(90.196078%,90.196078%,90.196078%);fill-opacity:1;" d="M 256.40625 139 L 269.871094 139 L 269.871094 152.46875 L 256.40625 152.46875 Z M 256.40625 139 "/>
<path style=" stroke:none;fill-rule:nonzero;fill:rgb(90.196078%,90.196078%,90.196078%);fill-opacity:1;" d="M 278.101562 139 L 291.566406 139 L 291.566406 152.46875 L 278.101562 152.46875 Z M 278.101562 139 "/>
<path style=" stroke:none;fill-rule:nonzero;fill:rgb(90.196078%,90.196078%,90.196078%);fill-opacity:1;" d="M 299.796875 139 L 313.261719 139 L 313.261719 152.46875 L 299.796875 152.46875 Z M 299.796875 139 "/>
<path style=" stroke:none;fill-rule:nonzero;fill:rgb(90.196078%,90.196078%,90.196078%);fill-opacity:1;" d="M 256.78125 169.671875 L 270.246094 169.671875 L 270.246094 183.140625 L 256.78125 183.140625 Z M 256.78125 169.671875 "/>
<path style=" stroke:none;fill-rule:nonzero;fill:rgb(90.196078%,90.196078%,90.196078%);fill-opacity:1;" d="M 278.476562 169.671875 L 291.941406 169.671875 L 291.941406 183.140625 L 278.476562 183.140625 Z M 278.476562 169.671875 "/>
<path style=" stroke:none;fill-rule:nonzero;fill:rgb(90.196078%,90.196078%,90.196078%);fill-opacity:1;" d="M 300.171875 169.671875 L 313.636719 169.671875 L 313.636719 183.140625 L 300.171875 183.140625 Z M 300.171875 169.671875 "/>
<path style=" stroke:none;fill-rule:nonzero;fill:rgb(90.196078%,90.196078%,90.196078%);fill-opacity:1;" d="M 257.15625 200.347656 L 270.621094 200.347656 L 270.621094 213.8125 L 257.15625 213.8125 Z M 257.15625 200.347656 "/>
<path style=" stroke:none;fill-rule:nonzero;fill:rgb(90.196078%,90.196078%,90.196078%);fill-opacity:1;" d="M 278.851562 200.347656 L 292.316406 200.347656 L 292.316406 213.8125 L 278.851562 213.8125 Z M 278.851562 200.347656 "/>
<path style=" stroke:none;fill-rule:nonzero;fill:rgb(90.196078%,90.196078%,90.196078%);fill-opacity:1;" d="M 300.546875 200.347656 L 314.011719 200.347656 L 314.011719 213.8125 L 300.546875 213.8125 Z M 300.546875 200.347656 "/>
<path style=" stroke:none;fill-rule:nonzero;fill:rgb(90.196078%,90.196078%,90.196078%);fill-opacity:1;" d="M 257.15625 200.347656 L 270.621094 200.347656 L 270.621094 213.8125 L 257.15625 213.8125 Z M 257.15625 200.347656 "/>
<path style=" stroke:none;fill-rule:nonzero;fill:rgb(90.196078%,90.196078%,90.196078%);fill-opacity:1;" d="M 278.851562 200.347656 L 292.316406 200.347656 L 292.316406 213.8125 L 278.851562 213.8125 Z M 278.851562 200.347656 "/>
<path style=" stroke:none;fill-rule:nonzero;fill:rgb(90.196078%,90.196078%,90.196078%);fill-opacity:1;" d="M 300.546875 200.347656 L 314.011719 200.347656 L 314.011719 213.8125 L 300.546875 213.8125 Z M 300.546875 200.347656 "/>
<path style=" stroke:none;fill-rule:nonzero;fill:rgb(100%,100%,100%);fill-opacity:1;" d="M 143.824219 172.980469 C 143.824219 183.230469 135.515625 191.539062 125.265625 191.539062 C 115.015625 191.539062 106.703125 183.230469 106.703125 172.980469 C 106.703125 162.730469 115.015625 154.421875 125.265625 154.421875 C 135.515625 154.421875 143.824219 162.730469 143.824219 172.980469 Z M 143.824219 172.980469 "/>
<path style=" stroke:none;fill-rule:nonzero;fill:rgb(100%,100%,100%);fill-opacity:1;" d="M 125.316406 172.980469 L 125.367188 172.980469 L 126.285156 225.601562 L 124.347656 225.601562 Z M 125.316406 172.980469 "/>
<path style=" stroke:none;fill-rule:nonzero;fill:rgb(100%,100%,100%);fill-opacity:1;" d="M 128.265625 200.832031 L 128.695312 201.640625 L 125.625 203.257812 L 125.199219 202.445312 Z M 128.265625 200.832031 "/>
<path style=" stroke:none;fill-rule:nonzero;fill:rgb(100%,100%,100%);fill-opacity:1;" d="M 208.050781 145.582031 C 208.050781 161.171875 195.417969 173.804688 179.828125 173.804688 C 164.242188 173.804688 151.605469 161.171875 151.605469 145.582031 C 151.605469 129.996094 164.242188 117.359375 179.828125 117.359375 C 195.417969 117.359375 208.050781 129.996094 208.050781 145.582031 Z M 208.050781 145.582031 "/>
<path style=" stroke:none;fill-rule:nonzero;fill:rgb(100%,100%,100%);fill-opacity:1;" d="M 179.90625 145.582031 L 179.984375 145.582031 L 181.378906 225.601562 L 178.433594 225.601562 Z M 179.90625 145.582031 "/>
<path style=" stroke:none;fill-rule:nonzero;fill:rgb(100%,100%,100%);fill-opacity:1;" d="M 184.394531 187.933594 L 185.046875 189.167969 L 180.378906 191.625 L 179.730469 190.390625 Z M 184.394531 187.933594 "/>
<path style=" stroke:none;fill-rule:nonzero;fill:rgb(100%,100%,100%);fill-opacity:1;" d="M 121.617188 118.632812 L 126.386719 114.820312 C 122.679688 114.410156 121.160156 116.429688 120.535156 118.03125 C 117.644531 116.828125 114.492188 118.402344 114.492188 118.402344 L 124.03125 121.867188 C 123.550781 120.582031 122.714844 119.460938 121.617188 118.632812 Z M 121.617188 118.632812 "/>
<path style=" stroke:none;fill-rule:nonzero;fill:rgb(100%,100%,100%);fill-opacity:1;" d="M 171.855469 87.558594 L 176.621094 83.746094 C 172.917969 83.335938 171.398438 85.355469 170.773438 86.957031 C 167.878906 85.753906 164.730469 87.328125 164.730469 87.328125 L 174.269531 90.792969 C 173.789062 89.507812 172.953125 88.382812 171.855469 87.558594 Z M 171.855469 87.558594 "/>
<path style=" stroke:none;fill-rule:nonzero;fill:rgb(100%,100%,100%);fill-opacity:1;" d="M 152.691406 117.078125 L 157.460938 113.265625 C 153.757812 112.859375 152.234375 114.878906 151.613281 116.476562 C 148.71875 115.273438 145.566406 116.851562 145.566406 116.851562 L 155.105469 120.3125 C 154.625 119.027344 153.789062 117.90625 152.691406 117.078125 Z M 152.691406 117.078125 "/>
<path style=" stroke:none;fill-rule:nonzero;fill:rgb(90.196078%,90.196078%,90.196078%);fill-opacity:1;" d="M 82.199219 210.792969 L 359.800781 210.792969 L 359.800781 233.578125 L 82.199219 233.578125 Z M 82.199219 210.792969 "/>
<path style=" stroke:none;fill-rule:nonzero;fill:rgb(90.196078%,90.196078%,90.196078%);fill-opacity:1;" d="M 40.738281 270.109375 C 40.738281 270.109375 -15.417969 244.261719 4.308594 226.335938 C 24.035156 208.410156 40.738281 270.109375 40.738281 270.109375 Z M 40.738281 270.109375 "/>
<path style=" stroke:none;fill-rule:nonzero;fill:rgb(90.196078%,90.196078%,90.196078%);fill-opacity:1;" d="M 39.757812 276.140625 C 39.757812 276.140625 13.949219 191.339844 51.957031 195.394531 C 89.960938 199.449219 39.757812 276.140625 39.757812 276.140625 Z M 39.757812 276.140625 "/>
<path style=" stroke:none;fill-rule:nonzero;fill:rgb(90.196078%,90.196078%,90.196078%);fill-opacity:1;" d="M 20.941406 268.621094 L 22.023438 282.808594 L 22.042969 283.050781 C 22.039062 285.265625 22.152344 287.480469 22.375 289.683594 C 23.847656 304.15625 30.164062 310.75 37.550781 310.75 C 44.9375 310.75 50.980469 304.15625 52.449219 289.683594 C 52.675781 287.480469 52.785156 285.265625 52.785156 283.050781 L 52.792969 282.855469 L 52.796875 282.808594 L 53.886719 268.621094 Z M 20.941406 268.621094 "/>
<path style=" stroke:none;fill-rule:nonzero;fill:rgb(100%,100%,100%);fill-opacity:1;" d="M 52.796875 282.808594 L 52.792969 282.855469 L 52.785156 283.050781 C 52.785156 285.265625 52.675781 287.480469 52.449219 289.683594 L 22.375 289.683594 C 22.152344 287.480469 22.039062 285.265625 22.042969 283.050781 L 22.023438 282.808594 Z M 52.796875 282.808594 "/>
<path style=" stroke:none;fill-rule:nonzero;fill:rgb(90.196078%,90.196078%,90.196078%);fill-opacity:1;" d="M 416.449219 270.109375 C 416.449219 270.109375 360.296875 244.261719 380.023438 226.335938 C 399.746094 208.410156 416.449219 270.109375 416.449219 270.109375 Z M 416.449219 270.109375 "/>
<path style=" stroke:none;fill-rule:nonzero;fill:rgb(90.196078%,90.196078%,90.196078%);fill-opacity:1;" d="M 415.46875 276.140625 C 415.46875 276.140625 389.660156 191.339844 427.667969 195.394531 C 465.671875 199.449219 415.46875 276.140625 415.46875 276.140625 Z M 415.46875 276.140625 "/>
<path style=" stroke:none;fill-rule:nonzero;fill:rgb(90.196078%,90.196078%,90.196078%);fill-opacity:1;" d="M 396.652344 268.621094 L 397.734375 282.808594 L 397.753906 283.050781 C 397.75 285.265625 397.863281 287.480469 398.089844 289.683594 C 399.558594 304.15625 405.878906 310.75 413.261719 310.75 C 420.648438 310.75 426.691406 304.15625 428.160156 289.683594 C 428.386719 287.480469 428.5 285.265625 428.496094 283.050781 L 428.507812 282.855469 L 428.511719 282.808594 L 429.597656 268.621094 Z M 396.652344 268.621094 "/>
<path style=" stroke:none;fill-rule:nonzero;fill:rgb(100%,100%,100%);fill-opacity:1;" d="M 428.511719 282.808594 L 428.507812 282.855469 L 428.496094 283.050781 C 428.5 285.265625 428.386719 287.480469 428.160156 289.683594 L 398.089844 289.683594 C 397.863281 287.480469 397.75 285.265625 397.753906 283.050781 L 397.734375 282.808594 Z M 428.511719 282.808594 "/>
<path style=" stroke:none;fill-rule:nonzero;fill:rgb(100%,72.156863%,72.156863%);fill-opacity:1;" d="M 341.890625 321.464844 L 338.210938 321.898438 C 335.300781 323.652344 331.886719 324.3125 328.109375 324.175781 C 327.035156 324.144531 326.058594 323.546875 325.542969 322.605469 C 325.097656 321.78125 325.058594 320.796875 325.445312 319.941406 C 325.828125 319.089844 326.589844 318.464844 327.5 318.25 L 330.296875 317.597656 L 337.046875 310.996094 L 341.121094 303.628906 L 347.035156 304.304688 L 348.265625 313.667969 C 348.589844 317.558594 345.769531 321.011719 341.890625 321.464844 Z M 341.890625 321.464844 "/>
<path style=" stroke:none;fill-rule:nonzero;fill:rgb(100%,72.156863%,72.156863%);fill-opacity:1;" d="M 284.554688 316.730469 L 280.945312 317.578125 C 278.257812 319.652344 274.941406 320.695312 271.171875 320.992188 C 270.101562 321.085938 269.0625 320.601562 268.441406 319.722656 C 267.90625 318.957031 267.757812 317.984375 268.039062 317.089844 C 268.324219 316.199219 269.007812 315.492188 269.890625 315.175781 L 272.597656 314.210938 L 278.550781 306.882812 L 281.757812 299.097656 L 287.710938 299.097656 L 290 308.253906 C 290.765625 312.085938 288.355469 315.835938 284.554688 316.730469 Z M 284.554688 316.730469 "/>
<path style=" stroke:none;fill-rule:nonzero;fill:rgb(18.431373%,18.039216%,25.490196%);fill-opacity:1;" d="M 281.597656 299.613281 L 288.328125 300.648438 L 298.945312 247.046875 L 317.332031 215.710938 L 339.601562 306.863281 L 347.890625 308.417969 C 346.960938 257.085938 351.496094 192.460938 341.15625 184.636719 L 296.097656 189.816406 L 276.417969 242.644531 Z M 281.597656 299.613281 "/>
<path style=" stroke:none;fill-rule:nonzero;fill:rgb(100%,72.156863%,72.156863%);fill-opacity:1;" d="M 329.761719 89.339844 C 329.761719 97.921875 322.804688 104.878906 314.226562 104.878906 C 305.644531 104.878906 298.6875 97.921875 298.6875 89.339844 C 298.6875 80.757812 305.644531 73.804688 314.226562 73.804688 C 322.804688 73.804688 329.761719 80.757812 329.761719 89.339844 Z M 329.761719 89.339844 "/>
<path style=" stroke:none;fill-rule:nonzero;fill:rgb(100%,72.156863%,72.156863%);fill-opacity:1;" d="M 335.976562 113.164062 L 317.332031 116.273438 L 312.671875 99.699219 L 326.136719 95.554688 Z M 335.976562 113.164062 "/>
<path style=" stroke:none;fill-rule:nonzero;fill:rgb(38.823529%,59.607843%,100%);fill-opacity:1;" d="M 343.746094 186.707031 L 294.027344 191.371094 C 298.011719 177.507812 301.664062 163.699219 298.6875 149.9375 C 294.90625 137.652344 298.554688 130.34375 308.527344 124.558594 L 315.261719 109.539062 L 333.386719 107.46875 C 338.1875 115.183594 340.152344 124.335938 338.941406 133.34375 C 336.359375 152.929688 337.054688 171.109375 343.746094 186.707031 Z M 343.746094 186.707031 "/>
<path style=" stroke:none;fill-rule:nonzero;fill:rgb(18.431373%,18.039216%,25.490196%);fill-opacity:1;" d="M 313.875 70.988281 C 308.6875 72.175781 302.789062 73.851562 302.457031 75.414062 C 297.121094 76.757812 293.097656 79.976562 292.273438 84.886719 C 292.136719 85.746094 292.382812 86.621094 292.953125 87.277344 C 293.523438 87.9375 294.351562 88.308594 295.222656 88.292969 C 298.125 88.257812 302.480469 87.980469 305.355469 86.777344 C 313.707031 92.160156 315.109375 106.160156 311.460938 115.6875 L 317.203125 115.164062 L 323.140625 97.777344 L 324.660156 114.480469 L 337.757812 112.746094 L 336.070312 91.449219 C 335.550781 86.429688 333.84375 81.605469 331.089844 77.378906 C 330.800781 76.953125 330.488281 76.546875 330.148438 76.164062 C 326.089844 71.574219 319.839844 69.589844 313.875 70.988281 Z M 313.875 70.988281 "/>
<path style=" stroke:none;fill-rule:nonzero;fill:rgb(100%,72.156863%,72.156863%);fill-opacity:1;" d="M 280.972656 326.808594 C 280.914062 327.320312 281.078125 327.832031 281.421875 328.21875 C 281.761719 328.605469 282.25 328.828125 282.769531 328.835938 L 288.59375 328.894531 C 289.246094 328.847656 289.75 328.308594 289.75 327.65625 C 289.75 327.148438 289.441406 326.691406 288.96875 326.5 L 287.25 325.8125 L 284.75 322.3125 L 282.75 322.3125 C 281.769531 323.621094 281.15625 325.171875 280.972656 326.796875 Z M 280.972656 326.808594 "/>
<path style=" stroke:none;fill-rule:nonzero;fill:rgb(100%,72.156863%,72.156863%);fill-opacity:1;" d="M 267.027344 326.808594 C 267.085938 327.320312 266.921875 327.832031 266.578125 328.21875 C 266.238281 328.605469 265.75 328.828125 265.230469 328.835938 L 259.40625 328.894531 C 258.753906 328.847656 258.25 328.308594 258.25 327.65625 C 258.25 327.148438 258.558594 326.691406 259.03125 326.5 L 260.75 325.8125 L 263.25 322.3125 L 265.25 322.3125 C 266.230469 323.621094 266.84375 325.171875 267.027344 326.796875 Z M 267.027344 326.808594 "/>
<path style=" stroke:none;fill-rule:nonzero;fill:rgb(24.705882%,23.921569%,33.72549%);fill-opacity:1;" d="M 262.75 322.3125 L 265.75 322.3125 L 276.25 276.8125 L 281.75 322.8125 L 285.25 322.8125 L 290 263.5625 L 265.75 263.3125 Z M 262.75 322.3125 "/>
<path style=" stroke:none;fill-rule:nonzero;fill:rgb(100%,72.156863%,72.156863%);fill-opacity:1;" d="M 249.25 238.8125 L 253.25 238.8125 L 253.25 229.3125 L 254.160156 227.492188 C 254.53125 226.753906 254.523438 225.878906 254.144531 225.144531 C 253.761719 224.410156 253.054688 223.898438 252.234375 223.773438 C 251.488281 223.65625 250.726562 223.875 250.152344 224.367188 C 249.582031 224.859375 249.25 225.578125 249.25 226.335938 Z M 249.25 238.8125 "/>
<path style=" stroke:none;fill-rule:nonzero;fill:rgb(100%,72.156863%,72.156863%);fill-opacity:1;" d="M 282.25 206.0625 C 282.25 211.171875 278.109375 215.3125 273 215.3125 C 267.890625 215.3125 263.75 211.171875 263.75 206.0625 C 263.75 200.953125 267.890625 196.8125 273 196.8125 C 278.109375 196.8125 282.25 200.953125 282.25 206.0625 Z M 282.25 206.0625 "/>
<path style=" stroke:none;fill-rule:nonzero;fill:rgb(100%,72.156863%,72.156863%);fill-opacity:1;" d="M 278.75 221.8125 L 269.25 221.8125 L 269.25 210.8125 L 278.75 210.8125 Z M 278.75 221.8125 "/>
<path style=" stroke:none;fill-rule:nonzero;fill:rgb(38.823529%,59.607843%,100%);fill-opacity:1;" d="M 264.75 264.8125 C 273.160156 270.003906 282.050781 269.496094 291.25 265.3125 L 289.25 218.8125 L 278.75 218.3125 L 267.75 219.8125 L 262.25 224.3125 Z M 264.75 264.8125 "/>
<path style=" stroke:none;fill-rule:nonzero;fill:rgb(38.823529%,59.607843%,100%);fill-opacity:1;" d="M 254.75 248.3125 L 265.75 239.8125 L 262.25 224.3125 L 255.75 236.3125 L 253.75 234.3125 L 247.75 238.8125 Z M 254.75 248.3125 "/>
<path style=" stroke:none;fill-rule:nonzero;fill:rgb(100%,72.156863%,72.156863%);fill-opacity:1;" d="M 303.578125 219.613281 L 300.078125 221.550781 L 295.472656 213.242188 L 293.796875 212.089844 C 293.113281 211.621094 292.695312 210.855469 292.671875 210.027344 C 292.648438 209.199219 293.019531 208.410156 293.675781 207.902344 C 294.273438 207.441406 295.042969 207.261719 295.785156 207.414062 C 296.523438 207.566406 297.160156 208.035156 297.527344 208.695312 L 298.972656 211.304688 Z M 303.578125 219.613281 "/>
<path style=" stroke:none;fill-rule:nonzero;fill:rgb(38.823529%,59.607843%,100%);fill-opacity:1;" d="M 284 233.5625 L 297.277344 226.515625 L 304.25 222.8125 L 305.25 216.8125 L 300.75 212.3125 L 295.25 215.8125 L 295.75 219.8125 L 289.25 218.8125 Z M 284 233.5625 "/>
<path style=" stroke:none;fill-rule:nonzero;fill:rgb(18.431373%,18.039216%,25.490196%);fill-opacity:1;" d="M 286 202.5625 C 286 208.636719 281.074219 213.5625 275 213.5625 C 268.925781 213.5625 264 208.636719 264 202.5625 C 264 196.488281 268.925781 191.5625 275 191.5625 C 281.074219 191.5625 286 196.488281 286 202.5625 Z M 286 202.5625 "/>
<path style=" stroke:none;fill-rule:nonzero;fill:rgb(18.431373%,18.039216%,25.490196%);fill-opacity:1;" d="M 286 190.0625 C 286 192.824219 283.761719 195.0625 281 195.0625 C 278.238281 195.0625 276 192.824219 276 190.0625 C 276 187.300781 278.238281 185.0625 281 185.0625 C 283.761719 185.0625 286 187.300781 286 190.0625 Z M 286 190.0625 "/>
<path style=" stroke:none;fill-rule:nonzero;fill:rgb(18.431373%,18.039216%,25.490196%);fill-opacity:1;" d="M 280.757812 194.242188 C 282.796875 195.308594 285.300781 194.84375 286.820312 193.117188 C 288.34375 191.390625 288.488281 188.847656 287.175781 186.957031 C 288.753906 188.148438 289.484375 190.15625 289.039062 192.082031 C 288.59375 194.007812 287.050781 195.488281 285.109375 195.859375 C 283.167969 196.230469 281.191406 195.425781 280.0625 193.800781 C 280.28125 193.964844 280.515625 194.113281 280.757812 194.242188 Z M 280.757812 194.242188 "/>
<path style=" stroke:none;fill-rule:nonzero;fill:rgb(100%,72.156863%,72.156863%);fill-opacity:1;" d="M 311.636719 202.246094 L 311.980469 214.269531 C 312.078125 217.707031 309.5 220.636719 306.078125 220.980469 C 303.933594 221.195312 301.820312 220.339844 300.425781 218.695312 C 299.03125 217.050781 298.535156 214.828125 299.097656 212.746094 L 301.792969 202.765625 L 309.5625 160.292969 L 309.046875 135.433594 L 325.617188 134.917969 L 322.511719 162.882812 Z M 311.636719 202.246094 "/>
<path style=" stroke:none;fill-rule:nonzero;fill:rgb(38.823529%,59.607843%,100%);fill-opacity:1;" d="M 326.65625 137.507812 C 320.648438 135.21875 314.015625 135.21875 308.007812 137.507812 L 309.046875 116.789062 C 309.046875 112.214844 312.753906 108.503906 317.332031 108.503906 C 321.910156 108.503906 325.617188 112.214844 325.617188 116.789062 Z M 326.65625 137.507812 "/>
</g>
</svg>
