<?xml version="1.0" encoding="UTF-8"?>
<svg xmlns="http://www.w3.org/2000/svg" xmlns:xlink="http://www.w3.org/1999/xlink" width="441pt" height="306pt" viewBox="0 0 441 306" version="1.1">
<defs>
<filter id="alpha" filterUnits="objectBoundingBox" x="0%" y="0%" width="100%" height="100%">
  <feColorMatrix type="matrix" in="SourceGraphic" values="0 0 0 0 1 0 0 0 0 1 0 0 0 0 1 0 0 0 1 0"/>
</filter>
<mask id="mask0">
  <g filter="url(#alpha)">
<rect x="0" y="0" width="441" height="306" style="fill:rgb(0%,0%,0%);fill-opacity:0.2;stroke:none;"/>
  </g>
</mask>
<clipPath id="clip1">
  <rect width="441" height="306"/>
</clipPath>
<g id="surface6" clip-path="url(#clip1)">
<path style=" stroke:none;fill-rule:nonzero;fill:rgb(0%,0%,0%);fill-opacity:1;" d="M 189.179688 241.503906 L 179.941406 238.253906 L 161.710938 252.503906 L 153.539062 223.050781 C 152.972656 221.007812 152.054688 222.042969 150.734375 223.464844 C 147.929688 220.863281 143.871094 220.128906 140.332031 221.585938 C 136.796875 223.039062 134.421875 226.417969 134.253906 230.242188 C 133.28125 251.605469 139.714844 269.679688 155.71875 283.503906 C 176.648438 279.015625 185.53125 264.859375 189.179688 246.503906 L 188.191406 245.84375 C 188.554688 244.425781 188.882812 242.976562 189.179688 241.503906 Z M 189.179688 241.503906 "/>
</g>
</defs>
<g id="surface1">
<path style=" stroke:none;fill-rule:nonzero;fill:rgb(90.196078%,90.196078%,90.196078%);fill-opacity:1;" d="M 51.390625 265.160156 C 51.390625 265.160156 -4.699219 239.308594 15.003906 221.382812 C 34.707031 203.457031 51.390625 265.160156 51.390625 265.160156 Z M 51.390625 265.160156 "/>
<path style=" stroke:none;fill-rule:nonzero;fill:rgb(90.196078%,90.196078%,90.196078%);fill-opacity:1;" d="M 50.414062 271.191406 C 50.414062 271.191406 24.632812 186.386719 62.597656 190.441406 C 100.558594 194.5 50.414062 271.191406 50.414062 271.191406 Z M 50.414062 271.191406 "/>
<path style=" stroke:none;fill-rule:nonzero;fill:rgb(90.196078%,90.196078%,90.196078%);fill-opacity:1;" d="M 31.617188 263.667969 L 32.699219 277.855469 L 32.714844 278.101562 C 32.714844 280.316406 32.828125 282.53125 33.050781 284.734375 C 34.519531 299.203125 40.832031 305.796875 48.207031 305.796875 C 55.585938 305.796875 61.621094 299.203125 63.089844 284.734375 C 63.316406 282.53125 63.425781 280.316406 63.425781 278.101562 L 63.433594 277.902344 L 63.4375 277.855469 L 64.523438 263.667969 Z M 31.617188 263.667969 "/>
<path style=" stroke:none;fill-rule:nonzero;fill:rgb(100%,100%,100%);fill-opacity:1;" d="M 63.4375 277.855469 L 63.433594 277.902344 L 63.425781 278.101562 C 63.425781 280.316406 63.316406 282.53125 63.089844 284.734375 L 33.050781 284.734375 C 32.828125 282.53125 32.714844 280.316406 32.714844 278.101562 L 32.699219 277.855469 Z M 63.4375 277.855469 "/>
<path style=" stroke:none;fill-rule:nonzero;fill:rgb(90.196078%,90.196078%,90.196078%);fill-opacity:1;" d="M 417.21875 273.835938 C 417.21875 273.835938 373.792969 253.820312 389.050781 239.941406 C 404.304688 226.0625 417.21875 273.835938 417.21875 273.835938 Z M 417.21875 273.835938 "/>
<path style=" stroke:none;fill-rule:nonzero;fill:rgb(90.196078%,90.196078%,90.196078%);fill-opacity:1;" d="M 416.464844 278.503906 C 416.464844 278.503906 396.503906 212.847656 425.894531 215.988281 C 455.285156 219.128906 416.464844 278.503906 416.464844 278.503906 Z M 416.464844 278.503906 "/>
<path style=" stroke:none;fill-rule:nonzero;fill:rgb(90.196078%,90.196078%,90.196078%);fill-opacity:1;" d="M 401.910156 272.679688 L 402.746094 283.664062 L 402.761719 283.855469 C 402.761719 285.570312 402.847656 287.28125 403.019531 288.988281 C 404.15625 300.191406 409.042969 305.296875 414.753906 305.296875 C 420.46875 305.296875 425.140625 300.191406 426.277344 288.988281 C 426.453125 287.28125 426.539062 285.570312 426.539062 283.855469 L 426.542969 283.699219 L 426.546875 283.664062 L 427.386719 272.679688 Z M 401.910156 272.679688 "/>
<path style=" stroke:none;fill-rule:nonzero;fill:rgb(100%,100%,100%);fill-opacity:1;" d="M 426.546875 283.664062 L 426.542969 283.699219 L 426.539062 283.855469 C 426.539062 285.570312 426.453125 287.28125 426.277344 288.988281 L 403.019531 288.988281 C 402.847656 287.28125 402.761719 285.570312 402.761719 283.855469 L 402.746094 283.664062 Z M 426.546875 283.664062 "/>
<path style=" stroke:none;fill-rule:nonzero;fill:rgb(90.196078%,90.196078%,90.196078%);fill-opacity:1;" d="M 146.191406 91.292969 L 146.191406 72 L 143.195312 72 L 143.195312 91.292969 C 141.421875 92.011719 140.40625 93.886719 140.773438 95.765625 C 141.136719 97.644531 142.78125 99 144.695312 99 C 146.605469 99 148.25 97.644531 148.617188 95.765625 C 148.980469 93.886719 147.964844 92.011719 146.191406 91.292969 Z M 146.191406 91.292969 "/>
<path style=" stroke:none;fill-rule:nonzero;fill:rgb(90.196078%,90.196078%,90.196078%);fill-opacity:1;" d="M 153.183594 286 L 132.707031 286 L 132.707031 37 L 124.714844 37 L 124.714844 286 L 104.238281 286 C 94.035156 286 85.761719 294.28125 85.761719 304.5 L 171.664062 304.5 C 171.664062 294.28125 163.390625 286 153.183594 286 Z M 153.183594 286 "/>
<path style=" stroke:none;fill-rule:nonzero;fill:rgb(38.823529%,59.607843%,100%);fill-opacity:1;" d="M 85.800781 74 L 171.621094 74 L 166.375 8.328125 C 165.976562 3.636719 162.066406 0.0234375 157.359375 0 L 100.0625 0 C 95.359375 0.0234375 91.449219 3.636719 91.050781 8.328125 Z M 85.800781 74 "/>
<path style=" stroke:none;fill-rule:nonzero;fill:rgb(62.745098%,38.039216%,41.568627%);fill-opacity:1;" d="M 205.292969 189.261719 C 203.664062 188.988281 201.992188 189.382812 200.65625 190.355469 C 199.316406 191.324219 198.421875 192.792969 198.171875 194.429688 L 195.757812 210.304688 L 203.976562 212.488281 L 210.003906 197.695312 C 210.710938 195.957031 210.589844 193.984375 209.675781 192.34375 C 208.757812 190.703125 207.148438 189.566406 205.292969 189.261719 Z M 205.292969 189.261719 "/>
<path style=" stroke:none;fill-rule:nonzero;fill:rgb(38.823529%,59.607843%,100%);fill-opacity:1;" d="M 205.140625 210.273438 C 209.703125 228.425781 207.738281 245.027344 190.75 258.0625 C 170.375 252.4375 156.824219 238.871094 148.554688 219.152344 C 147.515625 216.675781 147.53125 213.878906 148.605469 211.417969 C 149.675781 208.953125 151.703125 207.035156 154.222656 206.105469 C 158.058594 204.695312 162.363281 205.808594 165.039062 208.898438 L 185.035156 232 L 194.414062 208.707031 Z M 205.140625 210.273438 "/>
<path style=" stroke:none;fill-rule:nonzero;fill:rgb(90.196078%,90.196078%,90.196078%);fill-opacity:1;" d="M 309.542969 305.503906 C 290.9375 304.515625 279.378906 298.117188 276.582031 285.003906 L 279.578125 279.503906 L 313.886719 295.152344 C 315.65625 295.957031 316.765625 297.757812 316.691406 299.707031 C 316.617188 301.652344 315.375 303.363281 313.546875 304.035156 Z M 309.542969 305.503906 "/>
<path style=" stroke:none;fill-rule:nonzero;fill:rgb(90.196078%,90.196078%,90.196078%);fill-opacity:1;" d="M 295.167969 305.632812 C 285.5 305.339844 276.203125 305.433594 267.394531 306.03125 C 264.179688 306.25 261.382812 303.839844 261.128906 300.621094 L 260.597656 294.003906 L 253.105469 282.003906 L 259.601562 275.503906 C 270.511719 286.382812 282.476562 295.519531 296.6875 300.953125 C 297.628906 301.597656 298.03125 302.78125 297.675781 303.863281 C 297.324219 304.945312 296.304688 305.667969 295.167969 305.632812 Z M 295.167969 305.632812 "/>
<path style=" stroke:none;fill-rule:nonzero;fill:rgb(18.431373%,18.039216%,25.490196%);fill-opacity:1;" d="M 242.617188 258.503906 C 230.273438 280.617188 218.132812 295.523438 202.164062 303.503906 C 182.515625 309.996094 168.15625 301.394531 156.964844 283.753906 L 189.429688 262.253906 L 194.175781 267.003906 L 237.175781 234.246094 C 239.359375 232.171875 242.804688 232.25 244.898438 234.417969 L 281.574219 279.503906 L 277.078125 287.003906 Z M 242.617188 258.503906 "/>
<path style=" stroke:none;fill-rule:nonzero;fill:rgb(18.431373%,18.039216%,25.490196%);fill-opacity:1;" d="M 253.605469 284.503906 L 236.625 258.503906 L 240.621094 251.003906 L 263.097656 274.503906 Z M 253.605469 284.503906 "/>
<path style=" stroke:none;fill-rule:nonzero;fill:rgb(62.745098%,38.039216%,41.568627%);fill-opacity:1;" d="M 172.699219 184.503906 C 172.699219 193.890625 165.09375 201.503906 155.71875 201.503906 C 146.339844 201.503906 138.738281 193.890625 138.738281 184.503906 C 138.738281 175.113281 146.339844 167.503906 155.71875 167.503906 C 165.09375 167.503906 172.699219 175.113281 172.699219 184.503906 Z M 172.699219 184.503906 "/>
<path style=" stroke:none;fill-rule:nonzero;fill:rgb(62.745098%,38.039216%,41.568627%);fill-opacity:1;" d="M 160.210938 216.003906 L 141.234375 209.503906 C 144.042969 205.035156 145.273438 199.753906 144.730469 194.503906 L 160.210938 194.503906 C 159.332031 202.132812 159.199219 209.367188 160.210938 216.003906 Z M 160.210938 216.003906 "/>
<path style=" stroke:none;fill-rule:nonzero;fill:rgb(38.823529%,59.607843%,100%);fill-opacity:1;" d="M 200.667969 261.503906 C 197.820312 262.671875 197.613281 266.464844 194.921875 267.753906 C 181.917969 273.984375 168.160156 279.039062 158.714844 288.003906 C 136.644531 273 116.183594 226.394531 142.730469 206.003906 C 151.792969 211.3125 159.886719 215.109375 159.714844 206.003906 Z M 200.667969 261.503906 "/>
<use xlink:href="#surface6" mask="url(#mask0)"/>
<path style=" stroke:none;fill-rule:nonzero;fill:rgb(18.431373%,18.039216%,25.490196%);fill-opacity:1;" d="M 158.003906 162.140625 C 163.605469 163.421875 169.980469 165.238281 170.335938 166.925781 C 176.097656 168.378906 180.445312 171.859375 181.335938 177.167969 C 181.484375 178.097656 181.21875 179.042969 180.601562 179.753906 C 179.988281 180.464844 179.089844 180.867188 178.148438 180.855469 C 175.015625 180.8125 170.3125 180.511719 167.207031 179.214844 C 158.183594 185.035156 156.667969 200.171875 160.609375 210.476562 L 154.40625 209.910156 L 147.992188 191.109375 L 146.355469 209.171875 L 132.203125 207.296875 L 134.027344 184.265625 C 134.585938 178.835938 136.433594 173.621094 139.410156 169.046875 C 139.71875 168.589844 140.058594 168.148438 140.421875 167.734375 C 144.808594 162.773438 151.5625 160.625 158.003906 162.140625 Z M 158.003906 162.140625 "/>
<path style=" stroke:none;fill-rule:nonzero;fill:rgb(24.705882%,23.921569%,33.72549%);fill-opacity:1;" d="M 189.925781 219.214844 L 205.46875 237.503906 L 228.78125 209.960938 L 213.027344 190.828125 Z M 189.925781 219.214844 "/>
<path style=" stroke:none;fill-rule:nonzero;fill:rgb(94.901961%,94.901961%,94.901961%);fill-opacity:1;" d="M 224.789062 210.59375 L 206.308594 195.457031 C 207.359375 192.933594 212.398438 193.773438 212.398438 193.773438 L 226.863281 208.457031 C 227.367188 208.96875 227.800781 209.546875 228.148438 210.171875 Z M 224.789062 210.59375 "/>
<path style=" stroke:none;fill-rule:nonzero;fill:rgb(24.705882%,23.921569%,33.72549%);fill-opacity:1;" d="M 225.628906 209.542969 L 204.628906 193.140625 L 181.316406 228.464844 L 203.261719 243.289062 C 205.363281 244.128906 207.464844 242.65625 207.464844 242.65625 L 228.882812 209.859375 Z M 225.628906 209.542969 "/>
<path style=" stroke:none;fill-rule:nonzero;fill:rgb(38.823529%,59.607843%,100%);fill-opacity:1;" d="M 207.046875 198.539062 L 207.246094 198.261719 L 220.6875 207.929688 L 220.488281 208.207031 Z M 207.046875 198.539062 "/>
<path style=" stroke:none;fill-rule:nonzero;fill:rgb(38.823529%,59.607843%,100%);fill-opacity:1;" d="M 203.226562 238.253906 L 220.867188 211.550781 L 221.152344 211.738281 L 203.507812 238.441406 Z M 203.226562 238.253906 "/>
<path style=" stroke:none;fill-rule:nonzero;fill:rgb(38.823529%,59.607843%,100%);fill-opacity:1;" d="M 186.886719 228.808594 L 187.089844 228.535156 L 201.367188 239.050781 L 201.164062 239.328125 Z M 186.886719 228.808594 "/>
<path style=" stroke:none;fill-rule:nonzero;fill:rgb(38.823529%,59.607843%,100%);fill-opacity:1;" d="M 186.425781 225.003906 L 204.699219 198.722656 L 204.976562 198.917969 L 186.707031 225.199219 Z M 186.425781 225.003906 "/>
<path style=" stroke:none;fill-rule:nonzero;fill:rgb(70.196078%,70.196078%,70.196078%);fill-opacity:1;" d="M 210.199219 193.71875 L 210.34375 193.566406 L 226.960938 208.832031 L 226.820312 208.988281 Z M 210.199219 193.71875 "/>
<path style=" stroke:none;fill-rule:nonzero;fill:rgb(70.196078%,70.196078%,70.196078%);fill-opacity:1;" d="M 208.820312 193.851562 L 208.957031 193.695312 L 226.324219 209.046875 L 226.1875 209.203125 Z M 208.820312 193.851562 "/>
<path style=" stroke:none;fill-rule:nonzero;fill:rgb(70.196078%,70.196078%,70.196078%);fill-opacity:1;" d="M 207.738281 194.164062 L 207.871094 194 L 225.902344 209.046875 L 225.765625 209.210938 Z M 207.738281 194.164062 "/>
<path style=" stroke:none;fill-rule:nonzero;fill:rgb(62.745098%,38.039216%,41.568627%);fill-opacity:1;" d="M 198.316406 224.582031 C 196.957031 223.640625 195.28125 223.277344 193.65625 223.582031 C 192.03125 223.882812 190.59375 224.828125 189.667969 226.199219 L 180.6875 239.503906 L 187.183594 245.003906 L 198.957031 234.226562 C 200.34375 232.957031 201.078125 231.125 200.953125 229.25 C 200.828125 227.375 199.859375 225.65625 198.316406 224.582031 Z M 198.316406 224.582031 "/>
<path style=" stroke:none;fill-rule:nonzero;fill:rgb(38.823529%,59.607843%,100%);fill-opacity:1;" d="M 189.179688 243.503906 C 185.53125 261.859375 176.648438 276.015625 155.71875 280.503906 C 139.714844 266.679688 133.28125 248.605469 134.253906 227.242188 C 134.375 224.558594 135.585938 222.039062 137.609375 220.273438 C 139.632812 218.507812 142.289062 217.644531 144.960938 217.886719 C 149.03125 218.257812 152.445312 221.109375 153.539062 225.050781 L 161.710938 254.503906 L 180.160156 237.484375 Z M 189.179688 243.503906 "/>
<path style=" stroke:none;fill-rule:nonzero;fill:rgb(24.705882%,23.921569%,33.72549%);fill-opacity:1;" d="M 440.777344 306.074219 L 0 306.074219 L 0 304.984375 L 440.976562 304.984375 Z M 440.777344 306.074219 "/>
<path style=" stroke:none;fill-rule:nonzero;fill:rgb(90.196078%,90.196078%,90.196078%);fill-opacity:1;" d="M 230.382812 45.753906 C 229.832031 45.753906 229.382812 46.203125 229.382812 46.753906 L 229.382812 124.753906 C 229.382812 125.304688 229.832031 125.753906 230.382812 125.753906 L 295.308594 125.753906 C 295.859375 125.753906 296.308594 125.304688 296.308594 124.753906 L 296.308594 46.753906 C 296.308594 46.203125 295.859375 45.753906 295.308594 45.753906 Z M 230.382812 45.753906 "/>
<path style=" stroke:none;fill-rule:nonzero;fill:rgb(100%,100%,100%);fill-opacity:1;" d="M 237.125 118.003906 L 288.566406 118.003906 L 288.566406 53.503906 L 237.125 53.503906 Z M 237.125 118.003906 "/>
<path style=" stroke:none;fill-rule:nonzero;fill:rgb(90.196078%,90.196078%,90.196078%);fill-opacity:1;" d="M 338.476562 66.253906 C 338.148438 66.253906 337.878906 66.519531 337.878906 66.851562 L 337.878906 105.65625 C 337.878906 105.984375 338.148438 106.253906 338.476562 106.253906 L 384.992188 106.253906 C 385.320312 106.253906 385.585938 105.984375 385.585938 105.65625 L 385.585938 66.851562 C 385.585938 66.519531 385.320312 66.253906 384.992188 66.253906 Z M 338.476562 66.253906 "/>
<path style=" stroke:none;fill-rule:nonzero;fill:rgb(100%,100%,100%);fill-opacity:1;" d="M 342.503906 70.878906 L 342.503906 101.625 L 380.964844 101.625 L 380.964844 70.878906 Z M 342.503906 70.878906 "/>
<path style=" stroke:none;fill-rule:nonzero;fill:rgb(90.196078%,90.196078%,90.196078%);fill-opacity:1;" d="M 271.929688 51.253906 L 253.761719 51.253906 C 252.871094 51.257812 252.042969 50.78125 251.59375 50.007812 C 251.148438 49.230469 251.152344 48.277344 251.601562 47.503906 L 260.683594 31.753906 C 260.691406 31.742188 260.699219 31.726562 260.707031 31.714844 C 261.109375 31.035156 261.8125 30.589844 262.597656 30.515625 L 262.609375 30.515625 C 262.6875 30.507812 262.765625 30.503906 262.847656 30.503906 C 263.738281 30.5 264.566406 30.976562 265.007812 31.753906 L 274.089844 47.503906 C 274.539062 48.277344 274.539062 49.230469 274.089844 50.003906 C 273.644531 50.777344 272.820312 51.253906 271.929688 51.253906 Z M 253.261719 48.75 C 253.261719 48.839844 253.285156 48.925781 253.332031 49.003906 C 253.417969 49.160156 253.585938 49.253906 253.761719 49.253906 L 271.929688 49.253906 C 272.109375 49.253906 272.273438 49.160156 272.363281 49.003906 C 272.40625 48.925781 272.429688 48.839844 272.429688 48.75 C 272.429688 48.664062 272.40625 48.578125 272.363281 48.503906 L 263.277344 32.753906 C 263.1875 32.597656 263.023438 32.503906 262.847656 32.503906 C 262.667969 32.503906 262.503906 32.597656 262.414062 32.753906 L 253.332031 48.503906 C 253.285156 48.578125 253.261719 48.664062 253.261719 48.75 Z M 253.261719 48.75 "/>
<path style=" stroke:none;fill-rule:nonzero;fill:rgb(90.196078%,90.196078%,90.196078%);fill-opacity:1;" d="M 264.34375 33.753906 C 264.34375 34.582031 263.671875 35.253906 262.847656 35.253906 C 262.019531 35.253906 261.347656 34.582031 261.347656 33.753906 C 261.347656 32.925781 262.019531 32.253906 262.847656 32.253906 C 263.671875 32.253906 264.34375 32.925781 264.34375 33.753906 Z M 264.34375 33.753906 "/>
<path style=" stroke:none;fill-rule:nonzero;fill:rgb(90.196078%,90.196078%,90.196078%);fill-opacity:1;" d="M 366.660156 67.503906 L 356.808594 67.503906 C 356.324219 67.503906 355.875 67.246094 355.632812 66.828125 C 355.390625 66.40625 355.394531 65.890625 355.636719 65.46875 L 360.5625 56.929688 L 360.574219 56.910156 C 360.792969 56.542969 361.171875 56.300781 361.597656 56.261719 L 361.605469 56.257812 C 361.648438 56.253906 361.691406 56.253906 361.734375 56.253906 C 362.21875 56.25 362.667969 56.507812 362.90625 56.929688 L 367.832031 65.46875 C 368.074219 65.890625 368.074219 66.40625 367.832031 66.824219 C 367.589844 67.246094 367.140625 67.503906 366.660156 67.503906 Z M 356.539062 66.148438 C 356.539062 66.195312 356.550781 66.242188 356.574219 66.285156 C 356.621094 66.367188 356.710938 66.421875 356.808594 66.417969 L 366.660156 66.417969 C 366.753906 66.421875 366.84375 66.367188 366.894531 66.285156 C 366.917969 66.242188 366.929688 66.195312 366.929688 66.148438 C 366.929688 66.097656 366.917969 66.054688 366.894531 66.011719 L 361.96875 57.472656 C 361.921875 57.390625 361.832031 57.335938 361.734375 57.335938 C 361.636719 57.335938 361.546875 57.390625 361.5 57.472656 L 356.574219 66.011719 C 356.550781 66.054688 356.539062 66.097656 356.539062 66.148438 Z M 356.539062 66.148438 "/>
<path style=" stroke:none;fill-rule:nonzero;fill:rgb(90.196078%,90.196078%,90.196078%);fill-opacity:1;" d="M 362.546875 58.015625 C 362.546875 58.464844 362.183594 58.828125 361.734375 58.828125 C 361.285156 58.828125 360.921875 58.464844 360.921875 58.015625 C 360.921875 57.566406 361.285156 57.203125 361.734375 57.203125 C 362.183594 57.203125 362.546875 57.566406 362.546875 58.015625 Z M 362.546875 58.015625 "/>
<path style=" stroke:none;fill-rule:nonzero;fill:rgb(90.196078%,90.196078%,90.196078%);fill-opacity:1;" d="M 237.714844 93.445312 C 239.164062 90.109375 241.921875 87.519531 245.335938 86.28125 C 248.890625 84.90625 252.871094 85.152344 256.230469 86.957031 C 260.128906 89.03125 263.242188 92.285156 267.199219 94.265625 C 271.050781 96.175781 275.285156 97.175781 279.578125 97.1875 C 284.441406 97.226562 289.230469 95.980469 293.460938 93.578125 C 293.800781 93.363281 293.910156 92.914062 293.707031 92.566406 C 293.503906 92.21875 293.058594 92.09375 292.703125 92.285156 C 284.917969 96.652344 275.460938 96.828125 267.519531 92.746094 C 263.546875 90.664062 260.402344 87.296875 256.355469 85.34375 C 252.886719 83.660156 248.886719 83.433594 245.253906 84.71875 C 241.207031 86.078125 237.933594 89.109375 236.269531 93.046875 C 235.90625 93.9375 237.355469 94.328125 237.714844 93.445312 Z M 237.714844 93.445312 "/>
<path style=" stroke:none;fill-rule:nonzero;fill:rgb(90.196078%,90.196078%,90.196078%);fill-opacity:1;" d="M 236.53125 107.464844 C 244.84375 105.605469 253.46875 105.636719 261.769531 107.554688 C 269.144531 109.265625 276.757812 112.34375 284.363281 110.046875 C 287.757812 109.023438 290.871094 106.96875 292.617188 103.808594 C 293.085938 102.964844 291.792969 102.207031 291.324219 103.050781 C 288.039062 109 280.339844 110.003906 274.261719 109.027344 C 270.199219 108.375 266.28125 107.070312 262.285156 106.132812 C 253.6875 104.113281 244.746094 104.074219 236.132812 106.019531 C 235.191406 106.230469 235.589844 107.675781 236.53125 107.464844 Z M 236.53125 107.464844 "/>
<path style=" stroke:none;fill-rule:nonzero;fill:rgb(90.196078%,90.196078%,90.196078%);fill-opacity:1;" d="M 235.988281 73.9375 C 243.960938 72.578125 252.128906 72.871094 259.984375 74.789062 C 267.324219 76.589844 274.496094 80.703125 282.257812 79.992188 C 285.851562 79.664062 289.40625 78.339844 291.847656 75.589844 C 292.484375 74.871094 291.429688 73.804688 290.789062 74.527344 C 288.683594 76.902344 285.648438 78.132812 282.539062 78.464844 C 278.953125 78.847656 275.425781 78.105469 272.011719 77.046875 C 268.234375 75.878906 264.5625 74.394531 260.722656 73.429688 C 252.503906 71.363281 243.941406 71.042969 235.589844 72.488281 C 234.644531 72.652344 235.046875 74.097656 235.988281 73.9375 Z M 235.988281 73.9375 "/>
<path style=" stroke:none;fill-rule:nonzero;fill:rgb(90.196078%,90.196078%,90.196078%);fill-opacity:1;" d="M 349.199219 70.375 C 352.644531 73.90625 355.019531 78.339844 356.054688 83.167969 C 357.664062 90.945312 355.605469 99.035156 350.476562 105.097656 C 349.855469 105.828125 350.910156 106.894531 351.535156 106.160156 C 354.984375 102.089844 357.1875 97.113281 357.878906 91.820312 C 358.898438 83.546875 356.09375 75.261719 350.257812 69.3125 C 349.582031 68.621094 348.523438 69.683594 349.199219 70.375 Z M 349.199219 70.375 "/>
<path style=" stroke:none;fill-rule:nonzero;fill:rgb(90.196078%,90.196078%,90.196078%);fill-opacity:1;" d="M 371.679688 67.171875 C 367.089844 70.542969 364.515625 75.988281 364.15625 81.617188 C 363.78125 87.472656 366.011719 93.128906 369.601562 97.675781 C 371.699219 100.292969 374.203125 102.558594 377.019531 104.378906 C 377.828125 104.90625 378.578125 103.609375 377.773438 103.082031 C 373.1875 100.078125 369.261719 95.808594 367.179688 90.6875 C 365.125 85.773438 365.109375 80.242188 367.136719 75.316406 C 368.257812 72.601562 370.089844 70.234375 372.4375 68.46875 C 373.207031 67.902344 372.460938 66.601562 371.679688 67.171875 Z M 371.679688 67.171875 "/>
<path style=" stroke:none;fill-rule:nonzero;fill:rgb(90.196078%,90.196078%,90.196078%);fill-opacity:1;" d="M 273.335938 75.253906 C 273.335938 79.121094 270.203125 82.253906 266.34375 82.253906 C 262.480469 82.253906 259.351562 79.121094 259.351562 75.253906 C 259.351562 71.386719 262.480469 68.253906 266.34375 68.253906 C 270.203125 68.253906 273.335938 71.386719 273.335938 75.253906 Z M 273.335938 75.253906 "/>
</g>
</svg>
