<?xml version="1.0" encoding="UTF-8"?>
<svg xmlns="http://www.w3.org/2000/svg" xmlns:xlink="http://www.w3.org/1999/xlink" width="214pt" height="273pt" viewBox="0 0 214 273" version="1.1">
<defs>
<filter id="alpha" filterUnits="objectBoundingBox" x="0%" y="0%" width="100%" height="100%">
  <feColorMatrix type="matrix" in="SourceGraphic" values="0 0 0 0 1 0 0 0 0 1 0 0 0 0 1 0 0 0 1 0"/>
</filter>
<mask id="mask0">
  <g filter="url(#alpha)">
<rect x="0" y="0" width="214" height="273" style="fill:rgb(0%,0%,0%);fill-opacity:0.2;stroke:none;"/>
  </g>
</mask>
<clipPath id="clip1">
  <rect width="214" height="273"/>
</clipPath>
<g id="surface6" clip-path="url(#clip1)">
<path style=" stroke:none;fill-rule:nonzero;fill:rgb(0%,0%,0%);fill-opacity:1;" d="M 41.277344 64.8125 L 40.777344 97.8125 L 62.777344 134.8125 L 43.277344 96.8125 Z M 41.277344 64.8125 "/>
</g>
<mask id="mask1">
  <g filter="url(#alpha)">
<rect x="0" y="0" width="214" height="273" style="fill:rgb(0%,0%,0%);fill-opacity:0.2;stroke:none;"/>
  </g>
</mask>
<clipPath id="clip2">
  <rect width="214" height="273"/>
</clipPath>
<g id="surface9" clip-path="url(#clip2)">
<path style=" stroke:none;fill-rule:nonzero;fill:rgb(0%,0%,0%);fill-opacity:1;" d="M 34.636719 114.65625 L 47.679688 137.0625 L 43.058594 136.8125 Z M 34.636719 114.65625 "/>
</g>
</defs>
<g id="surface1">
<path style=" stroke:none;fill-rule:nonzero;fill:rgb(24.705882%,23.921569%,33.72549%);fill-opacity:1;" d="M 128.867188 267.824219 L 0 267.824219 L 0 266.773438 L 129.058594 266.773438 Z M 128.867188 267.824219 "/>
<path style=" stroke:none;fill-rule:nonzero;fill:rgb(62.745098%,38.039216%,41.568627%);fill-opacity:1;" d="M 44.527344 252.5625 L 37.027344 253.0625 L 38.027344 174.5625 L 56.527344 174.5625 Z M 44.527344 252.5625 "/>
<path style=" stroke:none;fill-rule:nonzero;fill:rgb(62.745098%,38.039216%,41.568627%);fill-opacity:1;" d="M 80.527344 252.5625 L 73.027344 253.0625 L 74.027344 174.5625 L 85.992188 174.566406 Z M 80.527344 252.5625 "/>
<path style=" stroke:none;fill-rule:nonzero;fill:rgb(18.431373%,18.039216%,25.490196%);fill-opacity:1;" d="M 88.527344 244.0625 C 80.675781 247.644531 73.296875 247.460938 66.273438 244.445312 L 62.527344 154.5625 L 51.796875 243.65625 C 43.953125 245.597656 36.023438 245.589844 28.027344 244.0625 C 29.867188 230.71875 37.730469 149.464844 37.027344 134.5625 L 89.527344 132.0625 Z M 88.527344 244.0625 "/>
<path style=" stroke:none;fill-rule:nonzero;fill:rgb(18.431373%,18.039216%,25.490196%);fill-opacity:1;" d="M 43.183594 273.132812 C 41.09375 273.132812 39.097656 272.273438 37.664062 270.75 C 36.230469 269.230469 35.488281 267.1875 35.613281 265.101562 L 36.335938 252.875 C 39.25 247.652344 42.785156 247.628906 46.90625 252.496094 L 50.398438 263.195312 C 51.148438 265.507812 50.75 268.039062 49.324219 270.003906 C 47.898438 271.96875 45.613281 273.132812 43.183594 273.132812 Z M 43.183594 273.132812 "/>
<path style=" stroke:none;fill-rule:nonzero;fill:rgb(18.431373%,18.039216%,25.490196%);fill-opacity:1;" d="M 78.683594 273.132812 C 76.59375 273.132812 74.597656 272.273438 73.164062 270.75 C 71.730469 269.230469 70.988281 267.1875 71.113281 265.101562 L 71.835938 252.875 C 74.75 247.652344 78.285156 247.628906 82.40625 252.496094 L 85.898438 263.195312 C 86.648438 265.507812 86.25 268.039062 84.824219 270.003906 C 83.398438 271.96875 81.113281 273.132812 78.683594 273.132812 Z M 78.683594 273.132812 "/>
<path style=" stroke:none;fill-rule:nonzero;fill:rgb(62.745098%,38.039216%,41.568627%);fill-opacity:1;" d="M 83.027344 20.5625 C 83.027344 28.570312 76.535156 35.0625 68.527344 35.0625 C 60.519531 35.0625 54.027344 28.570312 54.027344 20.5625 C 54.027344 12.554688 60.519531 6.0625 68.527344 6.0625 C 76.535156 6.0625 83.027344 12.554688 83.027344 20.5625 Z M 83.027344 20.5625 "/>
<path style=" stroke:none;fill-rule:nonzero;fill:rgb(62.745098%,38.039216%,41.568627%);fill-opacity:1;" d="M 68.027344 48.0625 L 44.527344 38.5625 C 50.148438 35.808594 53.96875 30.683594 57.027344 24.5625 L 67.527344 24.5625 C 67.027344 33.902344 66.621094 43.023438 68.027344 48.0625 Z M 68.027344 48.0625 "/>
<path style=" stroke:none;fill-rule:nonzero;fill:rgb(38.823529%,59.607843%,100%);fill-opacity:1;" d="M 91.027344 135.5625 L 35.027344 137.0625 C 35.707031 110.175781 34.511719 82.503906 31.703125 54.167969 C 31.058594 47.601562 34.90625 41.417969 41.089844 39.101562 L 46.527344 37.0625 L 68.527344 43.0625 L 78.910156 51.023438 C 81.734375 53.199219 83.28125 56.640625 83.03125 60.199219 C 81.460938 83.152344 84.96875 108.707031 91.027344 135.5625 Z M 91.027344 135.5625 "/>
<path style=" stroke:none;fill-rule:nonzero;fill:rgb(62.745098%,38.039216%,41.568627%);fill-opacity:1;" d="M 97.269531 154.503906 C 94.175781 154.683594 91.480469 152.40625 91.136719 149.324219 L 89.898438 138.179688 L 96.515625 136.335938 L 101.976562 145.757812 C 102.992188 147.507812 103.027344 149.660156 102.066406 151.445312 C 101.109375 153.226562 99.292969 154.386719 97.269531 154.503906 Z M 97.269531 154.503906 "/>
<path style=" stroke:none;fill-rule:nonzero;fill:rgb(38.823529%,59.607843%,100%);fill-opacity:1;" d="M 103.027344 139.0625 L 90.027344 139.5625 L 80.027344 99.5625 L 77.527344 50.0625 C 82.234375 50.652344 85.941406 54.355469 86.539062 59.0625 L 91.027344 94.5625 Z M 103.027344 139.0625 "/>
<use xlink:href="#surface6" mask="url(#mask0)"/>
<use xlink:href="#surface9" mask="url(#mask1)"/>
<path style=" stroke:none;fill-rule:nonzero;fill:rgb(90.196078%,90.196078%,90.196078%);fill-opacity:1;" d="M 64.839844 110.296875 C 63.574219 110.296875 62.546875 111.324219 62.546875 112.589844 L 62.546875 254.847656 C 62.546875 256.113281 63.574219 257.140625 64.839844 257.144531 L 211.6875 257.144531 C 212.953125 257.140625 213.980469 256.113281 213.984375 254.847656 L 213.984375 112.589844 C 213.980469 111.324219 212.953125 110.296875 211.6875 110.296875 Z M 64.839844 110.296875 "/>
<path style=" stroke:none;fill-rule:nonzero;fill:rgb(100%,100%,100%);fill-opacity:1;" d="M 68.296875 251.394531 L 208.234375 251.394531 L 208.234375 116.046875 L 68.296875 116.046875 Z M 68.296875 251.394531 "/>
<path style=" stroke:none;fill-rule:nonzero;fill:rgb(90.196078%,90.196078%,90.196078%);fill-opacity:1;" d="M 80.761719 137.609375 C 79.828125 137.609375 79.066406 138.945312 79.066406 140.589844 C 79.066406 142.234375 79.828125 143.574219 80.761719 143.574219 L 144.582031 143.574219 C 145.515625 143.574219 146.277344 142.234375 146.277344 140.589844 C 146.277344 138.945312 145.515625 137.609375 144.582031 137.609375 Z M 80.761719 137.609375 "/>
<path style=" stroke:none;fill-rule:nonzero;fill:rgb(90.196078%,90.196078%,90.196078%);fill-opacity:1;" d="M 80.761719 155.964844 C 79.828125 155.964844 79.066406 157.300781 79.066406 158.945312 C 79.066406 160.59375 79.828125 161.929688 80.761719 161.929688 L 144.582031 161.929688 C 145.515625 161.929688 146.277344 160.59375 146.277344 158.945312 C 146.277344 157.300781 145.515625 155.964844 144.582031 155.964844 Z M 80.761719 155.964844 "/>
<path style=" stroke:none;fill-rule:nonzero;fill:rgb(90.196078%,90.196078%,90.196078%);fill-opacity:1;" d="M 80.761719 174.109375 C 79.828125 174.109375 79.066406 175.445312 79.066406 177.089844 C 79.066406 178.734375 79.828125 180.074219 80.761719 180.074219 L 144.582031 180.074219 C 145.515625 180.074219 146.277344 178.734375 146.277344 177.089844 C 146.277344 175.445312 145.515625 174.109375 144.582031 174.109375 Z M 80.761719 174.109375 "/>
<path style=" stroke:none;fill-rule:nonzero;fill:rgb(90.196078%,90.196078%,90.196078%);fill-opacity:1;" d="M 80.761719 192.464844 C 79.828125 192.464844 79.066406 193.800781 79.066406 195.445312 C 79.066406 197.09375 79.828125 198.429688 80.761719 198.429688 L 144.582031 198.429688 C 145.515625 198.429688 146.277344 197.09375 146.277344 195.445312 C 146.277344 193.800781 145.515625 192.464844 144.582031 192.464844 Z M 80.761719 192.464844 "/>
<path style=" stroke:none;fill-rule:nonzero;fill:rgb(90.196078%,90.196078%,90.196078%);fill-opacity:1;" d="M 176.917969 137.804688 C 175.269531 137.804688 173.933594 139.140625 173.933594 140.789062 C 173.933594 142.433594 175.269531 143.769531 176.917969 143.769531 L 188.847656 143.769531 C 190.496094 143.769531 191.832031 142.433594 191.832031 140.789062 C 191.832031 139.140625 190.496094 137.804688 188.847656 137.804688 Z M 176.917969 137.804688 "/>
<path style=" stroke:none;fill-rule:nonzero;fill:rgb(90.196078%,90.196078%,90.196078%);fill-opacity:1;" d="M 176.917969 155.804688 C 175.269531 155.804688 173.933594 157.140625 173.933594 158.789062 C 173.933594 160.433594 175.269531 161.769531 176.917969 161.769531 L 188.847656 161.769531 C 190.496094 161.769531 191.832031 160.433594 191.832031 158.789062 C 191.832031 157.140625 190.496094 155.804688 188.847656 155.804688 Z M 176.917969 155.804688 "/>
<path style=" stroke:none;fill-rule:nonzero;fill:rgb(90.196078%,90.196078%,90.196078%);fill-opacity:1;" d="M 176.917969 173.804688 C 175.269531 173.804688 173.933594 175.140625 173.933594 176.789062 C 173.933594 178.433594 175.269531 179.769531 176.917969 179.769531 L 188.847656 179.769531 C 190.496094 179.769531 191.832031 178.433594 191.832031 176.789062 C 191.832031 175.140625 190.496094 173.804688 188.847656 173.804688 Z M 176.917969 173.804688 "/>
<path style=" stroke:none;fill-rule:nonzero;fill:rgb(90.196078%,90.196078%,90.196078%);fill-opacity:1;" d="M 176.917969 191.804688 C 175.269531 191.804688 173.933594 193.140625 173.933594 194.789062 C 173.933594 196.433594 175.269531 197.769531 176.917969 197.769531 L 188.847656 197.769531 C 190.496094 197.769531 191.832031 196.433594 191.832031 194.789062 C 191.832031 193.140625 190.496094 191.804688 188.847656 191.804688 Z M 176.917969 191.804688 "/>
<path style=" stroke:none;fill-rule:nonzero;fill:rgb(38.823529%,59.607843%,100%);fill-opacity:1;" d="M 173.28125 221.988281 C 171.183594 221.988281 169.480469 223.6875 169.480469 225.789062 C 169.480469 227.886719 171.183594 229.589844 173.28125 229.589844 L 188.484375 229.589844 C 190.582031 229.589844 192.285156 227.886719 192.285156 225.789062 C 192.285156 223.6875 190.582031 221.988281 188.484375 221.988281 Z M 173.28125 221.988281 "/>
<path style=" stroke:none;fill-rule:nonzero;fill:rgb(90.196078%,90.196078%,90.196078%);fill-opacity:1;" d="M 79.277344 211.8125 L 191.777344 211.8125 L 191.777344 212.8125 L 79.277344 212.8125 Z M 79.277344 211.8125 "/>
<path style=" stroke:none;fill-rule:nonzero;fill:rgb(62.745098%,38.039216%,41.568627%);fill-opacity:1;" d="M 66.199219 152.039062 C 63.410156 153.394531 60.046875 152.328125 58.546875 149.613281 L 53.125 139.800781 L 58.523438 135.554688 L 67.183594 142.15625 C 68.796875 143.382812 69.65625 145.359375 69.453125 147.375 C 69.253906 149.386719 68.019531 151.15625 66.199219 152.039062 Z M 66.199219 152.039062 "/>
<path style=" stroke:none;fill-rule:nonzero;fill:rgb(38.823529%,59.607843%,100%);fill-opacity:1;" d="M 62.527344 136.0625 L 51.527344 142.0625 L 26.527344 99.0625 L 23.644531 61.25 C 22.980469 52.539062 28.121094 44.425781 36.285156 41.304688 L 39.527344 40.0625 L 41.527344 97.0625 Z M 62.527344 136.0625 "/>
<path style=" stroke:none;fill-rule:nonzero;fill:rgb(18.431373%,18.039216%,25.490196%);fill-opacity:1;" d="M 80.828125 4.648438 L 80.992188 7.066406 L 79.746094 3.746094 C 76.617188 1.472656 72.875 0.1875 69.003906 0.0625 C 64.339844 -0.402344 59.742188 1.460938 56.714844 5.042969 C 53.6875 8.621094 52.617188 13.464844 53.851562 17.988281 L 54.027344 20.0625 L 58.027344 14.5625 C 61.691406 11.242188 66.832031 10.089844 71.5625 11.527344 C 73.3125 12.0625 74.992188 12.792969 76.574219 13.710938 C 78.984375 15.15625 81.160156 16.960938 83.027344 19.0625 L 83.375 16.699219 C 85.710938 12.308594 84.320312 7.847656 80.828125 4.648438 Z M 80.828125 4.648438 "/>
</g>
</svg>
