<?xml version="1.0" encoding="UTF-8"?>
<svg xmlns="http://www.w3.org/2000/svg" xmlns:xlink="http://www.w3.org/1999/xlink" width="224pt" height="208pt" viewBox="0 0 224 208" version="1.1">
<g id="surface1">
<path style=" stroke:none;fill-rule:nonzero;fill:rgb(38.823529%,59.607843%,100%);fill-opacity:1;" d="M 177.230469 6.625 C 177.230469 6.625 183.832031 1.589844 197.828125 8.480469 C 211.820312 15.367188 221.855469 9.539062 221.855469 9.539062 L 220.273438 32.589844 C 220.273438 32.589844 206.011719 38.15625 192.808594 30.207031 C 179.605469 22.257812 175.382812 30.207031 175.382812 30.207031 Z M 177.230469 6.625 "/>
<path style=" stroke:none;fill-rule:nonzero;fill:rgb(38.823529%,59.607843%,100%);fill-opacity:1;" d="M 189.90625 111.816406 C 189.898438 143.550781 170.65625 172.089844 141.304688 183.902344 C 138.6875 184.957031 136.011719 185.867188 133.292969 186.625 C 119.71875 190.390625 105.375 190.394531 91.800781 186.628906 C 89.941406 186.113281 88.117188 185.527344 86.316406 184.878906 C 82.226562 183.402344 78.269531 181.578125 74.492188 179.425781 C 51.011719 166.101562 35.167969 140.816406 35.167969 111.816406 C 35.144531 70.332031 67.640625 36.167969 108.941406 34.261719 C 110.132812 34.207031 111.332031 34.179688 112.535156 34.179688 C 113.859375 34.179688 115.175781 34.214844 116.484375 34.277344 C 157.628906 36.382812 189.914062 70.476562 189.90625 111.816406 Z M 189.90625 111.816406 "/>
<path style=" stroke:none;fill-rule:nonzero;fill:rgb(24.705882%,23.921569%,33.72549%);fill-opacity:1;" d="M 209.84375 34.507812 C 204.761719 34.507812 198.703125 33.484375 192.871094 29.972656 C 187.535156 26.757812 183.113281 25.699219 179.722656 26.816406 C 177.945312 27.378906 176.464844 28.636719 175.625 30.308594 L 174.941406 31.964844 L 177.6875 4.699219 L 177.757812 4.632812 C 177.988281 4.410156 183.640625 -0.734375 198.425781 6.546875 C 212.90625 13.675781 223.46875 7.734375 223.574219 7.675781 L 224.003906 7.425781 L 223.96875 7.921875 L 222.28125 32.453125 L 222.125 32.511719 C 222.039062 32.546875 216.878906 34.507812 209.84375 34.507812 Z M 182.535156 25.855469 C 185.542969 25.855469 189.097656 27.082031 193.144531 29.519531 C 206.078125 37.304688 220.144531 32.660156 221.777344 32.074219 L 223.410156 8.351562 C 221.265625 9.390625 211.289062 13.46875 198.195312 7.019531 C 184.605469 0.332031 178.875 4.398438 178.191406 4.957031 L 175.765625 29.046875 C 176.710938 27.757812 178.039062 26.800781 179.558594 26.3125 C 180.519531 26.003906 181.523438 25.847656 182.535156 25.855469 Z M 182.535156 25.855469 "/>
<path style=" stroke:none;fill-rule:nonzero;fill:rgb(24.705882%,23.921569%,33.72549%);fill-opacity:1;" d="M 110.953125 189.1875 C 103.488281 189.191406 96.0625 188.179688 88.871094 186.179688 C 86.878906 185.628906 84.917969 185 83.03125 184.316406 C 78.679688 182.742188 74.464844 180.800781 70.4375 178.511719 C 43.847656 163.417969 27.753906 134.804688 28.625 104.160156 C 29.492188 73.515625 47.183594 45.867188 74.589844 32.316406 C 84.738281 27.289062 95.816406 24.433594 107.121094 23.933594 C 109.671875 23.816406 112.375 23.816406 115.15625 23.953125 C 153.796875 25.945312 185.851562 54.652344 192.207031 92.953125 C 198.558594 131.25 177.5 168.828125 141.585938 183.277344 C 138.796875 184.402344 135.949219 185.367188 133.054688 186.175781 C 125.855469 188.179688 118.421875 189.191406 110.953125 189.1875 Z M 110.953125 24.375 C 109.664062 24.375 108.382812 24.40625 107.148438 24.464844 C 95.914062 24.960938 84.90625 27.796875 74.824219 32.792969 C 45.355469 47.359375 27.414062 78.179688 29.242188 111.089844 C 31.070312 144 52.316406 172.628906 83.210938 183.816406 C 85.082031 184.496094 87.035156 185.121094 89.011719 185.671875 C 103.378906 189.652344 118.550781 189.652344 132.914062 185.664062 C 135.789062 184.863281 138.621094 183.902344 141.390625 182.785156 C 177.082031 168.4375 198.015625 131.097656 191.699219 93.035156 C 185.386719 54.976562 153.53125 26.453125 115.128906 24.480469 C 113.710938 24.410156 112.308594 24.375 110.953125 24.375 Z M 110.953125 24.375 "/>
<path style=" stroke:none;fill-rule:nonzero;fill:rgb(24.705882%,23.921569%,33.72549%);fill-opacity:1;" d="M 0 207.113281 L 120.820312 207.113281 L 120.820312 207.644531 L 0 207.644531 Z M 0 207.113281 "/>
<path style=" stroke:none;fill-rule:nonzero;fill:rgb(24.705882%,23.921569%,33.72549%);fill-opacity:1;" d="M 20.640625 207.558594 L 20.355469 207.453125 C 20.292969 207.429688 14.097656 205.046875 11.191406 199.640625 C 8.289062 194.238281 9.710938 187.734375 9.726562 187.667969 L 9.792969 187.371094 L 10.074219 187.476562 C 10.136719 187.5 16.335938 189.886719 19.238281 195.289062 C 22.144531 200.691406 20.722656 207.195312 20.707031 207.261719 Z M 11.65625 199.390625 C 14.113281 203.957031 19.011719 206.300781 20.25 206.835938 C 20.488281 205.5 21.226562 200.101562 18.773438 195.539062 C 16.320312 190.976562 11.421875 188.628906 10.179688 188.09375 C 9.945312 189.429688 9.203125 194.828125 11.65625 199.390625 Z M 11.65625 199.390625 "/>
<path style=" stroke:none;fill-rule:nonzero;fill:rgb(38.823529%,59.607843%,100%);fill-opacity:1;" d="M 13.410156 197.746094 C 18.628906 200.898438 20.640625 207.152344 20.640625 207.152344 C 20.640625 207.152344 14.1875 208.304688 8.96875 205.152344 C 3.753906 202.003906 1.742188 195.746094 1.742188 195.746094 C 1.742188 195.746094 8.195312 194.597656 13.410156 197.746094 Z M 13.410156 197.746094 "/>
<path style=" stroke:none;fill-rule:nonzero;fill:rgb(18.431373%,18.039216%,25.490196%);fill-opacity:1;" d="M 115.128906 38.691406 C 115.128906 52.390625 104.0625 63.496094 90.414062 63.496094 C 76.761719 63.496094 65.695312 52.390625 65.695312 38.691406 C 65.695312 24.992188 76.761719 13.886719 90.414062 13.886719 C 104.0625 13.886719 115.128906 24.992188 115.128906 38.691406 Z M 115.128906 38.691406 "/>
<path style=" stroke:none;fill-rule:nonzero;fill:rgb(62.745098%,38.039216%,41.568627%);fill-opacity:1;" d="M 113.070312 45.597656 C 113.070312 55.304688 105.230469 63.171875 95.558594 63.171875 C 85.886719 63.171875 78.046875 55.304688 78.046875 45.597656 C 78.046875 35.894531 85.886719 28.023438 95.558594 28.023438 C 105.230469 28.023438 113.070312 35.894531 113.070312 45.597656 Z M 113.070312 45.597656 "/>
<path style=" stroke:none;fill-rule:nonzero;fill:rgb(62.745098%,38.039216%,41.568627%);fill-opacity:1;" d="M 81.613281 49.503906 C 81.613281 49.503906 79.019531 70.328125 69.613281 74.558594 C 60.210938 78.789062 95.558594 76.511719 95.558594 76.511719 C 95.558594 76.511719 95.558594 57.636719 96.855469 56.988281 C 98.152344 56.335938 81.613281 49.503906 81.613281 49.503906 Z M 81.613281 49.503906 "/>
<path style=" stroke:none;fill-rule:nonzero;fill:rgb(62.745098%,38.039216%,41.568627%);fill-opacity:1;" d="M 77.722656 187.15625 L 76.425781 193.988281 C 76.425781 193.988281 58.265625 204.726562 67.019531 207.65625 C 75.777344 210.585938 86.476562 194.964844 86.476562 194.964844 L 84.53125 187.15625 Z M 77.722656 187.15625 "/>
<path style=" stroke:none;fill-rule:nonzero;fill:rgb(62.745098%,38.039216%,41.568627%);fill-opacity:1;" d="M 90.371094 135.738281 L 104.640625 151.035156 L 143.878906 123.699219 C 143.878906 123.699219 134.800781 116.539062 131.882812 116.539062 C 128.960938 116.539062 90.371094 135.738281 90.371094 135.738281 Z M 90.371094 135.738281 "/>
<path style=" stroke:none;fill-rule:nonzero;fill:rgb(62.745098%,38.039216%,41.568627%);fill-opacity:1;" d="M 167.554688 55.359375 C 167.554688 55.359375 171.769531 25.746094 179.230469 28.023438 C 186.6875 30.304688 175.011719 59.589844 175.011719 59.589844 Z M 167.554688 55.359375 "/>
<path style=" stroke:none;fill-rule:nonzero;fill:rgb(81.568627%,80.392157%,88.235294%);fill-opacity:1;" d="M 115.015625 70.980469 C 115.015625 70.980469 100.867188 68.703125 95.617188 70.980469 C 90.371094 73.257812 74.515625 75.070312 72.550781 72.539062 C 70.585938 70.003906 53.074219 78.464844 53.074219 82.042969 C 53.074219 85.625 91.019531 139.644531 91.019531 139.644531 C 91.019531 139.644531 130.257812 128.578125 135.449219 116.863281 C 135.449219 116.863281 130.90625 113.609375 130.90625 111.007812 C 130.90625 108.402344 128.636719 105.800781 128.636719 105.800781 C 128.636719 105.800781 131.230469 99.292969 126.691406 93.433594 C 122.152344 87.578125 115.015625 70.980469 115.015625 70.980469 Z M 115.015625 70.980469 "/>
<path style=" stroke:none;fill-rule:nonzero;fill:rgb(81.568627%,80.392157%,88.235294%);fill-opacity:1;" d="M 110.800781 71.957031 L 115.015625 70.980469 C 115.015625 70.980469 125.394531 73.582031 132.53125 82.371094 C 139.664062 91.15625 151.988281 94.085938 151.988281 94.085938 L 166.90625 53.40625 L 179.230469 57.636719 C 179.230469 57.636719 169.5 109.378906 158.472656 110.03125 C 147.449219 110.679688 120.207031 98.640625 120.207031 98.640625 Z M 110.800781 71.957031 "/>
<path style=" stroke:none;fill-rule:nonzero;fill:rgb(81.568627%,80.392157%,88.235294%);fill-opacity:1;" d="M 58.265625 78.789062 C 58.265625 78.789062 51.453125 79.117188 51.453125 84.972656 C 51.453125 90.832031 52.425781 111.007812 58.265625 119.792969 C 64.101562 128.578125 69.289062 148.429688 69.613281 148.753906 C 69.9375 149.082031 76.101562 190.082031 76.101562 190.082031 L 86.476562 189.105469 L 84.53125 138.015625 L 74.480469 111.984375 Z M 58.265625 78.789062 "/>
<path style=" stroke:none;fill-rule:nonzero;fill:rgb(18.431373%,18.039216%,25.490196%);fill-opacity:1;" d="M 172.808594 160.492188 C 164.480469 170.875 153.632812 178.9375 141.304688 183.902344 L 139.664062 180.320312 L 133.292969 186.625 C 119.71875 190.390625 105.375 190.394531 91.800781 186.628906 L 89.070312 184.878906 L 103.667969 167.953125 C 103.667969 167.953125 103.992188 159.492188 103.667969 158.191406 C 103.339844 156.890625 99.085938 145.078125 99.085938 145.078125 C 113.875 144.140625 135.023438 125.3125 139.921875 120.773438 C 140.59375 120.148438 140.960938 119.792969 140.960938 119.792969 C 168.203125 123.695312 172.09375 155.589844 172.09375 155.589844 Z M 172.808594 160.492188 "/>
<path style=" stroke:none;fill-rule:nonzero;fill:rgb(62.745098%,38.039216%,41.568627%);fill-opacity:1;" d="M 79.527344 46.238281 C 79.527344 44.40625 78.820312 42.925781 77.945312 42.925781 C 77.070312 42.925781 76.359375 44.40625 76.359375 46.238281 C 76.359375 48.066406 77.070312 49.546875 77.945312 49.546875 C 78.820312 49.546875 79.527344 48.066406 79.527344 46.238281 Z M 79.527344 46.238281 "/>
<path style=" stroke:none;fill-rule:nonzero;fill:rgb(18.431373%,18.039216%,25.490196%);fill-opacity:1;" d="M 78.207031 15.101562 C 78.207031 20.808594 73.597656 25.4375 67.910156 25.4375 C 62.222656 25.4375 57.613281 20.808594 57.613281 15.101562 C 57.613281 9.394531 62.222656 4.769531 67.910156 4.769531 C 73.597656 4.769531 78.207031 9.394531 78.207031 15.101562 Z M 78.207031 15.101562 "/>
<path style=" stroke:none;fill-rule:nonzero;fill:rgb(18.431373%,18.039216%,25.490196%);fill-opacity:1;" d="M 57.082031 10.332031 C 57.085938 5.089844 61 0.675781 66.195312 0.0703125 C 62.253906 -0.394531 58.398438 1.453125 56.28125 4.820312 C 54.164062 8.191406 54.164062 12.476562 56.28125 15.84375 C 58.398438 19.214844 62.253906 21.0625 66.195312 20.597656 C 61 19.992188 57.085938 15.578125 57.082031 10.332031 Z M 57.082031 10.332031 "/>
<path style=" stroke:none;fill-rule:nonzero;fill:rgb(18.431373%,18.039216%,25.490196%);fill-opacity:1;" d="M 174.589844 6.09375 L 178.285156 6.09375 L 178.285156 45.042969 L 174.589844 45.042969 Z M 174.589844 6.09375 "/>
<path style=" stroke:none;fill-rule:nonzero;fill:rgb(18.431373%,18.039216%,25.490196%);fill-opacity:1;" d="M 74.511719 30.472656 C 74.511719 30.472656 79.265625 40.539062 85.074219 40.804688 C 90.882812 41.070312 112.535156 36.832031 112.535156 36.832031 L 105.40625 21.992188 L 86.394531 24.375 Z M 74.511719 30.472656 "/>
</g>
</svg>
