<?xml version="1.0" encoding="UTF-8"?>
<svg xmlns="http://www.w3.org/2000/svg" xmlns:xlink="http://www.w3.org/1999/xlink" width="401pt" height="296pt" viewBox="0 0 401 296" version="1.1">
<defs>
<filter id="alpha" filterUnits="objectBoundingBox" x="0%" y="0%" width="100%" height="100%">
  <feColorMatrix type="matrix" in="SourceGraphic" values="0 0 0 0 1 0 0 0 0 1 0 0 0 0 1 0 0 0 1 0"/>
</filter>
<mask id="mask0">
  <g filter="url(#alpha)">
<rect x="0" y="0" width="401" height="296" style="fill:rgb(0%,0%,0%);fill-opacity:0.2;stroke:none;"/>
  </g>
</mask>
<clipPath id="clip1">
  <rect width="401" height="296"/>
</clipPath>
<g id="surface6" clip-path="url(#clip1)">
<path style=" stroke:none;fill-rule:nonzero;fill:rgb(0%,0%,0%);fill-opacity:1;" d="M 353.695312 289.742188 C 321.316406 283.96875 285.910156 284.929688 248.769531 289.742188 C 265.699219 275.425781 280.308594 261.113281 263.378906 246.796875 C 296.398438 253.621094 301.023438 252.929688 337.753906 246.796875 C 329.234375 261.113281 345.171875 275.425781 353.695312 289.742188 Z M 353.695312 289.742188 "/>
</g>
<mask id="mask1">
  <g filter="url(#alpha)">
<rect x="0" y="0" width="401" height="296" style="fill:rgb(0%,0%,0%);fill-opacity:0.2;stroke:none;"/>
  </g>
</mask>
<clipPath id="clip2">
  <rect width="401" height="296"/>
</clipPath>
<g id="surface9" clip-path="url(#clip2)">
<path style=" stroke:none;fill-rule:nonzero;fill:rgb(0%,0%,0%);fill-opacity:1;" d="M 193.488281 240.015625 L 195.742188 261.488281 L 234.667969 259.230469 L 200.820312 258.664062 Z M 193.488281 240.015625 "/>
</g>
</defs>
<g id="surface1">
<path style=" stroke:none;fill-rule:nonzero;fill:rgb(90.196078%,90.196078%,90.196078%);fill-opacity:1;" d="M 232.453125 109.589844 L 401.011719 109.589844 L 401.011719 114.542969 L 232.453125 114.542969 Z M 232.453125 109.589844 "/>
<path style=" stroke:none;fill-rule:nonzero;fill:rgb(90.196078%,90.196078%,90.196078%);fill-opacity:1;" d="M 246.386719 68.164062 L 289.089844 68.164062 L 289.089844 110.941406 L 246.386719 110.941406 Z M 246.386719 68.164062 "/>
<path style=" stroke:none;fill-rule:nonzero;fill:rgb(80%,80%,80%);fill-opacity:1;" d="M 254.925781 76.71875 L 280.546875 76.71875 L 280.546875 102.386719 L 254.925781 102.386719 Z M 254.925781 76.71875 "/>
<path style=" stroke:none;fill-rule:nonzero;fill:rgb(90.196078%,90.196078%,90.196078%);fill-opacity:1;" d="M 342.128906 68.164062 L 352.917969 68.164062 L 352.917969 110.941406 L 342.128906 110.941406 Z M 342.128906 68.164062 "/>
<path style=" stroke:none;fill-rule:nonzero;fill:rgb(80%,80%,80%);fill-opacity:1;" d="M 342.128906 74.917969 L 352.917969 74.917969 L 352.917969 79.871094 L 342.128906 79.871094 Z M 342.128906 74.917969 "/>
<path style=" stroke:none;fill-rule:nonzero;fill:rgb(80%,80%,80%);fill-opacity:1;" d="M 342.128906 96.53125 L 352.917969 96.53125 L 352.917969 101.484375 L 342.128906 101.484375 Z M 342.128906 96.53125 "/>
<path style=" stroke:none;fill-rule:nonzero;fill:rgb(90.196078%,90.196078%,90.196078%);fill-opacity:1;" d="M 325.5 68.164062 L 336.285156 68.164062 L 336.285156 110.941406 L 325.5 110.941406 Z M 325.5 68.164062 "/>
<path style=" stroke:none;fill-rule:nonzero;fill:rgb(80%,80%,80%);fill-opacity:1;" d="M 325.5 74.917969 L 336.285156 74.917969 L 336.285156 79.871094 L 325.5 79.871094 Z M 325.5 74.917969 "/>
<path style=" stroke:none;fill-rule:nonzero;fill:rgb(80%,80%,80%);fill-opacity:1;" d="M 325.5 96.53125 L 336.285156 96.53125 L 336.285156 101.484375 L 325.5 101.484375 Z M 325.5 96.53125 "/>
<path style=" stroke:none;fill-rule:nonzero;fill:rgb(90.196078%,90.196078%,90.196078%);fill-opacity:1;" d="M 352.542969 72.785156 L 362.210938 67.988281 L 381.160156 106.320312 L 371.492188 111.117188 Z M 352.542969 72.785156 "/>
<path style=" stroke:none;fill-rule:nonzero;fill:rgb(80%,80%,80%);fill-opacity:1;" d="M 355.535156 78.835938 L 365.203125 74.042969 L 367.398438 78.480469 L 357.730469 83.273438 Z M 355.535156 78.835938 "/>
<path style=" stroke:none;fill-rule:nonzero;fill:rgb(80%,80%,80%);fill-opacity:1;" d="M 365.109375 98.203125 L 374.777344 93.410156 L 376.972656 97.847656 L 367.304688 102.644531 Z M 365.109375 98.203125 "/>
<path style=" stroke:none;fill-rule:nonzero;fill:rgb(90.196078%,90.196078%,90.196078%);fill-opacity:1;" d="M 262.34375 85.335938 L 273.210938 104.1875 L 251.480469 104.1875 L 256.910156 94.761719 Z M 262.34375 85.335938 "/>
<path style=" stroke:none;fill-rule:nonzero;fill:rgb(90.196078%,90.196078%,90.196078%);fill-opacity:1;" d="M 271.785156 87.136719 L 277.214844 96.5625 L 282.648438 105.988281 L 260.917969 105.988281 Z M 271.785156 87.136719 "/>
<path style=" stroke:none;fill-rule:nonzero;fill:rgb(90.196078%,90.196078%,90.196078%);fill-opacity:1;" d="M 278.75 81.222656 C 278.75 82.964844 277.34375 84.375 275.605469 84.375 C 273.867188 84.375 272.457031 82.964844 272.457031 81.222656 C 272.457031 79.480469 273.867188 78.070312 275.605469 78.070312 C 277.34375 78.070312 278.75 79.480469 278.75 81.222656 Z M 278.75 81.222656 "/>
<path style=" stroke:none;fill-rule:nonzero;fill:rgb(90.196078%,90.196078%,90.196078%);fill-opacity:1;" d="M 401.011719 46.554688 L 232.453125 46.554688 L 232.453125 41.601562 L 401.011719 41.601562 Z M 401.011719 46.554688 "/>
<path style=" stroke:none;fill-rule:nonzero;fill:rgb(90.196078%,90.196078%,90.196078%);fill-opacity:1;" d="M 387.078125 42.953125 L 344.378906 42.953125 L 344.378906 0.175781 L 387.078125 0.175781 Z M 387.078125 42.953125 "/>
<path style=" stroke:none;fill-rule:nonzero;fill:rgb(80%,80%,80%);fill-opacity:1;" d="M 378.539062 34.394531 L 352.917969 34.394531 L 352.917969 8.730469 L 378.539062 8.730469 Z M 378.539062 34.394531 "/>
<path style=" stroke:none;fill-rule:nonzero;fill:rgb(90.196078%,90.196078%,90.196078%);fill-opacity:1;" d="M 291.335938 42.953125 L 280.546875 42.953125 L 280.546875 0.175781 L 291.335938 0.175781 Z M 291.335938 42.953125 "/>
<path style=" stroke:none;fill-rule:nonzero;fill:rgb(80%,80%,80%);fill-opacity:1;" d="M 291.335938 11.882812 L 280.546875 11.882812 L 280.546875 6.929688 L 291.335938 6.929688 Z M 291.335938 11.882812 "/>
<path style=" stroke:none;fill-rule:nonzero;fill:rgb(80%,80%,80%);fill-opacity:1;" d="M 291.335938 33.496094 L 280.546875 33.496094 L 280.546875 28.542969 L 291.335938 28.542969 Z M 291.335938 33.496094 "/>
<path style=" stroke:none;fill-rule:nonzero;fill:rgb(90.196078%,90.196078%,90.196078%);fill-opacity:1;" d="M 307.96875 42.953125 L 297.179688 42.953125 L 297.179688 0.175781 L 307.96875 0.175781 Z M 307.96875 42.953125 "/>
<path style=" stroke:none;fill-rule:nonzero;fill:rgb(80%,80%,80%);fill-opacity:1;" d="M 307.96875 11.882812 L 297.179688 11.882812 L 297.179688 6.929688 L 307.96875 6.929688 Z M 307.96875 11.882812 "/>
<path style=" stroke:none;fill-rule:nonzero;fill:rgb(80%,80%,80%);fill-opacity:1;" d="M 307.96875 33.496094 L 297.179688 33.496094 L 297.179688 28.542969 L 307.96875 28.542969 Z M 307.96875 33.496094 "/>
<path style=" stroke:none;fill-rule:nonzero;fill:rgb(90.196078%,90.196078%,90.196078%);fill-opacity:1;" d="M 261.976562 43.128906 L 252.308594 38.332031 L 271.253906 0 L 280.921875 4.792969 Z M 261.976562 43.128906 "/>
<path style=" stroke:none;fill-rule:nonzero;fill:rgb(80%,80%,80%);fill-opacity:1;" d="M 275.734375 15.285156 L 266.066406 10.492188 L 268.261719 6.050781 L 277.929688 10.847656 Z M 275.734375 15.285156 "/>
<path style=" stroke:none;fill-rule:nonzero;fill:rgb(80%,80%,80%);fill-opacity:1;" d="M 266.164062 34.65625 L 256.496094 29.859375 L 258.6875 25.421875 L 268.355469 30.214844 Z M 266.164062 34.65625 "/>
<path style=" stroke:none;fill-rule:nonzero;fill:rgb(90.196078%,90.196078%,90.196078%);fill-opacity:1;" d="M 371.121094 17.347656 L 365.691406 26.773438 L 360.257812 36.195312 L 381.988281 36.195312 L 376.554688 26.773438 Z M 371.121094 17.347656 "/>
<path style=" stroke:none;fill-rule:nonzero;fill:rgb(90.196078%,90.196078%,90.196078%);fill-opacity:1;" d="M 361.683594 19.148438 L 350.816406 38 L 372.546875 38 L 367.117188 28.574219 Z M 361.683594 19.148438 "/>
<path style=" stroke:none;fill-rule:nonzero;fill:rgb(90.196078%,90.196078%,90.196078%);fill-opacity:1;" d="M 361.007812 13.234375 C 361.007812 14.976562 359.601562 16.386719 357.863281 16.386719 C 356.125 16.386719 354.714844 14.976562 354.714844 13.234375 C 354.714844 11.492188 356.125 10.082031 357.863281 10.082031 C 359.601562 10.082031 361.007812 11.492188 361.007812 13.234375 Z M 361.007812 13.234375 "/>
<path style=" stroke:none;fill-rule:nonzero;fill:rgb(90.196078%,90.196078%,90.196078%);fill-opacity:1;" d="M 401.011719 182.53125 L 232.453125 182.53125 L 232.453125 177.578125 L 401.011719 177.578125 Z M 401.011719 182.53125 "/>
<path style=" stroke:none;fill-rule:nonzero;fill:rgb(90.196078%,90.196078%,90.196078%);fill-opacity:1;" d="M 387.078125 178.929688 L 344.378906 178.929688 L 344.378906 136.152344 L 387.078125 136.152344 Z M 387.078125 178.929688 "/>
<path style=" stroke:none;fill-rule:nonzero;fill:rgb(80%,80%,80%);fill-opacity:1;" d="M 378.539062 170.375 L 352.917969 170.375 L 352.917969 144.710938 L 378.539062 144.710938 Z M 378.539062 170.375 "/>
<path style=" stroke:none;fill-rule:nonzero;fill:rgb(90.196078%,90.196078%,90.196078%);fill-opacity:1;" d="M 291.335938 178.929688 L 280.546875 178.929688 L 280.546875 136.152344 L 291.335938 136.152344 Z M 291.335938 178.929688 "/>
<path style=" stroke:none;fill-rule:nonzero;fill:rgb(80%,80%,80%);fill-opacity:1;" d="M 291.335938 147.859375 L 280.546875 147.859375 L 280.546875 142.90625 L 291.335938 142.90625 Z M 291.335938 147.859375 "/>
<path style=" stroke:none;fill-rule:nonzero;fill:rgb(80%,80%,80%);fill-opacity:1;" d="M 291.335938 169.472656 L 280.546875 169.472656 L 280.546875 164.519531 L 291.335938 164.519531 Z M 291.335938 169.472656 "/>
<path style=" stroke:none;fill-rule:nonzero;fill:rgb(90.196078%,90.196078%,90.196078%);fill-opacity:1;" d="M 307.96875 178.929688 L 297.179688 178.929688 L 297.179688 136.152344 L 307.96875 136.152344 Z M 307.96875 178.929688 "/>
<path style=" stroke:none;fill-rule:nonzero;fill:rgb(80%,80%,80%);fill-opacity:1;" d="M 307.96875 147.859375 L 297.179688 147.859375 L 297.179688 142.90625 L 307.96875 142.90625 Z M 307.96875 147.859375 "/>
<path style=" stroke:none;fill-rule:nonzero;fill:rgb(80%,80%,80%);fill-opacity:1;" d="M 307.96875 169.472656 L 297.179688 169.472656 L 297.179688 164.519531 L 307.96875 164.519531 Z M 307.96875 169.472656 "/>
<path style=" stroke:none;fill-rule:nonzero;fill:rgb(90.196078%,90.196078%,90.196078%);fill-opacity:1;" d="M 261.976562 179.105469 L 252.308594 174.3125 L 271.253906 135.976562 L 280.921875 140.773438 Z M 261.976562 179.105469 "/>
<path style=" stroke:none;fill-rule:nonzero;fill:rgb(80%,80%,80%);fill-opacity:1;" d="M 275.734375 151.261719 L 266.066406 146.46875 L 268.261719 142.03125 L 277.929688 146.824219 Z M 275.734375 151.261719 "/>
<path style=" stroke:none;fill-rule:nonzero;fill:rgb(80%,80%,80%);fill-opacity:1;" d="M 266.164062 170.632812 L 256.496094 165.835938 L 258.6875 161.398438 L 268.355469 166.191406 Z M 266.164062 170.632812 "/>
<path style=" stroke:none;fill-rule:nonzero;fill:rgb(90.196078%,90.196078%,90.196078%);fill-opacity:1;" d="M 371.121094 153.324219 L 365.691406 162.75 L 360.257812 172.175781 L 381.988281 172.175781 Z M 371.121094 153.324219 "/>
<path style=" stroke:none;fill-rule:nonzero;fill:rgb(90.196078%,90.196078%,90.196078%);fill-opacity:1;" d="M 361.683594 155.125 L 350.816406 173.976562 L 372.546875 173.976562 L 367.117188 164.550781 Z M 361.683594 155.125 "/>
<path style=" stroke:none;fill-rule:nonzero;fill:rgb(90.196078%,90.196078%,90.196078%);fill-opacity:1;" d="M 361.007812 149.210938 C 361.007812 150.953125 359.601562 152.363281 357.863281 152.363281 C 356.125 152.363281 354.714844 150.953125 354.714844 149.210938 C 354.714844 147.472656 356.125 146.058594 357.863281 146.058594 C 359.601562 146.058594 361.007812 147.472656 361.007812 149.210938 Z M 361.007812 149.210938 "/>
<path style=" stroke:none;fill-rule:nonzero;fill:rgb(90.196078%,90.196078%,90.196078%);fill-opacity:1;" d="M 397.128906 281.832031 C 397.128906 274.03125 308.230469 267.707031 198.566406 267.707031 C 88.902344 267.707031 0 274.03125 0 281.832031 C 0 289.632812 88.902344 295.957031 198.566406 295.957031 C 308.230469 295.957031 397.128906 289.632812 397.128906 281.832031 Z M 397.128906 281.832031 "/>
<path style=" stroke:none;fill-rule:nonzero;fill:rgb(38.823529%,59.607843%,100%);fill-opacity:1;" d="M 353.695312 289.742188 C 321.316406 283.96875 285.910156 284.929688 248.769531 289.742188 C 265.699219 275.425781 280.308594 261.113281 263.378906 246.796875 C 296.398438 253.621094 301.023438 252.929688 337.753906 246.796875 C 329.234375 261.113281 345.171875 275.425781 353.695312 289.742188 Z M 353.695312 289.742188 "/>
<use xlink:href="#surface6" mask="url(#mask0)"/>
<path style=" stroke:none;fill-rule:nonzero;fill:rgb(38.823529%,59.607843%,100%);fill-opacity:1;" d="M 345.796875 283.636719 C 318.292969 279.027344 288.214844 279.792969 256.667969 283.636719 C 271.046875 272.207031 283.457031 260.78125 269.078125 249.355469 C 297.125 254.804688 301.054688 254.25 332.257812 249.355469 C 325.019531 260.78125 338.558594 272.207031 345.796875 283.636719 Z M 345.796875 283.636719 "/>
<path style=" stroke:none;fill-rule:nonzero;fill:rgb(18.431373%,18.039216%,25.490196%);fill-opacity:1;" d="M 349.976562 250.546875 C 349.976562 258.652344 343.414062 265.226562 335.320312 265.226562 C 327.226562 265.226562 320.664062 258.652344 320.664062 250.546875 C 320.664062 242.4375 327.226562 235.867188 335.320312 235.867188 C 343.414062 235.867188 349.976562 242.4375 349.976562 250.546875 Z M 349.976562 250.546875 "/>
<path style=" stroke:none;fill-rule:nonzero;fill:rgb(62.745098%,38.039216%,41.568627%);fill-opacity:1;" d="M 268.796875 233.519531 L 278.949219 235.214844 L 284.027344 249.90625 L 269.359375 258.945312 L 252.4375 233.519531 Z M 268.796875 233.519531 "/>
<path style=" stroke:none;fill-rule:nonzero;fill:rgb(62.745098%,38.039216%,41.568627%);fill-opacity:1;" d="M 321.257812 232.390625 C 321.257812 245.496094 310.648438 256.121094 297.566406 256.121094 C 284.480469 256.121094 273.871094 245.496094 273.871094 232.390625 C 273.871094 219.28125 284.480469 208.65625 297.566406 208.65625 C 310.648438 208.65625 321.257812 219.28125 321.257812 232.390625 Z M 321.257812 232.390625 "/>
<path style=" stroke:none;fill-rule:nonzero;fill:rgb(18.431373%,18.039216%,25.490196%);fill-opacity:1;" d="M 166.691406 145.933594 C 166.691406 145.933594 109.152344 152.152344 99 151.019531 C 88.847656 149.890625 84.332031 148.761719 84.332031 148.761719 C 84.332031 148.761719 77.5625 157.800781 80.949219 161.757812 C 82.84375 164.035156 85.136719 165.949219 87.71875 167.40625 C 87.71875 167.40625 93.921875 165.710938 98.4375 167.40625 C 102.949219 169.101562 148.640625 176.449219 156.539062 169.667969 C 164.4375 162.886719 166.691406 145.933594 166.691406 145.933594 Z M 166.691406 145.933594 "/>
<path style=" stroke:none;fill-rule:nonzero;fill:rgb(18.431373%,18.039216%,25.490196%);fill-opacity:1;" d="M 170.640625 271.941406 C 170.640625 271.941406 132.847656 261.207031 126.078125 213.742188 L 126.078125 209.222656 C 126.078125 209.222656 118.597656 222.363281 115.921875 225.042969 C 112.820312 228.152344 101.820312 256.121094 102.386719 258.945312 C 102.949219 261.773438 102.386719 262.902344 102.386719 262.902344 L 86.027344 261.207031 L 86.027344 256.121094 C 86.027344 256.121094 94.769531 229.847656 95.332031 223.628906 C 95.898438 217.414062 117.050781 174.1875 117.050781 174.1875 C 117.050781 174.1875 124.949219 157.800781 138.488281 174.1875 C 152.027344 190.574219 153.15625 201.875 153.15625 201.875 L 170.640625 235.78125 Z M 170.640625 271.941406 "/>
<path style=" stroke:none;fill-rule:nonzero;fill:rgb(18.431373%,18.039216%,25.490196%);fill-opacity:1;" d="M 86.027344 147.066406 L 67.972656 140.847656 C 67.972656 140.847656 51.050781 128.417969 55 140.847656 C 58.949219 153.28125 77 180.402344 82.078125 177.578125 C 87.152344 174.753906 93.261719 167.738281 91.898438 166.726562 C 90.539062 165.710938 81.511719 158.367188 86.027344 147.066406 Z M 86.027344 147.066406 "/>
<path style=" stroke:none;fill-rule:nonzero;fill:rgb(18.431373%,18.039216%,25.490196%);fill-opacity:1;" d="M 88.207031 252.785156 L 73.636719 259.914062 C 73.636719 259.914062 56.015625 262.628906 65.839844 267.722656 C 75.667969 272.8125 102.78125 278.246094 104.136719 273.492188 C 105.492188 268.738281 104.953125 260.851562 103.527344 261.0625 C 102.101562 261.273438 92.273438 262.289062 88.207031 252.785156 Z M 88.207031 252.785156 "/>
<path style=" stroke:none;fill-rule:nonzero;fill:rgb(34.117647%,35.294118%,53.72549%);fill-opacity:1;" d="M 163.308594 234.648438 C 163.308594 234.648438 155.976562 266.292969 168.386719 273.074219 C 180.796875 279.855469 267.667969 280.984375 274.4375 268.550781 C 281.207031 256.121094 277.820312 256.121094 277.820312 256.121094 L 259.769531 235.78125 L 274.4375 234.648438 C 274.4375 234.648438 274.4375 230.128906 269.359375 229.5625 C 264.28125 229 248.488281 223.347656 234.949219 227.304688 C 221.410156 231.257812 213.511719 219.394531 213.511719 219.394531 Z M 163.308594 234.648438 "/>
<path style=" stroke:none;fill-rule:nonzero;fill:rgb(24.705882%,23.921569%,33.72549%);fill-opacity:1;" d="M 153.71875 135.765625 L 144.128906 188.316406 L 210.128906 180.402344 L 221.976562 132.9375 Z M 153.71875 135.765625 "/>
<path style=" stroke:none;fill-rule:nonzero;fill:rgb(100%,100%,100%);fill-opacity:1;" d="M 155.691406 137.742188 L 147.796875 184.640625 L 207.871094 177.578125 L 219.4375 134.917969 Z M 155.691406 137.742188 "/>
<path style=" stroke:none;fill-rule:nonzero;fill:rgb(70.196078%,70.196078%,70.196078%);fill-opacity:1;" d="M 146.386719 188.878906 L 144.128906 188.316406 L 143 190.574219 L 161.050781 240.863281 L 162.75 240.214844 L 163.308594 236.910156 Z M 146.386719 188.878906 "/>
<path style=" stroke:none;fill-rule:nonzero;fill:rgb(81.568627%,80.392157%,88.235294%);fill-opacity:1;" d="M 144.128906 187.75 L 162.179688 240.300781 L 230.4375 230.128906 L 210.128906 180.402344 Z M 144.128906 187.75 "/>
<path style=" stroke:none;fill-rule:nonzero;fill:rgb(24.705882%,23.921569%,33.72549%);fill-opacity:1;" d="M 153.15625 186.054688 L 153.15625 188.878906 L 203.359375 183.230469 L 202.796875 180.402344 Z M 153.15625 186.054688 "/>
<path style=" stroke:none;fill-rule:nonzero;fill:rgb(24.705882%,23.921569%,33.72549%);fill-opacity:1;" d="M 154.28125 191.703125 L 162.179688 213.742188 L 213.511719 207.527344 L 204.488281 186.621094 Z M 154.28125 191.703125 "/>
<path style=" stroke:none;fill-rule:nonzero;fill:rgb(62.745098%,38.039216%,41.568627%);fill-opacity:1;" d="M 218.589844 222.78125 L 216.898438 218.261719 C 216.898438 218.261719 203.921875 195.660156 197.15625 200.179688 C 190.386719 204.699219 211.257812 226.738281 211.257812 226.738281 L 218.027344 226.738281 Z M 218.589844 222.78125 "/>
<path style=" stroke:none;fill-rule:nonzero;fill:rgb(62.745098%,38.039216%,41.568627%);fill-opacity:1;" d="M 175.71875 226.171875 L 174.027344 219.394531 C 174.027344 219.394531 169.511719 198.484375 177.410156 199.617188 C 185.308594 200.746094 187.566406 220.523438 187.566406 220.523438 L 187 225.042969 Z M 175.71875 226.171875 "/>
<path style=" stroke:none;fill-rule:nonzero;fill:rgb(34.117647%,35.294118%,53.72549%);fill-opacity:1;" d="M 189.257812 223.347656 C 189.257812 223.347656 174.589844 221.085938 174.027344 224.476562 C 173.460938 227.867188 170.640625 278.722656 184.746094 280.417969 C 198.847656 282.113281 268.796875 289.460938 261.460938 271.941406 C 254.128906 254.425781 242.847656 256.6875 242.847656 256.6875 L 194.898438 261.773438 Z M 189.257812 223.347656 "/>
<path style=" stroke:none;fill-rule:nonzero;fill:rgb(34.117647%,35.294118%,53.72549%);fill-opacity:1;" d="M 233.539062 229.847656 L 218.589844 219.394531 L 208.71875 227.019531 L 221.128906 240.582031 Z M 233.539062 229.847656 "/>
<use xlink:href="#surface9" mask="url(#mask1)"/>
<path style=" stroke:none;fill-rule:nonzero;fill:rgb(18.431373%,18.039216%,25.490196%);fill-opacity:1;" d="M 337.464844 236.703125 C 337.464844 252.304688 324.835938 264.953125 309.261719 264.953125 C 293.683594 264.953125 281.054688 252.304688 281.054688 236.703125 C 281.054688 221.097656 293.683594 208.449219 309.261719 208.449219 C 324.835938 208.449219 337.464844 221.097656 337.464844 236.703125 Z M 337.464844 236.703125 "/>
<path style=" stroke:none;fill-rule:nonzero;fill:rgb(38.823529%,59.607843%,100%);fill-opacity:1;" d="M 164.15625 154.128906 L 199.128906 152.910156 L 202.511719 140.003906 L 166.410156 141.09375 Z M 164.15625 154.128906 "/>
<path style=" stroke:none;fill-rule:nonzero;fill:rgb(90.196078%,90.196078%,90.196078%);fill-opacity:1;" d="M 155.128906 161.472656 L 208.15625 159.777344 L 208.71875 157.519531 L 155.691406 159.390625 Z M 155.128906 161.472656 "/>
<path style=" stroke:none;fill-rule:nonzero;fill:rgb(90.196078%,90.196078%,90.196078%);fill-opacity:1;" d="M 154 167.125 L 207.027344 165.429688 L 207.589844 163.167969 L 154.566406 165.039062 Z M 154 167.125 "/>
<path style=" stroke:none;fill-rule:nonzero;fill:rgb(90.196078%,90.196078%,90.196078%);fill-opacity:1;" d="M 153.4375 171.644531 L 206.460938 169.949219 L 207.027344 167.691406 L 154 169.558594 Z M 153.4375 171.644531 "/>
</g>
</svg>
