<?xml version="1.0" encoding="UTF-8"?>
<svg xmlns="http://www.w3.org/2000/svg" xmlns:xlink="http://www.w3.org/1999/xlink" width="534pt" height="347pt" viewBox="0 0 534 347" version="1.1">
<g id="surface1">
<path style=" stroke:none;fill-rule:nonzero;fill:rgb(81.568627%,80.392157%,88.235294%);fill-opacity:1;" d="M 534 336.40625 C 534 330.597656 414.460938 325.890625 267 325.890625 C 119.539062 325.890625 0 330.597656 0 336.40625 C 0 342.214844 119.539062 346.921875 267 346.921875 C 414.460938 346.921875 534 342.214844 534 336.40625 Z M 534 336.40625 "/>
<path style=" stroke:none;fill-rule:nonzero;fill:rgb(100%,39.607843%,51.764706%);fill-opacity:1;" d="M 160.054688 259.140625 C 160.054688 286.375 138.007812 308.449219 110.816406 308.449219 C 83.625 308.449219 61.582031 286.375 61.582031 259.140625 C 61.582031 231.910156 83.625 209.835938 110.816406 209.835938 C 123.886719 209.800781 136.429688 214.984375 145.671875 224.238281 C 154.910156 233.492188 160.089844 246.054688 160.054688 259.140625 Z M 160.054688 259.140625 "/>
<path style=" stroke:none;fill-rule:nonzero;fill:rgb(100%,39.607843%,51.764706%);fill-opacity:1;" d="M 138.5625 172.65625 C 138.5625 181.953125 126.664062 189.484375 111.988281 189.484375 C 97.3125 189.484375 85.417969 181.953125 85.417969 172.65625 C 85.417969 163.363281 97.3125 133.132812 111.988281 133.132812 C 126.664062 133.132812 138.5625 163.363281 138.5625 172.65625 Z M 138.5625 172.65625 "/>
<path style=" stroke:none;fill-rule:nonzero;fill:rgb(100%,72.156863%,72.156863%);fill-opacity:1;" d="M 141.101562 201.8125 C 141.101562 218.019531 127.980469 231.160156 111.792969 231.160156 C 95.609375 231.160156 82.488281 218.019531 82.488281 201.8125 C 82.488281 185.601562 95.609375 172.460938 111.792969 172.460938 C 127.980469 172.460938 141.101562 185.601562 141.101562 201.8125 Z M 141.101562 201.8125 "/>
<path style=" stroke:none;fill-rule:nonzero;fill:rgb(91.764706%,90.196078%,98.823529%);fill-opacity:1;" d="M 144.8125 235.859375 C 144.8125 219.109375 130.03125 205.53125 111.792969 205.53125 C 93.558594 205.53125 78.773438 219.109375 78.773438 235.859375 C 78.773438 252.605469 93.558594 266.183594 111.792969 266.183594 C 130.03125 266.183594 144.8125 252.605469 144.8125 235.859375 Z M 144.8125 235.859375 "/>
<path style=" stroke:none;fill-rule:nonzero;fill:rgb(91.764706%,90.196078%,98.823529%);fill-opacity:1;" d="M 136.410156 215.117188 L 119.234375 215.117188 C 115.339844 215.117188 112.183594 211.957031 112.183594 208.058594 C 112.183594 205.804688 113.261719 203.683594 115.082031 202.355469 C 116.898438 201.027344 119.246094 200.648438 121.386719 201.339844 C 134.085938 205.433594 146.195312 208.082031 153.214844 198.289062 C 153.214844 207.582031 145.691406 215.117188 136.410156 215.117188 Z M 136.410156 215.117188 "/>
<path style=" stroke:none;fill-rule:nonzero;fill:rgb(91.764706%,90.196078%,98.823529%);fill-opacity:1;" d="M 86.785156 215.117188 L 103.964844 215.117188 C 107.855469 215.117188 111.011719 211.957031 111.011719 208.058594 C 111.011719 205.804688 109.9375 203.683594 108.117188 202.355469 C 106.296875 201.027344 103.953125 200.648438 101.808594 201.339844 C 89.109375 205.433594 77.003906 208.082031 69.980469 198.289062 C 69.980469 207.582031 77.503906 215.117188 86.785156 215.117188 Z M 86.785156 215.117188 "/>
<path style=" stroke:none;fill-rule:nonzero;fill:rgb(100%,72.156863%,72.156863%);fill-opacity:1;" d="M 117.070312 206.703125 C 117.070312 209.730469 114.621094 212.183594 111.597656 212.183594 C 108.578125 212.183594 106.128906 209.730469 106.128906 206.703125 C 106.128906 203.679688 108.578125 201.226562 111.597656 201.226562 C 114.621094 201.226562 117.070312 203.679688 117.070312 206.703125 Z M 117.070312 206.703125 "/>
<path style=" stroke:none;fill-rule:nonzero;fill:rgb(91.764706%,90.196078%,98.823529%);fill-opacity:1;" d="M 137 189.484375 L 86.882812 189.484375 C 84.429688 189.484375 82.3125 187.773438 81.796875 185.371094 L 80.332031 178.578125 C 80 177.039062 80.378906 175.429688 81.367188 174.207031 C 82.355469 172.980469 83.84375 172.265625 85.417969 172.265625 L 138.3125 172.265625 C 139.867188 172.265625 141.335938 172.960938 142.324219 174.160156 C 143.316406 175.359375 143.714844 176.941406 143.421875 178.46875 L 142.113281 185.261719 C 141.636719 187.714844 139.496094 189.484375 137 189.484375 Z M 137 189.484375 "/>
<path style=" stroke:none;fill-rule:nonzero;fill:rgb(91.764706%,90.196078%,98.823529%);fill-opacity:1;" d="M 127.621094 135.480469 C 127.621094 139.371094 124.472656 142.527344 120.585938 142.527344 C 116.703125 142.527344 113.550781 139.371094 113.550781 135.480469 C 113.550781 131.589844 116.703125 128.4375 120.585938 128.4375 C 124.472656 128.4375 127.621094 131.589844 127.621094 135.480469 Z M 127.621094 135.480469 "/>
<path style=" stroke:none;fill-rule:nonzero;fill:rgb(100%,72.156863%,72.156863%);fill-opacity:1;" d="M 122.929688 216.878906 C 122.929688 215.570312 118.03125 214.507812 111.988281 214.507812 C 105.945312 214.507812 101.046875 215.570312 101.046875 216.878906 C 101.046875 218.1875 105.945312 219.246094 111.988281 219.246094 C 118.03125 219.246094 122.929688 218.1875 122.929688 216.878906 Z M 122.929688 216.878906 "/>
<path style=" stroke:none;fill-rule:nonzero;fill:rgb(24.705882%,23.921569%,33.72549%);fill-opacity:1;" d="M 158.550781 271.273438 C 157.292969 276.257812 155.257812 281.011719 152.523438 285.359375 L 69.109375 285.359375 C 66.375 281.011719 64.339844 276.257812 63.085938 271.273438 Z M 158.550781 271.273438 "/>
<path style=" stroke:none;fill-rule:nonzero;fill:rgb(91.764706%,90.196078%,98.823529%);fill-opacity:1;" d="M 123.320312 290.839844 L 98.3125 290.839844 L 98.3125 265.792969 L 123.320312 265.792969 Z M 102.21875 286.925781 L 119.414062 286.925781 L 119.414062 269.707031 L 102.21875 269.707031 Z M 102.21875 286.925781 "/>
<path style=" stroke:none;fill-rule:nonzero;fill:rgb(100%,39.607843%,51.764706%);fill-opacity:1;" d="M 93.234375 304.144531 L 99.09375 304.144531 L 99.09375 328.40625 L 93.234375 328.40625 Z M 93.234375 304.144531 "/>
<path style=" stroke:none;fill-rule:nonzero;fill:rgb(100%,39.607843%,51.764706%);fill-opacity:1;" d="M 122.148438 304.144531 L 128.011719 304.144531 L 128.011719 328.40625 L 122.148438 328.40625 Z M 122.148438 304.144531 "/>
<path style=" stroke:none;fill-rule:nonzero;fill:rgb(100%,39.607843%,51.764706%);fill-opacity:1;" d="M 159.550781 222.949219 L 164.519531 226.0625 L 151.671875 246.628906 L 146.703125 243.519531 Z M 159.550781 222.949219 "/>
<path style=" stroke:none;fill-rule:nonzero;fill:rgb(24.705882%,23.921569%,33.72549%);fill-opacity:1;" d="M 132.308594 331.261719 L 132.308594 319.796875 L 119.023438 319.796875 L 122.21875 331.144531 L 122.148438 331.144531 L 122.148438 337.40625 L 137.390625 337.40625 C 137.386719 334.402344 135.257812 331.824219 132.308594 331.261719 Z M 132.308594 331.261719 "/>
<path style=" stroke:none;fill-rule:nonzero;fill:rgb(24.705882%,23.921569%,33.72549%);fill-opacity:1;" d="M 89.324219 331.261719 L 89.324219 319.796875 L 102.609375 319.796875 L 99.414062 331.144531 L 99.484375 331.144531 L 99.484375 337.40625 L 84.246094 337.40625 C 84.246094 334.402344 86.378906 331.824219 89.324219 331.261719 Z M 89.324219 331.261719 "/>
<path style=" stroke:none;fill-rule:nonzero;fill:rgb(24.705882%,23.921569%,33.72549%);fill-opacity:1;" d="M 168.652344 215.058594 C 166.402344 212.839844 163.980469 215.125 162.203125 217.757812 C 161.761719 216.519531 161.140625 215.683594 160.679688 215.800781 C 160.136719 215.941406 160.035156 217.386719 160.460938 219.023438 C 160.550781 219.386719 160.667969 219.742188 160.808594 220.089844 C 160.03125 221.539062 159.5625 222.683594 159.5625 222.683594 L 157.109375 225.429688 L 164.070312 229.957031 L 165.773438 226.351562 C 165.773438 226.351562 172.890625 219.234375 168.652344 215.058594 Z M 168.652344 215.058594 "/>
<path style=" stroke:none;fill-rule:nonzero;fill:rgb(100%,39.607843%,51.764706%);fill-opacity:1;" d="M 57.117188 266.019531 L 52.144531 262.90625 L 64.996094 242.335938 L 69.964844 245.449219 Z M 57.117188 266.019531 "/>
<path style=" stroke:none;fill-rule:nonzero;fill:rgb(24.705882%,23.921569%,33.72549%);fill-opacity:1;" d="M 48.011719 273.910156 C 50.261719 276.128906 52.683594 273.84375 54.460938 271.210938 C 54.902344 272.449219 55.527344 273.285156 55.984375 273.167969 C 56.527344 273.027344 56.628906 271.582031 56.207031 269.945312 C 56.113281 269.582031 55.996094 269.226562 55.859375 268.878906 C 56.632812 267.429688 57.105469 266.285156 57.105469 266.285156 L 59.558594 263.539062 L 52.59375 259.011719 L 50.890625 262.617188 C 50.890625 262.617188 43.773438 269.734375 48.011719 273.910156 Z M 48.011719 273.910156 "/>
<path style=" stroke:none;fill-rule:nonzero;fill:rgb(81.568627%,80.392157%,88.235294%);fill-opacity:1;" d="M 395 305.574219 L 352.679688 232.171875 L 369.183594 232.171875 L 332.671875 168.84375 L 359.15625 168.84375 L 320.675781 102.089844 L 340.472656 102.089844 L 290.171875 14.835938 L 239.867188 102.089844 L 259.667969 102.089844 L 221.183594 168.84375 L 247.671875 168.84375 L 211.160156 232.171875 L 227.660156 232.171875 L 185.34375 305.574219 L 268.613281 305.574219 L 268.613281 333.402344 L 304.0625 333.402344 L 304.0625 305.574219 Z M 395 305.574219 "/>
<path style=" stroke:none;fill-rule:nonzero;fill:rgb(38.823529%,59.607843%,100%);fill-opacity:1;" d="M 351.894531 178.363281 C 351.894531 183.226562 347.957031 187.171875 343.097656 187.171875 C 338.242188 187.171875 334.304688 183.226562 334.304688 178.363281 C 334.304688 173.496094 338.242188 169.550781 343.097656 169.550781 C 347.957031 169.550781 351.894531 173.496094 351.894531 178.363281 Z M 351.894531 178.363281 "/>
<path style=" stroke:none;fill-rule:nonzero;fill:rgb(34.117647%,35.294118%,53.72549%);fill-opacity:1;" d="M 337.289062 178.082031 L 335.011719 174.546875 L 335.472656 174.25 L 337.429688 177.289062 L 341.453125 174.296875 L 345.050781 177.847656 L 348.585938 174.765625 L 351.828125 178.5 L 351.410156 178.859375 L 348.53125 175.542969 L 345.027344 178.597656 L 341.402344 175.019531 Z M 337.289062 178.082031 "/>
<path style=" stroke:none;fill-rule:nonzero;fill:rgb(34.117647%,35.294118%,53.72549%);fill-opacity:1;" d="M 350.585938 183.191406 L 347.679688 179.847656 L 344.175781 182.902344 L 340.550781 179.328125 L 336.445312 182.386719 L 334.1875 178.882812 L 334.589844 178.625 L 336.566406 181.695312 L 340.597656 178.699219 L 344.195312 182.25 L 347.726562 179.171875 L 350.945312 182.878906 Z M 350.585938 183.191406 "/>
<path style=" stroke:none;fill-rule:nonzero;fill:rgb(34.117647%,35.294118%,53.72549%);fill-opacity:1;" d="M 343.144531 169.808594 L 343.601562 163.21875 L 344.148438 163.257812 L 343.691406 169.847656 Z M 343.144531 169.808594 "/>
<path style=" stroke:none;fill-rule:nonzero;fill:rgb(38.823529%,59.607843%,100%);fill-opacity:1;" d="M 234.523438 182.199219 C 234.523438 187.066406 230.585938 191.007812 225.726562 191.007812 C 220.867188 191.007812 216.929688 187.066406 216.929688 182.199219 C 216.929688 177.335938 220.867188 173.390625 225.726562 173.390625 C 230.585938 173.390625 234.523438 177.335938 234.523438 182.199219 Z M 234.523438 182.199219 "/>
<path style=" stroke:none;fill-rule:nonzero;fill:rgb(34.117647%,35.294118%,53.72549%);fill-opacity:1;" d="M 219.914062 181.917969 L 217.636719 178.386719 L 218.097656 178.085938 L 220.058594 181.128906 L 224.082031 178.132812 L 227.675781 181.683594 L 231.210938 178.605469 L 234.453125 182.335938 L 234.039062 182.699219 L 231.15625 179.382812 L 227.652344 182.433594 L 224.03125 178.855469 Z M 219.914062 181.917969 "/>
<path style=" stroke:none;fill-rule:nonzero;fill:rgb(34.117647%,35.294118%,53.72549%);fill-opacity:1;" d="M 233.210938 187.03125 L 230.308594 183.6875 L 226.800781 186.742188 L 223.179688 183.167969 L 219.070312 186.222656 L 216.8125 182.722656 L 217.214844 182.460938 L 219.195312 185.535156 L 223.222656 182.535156 L 226.820312 186.085938 L 230.355469 183.011719 L 233.574219 186.714844 Z M 233.210938 187.03125 "/>
<path style=" stroke:none;fill-rule:nonzero;fill:rgb(34.117647%,35.294118%,53.72549%);fill-opacity:1;" d="M 225.769531 173.648438 L 226.226562 167.058594 L 226.777344 167.097656 L 226.316406 173.6875 Z M 225.769531 173.648438 "/>
<path style=" stroke:none;fill-rule:nonzero;fill:rgb(38.823529%,59.607843%,100%);fill-opacity:1;" d="M 290.09375 86.726562 C 290.09375 91.589844 286.15625 95.535156 281.300781 95.535156 C 276.441406 95.535156 272.503906 91.589844 272.503906 86.726562 C 272.503906 81.859375 276.441406 77.917969 281.300781 77.917969 C 286.15625 77.917969 290.09375 81.859375 290.09375 86.726562 Z M 290.09375 86.726562 "/>
<path style=" stroke:none;fill-rule:nonzero;fill:rgb(34.117647%,35.294118%,53.72549%);fill-opacity:1;" d="M 275.488281 86.445312 L 273.210938 82.914062 L 273.671875 82.613281 L 275.632812 85.652344 L 279.652344 82.660156 L 283.25 86.210938 L 286.785156 83.132812 L 290.027344 86.863281 L 289.613281 87.226562 L 286.730469 83.90625 L 283.226562 86.960938 L 279.601562 83.382812 Z M 275.488281 86.445312 "/>
<path style=" stroke:none;fill-rule:nonzero;fill:rgb(34.117647%,35.294118%,53.72549%);fill-opacity:1;" d="M 288.785156 91.558594 L 285.878906 88.214844 L 282.371094 91.265625 L 278.753906 87.691406 L 274.644531 90.75 L 272.386719 87.25 L 272.789062 86.988281 L 274.765625 90.058594 L 278.796875 87.0625 L 282.394531 90.613281 L 285.925781 87.539062 L 289.144531 91.242188 Z M 288.785156 91.558594 "/>
<path style=" stroke:none;fill-rule:nonzero;fill:rgb(34.117647%,35.294118%,53.72549%);fill-opacity:1;" d="M 281.34375 78.175781 L 281.800781 71.585938 L 282.347656 71.621094 L 281.890625 78.214844 Z M 281.34375 78.175781 "/>
<path style=" stroke:none;fill-rule:nonzero;fill:rgb(38.823529%,59.607843%,100%);fill-opacity:1;" d="M 343.75 244.089844 C 343.75 248.953125 339.8125 252.898438 334.957031 252.898438 C 330.097656 252.898438 326.160156 248.953125 326.160156 244.089844 C 326.160156 239.222656 330.097656 235.28125 334.957031 235.28125 C 339.8125 235.28125 343.75 239.222656 343.75 244.089844 Z M 343.75 244.089844 "/>
<path style=" stroke:none;fill-rule:nonzero;fill:rgb(34.117647%,35.294118%,53.72549%);fill-opacity:1;" d="M 329.144531 243.808594 L 326.867188 240.277344 L 327.328125 239.976562 L 329.289062 243.015625 L 333.308594 240.023438 L 336.90625 243.574219 L 340.441406 240.496094 L 343.683594 244.226562 L 343.265625 244.589844 L 340.386719 241.269531 L 336.882812 244.324219 L 333.257812 240.746094 Z M 329.144531 243.808594 "/>
<path style=" stroke:none;fill-rule:nonzero;fill:rgb(34.117647%,35.294118%,53.72549%);fill-opacity:1;" d="M 342.441406 248.921875 L 339.535156 245.578125 L 336.03125 248.628906 L 332.40625 245.054688 L 328.300781 248.113281 L 326.042969 244.613281 L 326.445312 244.351562 L 328.425781 247.421875 L 332.453125 244.425781 L 336.050781 247.976562 L 339.582031 244.898438 L 342.800781 248.605469 Z M 342.441406 248.921875 "/>
<path style=" stroke:none;fill-rule:nonzero;fill:rgb(34.117647%,35.294118%,53.72549%);fill-opacity:1;" d="M 335 235.539062 L 335.457031 228.945312 L 336.003906 228.984375 L 335.546875 235.578125 Z M 335 235.539062 "/>
<path style=" stroke:none;fill-rule:nonzero;fill:rgb(38.823529%,59.607843%,100%);fill-opacity:1;" d="M 244.582031 276.714844 C 244.582031 281.578125 240.644531 285.523438 235.785156 285.523438 C 230.929688 285.523438 226.992188 281.578125 226.992188 276.714844 C 226.992188 271.847656 230.929688 267.90625 235.785156 267.90625 C 240.644531 267.90625 244.582031 271.847656 244.582031 276.714844 Z M 244.582031 276.714844 "/>
<path style=" stroke:none;fill-rule:nonzero;fill:rgb(34.117647%,35.294118%,53.72549%);fill-opacity:1;" d="M 229.976562 276.433594 L 227.699219 272.898438 L 228.160156 272.601562 L 230.117188 275.640625 L 234.140625 272.648438 L 237.738281 276.199219 L 241.273438 273.117188 L 244.515625 276.851562 L 244.097656 277.210938 L 241.21875 273.894531 L 237.714844 276.949219 L 234.089844 273.371094 Z M 229.976562 276.433594 "/>
<path style=" stroke:none;fill-rule:nonzero;fill:rgb(34.117647%,35.294118%,53.72549%);fill-opacity:1;" d="M 243.273438 281.542969 L 240.367188 278.199219 L 236.859375 281.253906 L 233.238281 277.679688 L 229.132812 280.738281 L 226.875 277.234375 L 227.277344 276.976562 L 229.253906 280.046875 L 233.285156 277.050781 L 236.882812 280.601562 L 240.414062 277.523438 L 243.632812 281.230469 Z M 243.273438 281.542969 "/>
<path style=" stroke:none;fill-rule:nonzero;fill:rgb(34.117647%,35.294118%,53.72549%);fill-opacity:1;" d="M 235.828125 268.164062 L 236.289062 261.570312 L 236.835938 261.609375 L 236.378906 268.199219 Z M 235.828125 268.164062 "/>
<path style=" stroke:none;fill-rule:nonzero;fill:rgb(38.823529%,59.607843%,100%);fill-opacity:1;" d="M 314.527344 138.0625 C 314.527344 142.925781 310.589844 146.871094 305.730469 146.871094 C 300.875 146.871094 296.933594 142.925781 296.933594 138.0625 C 296.933594 133.195312 300.875 129.253906 305.730469 129.253906 C 310.589844 129.253906 314.527344 133.195312 314.527344 138.0625 Z M 314.527344 138.0625 "/>
<path style=" stroke:none;fill-rule:nonzero;fill:rgb(34.117647%,35.294118%,53.72549%);fill-opacity:1;" d="M 299.921875 137.78125 L 297.640625 134.246094 L 298.105469 133.949219 L 300.0625 136.988281 L 304.085938 133.996094 L 307.683594 137.546875 L 311.21875 134.464844 L 314.460938 138.199219 L 314.042969 138.558594 L 311.164062 135.242188 L 307.660156 138.296875 L 304.035156 134.71875 Z M 299.921875 137.78125 "/>
<path style=" stroke:none;fill-rule:nonzero;fill:rgb(34.117647%,35.294118%,53.72549%);fill-opacity:1;" d="M 313.21875 142.894531 L 310.3125 139.546875 L 306.804688 142.601562 L 303.183594 139.027344 L 299.074219 142.085938 L 296.820312 138.582031 L 297.222656 138.324219 L 299.199219 141.394531 L 303.226562 138.398438 L 306.828125 141.949219 L 310.359375 138.871094 L 313.578125 142.578125 Z M 313.21875 142.894531 "/>
<path style=" stroke:none;fill-rule:nonzero;fill:rgb(34.117647%,35.294118%,53.72549%);fill-opacity:1;" d="M 305.777344 129.511719 L 306.234375 122.917969 L 306.78125 122.957031 L 306.324219 129.546875 Z M 305.777344 129.511719 "/>
<path style=" stroke:none;fill-rule:nonzero;fill:rgb(38.823529%,59.607843%,100%);fill-opacity:1;" d="M 289.617188 224.898438 C 289.617188 229.765625 285.679688 233.707031 280.820312 233.707031 C 275.960938 233.707031 272.023438 229.765625 272.023438 224.898438 C 272.023438 220.035156 275.960938 216.089844 280.820312 216.089844 C 285.679688 216.089844 289.617188 220.035156 289.617188 224.898438 Z M 289.617188 224.898438 "/>
<path style=" stroke:none;fill-rule:nonzero;fill:rgb(34.117647%,35.294118%,53.72549%);fill-opacity:1;" d="M 275.007812 224.617188 L 272.730469 221.085938 L 273.191406 220.785156 L 275.152344 223.824219 L 279.175781 220.832031 L 282.769531 224.382812 L 286.304688 221.304688 L 289.546875 225.035156 L 289.132812 225.398438 L 286.25 222.082031 L 282.746094 225.132812 L 279.125 221.554688 Z M 275.007812 224.617188 "/>
<path style=" stroke:none;fill-rule:nonzero;fill:rgb(34.117647%,35.294118%,53.72549%);fill-opacity:1;" d="M 288.304688 229.730469 L 285.402344 226.386719 L 281.894531 229.441406 L 278.273438 225.867188 L 274.164062 228.921875 L 271.90625 225.421875 L 272.308594 225.160156 L 274.289062 228.230469 L 278.316406 225.234375 L 281.914062 228.785156 L 285.449219 225.710938 L 288.667969 229.414062 Z M 288.304688 229.730469 "/>
<path style=" stroke:none;fill-rule:nonzero;fill:rgb(34.117647%,35.294118%,53.72549%);fill-opacity:1;" d="M 280.863281 216.347656 L 281.320312 209.757812 L 281.871094 209.792969 L 281.410156 216.386719 Z M 280.863281 216.347656 "/>
<path style=" stroke:none;fill-rule:nonzero;fill:rgb(38.823529%,59.607843%,100%);fill-opacity:1;" d="M 297.09375 23.46875 L 289.601562 17.839844 L 281.9375 23.234375 L 284.96875 14.359375 L 277.480469 8.730469 L 286.84375 8.875 L 289.875 0 L 292.632812 8.964844 L 301.996094 9.109375 L 294.335938 14.503906 Z M 297.09375 23.46875 "/>
<path style=" stroke:none;fill-rule:nonzero;fill:rgb(24.705882%,23.921569%,33.72549%);fill-opacity:1;" d="M 290.195312 67.257812 C 274.996094 67.257812 263.660156 61.230469 263.492188 61.136719 L 263.949219 60.292969 C 264.199219 60.429688 289.046875 73.625 314.382812 60.46875 L 314.824219 61.320312 C 307.214844 65.265625 298.765625 67.300781 290.195312 67.257812 Z M 290.195312 67.257812 "/>
<path style=" stroke:none;fill-rule:nonzero;fill:rgb(24.705882%,23.921569%,33.72549%);fill-opacity:1;" d="M 293.242188 117.257812 C 280.03125 117.191406 266.886719 115.382812 254.148438 111.878906 L 254.429688 110.960938 C 254.824219 111.082031 294.242188 122.914062 325.875 110.96875 L 326.210938 111.867188 C 315.507812 115.910156 303.921875 117.257812 293.242188 117.257812 Z M 293.242188 117.257812 "/>
<path style=" stroke:none;fill-rule:nonzero;fill:rgb(24.705882%,23.921569%,33.72549%);fill-opacity:1;" d="M 286.6875 169.394531 C 278.4375 169.40625 270.199219 168.820312 262.03125 167.636719 C 240.386719 164.453125 227.609375 158.035156 227.480469 157.972656 L 227.914062 157.117188 C 228.039062 157.179688 240.714844 163.539062 262.21875 166.691406 C 282.0625 169.601562 313.703125 170.296875 351.738281 157.089844 L 352.054688 157.996094 C 327 166.695312 304.699219 169.394531 286.6875 169.394531 Z M 286.6875 169.394531 "/>
<path style=" stroke:none;fill-rule:nonzero;fill:rgb(24.705882%,23.921569%,33.72549%);fill-opacity:1;" d="M 292.078125 216.496094 C 283.445312 216.496094 274.824219 215.953125 266.257812 214.871094 C 243.015625 211.9375 227.675781 206.011719 227.523438 205.953125 L 227.871094 205.058594 C 228.023438 205.117188 243.273438 211.003906 266.410156 213.925781 C 287.75 216.617188 320.351562 217.265625 354.5 205.054688 L 354.820312 205.957031 C 332.320312 214.003906 310.492188 216.496094 292.078125 216.496094 Z M 292.078125 216.496094 "/>
<path style=" stroke:none;fill-rule:nonzero;fill:rgb(24.705882%,23.921569%,33.72549%);fill-opacity:1;" d="M 295.820312 270.464844 C 285.191406 270.445312 274.574219 269.734375 264.035156 268.328125 C 234.8125 264.46875 213.871094 256.6875 213.664062 256.609375 L 214 255.710938 C 214.207031 255.789062 235.066406 263.535156 264.183594 267.382812 C 291.035156 270.925781 330.605469 271.78125 366.628906 255.722656 L 367.015625 256.597656 C 343.273438 267.183594 318.007812 270.464844 295.820312 270.464844 Z M 295.820312 270.464844 "/>
<path style=" stroke:none;fill-rule:nonzero;fill:rgb(38.823529%,59.607843%,100%);fill-opacity:1;" d="M 397.8125 291.480469 L 441.546875 291.480469 L 441.546875 332.433594 L 397.8125 332.433594 Z M 397.8125 291.480469 "/>
<path style=" stroke:none;fill-rule:nonzero;fill:rgb(24.705882%,23.921569%,33.72549%);fill-opacity:1;" d="M 415.085938 290.386719 L 424.273438 290.386719 L 424.273438 333.746094 L 415.085938 333.746094 Z M 415.085938 290.386719 "/>
<path style=" stroke:none;fill-rule:nonzero;fill:rgb(24.705882%,23.921569%,33.72549%);fill-opacity:1;" d="M 418.363281 282.183594 C 421.296875 284.707031 420.398438 290.570312 420.398438 290.570312 C 420.398438 290.570312 414.746094 292.347656 411.8125 289.828125 C 408.878906 287.308594 409.777344 281.441406 409.777344 281.441406 C 409.777344 281.441406 415.429688 279.664062 418.363281 282.183594 Z M 418.363281 282.183594 "/>
<path style=" stroke:none;fill-rule:nonzero;fill:rgb(24.705882%,23.921569%,33.72549%);fill-opacity:1;" d="M 428.097656 289.273438 C 425.589844 292.21875 419.730469 291.339844 419.730469 291.339844 C 419.730469 291.339844 417.9375 285.683594 420.445312 282.738281 C 422.953125 279.792969 428.8125 280.675781 428.8125 280.675781 C 428.8125 280.675781 430.605469 286.332031 428.097656 289.273438 Z M 428.097656 289.273438 "/>
<path style=" stroke:none;fill-rule:nonzero;fill:rgb(38.823529%,59.607843%,100%);fill-opacity:1;" d="M 455.5 302.480469 L 487.851562 302.480469 L 487.851562 332.773438 L 455.5 332.773438 Z M 455.5 302.480469 "/>
<path style=" stroke:none;fill-rule:nonzero;fill:rgb(24.705882%,23.921569%,33.72549%);fill-opacity:1;" d="M 468.28125 301.671875 L 475.074219 301.671875 L 475.074219 333.746094 L 468.28125 333.746094 Z M 468.28125 301.671875 "/>
<path style=" stroke:none;fill-rule:nonzero;fill:rgb(24.705882%,23.921569%,33.72549%);fill-opacity:1;" d="M 470.703125 295.605469 C 472.871094 297.46875 472.207031 301.808594 472.207031 301.808594 C 472.207031 301.808594 468.027344 303.125 465.855469 301.257812 C 463.6875 299.394531 464.351562 295.054688 464.351562 295.054688 C 464.351562 295.054688 468.53125 293.738281 470.703125 295.605469 Z M 470.703125 295.605469 "/>
<path style=" stroke:none;fill-rule:nonzero;fill:rgb(24.705882%,23.921569%,33.72549%);fill-opacity:1;" d="M 477.902344 300.847656 C 476.050781 303.027344 471.714844 302.375 471.714844 302.375 C 471.714844 302.375 470.386719 298.191406 472.242188 296.015625 C 474.097656 293.835938 478.433594 294.488281 478.433594 294.488281 C 478.433594 294.488281 479.757812 298.671875 477.902344 300.847656 Z M 477.902344 300.847656 "/>
<path style=" stroke:none;fill-rule:nonzero;fill:rgb(38.823529%,59.607843%,100%);fill-opacity:1;" d="M 184.460938 302.480469 L 216.8125 302.480469 L 216.8125 332.773438 L 184.460938 332.773438 Z M 184.460938 302.480469 "/>
<path style=" stroke:none;fill-rule:nonzero;fill:rgb(24.705882%,23.921569%,33.72549%);fill-opacity:1;" d="M 197.238281 301.671875 L 204.035156 301.671875 L 204.035156 333.746094 L 197.238281 333.746094 Z M 197.238281 301.671875 "/>
<path style=" stroke:none;fill-rule:nonzero;fill:rgb(24.705882%,23.921569%,33.72549%);fill-opacity:1;" d="M 199.664062 295.605469 C 201.832031 297.46875 201.167969 301.808594 201.167969 301.808594 C 201.167969 301.808594 196.988281 303.125 194.816406 301.257812 C 192.648438 299.394531 193.3125 295.054688 193.3125 295.054688 C 193.3125 295.054688 197.492188 293.738281 199.664062 295.605469 Z M 199.664062 295.605469 "/>
<path style=" stroke:none;fill-rule:nonzero;fill:rgb(24.705882%,23.921569%,33.72549%);fill-opacity:1;" d="M 206.863281 300.847656 C 205.011719 303.027344 200.675781 302.375 200.675781 302.375 C 200.675781 302.375 199.347656 298.191406 201.203125 296.015625 C 203.058594 293.835938 207.394531 294.488281 207.394531 294.488281 C 207.394531 294.488281 208.71875 298.671875 206.863281 300.847656 Z M 206.863281 300.847656 "/>
</g>
</svg>
