<?xml version="1.0" encoding="UTF-8"?>
<svg xmlns="http://www.w3.org/2000/svg" xmlns:xlink="http://www.w3.org/1999/xlink" width="447pt" height="271pt" viewBox="0 0 447 271" version="1.1">
<g id="surface1">
<path style=" stroke:none;fill-rule:nonzero;fill:rgb(100%,39.607843%,51.764706%);fill-opacity:1;" d="M 60.015625 35.730469 C 60.015625 48.457031 49.707031 58.773438 36.988281 58.773438 C 24.273438 58.773438 13.964844 48.457031 13.964844 35.730469 C 13.964844 23.003906 24.273438 12.6875 36.988281 12.6875 C 49.707031 12.6875 60.015625 23.003906 60.015625 35.730469 Z M 60.015625 35.730469 "/>
<path style=" stroke:none;fill-rule:nonzero;fill:rgb(90.196078%,90.196078%,90.196078%);fill-opacity:1;" d="M 444.5 261.882812 C 444.5 256.90625 344.996094 252.867188 222.25 252.867188 C 99.503906 252.867188 0 256.90625 0 261.882812 C 0 266.863281 99.503906 270.902344 222.25 270.902344 C 344.996094 270.902344 444.5 266.863281 444.5 261.882812 Z M 444.5 261.882812 "/>
<path style=" stroke:none;fill-rule:nonzero;fill:rgb(38.823529%,59.607843%,100%);fill-opacity:1;" d="M 113.125 92.28125 C 113.125 123.542969 87.800781 148.882812 56.5625 148.882812 C 25.324219 148.882812 0 123.542969 0 92.28125 C 0 61.019531 25.324219 35.675781 56.5625 35.675781 C 87.800781 35.675781 113.125 61.019531 113.125 92.28125 Z M 113.125 92.28125 "/>
<path style=" stroke:none;fill-rule:nonzero;fill:rgb(24.705882%,23.921569%,33.72549%);fill-opacity:1;" d="M 62.015625 262.773438 L 50.429688 262.773438 L 55.710938 83.753906 Z M 62.015625 262.773438 "/>
<path style=" stroke:none;fill-rule:nonzero;fill:rgb(24.705882%,23.921569%,33.72549%);fill-opacity:1;" d="M 56.734375 117.683594 L 69.171875 100.464844 L 56.5625 121.945312 L 55.199219 119.558594 Z M 56.734375 117.683594 "/>
<path style=" stroke:none;fill-rule:nonzero;fill:rgb(24.705882%,23.921569%,33.72549%);fill-opacity:1;" d="M 55.371094 135.074219 L 42.933594 117.855469 L 55.542969 139.335938 L 56.902344 136.949219 Z M 55.371094 135.074219 "/>
<path style=" stroke:none;fill-rule:nonzero;fill:rgb(24.705882%,23.921569%,33.72549%);fill-opacity:1;" d="M 414.214844 262.964844 L 402.632812 262.964844 L 407.914062 83.945312 Z M 414.214844 262.964844 "/>
<path style=" stroke:none;fill-rule:nonzero;fill:rgb(24.705882%,23.921569%,33.72549%);fill-opacity:1;" d="M 408.933594 117.871094 L 421.371094 100.652344 L 408.765625 122.132812 L 407.402344 119.746094 Z M 408.933594 117.871094 "/>
<path style=" stroke:none;fill-rule:nonzero;fill:rgb(24.705882%,23.921569%,33.72549%);fill-opacity:1;" d="M 407.570312 135.261719 L 395.132812 118.042969 L 407.742188 139.523438 L 409.105469 137.136719 Z M 407.570312 135.261719 "/>
<path style=" stroke:none;fill-rule:nonzero;fill:rgb(24.705882%,23.921569%,33.72549%);fill-opacity:1;" d="M 335.15625 157.488281 C 335.15625 215.722656 287.980469 262.933594 229.785156 262.933594 C 171.589844 262.933594 124.414062 215.722656 124.414062 157.488281 C 124.414062 99.25 171.589844 52.039062 229.785156 52.039062 C 287.980469 52.039062 335.15625 99.25 335.15625 157.488281 Z M 335.15625 157.488281 "/>
<path style=" stroke:none;fill-rule:nonzero;fill:rgb(100%,100%,100%);fill-opacity:1;" d="M 326.433594 157.488281 C 326.433594 210.902344 283.160156 254.203125 229.785156 254.203125 C 176.40625 254.203125 133.136719 210.902344 133.136719 157.488281 C 133.136719 104.070312 176.40625 60.769531 229.785156 60.769531 C 283.160156 60.769531 326.433594 104.070312 326.433594 157.488281 Z M 326.433594 157.488281 "/>
<path style=" stroke:none;fill-rule:nonzero;fill:rgb(24.705882%,23.921569%,33.72549%);fill-opacity:1;" d="M 242.34375 157.835938 C 242.34375 164.972656 236.566406 170.753906 229.4375 170.753906 C 222.304688 170.753906 216.527344 164.972656 216.527344 157.835938 C 216.527344 150.703125 222.304688 144.917969 229.4375 144.917969 C 236.566406 144.917969 242.34375 150.703125 242.34375 157.835938 Z M 242.34375 157.835938 "/>
<path style=" stroke:none;fill-rule:nonzero;fill:rgb(24.705882%,23.921569%,33.72549%);fill-opacity:1;" d="M 226.644531 65.65625 L 232.226562 65.65625 L 232.226562 76.132812 L 226.644531 76.132812 Z M 226.644531 65.65625 "/>
<path style=" stroke:none;fill-rule:nonzero;fill:rgb(24.705882%,23.921569%,33.72549%);fill-opacity:1;" d="M 226.644531 239.539062 L 232.226562 239.539062 L 232.226562 250.015625 L 226.644531 250.015625 Z M 226.644531 239.539062 "/>
<path style=" stroke:none;fill-rule:nonzero;fill:rgb(24.705882%,23.921569%,33.72549%);fill-opacity:1;" d="M 147.792969 155.042969 L 147.792969 160.628906 L 137.324219 160.628906 L 137.324219 155.042969 Z M 147.792969 155.042969 "/>
<path style=" stroke:none;fill-rule:nonzero;fill:rgb(24.705882%,23.921569%,33.72549%);fill-opacity:1;" d="M 321.546875 155.042969 L 321.546875 160.628906 L 311.078125 160.628906 L 311.078125 155.042969 Z M 321.546875 155.042969 "/>
<path style=" stroke:none;fill-rule:nonzero;fill:rgb(24.705882%,23.921569%,33.72549%);fill-opacity:1;" d="M 225.714844 163.445312 L 230.484375 152.527344 L 290.265625 185.660156 Z M 225.714844 163.445312 "/>
<path style=" stroke:none;fill-rule:nonzero;fill:rgb(24.705882%,23.921569%,33.72549%);fill-opacity:1;" d="M 216.175781 26.550781 L 243.390625 26.550781 L 243.390625 57.976562 L 216.175781 57.976562 Z M 216.175781 26.550781 "/>
<path style=" stroke:none;fill-rule:nonzero;fill:rgb(24.705882%,23.921569%,33.72549%);fill-opacity:1;" d="M 261.1875 26.550781 C 261.1875 21.730469 247.128906 17.824219 229.785156 17.824219 C 212.441406 17.824219 198.382812 21.730469 198.382812 26.550781 C 198.382812 31.375 212.441406 35.28125 229.785156 35.28125 C 247.128906 35.28125 261.1875 31.375 261.1875 26.550781 Z M 261.1875 26.550781 "/>
<path style=" stroke:none;fill-rule:nonzero;fill:rgb(100%,72.156863%,72.156863%);fill-opacity:1;" d="M 288.574219 176.167969 L 286.832031 178.613281 C 286.832031 178.613281 278.804688 188.039062 278.457031 183.5 C 278.109375 178.960938 284.386719 175.816406 284.386719 175.816406 L 287.878906 173.722656 Z M 288.574219 176.167969 "/>
<path style=" stroke:none;fill-rule:nonzero;fill:rgb(100%,72.156863%,72.156863%);fill-opacity:1;" d="M 338.242188 184.414062 L 339.703125 187.039062 C 339.703125 187.039062 344.78125 198.328125 340.53125 196.703125 C 336.285156 195.074219 336.132812 188.050781 336.132812 188.050781 L 335.734375 184 Z M 338.242188 184.414062 "/>
<path style=" stroke:none;fill-rule:nonzero;fill:rgb(18.431373%,18.039216%,25.490196%);fill-opacity:1;" d="M 341.011719 127.257812 C 341.011719 133.128906 336.253906 137.886719 330.386719 137.886719 C 324.519531 137.886719 319.761719 133.128906 319.761719 127.257812 C 319.761719 121.382812 324.519531 116.625 330.386719 116.625 C 336.253906 116.625 341.011719 121.382812 341.011719 127.257812 Z M 341.011719 127.257812 "/>
<path style=" stroke:none;fill-rule:nonzero;fill:rgb(100%,72.156863%,72.156863%);fill-opacity:1;" d="M 329.398438 214.574219 L 330.792969 223.652344 L 330.792969 226.445312 L 338.816406 226.445312 L 338.816406 222.953125 C 338.816406 222.953125 339.167969 216.667969 337.769531 214.925781 C 336.375 213.179688 329.398438 214.574219 329.398438 214.574219 Z M 329.398438 214.574219 "/>
<path style=" stroke:none;fill-rule:nonzero;fill:rgb(100%,72.156863%,72.156863%);fill-opacity:1;" d="M 315.09375 214.574219 L 316.488281 223.652344 L 316.488281 226.445312 L 324.511719 226.445312 L 324.511719 222.953125 C 324.511719 222.953125 324.863281 216.667969 323.464844 214.925781 C 322.070312 213.179688 315.09375 214.574219 315.09375 214.574219 Z M 315.09375 214.574219 "/>
<path style=" stroke:none;fill-rule:nonzero;fill:rgb(38.823529%,59.607843%,100%);fill-opacity:1;" d="M 320.492188 141.652344 C 320.492188 141.652344 317.40625 143.28125 319.515625 146.984375 C 321.621094 150.6875 333.992188 189 333.992188 189 L 341.128906 186.972656 L 334.835938 162.742188 L 331.230469 147.515625 Z M 320.492188 141.652344 "/>
<path style=" stroke:none;fill-rule:nonzero;fill:rgb(100%,72.156863%,72.156863%);fill-opacity:1;" d="M 337.246094 130.253906 C 337.246094 134.6875 333.65625 138.285156 329.222656 138.285156 C 324.792969 138.285156 321.199219 134.6875 321.199219 130.253906 C 321.199219 125.816406 324.792969 122.222656 329.222656 122.222656 C 333.65625 122.222656 337.246094 125.816406 337.246094 130.253906 Z M 337.246094 130.253906 "/>
<path style=" stroke:none;fill-rule:nonzero;fill:rgb(100%,72.156863%,72.156863%);fill-opacity:1;" d="M 332.886719 131.476562 L 331.839844 147.886719 L 324.511719 142.648438 C 324.511719 142.648438 326.957031 132.871094 326.257812 132.171875 Z M 332.886719 131.476562 "/>
<path style=" stroke:none;fill-rule:nonzero;fill:rgb(38.823529%,59.607843%,100%);fill-opacity:1;" d="M 332.886719 146.488281 L 324.992188 140.640625 C 324.992188 140.640625 321.371094 139.15625 320.324219 140.902344 C 319.277344 142.648438 314.046875 168.484375 316.835938 173.375 C 316.835938 173.375 331.839844 176.515625 334.980469 174.769531 L 336.375 165.691406 C 336.375 165.691406 338.121094 160.105469 335.328125 156.613281 Z M 332.886719 146.488281 "/>
<path style=" stroke:none;fill-rule:nonzero;fill:rgb(38.823529%,59.607843%,100%);fill-opacity:1;" d="M 322.417969 141.25 C 322.417969 141.25 319.628906 139.15625 317.1875 142.648438 C 314.742188 146.140625 285.433594 173.722656 285.433594 173.722656 L 290.320312 179.308594 L 309.511719 163.25 L 321.722656 153.472656 Z M 322.417969 141.25 "/>
<path style=" stroke:none;fill-rule:nonzero;fill:rgb(18.431373%,18.039216%,25.490196%);fill-opacity:1;" d="M 335.15625 174.597656 C 335.15625 174.597656 317.882812 171.277344 316.140625 173.722656 L 315.789062 177.5625 C 315.789062 177.5625 311.953125 184.894531 314.046875 196.769531 C 316.140625 208.640625 314.742188 215.972656 314.742188 215.972656 C 314.742188 215.972656 324.164062 214.925781 331.140625 215.972656 C 338.121094 217.019531 339.167969 215.972656 339.167969 215.972656 Z M 335.15625 174.597656 "/>
<path style=" stroke:none;fill-rule:nonzero;fill:rgb(18.431373%,18.039216%,25.490196%);fill-opacity:1;" d="M 339.515625 225.050781 L 329.398438 225.398438 L 332.886719 251.585938 C 332.886719 251.585938 330.09375 262.757812 333.234375 263.457031 C 335.417969 263.898438 337.636719 264.132812 339.863281 264.15625 C 339.863281 264.15625 343.003906 267.296875 346.492188 266.949219 C 348.8125 266.652344 351.054688 265.941406 353.125 264.855469 C 353.125 264.855469 353.820312 262.757812 351.378906 262.0625 C 348.9375 261.363281 342.308594 259.265625 340.910156 251.933594 Z M 339.515625 225.050781 "/>
<path style=" stroke:none;fill-rule:nonzero;fill:rgb(18.431373%,18.039216%,25.490196%);fill-opacity:1;" d="M 325.210938 225.050781 L 315.09375 225.398438 L 318.582031 251.585938 C 318.582031 251.585938 315.789062 262.757812 318.929688 263.457031 C 321.113281 263.898438 323.332031 264.132812 325.558594 264.15625 C 325.558594 264.15625 328.699219 267.296875 332.1875 266.949219 C 334.507812 266.652344 336.75 265.941406 338.816406 264.855469 C 338.816406 264.855469 339.515625 262.757812 337.074219 262.0625 C 334.632812 261.363281 328 259.265625 326.605469 251.933594 Z M 325.210938 225.050781 "/>
<path style=" stroke:none;fill-rule:nonzero;fill:rgb(18.431373%,18.039216%,25.490196%);fill-opacity:1;" d="M 338.5 116.066406 C 338.5 118.496094 336.53125 120.464844 334.101562 120.464844 C 331.675781 120.464844 329.707031 118.496094 329.707031 116.066406 C 329.707031 113.636719 331.675781 111.667969 334.101562 111.667969 C 336.53125 111.667969 338.5 113.636719 338.5 116.066406 Z M 338.5 116.066406 "/>
<path style=" stroke:none;fill-rule:nonzero;fill:rgb(18.431373%,18.039216%,25.490196%);fill-opacity:1;" d="M 339.964844 113.683594 C 339.964844 111.429688 338.265625 109.542969 336.027344 109.308594 C 336.179688 109.292969 336.332031 109.285156 336.484375 109.285156 C 338.910156 109.285156 340.878906 111.253906 340.878906 113.683594 C 340.878906 116.113281 338.910156 118.082031 336.484375 118.082031 C 336.332031 118.082031 336.179688 118.074219 336.027344 118.058594 C 338.265625 117.824219 339.964844 115.933594 339.964844 113.683594 Z M 339.964844 113.683594 "/>
<path style=" stroke:none;fill-rule:nonzero;fill:rgb(18.431373%,18.039216%,25.490196%);fill-opacity:1;" d="M 336.476562 125 C 336.476562 122.570312 333.195312 120.601562 329.152344 120.601562 C 325.105469 120.601562 321.824219 122.570312 321.824219 125 C 321.824219 127.429688 325.105469 129.402344 329.152344 129.402344 C 333.195312 129.402344 336.476562 127.429688 336.476562 125 Z M 336.476562 125 "/>
<path style=" stroke:none;fill-rule:nonzero;fill:rgb(90.196078%,90.196078%,90.196078%);fill-opacity:1;" d="M 444.558594 21.113281 C 443.9375 10.179688 435.5 1.296875 424.617188 0.125 C 413.734375 -1.042969 403.605469 5.839844 400.679688 16.394531 C 400.410156 16.386719 400.136719 16.375 399.863281 16.375 C 389.941406 16.378906 381.207031 22.921875 378.40625 32.449219 C 371.824219 29.554688 364.117188 31.472656 359.652344 37.117188 L 429.414062 37.117188 C 433.523438 37.128906 437.464844 35.464844 440.324219 32.507812 C 443.183594 29.550781 444.71875 25.558594 444.574219 21.445312 C 444.570312 21.335938 444.5625 21.226562 444.558594 21.113281 Z M 444.558594 21.113281 "/>
<path style=" stroke:none;fill-rule:nonzero;fill:rgb(90.196078%,90.196078%,90.196078%);fill-opacity:1;" d="M 392.246094 62.203125 C 392.246094 65.523438 389.554688 68.214844 386.238281 68.214844 C 382.921875 68.214844 380.230469 65.523438 380.230469 62.203125 C 380.230469 58.882812 382.921875 56.191406 386.238281 56.191406 C 389.554688 56.191406 392.246094 58.882812 392.246094 62.203125 Z M 392.246094 62.203125 "/>
<path style=" stroke:none;fill-rule:nonzero;fill:rgb(90.196078%,90.196078%,90.196078%);fill-opacity:1;" d="M 409.378906 48.03125 C 409.378906 50.796875 407.136719 53.035156 404.375 53.035156 C 401.613281 53.035156 399.375 50.796875 399.375 48.03125 C 399.375 45.265625 401.613281 43.027344 404.375 43.027344 C 407.136719 43.027344 409.378906 45.265625 409.378906 48.03125 Z M 409.378906 48.03125 "/>
<path style=" stroke:none;fill-rule:nonzero;fill:rgb(90.196078%,90.196078%,90.196078%);fill-opacity:1;" d="M 434.792969 75.226562 C 434.792969 78.546875 432.105469 81.238281 428.785156 81.238281 C 425.46875 81.238281 422.78125 78.546875 422.78125 75.226562 C 422.78125 71.90625 425.46875 69.214844 428.785156 69.214844 C 432.105469 69.214844 434.792969 71.90625 434.792969 75.226562 Z M 434.792969 75.226562 "/>
<path style=" stroke:none;fill-rule:nonzero;fill:rgb(90.196078%,90.196078%,90.196078%);fill-opacity:1;" d="M 389.242188 102.777344 C 389.242188 106.097656 386.554688 108.789062 383.234375 108.789062 C 379.917969 108.789062 377.230469 106.097656 377.230469 102.777344 C 377.230469 99.457031 379.917969 96.765625 383.234375 96.765625 C 386.554688 96.765625 389.242188 99.457031 389.242188 102.777344 Z M 389.242188 102.777344 "/>
<path style=" stroke:none;fill-rule:nonzero;fill:rgb(90.196078%,90.196078%,90.196078%);fill-opacity:1;" d="M 434.792969 137.34375 C 434.792969 140.664062 432.105469 143.351562 428.785156 143.351562 C 425.46875 143.351562 422.78125 140.664062 422.78125 137.34375 C 422.78125 134.023438 425.46875 131.332031 428.785156 131.332031 C 432.105469 131.332031 434.792969 134.023438 434.792969 137.34375 Z M 434.792969 137.34375 "/>
<path style=" stroke:none;fill-rule:nonzero;fill:rgb(90.196078%,90.196078%,90.196078%);fill-opacity:1;" d="M 419.265625 253.25 C 419.269531 253.183594 419.277344 253.121094 419.277344 253.054688 C 419.277344 251.007812 418.238281 249.101562 416.519531 247.996094 C 414.796875 246.890625 412.632812 246.738281 410.773438 247.59375 C 409.007812 245.554688 406.101562 244.949219 403.671875 246.105469 C 401.238281 247.265625 399.878906 249.90625 400.34375 252.558594 C 400.316406 252.558594 400.285156 252.554688 400.253906 252.554688 C 397.628906 252.550781 395.304688 254.253906 394.515625 256.761719 C 393.726562 259.269531 394.65625 262 396.8125 263.5 C 398.96875 265 401.851562 264.925781 403.925781 263.316406 C 404.894531 265.207031 406.792969 266.445312 408.914062 266.570312 C 411.035156 266.695312 413.0625 265.691406 414.25 263.925781 C 416.203125 265.347656 418.820312 265.460938 420.886719 264.207031 C 422.957031 262.953125 424.070312 260.582031 423.714844 258.1875 C 423.363281 255.796875 421.609375 253.851562 419.265625 253.25 Z M 419.265625 253.25 "/>
<path style=" stroke:none;fill-rule:nonzero;fill:rgb(90.196078%,90.196078%,90.196078%);fill-opacity:1;" d="M 436.796875 113.296875 C 436.796875 114.679688 435.675781 115.800781 434.292969 115.800781 C 432.910156 115.800781 431.789062 114.679688 431.789062 113.296875 C 431.789062 111.914062 432.910156 110.792969 434.292969 110.792969 C 435.675781 110.792969 436.796875 111.914062 436.796875 113.296875 Z M 436.796875 113.296875 "/>
<path style=" stroke:none;fill-rule:nonzero;fill:rgb(90.196078%,90.196078%,90.196078%);fill-opacity:1;" d="M 420.777344 53.1875 C 420.777344 54.570312 419.65625 55.691406 418.273438 55.691406 C 416.890625 55.691406 415.773438 54.570312 415.773438 53.1875 C 415.773438 51.804688 416.890625 50.683594 418.273438 50.683594 C 419.65625 50.683594 420.777344 51.804688 420.777344 53.1875 Z M 420.777344 53.1875 "/>
<path style=" stroke:none;fill-rule:nonzero;fill:rgb(90.196078%,90.196078%,90.196078%);fill-opacity:1;" d="M 412.269531 115.300781 C 412.269531 116.683594 411.148438 117.804688 409.765625 117.804688 C 408.382812 117.804688 407.261719 116.683594 407.261719 115.300781 C 407.261719 113.917969 408.382812 112.796875 409.765625 112.796875 C 411.148438 112.796875 412.269531 113.917969 412.269531 115.300781 Z M 412.269531 115.300781 "/>
<path style=" stroke:none;fill-rule:nonzero;fill:rgb(90.196078%,90.196078%,90.196078%);fill-opacity:1;" d="M 414.269531 112.796875 C 414.269531 114.179688 413.148438 115.300781 411.765625 115.300781 C 410.386719 115.300781 409.265625 114.179688 409.265625 112.796875 C 409.265625 111.414062 410.386719 110.292969 411.765625 110.292969 C 413.148438 110.292969 414.269531 111.414062 414.269531 112.796875 Z M 414.269531 112.796875 "/>
<path style=" stroke:none;fill-rule:nonzero;fill:rgb(90.196078%,90.196078%,90.196078%);fill-opacity:1;" d="M 415.773438 110.292969 C 415.773438 111.675781 414.652344 112.796875 413.269531 112.796875 C 411.886719 112.796875 410.765625 111.675781 410.765625 110.292969 C 410.765625 108.910156 411.886719 107.789062 413.269531 107.789062 C 414.652344 107.789062 415.773438 108.910156 415.773438 110.292969 Z M 415.773438 110.292969 "/>
<path style=" stroke:none;fill-rule:nonzero;fill:rgb(90.196078%,90.196078%,90.196078%);fill-opacity:1;" d="M 409.765625 131.332031 C 409.765625 132.714844 408.644531 133.835938 407.261719 133.835938 C 405.878906 133.835938 404.757812 132.714844 404.757812 131.332031 C 404.757812 129.949219 405.878906 128.828125 407.261719 128.828125 C 408.644531 128.828125 409.765625 129.949219 409.765625 131.332031 Z M 409.765625 131.332031 "/>
<path style=" stroke:none;fill-rule:nonzero;fill:rgb(90.196078%,90.196078%,90.196078%);fill-opacity:1;" d="M 446.808594 159.382812 C 446.808594 160.765625 445.6875 161.886719 444.304688 161.886719 C 442.921875 161.886719 441.800781 160.765625 441.800781 159.382812 C 441.800781 158 442.921875 156.878906 444.304688 156.878906 C 445.6875 156.878906 446.808594 158 446.808594 159.382812 Z M 446.808594 159.382812 "/>
<path style=" stroke:none;fill-rule:nonzero;fill:rgb(90.196078%,90.196078%,90.196078%);fill-opacity:1;" d="M 393.246094 160.886719 C 393.246094 162.269531 392.125 163.390625 390.742188 163.390625 C 389.363281 163.390625 388.242188 162.269531 388.242188 160.886719 C 388.242188 159.503906 389.363281 158.382812 390.742188 158.382812 C 392.125 158.382812 393.246094 159.503906 393.246094 160.886719 Z M 393.246094 160.886719 "/>
<path style=" stroke:none;fill-rule:nonzero;fill:rgb(90.196078%,90.196078%,90.196078%);fill-opacity:1;" d="M 396.25 83.742188 C 396.25 85.125 395.128906 86.25 393.746094 86.25 C 392.363281 86.25 391.246094 85.125 391.246094 83.742188 C 391.246094 82.359375 392.363281 81.238281 393.746094 81.238281 C 395.128906 81.238281 396.25 82.359375 396.25 83.742188 Z M 396.25 83.742188 "/>
<path style=" stroke:none;fill-rule:nonzero;fill:rgb(90.196078%,90.196078%,90.196078%);fill-opacity:1;" d="M 407.761719 128.828125 C 407.761719 130.210938 406.640625 131.332031 405.261719 131.332031 C 403.878906 131.332031 402.757812 130.210938 402.757812 128.828125 C 402.757812 127.445312 403.878906 126.320312 405.261719 126.320312 C 406.640625 126.320312 407.761719 127.445312 407.761719 128.828125 Z M 407.761719 128.828125 "/>
<path style=" stroke:none;fill-rule:nonzero;fill:rgb(90.196078%,90.196078%,90.196078%);fill-opacity:1;" d="M 405.261719 124.820312 C 405.261719 126.203125 404.140625 127.324219 402.757812 127.324219 C 401.375 127.324219 400.253906 126.203125 400.253906 124.820312 C 400.253906 123.4375 401.375 122.316406 402.757812 122.316406 C 404.140625 122.316406 405.261719 123.4375 405.261719 124.820312 Z M 405.261719 124.820312 "/>
</g>
</svg>
