<?xml version="1.0" encoding="UTF-8"?>
<svg xmlns="http://www.w3.org/2000/svg" xmlns:xlink="http://www.w3.org/1999/xlink" width="444pt" height="371pt" viewBox="0 0 444 371" version="1.1">
<defs>
<filter id="alpha" filterUnits="objectBoundingBox" x="0%" y="0%" width="100%" height="100%">
  <feColorMatrix type="matrix" in="SourceGraphic" values="0 0 0 0 1 0 0 0 0 1 0 0 0 0 1 0 0 0 1 0"/>
</filter>
<mask id="mask0">
  <g filter="url(#alpha)">
<rect x="0" y="0" width="444" height="371" style="fill:rgb(0%,0%,0%);fill-opacity:0.2;stroke:none;"/>
  </g>
</mask>
<clipPath id="clip1">
  <rect width="444" height="371"/>
</clipPath>
<g id="surface6" clip-path="url(#clip1)">
<path style=" stroke:none;fill-rule:nonzero;fill:rgb(0%,0%,0%);fill-opacity:1;" d="M 232.847656 229.382812 C 232.847656 229.976562 232.371094 230.457031 231.777344 230.457031 C 231.183594 230.457031 230.703125 229.976562 230.703125 229.382812 "/>
</g>
<mask id="mask1">
  <g filter="url(#alpha)">
<rect x="0" y="0" width="444" height="371" style="fill:rgb(0%,0%,0%);fill-opacity:0.2;stroke:none;"/>
  </g>
</mask>
<clipPath id="clip2">
  <rect width="444" height="371"/>
</clipPath>
<g id="surface9" clip-path="url(#clip2)">
<path style=" stroke:none;fill-rule:nonzero;fill:rgb(0%,0%,0%);fill-opacity:1;" d="M 350.835938 282.253906 C 350.835938 283.367188 349.9375 284.265625 348.828125 284.265625 C 347.722656 284.265625 346.820312 283.367188 346.820312 282.253906 "/>
</g>
</defs>
<g id="surface1">
<path style=" stroke:none;fill-rule:nonzero;fill:rgb(90.196078%,90.196078%,90.196078%);fill-opacity:1;" d="M 182.949219 87.308594 L 180.933594 87.308594 L 180.933594 32.007812 C 180.933594 14.328125 166.621094 0 148.96875 0 L 31.964844 0 C 14.3125 0 0 14.328125 0 32.007812 L 0 335.390625 C 0 353.070312 14.3125 367.398438 31.964844 367.398438 L 148.96875 367.398438 C 166.621094 367.398438 180.933594 353.070312 180.933594 335.390625 L 180.933594 126.671875 L 182.949219 126.671875 Z M 182.949219 87.308594 "/>
<path style=" stroke:none;fill-rule:nonzero;fill:rgb(100%,100%,100%);fill-opacity:1;" d="M 150.257812 8.328125 L 134.984375 8.328125 C 136.410156 11.828125 136.003906 15.8125 133.898438 18.949219 C 131.789062 22.089844 128.261719 23.972656 124.484375 23.972656 L 57.453125 23.972656 C 53.679688 23.972656 50.148438 22.089844 48.042969 18.949219 C 45.9375 15.8125 45.527344 11.828125 46.953125 8.328125 L 32.691406 8.328125 C 19.507812 8.328125 8.820312 19.027344 8.820312 32.230469 L 8.820312 335.167969 C 8.820312 348.371094 19.507812 359.070312 32.691406 359.070312 L 150.257812 359.070312 C 163.441406 359.070312 174.128906 348.371094 174.128906 335.167969 L 174.128906 32.230469 C 174.128906 19.027344 163.441406 8.328125 150.257812 8.328125 Z M 150.257812 8.328125 "/>
<path style=" stroke:none;fill-rule:nonzero;fill:rgb(90.196078%,90.196078%,90.196078%);fill-opacity:1;" d="M 56.835938 69.910156 L 49.816406 69.910156 C 49.300781 69.910156 48.886719 70.328125 48.886719 70.84375 L 48.886719 73.929688 C 48.886719 74.445312 49.300781 74.859375 49.816406 74.859375 L 50.980469 74.859375 L 50.980469 79.484375 L 55.671875 79.484375 L 55.671875 74.859375 L 56.835938 74.859375 C 57.351562 74.859375 57.765625 74.445312 57.765625 73.929688 L 57.765625 70.84375 C 57.765625 70.328125 57.351562 69.910156 56.835938 69.910156 Z M 56.835938 69.910156 "/>
<path style=" stroke:none;fill-rule:nonzero;fill:rgb(90.196078%,90.196078%,90.196078%);fill-opacity:1;" d="M 63.867188 98.148438 C 59.566406 91.847656 57.371094 84.347656 57.589844 76.722656 C 57.597656 76.359375 57.347656 76.042969 56.996094 75.960938 L 56.996094 74.628906 L 49.582031 74.628906 L 49.582031 75.941406 L 49.480469 75.941406 C 49.058594 75.945312 48.71875 76.285156 48.71875 76.707031 C 48.71875 76.722656 48.71875 76.742188 48.722656 76.761719 C 49.304688 84.914062 47.332031 92.226562 42.804688 98.695312 C 42.542969 99.066406 42.410156 99.511719 42.425781 99.96875 L 43.234375 125.078125 C 43.277344 126.238281 44.226562 127.164062 45.386719 127.175781 L 62.15625 127.175781 C 63.332031 127.164062 64.289062 126.21875 64.308594 125.039062 L 64.621094 100.660156 C 64.632812 99.765625 64.367188 98.890625 63.867188 98.148438 Z M 63.867188 98.148438 "/>
<path style=" stroke:none;fill-rule:nonzero;fill:rgb(100%,100%,100%);fill-opacity:1;" d="M 61.210938 106.488281 L 46.617188 106.488281 C 46.179688 106.488281 45.765625 106.679688 45.480469 107.011719 C 45.195312 107.34375 45.070312 107.785156 45.136719 108.21875 L 47.339844 122.574219 L 60.007812 122.574219 L 62.683594 108.265625 C 62.769531 107.828125 62.652344 107.375 62.367188 107.03125 C 62.082031 106.6875 61.660156 106.488281 61.210938 106.488281 Z M 61.210938 106.488281 "/>
<path style=" stroke:none;fill-rule:nonzero;fill:rgb(90.196078%,90.196078%,90.196078%);fill-opacity:1;" d="M 134.976562 145.128906 L 127.957031 145.128906 C 127.445312 145.128906 127.027344 145.546875 127.027344 146.0625 L 127.027344 149.148438 C 127.027344 149.664062 127.445312 150.078125 127.957031 150.078125 L 129.121094 150.078125 L 129.121094 154.703125 L 133.816406 154.703125 L 133.816406 150.078125 L 134.976562 150.078125 C 135.492188 150.078125 135.910156 149.664062 135.910156 149.148438 L 135.910156 146.0625 C 135.910156 145.546875 135.492188 145.128906 134.976562 145.128906 Z M 134.976562 145.128906 "/>
<path style=" stroke:none;fill-rule:nonzero;fill:rgb(90.196078%,90.196078%,90.196078%);fill-opacity:1;" d="M 142.007812 173.367188 C 137.710938 167.066406 135.511719 159.566406 135.730469 151.941406 C 135.738281 151.578125 135.492188 151.261719 135.136719 151.179688 L 135.136719 149.847656 L 127.722656 149.847656 L 127.722656 151.160156 L 127.621094 151.160156 C 127.199219 151.164062 126.859375 151.503906 126.859375 151.925781 C 126.859375 151.941406 126.863281 151.960938 126.863281 151.980469 C 127.449219 160.132812 125.476562 167.445312 120.945312 173.914062 C 120.6875 174.285156 120.554688 174.730469 120.566406 175.1875 L 121.378906 200.296875 C 121.417969 201.457031 122.367188 202.382812 123.53125 202.394531 L 140.296875 202.394531 C 141.476562 202.382812 142.429688 201.4375 142.453125 200.257812 L 142.765625 175.878906 C 142.773438 174.984375 142.511719 174.109375 142.007812 173.367188 Z M 142.007812 173.367188 "/>
<path style=" stroke:none;fill-rule:nonzero;fill:rgb(100%,100%,100%);fill-opacity:1;" d="M 139.355469 181.707031 L 124.757812 181.707031 C 124.320312 181.707031 123.90625 181.898438 123.621094 182.230469 C 123.335938 182.5625 123.210938 183.003906 123.277344 183.4375 L 125.484375 197.792969 L 138.148438 197.792969 L 140.828125 183.484375 C 140.910156 183.046875 140.792969 182.59375 140.507812 182.25 C 140.222656 181.90625 139.800781 181.707031 139.355469 181.707031 Z M 139.355469 181.707031 "/>
<path style=" stroke:none;fill-rule:nonzero;fill:rgb(90.196078%,90.196078%,90.196078%);fill-opacity:1;" d="M 46.96875 251.46875 L 43.636719 251.46875 C 43.394531 251.46875 43.195312 251.664062 43.195312 251.910156 L 43.195312 253.371094 C 43.195312 253.617188 43.394531 253.816406 43.636719 253.816406 L 44.191406 253.816406 L 44.191406 256.007812 L 46.414062 256.007812 L 46.414062 253.816406 L 46.96875 253.816406 C 47.210938 253.816406 47.410156 253.617188 47.410156 253.371094 L 47.410156 251.910156 C 47.410156 251.664062 47.210938 251.46875 46.96875 251.46875 Z M 46.96875 251.46875 "/>
<path style=" stroke:none;fill-rule:nonzero;fill:rgb(90.196078%,90.196078%,90.196078%);fill-opacity:1;" d="M 50.300781 264.859375 C 48.261719 261.875 47.222656 258.316406 47.324219 254.699219 C 47.328125 254.527344 47.210938 254.375 47.042969 254.335938 L 47.042969 253.703125 L 43.527344 253.703125 L 43.527344 254.328125 L 43.476562 254.328125 C 43.277344 254.328125 43.117188 254.492188 43.117188 254.691406 C 43.117188 254.699219 43.117188 254.707031 43.117188 254.714844 C 43.441406 258.40625 42.449219 262.09375 40.3125 265.121094 C 40.1875 265.296875 40.125 265.507812 40.132812 265.722656 L 40.515625 277.632812 C 40.535156 278.1875 40.984375 278.625 41.535156 278.628906 L 49.492188 278.628906 C 50.050781 278.625 50.503906 278.175781 50.511719 277.617188 L 50.660156 266.054688 C 50.664062 265.628906 50.539062 265.210938 50.300781 264.859375 Z M 50.300781 264.859375 "/>
<path style=" stroke:none;fill-rule:nonzero;fill:rgb(100%,100%,100%);fill-opacity:1;" d="M 41.566406 269.238281 L 49.15625 269.238281 L 49.15625 273.039062 L 41.566406 273.039062 Z M 41.566406 269.238281 "/>
<path style=" stroke:none;fill-rule:nonzero;fill:rgb(90.196078%,90.196078%,90.196078%);fill-opacity:1;" d="M 62.46875 251.46875 L 59.136719 251.46875 C 58.894531 251.46875 58.695312 251.664062 58.695312 251.910156 L 58.695312 253.371094 C 58.695312 253.617188 58.894531 253.816406 59.136719 253.816406 L 59.691406 253.816406 L 59.691406 256.007812 L 61.914062 256.007812 L 61.914062 253.816406 L 62.46875 253.816406 C 62.710938 253.816406 62.910156 253.617188 62.910156 253.371094 L 62.910156 251.910156 C 62.910156 251.664062 62.710938 251.46875 62.46875 251.46875 Z M 62.46875 251.46875 "/>
<path style=" stroke:none;fill-rule:nonzero;fill:rgb(90.196078%,90.196078%,90.196078%);fill-opacity:1;" d="M 65.800781 264.859375 C 63.761719 261.875 62.722656 258.316406 62.824219 254.699219 C 62.828125 254.527344 62.710938 254.375 62.542969 254.335938 L 62.542969 253.703125 L 59.027344 253.703125 L 59.027344 254.328125 L 58.976562 254.328125 C 58.777344 254.328125 58.617188 254.492188 58.617188 254.691406 C 58.617188 254.699219 58.617188 254.707031 58.617188 254.714844 C 58.941406 258.40625 57.949219 262.09375 55.8125 265.121094 C 55.6875 265.296875 55.625 265.507812 55.632812 265.722656 L 56.015625 277.632812 C 56.035156 278.1875 56.484375 278.625 57.035156 278.628906 L 64.992188 278.628906 C 65.550781 278.625 66.003906 278.175781 66.011719 277.617188 L 66.160156 266.054688 C 66.164062 265.628906 66.039062 265.210938 65.800781 264.859375 Z M 65.800781 264.859375 "/>
<path style=" stroke:none;fill-rule:nonzero;fill:rgb(100%,100%,100%);fill-opacity:1;" d="M 57.066406 269.238281 L 64.65625 269.238281 L 64.65625 273.039062 L 57.066406 273.039062 Z M 57.066406 269.238281 "/>
<path style=" stroke:none;fill-rule:nonzero;fill:rgb(90.196078%,90.196078%,90.196078%);fill-opacity:1;" d="M 77.96875 251.46875 L 74.636719 251.46875 C 74.394531 251.46875 74.195312 251.664062 74.195312 251.910156 L 74.195312 253.371094 C 74.195312 253.617188 74.394531 253.816406 74.636719 253.816406 L 75.191406 253.816406 L 75.191406 256.007812 L 77.414062 256.007812 L 77.414062 253.816406 L 77.96875 253.816406 C 78.210938 253.816406 78.410156 253.617188 78.410156 253.371094 L 78.410156 251.910156 C 78.410156 251.664062 78.210938 251.46875 77.96875 251.46875 Z M 77.96875 251.46875 "/>
<path style=" stroke:none;fill-rule:nonzero;fill:rgb(90.196078%,90.196078%,90.196078%);fill-opacity:1;" d="M 81.300781 264.859375 C 79.261719 261.875 78.222656 258.316406 78.324219 254.699219 C 78.328125 254.527344 78.210938 254.375 78.042969 254.335938 L 78.042969 253.703125 L 74.527344 253.703125 L 74.527344 254.328125 L 74.476562 254.328125 C 74.277344 254.328125 74.117188 254.492188 74.117188 254.691406 C 74.117188 254.699219 74.117188 254.707031 74.117188 254.714844 C 74.441406 258.40625 73.449219 262.09375 71.3125 265.121094 C 71.1875 265.296875 71.125 265.507812 71.132812 265.722656 L 71.515625 277.632812 C 71.535156 278.1875 71.984375 278.625 72.535156 278.628906 L 80.492188 278.628906 C 81.050781 278.625 81.503906 278.175781 81.511719 277.617188 L 81.660156 266.054688 C 81.664062 265.628906 81.539062 265.210938 81.300781 264.859375 Z M 81.300781 264.859375 "/>
<path style=" stroke:none;fill-rule:nonzero;fill:rgb(100%,100%,100%);fill-opacity:1;" d="M 72.566406 269.238281 L 80.15625 269.238281 L 80.15625 273.039062 L 72.566406 273.039062 Z M 72.566406 269.238281 "/>
<path style=" stroke:none;fill-rule:nonzero;fill:rgb(90.196078%,90.196078%,90.196078%);fill-opacity:1;" d="M 122.785156 222.367188 L 115.765625 222.367188 C 115.25 222.367188 114.832031 222.785156 114.832031 223.300781 L 114.832031 226.386719 C 114.832031 226.898438 115.25 227.316406 115.765625 227.316406 L 116.925781 227.316406 L 116.925781 231.941406 L 121.621094 231.941406 L 121.621094 227.316406 L 122.785156 227.316406 C 123.296875 227.316406 123.714844 226.898438 123.714844 226.386719 L 123.714844 223.300781 C 123.714844 222.785156 123.296875 222.367188 122.785156 222.367188 Z M 122.785156 222.367188 "/>
<path style=" stroke:none;fill-rule:nonzero;fill:rgb(90.196078%,90.196078%,90.196078%);fill-opacity:1;" d="M 129.816406 250.605469 C 125.515625 244.304688 123.316406 236.804688 123.535156 229.179688 C 123.542969 228.816406 123.296875 228.496094 122.941406 228.417969 L 122.941406 227.085938 L 115.527344 227.085938 L 115.527344 228.398438 L 115.425781 228.398438 C 115.007812 228.402344 114.664062 228.742188 114.667969 229.164062 C 114.667969 229.179688 114.667969 229.199219 114.667969 229.21875 C 115.253906 237.371094 113.28125 244.683594 108.75 251.152344 C 108.492188 251.523438 108.359375 251.96875 108.371094 252.421875 L 109.183594 277.53125 C 109.222656 278.695312 110.171875 279.621094 111.335938 279.632812 L 128.105469 279.632812 C 129.28125 279.621094 130.234375 278.675781 130.257812 277.496094 L 130.570312 253.117188 C 130.578125 252.222656 130.316406 251.347656 129.816406 250.605469 Z M 129.816406 250.605469 "/>
<path style=" stroke:none;fill-rule:nonzero;fill:rgb(100%,100%,100%);fill-opacity:1;" d="M 127.160156 258.945312 L 112.5625 258.945312 C 112.128906 258.945312 111.710938 259.136719 111.425781 259.46875 C 111.140625 259.800781 111.015625 260.242188 111.082031 260.675781 L 113.289062 275.03125 L 125.953125 275.03125 L 128.632812 260.722656 C 128.714844 260.285156 128.597656 259.832031 128.3125 259.488281 C 128.027344 259.144531 127.605469 258.945312 127.160156 258.945312 Z M 127.160156 258.945312 "/>
<path style=" stroke:none;fill-rule:nonzero;fill:rgb(90.196078%,90.196078%,90.196078%);fill-opacity:1;" d="M 126.617188 130.40625 L 84.773438 130.40625 C 87.699219 114.570312 87.023438 95.445312 84.773438 74.875 L 126.617188 74.875 C 124.421875 95.445312 123.769531 114.570312 126.617188 130.40625 Z M 126.617188 130.40625 "/>
<path style=" stroke:none;fill-rule:nonzero;fill:rgb(100%,100%,100%);fill-opacity:1;" d="M 116.027344 101.128906 C 116.027344 106.703125 111.515625 111.222656 105.945312 111.222656 C 100.378906 111.222656 95.863281 106.703125 95.863281 101.128906 C 95.863281 95.550781 100.378906 91.03125 105.945312 91.03125 C 111.515625 91.03125 116.027344 95.550781 116.027344 101.128906 Z M 116.027344 101.128906 "/>
<path style=" stroke:none;fill-rule:nonzero;fill:rgb(90.196078%,90.196078%,90.196078%);fill-opacity:1;" d="M 88.300781 204.109375 L 46.457031 204.109375 C 49.382812 188.273438 48.710938 169.148438 46.457031 148.582031 L 88.300781 148.582031 C 86.109375 169.148438 85.453125 188.273438 88.300781 204.109375 Z M 88.300781 204.109375 "/>
<path style=" stroke:none;fill-rule:nonzero;fill:rgb(100%,100%,100%);fill-opacity:1;" d="M 77.714844 174.832031 C 77.714844 180.40625 73.199219 184.929688 67.632812 184.929688 C 62.0625 184.929688 57.546875 180.40625 57.546875 174.832031 C 57.546875 169.253906 62.0625 164.734375 67.632812 164.734375 C 73.199219 164.734375 77.714844 169.253906 77.714844 174.832031 Z M 77.714844 174.832031 "/>
<path style=" stroke:none;fill-rule:nonzero;fill:rgb(90.196078%,90.196078%,90.196078%);fill-opacity:1;" d="M 150.3125 133.941406 L 108.464844 133.941406 C 111.390625 118.101562 110.71875 98.976562 108.464844 78.410156 L 150.3125 78.410156 C 148.117188 98.976562 147.460938 118.101562 150.3125 133.941406 Z M 150.3125 133.941406 "/>
<path style=" stroke:none;fill-rule:nonzero;fill:rgb(100%,100%,100%);fill-opacity:1;" d="M 139.722656 104.660156 C 139.722656 110.238281 135.210938 114.757812 129.640625 114.757812 C 124.070312 114.757812 119.558594 110.238281 119.558594 104.660156 C 119.558594 99.085938 124.070312 94.566406 129.640625 94.566406 C 135.210938 94.566406 139.722656 99.085938 139.722656 104.660156 Z M 139.722656 104.660156 "/>
<path style=" stroke:none;fill-rule:nonzero;fill:rgb(90.196078%,90.196078%,90.196078%);fill-opacity:1;" d="M 150.3125 131.417969 L 108.464844 131.417969 C 111.390625 115.578125 110.71875 96.453125 108.464844 75.886719 L 150.3125 75.886719 C 148.117188 96.453125 147.460938 115.578125 150.3125 131.417969 Z M 150.3125 131.417969 "/>
<path style=" stroke:none;fill-rule:nonzero;fill:rgb(100%,100%,100%);fill-opacity:1;" d="M 139.722656 102.136719 C 139.722656 107.714844 135.210938 112.234375 129.640625 112.234375 C 124.070312 112.234375 119.558594 107.714844 119.558594 102.136719 C 119.558594 96.5625 124.070312 92.039062 129.640625 92.039062 C 135.210938 92.039062 139.722656 96.5625 139.722656 102.136719 Z M 139.722656 102.136719 "/>
<path style=" stroke:none;fill-rule:nonzero;fill:rgb(90.196078%,90.196078%,90.196078%);fill-opacity:1;" d="M 150.3125 133.941406 L 108.464844 133.941406 C 111.390625 118.101562 110.71875 98.976562 108.464844 78.410156 L 150.3125 78.410156 C 148.117188 98.976562 147.460938 118.101562 150.3125 133.941406 Z M 150.3125 133.941406 "/>
<path style=" stroke:none;fill-rule:nonzero;fill:rgb(100%,100%,100%);fill-opacity:1;" d="M 139.722656 104.660156 C 139.722656 110.238281 135.210938 114.757812 129.640625 114.757812 C 124.070312 114.757812 119.558594 110.238281 119.558594 104.660156 C 119.558594 99.085938 124.070312 94.566406 129.640625 94.566406 C 135.210938 94.566406 139.722656 99.085938 139.722656 104.660156 Z M 139.722656 104.660156 "/>
<path style=" stroke:none;fill-rule:nonzero;fill:rgb(90.196078%,90.196078%,90.196078%);fill-opacity:1;" d="M 22.761719 127.378906 L 159.890625 127.378906 L 159.890625 142.523438 L 22.761719 142.523438 Z M 22.761719 127.378906 "/>
<path style=" stroke:none;fill-rule:nonzero;fill:rgb(90.196078%,90.196078%,90.196078%);fill-opacity:1;" d="M 22.761719 202.597656 L 159.890625 202.597656 L 159.890625 217.742188 L 22.761719 217.742188 Z M 22.761719 202.597656 "/>
<path style=" stroke:none;fill-rule:nonzero;fill:rgb(90.196078%,90.196078%,90.196078%);fill-opacity:1;" d="M 22.761719 277.816406 L 159.890625 277.816406 L 159.890625 292.960938 L 22.761719 292.960938 Z M 22.761719 277.816406 "/>
<path style=" stroke:none;fill-rule:nonzero;fill:rgb(38.823529%,59.607843%,100%);fill-opacity:1;" d="M 398.425781 339.257812 L 364.265625 315.0625 C 375.785156 303.824219 386.265625 287.820312 396.289062 269.726562 L 430.449219 293.921875 C 416.800781 309.445312 405.234375 324.679688 398.425781 339.257812 Z M 398.425781 339.257812 "/>
<path style=" stroke:none;fill-rule:nonzero;fill:rgb(100%,100%,100%);fill-opacity:1;" d="M 408.519531 303.398438 C 408.519531 308.976562 404.003906 313.496094 398.4375 313.496094 C 392.867188 313.496094 388.355469 308.976562 388.355469 303.398438 C 388.355469 297.824219 392.867188 293.304688 398.4375 293.304688 C 404.003906 293.304688 408.519531 297.824219 408.519531 303.398438 Z M 408.519531 303.398438 "/>
<path style=" stroke:none;fill-rule:nonzero;fill:rgb(90.196078%,90.196078%,90.196078%);fill-opacity:1;" d="M 233.632812 228.847656 L 229.882812 228.847656 C 229.605469 228.847656 229.382812 229.070312 229.382812 229.34375 L 229.382812 230.992188 C 229.382812 231.269531 229.605469 231.492188 229.882812 231.492188 L 230.503906 231.492188 L 230.503906 233.960938 L 233.007812 233.960938 L 233.007812 231.492188 L 233.632812 231.492188 C 233.90625 231.492188 234.128906 231.269531 234.128906 230.992188 L 234.128906 229.34375 C 234.128906 229.070312 233.90625 228.847656 233.632812 228.847656 Z M 233.632812 228.847656 "/>
<path style=" stroke:none;fill-rule:nonzero;fill:rgb(38.823529%,59.607843%,100%);fill-opacity:1;" d="M 237.386719 243.933594 C 235.089844 240.566406 233.917969 236.558594 234.035156 232.484375 C 234.039062 232.292969 233.90625 232.121094 233.714844 232.078125 L 233.714844 231.367188 L 229.753906 231.367188 L 229.753906 232.070312 L 229.699219 232.070312 C 229.476562 232.070312 229.292969 232.253906 229.292969 232.476562 C 229.292969 232.488281 229.296875 232.496094 229.296875 232.507812 C 229.660156 236.664062 228.542969 240.816406 226.136719 244.222656 C 225.996094 244.421875 225.925781 244.660156 225.933594 244.902344 L 226.367188 258.316406 C 226.386719 258.9375 226.894531 259.433594 227.515625 259.4375 L 236.472656 259.4375 C 237.101562 259.433594 237.613281 258.925781 237.625 258.296875 L 237.789062 245.273438 C 237.796875 244.796875 237.65625 244.328125 237.386719 243.933594 Z M 237.386719 243.933594 "/>
<use xlink:href="#surface6" mask="url(#mask0)"/>
<path style=" stroke:none;fill-rule:nonzero;fill:rgb(100%,100%,100%);fill-opacity:1;" d="M 228.082031 246.515625 L 235.640625 246.515625 L 235.640625 251.566406 L 228.082031 251.566406 Z M 228.082031 246.515625 "/>
<path style=" stroke:none;fill-rule:nonzero;fill:rgb(90.196078%,90.196078%,90.196078%);fill-opacity:1;" d="M 352.300781 281.25 L 345.28125 281.25 C 344.765625 281.25 344.351562 281.667969 344.351562 282.183594 L 344.351562 285.265625 C 344.351562 285.78125 344.765625 286.199219 345.28125 286.199219 L 346.445312 286.199219 L 346.445312 290.820312 L 351.136719 290.820312 L 351.136719 286.199219 L 352.300781 286.199219 C 352.816406 286.199219 353.230469 285.78125 353.230469 285.265625 L 353.230469 282.183594 C 353.230469 281.667969 352.816406 281.25 352.300781 281.25 Z M 352.300781 281.25 "/>
<path style=" stroke:none;fill-rule:nonzero;fill:rgb(38.823529%,59.607843%,100%);fill-opacity:1;" d="M 359.332031 309.488281 C 355.03125 303.1875 352.835938 295.6875 353.054688 288.0625 C 353.0625 287.699219 352.8125 287.378906 352.460938 287.300781 L 352.460938 285.96875 L 345.046875 285.96875 L 345.046875 287.28125 L 344.945312 287.28125 C 344.523438 287.28125 344.183594 287.625 344.183594 288.042969 C 344.183594 288.0625 344.183594 288.082031 344.1875 288.101562 C 344.769531 296.253906 342.796875 303.5625 338.269531 310.035156 C 338.007812 310.40625 337.875 310.851562 337.890625 311.304688 L 338.699219 336.414062 C 338.742188 337.578125 339.691406 338.503906 340.851562 338.511719 L 357.621094 338.511719 C 358.796875 338.503906 359.753906 337.554688 359.773438 336.378906 L 360.085938 312 C 360.097656 311.105469 359.832031 310.226562 359.332031 309.488281 Z M 359.332031 309.488281 "/>
<use xlink:href="#surface9" mask="url(#mask1)"/>
<path style=" stroke:none;fill-rule:nonzero;fill:rgb(100%,100%,100%);fill-opacity:1;" d="M 356.675781 317.828125 L 342.082031 317.828125 C 341.644531 317.828125 341.230469 318.019531 340.945312 318.351562 C 340.660156 318.683594 340.535156 319.125 340.601562 319.554688 L 342.804688 333.910156 L 355.472656 333.910156 L 358.152344 319.605469 C 358.234375 319.164062 358.117188 318.710938 357.832031 318.371094 C 357.546875 318.027344 357.125 317.828125 356.675781 317.828125 Z M 356.675781 317.828125 "/>
<path style=" stroke:none;fill-rule:nonzero;fill:rgb(38.823529%,59.607843%,100%);fill-opacity:1;" d="M 332.273438 339.21875 L 290.429688 339.21875 C 293.355469 323.378906 292.679688 304.253906 290.429688 283.6875 L 332.273438 283.6875 C 330.082031 304.253906 329.425781 323.378906 332.273438 339.21875 Z M 332.273438 339.21875 "/>
<path style=" stroke:none;fill-rule:nonzero;fill:rgb(100%,100%,100%);fill-opacity:1;" d="M 321.6875 309.9375 C 321.6875 315.511719 317.171875 320.035156 311.601562 320.035156 C 306.035156 320.035156 301.519531 315.511719 301.519531 309.9375 C 301.519531 304.359375 306.035156 299.839844 311.601562 299.839844 C 317.171875 299.839844 321.6875 304.359375 321.6875 309.9375 Z M 321.6875 309.9375 "/>
<path style=" stroke:none;fill-rule:nonzero;fill:rgb(100%,72.156863%,72.156863%);fill-opacity:1;" d="M 161.121094 164.453125 L 170.515625 163.597656 L 176.492188 149.0625 L 165.820312 143.078125 Z M 161.121094 164.453125 "/>
<path style=" stroke:none;fill-rule:nonzero;fill:rgb(100%,72.156863%,72.156863%);fill-opacity:1;" d="M 247.332031 204.363281 C 247.964844 202.78125 247.800781 200.988281 246.886719 199.550781 C 245.976562 198.109375 244.429688 197.195312 242.730469 197.09375 L 228.144531 196.222656 L 225.996094 203.375 L 241.011719 207.503906 C 243.609375 208.21875 246.328125 206.867188 247.332031 204.363281 Z M 247.332031 204.363281 "/>
<path style=" stroke:none;fill-rule:nonzero;fill:rgb(34.117647%,35.294118%,53.72549%);fill-opacity:1;" d="M 231.667969 207.625 L 231.507812 194.207031 L 199.113281 189.027344 L 174.15625 160.367188 C 171.46875 157.28125 166.921875 156.660156 163.507812 158.910156 C 161.484375 160.242188 160.15625 162.40625 159.882812 164.8125 C 159.605469 167.222656 160.414062 169.632812 162.085938 171.386719 L 182.675781 196.757812 Z M 231.667969 207.625 "/>
<path style=" stroke:none;fill-rule:nonzero;fill:rgb(18.431373%,18.039216%,25.490196%);fill-opacity:1;" d="M 153.863281 358.566406 L 162.402344 358.566406 L 183.585938 262.671875 L 205.527344 292.296875 L 218.335938 356.429688 L 226.449219 356.429688 L 224.742188 287.589844 L 196.132812 214.050781 L 167.953125 214.050781 C 160.253906 228.007812 154.210938 242.394531 161.121094 257.234375 Z M 153.863281 358.566406 "/>
<path style=" stroke:none;fill-rule:nonzero;fill:rgb(18.431373%,18.039216%,25.490196%);fill-opacity:1;" d="M 213.101562 364.390625 C 212.910156 365.003906 212.992188 365.667969 213.324219 366.214844 C 213.65625 366.765625 214.210938 367.140625 214.839844 367.253906 L 235.738281 370.96875 C 237.445312 371.28125 239.117188 370.269531 239.636719 368.609375 C 240.140625 367.023438 239.433594 365.308594 237.964844 364.539062 C 233.371094 362.175781 229.417969 358.734375 226.441406 354.507812 C 224.144531 356.648438 221.578125 356.445312 218.851562 354.867188 L 215.960938 355.230469 Z M 213.101562 364.390625 "/>
<path style=" stroke:none;fill-rule:nonzero;fill:rgb(18.431373%,18.039216%,25.490196%);fill-opacity:1;" d="M 149.910156 364.390625 C 149.71875 365.003906 149.800781 365.667969 150.132812 366.214844 C 150.464844 366.765625 151.015625 367.140625 151.648438 367.253906 L 172.542969 370.96875 C 174.253906 371.28125 175.925781 370.269531 176.445312 368.609375 C 176.945312 367.023438 176.242188 365.308594 174.773438 364.539062 C 170.179688 362.175781 166.222656 358.734375 163.25 354.507812 C 160.953125 356.648438 158.382812 356.445312 155.660156 354.867188 L 152.769531 355.230469 Z M 149.910156 364.390625 "/>
<path style=" stroke:none;fill-rule:nonzero;fill:rgb(100%,72.156863%,72.156863%);fill-opacity:1;" d="M 188.660156 142.433594 C 188.660156 149.046875 183.308594 154.40625 176.707031 154.40625 C 170.101562 154.40625 164.75 149.046875 164.75 142.433594 C 164.75 135.824219 170.101562 130.464844 176.707031 130.464844 C 183.308594 130.464844 188.660156 135.824219 188.660156 142.433594 Z M 188.660156 142.433594 "/>
<path style=" stroke:none;fill-rule:nonzero;fill:rgb(34.117647%,35.294118%,53.72549%);fill-opacity:1;" d="M 166.03125 217.257812 L 197.203125 216.402344 L 188.046875 187.554688 C 193.738281 178.421875 188.011719 169.300781 179.910156 160.179688 L 173.503906 155.902344 L 163.257812 155.046875 C 158.820312 159.800781 156.390625 166.089844 156.480469 172.597656 C 156.683594 186.53125 159.148438 201.695312 166.03125 217.257812 Z M 166.03125 217.257812 "/>
<path style=" stroke:none;fill-rule:nonzero;fill:rgb(100%,72.156863%,72.156863%);fill-opacity:1;" d="M 237.644531 236.675781 C 238.851562 235.472656 239.402344 233.761719 239.128906 232.078125 C 238.855469 230.394531 237.792969 228.945312 236.269531 228.183594 L 223.203125 221.636719 L 218.421875 227.363281 L 230.601562 237.074219 C 232.710938 238.753906 235.742188 238.582031 237.644531 236.675781 Z M 237.644531 236.675781 "/>
<path style=" stroke:none;fill-rule:nonzero;fill:rgb(34.117647%,35.294118%,53.72549%);fill-opacity:1;" d="M 221.964844 233.503906 L 227.089844 221.105469 L 199.339844 203.585938 L 187.65625 167.402344 C 186.398438 163.511719 182.460938 161.144531 178.4375 161.867188 C 176.054688 162.296875 173.984375 163.761719 172.785156 165.871094 C 171.585938 167.976562 171.382812 170.507812 172.226562 172.78125 L 181.191406 204.21875 Z M 221.964844 233.503906 "/>
<path style=" stroke:none;fill-rule:nonzero;fill:rgb(18.431373%,18.039216%,25.490196%);fill-opacity:1;" d="M 157.066406 137.730469 C 157.066406 142.390625 160.085938 149.605469 163.898438 152.695312 C 166.460938 154.777344 169.847656 154.691406 171.15625 151.84375 C 172.496094 148.921875 177.117188 142.050781 185.246094 137.730469 C 196.085938 131.972656 181.402344 122.121094 171.15625 123.621094 C 163.457031 124.75 157.066406 129.941406 157.066406 137.730469 Z M 157.066406 137.730469 "/>
<path style=" stroke:none;fill-rule:nonzero;fill:rgb(18.431373%,18.039216%,25.490196%);fill-opacity:1;" d="M 172.863281 122.769531 C 172.863281 127.492188 169.039062 131.320312 164.324219 131.320312 C 159.609375 131.320312 155.785156 127.492188 155.785156 122.769531 C 155.785156 118.046875 159.609375 114.214844 164.324219 114.214844 C 169.039062 114.214844 172.863281 118.046875 172.863281 122.769531 Z M 172.863281 122.769531 "/>
<path style=" stroke:none;fill-rule:nonzero;fill:rgb(18.431373%,18.039216%,25.490196%);fill-opacity:1;" d="M 174.144531 119.773438 C 174.144531 115.304688 170.699219 111.589844 166.246094 111.257812 C 166.457031 111.242188 166.667969 111.222656 166.886719 111.222656 C 171.601562 111.222656 175.425781 115.050781 175.425781 119.773438 C 175.425781 124.496094 171.601562 128.324219 166.886719 128.324219 C 166.667969 128.324219 166.457031 128.308594 166.246094 128.292969 C 170.699219 127.960938 174.144531 124.246094 174.144531 119.773438 Z M 174.144531 119.773438 "/>
<path style=" stroke:none;fill-rule:nonzero;fill:rgb(100%,72.156863%,72.156863%);fill-opacity:1;" d="M 178.839844 144.144531 C 178.839844 142.730469 177.980469 141.582031 176.917969 141.582031 C 175.859375 141.582031 175 142.730469 175 144.144531 C 175 145.5625 175.859375 146.710938 176.917969 146.710938 C 177.980469 146.710938 178.839844 145.5625 178.839844 144.144531 Z M 178.839844 144.144531 "/>
<path style=" stroke:none;fill-rule:nonzero;fill:rgb(24.705882%,23.921569%,33.72549%);fill-opacity:1;" d="M 418.875 342.882812 L 285.941406 342.882812 L 257.789062 209.628906 L 233.765625 209.628906 L 233.765625 203.652344 L 262.628906 203.652344 L 290.78125 336.90625 L 418.875 336.90625 Z M 418.875 342.882812 "/>
<path style=" stroke:none;fill-rule:nonzero;fill:rgb(24.705882%,23.921569%,33.72549%);fill-opacity:1;" d="M 318.214844 354.417969 C 318.214844 361.492188 312.488281 367.230469 305.421875 367.230469 C 298.355469 367.230469 292.625 361.492188 292.625 354.417969 C 292.625 347.339844 298.355469 341.601562 305.421875 341.601562 C 312.488281 341.601562 318.214844 347.339844 318.214844 354.417969 Z M 318.214844 354.417969 "/>
<path style=" stroke:none;fill-rule:nonzero;fill:rgb(24.705882%,23.921569%,33.72549%);fill-opacity:1;" d="M 413.757812 354.417969 C 413.757812 361.492188 408.027344 367.230469 400.960938 367.230469 C 393.894531 367.230469 388.164062 361.492188 388.164062 354.417969 C 388.164062 347.339844 393.894531 341.601562 400.960938 341.601562 C 408.027344 341.601562 413.757812 347.339844 413.757812 354.417969 Z M 413.757812 354.417969 "/>
<path style=" stroke:none;fill-rule:nonzero;fill:rgb(24.705882%,23.921569%,33.72549%);fill-opacity:1;" d="M 416.453125 340.070312 L 287.113281 340.070312 L 264.292969 227.140625 L 437.867188 227.140625 C 439.660156 227.140625 441.363281 227.925781 442.527344 229.289062 C 443.691406 230.65625 444.203125 232.460938 443.925781 234.234375 L 422.507812 334.882812 C 422.050781 337.875 419.476562 340.082031 416.453125 340.070312 Z M 288.515625 338.359375 L 416.453125 338.359375 C 418.632812 338.371094 420.492188 336.777344 420.824219 334.617188 L 442.238281 233.96875 C 442.441406 232.6875 442.070312 231.386719 441.230469 230.398438 C 440.390625 229.414062 439.160156 228.847656 437.867188 228.847656 L 266.363281 228.847656 Z M 288.515625 338.359375 "/>
<path style=" stroke:none;fill-rule:nonzero;fill:rgb(24.705882%,23.921569%,33.72549%);fill-opacity:1;" d="M 312.257812 339.707031 L 297.3125 228.132812 L 298.996094 227.855469 L 313.941406 339.429688 Z M 312.257812 339.707031 "/>
<path style=" stroke:none;fill-rule:nonzero;fill:rgb(24.705882%,23.921569%,33.72549%);fill-opacity:1;" d="M 395.355469 338.851562 L 393.671875 338.578125 L 408.179688 227.859375 L 409.863281 228.132812 Z M 395.355469 338.851562 "/>
<path style=" stroke:none;fill-rule:nonzero;fill:rgb(24.705882%,23.921569%,33.72549%);fill-opacity:1;" d="M 354.058594 227.996094 L 355.761719 227.996094 L 355.761719 339.566406 L 354.058594 339.566406 Z M 354.058594 227.996094 "/>
<path style=" stroke:none;fill-rule:nonzero;fill:rgb(24.705882%,23.921569%,33.72549%);fill-opacity:1;" d="M 273.003906 259.601562 L 273.007812 257.890625 L 438.152344 258.292969 L 438.148438 260 Z M 273.003906 259.601562 "/>
<path style=" stroke:none;fill-rule:nonzero;fill:rgb(24.705882%,23.921569%,33.72549%);fill-opacity:1;" d="M 281.414062 311.660156 L 426.5 310.664062 L 426.511719 312.375 L 281.425781 313.367188 Z M 281.414062 311.660156 "/>
<path style=" stroke:none;fill-rule:nonzero;fill:rgb(24.705882%,23.921569%,33.72549%);fill-opacity:1;" d="M 245.707031 205.785156 C 245.707031 202.957031 241.507812 200.660156 236.324219 200.660156 C 231.140625 200.660156 226.941406 202.957031 226.941406 205.785156 C 226.941406 208.617188 231.140625 210.910156 236.324219 210.910156 C 241.507812 210.910156 245.707031 208.617188 245.707031 205.785156 Z M 245.707031 205.785156 "/>
</g>
</svg>
