<?xml version="1.0" encoding="UTF-8"?>
<svg xmlns="http://www.w3.org/2000/svg" xmlns:xlink="http://www.w3.org/1999/xlink" width="473pt" height="431pt" viewBox="0 0 473 431" version="1.1">
<g id="surface1">
<path style=" stroke:none;fill-rule:nonzero;fill:rgb(24.705882%,23.921569%,33.72549%);fill-opacity:1;" d="M 63.746094 50.121094 L 415.535156 50.121094 L 415.535156 412.492188 L 63.746094 412.492188 Z M 63.746094 50.121094 "/>
<path style=" stroke:none;fill-rule:nonzero;fill:rgb(81.176471%,80%,87.843137%);fill-opacity:1;" d="M 217.351562 112.714844 C 217.351562 163.425781 176.25 204.53125 125.546875 204.53125 C 74.84375 204.53125 33.742188 163.425781 33.742188 112.714844 C 33.742188 62.007812 74.84375 20.902344 125.546875 20.902344 C 176.25 20.902344 217.351562 62.007812 217.351562 112.714844 Z M 217.351562 112.714844 "/>
<path style=" stroke:none;fill-rule:nonzero;fill:rgb(38.823529%,59.607843%,100%);fill-opacity:1;" d="M 363.347656 65.242188 C 350.691406 67.457031 339.152344 61.960938 339.152344 61.960938 C 339.152344 61.960938 348.136719 52.871094 360.796875 50.652344 C 373.453125 48.4375 384.992188 53.9375 384.992188 53.9375 C 384.992188 53.9375 376.007812 63.027344 363.347656 65.242188 Z M 363.347656 65.242188 "/>
<path style=" stroke:none;fill-rule:nonzero;fill:rgb(38.823529%,59.607843%,100%);fill-opacity:1;" d="M 355.152344 316 C 342.796875 312.46875 334.816406 302.484375 334.816406 302.484375 C 334.816406 302.484375 346.867188 298.230469 359.222656 301.761719 C 371.578125 305.292969 379.5625 315.277344 379.5625 315.277344 C 379.5625 315.277344 367.511719 319.53125 355.152344 316 Z M 355.152344 316 "/>
<path style=" stroke:none;fill-rule:nonzero;fill:rgb(38.823529%,59.607843%,100%);fill-opacity:1;" d="M 452.796875 201.632812 C 440.414062 205.066406 428.398438 200.714844 428.398438 200.714844 C 428.398438 200.714844 436.457031 190.796875 448.84375 187.359375 C 461.226562 183.925781 473.242188 188.277344 473.242188 188.277344 C 473.242188 188.277344 465.183594 198.195312 452.796875 201.632812 Z M 452.796875 201.632812 "/>
<path style=" stroke:none;fill-rule:nonzero;fill:rgb(38.823529%,59.607843%,100%);fill-opacity:1;" d="M 445.640625 160.226562 C 433.257812 163.660156 421.242188 159.308594 421.242188 159.308594 C 421.242188 159.308594 429.300781 149.390625 441.683594 145.957031 C 454.070312 142.523438 466.085938 146.875 466.085938 146.875 C 466.085938 146.875 458.027344 156.792969 445.640625 160.226562 Z M 445.640625 160.226562 "/>
<path style=" stroke:none;fill-rule:nonzero;fill:rgb(38.823529%,59.607843%,100%);fill-opacity:1;" d="M 284.453125 24.097656 C 277.015625 34.578125 264.949219 38.789062 264.949219 38.789062 C 264.949219 38.789062 264.9375 26.007812 272.375 15.527344 C 279.8125 5.046875 291.878906 0.832031 291.878906 0.832031 C 291.878906 0.832031 291.890625 13.617188 284.453125 24.097656 Z M 284.453125 24.097656 "/>
<path style=" stroke:none;fill-rule:nonzero;fill:rgb(38.823529%,59.607843%,100%);fill-opacity:1;" d="M 263.808594 119.945312 C 251.425781 123.382812 239.40625 119.03125 239.40625 119.03125 C 239.40625 119.03125 247.46875 109.109375 259.851562 105.675781 C 272.234375 102.242188 284.253906 106.59375 284.253906 106.59375 C 284.253906 106.59375 276.191406 116.511719 263.808594 119.945312 Z M 263.808594 119.945312 "/>
<path style=" stroke:none;fill-rule:nonzero;fill:rgb(38.823529%,59.607843%,100%);fill-opacity:1;" d="M 73.777344 134.007812 C 66.804688 123.214844 67.367188 110.445312 67.367188 110.445312 C 67.367188 110.445312 79.242188 115.175781 86.214844 125.972656 C 93.1875 136.765625 92.625 149.535156 92.625 149.535156 C 92.625 149.535156 80.75 144.804688 73.777344 134.007812 Z M 73.777344 134.007812 "/>
<path style=" stroke:none;fill-rule:nonzero;fill:rgb(100%,39.607843%,51.764706%);fill-opacity:1;" d="M 173.78125 160.226562 C 161.394531 163.660156 149.378906 159.308594 149.378906 159.308594 C 149.378906 159.308594 157.441406 149.390625 169.824219 145.957031 C 182.207031 142.523438 194.222656 146.875 194.222656 146.875 C 194.222656 146.875 186.164062 156.792969 173.78125 160.226562 Z M 173.78125 160.226562 "/>
<path style=" stroke:none;fill-rule:nonzero;fill:rgb(38.823529%,59.607843%,100%);fill-opacity:1;" d="M 83.292969 315.40625 C 70.9375 311.875 62.953125 301.890625 62.953125 301.890625 C 62.953125 301.890625 75.007812 297.636719 87.363281 301.167969 C 99.71875 304.703125 107.699219 314.683594 107.699219 314.683594 C 107.699219 314.683594 95.648438 318.941406 83.292969 315.40625 Z M 83.292969 315.40625 "/>
<path style=" stroke:none;fill-rule:nonzero;fill:rgb(100%,39.607843%,51.764706%);fill-opacity:1;" d="M 172.507812 245.046875 C 165.070312 255.527344 153.003906 259.738281 153.003906 259.738281 C 153.003906 259.738281 152.996094 246.957031 160.433594 236.476562 C 167.871094 225.992188 179.9375 221.78125 179.9375 221.78125 C 179.9375 221.78125 179.945312 234.5625 172.507812 245.046875 Z M 172.507812 245.046875 "/>
<path style=" stroke:none;fill-rule:nonzero;fill:rgb(38.823529%,59.607843%,100%);fill-opacity:1;" d="M 443.753906 244.925781 C 436.316406 255.40625 424.25 259.617188 424.25 259.617188 C 424.25 259.617188 424.242188 246.835938 431.675781 236.355469 C 439.113281 225.871094 451.179688 221.660156 451.179688 221.660156 C 451.179688 221.660156 451.191406 234.441406 443.753906 244.925781 Z M 443.753906 244.925781 "/>
<path style=" stroke:none;fill-rule:nonzero;fill:rgb(38.823529%,59.607843%,100%);fill-opacity:1;" d="M 180.9375 201.632812 C 168.554688 205.066406 156.535156 200.714844 156.535156 200.714844 C 156.535156 200.714844 164.597656 190.796875 176.980469 187.359375 C 189.363281 183.925781 201.378906 188.277344 201.378906 188.277344 C 201.378906 188.277344 193.320312 198.195312 180.9375 201.632812 Z M 180.9375 201.632812 "/>
<path style=" stroke:none;fill-rule:nonzero;fill:rgb(24.705882%,23.921569%,33.72549%);fill-opacity:1;" d="M 138.914062 401.429688 L 137.761719 401.148438 C 137.816406 400.914062 143.40625 377.554688 142.695312 348.324219 C 142.035156 321.394531 135.742188 283.824219 109.488281 257.765625 C 89.183594 237.609375 81.386719 218.902344 86.320312 202.164062 C 91.945312 183.078125 113.355469 170.105469 130.328125 162.585938 C 141.847656 157.542969 153.804688 153.578125 166.050781 150.734375 L 166.296875 151.894531 C 154.125 154.71875 142.238281 158.664062 130.789062 163.675781 C 114.054688 171.09375 92.949219 183.855469 87.457031 202.5 C 82.65625 218.789062 90.351562 237.101562 110.324219 256.925781 C 122.050781 268.5625 130.847656 283.410156 136.472656 301.054688 C 140.96875 315.152344 143.460938 331.054688 143.878906 348.324219 C 144.59375 377.707031 138.96875 401.195312 138.914062 401.429688 Z M 138.914062 401.429688 "/>
<path style=" stroke:none;fill-rule:nonzero;fill:rgb(24.705882%,23.921569%,33.72549%);fill-opacity:1;" d="M 135.578125 302.09375 C 135.5625 301.757812 134.488281 268.078125 161.058594 246.226562 L 161.8125 247.140625 C 135.6875 268.621094 136.75 301.714844 136.761719 302.046875 Z M 135.578125 302.09375 "/>
<path style=" stroke:none;fill-rule:nonzero;fill:rgb(24.705882%,23.921569%,33.72549%);fill-opacity:1;" d="M 139.308594 352.421875 C 139.101562 352.082031 118.164062 318.375 94.355469 309.664062 L 94.761719 308.550781 C 118.957031 317.402344 140.109375 351.457031 140.320312 351.800781 Z M 139.308594 352.421875 "/>
<path style=" stroke:none;fill-rule:nonzero;fill:rgb(24.705882%,23.921569%,33.72549%);fill-opacity:1;" d="M 151.367188 199.597656 C 123.171875 199.597656 98.050781 184.894531 97.757812 184.71875 L 98.363281 183.699219 C 98.707031 183.902344 132.914062 203.917969 166.050781 196.9375 L 166.296875 198.097656 C 161.386719 199.113281 156.382812 199.617188 151.367188 199.597656 Z M 151.367188 199.597656 "/>
<path style=" stroke:none;fill-rule:nonzero;fill:rgb(24.705882%,23.921569%,33.72549%);fill-opacity:1;" d="M 130.457031 162.996094 C 124.613281 162.996094 118.789062 162.320312 113.101562 160.988281 C 100.410156 157.847656 93.128906 151.3125 92.042969 142.09375 L 93.21875 141.957031 C 95.707031 163.058594 131.535156 161.804688 131.894531 161.789062 L 131.945312 162.972656 C 131.921875 162.972656 131.386719 162.996094 130.457031 162.996094 Z M 130.457031 162.996094 "/>
<path style=" stroke:none;fill-rule:nonzero;fill:rgb(24.705882%,23.921569%,33.72549%);fill-opacity:1;" d="M 148.859375 259.980469 L 148.859375 259.148438 C 148.859375 259.015625 148.9375 246.054688 156.394531 235.539062 C 163.855469 225.027344 176.066406 220.671875 176.1875 220.628906 L 176.972656 220.355469 L 176.976562 221.1875 C 176.976562 221.320312 176.898438 234.28125 169.4375 244.796875 C 161.976562 255.308594 149.769531 259.664062 149.648438 259.707031 Z M 175.761719 222.066406 C 172.941406 223.222656 163.492188 227.585938 157.363281 236.226562 C 151.226562 244.875 150.234375 255.230469 150.074219 258.269531 C 152.890625 257.113281 162.34375 252.75 168.472656 244.109375 C 174.609375 235.460938 175.601562 225.105469 175.761719 222.066406 Z M 175.761719 222.066406 "/>
<path style=" stroke:none;fill-rule:nonzero;fill:rgb(24.705882%,23.921569%,33.72549%);fill-opacity:1;" d="M 247.523438 81.738281 C 247.507812 81.402344 246.429688 47.722656 273.003906 25.871094 L 273.757812 26.785156 C 247.632812 48.265625 248.691406 81.359375 248.707031 81.691406 Z M 247.523438 81.738281 "/>
<path style=" stroke:none;fill-rule:nonzero;fill:rgb(24.705882%,23.921569%,33.72549%);fill-opacity:1;" d="M 260.804688 39.625 L 260.800781 38.792969 C 260.800781 38.660156 260.878906 25.699219 268.339844 15.183594 C 275.800781 4.671875 288.007812 0.316406 288.132812 0.273438 L 288.917969 0 L 288.917969 0.832031 C 288.917969 0.964844 288.839844 13.925781 281.382812 24.441406 C 273.921875 34.953125 261.710938 39.308594 261.589844 39.351562 Z M 287.703125 1.710938 C 284.886719 2.867188 275.4375 7.230469 269.304688 15.871094 C 263.167969 24.519531 262.175781 34.875 262.019531 37.914062 C 264.835938 36.757812 274.285156 32.394531 280.414062 23.753906 C 286.550781 15.105469 287.542969 4.75 287.703125 1.710938 Z M 287.703125 1.710938 "/>
<path style=" stroke:none;fill-rule:nonzero;fill:rgb(24.705882%,23.921569%,33.72549%);fill-opacity:1;" d="M 299.953125 80.554688 L 299.078125 79.757812 C 299.308594 79.507812 322.242188 54.8125 356.492188 57.984375 L 356.382812 59.164062 C 322.722656 56.054688 300.179688 80.308594 299.953125 80.554688 Z M 299.953125 80.554688 "/>
<path style=" stroke:none;fill-rule:nonzero;fill:rgb(24.705882%,23.921569%,33.72549%);fill-opacity:1;" d="M 357.183594 63.390625 C 350.890625 63.328125 344.675781 62.015625 338.898438 59.53125 L 338.144531 59.175781 L 338.730469 58.582031 C 338.820312 58.488281 347.996094 49.332031 360.691406 47.109375 C 373.390625 44.886719 385.128906 50.382812 385.246094 50.4375 L 386 50.796875 L 385.414062 51.390625 C 385.324219 51.484375 376.148438 60.640625 363.449219 62.863281 C 361.378906 63.21875 359.28125 63.398438 357.183594 63.390625 Z M 340.210938 58.8125 C 343.027344 59.972656 352.8125 63.523438 363.246094 61.695312 C 373.679688 59.871094 381.675781 53.207031 383.929688 51.160156 C 381.117188 50 371.332031 46.449219 360.898438 48.277344 C 350.453125 50.105469 342.464844 56.765625 340.210938 58.8125 Z M 340.210938 58.8125 "/>
<path style=" stroke:none;fill-rule:nonzero;fill:rgb(38.823529%,59.607843%,100%);fill-opacity:1;" d="M 403.671875 129.359375 C 391.792969 124.460938 384.980469 113.644531 384.980469 113.644531 C 384.980469 113.644531 397.433594 110.769531 409.316406 115.667969 C 421.195312 120.566406 428.007812 131.382812 428.007812 131.382812 C 428.007812 131.382812 415.554688 134.257812 403.671875 129.359375 Z M 403.671875 129.359375 "/>
<path style=" stroke:none;fill-rule:nonzero;fill:rgb(24.705882%,23.921569%,33.72549%);fill-opacity:1;" d="M 419.167969 130.429688 C 414.652344 130.429688 408.972656 129.816406 403.445312 127.539062 C 391.527344 122.625 384.550781 111.703125 384.480469 111.589844 L 384.035156 110.886719 L 384.847656 110.699219 C 384.976562 110.667969 397.625 107.839844 409.542969 112.75 C 421.460938 117.664062 428.4375 128.589844 428.507812 128.699219 L 428.953125 129.402344 L 428.140625 129.589844 C 425.183594 130.171875 422.179688 130.453125 419.167969 130.429688 Z M 385.976562 111.6875 C 387.734375 114.171875 394.105469 122.40625 403.898438 126.441406 C 413.703125 130.484375 424.011719 129.128906 427.011719 128.605469 C 425.253906 126.117188 418.882812 117.882812 409.089844 113.847656 C 399.296875 109.808594 388.976562 111.160156 385.976562 111.6875 Z M 385.976562 111.6875 "/>
<path style=" stroke:none;fill-rule:nonzero;fill:rgb(24.705882%,23.921569%,33.72549%);fill-opacity:1;" d="M 169.59375 201.816406 C 164.675781 201.816406 159.785156 201.054688 155.101562 199.554688 L 154.316406 199.273438 L 154.84375 198.625 C 154.925781 198.523438 163.164062 188.519531 175.585938 185.074219 C 188.011719 181.628906 200.226562 185.960938 200.347656 186.003906 L 201.132812 186.289062 L 200.605469 186.933594 C 200.523438 187.035156 192.28125 197.039062 179.859375 200.484375 C 176.515625 201.390625 173.0625 201.835938 169.59375 201.816406 Z M 156.339844 198.710938 C 159.253906 199.589844 169.335938 202.175781 179.542969 199.34375 C 189.761719 196.511719 197.066406 189.105469 199.109375 186.847656 C 196.195312 185.96875 186.113281 183.382812 175.902344 186.214844 C 165.6875 189.050781 158.382812 196.453125 156.339844 198.710938 Z M 156.339844 198.710938 "/>
<path style=" stroke:none;fill-rule:nonzero;fill:rgb(24.705882%,23.921569%,33.72549%);fill-opacity:1;" d="M 253.699219 118.886719 C 248.78125 118.886719 243.890625 118.125 239.207031 116.625 L 238.421875 116.34375 L 238.949219 115.695312 C 239.03125 115.59375 247.269531 105.589844 259.691406 102.144531 C 272.113281 98.699219 284.332031 103.03125 284.453125 103.074219 L 285.238281 103.359375 L 284.710938 104.003906 C 284.628906 104.105469 276.386719 114.109375 263.964844 117.554688 C 260.621094 118.460938 257.167969 118.90625 253.699219 118.886719 Z M 240.445312 115.78125 C 243.359375 116.660156 253.441406 119.246094 263.648438 116.414062 C 273.867188 113.582031 281.171875 106.175781 283.214844 103.917969 C 280.300781 103.039062 270.21875 100.453125 260.007812 103.285156 C 249.792969 106.121094 242.488281 113.523438 240.445312 115.78125 Z M 240.445312 115.78125 "/>
<path style=" stroke:none;fill-rule:nonzero;fill:rgb(24.705882%,23.921569%,33.72549%);fill-opacity:1;" d="M 163.671875 159.164062 C 158.753906 159.167969 153.863281 158.402344 149.175781 156.90625 L 148.394531 156.621094 L 148.917969 155.976562 C 149 155.875 157.242188 145.867188 169.664062 142.425781 C 182.085938 138.980469 194.304688 143.3125 194.425781 143.355469 L 195.210938 143.636719 L 194.683594 144.285156 C 194.601562 144.386719 186.359375 154.390625 173.9375 157.835938 C 170.589844 158.738281 167.136719 159.1875 163.671875 159.164062 Z M 150.417969 156.0625 C 153.332031 156.941406 163.414062 159.523438 173.621094 156.695312 C 183.839844 153.859375 191.144531 146.457031 193.1875 144.199219 C 190.273438 143.316406 180.191406 140.734375 169.980469 143.566406 C 159.761719 146.398438 152.457031 153.804688 150.417969 156.0625 Z M 150.417969 156.0625 "/>
<path style=" stroke:none;fill-rule:nonzero;fill:rgb(24.705882%,23.921569%,33.72549%);fill-opacity:1;" d="M 93.738281 315.019531 C 90.152344 315.042969 86.582031 314.566406 83.128906 313.609375 C 70.734375 310.066406 62.574219 299.992188 62.492188 299.890625 L 61.972656 299.242188 L 62.757812 298.964844 C 62.878906 298.921875 75.128906 294.6875 87.523438 298.230469 C 99.917969 301.773438 108.082031 311.84375 108.160156 311.945312 L 108.683594 312.597656 L 107.894531 312.875 C 103.3125 314.300781 98.539062 315.023438 93.738281 315.019531 Z M 83.453125 312.46875 C 93.640625 315.382812 103.742188 312.878906 106.664062 312.019531 C 104.636719 309.746094 97.382812 302.28125 87.199219 299.371094 C 77.015625 296.457031 66.914062 298.960938 63.988281 299.820312 C 66.015625 302.09375 73.269531 309.558594 83.453125 312.46875 Z M 83.453125 312.46875 "/>
<path style=" stroke:none;fill-rule:nonzero;fill:rgb(24.705882%,23.921569%,33.72549%);fill-opacity:1;" d="M 95.546875 149.210938 L 94.773438 148.902344 C 94.652344 148.855469 82.644531 143.972656 75.648438 133.144531 C 68.652344 122.316406 69.140625 109.363281 69.144531 109.234375 L 69.183594 108.398438 L 69.957031 108.707031 C 70.078125 108.757812 82.085938 113.636719 89.082031 124.464844 C 96.078125 135.292969 95.589844 148.25 95.585938 148.378906 Z M 76.644531 132.503906 C 82.390625 141.398438 91.644531 146.167969 94.40625 147.445312 C 94.378906 144.402344 93.835938 134.007812 88.085938 125.109375 C 82.339844 116.210938 73.085938 111.441406 70.324219 110.164062 C 70.351562 113.210938 70.894531 123.605469 76.644531 132.503906 Z M 76.644531 132.503906 "/>
<path style=" stroke:none;fill-rule:nonzero;fill:rgb(24.705882%,23.921569%,33.72549%);fill-opacity:1;" d="M 407.441406 302.09375 C 407.425781 301.757812 406.347656 268.078125 432.921875 246.226562 L 433.675781 247.140625 C 407.550781 268.621094 408.609375 301.714844 408.625 302.046875 Z M 407.441406 302.09375 "/>
<path style=" stroke:none;fill-rule:nonzero;fill:rgb(24.705882%,23.921569%,33.72549%);fill-opacity:1;" d="M 414.675781 350.417969 C 414.46875 350.078125 393.53125 316.371094 369.71875 307.660156 L 370.128906 306.546875 C 394.324219 315.402344 415.472656 349.457031 415.683594 349.796875 Z M 414.675781 350.417969 "/>
<path style=" stroke:none;fill-rule:nonzero;fill:rgb(24.705882%,23.921569%,33.72549%);fill-opacity:1;" d="M 423.230469 199.597656 C 395.035156 199.597656 369.914062 184.894531 369.621094 184.71875 L 370.226562 183.699219 C 370.566406 183.902344 404.777344 203.914062 437.914062 196.9375 L 438.160156 198.097656 C 433.25 199.113281 428.246094 199.617188 423.230469 199.597656 Z M 423.230469 199.597656 "/>
<path style=" stroke:none;fill-rule:nonzero;fill:rgb(24.705882%,23.921569%,33.72549%);fill-opacity:1;" d="M 402.320312 162.996094 C 396.476562 162.996094 390.652344 162.320312 384.964844 160.988281 C 372.273438 157.847656 364.992188 151.3125 363.90625 142.09375 L 365.082031 141.957031 C 367.566406 163.050781 403.398438 161.804688 403.757812 161.789062 L 403.808594 162.972656 C 403.785156 162.972656 403.25 162.996094 402.320312 162.996094 Z M 402.320312 162.996094 "/>
<path style=" stroke:none;fill-rule:nonzero;fill:rgb(24.705882%,23.921569%,33.72549%);fill-opacity:1;" d="M 420.722656 259.980469 L 420.722656 259.148438 C 420.722656 259.015625 420.796875 246.054688 428.257812 235.539062 C 435.71875 225.027344 447.925781 220.671875 448.050781 220.628906 L 448.835938 220.355469 L 448.835938 221.1875 C 448.835938 221.320312 448.761719 234.28125 441.300781 244.796875 C 433.839844 255.308594 421.632812 259.664062 421.507812 259.707031 Z M 447.621094 222.066406 C 444.804688 223.222656 435.355469 227.585938 429.222656 236.226562 C 423.089844 244.875 422.097656 255.226562 421.9375 258.269531 C 424.753906 257.113281 434.203125 252.75 440.335938 244.109375 C 446.472656 235.460938 447.460938 225.105469 447.621094 222.066406 Z M 447.621094 222.066406 "/>
<path style=" stroke:none;fill-rule:nonzero;fill:rgb(24.705882%,23.921569%,33.72549%);fill-opacity:1;" d="M 441.457031 201.816406 C 436.539062 201.816406 431.648438 201.054688 426.960938 199.554688 L 426.179688 199.273438 L 426.703125 198.625 C 426.785156 198.523438 435.027344 188.519531 447.449219 185.074219 C 459.875 181.628906 472.089844 185.960938 472.210938 186.003906 L 472.996094 186.289062 L 472.46875 186.933594 C 472.386719 187.035156 464.144531 197.039062 451.722656 200.484375 C 448.378906 201.390625 444.925781 201.835938 441.457031 201.816406 Z M 428.203125 198.710938 C 431.117188 199.59375 441.199219 202.175781 451.40625 199.34375 C 461.613281 196.511719 468.925781 189.105469 470.972656 186.847656 C 468.054688 185.96875 457.976562 183.382812 447.765625 186.214844 C 437.558594 189.046875 430.246094 196.453125 428.203125 198.710938 Z M 428.203125 198.710938 "/>
<path style=" stroke:none;fill-rule:nonzero;fill:rgb(38.823529%,59.607843%,100%);fill-opacity:1;" d="M 24.984375 219.101562 C 37.5625 221.734375 46.242188 231.117188 46.242188 231.117188 C 46.242188 231.117188 34.527344 236.230469 21.949219 233.59375 C 9.371094 230.960938 0.691406 221.578125 0.691406 221.578125 C 0.691406 221.578125 12.40625 216.464844 24.984375 219.101562 Z M 24.984375 219.101562 "/>
<path style=" stroke:none;fill-rule:nonzero;fill:rgb(24.705882%,23.921569%,33.72549%);fill-opacity:1;" d="M 50.320312 234.484375 C 75.367188 247.429688 90.933594 272.027344 91.113281 272.316406 L 90.109375 272.945312 C 89.898438 272.605469 68.695312 239.121094 36.054688 230.101562 L 36.367188 228.960938 C 41.195312 230.3125 45.871094 232.164062 50.320312 234.484375 Z M 50.320312 234.484375 "/>
<path style=" stroke:none;fill-rule:nonzero;fill:rgb(24.705882%,23.921569%,33.72549%);fill-opacity:1;" d="M 35.144531 224.144531 C 39.515625 226.402344 43.507812 229.324219 46.984375 232.808594 L 47.550781 233.417969 L 46.785156 233.753906 C 46.667969 233.804688 34.753906 238.910156 22.136719 236.265625 C 9.519531 233.621094 0.652344 224.164062 0.566406 224.070312 L 0 223.457031 L 0.761719 223.125 C 0.882812 223.074219 12.796875 217.96875 25.414062 220.613281 C 28.800781 221.34375 32.074219 222.535156 35.144531 224.144531 Z M 45.496094 232.988281 C 43.308594 230.867188 35.539062 223.941406 25.171875 221.773438 C 14.804688 219.597656 4.90625 222.820312 2.054688 223.890625 C 4.242188 226.011719 12.011719 232.933594 22.378906 235.105469 C 32.746094 237.277344 42.640625 234.054688 45.496094 232.988281 Z M 45.496094 232.988281 "/>
<path style=" stroke:none;fill-rule:nonzero;fill:rgb(24.705882%,23.921569%,33.72549%);fill-opacity:1;" d="M 435.535156 159.164062 C 430.613281 159.167969 425.726562 158.402344 421.039062 156.90625 L 420.257812 156.621094 L 420.78125 155.976562 C 420.863281 155.875 429.105469 145.867188 441.527344 142.425781 C 453.949219 138.980469 466.167969 143.3125 466.289062 143.355469 L 467.070312 143.636719 L 466.546875 144.285156 C 466.464844 144.386719 458.222656 154.390625 445.800781 157.835938 C 442.453125 158.738281 439 159.1875 435.535156 159.164062 Z M 422.28125 156.0625 C 425.195312 156.941406 435.277344 159.527344 445.484375 156.695312 C 455.691406 153.863281 463.003906 146.457031 465.046875 144.199219 C 462.132812 143.316406 452.050781 140.734375 441.84375 143.566406 C 431.636719 146.394531 424.324219 153.804688 422.28125 156.0625 Z M 422.28125 156.0625 "/>
<path style=" stroke:none;fill-rule:nonzero;fill:rgb(24.705882%,23.921569%,33.72549%);fill-opacity:1;" d="M 365.601562 315.019531 C 362.015625 315.042969 358.445312 314.566406 354.992188 313.609375 C 342.597656 310.066406 334.433594 299.992188 334.355469 299.890625 L 333.832031 299.242188 L 334.621094 298.964844 C 334.742188 298.921875 346.992188 294.6875 359.386719 298.230469 C 371.78125 301.773438 379.941406 311.84375 380.023438 311.945312 L 380.542969 312.597656 L 379.757812 312.875 C 375.175781 314.300781 370.402344 315.023438 365.601562 315.019531 Z M 335.851562 299.816406 C 337.878906 302.089844 345.132812 309.558594 355.316406 312.46875 C 365.5 315.382812 375.601562 312.878906 378.527344 312.019531 C 376.5 309.746094 369.246094 302.28125 359.0625 299.371094 C 348.867188 296.453125 338.769531 298.957031 335.851562 299.816406 Z M 335.851562 299.816406 "/>
<path style=" stroke:none;fill-rule:nonzero;fill:rgb(100%,39.607843%,51.764706%);fill-opacity:1;" d="M 344.457031 132.824219 C 337.480469 122.027344 338.046875 109.257812 338.046875 109.257812 C 338.046875 109.257812 349.917969 113.992188 356.890625 124.789062 C 363.867188 135.582031 363.300781 148.351562 363.300781 148.351562 C 363.300781 148.351562 351.429688 143.617188 344.457031 132.824219 Z M 344.457031 132.824219 "/>
<path style=" stroke:none;fill-rule:nonzero;fill:rgb(24.705882%,23.921569%,33.72549%);fill-opacity:1;" d="M 367.410156 149.210938 L 366.636719 148.902344 C 366.515625 148.855469 354.507812 143.972656 347.511719 133.144531 C 340.515625 122.316406 341.003906 109.363281 341.007812 109.234375 L 341.046875 108.398438 L 341.820312 108.707031 C 341.941406 108.757812 353.949219 113.636719 360.945312 124.464844 C 367.9375 135.292969 367.453125 148.25 367.445312 148.378906 Z M 348.507812 132.503906 C 354.261719 141.410156 363.507812 146.171875 366.269531 147.449219 C 366.242188 144.402344 365.695312 134.007812 359.949219 125.109375 C 354.199219 116.210938 344.949219 111.441406 342.183594 110.164062 C 342.214844 113.210938 342.757812 123.605469 348.507812 132.503906 Z M 348.507812 132.503906 "/>
<path style=" stroke:none;fill-rule:nonzero;fill:rgb(18.431373%,18.039216%,25.490196%);fill-opacity:1;" d="M 247.929688 197.820312 C 247.929688 197.820312 241.375 195.480469 237.164062 204.847656 C 232.949219 214.210938 226.394531 224.511719 226.394531 224.511719 L 230.140625 225.449219 C 230.140625 225.449219 231.074219 218.894531 233.417969 217.957031 L 232.480469 226.386719 C 232.480469 226.386719 260.574219 236.21875 273.214844 225.449219 L 272.746094 222.171875 C 272.746094 222.171875 274.621094 222.640625 274.621094 225.449219 L 276.023438 224.042969 C 276.023438 224.042969 274.621094 221.234375 270.40625 217.488281 C 267.640625 215.03125 266.691406 210.351562 266.363281 207.429688 C 266.117188 204.984375 265.140625 202.675781 263.558594 200.796875 C 260.761719 197.550781 255.65625 194.101562 247.929688 197.820312 Z M 247.929688 197.820312 "/>
<path style=" stroke:none;fill-rule:nonzero;fill:rgb(62.745098%,38.039216%,41.568627%);fill-opacity:1;" d="M 279.003906 255.777344 L 280.058594 283.140625 L 277.601562 310.5 C 277.601562 310.5 278.65625 323.832031 274.445312 322.777344 C 270.238281 321.726562 272.339844 312.253906 272.339844 312.253906 L 272.339844 284.542969 L 270.585938 262.792969 Z M 279.003906 255.777344 "/>
<path style=" stroke:none;fill-rule:nonzero;fill:rgb(62.745098%,38.039216%,41.568627%);fill-opacity:1;" d="M 232.003906 261.039062 L 231.65625 275.070312 L 226.042969 307.695312 C 226.042969 307.695312 220.429688 321.375 226.042969 320.671875 C 231.65625 319.972656 230.601562 308.394531 230.601562 308.394531 L 237.96875 279.28125 L 237.265625 262.09375 Z M 232.003906 261.039062 "/>
<path style=" stroke:none;fill-rule:nonzero;fill:rgb(62.745098%,38.039216%,41.568627%);fill-opacity:1;" d="M 225.691406 332.601562 C 225.691406 332.601562 218.324219 352.59375 221.132812 359.609375 C 223.9375 366.625 223.585938 369.78125 223.585938 369.78125 L 235.511719 367.679688 C 235.511719 367.679688 232.355469 358.558594 235.511719 353.296875 C 238.667969 348.035156 245.683594 330.496094 245.683594 330.496094 Z M 225.691406 332.601562 "/>
<path style=" stroke:none;fill-rule:nonzero;fill:rgb(62.745098%,38.039216%,41.568627%);fill-opacity:1;" d="M 255.15625 332.949219 L 257.257812 359.960938 L 258.664062 367.328125 L 269.886719 368.378906 L 269.183594 354.699219 L 271.992188 333.652344 Z M 255.15625 332.949219 "/>
<path style=" stroke:none;fill-rule:nonzero;fill:rgb(18.431373%,18.039216%,25.490196%);fill-opacity:1;" d="M 271.992188 362.417969 C 267.292969 365.480469 261.132812 365.050781 256.910156 361.363281 L 256.910156 400.300781 L 253.050781 418.542969 C 253.050781 418.542969 244.28125 431.171875 253.050781 431.171875 C 261.820312 431.171875 263.921875 428.714844 263.574219 426.609375 C 263.222656 424.503906 264.273438 420.648438 264.273438 420.648438 L 266.027344 417.140625 L 265.675781 406.265625 Z M 271.992188 362.417969 "/>
<path style=" stroke:none;fill-rule:nonzero;fill:rgb(18.431373%,18.039216%,25.490196%);fill-opacity:1;" d="M 236.566406 361.363281 C 236.566406 361.363281 232.355469 368.730469 222.183594 365.925781 L 229.550781 410.824219 L 220.429688 418.894531 C 220.429688 418.894531 200.789062 426.257812 215.871094 428.363281 C 230.953125 430.46875 243.929688 425.910156 243.929688 425.910156 C 243.929688 425.910156 244.984375 416.085938 243.230469 412.578125 C 241.476562 409.070312 236.566406 361.363281 236.566406 361.363281 Z M 236.566406 361.363281 "/>
<path style=" stroke:none;fill-rule:nonzero;fill:rgb(62.745098%,38.039216%,41.568627%);fill-opacity:1;" d="M 262.871094 215.4375 C 262.871094 221.832031 257.6875 227.011719 251.296875 227.011719 C 244.902344 227.011719 239.722656 221.832031 239.722656 215.4375 C 239.722656 209.042969 244.902344 203.863281 251.296875 203.863281 C 257.6875 203.863281 262.871094 209.042969 262.871094 215.4375 Z M 262.871094 215.4375 "/>
<path style=" stroke:none;fill-rule:nonzero;fill:rgb(62.745098%,38.039216%,41.568627%);fill-opacity:1;" d="M 248.492188 222.453125 L 247.789062 233.679688 L 244.28125 236.484375 L 258.3125 245.253906 L 264.625 236.484375 L 260.417969 234.027344 L 259.363281 219.648438 Z M 248.492188 222.453125 "/>
<path style=" stroke:none;fill-rule:nonzero;fill:rgb(81.176471%,80%,87.843137%);fill-opacity:1;" d="M 261.820312 236.132812 C 261.820312 236.132812 257.308594 242.058594 246.058594 235.0625 C 246.058594 235.0625 231.304688 233.679688 229.199219 242.449219 C 227.09375 251.21875 225.339844 253.320312 225.339844 253.320312 L 234.460938 267.003906 C 234.460938 267.003906 233.058594 273.316406 236.914062 275.773438 C 240.773438 278.226562 267.429688 277.527344 267.429688 277.527344 L 272.339844 272.617188 L 272.339844 265.601562 L 286.722656 254.375 L 284.96875 252.621094 C 284.96875 252.621094 281.109375 238.589844 273.746094 237.1875 C 266.378906 235.78125 264.273438 234.378906 261.820312 236.132812 Z M 261.820312 236.132812 "/>
<path style=" stroke:none;fill-rule:nonzero;fill:rgb(18.431373%,18.039216%,25.490196%);fill-opacity:1;" d="M 246.386719 269.808594 L 237.535156 276.070312 L 237.265625 279.980469 L 224.289062 334.703125 L 278.304688 336.457031 C 278.304688 336.457031 278.65625 297.519531 268.835938 285.59375 L 267.082031 276.472656 Z M 246.386719 269.808594 "/>
<path style=" stroke:none;fill-rule:nonzero;fill:rgb(18.431373%,18.039216%,25.490196%);fill-opacity:1;" d="M 237.042969 217.199219 C 237.042969 217.199219 240.789062 212.050781 244.066406 211.113281 C 247.34375 210.175781 247.8125 205.492188 247.8125 205.492188 C 247.8125 205.492188 256.242188 214.859375 261.390625 215.328125 C 266.542969 215.796875 261.859375 204.089844 261.859375 204.089844 L 252.496094 201.746094 L 243.597656 202.683594 L 236.574219 207.367188 Z M 237.042969 217.199219 "/>
</g>
</svg>
