<?xml version="1.0" encoding="UTF-8"?>
<svg xmlns="http://www.w3.org/2000/svg" xmlns:xlink="http://www.w3.org/1999/xlink" width="422pt" height="386pt" viewBox="0 0 422 386" version="1.1">
<defs>
<filter id="alpha" filterUnits="objectBoundingBox" x="0%" y="0%" width="100%" height="100%">
  <feColorMatrix type="matrix" in="SourceGraphic" values="0 0 0 0 1 0 0 0 0 1 0 0 0 0 1 0 0 0 1 0"/>
</filter>
<mask id="mask0">
  <g filter="url(#alpha)">
<rect x="0" y="0" width="422" height="386" style="fill:rgb(0%,0%,0%);fill-opacity:0.101961;stroke:none;"/>
  </g>
</mask>
<clipPath id="clip1">
  <rect width="423" height="386"/>
</clipPath>
<g id="surface6" clip-path="url(#clip1)">
<path style=" stroke:none;fill-rule:nonzero;fill:rgb(0%,0%,0%);fill-opacity:1;" d="M 289.253906 318.0625 C 289.253906 339.730469 220.835938 357.296875 136.429688 357.296875 C 103.921875 357.296875 73.78125 354.691406 49.015625 350.246094 C 25.925781 336.023438 9.695312 318.355469 3.183594 298.832031 C 29.386719 286.890625 79.242188 278.828125 136.429688 278.828125 C 220.835938 278.828125 289.253906 296.394531 289.253906 318.0625 Z M 289.253906 318.0625 "/>
</g>
<mask id="mask1">
  <g filter="url(#alpha)">
<rect x="0" y="0" width="422" height="386" style="fill:rgb(0%,0%,0%);fill-opacity:0.101961;stroke:none;"/>
  </g>
</mask>
<clipPath id="clip2">
  <rect width="423" height="386"/>
</clipPath>
<g id="surface9" clip-path="url(#clip2)">
<path style=" stroke:none;fill-rule:nonzero;fill:rgb(0%,0%,0%);fill-opacity:1;" d="M 125.769531 142.59375 C 125.328125 144.90625 124.851562 147.300781 123.464844 149.199219 C 121.867188 151.382812 119.261719 152.632812 117.546875 154.722656 C 114.957031 157.867188 114.808594 162.296875 114.800781 166.367188 C 114.789062 170.121094 114.867188 174.125 116.957031 177.238281 C 118.316406 179.257812 120.382812 180.675781 122.402344 182.039062 C 130.246094 187.324219 138.726562 192.710938 148.1875 192.882812 C 152.105469 192.957031 156.308594 191.941406 158.886719 188.992188 C 160.003906 187.601562 160.878906 186.042969 161.480469 184.367188 C 163.898438 178.402344 165.363281 172.097656 165.824219 165.679688 C 166.039062 162.660156 166.019531 159.550781 164.996094 156.699219 C 163.847656 153.496094 161.523438 150.859375 159.988281 147.820312 C 158.171875 144.207031 157.507812 140.125 158.085938 136.125 C 158.164062 135.839844 158.140625 135.542969 158.019531 135.277344 C 157.761719 134.988281 157.386719 134.832031 157 134.863281 L 138.242188 133.511719 C 136.496094 133.425781 134.757812 133.226562 133.035156 132.917969 C 132.023438 132.710938 129.355469 131.273438 128.390625 131.65625 C 126.605469 132.363281 126.136719 140.679688 125.769531 142.59375 Z M 125.769531 142.59375 "/>
</g>
<mask id="mask2">
  <g filter="url(#alpha)">
<rect x="0" y="0" width="422" height="386" style="fill:rgb(0%,0%,0%);fill-opacity:0.101961;stroke:none;"/>
  </g>
</mask>
<clipPath id="clip3">
  <rect width="423" height="386"/>
</clipPath>
<g id="surface12" clip-path="url(#clip3)">
<path style=" stroke:none;fill-rule:nonzero;fill:rgb(0%,0%,0%);fill-opacity:1;" d="M 83.324219 280.828125 C 90.230469 282.992188 119.390625 297.988281 124.386719 303.222656 C 123.71875 303.464844 100.988281 290.726562 100.304688 290.519531 C 94.105469 288.660156 87.871094 286.785156 81.984375 284.0625 C 80.800781 283.515625 74.292969 280.941406 74.585938 279.445312 C 74.917969 277.757812 82.101562 280.445312 83.324219 280.828125 Z M 83.324219 280.828125 "/>
</g>
<mask id="mask3">
  <g filter="url(#alpha)">
<rect x="0" y="0" width="422" height="386" style="fill:rgb(0%,0%,0%);fill-opacity:0.101961;stroke:none;"/>
  </g>
</mask>
<clipPath id="clip4">
  <rect width="423" height="386"/>
</clipPath>
<g id="surface15" clip-path="url(#clip4)">
<path style=" stroke:none;fill-rule:nonzero;fill:rgb(0%,0%,0%);fill-opacity:1;" d="M 202.753906 277.988281 C 197.4375 281.984375 190.550781 285.652344 185.28125 289.753906 C 183.484375 291.152344 153.5 308.011719 153.078125 310.25 C 157.996094 311.078125 189.3125 289.164062 193.792969 286.980469 C 198.273438 284.792969 202.246094 281.710938 206.183594 278.648438 C 207.183594 277.871094 211.4375 275.523438 208.558594 274.652344 C 206.933594 274.164062 203.953125 277.191406 202.753906 277.988281 Z M 202.753906 277.988281 "/>
</g>
</defs>
<g id="surface1">
<path style=" stroke:none;fill-rule:nonzero;fill:rgb(94.901961%,94.901961%,94.901961%);fill-opacity:1;" d="M 393.941406 229.03125 C 411.046875 185.902344 407.175781 137.28125 383.460938 97.40625 L 144.503906 130.496094 L 373.5 82.765625 C 345.261719 46 301.523438 24.464844 255.167969 24.503906 C 172.707031 24.503906 105.859375 91.359375 105.859375 173.832031 C 105.859375 180.648438 106.324219 187.453125 107.246094 194.207031 Z M 393.941406 229.03125 "/>
<path style=" stroke:none;fill-rule:nonzero;fill:rgb(94.901961%,94.901961%,94.901961%);fill-opacity:1;" d="M 115.835938 227.59375 C 137.417969 283.5 191.660156 323.15625 255.167969 323.15625 C 314.761719 323.15625 366.195312 288.238281 390.144531 237.742188 Z M 115.835938 227.59375 "/>
<path style=" stroke:none;fill-rule:nonzero;fill:rgb(38.823529%,59.607843%,100%);fill-opacity:1;" d="M 386.453125 279.53125 C 386.453125 338.214844 299.941406 385.78125 193.226562 385.78125 C 135.898438 385.78125 84.398438 372.054688 49.015625 350.246094 C 25.925781 336.023438 9.695312 318.355469 3.183594 298.832031 C 1.082031 292.613281 0.0078125 286.09375 0 279.53125 C 0 220.855469 160.125 -43.832031 193.226562 173.285156 C 226.328125 390.402344 386.453125 220.855469 386.453125 279.53125 Z M 386.453125 279.53125 "/>
<use xlink:href="#surface6" mask="url(#mask0)"/>
<path style=" stroke:none;fill-rule:nonzero;fill:rgb(18.431373%,18.039216%,25.490196%);fill-opacity:1;" d="M 178.941406 94.578125 C 166.828125 74.113281 142.867188 73.160156 142.867188 73.160156 C 142.867188 73.160156 119.519531 70.171875 104.539062 101.34375 C 90.578125 130.398438 71.3125 158.453125 101.4375 165.253906 L 106.878906 148.3125 L 110.25 166.515625 C 114.539062 166.824219 118.84375 166.894531 123.140625 166.734375 C 155.402344 165.691406 186.128906 167.039062 185.140625 155.460938 C 183.824219 140.066406 190.59375 114.273438 178.941406 94.578125 Z M 178.941406 94.578125 "/>
<path style=" stroke:none;fill-rule:nonzero;fill:rgb(18.431373%,18.039216%,25.490196%);fill-opacity:1;" d="M 99.71875 273.820312 C 99.269531 276.054688 98.9375 278.324219 98.171875 280.46875 C 97.414062 282.601562 96.246094 284.574219 95.550781 286.726562 C 93.34375 293.589844 96.40625 301.242188 101.296875 306.542969 C 105.535156 311.117188 111.011719 314.371094 117.058594 315.902344 C 121.472656 317.011719 126.058594 317.171875 130.605469 317.328125 C 143.195312 317.753906 156.109375 318.136719 168.042969 314.089844 C 171.808594 312.777344 175.449219 311.125 178.917969 309.148438 C 180.011719 308.625 180.976562 307.867188 181.738281 306.925781 C 182.648438 305.628906 182.765625 303.949219 182.757812 302.367188 C 182.730469 297.027344 181.648438 291.71875 181.90625 286.386719 C 182.046875 283.433594 182.601562 280.480469 182.328125 277.535156 C 181.710938 270.859375 176.410156 264.882812 169.855469 263.476562 C 166.46875 262.75 162.960938 263.144531 159.515625 263.476562 C 150.570312 264.335938 141.589844 264.738281 132.601562 264.679688 C 123.421875 264.621094 114.300781 263.21875 105.164062 263.074219 C 102.464844 263.03125 102.519531 263.863281 101.65625 266.476562 C 100.867188 268.882812 100.21875 271.335938 99.71875 273.820312 Z M 99.71875 273.820312 "/>
<path style=" stroke:none;fill-rule:nonzero;fill:rgb(62.745098%,38.039216%,41.568627%);fill-opacity:1;" d="M 125.769531 142.007812 C 125.328125 144.320312 124.851562 146.714844 123.464844 148.613281 C 121.867188 150.796875 119.261719 152.046875 117.546875 154.136719 C 114.957031 157.28125 114.808594 161.710938 114.800781 165.78125 C 114.789062 169.535156 114.867188 173.539062 116.957031 176.652344 C 118.316406 178.671875 120.382812 180.089844 122.402344 181.453125 C 130.246094 186.738281 138.726562 192.125 148.1875 192.296875 C 152.105469 192.371094 156.308594 191.359375 158.886719 188.40625 C 160.003906 187.019531 160.878906 185.457031 161.480469 183.78125 C 163.898438 177.816406 165.363281 171.511719 165.824219 165.09375 C 166.039062 162.074219 166.019531 158.964844 164.996094 156.113281 C 163.847656 152.910156 161.523438 150.273438 159.988281 147.234375 C 158.171875 143.621094 157.507812 139.539062 158.085938 135.539062 C 158.164062 135.253906 158.140625 134.957031 158.019531 134.691406 C 157.761719 134.402344 157.386719 134.25 157 134.277344 L 138.242188 132.925781 C 136.496094 132.839844 134.757812 132.640625 133.035156 132.332031 C 132.023438 132.125 129.355469 130.6875 128.390625 131.070312 C 126.605469 131.777344 126.136719 140.09375 125.769531 142.007812 Z M 125.769531 142.007812 "/>
<use xlink:href="#surface9" mask="url(#mask1)"/>
<path style=" stroke:none;fill-rule:nonzero;fill:rgb(62.745098%,38.039216%,41.568627%);fill-opacity:1;" d="M 171.230469 117 C 171.230469 132.203125 158.910156 144.523438 143.710938 144.523438 C 128.511719 144.523438 116.1875 132.203125 116.1875 117 C 116.1875 101.800781 128.511719 89.480469 143.710938 89.480469 C 158.910156 89.480469 171.230469 101.800781 171.230469 117 Z M 171.230469 117 "/>
<path style=" stroke:none;fill-rule:nonzero;fill:rgb(81.568627%,80.392157%,88.235294%);fill-opacity:1;" d="M 129.628906 178.648438 C 131.066406 180.144531 132.585938 181.632812 134.464844 182.511719 C 136.332031 183.382812 138.441406 183.601562 140.503906 183.660156 C 145.464844 183.800781 150.839844 182.890625 154.292969 179.324219 C 158.742188 174.726562 158.59375 167.308594 162.082031 161.945312 C 162.363281 161.460938 162.746094 161.039062 163.203125 160.71875 C 163.789062 160.398438 164.449219 160.246094 165.117188 160.277344 C 169.519531 160.234375 173.355469 163.09375 176.816406 165.816406 C 178.367188 167.035156 179.957031 168.296875 180.9375 170.011719 C 181.621094 171.347656 182.089844 172.78125 182.324219 174.265625 C 184.042969 182.652344 184.601562 191.230469 185.152344 199.773438 C 185.457031 204.492188 185.761719 209.214844 185.738281 213.945312 C 185.664062 229.523438 182.042969 244.84375 178.445312 260.003906 C 177.980469 261.957031 177.34375 264.140625 175.570312 265.074219 C 174.777344 265.429688 173.925781 265.636719 173.058594 265.6875 C 162.746094 266.898438 152.410156 268.109375 142.027344 268.269531 C 137.976562 268.332031 133.925781 268.234375 129.878906 267.976562 C 129.183594 267.96875 128.492188 267.847656 127.832031 267.621094 C 126.9375 267.191406 126.167969 266.539062 125.601562 265.726562 C 119.984375 258.648438 119.652344 248.859375 119.6875 239.824219 C 119.777344 217.734375 120.566406 195.660156 122.054688 173.601562 C 122.179688 171.78125 122.207031 169.570312 120.894531 168.140625 C 123.257812 171.921875 126.542969 175.417969 129.628906 178.648438 Z M 129.628906 178.648438 "/>
<path style=" stroke:none;fill-rule:nonzero;fill:rgb(34.117647%,35.294118%,53.72549%);fill-opacity:1;" d="M 123.800781 146.867188 C 122.871094 148.550781 116.019531 152.726562 114.695312 154.125 C 107.304688 161.914062 93.8125 161.621094 87.054688 169.96875 C 84.675781 172.90625 83.4375 176.59375 82.53125 180.261719 C 81.246094 185.449219 80.558594 191.109375 82.710938 196 C 84.785156 200.707031 89.144531 203.960938 92.105469 208.164062 C 95.359375 212.78125 96.820312 218.386719 98.222656 223.855469 C 99.253906 227.894531 100.296875 232.035156 99.894531 236.183594 C 99.4375 240.902344 97.15625 245.222656 95.808594 249.769531 C 94.457031 254.3125 94.226562 259.726562 97.34375 263.296875 C 99.632812 265.921875 103.222656 266.960938 106.65625 267.546875 C 111.039062 268.292969 115.492188 268.507812 119.933594 268.703125 C 123.855469 268.875 128.179688 268.910156 131.199219 266.394531 C 133.578125 264.40625 134.613281 261.1875 134.746094 258.089844 C 134.878906 254.992188 134.238281 251.921875 133.832031 248.851562 C 133.414062 245.664062 133.253906 242.449219 133.121094 239.242188 C 132.515625 224.835938 132.433594 210.421875 132.871094 195.996094 C 132.964844 192.996094 133.074219 189.957031 132.433594 187.023438 C 131.59375 183.167969 129.507812 179.71875 127.769531 176.171875 C 124.316406 169.136719 122.683594 162.300781 123.214844 154.480469 C 123.742188 146.761719 127.109375 140.878906 123.800781 146.867188 Z M 123.800781 146.867188 "/>
<path style=" stroke:none;fill-rule:nonzero;fill:rgb(34.117647%,35.294118%,53.72549%);fill-opacity:1;" d="M 162.445312 147.453125 C 163.863281 148.90625 168.671875 149.386719 170.472656 150.324219 C 172.128906 151.1875 173.957031 151.636719 175.75 152.152344 C 182.320312 154.046875 188.570312 156.914062 194.289062 160.660156 C 195.476562 161.355469 196.527344 162.265625 197.390625 163.339844 C 198.394531 164.742188 198.761719 166.492188 199.105469 168.183594 C 199.984375 172.550781 200.871094 176.972656 200.671875 181.425781 C 200.464844 186.152344 199.039062 190.726562 197.628906 195.242188 L 192.351562 212.113281 C 188.414062 224.707031 184.449219 237.421875 183.339844 250.570312 C 182.726562 257.859375 183 265.191406 184.152344 272.414062 C 184.269531 273.140625 184.367188 273.972656 183.886719 274.53125 C 183.539062 274.871094 183.082031 275.082031 182.59375 275.125 C 180.046875 275.523438 177.582031 274.222656 175.277344 273.074219 C 168.222656 269.566406 160.699219 267.101562 152.933594 265.761719 C 155.96875 261.378906 158.308594 256.554688 159.875 251.457031 C 160.761719 248.222656 161.464844 244.9375 161.96875 241.617188 L 164.425781 227.421875 C 165.324219 222.214844 166.226562 216.996094 166.53125 211.71875 C 166.714844 209.742188 166.601562 207.75 166.1875 205.804688 C 165.71875 203.929688 164.785156 202.214844 163.945312 200.472656 C 159.902344 192.054688 158.003906 182.453125 159.59375 173.253906 C 160.292969 169.226562 161.644531 165.195312 161.082031 161.148438 C 160.539062 157.257812 161.101562 154.230469 160.105469 150.382812 C 156.003906 134.570312 159.78125 144.714844 162.445312 147.453125 Z M 162.445312 147.453125 "/>
<path style=" stroke:none;fill-rule:nonzero;fill:rgb(34.117647%,35.294118%,53.72549%);fill-opacity:1;" d="M 86.984375 183.273438 C 85.140625 187.101562 82.054688 190.363281 81.007812 194.480469 C 80.597656 196.402344 80.421875 198.371094 80.484375 200.335938 C 80.460938 203.296875 80.445312 206.320312 81.355469 209.140625 C 81.941406 210.957031 82.894531 212.628906 83.578125 214.410156 C 84.535156 216.898438 84.960938 219.554688 84.832031 222.21875 C 84.644531 225.902344 83.394531 229.484375 83.296875 233.171875 C 83.140625 238.976562 85.824219 244.429688 88.445312 249.613281 C 89.777344 246.308594 92.503906 243.761719 95.886719 242.652344 C 99.273438 241.542969 102.976562 241.984375 106.007812 243.859375 C 106.699219 243.222656 106.773438 242.175781 106.800781 241.234375 C 106.992188 234.503906 107.179688 227.769531 107.359375 221.039062 C 107.640625 210.625 107.914062 200.074219 105.519531 189.9375 C 104.4375 185.359375 102.753906 180.800781 99.667969 177.25 C 98.046875 175.382812 92.53125 170.457031 89.867188 172.550781 C 88.667969 173.492188 88.945312 176.054688 88.757812 177.355469 C 88.46875 179.40625 87.871094 181.402344 86.984375 183.273438 Z M 86.984375 183.273438 "/>
<path style=" stroke:none;fill-rule:nonzero;fill:rgb(34.117647%,35.294118%,53.72549%);fill-opacity:1;" d="M 201.210938 172.246094 C 202.085938 174.960938 202.136719 177.863281 202.15625 180.714844 C 202.191406 186.535156 202.113281 192.355469 201.921875 198.175781 C 201.824219 201.152344 201.691406 204.171875 200.789062 207.011719 C 200.195312 208.886719 199.273438 210.640625 198.660156 212.507812 C 196.816406 218.101562 197.824219 224.167969 197.980469 230.058594 C 198.09375 231.964844 197.929688 233.875 197.5 235.734375 C 196.527344 239.386719 193.910156 242.335938 192.085938 245.640625 C 190.355469 248.785156 189.308594 252.304688 187.238281 255.234375 C 185.167969 258.164062 181.585938 260.488281 178.113281 259.585938 C 175.484375 258.90625 173.613281 256.578125 172.320312 254.1875 C 169.496094 248.929688 168.53125 242.875 169.582031 237 C 170.878906 229.851562 175.078125 223.511719 176.589844 216.410156 C 178.667969 206.652344 175.507812 196.585938 175.605469 186.613281 C 175.5625 185.050781 175.773438 183.492188 176.230469 181.996094 C 177.023438 179.714844 178.730469 177.898438 180.304688 176.070312 C 182.273438 173.785156 184.101562 171.386719 185.78125 168.882812 C 186.910156 167.199219 188.441406 162.875 190.441406 162.515625 C 194.90625 161.710938 200.105469 168.796875 201.210938 172.246094 Z M 201.210938 172.246094 "/>
<path style=" stroke:none;fill-rule:nonzero;fill:rgb(18.431373%,18.039216%,25.490196%);fill-opacity:1;" d="M 63.820312 269.480469 C 61.351562 268.859375 58.808594 268.589844 56.261719 268.675781 C 50.855469 268.976562 45.839844 271.585938 42.488281 275.839844 C 39.136719 280.09375 37.777344 285.585938 38.753906 290.910156 C 39.28125 293.777344 40.460938 296.480469 41.75 299.09375 C 43.753906 303.160156 46.15625 307.21875 49.867188 309.824219 C 52.035156 311.351562 54.546875 312.300781 57.027344 313.234375 L 76.566406 320.597656 C 79.441406 321.679688 82.316406 322.761719 85.21875 323.765625 C 99.804688 328.808594 115.007812 331.832031 130.410156 332.753906 C 135.101562 333.03125 139.863281 333.109375 144.441406 332.042969 C 145.527344 331.789062 146.683594 331.410156 147.3125 330.488281 C 147.6875 329.839844 147.90625 329.113281 147.957031 328.367188 L 149.160156 319.949219 C 149.328125 318.765625 149.492188 317.515625 149.054688 316.402344 C 148.503906 314.988281 147.125 314.097656 145.808594 313.339844 C 132.964844 305.960938 117.964844 301.890625 107.152344 291.765625 C 104.609375 289.378906 102.476562 285.601562 99.386719 283.980469 C 95.878906 282.144531 91.75 281.097656 88.125 279.40625 C 80.199219 275.707031 72.40625 271.457031 63.820312 269.480469 Z M 63.820312 269.480469 "/>
<use xlink:href="#surface12" mask="url(#mask2)"/>
<path style=" stroke:none;fill-rule:nonzero;fill:rgb(62.745098%,38.039216%,41.568627%);fill-opacity:1;" d="M 169.484375 337.117188 C 169.875 337.148438 170.265625 337.03125 170.578125 336.796875 C 170.855469 336.4375 170.980469 335.984375 170.917969 335.535156 C 170.910156 331.714844 170.898438 327.890625 170.886719 324.066406 C 167.589844 322.496094 163.902344 321.992188 160.28125 321.507812 L 143.390625 319.25 C 143.777344 319.300781 140.75 326.527344 141.214844 327.492188 C 142.03125 329.191406 148.289062 330.699219 150.054688 331.5 C 156.191406 334.289062 162.570312 337.359375 169.484375 337.117188 Z M 169.484375 337.117188 "/>
<path style=" stroke:none;fill-rule:nonzero;fill:rgb(62.745098%,38.039216%,41.568627%);fill-opacity:1;" d="M 116.484375 324.027344 C 113.296875 324.535156 109.734375 324.984375 107.671875 327.46875 C 105.050781 330.617188 106.167969 335.3125 107.414062 339.210938 C 107.601562 340 107.972656 340.734375 108.503906 341.347656 C 109.355469 342.191406 110.660156 342.3125 111.855469 342.386719 C 114.765625 342.574219 117.859375 342.71875 120.402344 341.289062 C 121.605469 340.613281 122.601562 339.628906 123.722656 338.824219 C 125.597656 337.574219 127.65625 336.632812 129.824219 336.03125 C 133.8125 334.777344 137.917969 333.929688 142.078125 333.507812 C 143.707031 333.339844 145.367188 333.234375 146.902344 332.65625 C 148.4375 332.078125 149.855469 330.933594 150.300781 329.355469 C 150.890625 327.273438 149.679688 325.148438 148.515625 323.320312 C 147.070312 321.042969 145.539062 318.644531 143.378906 316.96875 C 140.234375 314.523438 138.675781 316.402344 135.503906 317.964844 C 129.503906 320.925781 123.09375 322.972656 116.484375 324.027344 Z M 116.484375 324.027344 "/>
<path style=" stroke:none;fill-rule:nonzero;fill:rgb(18.431373%,18.039216%,25.490196%);fill-opacity:1;" d="M 108.148438 326.902344 L 87.898438 320.914062 C 85.4375 320.1875 82.929688 319.453125 80.363281 319.453125 C 77.792969 319.457031 75.109375 320.296875 73.441406 322.253906 C 71.871094 324.097656 71.421875 326.617188 71.03125 329.003906 L 70.195312 334.117188 C 69.769531 336.714844 69.339844 339.363281 69.722656 341.96875 C 70.109375 344.570312 71.4375 347.175781 73.746094 348.433594 C 76.550781 349.964844 79.984375 349.21875 83.113281 348.578125 C 89.429688 347.285156 95.855469 346.597656 102.304688 346.519531 C 104.726562 346.492188 107.269531 346.519531 109.410156 345.386719 C 111.957031 344.035156 113.480469 341.183594 113.742188 338.3125 C 114.140625 333.945312 112.6875 328.242188 108.148438 326.902344 Z M 108.148438 326.902344 "/>
<path style=" stroke:none;fill-rule:nonzero;fill:rgb(18.431373%,18.039216%,25.490196%);fill-opacity:1;" d="M 177.441406 321.683594 C 180.070312 321.222656 182.386719 319.730469 184.902344 318.851562 C 188.441406 317.613281 192.277344 317.613281 196.03125 317.625 C 197.40625 317.628906 198.875 317.660156 200.019531 318.425781 C 201.671875 319.523438 202.097656 321.726562 202.378906 323.691406 C 202.941406 327.644531 203.507812 331.597656 204.074219 335.550781 C 204.390625 337.78125 204.707031 340.070312 204.210938 342.269531 C 203.714844 344.464844 202.214844 346.585938 200.035156 347.152344 C 197.386719 347.839844 194.792969 346.148438 192.292969 345.035156 C 186.042969 342.257812 178.777344 342.96875 172.261719 340.890625 C 171.050781 340.507812 169.757812 339.917969 169.265625 338.75 C 169.039062 338.089844 168.960938 337.390625 169.03125 336.699219 C 169.140625 332.886719 168.339844 327.683594 169.484375 324.039062 C 170.519531 320.765625 174.511719 321.683594 177.441406 321.683594 Z M 177.441406 321.683594 "/>
<path style=" stroke:none;fill-rule:nonzero;fill:rgb(18.431373%,18.039216%,25.490196%);fill-opacity:1;" d="M 220.300781 264.707031 C 224.34375 263.691406 228.539062 263.40625 232.6875 263.859375 C 236 264.226562 239.410156 265.148438 241.828125 267.441406 C 244.773438 270.230469 245.71875 274.546875 245.796875 278.601562 C 245.925781 286.675781 243.246094 294.546875 238.21875 300.871094 C 236.992188 302.46875 235.53125 303.875 233.886719 305.039062 C 232.113281 306.148438 230.222656 307.0625 228.25 307.757812 L 184.492188 325.019531 C 172.984375 329.558594 161.429688 334.113281 149.425781 337.105469 C 148.761719 337.425781 147.996094 337.464844 147.304688 337.214844 C 146.613281 336.964844 146.050781 336.445312 145.746094 335.773438 C 141.914062 330.296875 138.695312 324.410156 136.15625 318.226562 C 135.914062 317.929688 135.828125 317.53125 135.933594 317.160156 C 136.035156 316.789062 136.316406 316.492188 136.679688 316.363281 L 167.628906 298.578125 C 169.84375 297.304688 172.085938 296.015625 173.925781 294.238281 C 175.265625 292.941406 176.359375 291.417969 177.160156 289.734375 C 177.800781 288.394531 177.863281 285.234375 178.683594 284.242188 C 179.484375 283.273438 182.226562 283.195312 183.496094 282.816406 C 185.285156 282.265625 187.035156 281.605469 188.738281 280.832031 C 195.660156 277.734375 201.824219 273.234375 208.460938 269.609375 C 212.183594 267.480469 216.160156 265.832031 220.300781 264.707031 Z M 220.300781 264.707031 "/>
<use xlink:href="#surface15" mask="url(#mask3)"/>
<path style=" stroke:none;fill-rule:nonzero;fill:rgb(24.705882%,23.921569%,33.72549%);fill-opacity:1;" d="M 166.167969 147.839844 L 119.492188 147.839844 C 115.546875 147.839844 112.34375 151.042969 112.34375 154.992188 L 112.34375 157.609375 L 111.835938 157.609375 L 111.835938 163.464844 L 112.34375 163.464844 L 112.34375 167.5625 L 111.835938 167.5625 L 111.835938 171.078125 L 112.34375 171.078125 L 112.34375 214.285156 C 112.34375 218.234375 115.546875 221.4375 119.492188 221.4375 L 166.167969 221.4375 C 170.117188 221.4375 173.316406 218.234375 173.316406 214.285156 L 173.316406 154.992188 C 173.316406 151.042969 170.117188 147.839844 166.167969 147.839844 Z M 166.167969 147.839844 "/>
<path style=" stroke:none;fill-rule:nonzero;fill:rgb(18.431373%,18.039216%,25.490196%);fill-opacity:1;" d="M 173.585938 92.605469 L 149.914062 80.207031 L 117.222656 85.277344 L 110.457031 115.15625 L 127.296875 114.507812 L 132 103.53125 L 132 114.328125 L 139.769531 114.027344 L 144.277344 96.554688 L 147.09375 115.15625 L 174.714844 114.589844 Z M 173.585938 92.605469 "/>
<path style=" stroke:none;fill-rule:nonzero;fill:rgb(62.745098%,38.039216%,41.568627%);fill-opacity:1;" d="M 93.175781 260.839844 C 94.347656 262.585938 95.71875 264.292969 97.597656 265.234375 C 99.941406 266.410156 102.839844 266.203125 105.191406 265.03125 C 107.523438 263.78125 109.429688 261.867188 110.671875 259.535156 C 113.246094 254.992188 113.777344 249.554688 113.457031 244.34375 C 113.136719 239.128906 112.023438 234 111.53125 228.800781 C 111.175781 225.019531 111.144531 221.21875 111.117188 217.425781 C 111.109375 216.625 111.121094 215.765625 111.59375 215.125 C 112.164062 214.34375 113.207031 214.128906 114.132812 213.855469 C 119.324219 212.3125 122.769531 207.445312 125.242188 202.625 C 126.890625 199.40625 128.328125 195.886719 128.007812 192.285156 C 127.691406 188.679688 125.101562 185.050781 121.503906 184.683594 C 118.535156 184.378906 115.796875 186.261719 113.65625 188.339844 C 108.257812 193.613281 104.789062 200.546875 103.804688 208.027344 C 103.335938 211.691406 103.472656 215.457031 102.476562 219.011719 C 100.347656 226.605469 93.691406 231.261719 90.375 238.097656 C 86.71875 245.625 88.734375 254.175781 93.175781 260.839844 Z M 93.175781 260.839844 "/>
<path style=" stroke:none;fill-rule:nonzero;fill:rgb(62.745098%,38.039216%,41.568627%);fill-opacity:1;" d="M 191.132812 231.824219 C 189.605469 235.382812 186.699219 238.171875 183.085938 239.558594 C 180.859375 240.453125 178.40625 240.601562 176.089844 239.988281 C 173.757812 239.339844 171.863281 237.644531 170.964844 235.402344 C 170.609375 234.285156 170.414062 233.128906 170.386719 231.957031 C 170.054688 226.835938 170.183594 221.558594 172.042969 216.777344 C 172.757812 214.929688 173.726562 213.179688 174.292969 211.285156 C 174.9375 209.121094 175.042969 206.839844 175.140625 204.582031 L 175.753906 190.609375 C 175.851562 189.59375 175.785156 188.570312 175.542969 187.578125 C 174.933594 185.558594 173.046875 184.242188 171.3125 183.039062 C 167.125 180.125 162.988281 176.726562 160.957031 172.046875 C 160.335938 170.617188 159.929688 169.023438 160.242188 167.496094 C 160.816406 164.722656 163.613281 162.925781 166.382812 162.320312 C 170.042969 161.519531 173.867188 162.25 176.976562 164.339844 C 180.085938 166.429688 182.207031 169.695312 182.847656 173.386719 C 183.121094 174.964844 183.117188 176.574219 183.277344 178.167969 C 183.617188 181.546875 184.6875 184.800781 185.359375 188.128906 C 187.011719 196.328125 186.15625 204.804688 187.789062 213 C 189.15625 219.851562 194.308594 224.324219 191.132812 231.824219 Z M 191.132812 231.824219 "/>
<path style=" stroke:none;fill-rule:nonzero;fill:rgb(81.568627%,80.392157%,88.235294%);fill-opacity:1;" d="M 149.3125 173.421875 C 149.3125 176.652344 146.691406 179.277344 143.457031 179.277344 C 140.222656 179.277344 137.601562 176.652344 137.601562 173.421875 C 137.601562 170.1875 140.222656 167.5625 143.457031 167.5625 C 146.691406 167.5625 149.3125 170.1875 149.3125 173.421875 Z M 149.3125 173.421875 "/>
<path style=" stroke:none;fill-rule:nonzero;fill:rgb(24.705882%,23.921569%,33.72549%);fill-opacity:1;" d="M 390.625 179.691406 C 373.296875 179.691406 359.253906 193.734375 359.253906 211.0625 C 359.253906 228.386719 373.296875 242.433594 390.625 242.433594 C 407.949219 242.433594 421.992188 228.386719 421.992188 211.0625 C 421.992188 193.734375 407.949219 179.691406 390.625 179.691406 Z M 406.125 203.105469 C 406.144531 203.445312 406.152344 203.792969 406.152344 204.136719 C 406.152344 214.722656 398.105469 226.925781 383.375 226.925781 C 379.027344 226.9375 374.773438 225.679688 371.128906 223.308594 C 371.761719 223.382812 372.402344 223.421875 373.039062 223.421875 C 376.644531 223.429688 380.144531 222.222656 382.976562 219.992188 C 379.550781 219.929688 376.546875 217.695312 375.5 214.433594 C 375.996094 214.53125 376.5 214.582031 377.003906 214.582031 C 377.714844 214.582031 378.425781 214.488281 379.109375 214.300781 C 375.375 213.546875 372.691406 210.261719 372.691406 206.453125 L 372.691406 206.351562 C 373.804688 206.976562 375.050781 207.320312 376.328125 207.351562 C 372.804688 205.003906 371.714844 200.320312 373.839844 196.660156 C 377.898438 201.667969 383.894531 204.710938 390.328125 205.03125 C 390.191406 204.433594 390.121094 203.820312 390.125 203.203125 C 390.121094 199.917969 392.125 196.964844 395.179688 195.757812 C 398.234375 194.550781 401.71875 195.335938 403.960938 197.734375 C 405.753906 197.382812 407.472656 196.726562 409.042969 195.792969 C 408.445312 197.648438 407.195312 199.222656 405.523438 200.222656 C 407.109375 200.03125 408.65625 199.601562 410.117188 198.957031 C 409.042969 200.566406 407.691406 201.96875 406.125 203.105469 Z M 406.125 203.105469 "/>
<path style=" stroke:none;fill-rule:nonzero;fill:rgb(24.705882%,23.921569%,33.72549%);fill-opacity:1;" d="M 386.109375 92.429688 C 386.109375 95.507812 383.617188 98.003906 380.535156 98.003906 C 377.457031 98.003906 374.960938 95.507812 374.960938 92.429688 C 374.960938 89.347656 377.457031 86.851562 380.535156 86.851562 C 383.617188 86.851562 386.109375 89.347656 386.109375 92.429688 Z M 386.109375 92.429688 "/>
<path style=" stroke:none;fill-rule:nonzero;fill:rgb(24.705882%,23.921569%,33.72549%);fill-opacity:1;" d="M 387.503906 78.492188 L 373.570312 78.492188 C 369.726562 78.503906 366.613281 81.617188 366.601562 85.460938 L 366.601562 99.394531 C 366.613281 103.238281 369.726562 106.351562 373.570312 106.363281 L 387.503906 106.363281 C 391.347656 106.351562 394.460938 103.238281 394.472656 99.394531 L 394.472656 85.460938 C 394.460938 81.617188 391.347656 78.503906 387.503906 78.492188 Z M 380.535156 100.789062 C 375.917969 100.789062 372.175781 97.046875 372.175781 92.429688 C 372.175781 87.808594 375.917969 84.066406 380.535156 84.066406 C 385.15625 84.066406 388.898438 87.808594 388.898438 92.429688 C 388.898438 97.046875 385.152344 100.789062 380.535156 100.789062 Z M 389.59375 85.460938 C 388.441406 85.460938 387.503906 84.523438 387.503906 83.367188 C 387.503906 82.214844 388.441406 81.277344 389.59375 81.277344 C 390.75 81.277344 391.683594 82.214844 391.683594 83.367188 C 391.6875 83.925781 391.464844 84.457031 391.074219 84.847656 C 390.683594 85.242188 390.148438 85.460938 389.59375 85.460938 Z M 389.59375 85.460938 "/>
<path style=" stroke:none;fill-rule:nonzero;fill:rgb(24.705882%,23.921569%,33.72549%);fill-opacity:1;" d="M 380.179688 59.648438 C 361.914062 59.648438 347.109375 74.453125 347.109375 92.722656 C 347.109375 110.988281 361.914062 125.792969 380.179688 125.792969 C 398.441406 125.792969 413.25 110.988281 413.25 92.722656 C 413.25 74.453125 398.441406 59.648438 380.179688 59.648438 Z M 397.257812 99.394531 C 397.242188 104.777344 392.886719 109.136719 387.503906 109.152344 L 373.570312 109.152344 C 368.1875 109.136719 363.832031 104.777344 363.816406 99.394531 L 363.816406 85.460938 C 363.832031 80.078125 368.1875 75.71875 373.570312 75.703125 L 387.503906 75.703125 C 392.886719 75.71875 397.242188 80.078125 397.257812 85.460938 Z M 397.257812 99.394531 "/>
<path style=" stroke:none;fill-rule:nonzero;fill:rgb(24.705882%,23.921569%,33.72549%);fill-opacity:1;" d="M 246.039062 0 C 228.066406 0 213.5 14.570312 213.5 32.542969 C 213.5 50.515625 228.066406 65.085938 246.039062 65.085938 C 264.007812 65.085938 278.578125 50.515625 278.578125 32.542969 C 278.578125 14.570312 264.007812 0 246.039062 0 Z M 256.296875 19.691406 L 252.132812 19.691406 C 249.289062 19.691406 248.746094 21.035156 248.746094 23.019531 L 248.746094 27.230469 L 255.519531 27.230469 L 254.632812 33.839844 L 248.746094 33.839844 L 248.746094 51.777344 L 241.195312 51.777344 L 241.195312 33.839844 L 235.777344 33.839844 L 235.777344 27.230469 L 241.195312 27.230469 L 241.195312 22.347656 C 241.195312 16.492188 245.253906 13.304688 250.480469 13.304688 C 252.980469 13.304688 255.671875 13.496094 256.296875 13.578125 Z M 256.296875 19.691406 "/>
</g>
</svg>
