<?xml version="1.0" encoding="UTF-8"?>
<svg xmlns="http://www.w3.org/2000/svg" xmlns:xlink="http://www.w3.org/1999/xlink" width="488pt" height="321pt" viewBox="0 0 488 321" version="1.1">
<g id="surface1">
<path style=" stroke:none;fill-rule:nonzero;fill:rgb(90.196078%,90.196078%,90.196078%);fill-opacity:1;" d="M 165.777344 0.183594 L 487.8125 0.183594 L 487.8125 206.636719 L 165.777344 206.636719 Z M 165.777344 0.183594 "/>
<path style=" stroke:none;fill-rule:nonzero;fill:rgb(100%,100%,100%);fill-opacity:1;" d="M 174.988281 26.078125 L 478.601562 26.078125 L 478.601562 194.425781 L 174.988281 194.425781 Z M 174.988281 26.078125 "/>
<path style=" stroke:none;fill-rule:nonzero;fill:rgb(38.823529%,59.607843%,100%);fill-opacity:1;" d="M 165.640625 0 L 487.671875 0 L 487.671875 13.695312 L 165.640625 13.695312 Z M 165.640625 0 "/>
<path style=" stroke:none;fill-rule:nonzero;fill:rgb(100%,100%,100%);fill-opacity:1;" d="M 178.34375 7 C 178.34375 8.402344 177.207031 9.539062 175.808594 9.539062 C 174.40625 9.539062 173.273438 8.402344 173.273438 7 C 173.273438 5.601562 174.40625 4.464844 175.808594 4.464844 C 177.207031 4.464844 178.34375 5.601562 178.34375 7 Z M 178.34375 7 "/>
<path style=" stroke:none;fill-rule:nonzero;fill:rgb(100%,100%,100%);fill-opacity:1;" d="M 187.96875 7 C 187.96875 8.402344 186.832031 9.539062 185.433594 9.539062 C 184.03125 9.539062 182.898438 8.402344 182.898438 7 C 182.898438 5.601562 184.03125 4.464844 185.433594 4.464844 C 186.832031 4.464844 187.96875 5.601562 187.96875 7 Z M 187.96875 7 "/>
<path style=" stroke:none;fill-rule:nonzero;fill:rgb(100%,100%,100%);fill-opacity:1;" d="M 197.59375 7 C 197.59375 8.402344 196.457031 9.539062 195.058594 9.539062 C 193.65625 9.539062 192.523438 8.402344 192.523438 7 C 192.523438 5.601562 193.65625 4.464844 195.058594 4.464844 C 196.457031 4.464844 197.59375 5.601562 197.59375 7 Z M 197.59375 7 "/>
<path style=" stroke:none;fill-rule:nonzero;fill:rgb(90.196078%,90.196078%,90.196078%);fill-opacity:1;" d="M 205.074219 54.535156 L 235.542969 54.535156 L 235.542969 68.035156 L 205.074219 68.035156 Z M 205.074219 54.535156 "/>
<path style=" stroke:none;fill-rule:nonzero;fill:rgb(90.196078%,90.196078%,90.196078%);fill-opacity:1;" d="M 266.011719 82.535156 L 296.480469 82.535156 L 296.480469 96.035156 L 266.011719 96.035156 Z M 266.011719 82.535156 "/>
<path style=" stroke:none;fill-rule:nonzero;fill:rgb(38.823529%,59.607843%,100%);fill-opacity:1;" d="M 205.074219 124.535156 L 235.542969 124.535156 L 235.542969 138.035156 L 205.074219 138.035156 Z M 205.074219 124.535156 "/>
<path style=" stroke:none;fill-rule:nonzero;fill:rgb(38.823529%,59.607843%,100%);fill-opacity:1;" d="M 266.011719 152.535156 L 296.480469 152.535156 L 296.480469 166.035156 L 266.011719 166.035156 Z M 266.011719 152.535156 "/>
<path style=" stroke:none;fill-rule:nonzero;fill:rgb(38.823529%,59.607843%,100%);fill-opacity:1;" d="M 417.855469 166.535156 L 448.324219 166.535156 L 448.324219 180.035156 L 417.855469 180.035156 Z M 417.855469 166.535156 "/>
<path style=" stroke:none;fill-rule:nonzero;fill:rgb(90.196078%,90.196078%,90.196078%);fill-opacity:1;" d="M 387.386719 110.535156 L 417.855469 110.535156 L 417.855469 124.035156 L 387.386719 124.035156 Z M 387.386719 110.535156 "/>
<path style=" stroke:none;fill-rule:nonzero;fill:rgb(38.823529%,59.607843%,100%);fill-opacity:1;" d="M 296.480469 110.535156 L 357.417969 110.535156 L 357.417969 124.035156 L 296.480469 124.035156 Z M 296.480469 110.535156 "/>
<path style=" stroke:none;fill-rule:nonzero;fill:rgb(38.823529%,59.607843%,100%);fill-opacity:1;" d="M 296.480469 40.035156 L 357.417969 40.035156 L 357.417969 53.535156 L 296.480469 53.535156 Z M 296.480469 40.035156 "/>
<path style=" stroke:none;fill-rule:nonzero;fill:rgb(90.196078%,90.196078%,90.196078%);fill-opacity:1;" d="M 174.605469 25.535156 L 174.605469 195.035156 L 479.292969 195.035156 L 479.292969 25.535156 Z M 478.292969 39.574219 L 448.925781 39.574219 L 448.925781 26.535156 L 478.292969 26.535156 Z M 297.082031 137.867188 L 297.082031 124.824219 L 356.820312 124.824219 L 356.820312 137.867188 Z M 356.820312 138.867188 L 356.820312 151.910156 L 297.082031 151.910156 L 297.082031 138.867188 Z M 356.820312 82.699219 L 356.820312 95.742188 L 297.082031 95.742188 L 297.082031 82.699219 Z M 297.082031 81.699219 L 297.082031 68.660156 L 356.820312 68.660156 L 356.820312 81.699219 Z M 297.082031 109.785156 L 297.082031 96.742188 L 356.820312 96.742188 L 356.820312 109.785156 Z M 356.820312 110.785156 L 356.820312 123.824219 L 297.082031 123.824219 L 297.082031 110.785156 Z M 296.082031 95.742188 L 266.710938 95.742188 L 266.710938 82.699219 L 296.082031 82.699219 Z M 296.082031 96.742188 L 296.082031 109.785156 L 266.710938 109.785156 L 266.710938 96.742188 Z M 296.082031 110.785156 L 296.082031 123.824219 L 266.710938 123.824219 L 266.710938 110.785156 Z M 296.082031 124.824219 L 296.082031 137.867188 L 266.710938 137.867188 L 266.710938 124.824219 Z M 357.816406 124.824219 L 387.1875 124.824219 L 387.1875 137.867188 L 357.816406 137.867188 Z M 357.816406 123.824219 L 357.816406 110.785156 L 387.1875 110.785156 L 387.1875 123.824219 Z M 357.816406 109.785156 L 357.816406 96.742188 L 387.1875 96.742188 L 387.1875 109.785156 Z M 357.816406 95.742188 L 357.816406 82.699219 L 387.1875 82.699219 L 387.1875 95.742188 Z M 357.816406 81.699219 L 357.816406 68.660156 L 387.1875 68.660156 L 387.1875 81.699219 Z M 357.816406 67.660156 L 357.816406 54.617188 L 387.1875 54.617188 L 387.1875 67.660156 Z M 356.820312 67.660156 L 297.082031 67.660156 L 297.082031 54.617188 L 356.820312 54.617188 Z M 296.082031 67.660156 L 266.710938 67.660156 L 266.710938 54.617188 L 296.082031 54.617188 Z M 296.082031 68.660156 L 296.082031 81.699219 L 266.710938 81.699219 L 266.710938 68.660156 Z M 265.710938 81.699219 L 236.34375 81.699219 L 236.34375 68.660156 L 265.710938 68.660156 Z M 265.710938 82.699219 L 265.710938 95.742188 L 236.34375 95.742188 L 236.34375 82.699219 Z M 265.710938 96.742188 L 265.710938 109.785156 L 236.34375 109.785156 L 236.34375 96.742188 Z M 265.710938 110.785156 L 265.710938 123.824219 L 236.34375 123.824219 L 236.34375 110.785156 Z M 265.710938 124.824219 L 265.710938 137.867188 L 236.34375 137.867188 L 236.34375 124.824219 Z M 265.710938 138.867188 L 265.710938 151.910156 L 236.34375 151.910156 L 236.34375 138.867188 Z M 266.710938 138.867188 L 296.082031 138.867188 L 296.082031 151.910156 L 266.710938 151.910156 Z M 296.082031 152.910156 L 296.082031 165.949219 L 266.710938 165.949219 L 266.710938 152.910156 Z M 297.082031 152.910156 L 356.820312 152.910156 L 356.820312 165.949219 L 297.082031 165.949219 Z M 357.816406 152.910156 L 387.1875 152.910156 L 387.1875 165.949219 L 357.816406 165.949219 Z M 357.816406 151.910156 L 357.816406 138.867188 L 387.1875 138.867188 L 387.1875 151.910156 Z M 388.1875 138.867188 L 417.558594 138.867188 L 417.558594 151.910156 L 388.1875 151.910156 Z M 388.1875 137.867188 L 388.1875 124.824219 L 417.558594 124.824219 L 417.558594 137.867188 Z M 388.1875 123.824219 L 388.1875 110.785156 L 417.558594 110.785156 L 417.558594 123.824219 Z M 388.1875 109.785156 L 388.1875 96.742188 L 417.558594 96.742188 L 417.558594 109.785156 Z M 388.1875 95.742188 L 388.1875 82.699219 L 417.558594 82.699219 L 417.558594 95.742188 Z M 388.1875 81.699219 L 388.1875 68.660156 L 417.558594 68.660156 L 417.558594 81.699219 Z M 388.1875 67.660156 L 388.1875 54.617188 L 417.558594 54.617188 L 417.558594 67.660156 Z M 388.1875 53.617188 L 388.1875 40.574219 L 417.558594 40.574219 L 417.558594 53.617188 Z M 387.1875 53.617188 L 357.816406 53.617188 L 357.816406 40.574219 L 387.1875 40.574219 Z M 356.820312 53.617188 L 297.082031 53.617188 L 297.082031 40.574219 L 356.820312 40.574219 Z M 296.082031 53.617188 L 266.710938 53.617188 L 266.710938 40.574219 L 296.082031 40.574219 Z M 265.710938 53.617188 L 236.34375 53.617188 L 236.34375 40.574219 L 265.710938 40.574219 Z M 265.710938 54.617188 L 265.710938 67.660156 L 236.34375 67.660156 L 236.34375 54.617188 Z M 235.34375 67.660156 L 205.972656 67.660156 L 205.972656 54.617188 L 235.34375 54.617188 Z M 235.34375 68.660156 L 235.34375 81.699219 L 205.972656 81.699219 L 205.972656 68.660156 Z M 235.34375 82.699219 L 235.34375 95.742188 L 205.972656 95.742188 L 205.972656 82.699219 Z M 235.34375 96.742188 L 235.34375 109.785156 L 205.972656 109.785156 L 205.972656 96.742188 Z M 235.34375 110.785156 L 235.34375 123.824219 L 205.972656 123.824219 L 205.972656 110.785156 Z M 235.34375 124.824219 L 235.34375 137.867188 L 205.972656 137.867188 L 205.972656 124.824219 Z M 235.34375 138.867188 L 235.34375 151.910156 L 205.972656 151.910156 L 205.972656 138.867188 Z M 235.34375 152.910156 L 235.34375 165.949219 L 205.972656 165.949219 L 205.972656 152.910156 Z M 236.34375 152.910156 L 265.710938 152.910156 L 265.710938 165.949219 L 236.34375 165.949219 Z M 265.710938 166.949219 L 265.710938 179.992188 L 236.34375 179.992188 L 236.34375 166.949219 Z M 266.710938 166.949219 L 296.082031 166.949219 L 296.082031 179.992188 L 266.710938 179.992188 Z M 297.082031 166.949219 L 356.820312 166.949219 L 356.820312 179.992188 L 297.082031 179.992188 Z M 357.816406 166.949219 L 387.1875 166.949219 L 387.1875 179.992188 L 357.816406 179.992188 Z M 388.1875 166.949219 L 417.558594 166.949219 L 417.558594 179.992188 L 388.1875 179.992188 Z M 388.1875 165.949219 L 388.1875 152.910156 L 417.558594 152.910156 L 417.558594 165.949219 Z M 418.554688 152.910156 L 447.925781 152.910156 L 447.925781 165.949219 L 418.554688 165.949219 Z M 418.554688 151.910156 L 418.554688 138.867188 L 447.925781 138.867188 L 447.925781 151.910156 Z M 418.554688 137.867188 L 418.554688 124.824219 L 447.925781 124.824219 L 447.925781 137.867188 Z M 418.554688 123.824219 L 418.554688 110.785156 L 447.925781 110.785156 L 447.925781 123.824219 Z M 418.554688 109.785156 L 418.554688 96.742188 L 447.925781 96.742188 L 447.925781 109.785156 Z M 418.554688 95.742188 L 418.554688 82.699219 L 447.925781 82.699219 L 447.925781 95.742188 Z M 418.554688 81.699219 L 418.554688 68.660156 L 447.925781 68.660156 L 447.925781 81.699219 Z M 418.554688 67.660156 L 418.554688 54.617188 L 447.925781 54.617188 L 447.925781 67.660156 Z M 418.554688 53.617188 L 418.554688 40.574219 L 447.925781 40.574219 L 447.925781 53.617188 Z M 418.554688 39.574219 L 418.554688 26.535156 L 447.925781 26.535156 L 447.925781 39.574219 Z M 417.558594 39.574219 L 388.1875 39.574219 L 388.1875 26.535156 L 417.558594 26.535156 Z M 387.1875 39.574219 L 357.816406 39.574219 L 357.816406 26.535156 L 387.1875 26.535156 Z M 356.820312 39.574219 L 297.082031 39.574219 L 297.082031 26.535156 L 356.820312 26.535156 Z M 296.082031 39.574219 L 266.710938 39.574219 L 266.710938 26.535156 L 296.082031 26.535156 Z M 265.710938 39.574219 L 236.34375 39.574219 L 236.34375 26.535156 L 265.710938 26.535156 Z M 235.34375 39.574219 L 205.972656 39.574219 L 205.972656 26.535156 L 235.34375 26.535156 Z M 235.34375 40.574219 L 235.34375 53.617188 L 205.972656 53.617188 L 205.972656 40.574219 Z M 204.972656 53.617188 L 175.605469 53.617188 L 175.605469 40.574219 L 204.972656 40.574219 Z M 204.972656 54.617188 L 204.972656 67.660156 L 175.605469 67.660156 L 175.605469 54.617188 Z M 204.972656 68.660156 L 204.972656 81.699219 L 175.605469 81.699219 L 175.605469 68.660156 Z M 204.972656 82.699219 L 204.972656 95.742188 L 175.605469 95.742188 L 175.605469 82.699219 Z M 204.972656 96.742188 L 204.972656 109.785156 L 175.605469 109.785156 L 175.605469 96.742188 Z M 204.972656 110.785156 L 204.972656 123.824219 L 175.605469 123.824219 L 175.605469 110.785156 Z M 204.972656 124.824219 L 204.972656 137.867188 L 175.605469 137.867188 L 175.605469 124.824219 Z M 204.972656 138.867188 L 204.972656 151.910156 L 175.605469 151.910156 L 175.605469 138.867188 Z M 204.972656 152.910156 L 204.972656 165.949219 L 175.605469 165.949219 L 175.605469 152.910156 Z M 204.972656 166.949219 L 204.972656 179.992188 L 175.605469 179.992188 L 175.605469 166.949219 Z M 205.972656 166.949219 L 235.34375 166.949219 L 235.34375 179.992188 L 205.972656 179.992188 Z M 235.34375 180.992188 L 235.34375 194.035156 L 205.972656 194.035156 L 205.972656 180.992188 Z M 236.34375 180.992188 L 265.710938 180.992188 L 265.710938 194.035156 L 236.34375 194.035156 Z M 266.710938 180.992188 L 296.082031 180.992188 L 296.082031 194.035156 L 266.710938 194.035156 Z M 297.082031 180.992188 L 356.820312 180.992188 L 356.820312 194.035156 L 297.082031 194.035156 Z M 357.816406 180.992188 L 387.1875 180.992188 L 387.1875 194.035156 L 357.816406 194.035156 Z M 388.1875 180.992188 L 417.558594 180.992188 L 417.558594 194.035156 L 388.1875 194.035156 Z M 418.554688 180.992188 L 447.925781 180.992188 L 447.925781 194.035156 L 418.554688 194.035156 Z M 418.554688 179.992188 L 418.554688 166.949219 L 447.925781 166.949219 L 447.925781 179.992188 Z M 448.925781 166.949219 L 478.292969 166.949219 L 478.292969 179.992188 L 448.925781 179.992188 Z M 448.925781 165.949219 L 448.925781 152.910156 L 478.292969 152.910156 L 478.292969 165.949219 Z M 448.925781 151.910156 L 448.925781 138.867188 L 478.292969 138.867188 L 478.292969 151.910156 Z M 448.925781 137.867188 L 448.925781 124.824219 L 478.292969 124.824219 L 478.292969 137.867188 Z M 448.925781 123.824219 L 448.925781 110.785156 L 478.292969 110.785156 L 478.292969 123.824219 Z M 448.925781 109.785156 L 448.925781 96.742188 L 478.292969 96.742188 L 478.292969 109.785156 Z M 448.925781 95.742188 L 448.925781 82.699219 L 478.292969 82.699219 L 478.292969 95.742188 Z M 448.925781 81.699219 L 448.925781 68.660156 L 478.292969 68.660156 L 478.292969 81.699219 Z M 448.925781 67.660156 L 448.925781 54.617188 L 478.292969 54.617188 L 478.292969 67.660156 Z M 448.925781 53.617188 L 448.925781 40.574219 L 478.292969 40.574219 L 478.292969 53.617188 Z M 204.972656 26.535156 L 204.972656 39.574219 L 175.605469 39.574219 L 175.605469 26.535156 Z M 175.605469 180.992188 L 204.972656 180.992188 L 204.972656 194.035156 L 175.605469 194.035156 Z M 448.925781 194.035156 L 448.925781 180.992188 L 478.292969 180.992188 L 478.292969 194.035156 Z M 448.925781 194.035156 "/>
<path style=" stroke:none;fill-rule:nonzero;fill:rgb(24.705882%,23.921569%,33.72549%);fill-opacity:1;" d="M 128.738281 318.832031 L 0 318.832031 L 0 317.777344 L 128.929688 317.777344 Z M 128.738281 318.832031 "/>
<path style=" stroke:none;fill-rule:nonzero;fill:rgb(18.431373%,18.039216%,25.490196%);fill-opacity:1;" d="M 95.117188 169.863281 L 91.777344 248.867188 L 89.6875 284.398438 C 89.6875 284.398438 94.28125 291.921875 87.601562 292.757812 C 80.917969 293.59375 68.390625 291.503906 70.0625 287.324219 C 71.734375 283.144531 72.984375 283.144531 72.984375 283.144531 L 74.65625 243.015625 L 62.128906 193.691406 L 46.261719 246.777344 L 42.917969 284.816406 C 42.917969 284.816406 47.511719 290.667969 42.917969 291.921875 C 38.328125 293.175781 26.214844 293.175781 26.632812 289.414062 C 27.050781 285.652344 28.722656 285.652344 28.722656 285.652344 L 26.632812 175.296875 L 32.898438 165.683594 Z M 95.117188 169.863281 "/>
<path style=" stroke:none;fill-rule:nonzero;fill:rgb(18.431373%,18.039216%,25.490196%);fill-opacity:1;" d="M 85.929688 290.25 L 87.601562 300.703125 C 87.601562 300.703125 97.207031 320.765625 83.84375 320.765625 C 70.480469 320.765625 74.238281 312.824219 74.238281 312.824219 L 75.492188 290.25 Z M 85.929688 290.25 "/>
<path style=" stroke:none;fill-rule:nonzero;fill:rgb(18.431373%,18.039216%,25.490196%);fill-opacity:1;" d="M 29.140625 290.25 L 27.46875 300.703125 C 27.46875 300.703125 17.863281 320.765625 31.226562 320.765625 C 44.589844 320.765625 40.832031 312.824219 40.832031 312.824219 L 39.578125 290.25 Z M 29.140625 290.25 "/>
<path style=" stroke:none;fill-rule:nonzero;fill:rgb(100%,72.54902%,72.54902%);fill-opacity:1;" d="M 71.734375 51.566406 C 71.734375 51.566406 75.910156 66.613281 76.742188 66.613281 C 77.578125 66.613281 68.808594 78.320312 68.808594 78.320312 L 55.863281 85.425781 L 51.269531 66.195312 C 51.269531 66.195312 55.445312 55.746094 54.613281 50.3125 Z M 71.734375 51.566406 "/>
<path style=" stroke:none;fill-rule:nonzero;fill:rgb(100%,72.54902%,72.54902%);fill-opacity:1;" d="M 80.503906 41.953125 C 80.503906 50.492188 73.585938 57.417969 65.050781 57.417969 C 56.519531 57.417969 49.601562 50.492188 49.601562 41.953125 C 49.601562 33.410156 56.519531 26.484375 65.050781 26.484375 C 73.585938 26.484375 80.503906 33.410156 80.503906 41.953125 Z M 80.503906 41.953125 "/>
<path style=" stroke:none;fill-rule:nonzero;fill:rgb(34.117647%,35.294118%,53.72549%);fill-opacity:1;" d="M 62.964844 74.140625 L 75.308594 63.40625 L 82.589844 67.03125 L 98.457031 77.066406 C 98.457031 77.066406 94.28125 167.355469 96.371094 170.699219 C 96.371094 170.699219 91.777344 181.148438 64.632812 174.878906 C 37.492188 168.609375 30.390625 167.773438 30.390625 167.773438 L 36.238281 112.597656 L 29.140625 77.902344 L 52.984375 61.210938 L 60.457031 74.140625 Z M 62.964844 74.140625 "/>
<path style=" stroke:none;fill-rule:nonzero;fill:rgb(100%,72.54902%,72.54902%);fill-opacity:1;" d="M 22.039062 105.90625 L 18.28125 123.464844 L 18.28125 158.996094 C 18.28125 158.996094 23.710938 181.566406 27.886719 175.714844 C 32.0625 169.863281 31.976562 168.011719 31.976562 168.011719 L 26.632812 159.832031 L 29.140625 126.390625 L 35.796875 110.4375 Z M 22.039062 105.90625 "/>
<path style=" stroke:none;fill-rule:nonzero;fill:rgb(100%,72.54902%,72.54902%);fill-opacity:1;" d="M 91.921875 115.242188 L 96.355469 132.722656 L 94.300781 167.882812 L 87.894531 175.710938 C 87.894531 175.710938 87.554688 177.632812 90.902344 184.269531 C 94.25 190.90625 102.695312 168.09375 102.695312 168.09375 L 107.519531 131.082031 L 106.175781 112.304688 Z M 91.921875 115.242188 "/>
<path style=" stroke:none;fill-rule:nonzero;fill:rgb(18.431373%,18.039216%,25.490196%);fill-opacity:1;" d="M 50.4375 26.484375 C 50.4375 26.484375 55.445312 15.617188 65.050781 18.125 C 74.65625 20.632812 80.085938 24.394531 80.503906 28.15625 C 80.917969 31.917969 80.292969 37.5625 80.292969 37.5625 C 80.292969 37.5625 79.25 29.828125 72.566406 31.5 C 65.886719 33.171875 55.445312 31.917969 55.445312 31.917969 L 53.777344 46.96875 C 53.777344 46.96875 51.898438 44.25 49.808594 45.921875 C 47.722656 47.59375 43.753906 29.828125 50.4375 26.484375 Z M 50.4375 26.484375 "/>
<path style=" stroke:none;fill-rule:nonzero;fill:rgb(34.117647%,35.294118%,53.72549%);fill-opacity:1;" d="M 38.742188 77.066406 L 29.140625 77.902344 C 29.140625 77.902344 18.28125 107.578125 19.535156 108.414062 C 20.789062 109.25 35.820312 114.269531 37.910156 113.015625 C 39.996094 111.761719 38.742188 77.066406 38.742188 77.066406 Z M 38.742188 77.066406 "/>
<path style=" stroke:none;fill-rule:nonzero;fill:rgb(34.117647%,35.294118%,53.72549%);fill-opacity:1;" d="M 95.117188 77.902344 L 98.457031 77.066406 C 98.457031 77.066406 104.722656 85.007812 106.808594 94.203125 C 108.898438 103.398438 111.820312 112.597656 110.152344 112.597656 C 108.480469 112.597656 88.277344 118.035156 88.277344 118.035156 Z M 95.117188 77.902344 "/>
</g>
</svg>
