<?xml version="1.0" encoding="UTF-8"?>
<svg xmlns="http://www.w3.org/2000/svg" xmlns:xlink="http://www.w3.org/1999/xlink" width="532pt" height="358pt" viewBox="0 0 532 358" version="1.1">
<defs>
<filter id="alpha" filterUnits="objectBoundingBox" x="0%" y="0%" width="100%" height="100%">
  <feColorMatrix type="matrix" in="SourceGraphic" values="0 0 0 0 1 0 0 0 0 1 0 0 0 0 1 0 0 0 1 0"/>
</filter>
<mask id="mask0">
  <g filter="url(#alpha)">
<rect x="0" y="0" width="532" height="358" style="fill:rgb(0%,0%,0%);fill-opacity:0.2;stroke:none;"/>
  </g>
</mask>
<clipPath id="clip1">
  <rect x="0" y="0" width="532" height="358"/>
</clipPath>
<g id="surface5" clip-path="url(#clip1)">
<path style=" stroke:none;fill-rule:nonzero;fill:rgb(94.901961%,94.901961%,94.901961%);fill-opacity:1;" d="M 351.078125 228.46875 C 347.378906 227.066406 343.710938 225.609375 340.070312 224.09375 C 317.355469 214.6875 295.496094 203.332031 274.734375 190.160156 L 275.445312 190.160156 C 299.246094 205.191406 324.476562 217.832031 350.765625 227.894531 C 350.859375 228.089844 350.96875 228.273438 351.078125 228.46875 Z M 351.078125 228.46875 "/>
</g>
<mask id="mask1">
  <g filter="url(#alpha)">
<rect x="0" y="0" width="532" height="358" style="fill:rgb(0%,0%,0%);fill-opacity:0.2;stroke:none;"/>
  </g>
</mask>
<clipPath id="clip2">
  <rect x="0" y="0" width="532" height="358"/>
</clipPath>
<g id="surface8" clip-path="url(#clip2)">
<path style=" stroke:none;fill-rule:nonzero;fill:rgb(94.901961%,94.901961%,94.901961%);fill-opacity:1;" d="M 357.242188 244.832031 C 348.230469 241.828125 339.320312 238.488281 330.5 234.816406 C 307.550781 225.320312 285.476562 213.835938 264.523438 200.5 C 260.574219 197.988281 256.820312 195.507812 253.261719 193.066406 L 253.761719 192.941406 C 257.238281 195.3125 260.90625 197.730469 264.773438 200.191406 C 293.679688 218.5625 324.6875 233.390625 357.136719 244.351562 C 357.175781 244.511719 357.207031 244.671875 357.242188 244.832031 Z M 357.242188 244.832031 "/>
</g>
<mask id="mask2">
  <g filter="url(#alpha)">
<rect x="0" y="0" width="532" height="358" style="fill:rgb(0%,0%,0%);fill-opacity:0.2;stroke:none;"/>
  </g>
</mask>
<clipPath id="clip3">
  <rect x="0" y="0" width="532" height="358"/>
</clipPath>
<g id="surface11" clip-path="url(#clip3)">
<path style=" stroke:none;fill-rule:nonzero;fill:rgb(94.901961%,94.901961%,94.901961%);fill-opacity:1;" d="M 358.238281 258.511719 C 358.238281 258.65625 358.238281 258.800781 358.238281 258.941406 C 345.660156 255.105469 333.242188 250.652344 320.976562 245.582031 C 298.023438 236.078125 275.945312 224.585938 254.988281 211.238281 C 248.359375 207.019531 242.273438 202.882812 236.757812 198.9375 L 237.167969 198.742188 C 242.636719 202.652344 248.679688 206.753906 255.234375 210.929688 C 287.292969 231.320312 321.933594 247.320312 358.238281 258.511719 Z M 358.238281 258.511719 "/>
</g>
<mask id="mask3">
  <g filter="url(#alpha)">
<rect x="0" y="0" width="532" height="358" style="fill:rgb(0%,0%,0%);fill-opacity:0.2;stroke:none;"/>
  </g>
</mask>
<clipPath id="clip4">
  <rect x="0" y="0" width="532" height="358"/>
</clipPath>
<g id="surface14" clip-path="url(#clip4)">
<path style=" stroke:none;fill-rule:nonzero;fill:rgb(94.901961%,94.901961%,94.901961%);fill-opacity:1;" d="M 355.925781 271.398438 C 355.890625 271.535156 355.84375 271.664062 355.804688 271.792969 C 340.722656 267.488281 325.898438 262.320312 311.402344 256.324219 C 288.453125 246.820312 266.375 235.332031 245.425781 221.984375 C 237.1875 216.742188 229.796875 211.625 223.285156 206.855469 L 223.621094 206.609375 C 230.125 211.359375 237.472656 216.453125 245.671875 221.675781 C 279.863281 243.425781 316.988281 260.171875 355.925781 271.398438 Z M 355.925781 271.398438 "/>
</g>
<mask id="mask4">
  <g filter="url(#alpha)">
<rect x="0" y="0" width="532" height="358" style="fill:rgb(0%,0%,0%);fill-opacity:0.2;stroke:none;"/>
  </g>
</mask>
<clipPath id="clip5">
  <rect x="0" y="0" width="532" height="358"/>
</clipPath>
<g id="surface17" clip-path="url(#clip5)">
<path style=" stroke:none;fill-rule:nonzero;fill:rgb(94.901961%,94.901961%,94.901961%);fill-opacity:1;" d="M 350.667969 283.351562 L 350.453125 283.710938 C 333.921875 279.183594 317.691406 273.625 301.855469 267.066406 C 278.902344 257.5625 256.824219 246.074219 235.871094 232.730469 C 227.042969 227.105469 219.175781 221.625 212.347656 216.5625 C 212.429688 216.46875 212.519531 216.367188 212.613281 216.273438 C 219.453125 221.328125 227.3125 226.785156 236.136719 232.417969 C 262.347656 249.117188 301.601562 269.890625 350.667969 283.351562 Z M 350.667969 283.351562 "/>
</g>
<mask id="mask5">
  <g filter="url(#alpha)">
<rect x="0" y="0" width="532" height="358" style="fill:rgb(0%,0%,0%);fill-opacity:0.2;stroke:none;"/>
  </g>
</mask>
<clipPath id="clip6">
  <rect x="0" y="0" width="532" height="358"/>
</clipPath>
<g id="surface20" clip-path="url(#clip6)">
<path style=" stroke:none;fill-rule:nonzero;fill:rgb(94.901961%,94.901961%,94.901961%);fill-opacity:1;" d="M 342.453125 294.457031 L 342.140625 294.785156 C 325.183594 290.203125 308.535156 284.535156 292.304688 277.8125 C 269.355469 268.308594 247.277344 256.820312 226.324219 243.476562 C 217.953125 238.136719 210.449219 232.933594 203.847656 228.089844 C 203.910156 227.972656 203.976562 227.859375 204.046875 227.742188 C 210.648438 232.59375 218.175781 237.8125 226.566406 243.160156 C 253.03125 260.019531 292.765625 281.011719 342.453125 294.457031 Z M 342.453125 294.457031 "/>
</g>
<mask id="mask6">
  <g filter="url(#alpha)">
<rect x="0" y="0" width="532" height="358" style="fill:rgb(0%,0%,0%);fill-opacity:0.2;stroke:none;"/>
  </g>
</mask>
<clipPath id="clip7">
  <rect x="0" y="0" width="532" height="358"/>
</clipPath>
<g id="surface23" clip-path="url(#clip7)">
<path style=" stroke:none;fill-rule:nonzero;fill:rgb(94.901961%,94.901961%,94.901961%);fill-opacity:1;" d="M 330.867188 304.640625 C 330.726562 304.746094 330.582031 304.851562 330.441406 304.945312 C 314.226562 300.464844 298.300781 294.992188 282.753906 288.558594 C 259.804688 279.054688 237.726562 267.566406 216.773438 254.21875 C 210.015625 249.914062 203.816406 245.707031 198.214844 241.675781 C 198.25 241.542969 198.285156 241.40625 198.328125 241.273438 C 203.964844 245.3125 210.207031 249.570312 217.023438 253.910156 C 243.125 270.53125 282.128906 291.175781 330.867188 304.640625 Z M 330.867188 304.640625 "/>
</g>
<mask id="mask7">
  <g filter="url(#alpha)">
<rect x="0" y="0" width="532" height="358" style="fill:rgb(0%,0%,0%);fill-opacity:0.2;stroke:none;"/>
  </g>
</mask>
<clipPath id="clip8">
  <rect x="0" y="0" width="532" height="358"/>
</clipPath>
<g id="surface26" clip-path="url(#clip8)">
<path style=" stroke:none;fill-rule:nonzero;fill:rgb(94.901961%,94.901961%,94.901961%);fill-opacity:1;" d="M 314.855469 313.546875 L 314.253906 313.796875 C 300.328125 309.695312 286.628906 304.855469 273.214844 299.304688 C 260.203125 293.921875 247.386719 287.847656 234.886719 281.152344 C 225.476562 276.105469 216.261719 270.710938 207.234375 264.964844 C 203.460938 262.5625 199.867188 260.191406 196.453125 257.855469 C 196.453125 257.691406 196.453125 257.53125 196.453125 257.355469 C 199.953125 259.742188 203.636719 262.171875 207.511719 264.644531 C 215.734375 269.886719 225.242188 275.523438 235.933594 281.21875 C 261.082031 294.628906 287.523438 305.460938 314.855469 313.546875 Z M 314.855469 313.546875 "/>
</g>
<mask id="mask8">
  <g filter="url(#alpha)">
<rect x="0" y="0" width="532" height="358" style="fill:rgb(0%,0%,0%);fill-opacity:0.2;stroke:none;"/>
  </g>
</mask>
<clipPath id="clip9">
  <rect x="0" y="0" width="532" height="358"/>
</clipPath>
<g id="surface29" clip-path="url(#clip9)">
<path style=" stroke:none;fill-rule:nonzero;fill:rgb(94.901961%,94.901961%,94.901961%);fill-opacity:1;" d="M 291.523438 319.972656 L 290.566406 320.101562 C 281.503906 317.066406 272.527344 313.714844 263.644531 310.042969 C 244.417969 302.082031 225.800781 292.71875 207.945312 282.027344 C 205.714844 280.695312 203.496094 279.34375 201.289062 277.972656 L 201 277.328125 C 203.429688 278.84375 205.964844 280.386719 208.597656 281.957031 C 234.800781 297.5625 262.601562 310.304688 291.523438 319.972656 Z M 291.523438 319.972656 "/>
</g>
<mask id="mask9">
  <g filter="url(#alpha)">
<rect x="0" y="0" width="532" height="358" style="fill:rgb(0%,0%,0%);fill-opacity:0.101961;stroke:none;"/>
  </g>
</mask>
<clipPath id="clip10">
  <rect x="0" y="0" width="532" height="358"/>
</clipPath>
<g id="surface32" clip-path="url(#clip10)">
<path style=" stroke:none;fill-rule:nonzero;fill:rgb(0%,0%,0%);fill-opacity:1;" d="M 316.84375 312.675781 C 316.1875 312.972656 315.527344 313.261719 314.839844 313.546875 L 314.242188 313.796875 C 306.957031 316.796875 299.324219 318.871094 291.523438 319.972656 L 290.566406 320.101562 C 286.183594 320.679688 281.765625 320.96875 277.34375 320.96875 C 244.574219 320.96875 216.347656 305.234375 203.613281 282.601562 C 205.042969 282.378906 206.480469 282.195312 207.921875 282.027344 L 208.570312 281.957031 C 212.445312 281.546875 216.347656 281.316406 220.242188 281.152344 C 225.113281 280.898438 229.996094 280.898438 234.867188 281.152344 C 235.207031 281.152344 235.546875 281.191406 235.867188 281.222656 C 239.1875 281.457031 242.484375 281.941406 245.730469 282.664062 C 255.617188 284.90625 264.671875 289.78125 273.652344 294.480469 C 287.519531 301.722656 301.699219 308.78125 316.84375 312.675781 Z M 316.84375 312.675781 "/>
</g>
<mask id="mask10">
  <g filter="url(#alpha)">
<rect x="0" y="0" width="532" height="358" style="fill:rgb(0%,0%,0%);fill-opacity:0.101961;stroke:none;"/>
  </g>
</mask>
<clipPath id="clip11">
  <rect x="0" y="0" width="532" height="358"/>
</clipPath>
<g id="surface35" clip-path="url(#clip11)">
<path style=" stroke:none;fill-rule:nonzero;fill:rgb(0%,0%,0%);fill-opacity:1;" d="M 350.746094 227.875 C 337.84375 205.578125 309.832031 190.121094 277.355469 190.121094 C 276.710938 190.121094 276.066406 190.121094 275.425781 190.121094 L 274.714844 190.121094 C 267.65625 190.292969 260.640625 191.222656 253.785156 192.898438 L 253.28125 193.023438 C 247.75 194.414062 242.355469 196.3125 237.171875 198.703125 L 236.761719 198.898438 C 232.164062 201.050781 227.769531 203.617188 223.640625 206.570312 L 223.304688 206.8125 C 219.460938 209.585938 215.894531 212.730469 212.660156 216.195312 C 212.238281 220.46875 211.519531 224.648438 209.65625 228.5 C 208.347656 231.203125 206.988281 233.804688 208.847656 236.511719 C 210.09375 238.328125 212.789062 240.632812 215.085938 240.722656 C 221.398438 240.976562 224.90625 232.535156 227.878906 228.328125 C 232.433594 221.890625 239.183594 217.417969 245.78125 213.097656 C 248.597656 211.25 251.445312 209.386719 254.625 208.28125 C 257.304688 207.414062 260.09375 206.921875 262.90625 206.824219 C 270.578125 206.394531 278.421875 207.558594 285.429688 210.738281 C 293.4375 214.371094 300.542969 220.628906 309.28125 221.496094 C 313.238281 221.886719 317.289062 221.117188 321.167969 222.023438 C 328.058594 223.640625 332.835938 230.144531 339.542969 232.417969 C 343.882812 233.890625 348.550781 233.421875 352.964844 231.980469 C 352.394531 230.777344 351.785156 229.59375 351.128906 228.429688 C 350.96875 228.273438 350.859375 228.089844 350.746094 227.875 Z M 350.746094 227.875 "/>
</g>
<mask id="mask11">
  <g filter="url(#alpha)">
<rect x="0" y="0" width="532" height="358" style="fill:rgb(0%,0%,0%);fill-opacity:0.101961;stroke:none;"/>
  </g>
</mask>
<clipPath id="clip12">
  <rect x="0" y="0" width="532" height="358"/>
</clipPath>
<g id="surface38" clip-path="url(#clip12)">
<path style=" stroke:none;fill-rule:nonzero;fill:rgb(0%,0%,0%);fill-opacity:1;" d="M 154.464844 252.964844 C 152.09375 255.46875 149.429688 257.664062 146.984375 260.09375 C 137.917969 269.105469 132.109375 280.816406 123.960938 290.636719 C 121.765625 293.285156 119.378906 295.828125 117.742188 298.851562 C 116.105469 301.875 115.285156 305.558594 116.453125 308.792969 C 117.457031 311.566406 119.761719 313.644531 122.003906 315.5625 C 123.386719 316.832031 124.90625 317.945312 126.535156 318.878906 C 130.296875 320.882812 134.75 320.992188 139.015625 321.058594 C 141.367188 321.09375 144.234375 320.828125 145.242188 318.699219 C 141.429688 316.882812 137.917969 314.492188 134.832031 311.609375 C 133.066406 309.957031 131.398438 308.066406 130.683594 305.757812 C 129.460938 301.820312 131.269531 297.535156 133.824219 294.304688 C 136.382812 291.078125 139.679688 288.488281 142.179688 285.214844 C 144.675781 281.9375 146.289062 278.179688 149.296875 275.503906 C 151.378906 273.65625 153.964844 272.5 156.300781 270.964844 C 159.714844 268.714844 162.53125 265.691406 165.308594 262.695312 L 180.074219 246.808594 C 180.429688 246.503906 180.675781 246.089844 180.769531 245.632812 C 180.828125 245.039062 180.390625 244.515625 179.96875 244.085938 C 176.757812 240.785156 170.699219 234.992188 166.285156 239.339844 C 162.03125 243.523438 158.585938 248.617188 154.464844 252.964844 Z M 154.464844 252.964844 "/>
</g>
<mask id="mask12">
  <g filter="url(#alpha)">
<rect x="0" y="0" width="532" height="358" style="fill:rgb(0%,0%,0%);fill-opacity:0.101961;stroke:none;"/>
  </g>
</mask>
<clipPath id="clip13">
  <rect x="0" y="0" width="532" height="358"/>
</clipPath>
<g id="surface41" clip-path="url(#clip13)">
<path style=" stroke:none;fill-rule:nonzero;fill:rgb(0%,0%,0%);fill-opacity:1;" d="M 175.566406 224.082031 C 178.542969 223.453125 181.75 225.039062 184.628906 224.054688 C 186.261719 223.492188 187.507812 222.191406 188.683594 220.929688 L 193.488281 215.804688 C 194.84375 214.359375 196.222656 212.882812 197.058594 211.078125 C 197.800781 209.488281 198.0625 207.730469 198.421875 206.007812 C 199.300781 201.601562 200.808594 197.085938 204.117188 194.050781 C 208.242188 190.253906 214.597656 189.542969 219.890625 191.355469 C 225.1875 193.167969 229.496094 197.214844 232.664062 201.84375 C 229.832031 205.246094 226.65625 208.390625 223.832031 211.796875 C 222.925781 212.988281 221.863281 214.050781 220.671875 214.957031 C 219.355469 215.761719 217.933594 216.386719 216.453125 216.824219 C 211.363281 218.625 205.945312 221.234375 203.847656 226.214844 C 203.117188 227.949219 202.84375 229.835938 202.445312 231.671875 C 201.675781 235.148438 200.269531 238.589844 197.726562 241.078125 C 195.183594 243.566406 191.34375 244.925781 187.957031 243.851562 C 184.207031 242.660156 181.910156 238.984375 179.980469 235.558594 C 177.925781 231.984375 176.4375 228.113281 175.566406 224.082031 Z M 175.566406 224.082031 "/>
</g>
<mask id="mask13">
  <g filter="url(#alpha)">
<rect x="0" y="0" width="532" height="358" style="fill:rgb(0%,0%,0%);fill-opacity:0.101961;stroke:none;"/>
  </g>
</mask>
<clipPath id="clip14">
  <rect x="0" y="0" width="532" height="358"/>
</clipPath>
<g id="surface44" clip-path="url(#clip14)">
<path style=" stroke:none;fill-rule:nonzero;fill:rgb(0%,0%,0%);fill-opacity:1;" d="M 305.941406 204.195312 C 324.75 210.929688 343.449219 218.90625 358.992188 231.484375 C 366.109375 237.246094 372.449219 243.894531 379.214844 250.070312 C 382.757812 253.304688 386.417969 256.402344 390.078125 259.507812 L 416.046875 281.539062 C 419.257812 284.265625 422.488281 287 426.054688 289.285156 C 434.449219 294.679688 444.457031 297.425781 452.675781 303.226562 C 452.660156 306.226562 453.152344 309.203125 454.125 312.035156 C 454.890625 314.179688 456.992188 315.550781 459.261719 315.386719 C 472.203125 314.640625 485.324219 320.921875 498.363281 319.339844 C 499.125 319.257812 499.804688 318.824219 500.199219 318.164062 C 501.074219 316.632812 499.578125 315.199219 498.269531 314.285156 L 480.566406 301.886719 C 477.648438 299.84375 474.730469 297.800781 471.757812 295.84375 C 461.007812 288.773438 449.527344 282.769531 439.5625 274.652344 C 437.4375 272.921875 435.390625 271.097656 433.335938 269.269531 C 422.488281 259.628906 411.632812 249.972656 401.347656 239.730469 C 386.398438 224.835938 372.261719 208.214844 357.441406 193.191406 C 356.03125 191.691406 354.511719 190.300781 352.898438 189.027344 C 351.316406 187.902344 349.660156 186.886719 347.9375 185.988281 L 329.125 175.648438 C 326.277344 174.082031 323.117188 172.464844 319.941406 173.082031 C 318.339844 172.6875 316.652344 173.121094 315.4375 174.234375 C 314.226562 175.351562 313.433594 176.828125 312.632812 178.273438 C 311.589844 180.027344 310.765625 181.902344 310.179688 183.855469 C 309.511719 186.515625 309.730469 189.363281 308.957031 191.976562 C 308.453125 193.707031 307.523438 195.28125 306.894531 196.984375 C 306.066406 199.292969 305.742188 201.75 305.941406 204.195312 Z M 305.941406 204.195312 "/>
</g>
<mask id="mask14">
  <g filter="url(#alpha)">
<rect x="0" y="0" width="532" height="358" style="fill:rgb(0%,0%,0%);fill-opacity:0.0313725;stroke:none;"/>
  </g>
</mask>
<clipPath id="clip15">
  <rect x="0" y="0" width="532" height="358"/>
</clipPath>
<g id="surface47" clip-path="url(#clip15)">
<path style=" stroke:none;fill-rule:nonzero;fill:rgb(0%,0%,0%);fill-opacity:1;" d="M 93.628906 111.070312 C 90.800781 110.53125 87.878906 110.847656 85.234375 111.980469 C 82.023438 113.40625 78.359375 113.394531 75.15625 111.957031 C 71.363281 110.292969 67.027344 110.378906 63.304688 112.191406 C 62.25 112.746094 61.082031 113.039062 59.890625 113.042969 C 55.085938 113.042969 51.089844 108.199219 50.257812 101.8125 C 51.21875 101.113281 52.03125 100.234375 52.660156 99.222656 C 55.472656 94.683594 59.839844 91.761719 64.742188 91.761719 C 69.640625 91.761719 73.949219 94.640625 76.753906 99.136719 C 78.464844 101.90625 81.503906 103.570312 84.757812 103.523438 L 84.886719 103.523438 C 88.703125 103.523438 92.015625 106.59375 93.628906 111.070312 Z M 93.628906 111.070312 "/>
</g>
<mask id="mask15">
  <g filter="url(#alpha)">
<rect x="0" y="0" width="532" height="358" style="fill:rgb(0%,0%,0%);fill-opacity:0.0313725;stroke:none;"/>
  </g>
</mask>
<clipPath id="clip16">
  <rect x="0" y="0" width="532" height="358"/>
</clipPath>
<g id="surface50" clip-path="url(#clip16)">
<path style=" stroke:none;fill-rule:nonzero;fill:rgb(0%,0%,0%);fill-opacity:1;" d="M 239.582031 130.007812 C 238.171875 129.738281 236.714844 129.898438 235.394531 130.460938 C 234.609375 130.808594 233.753906 130.988281 232.894531 130.992188 C 232.023438 130.992188 231.160156 130.808594 230.367188 130.453125 C 228.472656 129.625 226.3125 129.667969 224.457031 130.574219 C 223.929688 130.851562 223.347656 130.996094 222.753906 130.996094 C 220.355469 130.996094 218.363281 128.578125 217.949219 125.394531 C 218.429688 125.046875 218.832031 124.605469 219.144531 124.101562 C 220.550781 121.835938 222.730469 120.382812 225.152344 120.382812 C 227.574219 120.382812 229.746094 121.820312 231.15625 124.058594 C 232.015625 125.441406 233.535156 126.273438 235.160156 126.25 L 235.222656 126.25 C 237.121094 126.242188 238.78125 127.773438 239.582031 130.007812 Z M 239.582031 130.007812 "/>
</g>
<mask id="mask16">
  <g filter="url(#alpha)">
<rect x="0" y="0" width="532" height="358" style="fill:rgb(0%,0%,0%);fill-opacity:0.0313725;stroke:none;"/>
  </g>
</mask>
<clipPath id="clip17">
  <rect x="0" y="0" width="532" height="358"/>
</clipPath>
<g id="surface53" clip-path="url(#clip17)">
<path style=" stroke:none;fill-rule:nonzero;fill:rgb(0%,0%,0%);fill-opacity:1;" d="M 277.210938 59.066406 C 279.476562 58.636719 281.816406 58.890625 283.9375 59.796875 C 286.503906 60.945312 289.441406 60.945312 292.007812 59.796875 C 295.054688 58.464844 298.527344 58.53125 301.519531 59.984375 C 302.359375 60.433594 303.296875 60.667969 304.25 60.667969 C 308.097656 60.667969 311.300781 56.789062 311.972656 51.65625 C 311.203125 51.097656 310.546875 50.390625 310.046875 49.578125 C 307.789062 45.945312 304.289062 43.605469 300.367188 43.605469 C 296.445312 43.605469 292.984375 45.914062 290.726562 49.515625 C 289.355469 51.722656 286.929688 53.050781 284.332031 53.019531 L 284.230469 53.019531 C 281.160156 53.023438 278.511719 55.484375 277.210938 59.066406 Z M 277.210938 59.066406 "/>
</g>
<mask id="mask17">
  <g filter="url(#alpha)">
<rect x="0" y="0" width="532" height="358" style="fill:rgb(0%,0%,0%);fill-opacity:0.101961;stroke:none;"/>
  </g>
</mask>
<clipPath id="clip18">
  <rect x="0" y="0" width="532" height="358"/>
</clipPath>
<g id="surface56" clip-path="url(#clip18)">
<path style=" stroke:none;fill-rule:nonzero;fill:rgb(0%,0%,0%);fill-opacity:1;" d="M 65.050781 307.285156 C 65.0625 308.996094 64.894531 310.707031 64.550781 312.386719 C 64.480469 312.703125 64.410156 313.011719 64.339844 313.3125 C 64.117188 313.3125 63.898438 313.3125 63.675781 313.289062 C 62.046875 313.195312 60.429688 312.972656 58.839844 312.621094 C 57.429688 313.0625 55.988281 313.398438 54.527344 313.621094 C 53.40625 313.792969 52.277344 313.898438 51.148438 313.9375 C 50.769531 313.9375 50.386719 313.9375 50.007812 313.9375 C 48.652344 313.941406 47.300781 313.847656 45.957031 313.667969 C 43.789062 313.378906 41.660156 312.851562 39.605469 312.089844 C 38.480469 312.464844 37.335938 312.773438 36.175781 313.011719 C 36.125 312.800781 36.078125 312.589844 36.027344 312.382812 C 35.675781 310.703125 35.5 308.992188 35.503906 307.277344 C 35.503906 296.585938 42.125 287.917969 50.289062 287.917969 C 58.449219 287.917969 65.050781 296.589844 65.050781 307.285156 Z M 65.050781 307.285156 "/>
</g>
<mask id="mask18">
  <g filter="url(#alpha)">
<rect x="0" y="0" width="532" height="358" style="fill:rgb(0%,0%,0%);fill-opacity:0.101961;stroke:none;"/>
  </g>
</mask>
<clipPath id="clip19">
  <rect x="0" y="0" width="532" height="358"/>
</clipPath>
<g id="surface59" clip-path="url(#clip19)">
<path style=" stroke:none;fill-rule:nonzero;fill:rgb(0%,0%,0%);fill-opacity:1;" d="M 96.070312 276.792969 C 86.886719 275.050781 77.472656 274.929688 68.25 276.4375 C 57.808594 278.167969 47.140625 281.96875 36.929688 279.191406 C 30.925781 277.558594 25.75 273.789062 19.914062 271.679688 C 14.261719 269.710938 8.171875 269.351562 2.328125 270.648438 C -2.226562 281.53125 0.00390625 294.074219 8.027344 302.722656 C 16.050781 311.371094 28.390625 314.523438 39.578125 310.789062 C 45.757812 313.058594 52.511719 313.242188 58.804688 311.308594 C 67.699219 313.265625 76.996094 311.085938 84.097656 305.382812 C 91.195312 299.675781 95.328125 291.0625 95.339844 281.953125 C 95.339844 281.28125 95.316406 280.621094 95.269531 279.949219 C 95.597656 278.914062 95.863281 277.859375 96.070312 276.792969 Z M 96.070312 276.792969 "/>
</g>
</defs>
<g id="surface1">
<path style=" stroke:none;fill-rule:nonzero;fill:rgb(94.901961%,94.901961%,94.901961%);fill-opacity:1;" d="M 500.332031 87.328125 C 501.871094 85.367188 503.273438 83.304688 504.523438 81.148438 L 474.9375 76.292969 L 506.9375 76.527344 C 513.144531 63.023438 513.515625 47.554688 507.96875 33.765625 L 465.035156 56.046875 L 504.628906 26.933594 C 494.519531 9.457031 475.5 -0.910156 455.339844 0.0625 C 435.175781 1.039062 417.25 13.195312 408.871094 31.566406 C 400.492188 49.941406 403.066406 71.453125 415.546875 87.328125 C 413.148438 90.375 411.085938 93.675781 409.394531 97.164062 L 447.800781 117.128906 L 406.851562 103.378906 C 401.007812 120.65625 404.273438 139.714844 415.539062 154.054688 C 403.882812 168.886719 400.8125 188.734375 407.445312 206.398438 C 414.078125 224.0625 429.449219 236.976562 447.984375 240.460938 C 447.273438 242.472656 446.910156 244.59375 446.921875 246.730469 C 446.886719 249.890625 447.699219 253 449.265625 255.742188 C 446.136719 261.34375 446.136719 268.167969 449.265625 273.765625 C 446.136719 279.367188 446.136719 286.191406 449.265625 291.792969 C 446.136719 297.394531 446.136719 304.21875 449.265625 309.816406 C 447.699219 312.558594 446.886719 315.671875 446.921875 318.832031 C 446.921875 326.976562 451.960938 333.574219 458.179688 333.574219 C 464.402344 333.574219 469.441406 326.976562 469.441406 318.832031 C 469.472656 315.671875 468.660156 312.558594 467.089844 309.816406 C 470.226562 304.21875 470.226562 297.390625 467.089844 291.792969 C 470.226562 286.195312 470.226562 279.367188 467.089844 273.765625 C 470.226562 268.167969 470.226562 261.339844 467.089844 255.742188 C 468.660156 253 469.472656 249.890625 469.441406 246.730469 C 469.449219 244.5625 469.078125 242.414062 468.34375 240.375 C 486.769531 236.75 501.984375 223.796875 508.511719 206.179688 C 515.039062 188.566406 511.9375 168.820312 500.332031 154.054688 C 515.722656 134.476562 515.722656 106.902344 500.332031 87.328125 Z M 500.332031 87.328125 "/>
<path style=" stroke:none;fill-rule:nonzero;fill:rgb(94.901961%,94.901961%,94.901961%);fill-opacity:1;" d="M 321.96875 144.757812 C 320.941406 143.445312 320.003906 142.066406 319.164062 140.625 L 338.949219 137.375 L 317.554688 137.53125 C 313.402344 128.503906 313.152344 118.160156 316.863281 108.941406 L 345.574219 123.84375 L 319.101562 104.371094 C 325.851562 92.660156 338.574219 85.707031 352.070312 86.351562 C 365.570312 87 377.570312 95.140625 383.171875 107.441406 C 388.769531 119.746094 387.027344 134.148438 378.65625 144.757812 C 380.261719 146.796875 381.640625 149 382.769531 151.335938 L 357.085938 164.683594 L 384.480469 155.488281 C 388.394531 167.039062 386.207031 179.789062 378.664062 189.375 C 386.464844 199.292969 388.519531 212.5625 384.085938 224.375 C 379.652344 236.191406 369.371094 244.828125 356.976562 247.15625 C 357.449219 248.5 357.691406 249.917969 357.6875 251.347656 C 357.703125 253.453125 357.164062 255.527344 356.113281 257.355469 C 358.210938 261.097656 358.210938 265.664062 356.113281 269.40625 C 358.210938 273.152344 358.210938 277.71875 356.113281 281.464844 C 358.210938 285.207031 358.210938 289.769531 356.113281 293.515625 C 357.164062 295.34375 357.703125 297.417969 357.6875 299.523438 C 357.6875 304.964844 354.316406 309.382812 350.179688 309.382812 C 346.039062 309.382812 342.671875 304.964844 342.671875 299.523438 C 342.652344 297.417969 343.195312 295.34375 344.242188 293.515625 C 342.148438 289.769531 342.148438 285.207031 344.242188 281.464844 C 342.148438 277.71875 342.148438 273.152344 344.242188 269.40625 C 342.148438 265.664062 342.148438 261.097656 344.242188 257.355469 C 343.195312 255.527344 342.652344 253.453125 342.671875 251.347656 C 342.667969 249.898438 342.917969 248.457031 343.40625 247.09375 C 331.085938 244.671875 320.914062 236.011719 316.546875 224.230469 C 312.179688 212.453125 314.25 199.25 322.011719 189.375 C 311.722656 176.285156 311.722656 157.847656 322.011719 144.757812 Z M 321.96875 144.757812 "/>
<path style=" stroke:none;fill-rule:nonzero;fill:rgb(94.901961%,94.901961%,94.901961%);fill-opacity:1;" d="M 532.003906 326.496094 C 532.003906 309.074219 419.78125 294.953125 281.34375 294.953125 C 142.910156 294.953125 30.683594 309.074219 30.683594 326.496094 C 30.683594 343.917969 142.910156 358.039062 281.34375 358.039062 C 419.78125 358.039062 532.003906 343.917969 532.003906 326.496094 Z M 532.003906 326.496094 "/>
<path style=" stroke:none;fill-rule:nonzero;fill:rgb(38.823529%,59.607843%,100%);fill-opacity:1;" d="M 358.320312 255.546875 C 358.320312 256.546875 358.292969 257.550781 358.238281 258.511719 C 358.238281 258.65625 358.238281 258.796875 358.238281 258.941406 C 357.96875 263.171875 357.203125 267.355469 355.949219 271.402344 C 355.914062 271.527344 355.871094 271.664062 355.828125 271.789062 C 354.546875 275.820312 352.824219 279.695312 350.695312 283.351562 L 350.480469 283.710938 C 348.191406 287.5625 345.507812 291.164062 342.472656 294.457031 L 342.160156 294.785156 C 338.75 298.449219 334.972656 301.75 330.886719 304.640625 C 330.746094 304.746094 330.601562 304.851562 330.460938 304.945312 C 326.179688 307.945312 321.628906 310.53125 316.863281 312.675781 C 316.207031 312.972656 315.546875 313.261719 314.859375 313.546875 L 314.261719 313.796875 C 306.96875 316.800781 299.332031 318.875 291.523438 319.972656 L 290.566406 320.101562 C 286.183594 320.679688 281.765625 320.96875 277.34375 320.96875 C 244.574219 320.96875 216.347656 305.234375 203.613281 282.601562 C 202.753906 281.085938 201.972656 279.546875 201.265625 277.972656 L 200.972656 277.328125 C 198.269531 271.171875 196.730469 264.570312 196.433594 257.855469 C 196.433594 257.691406 196.433594 257.53125 196.433594 257.355469 C 196.433594 256.753906 196.410156 256.148438 196.410156 255.542969 C 196.40625 250.859375 197.019531 246.199219 198.230469 241.675781 C 198.265625 241.539062 198.300781 241.402344 198.339844 241.265625 C 199.613281 236.660156 201.464844 232.230469 203.847656 228.089844 C 203.910156 227.972656 203.976562 227.851562 204.046875 227.738281 C 206.394531 223.726562 209.171875 219.980469 212.335938 216.574219 C 212.417969 216.46875 212.507812 216.371094 212.601562 216.277344 L 212.640625 216.238281 C 213.035156 215.816406 213.4375 215.390625 213.847656 214.976562 L 214.460938 214.355469 C 214.867188 213.949219 215.28125 213.554688 215.699219 213.152344 L 215.722656 213.152344 C 216.722656 212.210938 217.742188 211.296875 218.78125 210.414062 C 220.222656 209.191406 221.726562 208.015625 223.285156 206.882812 L 223.621094 206.632812 C 227.753906 203.683594 232.144531 201.121094 236.742188 198.96875 C 236.878906 198.902344 237.019531 198.832031 237.152344 198.777344 C 242.332031 196.382812 247.726562 194.484375 253.261719 193.101562 C 253.4375 193.050781 253.609375 193.007812 253.761719 192.96875 C 260.621094 191.296875 267.636719 190.363281 274.691406 190.191406 C 274.929688 190.191406 275.164062 190.191406 275.402344 190.191406 C 276.042969 190.191406 276.691406 190.164062 277.335938 190.164062 C 309.8125 190.164062 337.824219 205.621094 350.726562 227.917969 C 350.839844 228.117188 350.949219 228.320312 351.066406 228.515625 L 351.566406 229.390625 C 351.839844 229.890625 352.101562 230.390625 352.359375 230.921875 C 352.480469 231.164062 352.597656 231.398438 352.710938 231.636719 C 352.78125 231.777344 352.855469 231.917969 352.921875 232.0625 C 354.808594 235.992188 356.226562 240.128906 357.140625 244.390625 C 357.179688 244.554688 357.210938 244.714844 357.246094 244.890625 C 357.960938 248.398438 358.320312 251.96875 358.320312 255.546875 Z M 358.320312 255.546875 "/>
<use xlink:href="#surface5" mask="url(#mask0)"/>
<use xlink:href="#surface8" mask="url(#mask1)"/>
<use xlink:href="#surface11" mask="url(#mask2)"/>
<use xlink:href="#surface14" mask="url(#mask3)"/>
<use xlink:href="#surface17" mask="url(#mask4)"/>
<use xlink:href="#surface20" mask="url(#mask5)"/>
<use xlink:href="#surface23" mask="url(#mask6)"/>
<use xlink:href="#surface26" mask="url(#mask7)"/>
<use xlink:href="#surface29" mask="url(#mask8)"/>
<use xlink:href="#surface32" mask="url(#mask9)"/>
<use xlink:href="#surface35" mask="url(#mask10)"/>
<path style=" stroke:none;fill-rule:nonzero;fill:rgb(62.745098%,38.039216%,41.568627%);fill-opacity:1;" d="M 154.464844 252.964844 C 152.09375 255.46875 149.429688 257.664062 146.984375 260.09375 C 137.917969 269.105469 132.109375 280.816406 123.960938 290.636719 C 121.765625 293.285156 119.378906 295.828125 117.742188 298.851562 C 116.105469 301.875 115.285156 305.558594 116.453125 308.792969 C 117.457031 311.566406 119.761719 313.644531 122.003906 315.5625 C 123.386719 316.832031 124.90625 317.945312 126.535156 318.878906 C 130.296875 320.882812 134.75 320.992188 139.015625 321.058594 C 141.367188 321.09375 144.234375 320.828125 145.242188 318.699219 C 141.429688 316.882812 137.917969 314.492188 134.832031 311.609375 C 133.066406 309.957031 131.398438 308.066406 130.683594 305.757812 C 129.460938 301.820312 131.269531 297.535156 133.824219 294.304688 C 136.382812 291.078125 139.679688 288.488281 142.179688 285.214844 C 144.675781 281.9375 146.289062 278.179688 149.296875 275.503906 C 151.378906 273.65625 153.964844 272.5 156.300781 270.964844 C 159.714844 268.714844 162.53125 265.691406 165.308594 262.695312 L 180.074219 246.808594 C 180.429688 246.503906 180.675781 246.089844 180.769531 245.632812 C 180.828125 245.039062 180.390625 244.515625 179.96875 244.085938 C 176.757812 240.785156 170.699219 234.992188 166.285156 239.339844 C 162.03125 243.523438 158.585938 248.617188 154.464844 252.964844 Z M 154.464844 252.964844 "/>
<use xlink:href="#surface38" mask="url(#mask11)"/>
<path style=" stroke:none;fill-rule:nonzero;fill:rgb(62.745098%,38.039216%,41.568627%);fill-opacity:1;" d="M 175.566406 224.082031 C 178.542969 223.453125 181.75 225.039062 184.628906 224.054688 C 186.261719 223.492188 187.507812 222.191406 188.683594 220.929688 L 193.488281 215.804688 C 194.84375 214.359375 196.222656 212.882812 197.058594 211.078125 C 197.800781 209.488281 198.0625 207.730469 198.421875 206.007812 C 199.300781 201.601562 200.808594 197.085938 204.117188 194.050781 C 208.242188 190.253906 214.597656 189.542969 219.890625 191.355469 C 225.1875 193.167969 229.496094 197.214844 232.664062 201.84375 C 229.832031 205.246094 226.65625 208.390625 223.832031 211.796875 C 222.925781 212.988281 221.863281 214.050781 220.671875 214.957031 C 219.355469 215.761719 217.933594 216.386719 216.453125 216.824219 C 211.363281 218.625 205.945312 221.234375 203.847656 226.214844 C 203.117188 227.949219 202.84375 229.835938 202.445312 231.671875 C 201.675781 235.148438 200.269531 238.589844 197.726562 241.078125 C 195.183594 243.566406 191.34375 244.925781 187.957031 243.851562 C 184.207031 242.660156 181.910156 238.984375 179.980469 235.558594 C 177.925781 231.984375 176.4375 228.113281 175.566406 224.082031 Z M 175.566406 224.082031 "/>
<use xlink:href="#surface41" mask="url(#mask12)"/>
<path style=" stroke:none;fill-rule:nonzero;fill:rgb(62.745098%,38.039216%,41.568627%);fill-opacity:1;" d="M 305.941406 204.195312 C 324.75 210.929688 343.449219 218.90625 358.992188 231.484375 C 366.109375 237.246094 372.449219 243.894531 379.214844 250.070312 C 382.757812 253.304688 386.417969 256.402344 390.078125 259.507812 L 416.046875 281.539062 C 419.257812 284.265625 422.488281 287 426.054688 289.285156 C 434.449219 294.679688 444.457031 297.425781 452.675781 303.226562 C 452.660156 306.226562 453.152344 309.203125 454.125 312.035156 C 454.890625 314.179688 456.992188 315.550781 459.261719 315.386719 C 472.203125 314.640625 485.324219 320.921875 498.363281 319.339844 C 499.125 319.257812 499.804688 318.824219 500.199219 318.164062 C 501.074219 316.632812 499.578125 315.199219 498.269531 314.285156 L 480.566406 301.886719 C 477.648438 299.84375 474.730469 297.800781 471.757812 295.84375 C 461.007812 288.773438 449.527344 282.769531 439.5625 274.652344 C 437.4375 272.921875 435.390625 271.097656 433.335938 269.269531 C 422.488281 259.628906 411.632812 249.972656 401.347656 239.730469 C 386.398438 224.835938 372.261719 208.214844 357.441406 193.191406 C 356.03125 191.691406 354.511719 190.300781 352.898438 189.027344 C 351.316406 187.902344 349.660156 186.886719 347.9375 185.988281 L 329.125 175.648438 C 326.277344 174.082031 323.117188 172.464844 319.941406 173.082031 C 318.339844 172.6875 316.652344 173.121094 315.4375 174.234375 C 314.226562 175.351562 313.433594 176.828125 312.632812 178.273438 C 311.589844 180.027344 310.765625 181.902344 310.179688 183.855469 C 309.511719 186.515625 309.730469 189.363281 308.957031 191.976562 C 308.453125 193.707031 307.523438 195.28125 306.894531 196.984375 C 306.066406 199.292969 305.742188 201.75 305.941406 204.195312 Z M 305.941406 204.195312 "/>
<use xlink:href="#surface44" mask="url(#mask13)"/>
<path style=" stroke:none;fill-rule:nonzero;fill:rgb(62.745098%,38.039216%,41.568627%);fill-opacity:1;" d="M 199.507812 241.835938 C 199.507812 253.539062 190.027344 263.023438 178.332031 263.023438 C 166.636719 263.023438 157.15625 253.539062 157.15625 241.835938 C 157.15625 230.136719 166.636719 220.652344 178.332031 220.652344 C 190.027344 220.652344 199.507812 230.136719 199.507812 241.835938 Z M 199.507812 241.835938 "/>
<path style=" stroke:none;fill-rule:nonzero;fill:rgb(62.745098%,38.039216%,41.568627%);fill-opacity:1;" d="M 307.195312 165.339844 C 310.152344 165.390625 313.507812 165.621094 315.371094 167.917969 C 317.234375 170.21875 316.8125 173.367188 316.34375 176.199219 C 314.871094 185.160156 313.339844 194.277344 309.246094 202.378906 C 308.960938 203.109375 308.449219 203.730469 307.789062 204.15625 C 306.613281 204.761719 305.21875 204.050781 304.089844 203.355469 C 295.886719 198.257812 287.683594 192.769531 278.335938 190.335938 C 277.773438 190.261719 277.253906 189.988281 276.878906 189.558594 C 276.621094 189.015625 276.589844 188.394531 276.796875 187.828125 C 277.726562 183.675781 278.902344 179.574219 279.632812 175.378906 C 280.074219 172.875 279.257812 166.867188 281.472656 165.316406 C 283.820312 163.664062 290.582031 165.058594 293.359375 165.105469 Z M 307.195312 165.339844 "/>
<path style=" stroke:none;fill-rule:nonzero;fill:rgb(62.745098%,38.039216%,41.568627%);fill-opacity:1;" d="M 317.152344 206.6875 C 335.960938 213.421875 354.660156 221.398438 370.179688 233.972656 C 377.292969 239.738281 383.636719 246.390625 390.402344 252.5625 C 393.945312 255.796875 397.605469 258.898438 401.261719 261.996094 L 427.230469 284.027344 C 430.445312 286.75 433.671875 289.488281 437.242188 291.765625 C 445.667969 297.183594 455.679688 299.917969 463.867188 305.695312 C 463.851562 308.695312 464.339844 311.675781 465.316406 314.507812 C 466.085938 316.652344 468.183594 318.019531 470.453125 317.859375 C 483.394531 317.109375 496.515625 323.398438 509.554688 321.816406 C 510.316406 321.730469 510.996094 321.292969 511.390625 320.632812 C 512.265625 319.128906 510.769531 317.667969 509.457031 316.753906 L 491.757812 304.359375 C 488.839844 302.316406 485.921875 300.273438 482.949219 298.316406 C 472.21875 291.246094 460.738281 285.242188 450.773438 277.132812 C 448.648438 275.398438 446.601562 273.570312 444.546875 271.75 C 433.699219 262.105469 422.84375 252.453125 412.554688 242.207031 C 397.609375 227.3125 383.46875 210.695312 368.652344 195.644531 C 367.234375 194.164062 365.710938 192.792969 364.09375 191.539062 C 362.511719 190.414062 360.851562 189.398438 359.132812 188.503906 L 340.320312 178.164062 C 337.472656 176.597656 334.3125 174.980469 331.136719 175.59375 C 329.539062 175.195312 327.847656 175.628906 326.632812 176.742188 C 325.421875 177.859375 324.628906 179.339844 323.828125 180.789062 C 322.785156 182.539062 321.960938 184.410156 321.378906 186.367188 C 320.707031 189.023438 320.925781 191.871094 320.152344 194.492188 C 319.652344 196.21875 318.71875 197.796875 318.089844 199.5 C 317.269531 201.800781 316.949219 204.253906 317.152344 206.6875 Z M 317.152344 206.6875 "/>
<path style=" stroke:none;fill-rule:nonzero;fill:rgb(24.705882%,23.921569%,33.72549%);fill-opacity:1;" d="M 323.394531 208.242188 L 323.988281 199.574219 C 324.160156 197.148438 324.328125 194.695312 325.074219 192.390625 C 325.921875 189.769531 327.460938 187.441406 329.027344 185.179688 C 329.863281 183.859375 330.875 182.65625 332.03125 181.609375 C 333.738281 180.171875 335.945312 179.390625 337.539062 177.832031 C 337.992188 177.386719 338.417969 176.730469 338.148438 176.15625 C 338.023438 175.941406 337.851562 175.757812 337.648438 175.617188 C 333.722656 172.394531 329.019531 170.304688 324.375 168.246094 L 315.597656 164.359375 C 311.902344 169.367188 308.144531 174.527344 306.242188 180.46875 C 305.957031 181.523438 305.597656 182.554688 305.167969 183.5625 C 304.039062 185.910156 301.902344 187.621094 300.546875 189.84375 C 299.269531 191.9375 298.742188 194.386719 298.234375 196.785156 C 297.933594 198.191406 297.644531 199.695312 298.148438 201.039062 C 298.710938 202.542969 300.152344 203.515625 301.464844 204.390625 C 307.273438 208.199219 313.410156 212.132812 320.339844 212.671875 C 321.613281 212.765625 323.304688 213.402344 323.710938 212.171875 C 323.996094 211.34375 323.328125 209.253906 323.394531 208.242188 Z M 323.394531 208.242188 "/>
<path style=" stroke:none;fill-rule:nonzero;fill:rgb(24.705882%,23.921569%,33.72549%);fill-opacity:1;" d="M 149.9375 232.59375 C 147.742188 235.535156 149.214844 239.816406 151.488281 242.695312 C 153.757812 245.574219 156.796875 247.988281 158.070312 251.425781 C 161.117188 259.652344 152.613281 267.949219 152.902344 276.703125 C 153.164062 284.503906 160.054688 290.15625 165.914062 295.335938 C 178.367188 306.351562 189.007812 321.703125 187.605469 338.289062 C 193.269531 336.628906 198.164062 333.015625 201.417969 328.089844 C 203.320312 332.261719 204.125 336.851562 203.75 341.421875 C 216.804688 332.484375 224.234375 315.960938 222.269531 300.265625 C 221.332031 292.835938 218.46875 285.589844 218.914062 278.117188 C 219.15625 274.066406 220.363281 270.148438 221.234375 266.183594 C 222.34375 261.070312 222.894531 255.851562 222.882812 250.621094 C 222.882812 244.652344 221.777344 238.023438 217.074219 234.351562 C 213.070312 231.234375 207.566406 231.128906 202.492188 231.152344 C 197.128906 231.1875 191.769531 231.214844 186.421875 231.546875 C 180.960938 231.890625 175.328125 233.691406 169.953125 233.828125 C 163.96875 233.976562 155.535156 225.085938 149.9375 232.59375 Z M 149.9375 232.59375 "/>
<path style=" stroke:none;fill-rule:nonzero;fill:rgb(62.745098%,38.039216%,41.568627%);fill-opacity:1;" d="M 229.964844 193.40625 C 226.425781 194.574219 223.242188 196.617188 220.703125 199.347656 C 219.105469 201.082031 217.785156 203.058594 216.128906 204.734375 C 214.15625 206.738281 211.75 208.242188 209.441406 209.84375 C 205.03125 212.898438 200.902344 216.328125 196.78125 219.75 L 176.460938 236.625 C 173.28125 239.265625 170.105469 241.90625 167.105469 244.75 C 163.410156 248.257812 159.996094 252.082031 156.046875 255.3125 C 153.734375 257.203125 151.246094 258.890625 149.125 261 C 147.125 263.003906 145.5 265.308594 143.859375 267.597656 C 137.171875 276.886719 129.988281 285.804688 122.339844 294.316406 C 119.09375 297.9375 115.734375 301.5 111.785156 304.328125 C 103.597656 310.234375 97.382812 319.070312 90.183594 326.15625 C 89.574219 326.757812 88.902344 327.613281 89.277344 328.386719 C 89.503906 328.761719 89.859375 329.03125 90.28125 329.144531 C 95.542969 331.109375 100.078125 322.558594 105.5625 323.773438 C 108.066406 324.324219 109.601562 326.691406 111.394531 328.5 C 113.1875 330.304688 116.257812 331.636719 118.132812 329.910156 C 117.488281 324.882812 118.144531 319.773438 120.027344 315.070312 C 123.09375 307.453125 129.179688 301.449219 135.675781 296.425781 C 142.171875 291.398438 149.246094 287.109375 155.347656 281.609375 C 165.582031 272.378906 173.058594 259.792969 185.199219 253.277344 C 189.953125 250.726562 195.207031 249.234375 199.949219 246.621094 C 209.121094 241.542969 215.539062 232.601562 220.550781 223.402344 C 221.144531 222.140625 221.941406 220.988281 222.914062 219.992188 C 223.960938 219.167969 225.125 218.503906 226.367188 218.023438 C 232.816406 215.046875 238.601562 210.804688 243.382812 205.550781 C 241.882812 204.476562 240.476562 203.324219 238.980469 202.242188 C 237.761719 201.4375 236.648438 200.480469 235.660156 199.402344 C 234.660156 198.222656 234.011719 196.804688 233.160156 195.511719 C 232.308594 194.222656 231.417969 193.871094 229.964844 193.40625 Z M 229.964844 193.40625 "/>
<path style=" stroke:none;fill-rule:nonzero;fill:rgb(100%,39.607843%,51.764706%);fill-opacity:1;" d="M 284.640625 194.953125 C 283.320312 193.890625 283.277344 191.949219 283.339844 190.230469 C 283.558594 184.964844 283.773438 179.699219 283.980469 174.433594 C 284.128906 170.722656 284.480469 166.566406 287.28125 164.132812 C 279.1875 162.507812 271.03125 161.261719 262.808594 160.394531 C 259.542969 160.046875 256.234375 159.761719 252.984375 160.238281 C 249.0625 160.808594 245.390625 162.453125 241.777344 164.078125 C 237.773438 165.882812 233.746094 167.699219 230.15625 170.226562 C 228.773438 171.296875 227.335938 172.285156 225.84375 173.191406 C 223.121094 174.695312 219.992188 175.195312 217.058594 176.195312 C 203.011719 180.980469 194.949219 195.710938 198.492188 210.128906 C 199.492188 207.539062 200.191406 204.832031 201.363281 202.3125 C 202.535156 199.792969 204.261719 197.414062 206.71875 196.128906 C 209.28125 194.796875 212.375 194.808594 215.164062 195.574219 C 217.949219 196.339844 220.457031 197.816406 222.960938 199.308594 C 228.535156 202.6875 234.230469 206.632812 236.878906 212.585938 C 242.382812 208.492188 248.011719 204.574219 253.527344 200.460938 C 255.921875 198.683594 258.347656 196.890625 261.121094 195.8125 C 264.765625 194.398438 268.761719 194.3125 272.671875 194.234375 C 276.578125 194.160156 280.820312 193.941406 284.640625 194.953125 Z M 284.640625 194.953125 "/>
<path style=" stroke:none;fill-rule:nonzero;fill:rgb(100%,39.607843%,51.764706%);fill-opacity:1;" d="M 198.472656 209.648438 L 197.804688 218.886719 L 200.207031 216.902344 L 199.007812 208.730469 Z M 198.472656 209.648438 "/>
<path style=" stroke:none;fill-rule:nonzero;fill:rgb(94.901961%,94.901961%,94.901961%);fill-opacity:1;" d="M 108.265625 91.015625 L 100.5 95.945312 L 105.214844 87.390625 C 103.878906 86.324219 102.222656 85.734375 100.515625 85.714844 L 100.390625 85.714844 C 99.851562 85.722656 99.308594 85.683594 98.777344 85.59375 L 96.144531 87.265625 L 97.277344 85.214844 C 95.410156 84.5625 93.796875 83.335938 92.671875 81.710938 L 87.957031 84.714844 L 90.933594 79.300781 C 88.179688 75.992188 84.464844 73.964844 80.378906 73.964844 C 75.480469 73.964844 71.117188 76.878906 68.300781 81.417969 C 66.601562 84.191406 63.542969 85.839844 60.292969 85.730469 L 60.027344 85.730469 C 54.617188 85.730469 50.230469 91.863281 50.230469 99.433594 C 50.230469 107.003906 54.617188 113.136719 60.027344 113.136719 C 61.214844 113.132812 62.386719 112.839844 63.441406 112.28125 C 67.164062 110.46875 71.496094 110.386719 75.289062 112.050781 C 78.496094 113.488281 82.164062 113.488281 85.371094 112.050781 C 89.136719 110.417969 93.421875 110.503906 97.121094 112.28125 C 98.164062 112.828125 99.320312 113.113281 100.496094 113.117188 C 105.90625 113.117188 110.289062 106.980469 110.289062 99.414062 C 110.332031 96.488281 109.636719 93.601562 108.265625 91.015625 Z M 108.265625 91.015625 "/>
<use xlink:href="#surface47" mask="url(#mask14)"/>
<path style=" stroke:none;fill-rule:nonzero;fill:rgb(94.901961%,94.901961%,94.901961%);fill-opacity:1;" d="M 246.882812 120.003906 L 243.007812 122.441406 L 245.359375 118.164062 C 244.695312 117.632812 243.871094 117.335938 243.019531 117.328125 L 242.976562 117.328125 C 242.710938 117.332031 242.441406 117.3125 242.175781 117.269531 L 240.863281 118.101562 L 241.425781 117.097656 C 240.496094 116.773438 239.691406 116.164062 239.128906 115.351562 L 236.777344 116.851562 L 238.277344 114.15625 C 237.003906 112.503906 235.050781 111.519531 232.96875 111.480469 C 230.527344 111.480469 228.351562 112.933594 226.964844 115.199219 C 226.113281 116.585938 224.582031 117.40625 222.960938 117.347656 L 222.828125 117.347656 C 220.132812 117.347656 217.945312 120.40625 217.945312 124.183594 C 217.945312 127.957031 220.132812 131.019531 222.828125 131.019531 C 223.421875 131.015625 224.007812 130.871094 224.53125 130.59375 C 226.386719 129.683594 228.550781 129.640625 230.441406 130.476562 C 231.230469 130.828125 232.082031 131.011719 232.945312 131.019531 C 233.804688 131.019531 234.660156 130.835938 235.445312 130.488281 C 237.324219 129.671875 239.460938 129.714844 241.308594 130.601562 C 241.828125 130.875 242.40625 131.015625 242.992188 131.019531 C 245.691406 131.019531 247.878906 127.957031 247.878906 124.183594 C 247.902344 122.726562 247.558594 121.289062 246.882812 120.003906 Z M 246.882812 120.003906 "/>
<use xlink:href="#surface50" mask="url(#mask15)"/>
<path style=" stroke:none;fill-rule:nonzero;fill:rgb(94.901961%,94.901961%,94.901961%);fill-opacity:1;" d="M 265.5 43 L 271.71875 46.949219 L 267.941406 40.074219 C 269.011719 39.222656 270.335938 38.75 271.707031 38.734375 L 271.804688 38.734375 C 272.238281 38.738281 272.667969 38.707031 273.097656 38.640625 L 275.207031 39.976562 L 274.289062 38.324219 C 275.78125 37.800781 277.070312 36.824219 277.976562 35.523438 L 281.753906 37.917969 L 279.367188 33.582031 C 281.574219 30.929688 284.550781 29.304688 287.824219 29.304688 C 291.753906 29.304688 295.246094 31.640625 297.503906 35.277344 C 298.863281 37.496094 301.308594 38.8125 303.90625 38.730469 L 304.117188 38.730469 C 308.449219 38.730469 311.964844 43.640625 311.964844 49.710938 C 311.964844 55.777344 308.460938 60.683594 304.117188 60.683594 C 303.164062 60.679688 302.226562 60.449219 301.382812 60.003906 C 298.394531 58.546875 294.917969 58.480469 291.875 59.820312 C 290.597656 60.386719 289.214844 60.683594 287.816406 60.683594 C 286.4375 60.683594 285.070312 60.394531 283.8125 59.832031 C 280.796875 58.527344 277.359375 58.59375 274.398438 60.019531 C 273.5625 60.453125 272.632812 60.679688 271.691406 60.683594 C 267.355469 60.683594 263.84375 55.773438 263.84375 49.710938 C 263.824219 47.371094 264.394531 45.0625 265.5 43 Z M 265.5 43 "/>
<use xlink:href="#surface53" mask="url(#mask16)"/>
<path style=" stroke:none;fill-rule:nonzero;fill:rgb(94.901961%,94.901961%,94.901961%);fill-opacity:1;" d="M 162.273438 155.191406 C 162.011719 154.796875 160.734375 155.191406 159.425781 156.046875 C 159.195312 156.203125 158.972656 156.363281 158.773438 156.523438 C 157.863281 156.050781 156.878906 155.726562 155.863281 155.574219 L 155.917969 155.53125 C 157.238281 154.664062 158.464844 153.65625 159.574219 152.527344 L 156.757812 152.527344 L 160.847656 150.957031 C 161.347656 150.160156 161.507812 149.492188 161.230469 149.078125 C 160.492188 147.964844 156.917969 149.039062 153.222656 151.480469 C 151.558594 152.542969 150.0625 153.847656 148.785156 155.351562 C 145.78125 155.703125 143.675781 156.582031 143.675781 157.609375 C 143.675781 158.320312 144.675781 158.960938 146.300781 159.40625 L 146.207031 159.46875 C 142.535156 161.90625 140.152344 164.789062 140.890625 165.902344 C 141.542969 166.902344 144.394531 166.160156 147.589844 164.304688 L 145.472656 163.304688 L 148.808594 163.535156 L 148.878906 163.488281 C 149.234375 163.253906 149.574219 163.011719 149.90625 162.773438 L 147.402344 161.609375 L 151.070312 161.859375 C 151.765625 161.285156 152.414062 160.660156 153.015625 159.984375 C 156.433594 159.804688 159.105469 158.980469 159.570312 157.921875 C 159.855469 157.792969 160.132812 157.648438 160.402344 157.488281 C 160.871094 157.183594 161.308594 156.828125 161.703125 156.429688 L 160.699219 156.429688 L 162.15625 155.867188 C 162.316406 155.578125 162.371094 155.34375 162.273438 155.191406 Z M 162.273438 155.191406 "/>
<path style=" stroke:none;fill-rule:nonzero;fill:rgb(24.705882%,23.921569%,33.72549%);fill-opacity:1;" d="M 65.050781 307.285156 C 65.0625 308.996094 64.894531 310.707031 64.550781 312.386719 C 64.480469 312.703125 64.410156 313.011719 64.339844 313.3125 C 62.472656 320.796875 57.207031 326.277344 50.929688 326.625 C 50.71875 326.625 50.507812 326.625 50.289062 326.625 C 43.644531 326.625 38.03125 320.894531 36.175781 312.996094 C 36.125 312.785156 36.078125 312.578125 36.027344 312.367188 C 35.675781 310.6875 35.5 308.980469 35.503906 307.265625 C 35.503906 296.570312 42.125 287.902344 50.289062 287.902344 C 58.449219 287.902344 65.050781 296.589844 65.050781 307.285156 Z M 65.050781 307.285156 "/>
<use xlink:href="#surface56" mask="url(#mask17)"/>
<path style=" stroke:none;fill-rule:nonzero;fill:rgb(34.117647%,72.156863%,58.039216%);fill-opacity:1;" d="M 96.589844 271.214844 C 96.59375 266.515625 95.492188 261.886719 93.371094 257.695312 L 75.980469 263.109375 L 91.246094 254.125 C 86.0625 246.628906 77.757812 241.890625 68.667969 241.246094 C 67.953125 240.148438 67.164062 239.097656 66.3125 238.101562 L 41.320312 245.878906 L 61.808594 233.851562 C 53.855469 227.742188 43.382812 226.003906 33.882812 229.222656 C 24.386719 232.441406 17.121094 240.1875 14.519531 249.875 L 35.914062 274.507812 L 12.683594 257.726562 C 0.484375 266.328125 -3.558594 282.582031 3.191406 295.898438 C 9.9375 309.214844 25.433594 315.558594 39.578125 310.800781 C 45.757812 313.0625 52.511719 313.242188 58.804688 311.308594 C 67.699219 313.265625 76.996094 311.085938 84.097656 305.382812 C 91.195312 299.675781 95.328125 291.0625 95.339844 281.953125 C 95.339844 281.28125 95.316406 280.621094 95.269531 279.949219 C 96.136719 277.121094 96.582031 274.175781 96.589844 271.214844 Z M 96.589844 271.214844 "/>
<use xlink:href="#surface59" mask="url(#mask18)"/>
</g>
</svg>
