<?xml version="1.0" encoding="UTF-8"?>
<svg xmlns="http://www.w3.org/2000/svg" xmlns:xlink="http://www.w3.org/1999/xlink" width="334pt" height="357pt" viewBox="0 0 334 357" version="1.1">
<g id="surface1">
<path style=" stroke:none;fill-rule:nonzero;fill:rgb(90.196078%,90.196078%,90.196078%);fill-opacity:1;" d="M 56.199219 270.972656 C 56.199219 270.972656 57.371094 245.75 81.449219 248.679688 "/>
<path style=" stroke:none;fill-rule:nonzero;fill:rgb(90.196078%,90.196078%,90.196078%);fill-opacity:1;" d="M 55.914062 356.433594 C 55.886719 356.171875 53.042969 329.890625 64.550781 315.980469 C 68.796875 310.847656 74.484375 307.972656 81.460938 307.4375 L 81.539062 308.429688 C 74.84375 308.941406 69.386719 311.695312 65.316406 316.613281 C 54.082031 330.191406 56.875 356.0625 56.902344 356.324219 Z M 55.914062 356.433594 "/>
<path style=" stroke:none;fill-rule:nonzero;fill:rgb(90.196078%,90.196078%,90.196078%);fill-opacity:1;" d="M 54.941406 245.183594 L 55.945312 245.183594 L 55.945312 355.683594 L 54.941406 355.683594 Z M 54.941406 245.183594 "/>
<path style=" stroke:none;fill-rule:nonzero;fill:rgb(38.823529%,59.607843%,100%);fill-opacity:1;" d="M 64.417969 237.542969 C 64.417969 242.074219 60.738281 245.75 56.199219 245.75 C 51.65625 245.75 47.976562 242.074219 47.976562 237.542969 C 47.976562 233.007812 51.65625 229.332031 56.199219 229.332031 C 60.738281 229.332031 64.417969 233.007812 64.417969 237.542969 Z M 64.417969 237.542969 "/>
<path style=" stroke:none;fill-rule:nonzero;fill:rgb(90.196078%,90.196078%,90.196078%);fill-opacity:1;" d="M 89.667969 307.933594 C 89.667969 312.4375 86.011719 316.089844 81.5 316.089844 C 76.988281 316.089844 73.332031 312.4375 73.332031 307.933594 C 73.332031 303.429688 76.988281 299.777344 81.5 299.777344 C 86.011719 299.777344 89.667969 303.429688 89.667969 307.933594 Z M 89.667969 307.933594 "/>
<path style=" stroke:none;fill-rule:nonzero;fill:rgb(38.823529%,59.607843%,100%);fill-opacity:1;" d="M 333.929688 90.195312 L 333.929688 90.734375 C 333.914062 92.089844 333.875 93.4375 333.8125 94.78125 C 331.378906 142.523438 292.066406 180.078125 244.191406 180.390625 C 196.316406 180.707031 156.511719 143.667969 153.453125 95.960938 C 153.332031 94.054688 153.269531 92.128906 153.269531 90.195312 C 153.238281 71.511719 159.042969 53.289062 169.878906 38.058594 C 170.746094 36.832031 171.648438 35.628906 172.582031 34.445312 C 173.230469 33.625 173.894531 32.820312 174.5625 32.023438 C 206.28125 -5.496094 262.226562 -10.796875 300.445312 20.09375 C 301.53125 20.972656 302.601562 21.878906 303.644531 22.804688 C 304.480469 23.546875 305.304688 24.308594 306.109375 25.082031 C 322.003906 40.261719 331.789062 60.722656 333.613281 82.609375 C 333.824219 85.113281 333.929688 87.640625 333.929688 90.195312 Z M 333.929688 90.195312 "/>
<path style=" stroke:none;fill-rule:nonzero;fill:rgb(24.705882%,23.921569%,33.72549%);fill-opacity:1;" d="M 172.582031 34.445312 C 172.628906 34.464844 172.667969 34.488281 172.707031 34.519531 C 173.191406 34.917969 172.582031 35.683594 172.65625 36.316406 C 172.742188 37.125 173.824219 37.304688 174.640625 37.382812 C 175.460938 37.46875 176.492188 38.125 176.105469 38.851562 C 174.050781 39.554688 171.976562 38.863281 169.878906 38.058594 C 159.042969 53.289062 153.238281 71.511719 153.269531 90.195312 C 153.269531 92.132812 153.332031 94.054688 153.453125 95.960938 C 153.625 96.085938 153.816406 96.1875 154.015625 96.261719 C 154.628906 96.496094 155.339844 96.453125 155.90625 96.78125 C 156.355469 97.046875 156.65625 97.511719 157.105469 97.757812 C 158.390625 98.457031 160.171875 97.113281 161.371094 97.949219 C 161.679688 98.230469 161.972656 98.53125 162.25 98.84375 C 163.355469 99.800781 165.171875 99.15625 166.453125 99.875 C 167.273438 100.335938 167.699219 101.257812 168.140625 102.089844 C 169.242188 104.175781 171.023438 106.226562 173.375 106.390625 C 174.117188 106.359375 174.863281 106.382812 175.601562 106.464844 C 176.324219 106.628906 177.039062 107.261719 176.921875 107.992188 C 176.71875 109.25 177.339844 110.625 177.175781 111.882812 C 176.871094 114.183594 173.609375 115.191406 173.332031 117.492188 C 173.332031 117.996094 173.304688 118.503906 173.246094 119.007812 C 173.101562 119.609375 172.644531 120.097656 172.484375 120.699219 C 172.179688 121.835938 172.996094 122.96875 173.886719 123.730469 C 174.785156 124.496094 175.851562 125.160156 176.34375 126.226562 C 176.859375 127.363281 176.609375 128.683594 176.773438 129.914062 C 177.144531 132.609375 179.472656 134.601562 181.867188 135.890625 C 182.636719 136.210938 183.320312 136.707031 183.859375 137.339844 C 184.472656 138.230469 184.414062 139.402344 184.621094 140.460938 C 185.125 143.058594 187.3125 145.199219 187.375 147.84375 C 187.417969 149.726562 186.371094 151.433594 185.746094 153.207031 C 185.101562 155.066406 184.910156 157.050781 185.1875 159 C 188.691406 161.964844 192.414062 164.664062 196.328125 167.066406 C 196.539062 166.753906 196.695312 166.402344 196.789062 166.035156 C 196.941406 165.203125 196.5625 164.363281 195.835938 163.925781 C 196.496094 163.675781 197.097656 163.292969 197.597656 162.796875 C 198.105469 162.277344 198.234375 161.496094 197.917969 160.84375 C 199 160.980469 200.285156 161.046875 200.996094 160.21875 C 201.570312 159.554688 201.53125 158.5625 201.304688 157.722656 C 201.078125 156.875 200.695312 156.058594 200.691406 155.183594 C 203.195312 155.304688 205.707031 155.21875 208.199219 154.929688 C 207.839844 153.714844 207.019531 152.691406 205.914062 152.070312 C 207.042969 151.882812 208.070312 150.53125 208.425781 149.445312 C 208.734375 148.335938 208.75 147.167969 208.476562 146.050781 C 208.390625 145.765625 208.378906 145.460938 208.4375 145.167969 C 208.621094 144.78125 208.941406 144.472656 209.335938 144.304688 C 211.203125 143.230469 213.070312 142.15625 214.941406 141.089844 C 215.273438 140.921875 215.578125 140.699219 215.835938 140.433594 C 216.421875 139.738281 216.335938 138.703125 216.035156 137.847656 C 215.734375 136.996094 215.253906 136.191406 215.136719 135.296875 C 214.792969 132.613281 217.667969 130.6875 218.640625 128.160156 C 218.96875 127.152344 219.148438 126.097656 219.167969 125.039062 C 219.246094 123.894531 219.253906 122.578125 218.382812 121.847656 C 217.539062 121.140625 216.230469 121.300781 215.351562 120.644531 C 214.546875 120.042969 214.269531 118.882812 213.390625 118.398438 C 212.59375 117.957031 211.597656 118.238281 210.707031 118.03125 C 209.144531 117.667969 208.164062 115.871094 206.566406 115.707031 C 205.667969 115.605469 204.648438 116.050781 203.910156 115.527344 C 203.257812 115.0625 203.234375 114.132812 203.109375 113.347656 C 202.664062 110.84375 200.703125 108.882812 198.195312 108.429688 C 197.265625 108.28125 196.257812 108.335938 195.46875 107.828125 C 194.667969 107.3125 194.304688 106.347656 193.671875 105.628906 C 192.664062 104.484375 191.066406 104.070312 189.574219 103.722656 C 187.546875 103.25 185.519531 102.777344 183.496094 102.300781 C 182.421875 102.042969 181.03125 101.90625 180.449219 102.851562 C 180.277344 103.210938 180.15625 103.59375 180.09375 103.984375 C 179.640625 105.4375 178.308594 106.4375 176.785156 106.464844 C 176.277344 105.597656 175.457031 104.960938 174.488281 104.6875 C 173.855469 104.578125 173.234375 104.433594 172.621094 104.242188 C 171.972656 103.929688 171.488281 103.359375 171.273438 102.675781 C 171.058594 101.988281 171.136719 101.246094 171.488281 100.617188 C 172.207031 99.339844 171.976562 97.738281 170.929688 96.710938 C 169.898438 95.78125 168.40625 95.554688 167.015625 95.648438 C 166.652344 94.855469 167.261719 93.96875 167.914062 93.390625 C 168.570312 92.820312 169.363281 92.253906 169.503906 91.394531 C 169.734375 90.046875 168.007812 89.023438 166.695312 89.421875 C 165.386719 89.824219 164.550781 91.09375 164 92.347656 C 163.730469 93.085938 163.367188 93.785156 162.910156 94.425781 C 162.4375 95.074219 161.640625 95.402344 160.847656 95.273438 C 159.765625 94.996094 159.355469 93.714844 159.113281 92.636719 C 158.730469 91.191406 158.535156 89.703125 158.535156 88.210938 C 158.546875 86.703125 159.144531 85.257812 160.207031 84.1875 C 161.996094 82.542969 164.75 82.703125 167.164062 82.964844 C 166.628906 82.253906 166.707031 81.253906 167.347656 80.632812 C 168.003906 80.050781 168.90625 79.832031 169.757812 80.046875 C 170.484375 80.195312 171.140625 80.585938 171.617188 81.15625 C 172.308594 81.988281 172.503906 83.125 173.019531 84.070312 C 173.542969 85.019531 174.710938 85.832031 175.664062 85.320312 C 176.492188 84.878906 176.621094 83.738281 176.417969 82.824219 C 176.210938 81.917969 175.773438 81.027344 175.847656 80.09375 C 175.988281 78.320312 177.835938 77.246094 179.464844 76.515625 C 181.09375 75.785156 182.957031 74.800781 183.214844 73.03125 C 183.226562 72.6875 183.292969 72.347656 183.410156 72.027344 C 183.589844 71.738281 183.84375 71.5 184.140625 71.339844 C 188.890625 68.203125 193.726562 65.023438 199.160156 63.3125 C 199.441406 63.222656 199.472656 63.320312 199.761719 63.253906 C 200.167969 63.019531 199.898438 62.375 199.511719 62.117188 C 199.125 61.859375 198.605469 61.65625 198.507812 61.203125 C 198.441406 60.871094 198.636719 60.539062 198.6875 60.203125 C 198.714844 59.789062 198.53125 59.390625 198.203125 59.136719 C 197.875 58.882812 197.441406 58.808594 197.046875 58.9375 C 196.609375 58.363281 197.46875 57.691406 198.171875 57.496094 C 200.269531 56.921875 202.421875 56.574219 204.59375 56.453125 C 204.84375 56.414062 205.101562 56.457031 205.324219 56.578125 C 205.65625 56.894531 205.679688 57.417969 205.378906 57.765625 C 205.082031 58.09375 204.753906 58.394531 204.402344 58.65625 C 203.683594 59.351562 203.414062 60.390625 203.699219 61.351562 C 204.835938 61.925781 206.066406 62.523438 207.328125 62.320312 C 208.578125 62.117188 209.691406 60.707031 209.101562 59.582031 C 208.554688 58.535156 206.902344 58.292969 206.621094 57.148438 C 206.289062 55.804688 208.191406 54.605469 207.761719 53.292969 C 207.578125 52.71875 207 52.375 206.558594 51.960938 C 205.492188 50.914062 205.179688 49.324219 205.765625 47.949219 C 204.304688 48.203125 202.8125 47.738281 201.757812 46.699219 C 200.800781 45.734375 200.039062 44.207031 198.675781 44.257812 C 197.425781 44.292969 196.351562 45.746094 195.183594 45.304688 C 194.894531 45.195312 194.59375 44.972656 194.316406 45.101562 C 194.132812 45.222656 194.011719 45.417969 193.992188 45.636719 C 193.699219 47.054688 194.207031 48.667969 193.433594 49.894531 C 192.589844 51.226562 190.644531 51.410156 189.625 52.613281 C 189.070312 53.261719 188.855469 54.140625 188.34375 54.828125 C 187.835938 55.515625 186.761719 55.957031 186.144531 55.355469 C 186.765625 54.085938 186.421875 52.558594 185.320312 51.675781 C 184.757812 51.304688 184.144531 51.007812 183.503906 50.789062 C 182.785156 50.488281 182.105469 50.109375 181.46875 49.660156 C 181.152344 49.46875 180.894531 49.191406 180.726562 48.863281 C 180.589844 48.449219 180.609375 48.003906 180.773438 47.601562 C 181.410156 45.792969 182.992188 44.484375 184.886719 44.199219 C 185.695312 44.089844 186.644531 44.128906 187.183594 43.507812 C 187.464844 43.183594 187.613281 42.683594 188.03125 42.558594 C 188.296875 42.5 188.570312 42.535156 188.8125 42.648438 C 189.824219 43.003906 190.832031 43.359375 191.847656 43.714844 C 192.1875 43.871094 192.558594 43.933594 192.929688 43.894531 C 193.308594 43.84375 193.585938 43.507812 193.5625 43.128906 C 193.464844 42.625 192.691406 42.386719 192.761719 41.875 C 192.800781 41.710938 192.886719 41.558594 193.015625 41.445312 C 195.234375 39.089844 198.390625 37.84375 201.625 38.054688 C 202.003906 38.683594 201.402344 39.425781 200.894531 39.960938 C 200.390625 40.5 199.984375 41.457031 200.597656 41.871094 C 200.847656 42 201.125 42.0625 201.402344 42.054688 C 202.148438 42.152344 202.875 42.375 203.554688 42.703125 C 204.605469 43.15625 205.636719 43.660156 206.644531 44.199219 C 206.496094 43.542969 206.523438 42.859375 206.71875 42.214844 C 206.949219 41.558594 207.640625 41.183594 208.316406 41.347656 C 208.917969 41.582031 209.226562 42.378906 209.871094 42.453125 C 210.726562 42.550781 211.0625 41.285156 210.707031 40.5 C 210.351562 39.714844 209.636719 39.066406 209.582031 38.199219 C 209.539062 37.625 209.761719 36.90625 209.300781 36.554688 C 209.136719 36.449219 208.949219 36.378906 208.753906 36.359375 C 204.894531 35.652344 201.03125 34.945312 197.167969 34.238281 C 196.480469 34.109375 195.492188 34.207031 195.460938 34.898438 C 195.441406 35.292969 195.792969 35.679688 195.640625 36.035156 C 195.472656 36.414062 194.933594 36.382812 194.539062 36.519531 C 193.933594 36.792969 193.582031 37.4375 193.679688 38.097656 C 193.785156 38.734375 194.03125 39.339844 194.402344 39.871094 C 193.648438 39.554688 192.511719 39.5 191.753906 39.183594 C 191.644531 38.308594 191.421875 37.453125 191.09375 36.636719 C 191.054688 36.371094 190.902344 36.140625 190.675781 36 C 190.449219 35.859375 190.171875 35.828125 189.917969 35.910156 C 188.921875 36.066406 187.925781 36.210938 186.933594 36.367188 C 186.683594 36.378906 186.441406 36.46875 186.25 36.628906 C 185.863281 37.039062 186.242188 37.695312 186.230469 38.261719 C 186.15625 38.910156 185.683594 39.4375 185.046875 39.582031 C 184.421875 39.707031 183.773438 39.699219 183.152344 39.554688 C 181.757812 39.339844 180.371094 39.125 178.972656 38.910156 C 180.207031 38.519531 181.300781 37.789062 182.132812 36.800781 C 182.6875 36.152344 182.980469 34.9375 182.183594 34.628906 C 181.945312 34.566406 181.699219 34.546875 181.457031 34.574219 C 179.5625 34.585938 178.070312 33.007812 176.300781 32.339844 C 175.746094 32.132812 175.15625 32.027344 174.5625 32.023438 Z M 172.582031 34.445312 "/>
<path style=" stroke:none;fill-rule:nonzero;fill:rgb(24.705882%,23.921569%,33.72549%);fill-opacity:1;" d="M 333.8125 94.78125 C 333.371094 95.371094 332.667969 95.707031 331.929688 95.671875 C 330.007812 95.507812 329.195312 92.738281 327.292969 92.425781 C 327.125 92.382812 326.945312 92.402344 326.789062 92.476562 C 326.503906 92.628906 326.457031 93.007812 326.4375 93.328125 C 326.359375 94.910156 326.289062 96.554688 326.910156 98.015625 C 327.8125 100.152344 330.15625 101.941406 329.664062 104.207031 C 327.019531 102.984375 325.644531 100.023438 325.023438 97.183594 C 324.398438 94.339844 324.300781 91.359375 323.179688 88.671875 C 322.328125 89.757812 320.542969 88.863281 319.769531 87.722656 C 319.03125 86.640625 318.578125 85.390625 317.867188 84.292969 C 317.152344 83.199219 316.058594 82.21875 314.757812 82.15625 C 313.386719 82.09375 312.195312 83.035156 311.148438 83.921875 C 310.242188 84.59375 309.476562 85.441406 308.90625 86.414062 C 308.175781 87.886719 308.367188 89.617188 308.328125 91.253906 C 308.292969 93.023438 307.917969 94.894531 306.707031 96.195312 C 305.496094 97.488281 303.265625 97.941406 301.933594 96.769531 C 301.289062 96.101562 300.828125 95.273438 300.597656 94.371094 C 299.148438 90.152344 297.941406 85.855469 296.984375 81.5 C 296.765625 82.492188 295.886719 83.777344 295.050781 83.191406 C 294.863281 83.035156 294.710938 82.835938 294.605469 82.617188 C 293.046875 79.984375 290.164062 78.402344 287.246094 77.449219 C 284.332031 76.503906 281.265625 76.0625 278.386719 75.019531 C 276.769531 74.433594 275.226562 73.667969 273.78125 72.730469 C 273.035156 73.828125 272.953125 75.246094 273.5625 76.425781 C 274.226562 77.589844 275.59375 78.160156 276.890625 77.816406 C 277.53125 77.609375 278.070312 77.167969 278.703125 76.945312 C 279.335938 76.730469 280.191406 76.835938 280.46875 77.449219 C 280.738281 78.03125 280.332031 78.738281 280.535156 79.351562 C 280.835938 80.277344 282.242188 80.351562 282.734375 81.199219 C 283.03125 81.886719 282.84375 82.6875 282.273438 83.175781 C 281.710938 83.632812 281.085938 84.019531 280.417969 84.316406 C 278.355469 85.464844 276.886719 87.421875 275.078125 88.941406 C 273.273438 90.46875 270.722656 91.582031 268.570312 90.605469 C 269.082031 88.007812 265.992188 86.105469 265.417969 83.523438 C 265.230469 82.671875 265.328125 81.769531 265.0625 80.941406 C 264.675781 79.738281 263.605469 78.917969 262.734375 78.007812 C 260.59375 75.757812 259.453125 72.738281 259.570312 69.632812 C 259.617188 68.566406 259.816406 67.480469 259.570312 66.4375 C 259.328125 65.398438 258.464844 64.394531 257.394531 64.4375 C 254.953125 64.546875 251.875 64.730469 250.597656 62.652344 C 250.136719 61.910156 249.941406 60.824219 250.605469 60.25 C 251.070312 59.851562 251.757812 59.890625 252.367188 59.949219 C 254.207031 60.128906 256.035156 60.3125 257.875 60.492188 C 259.15625 60.613281 260.546875 60.71875 261.652344 60.050781 C 262.757812 59.378906 263.238281 57.59375 262.210938 56.804688 C 261.46875 56.226562 260.128906 56.257812 259.90625 55.34375 C 259.730469 54.578125 260.578125 53.710938 260.117188 53.066406 C 259.789062 52.613281 259.054688 52.734375 258.605469 53.078125 C 258.214844 53.484375 257.789062 53.855469 257.332031 54.191406 C 256.453125 54.644531 255.410156 54.207031 254.464844 53.914062 C 253.515625 53.621094 252.25 53.59375 251.796875 54.472656 C 251.28125 55.449219 252.246094 56.734375 251.742188 57.71875 C 251.066406 59.011719 248.792969 58.277344 247.84375 59.394531 C 246.765625 60.667969 248.582031 62.582031 248.21875 64.214844 C 247.269531 64.6875 246.144531 64.621094 245.253906 64.050781 C 244.375 63.453125 243.898438 62.425781 244.011719 61.375 C 244.097656 60.636719 244.484375 59.882812 244.226562 59.191406 C 243.949219 58.65625 243.488281 58.234375 242.929688 58.007812 C 241.148438 57.019531 239.367188 56.035156 237.582031 55.054688 C 237.085938 55.976562 237.710938 57.109375 238.5 57.804688 C 239.28125 58.492188 240.261719 59.011719 240.777344 59.921875 C 241.457031 61.226562 241 62.835938 239.734375 63.589844 C 239.578125 63.695312 239.382812 63.730469 239.199219 63.679688 C 239.027344 63.582031 238.902344 63.414062 238.855469 63.222656 C 237.914062 60.808594 236.496094 58.4375 234.234375 57.179688 C 231.96875 55.914062 228.714844 56.175781 227.230469 58.292969 C 226.878906 58.796875 226.640625 59.375 226.332031 59.90625 C 224.703125 62.738281 221.203125 64.074219 217.933594 63.988281 C 217.613281 64.007812 217.292969 63.933594 217.015625 63.773438 C 216.488281 63.410156 216.511719 62.636719 216.59375 62 C 216.710938 61.097656 216.820312 60.203125 216.9375 59.300781 C 216.941406 58.75 217.152344 58.222656 217.53125 57.820312 C 218.140625 57.34375 219.015625 57.644531 219.789062 57.632812 C 220.984375 57.578125 222.019531 56.78125 222.375 55.636719 C 222.691406 54.492188 222.347656 53.261719 221.476562 52.449219 C 221.128906 52.117188 220.65625 51.699219 220.839844 51.25 C 220.992188 51 221.246094 50.832031 221.535156 50.785156 C 222.914062 50.386719 224.382812 50.28125 225.742188 49.804688 C 227.105469 49.332031 228.429688 48.359375 228.753906 46.957031 C 228.851562 46.527344 228.894531 46.003906 229.28125 45.789062 C 229.476562 45.710938 229.6875 45.671875 229.894531 45.667969 C 231.425781 45.449219 232.539062 44.097656 232.457031 42.558594 C 233.109375 42.101562 234.027344 42.441406 234.660156 42.925781 C 235.285156 43.410156 235.84375 44.046875 236.613281 44.257812 C 238.042969 44.648438 239.425781 43.378906 240.914062 43.371094 C 241.539062 43.371094 242.1875 43.59375 242.769531 43.378906 C 243.367188 43.164062 243.722656 42.574219 244.175781 42.140625 C 244.636719 41.699219 245.4375 41.433594 245.859375 41.90625 C 245.738281 41.015625 245.621094 40.132812 245.496094 39.25 C 246.960938 39.617188 248.515625 39.335938 249.757812 38.476562 C 248.207031 37.953125 246.664062 37.433594 245.117188 36.910156 C 244.953125 36.871094 244.804688 36.792969 244.679688 36.679688 C 244.34375 36.316406 244.679688 35.753906 244.949219 35.339844 C 245.609375 34.351562 245.71875 32.726562 244.636719 32.238281 C 243.902344 31.898438 243.058594 32.304688 242.351562 32.695312 C 241.222656 33.324219 240.089844 33.953125 238.960938 34.582031 C 238.855469 35.226562 239.640625 35.59375 240.128906 36.023438 C 240.734375 36.558594 240.945312 37.410156 240.664062 38.167969 C 240.378906 38.925781 239.660156 39.429688 238.847656 39.441406 C 239.300781 40.027344 239.460938 40.789062 239.285156 41.507812 C 238.53125 41.5625 237.769531 41.617188 237.007812 41.671875 C 236.75 41.722656 236.484375 41.671875 236.269531 41.527344 C 236.023438 41.3125 236.058594 40.929688 236 40.613281 C 235.792969 39.832031 235.128906 39.253906 234.328125 39.15625 C 233.542969 39.070312 232.75 39.144531 231.996094 39.371094 C 231.671875 39.488281 231.3125 39.480469 230.988281 39.347656 C 230.808594 39.226562 230.667969 39.050781 230.597656 38.84375 C 230.324219 37.988281 230.519531 37.054688 231.113281 36.378906 C 231.703125 35.722656 232.351562 35.125 233.054688 34.59375 C 234.644531 33.203125 235.8125 31.394531 236.429688 29.378906 C 237.683594 28.851562 238.976562 28.136719 240.238281 27.609375 C 241.25 27.140625 242.3125 26.785156 243.402344 26.550781 C 244.429688 26.390625 245.46875 26.34375 246.503906 26.402344 C 247.917969 26.425781 249.339844 26.449219 250.75 26.480469 C 252.011719 26.429688 253.273438 26.609375 254.46875 27.015625 C 255.628906 27.492188 256.65625 28.53125 256.738281 29.78125 C 256.785156 30.074219 256.679688 30.367188 256.460938 30.5625 C 256.296875 30.652344 256.113281 30.695312 255.925781 30.683594 C 254.753906 30.722656 254.253906 31.015625 253.082031 31.058594 C 253.824219 31.851562 254.660156 32.683594 255.742188 32.824219 C 257.644531 33.070312 259.015625 31.101562 259.894531 29.390625 C 259.960938 30.296875 260.738281 30.984375 261.648438 30.941406 C 262.117188 30.859375 262.566406 30.6875 262.96875 30.425781 C 266.746094 28.363281 270.980469 27.273438 275.289062 27.25 C 275.199219 26.574219 275.640625 25.941406 276.300781 25.789062 C 277.179688 25.617188 277.96875 26.371094 278.390625 27.15625 C 278.808594 27.941406 279.074219 28.851562 279.75 29.4375 C 280.417969 30.027344 281.714844 29.996094 281.980469 29.148438 C 282.238281 28.335938 281.382812 27.636719 280.675781 27.148438 C 279.964844 26.671875 279.222656 25.78125 279.699219 25.070312 C 283.3125 24.265625 286.957031 23.46875 290.664062 23.308594 C 291.292969 23.328125 291.917969 23.21875 292.503906 22.988281 C 293.101562 22.738281 293.457031 22.117188 293.367188 21.476562 C 291.710938 21.859375 289.988281 21.210938 289.003906 19.832031 C 292.808594 19.515625 296.789062 19.242188 300.445312 20.09375 L 303.644531 22.804688 C 303.039062 23.4375 302.226562 24.035156 302.667969 24.664062 C 302.964844 24.960938 303.378906 25.101562 303.792969 25.050781 C 304.566406 25.0625 305.34375 25.082031 306.109375 25.082031 C 322.003906 40.261719 331.789062 60.722656 333.613281 82.609375 C 332.324219 82.5625 331.136719 84.191406 331.304688 85.617188 C 331.5 87.265625 332.691406 88.59375 333.546875 90.015625 C 333.6875 90.246094 333.816406 90.488281 333.929688 90.734375 Z M 333.8125 94.78125 "/>
<path style=" stroke:none;fill-rule:nonzero;fill:rgb(18.431373%,18.039216%,25.490196%);fill-opacity:1;" d="M 229.90625 163.46875 C 229.90625 172.03125 222.957031 178.96875 214.382812 178.96875 C 205.8125 178.96875 198.859375 172.03125 198.859375 163.46875 C 198.859375 154.910156 205.8125 147.96875 214.382812 147.96875 C 222.957031 147.96875 229.90625 154.910156 229.90625 163.46875 Z M 229.90625 163.46875 "/>
<path style=" stroke:none;fill-rule:nonzero;fill:rgb(100%,72.54902%,72.54902%);fill-opacity:1;" d="M 206.972656 171.300781 C 206.972656 171.300781 201.917969 182.480469 200.472656 182.839844 C 199.027344 183.199219 212.390625 189.691406 212.390625 189.691406 C 212.390625 189.691406 214.917969 175.988281 216.003906 175.265625 C 217.085938 174.546875 206.972656 171.300781 206.972656 171.300781 Z M 206.972656 171.300781 "/>
<path style=" stroke:none;fill-rule:nonzero;fill:rgb(100%,72.54902%,72.54902%);fill-opacity:1;" d="M 177 262.894531 L 167.609375 289.21875 L 177.71875 293.1875 L 195.054688 258.929688 Z M 177 262.894531 "/>
<path style=" stroke:none;fill-rule:nonzero;fill:rgb(100%,72.54902%,72.54902%);fill-opacity:1;" d="M 209.863281 263.617188 C 209.863281 263.617188 228.644531 289.941406 229.726562 290.300781 C 230.808594 290.664062 238.394531 284.171875 238.394531 284.171875 C 238.394531 284.171875 229.003906 261.453125 226.113281 260.371094 C 223.226562 259.289062 209.863281 263.617188 209.863281 263.617188 Z M 209.863281 263.617188 "/>
<path style=" stroke:none;fill-rule:nonzero;fill:rgb(18.431373%,18.039216%,25.490196%);fill-opacity:1;" d="M 166.164062 284.53125 L 151.355469 323.117188 C 151.355469 323.117188 152.441406 325.28125 151.355469 325.640625 C 150.273438 326.003906 147.746094 331.773438 147.746094 332.132812 C 147.746094 332.492188 145.21875 332.855469 145.21875 333.9375 C 145.21875 335.019531 143.050781 343.671875 143.050781 343.671875 C 143.050781 343.671875 147.023438 352.328125 149.550781 349.800781 C 152.078125 347.277344 153.164062 342.230469 153.164062 342.230469 L 156.773438 332.855469 C 156.773438 332.855469 156.414062 327.804688 158.941406 327.085938 C 161.46875 326.363281 162.914062 317.347656 162.914062 317.347656 C 162.914062 317.347656 166.886719 313.382812 167.609375 312.300781 C 168.332031 311.21875 180.972656 292.105469 179.886719 291.746094 C 178.804688 291.382812 166.164062 284.53125 166.164062 284.53125 Z M 166.164062 284.53125 "/>
<path style=" stroke:none;fill-rule:nonzero;fill:rgb(18.431373%,18.039216%,25.490196%);fill-opacity:1;" d="M 227.558594 289.582031 L 238.394531 282.367188 C 238.394531 282.367188 257.171875 316.625 257.171875 317.347656 C 257.171875 318.070312 256.453125 320.234375 257.171875 320.953125 C 257.894531 321.675781 264.035156 333.214844 268.007812 334.296875 C 271.980469 335.378906 272.703125 339.707031 269.453125 340.425781 C 266.203125 341.148438 261.867188 342.949219 260.785156 340.425781 C 260.152344 338.941406 259.429688 337.496094 258.617188 336.097656 C 258.617188 336.097656 255.007812 337.179688 254.644531 336.460938 C 254.230469 335.398438 253.867188 334.3125 253.5625 333.214844 C 253.5625 333.214844 250.671875 328.167969 250.671875 326.363281 C 250.671875 324.558594 248.867188 324.199219 248.867188 324.199219 C 248.867188 324.199219 244.894531 314.824219 242.367188 313.382812 C 239.839844 311.9375 237.671875 304.726562 237.671875 304.726562 Z M 227.558594 289.582031 "/>
<path style=" stroke:none;fill-rule:nonzero;fill:rgb(100%,72.54902%,72.54902%);fill-opacity:1;" d="M 225.03125 169.136719 C 225.03125 174.914062 220.34375 179.59375 214.558594 179.59375 C 208.773438 179.59375 204.085938 174.914062 204.085938 169.136719 C 204.085938 163.363281 208.773438 158.679688 214.558594 158.679688 C 220.34375 158.679688 225.03125 163.363281 225.03125 169.136719 Z M 225.03125 169.136719 "/>
<path style=" stroke:none;fill-rule:nonzero;fill:rgb(18.431373%,18.039216%,25.490196%);fill-opacity:1;" d="M 183.5 232.605469 C 183.5 232.605469 168 273.722656 170.164062 273.722656 C 172.332031 273.722656 232.28125 275.023438 234.085938 272.140625 C 235.890625 269.253906 218.53125 240.539062 217.808594 240.175781 C 217.085938 239.816406 183.5 232.605469 183.5 232.605469 Z M 183.5 232.605469 "/>
<path style=" stroke:none;fill-rule:nonzero;fill:rgb(100%,72.54902%,72.54902%);fill-opacity:1;" d="M 167.96875 146.777344 L 157.136719 130.191406 C 157.136719 130.191406 159.8125 112.789062 156.203125 116.035156 C 152.589844 119.28125 151.449219 132.386719 151.449219 132.386719 L 163.996094 151.46875 Z M 167.96875 146.777344 "/>
<path style=" stroke:none;fill-rule:nonzero;fill:rgb(100%,72.54902%,72.54902%);fill-opacity:1;" d="M 266.203125 177.070312 L 275.953125 176.347656 C 275.953125 176.347656 287.511719 164.089844 288.234375 168.054688 C 288.953125 172.023438 278.84375 180.675781 278.84375 180.675781 L 265.480469 182.117188 Z M 266.203125 177.070312 "/>
<path style=" stroke:none;fill-rule:nonzero;fill:rgb(24.705882%,23.921569%,33.72549%);fill-opacity:1;" d="M 195.054688 180.675781 L 195.054688 177.070312 C 195.054688 177.070312 185.664062 170.941406 186.027344 169.859375 C 186.386719 168.777344 185.304688 168.054688 185.304688 168.054688 C 185.304688 168.054688 184.222656 166.613281 184.222656 166.253906 C 184.222656 165.890625 182.777344 165.53125 182.777344 165.53125 L 173.746094 155.074219 C 173.746094 155.074219 168.691406 144.976562 167.609375 145.335938 C 166.523438 145.699219 160.746094 147.859375 161.46875 149.304688 C 162.191406 150.746094 182.414062 181.757812 182.414062 181.757812 C 182.414062 181.757812 183.5 188.609375 185.304688 188.609375 C 187.109375 188.609375 195.054688 180.675781 195.054688 180.675781 Z M 195.054688 180.675781 "/>
<path style=" stroke:none;fill-rule:nonzero;fill:rgb(24.705882%,23.921569%,33.72549%);fill-opacity:1;" d="M 219.253906 185.003906 C 219.253906 185.003906 227.199219 184.644531 227.558594 185.003906 C 227.921875 185.363281 232.976562 185.003906 232.976562 185.003906 C 232.976562 185.003906 246.699219 181.757812 247.785156 180.675781 C 248.867188 179.59375 266.925781 174.90625 267.648438 177.070312 C 268.371094 179.234375 270.175781 183.5625 268.371094 184.28125 C 266.5625 185.003906 217.808594 197.265625 217.808594 197.265625 Z M 219.253906 185.003906 "/>
<path style=" stroke:none;fill-rule:nonzero;fill:rgb(18.431373%,18.039216%,25.490196%);fill-opacity:1;" d="M 215.378906 147.15625 C 215.378906 150.699219 212.5 153.570312 208.953125 153.570312 C 205.40625 153.570312 202.53125 150.699219 202.53125 147.15625 C 202.53125 143.613281 205.40625 140.742188 208.953125 140.742188 C 212.5 140.742188 215.378906 143.613281 215.378906 147.15625 Z M 215.378906 147.15625 "/>
<path style=" stroke:none;fill-rule:nonzero;fill:rgb(18.431373%,18.039216%,25.490196%);fill-opacity:1;" d="M 200.390625 143.683594 C 200.390625 140.398438 202.875 137.644531 206.144531 137.304688 C 205.921875 137.28125 205.699219 137.269531 205.472656 137.269531 C 201.925781 137.269531 199.050781 140.140625 199.050781 143.683594 C 199.050781 147.226562 201.925781 150.097656 205.472656 150.097656 C 205.699219 150.097656 205.921875 150.085938 206.144531 150.0625 C 202.871094 149.71875 200.390625 146.964844 200.390625 143.683594 Z M 200.390625 143.683594 "/>
<path style=" stroke:none;fill-rule:nonzero;fill:rgb(18.431373%,18.039216%,25.490196%);fill-opacity:1;" d="M 226.894531 160.183594 C 226.894531 156.640625 222.101562 153.769531 216.191406 153.769531 C 210.277344 153.769531 205.484375 156.640625 205.484375 160.183594 C 205.484375 163.726562 210.277344 166.597656 216.191406 166.597656 C 222.101562 166.597656 226.894531 163.726562 226.894531 160.183594 Z M 226.894531 160.183594 "/>
<path style=" stroke:none;fill-rule:nonzero;fill:rgb(24.705882%,23.921569%,33.72549%);fill-opacity:1;" d="M 203.902344 176.890625 C 203.902344 176.890625 200.652344 179.414062 199.929688 179.773438 C 199.210938 180.136719 194.875 176.53125 194.152344 176.53125 C 193.429688 176.53125 184.039062 187.347656 184.039062 187.347656 C 184.039062 187.347656 185.785156 189.355469 184.039062 199.609375 C 183.386719 203.453125 182.089844 219.894531 182.089844 222.058594 C 182.089844 224.222656 175.011719 229.539062 181.511719 234.226562 C 188.011719 238.914062 219.074219 243.964844 219.433594 241.078125 C 219.792969 238.195312 215.820312 230.621094 217.628906 227.015625 C 219.433594 223.410156 219.433594 210.066406 219.433594 210.066406 L 221.601562 196.003906 L 223.40625 184.824219 C 223.40625 184.824219 214.917969 182.480469 214.195312 182.480469 C 213.472656 182.480469 210.222656 187.527344 203.902344 176.890625 Z M 203.902344 176.890625 "/>
<path style=" stroke:none;fill-rule:nonzero;fill:rgb(24.705882%,23.921569%,33.72549%);fill-opacity:1;" d="M 0 355.632812 L 332.496094 355.632812 L 332.496094 356.753906 L 0 356.753906 Z M 0 355.632812 "/>
</g>
</svg>
