<?xml version="1.0" encoding="UTF-8"?>
<svg xmlns="http://www.w3.org/2000/svg" xmlns:xlink="http://www.w3.org/1999/xlink" width="181pt" height="158pt" viewBox="0 0 181 158" version="1.1">
<g id="surface1">
<path style=" stroke:none;fill-rule:nonzero;fill:rgb(90.196078%,90.196078%,90.196078%);fill-opacity:1;" d="M 131.363281 155.363281 C 131.363281 153.976562 109.027344 152.851562 81.476562 152.851562 C 53.921875 152.851562 31.585938 153.976562 31.585938 155.363281 C 31.585938 156.75 53.921875 157.875 81.476562 157.875 C 109.027344 157.875 131.363281 156.75 131.363281 155.363281 Z M 131.363281 155.363281 "/>
<path style=" stroke:none;fill-rule:nonzero;fill:rgb(90.196078%,90.196078%,90.196078%);fill-opacity:1;" d="M 49.515625 24.804688 C 49.515625 38.507812 38.429688 49.613281 24.757812 49.613281 C 11.085938 49.613281 0 38.507812 0 24.804688 C 0 11.105469 11.085938 0 24.757812 0 C 38.429688 0 49.515625 11.105469 49.515625 24.804688 Z M 49.515625 24.804688 "/>
<path style=" stroke:none;fill-rule:nonzero;fill:rgb(38.823529%,59.607843%,100%);fill-opacity:1;" d="M 45.386719 24.804688 C 45.386719 36.222656 36.152344 45.476562 24.757812 45.476562 C 13.363281 45.476562 4.125 36.222656 4.125 24.804688 C 4.125 13.390625 13.363281 4.132812 24.757812 4.132812 C 36.152344 4.132812 45.386719 13.390625 45.386719 24.804688 Z M 45.386719 24.804688 "/>
<path style=" stroke:none;fill-rule:nonzero;fill:rgb(90.196078%,90.196078%,90.196078%);fill-opacity:1;" d="M 115.257812 24.804688 C 115.257812 38.507812 104.171875 49.613281 90.5 49.613281 C 76.828125 49.613281 65.742188 38.507812 65.742188 24.804688 C 65.742188 11.105469 76.828125 0 90.5 0 C 104.171875 0 115.257812 11.105469 115.257812 24.804688 Z M 115.257812 24.804688 "/>
<path style=" stroke:none;fill-rule:nonzero;fill:rgb(100%,100%,100%);fill-opacity:1;" d="M 111.128906 24.804688 C 111.128906 36.222656 101.894531 45.476562 90.5 45.476562 C 79.105469 45.476562 69.871094 36.222656 69.871094 24.804688 C 69.871094 13.390625 79.105469 4.132812 90.5 4.132812 C 101.894531 4.132812 111.128906 13.390625 111.128906 24.804688 Z M 111.128906 24.804688 "/>
<path style=" stroke:none;fill-rule:nonzero;fill:rgb(90.196078%,90.196078%,90.196078%);fill-opacity:1;" d="M 181 24.804688 C 181 38.507812 169.914062 49.613281 156.242188 49.613281 C 142.570312 49.613281 131.484375 38.507812 131.484375 24.804688 C 131.484375 11.105469 142.570312 0 156.242188 0 C 169.914062 0 181 11.105469 181 24.804688 Z M 181 24.804688 "/>
<path style=" stroke:none;fill-rule:nonzero;fill:rgb(100%,100%,100%);fill-opacity:1;" d="M 176.875 24.804688 C 176.875 36.222656 167.636719 45.476562 156.242188 45.476562 C 144.847656 45.476562 135.613281 36.222656 135.613281 24.804688 C 135.613281 13.390625 144.847656 4.132812 156.242188 4.132812 C 167.636719 4.132812 176.875 13.390625 176.875 24.804688 Z M 176.875 24.804688 "/>
<path style=" stroke:none;fill-rule:nonzero;fill:rgb(100%,100%,100%);fill-opacity:1;" d="M 22.84375 33.300781 L 16.832031 25.554688 L 20.328125 22.832031 L 23.175781 26.5 L 32.789062 16.332031 L 36.003906 19.382812 Z M 22.84375 33.300781 "/>
<path style=" stroke:none;fill-rule:nonzero;fill:rgb(18.431373%,18.039216%,25.490196%);fill-opacity:1;" d="M 68.625 29.863281 C 67 25.929688 66.734375 22.214844 69.027344 18.917969 C 69.109375 16.679688 70.09375 14.566406 71.753906 13.066406 C 73.417969 11.570312 75.613281 10.808594 77.847656 10.957031 L 79.339844 11.058594 C 82.488281 11.265625 85.242188 13.253906 86.433594 16.179688 C 89.21875 23.105469 89.308594 32.308594 88.613281 42.171875 L 68.171875 42.171875 C 69.386719 37.558594 70.011719 33.230469 68.625 29.863281 Z M 68.625 29.863281 "/>
<path style=" stroke:none;fill-rule:nonzero;fill:rgb(62.352941%,38.039216%,41.568627%);fill-opacity:1;" d="M 42.230469 41.9375 L 36.832031 39.503906 C 35.742188 39.015625 34.917969 38.074219 34.574219 36.929688 C 34.230469 35.785156 34.402344 34.546875 35.042969 33.535156 C 35.75 32.414062 36.953125 31.707031 38.273438 31.625 C 39.59375 31.546875 40.875 32.109375 41.710938 33.140625 L 44.203125 36.210938 L 55.835938 46.546875 L 63.570312 41.375 L 67.074219 47.328125 L 54.53125 54.921875 Z M 42.230469 41.9375 "/>
<path style=" stroke:none;fill-rule:nonzero;fill:rgb(38.823529%,59.607843%,100%);fill-opacity:1;" d="M 66.511719 49.082031 L 62.246094 40.90625 L 78.851562 33.496094 L 78.996094 35.058594 C 79.261719 37.988281 77.964844 40.839844 75.582031 42.554688 Z M 66.511719 49.082031 "/>
<path style=" stroke:none;fill-rule:nonzero;fill:rgb(62.352941%,38.039216%,41.568627%);fill-opacity:1;" d="M 88.027344 33.007812 L 71.09375 47.050781 L 70.121094 45.683594 L 74.792969 37.296875 L 76.933594 36.324219 C 77.445312 34.144531 76.136719 31.222656 74.402344 28.128906 L 82.578125 26.960938 C 82.972656 29.617188 84.769531 31.640625 88.027344 33.007812 Z M 88.027344 33.007812 "/>
<path style=" stroke:none;fill-rule:nonzero;fill:rgb(18.431373%,18.039216%,25.490196%);fill-opacity:1;" d="M 108.464844 129.941406 L 105.644531 134.132812 L 83.160156 121.359375 L 86.277344 105.949219 Z M 108.464844 129.941406 "/>
<path style=" stroke:none;fill-rule:nonzero;fill:rgb(18.431373%,18.039216%,25.490196%);fill-opacity:1;" d="M 78.78125 149.929688 L 74.207031 147.882812 L 73.039062 94.246094 L 68.660156 65.089844 L 85.691406 61.871094 L 89.195312 69.476562 C 97.804688 81.3125 85.253906 117.566406 78.78125 149.929688 Z M 78.78125 149.929688 "/>
<path style=" stroke:none;fill-rule:nonzero;fill:rgb(18.431373%,18.039216%,25.490196%);fill-opacity:1;" d="M 79.152344 149.203125 L 80.089844 151.25 C 80.445312 152.027344 80.414062 152.933594 80.003906 153.683594 C 79.597656 154.4375 78.855469 154.953125 78.007812 155.074219 L 65.597656 156.851562 C 64.335938 157.03125 63.136719 156.253906 62.785156 155.023438 C 62.464844 153.898438 62.945312 152.699219 63.957031 152.113281 L 74.378906 146.886719 Z M 79.152344 149.203125 "/>
<path style=" stroke:none;fill-rule:nonzero;fill:rgb(18.431373%,18.039216%,25.490196%);fill-opacity:1;" d="M 107.882812 129.148438 L 110.125 128.980469 C 110.980469 128.917969 111.8125 129.265625 112.375 129.914062 C 112.9375 130.5625 113.160156 131.4375 112.976562 132.277344 L 110.296875 144.542969 C 110.023438 145.792969 108.871094 146.644531 107.601562 146.546875 C 106.4375 146.453125 105.488281 145.582031 105.289062 144.429688 L 104.050781 132.8125 Z M 107.882812 129.148438 "/>
<path style=" stroke:none;fill-rule:nonzero;fill:rgb(62.352941%,38.039216%,41.568627%);fill-opacity:1;" d="M 85.109375 23.058594 C 85.109375 27.367188 81.621094 30.863281 77.320312 30.863281 C 73.023438 30.863281 69.535156 27.367188 69.535156 23.058594 C 69.535156 18.75 73.023438 15.257812 77.320312 15.257812 C 81.621094 15.257812 85.109375 18.75 85.109375 23.058594 Z M 85.109375 23.058594 "/>
<path style=" stroke:none;fill-rule:nonzero;fill:rgb(38.823529%,59.607843%,100%);fill-opacity:1;" d="M 85.300781 63.042969 L 68.367188 66.554688 L 67.980469 55.242188 C 65.527344 52.640625 71.246094 42.222656 73.234375 37.296875 L 75.765625 36.515625 L 71.480469 44.320312 L 86.46875 32.03125 L 89.390625 32.8125 L 90.167969 47.050781 Z M 85.300781 63.042969 "/>
<path style=" stroke:none;fill-rule:nonzero;fill:rgb(62.352941%,38.039216%,41.568627%);fill-opacity:1;" d="M 86.46875 69.867188 L 82.796875 74.523438 C 82.058594 75.460938 80.945312 76.03125 79.753906 76.085938 C 78.5625 76.136719 77.40625 75.671875 76.582031 74.800781 C 75.671875 73.839844 75.277344 72.5 75.527344 71.195312 C 75.773438 69.890625 76.628906 68.789062 77.828125 68.226562 L 81.410156 66.554688 L 94.257812 57.777344 L 91.140625 49 L 97.761719 47.050781 L 102.042969 61.09375 Z M 86.46875 69.867188 "/>
<path style=" stroke:none;fill-rule:nonzero;fill:rgb(18.431373%,18.039216%,25.490196%);fill-opacity:1;" d="M 87.152344 40.613281 L 73.046875 40.613281 C 73.574219 37.941406 74.996094 35.519531 78.882812 33.78125 C 81.714844 28.355469 82.925781 23.429688 78.882812 20.144531 C 74.261719 19.078125 72.472656 17.140625 73.046875 14.476562 L 81.3125 13.113281 C 88.113281 19.179688 88.191406 29.539062 87.152344 40.613281 Z M 87.152344 40.613281 "/>
<path style=" stroke:none;fill-rule:nonzero;fill:rgb(38.823529%,59.607843%,100%);fill-opacity:1;" d="M 99.316406 48.023438 L 90.363281 50.167969 L 87.25 32.226562 L 88.796875 32.46875 C 91.695312 32.921875 94.140625 34.882812 95.214844 37.617188 Z M 99.316406 48.023438 "/>
</g>
</svg>
