<?xml version="1.0" encoding="UTF-8"?>
<svg xmlns="http://www.w3.org/2000/svg" xmlns:xlink="http://www.w3.org/1999/xlink" width="443pt" height="312pt" viewBox="0 0 443 312" version="1.1">
<defs>
<filter id="alpha" filterUnits="objectBoundingBox" x="0%" y="0%" width="100%" height="100%">
  <feColorMatrix type="matrix" in="SourceGraphic" values="0 0 0 0 1 0 0 0 0 1 0 0 0 0 1 0 0 0 1 0"/>
</filter>
<mask id="mask0">
  <g filter="url(#alpha)">
<rect x="0" y="0" width="443" height="312" style="fill:rgb(0%,0%,0%);fill-opacity:0.2;stroke:none;"/>
  </g>
</mask>
<clipPath id="clip1">
  <rect x="0" y="0" width="443" height="313"/>
</clipPath>
<g id="surface5" clip-path="url(#clip1)">
<path style=" stroke:none;fill-rule:nonzero;fill:rgb(0%,0%,0%);fill-opacity:1;" d="M 140.6875 26.832031 C 156.230469 63.25 143.136719 105.582031 109.757812 126.816406 C 76.382812 148.046875 32.558594 141.925781 6.257812 112.355469 C 18.820312 141.792969 47.542969 161.023438 79.503906 161.398438 C 111.460938 161.773438 140.628906 143.21875 153.875 114.085938 C 167.121094 84.953125 161.949219 50.734375 140.6875 26.832031 Z M 140.6875 26.832031 "/>
</g>
<mask id="mask1">
  <g filter="url(#alpha)">
<rect x="0" y="0" width="443" height="312" style="fill:rgb(0%,0%,0%);fill-opacity:0.2;stroke:none;"/>
  </g>
</mask>
<clipPath id="clip2">
  <rect x="0" y="0" width="443" height="313"/>
</clipPath>
<g id="surface8" clip-path="url(#clip2)">
<path style=" stroke:none;fill-rule:nonzero;fill:rgb(0%,0%,0%);fill-opacity:1;" d="M 426.210938 71.40625 C 438.789062 100.878906 428.191406 135.140625 401.175781 152.324219 C 374.164062 169.511719 338.695312 164.558594 317.40625 140.625 C 327.574219 164.449219 350.824219 180.015625 376.6875 180.320312 C 402.554688 180.621094 426.160156 165.605469 436.882812 142.023438 C 447.605469 118.445312 443.417969 90.75 426.210938 71.40625 Z M 426.210938 71.40625 "/>
</g>
<mask id="mask2">
  <g filter="url(#alpha)">
<rect x="0" y="0" width="443" height="312" style="fill:rgb(0%,0%,0%);fill-opacity:0.2;stroke:none;"/>
  </g>
</mask>
<clipPath id="clip3">
  <rect x="0" y="0" width="443" height="313"/>
</clipPath>
<g id="surface11" clip-path="url(#clip3)">
<path style=" stroke:none;fill-rule:nonzero;fill:rgb(0%,0%,0%);fill-opacity:1;" d="M 192.601562 154.234375 C 194.582031 158.875 192.910156 164.265625 188.660156 166.972656 C 184.40625 169.675781 178.824219 168.898438 175.472656 165.128906 C 177.074219 168.878906 180.730469 171.332031 184.804688 171.378906 C 188.875 171.425781 192.59375 169.0625 194.28125 165.351562 C 195.96875 161.636719 195.308594 157.277344 192.601562 154.234375 Z M 192.601562 154.234375 "/>
</g>
<mask id="mask3">
  <g filter="url(#alpha)">
<rect x="0" y="0" width="443" height="312" style="fill:rgb(0%,0%,0%);fill-opacity:0.2;stroke:none;"/>
  </g>
</mask>
<clipPath id="clip4">
  <rect x="0" y="0" width="443" height="313"/>
</clipPath>
<g id="surface14" clip-path="url(#clip4)">
<path style=" stroke:none;fill-rule:nonzero;fill:rgb(0%,0%,0%);fill-opacity:1;" d="M 299.515625 110.320312 C 304.585938 122.199219 300.3125 136.007812 289.425781 142.933594 C 278.539062 149.859375 264.242188 147.863281 255.664062 138.21875 C 259.761719 147.820312 269.132812 154.09375 279.554688 154.214844 C 289.980469 154.339844 299.496094 148.285156 303.816406 138.78125 C 308.136719 129.28125 306.449219 118.117188 299.515625 110.320312 Z M 299.515625 110.320312 "/>
</g>
</defs>
<g id="surface1">
<path style=" stroke:none;fill-rule:nonzero;fill:rgb(24.705882%,23.921569%,33.72549%);fill-opacity:1;" d="M 230.800781 174.464844 L 200.207031 174.464844 L 200.207031 175.453125 L 204.980469 175.453125 L 204.980469 184.84375 L 205.964844 184.84375 L 205.964844 175.453125 L 224.550781 175.453125 L 224.550781 184.84375 L 225.535156 184.84375 L 225.535156 175.453125 L 230.800781 175.453125 Z M 230.800781 174.464844 "/>
<path style=" stroke:none;fill-rule:nonzero;fill:rgb(24.705882%,23.921569%,33.72549%);fill-opacity:1;" d="M 242.148438 150.246094 L 234.253906 150.246094 L 234.253906 158.15625 L 237.914062 158.15625 L 237.914062 184.800781 L 238.902344 184.800781 L 238.902344 158.15625 L 242.148438 158.15625 Z M 242.148438 150.246094 "/>
<path style=" stroke:none;fill-rule:nonzero;fill:rgb(24.705882%,23.921569%,33.72549%);fill-opacity:1;" d="M 200.269531 171.507812 L 230.859375 171.507812 L 230.859375 172.496094 L 200.269531 172.496094 Z M 200.269531 171.507812 "/>
<path style=" stroke:none;fill-rule:nonzero;fill:rgb(24.705882%,23.921569%,33.72549%);fill-opacity:1;" d="M 200.269531 169.035156 L 230.859375 169.035156 L 230.859375 170.023438 L 200.269531 170.023438 Z M 200.269531 169.035156 "/>
<path style=" stroke:none;fill-rule:nonzero;fill:rgb(24.705882%,23.921569%,33.72549%);fill-opacity:1;" d="M 200.269531 166.566406 L 230.859375 166.566406 L 230.859375 167.554688 L 200.269531 167.554688 Z M 200.269531 166.566406 "/>
<path style=" stroke:none;fill-rule:nonzero;fill:rgb(24.705882%,23.921569%,33.72549%);fill-opacity:1;" d="M 309.257812 187.691406 L 308.269531 187.691406 C 308.269531 140.820312 270.195312 102.6875 223.398438 102.6875 C 176.601562 102.6875 138.527344 140.820312 138.527344 187.691406 L 137.542969 187.691406 C 137.542969 140.273438 176.058594 101.699219 223.398438 101.699219 C 270.742188 101.699219 309.257812 140.273438 309.257812 187.691406 Z M 309.257812 187.691406 "/>
<path style=" stroke:none;fill-rule:nonzero;fill:rgb(38.823529%,59.607843%,100%);fill-opacity:1;" d="M 161.351562 80.804688 C 161.351562 125.433594 125.230469 161.609375 80.675781 161.609375 C 36.121094 161.609375 0 125.433594 0 80.804688 C 0 36.179688 36.121094 0 80.675781 0 C 125.230469 0 161.351562 36.179688 161.351562 80.804688 Z M 161.351562 80.804688 "/>
<use xlink:href="#surface5" mask="url(#mask0)"/>
<path style=" stroke:none;fill-rule:nonzero;fill:rgb(24.705882%,23.921569%,33.72549%);fill-opacity:1;" d="M 80.898438 80.804688 L 81.117188 80.804688 L 85.109375 309.902344 L 76.6875 309.902344 Z M 80.898438 80.804688 "/>
<path style=" stroke:none;fill-rule:nonzero;fill:rgb(24.705882%,23.921569%,33.72549%);fill-opacity:1;" d="M 93.730469 202.058594 L 95.585938 205.59375 L 82.25 212.625 L 80.394531 209.089844 Z M 93.730469 202.058594 "/>
<path style=" stroke:none;fill-rule:nonzero;fill:rgb(38.823529%,59.607843%,100%);fill-opacity:1;" d="M 442.933594 115.085938 C 442.933594 151.207031 413.699219 180.488281 377.636719 180.488281 C 341.574219 180.488281 312.339844 151.207031 312.339844 115.085938 C 312.339844 78.96875 341.574219 49.6875 377.636719 49.6875 C 413.699219 49.6875 442.933594 78.96875 442.933594 115.085938 Z M 442.933594 115.085938 "/>
<use xlink:href="#surface8" mask="url(#mask1)"/>
<path style=" stroke:none;fill-rule:nonzero;fill:rgb(24.705882%,23.921569%,33.72549%);fill-opacity:1;" d="M 377.816406 115.085938 L 377.996094 115.085938 L 381.226562 300.511719 L 374.410156 300.511719 Z M 377.816406 115.085938 "/>
<path style=" stroke:none;fill-rule:nonzero;fill:rgb(24.705882%,23.921569%,33.72549%);fill-opacity:1;" d="M 388.203125 213.226562 L 389.707031 216.085938 L 378.914062 221.777344 L 377.410156 218.917969 Z M 388.203125 213.226562 "/>
<path style=" stroke:none;fill-rule:nonzero;fill:rgb(38.823529%,59.607843%,100%);fill-opacity:1;" d="M 195.234375 161.109375 C 195.234375 166.796875 190.628906 171.40625 184.953125 171.40625 C 179.277344 171.40625 174.675781 166.796875 174.675781 161.109375 C 174.675781 155.425781 179.277344 150.8125 184.953125 150.8125 C 190.628906 150.8125 195.234375 155.425781 195.234375 161.109375 Z M 195.234375 161.109375 "/>
<use xlink:href="#surface11" mask="url(#mask2)"/>
<path style=" stroke:none;fill-rule:nonzero;fill:rgb(24.705882%,23.921569%,33.72549%);fill-opacity:1;" d="M 184.980469 161.109375 L 185.011719 161.109375 L 185.519531 190.300781 L 184.445312 190.300781 Z M 184.980469 161.109375 "/>
<path style=" stroke:none;fill-rule:nonzero;fill:rgb(24.705882%,23.921569%,33.72549%);fill-opacity:1;" d="M 186.617188 176.558594 L 186.855469 177.007812 L 185.15625 177.90625 L 184.917969 177.457031 Z M 186.617188 176.558594 "/>
<path style=" stroke:none;fill-rule:nonzero;fill:rgb(38.823529%,59.607843%,100%);fill-opacity:1;" d="M 306.253906 127.925781 C 306.253906 142.484375 294.472656 154.285156 279.9375 154.285156 C 265.40625 154.285156 253.625 142.484375 253.625 127.925781 C 253.625 113.371094 265.40625 101.570312 279.9375 101.570312 C 294.472656 101.570312 306.253906 113.371094 306.253906 127.925781 Z M 306.253906 127.925781 "/>
<use xlink:href="#surface14" mask="url(#mask3)"/>
<path style=" stroke:none;fill-rule:nonzero;fill:rgb(24.705882%,23.921569%,33.72549%);fill-opacity:1;" d="M 280.011719 127.925781 L 280.082031 127.925781 L 281.386719 202.65625 L 278.636719 202.65625 Z M 280.011719 127.925781 "/>
<path style=" stroke:none;fill-rule:nonzero;fill:rgb(24.705882%,23.921569%,33.72549%);fill-opacity:1;" d="M 284.195312 167.476562 L 284.804688 168.632812 L 280.453125 170.925781 L 279.847656 169.773438 Z M 284.195312 167.476562 "/>
<path style=" stroke:none;fill-rule:nonzero;fill:rgb(24.705882%,23.921569%,33.72549%);fill-opacity:1;" d="M 98.761719 298.496094 C 98.761719 298.496094 99.101562 291.347656 106.085938 292.175781 "/>
<path style=" stroke:none;fill-rule:nonzero;fill:rgb(38.823529%,59.607843%,100%);fill-opacity:1;" d="M 100.285156 288.191406 C 100.285156 290.125 98.71875 291.691406 96.789062 291.691406 C 94.855469 291.691406 93.292969 290.125 93.292969 288.191406 C 93.292969 286.257812 94.855469 284.6875 96.789062 284.6875 C 98.71875 284.6875 100.285156 286.257812 100.285156 288.191406 Z M 100.285156 288.191406 "/>
<path style=" stroke:none;fill-rule:nonzero;fill:rgb(24.705882%,23.921569%,33.72549%);fill-opacity:1;" d="M 96.21875 294.085938 L 97.207031 294.085938 L 97.207031 301.007812 L 96.21875 301.007812 Z M 96.21875 294.085938 "/>
<path style=" stroke:none;fill-rule:nonzero;fill:rgb(24.705882%,23.921569%,33.72549%);fill-opacity:1;" d="M 123.433594 282.1875 C 123.433594 282.1875 123.773438 275.035156 130.757812 275.867188 "/>
<path style=" stroke:none;fill-rule:nonzero;fill:rgb(38.823529%,59.607843%,100%);fill-opacity:1;" d="M 124.957031 271.878906 C 124.957031 273.816406 123.390625 275.382812 121.460938 275.382812 C 119.527344 275.382812 117.964844 273.816406 117.964844 271.878906 C 117.964844 269.945312 119.527344 268.378906 121.460938 268.378906 C 123.390625 268.378906 124.957031 269.945312 124.957031 271.878906 Z M 124.957031 271.878906 "/>
<path style=" stroke:none;fill-rule:nonzero;fill:rgb(24.705882%,23.921569%,33.72549%);fill-opacity:1;" d="M 120.890625 277.777344 L 121.878906 277.777344 L 121.878906 284.695312 L 120.890625 284.695312 Z M 120.890625 277.777344 "/>
<path style=" stroke:none;fill-rule:nonzero;fill:rgb(24.705882%,23.921569%,33.72549%);fill-opacity:1;" d="M 197.800781 226.855469 C 197.800781 226.855469 198.074219 221.175781 203.621094 221.835938 "/>
<path style=" stroke:none;fill-rule:nonzero;fill:rgb(38.823529%,59.607843%,100%);fill-opacity:1;" d="M 199.011719 218.671875 C 199.011719 220.207031 197.769531 221.453125 196.234375 221.453125 C 194.703125 221.453125 193.457031 220.207031 193.457031 218.671875 C 193.457031 217.132812 194.703125 215.890625 196.234375 215.890625 C 197.769531 215.890625 199.011719 217.132812 199.011719 218.671875 Z M 199.011719 218.671875 "/>
<path style=" stroke:none;fill-rule:nonzero;fill:rgb(24.705882%,23.921569%,33.72549%);fill-opacity:1;" d="M 195.78125 223.355469 L 196.566406 223.355469 L 196.566406 228.847656 L 195.78125 228.847656 Z M 195.78125 223.355469 "/>
<path style=" stroke:none;fill-rule:nonzero;fill:rgb(24.705882%,23.921569%,33.72549%);fill-opacity:1;" d="M 306.355469 209.066406 C 306.355469 209.066406 306.628906 203.386719 312.175781 204.046875 "/>
<path style=" stroke:none;fill-rule:nonzero;fill:rgb(38.823529%,59.607843%,100%);fill-opacity:1;" d="M 307.566406 200.878906 C 307.566406 202.414062 306.324219 203.660156 304.789062 203.660156 C 303.257812 203.660156 302.011719 202.414062 302.011719 200.878906 C 302.011719 199.34375 303.257812 198.097656 304.789062 198.097656 C 306.324219 198.097656 307.566406 199.34375 307.566406 200.878906 Z M 307.566406 200.878906 "/>
<path style=" stroke:none;fill-rule:nonzero;fill:rgb(24.705882%,23.921569%,33.72549%);fill-opacity:1;" d="M 304.335938 205.5625 L 305.121094 205.5625 L 305.121094 211.058594 L 304.335938 211.058594 Z M 304.335938 205.5625 "/>
<path style=" stroke:none;fill-rule:nonzero;fill:rgb(24.705882%,23.921569%,33.72549%);fill-opacity:1;" d="M 202.738281 241.683594 C 202.738281 241.683594 203.007812 236.003906 208.554688 236.664062 "/>
<path style=" stroke:none;fill-rule:nonzero;fill:rgb(38.823529%,59.607843%,100%);fill-opacity:1;" d="M 203.945312 233.496094 C 203.945312 235.035156 202.703125 236.277344 201.167969 236.277344 C 199.636719 236.277344 198.390625 235.035156 198.390625 233.496094 C 198.390625 231.960938 199.636719 230.714844 201.167969 230.714844 C 202.703125 230.714844 203.945312 231.960938 203.945312 233.496094 Z M 203.945312 233.496094 "/>
<path style=" stroke:none;fill-rule:nonzero;fill:rgb(24.705882%,23.921569%,33.72549%);fill-opacity:1;" d="M 200.71875 238.179688 L 201.5 238.179688 L 201.5 243.675781 L 200.71875 243.675781 Z M 200.71875 238.179688 "/>
<path style=" stroke:none;fill-rule:nonzero;fill:rgb(24.705882%,23.921569%,33.72549%);fill-opacity:1;" d="M 190.894531 252.554688 C 190.894531 252.554688 191.164062 246.875 196.714844 247.535156 "/>
<path style=" stroke:none;fill-rule:nonzero;fill:rgb(38.823529%,59.607843%,100%);fill-opacity:1;" d="M 192.105469 244.371094 C 192.105469 245.90625 190.859375 247.152344 189.328125 247.152344 C 187.792969 247.152344 186.550781 245.90625 186.550781 244.371094 C 186.550781 242.835938 187.792969 241.589844 189.328125 241.589844 C 190.859375 241.589844 192.105469 242.835938 192.105469 244.371094 Z M 192.105469 244.371094 "/>
<path style=" stroke:none;fill-rule:nonzero;fill:rgb(24.705882%,23.921569%,33.72549%);fill-opacity:1;" d="M 188.875 249.054688 L 189.660156 249.054688 L 189.660156 254.550781 L 188.875 254.550781 Z M 188.875 249.054688 "/>
<path style=" stroke:none;fill-rule:nonzero;fill:rgb(24.705882%,23.921569%,33.72549%);fill-opacity:1;" d="M 323.132812 218.457031 C 323.132812 218.457031 323.40625 212.773438 328.953125 213.433594 "/>
<path style=" stroke:none;fill-rule:nonzero;fill:rgb(38.823529%,59.607843%,100%);fill-opacity:1;" d="M 324.34375 210.269531 C 324.34375 211.804688 323.101562 213.050781 321.566406 213.050781 C 320.03125 213.050781 318.789062 211.804688 318.789062 210.269531 C 318.789062 208.734375 320.03125 207.488281 321.566406 207.488281 C 323.101562 207.488281 324.34375 208.734375 324.34375 210.269531 Z M 324.34375 210.269531 "/>
<path style=" stroke:none;fill-rule:nonzero;fill:rgb(24.705882%,23.921569%,33.72549%);fill-opacity:1;" d="M 321.113281 214.953125 L 321.898438 214.953125 L 321.898438 220.449219 L 321.113281 220.449219 Z M 321.113281 214.953125 "/>
<path style=" stroke:none;fill-rule:nonzero;fill:rgb(24.705882%,23.921569%,33.72549%);fill-opacity:1;" d="M 163.261719 230.8125 C 163.261719 230.8125 163.53125 225.128906 169.082031 225.789062 "/>
<path style=" stroke:none;fill-rule:nonzero;fill:rgb(38.823529%,59.607843%,100%);fill-opacity:1;" d="M 164.472656 222.625 C 164.472656 224.160156 163.226562 225.40625 161.695312 225.40625 C 160.160156 225.40625 158.917969 224.160156 158.917969 222.625 C 158.917969 221.089844 160.160156 219.84375 161.695312 219.84375 C 163.226562 219.84375 164.472656 221.089844 164.472656 222.625 Z M 164.472656 222.625 "/>
<path style=" stroke:none;fill-rule:nonzero;fill:rgb(24.705882%,23.921569%,33.72549%);fill-opacity:1;" d="M 161.242188 227.308594 L 162.027344 227.308594 L 162.027344 232.804688 L 161.242188 232.804688 Z M 161.242188 227.308594 "/>
<path style=" stroke:none;fill-rule:nonzero;fill:rgb(24.705882%,23.921569%,33.72549%);fill-opacity:1;" d="M 291.554688 202.640625 C 291.554688 202.640625 291.824219 196.960938 297.371094 197.621094 "/>
<path style=" stroke:none;fill-rule:nonzero;fill:rgb(38.823529%,59.607843%,100%);fill-opacity:1;" d="M 292.761719 194.453125 C 292.761719 195.988281 291.519531 197.234375 289.988281 197.234375 C 288.453125 197.234375 287.210938 195.988281 287.210938 194.453125 C 287.210938 192.917969 288.453125 191.671875 289.988281 191.671875 C 291.519531 191.671875 292.761719 192.917969 292.761719 194.453125 Z M 292.761719 194.453125 "/>
<path style=" stroke:none;fill-rule:nonzero;fill:rgb(24.705882%,23.921569%,33.72549%);fill-opacity:1;" d="M 289.535156 199.136719 L 290.320312 199.136719 L 290.320312 204.632812 L 289.535156 204.632812 Z M 289.535156 199.136719 "/>
<path style=" stroke:none;fill-rule:nonzero;fill:rgb(24.705882%,23.921569%,33.72549%);fill-opacity:1;" d="M 55.832031 299.980469 C 55.832031 299.980469 56.171875 292.828125 63.160156 293.660156 "/>
<path style=" stroke:none;fill-rule:nonzero;fill:rgb(38.823529%,59.607843%,100%);fill-opacity:1;" d="M 57.355469 289.671875 C 57.355469 291.605469 55.789062 293.175781 53.859375 293.175781 C 51.929688 293.175781 50.363281 291.605469 50.363281 289.671875 C 50.363281 287.738281 51.929688 286.171875 53.859375 286.171875 C 55.789062 286.171875 57.355469 287.738281 57.355469 289.671875 Z M 57.355469 289.671875 "/>
<path style=" stroke:none;fill-rule:nonzero;fill:rgb(24.705882%,23.921569%,33.72549%);fill-opacity:1;" d="M 53.289062 295.570312 L 54.277344 295.570312 L 54.277344 302.488281 L 53.289062 302.488281 Z M 53.289062 295.570312 "/>
<path style=" stroke:none;fill-rule:nonzero;fill:rgb(24.705882%,23.921569%,33.72549%);fill-opacity:1;" d="M 395.808594 298.003906 C 395.808594 298.003906 396.148438 290.851562 403.132812 291.683594 "/>
<path style=" stroke:none;fill-rule:nonzero;fill:rgb(38.823529%,59.607843%,100%);fill-opacity:1;" d="M 397.328125 287.695312 C 397.328125 289.628906 395.765625 291.199219 393.832031 291.199219 C 391.902344 291.199219 390.335938 289.628906 390.335938 287.695312 C 390.335938 285.761719 391.902344 284.195312 393.832031 284.195312 C 395.765625 284.195312 397.328125 285.761719 397.328125 287.695312 Z M 397.328125 287.695312 "/>
<path style=" stroke:none;fill-rule:nonzero;fill:rgb(24.705882%,23.921569%,33.72549%);fill-opacity:1;" d="M 393.265625 293.59375 L 394.25 293.59375 L 394.25 300.511719 L 393.265625 300.511719 Z M 393.265625 293.59375 "/>
<path style=" stroke:none;fill-rule:nonzero;fill:rgb(24.705882%,23.921569%,33.72549%);fill-opacity:1;" d="M 367.1875 281.199219 C 367.1875 281.199219 367.527344 274.046875 374.515625 274.878906 "/>
<path style=" stroke:none;fill-rule:nonzero;fill:rgb(38.823529%,59.607843%,100%);fill-opacity:1;" d="M 368.710938 270.890625 C 368.710938 272.828125 367.144531 274.394531 365.214844 274.394531 C 363.28125 274.394531 361.71875 272.828125 361.71875 270.890625 C 361.71875 268.957031 363.28125 267.390625 365.214844 267.390625 C 367.144531 267.390625 368.710938 268.957031 368.710938 270.890625 Z M 368.710938 270.890625 "/>
<path style=" stroke:none;fill-rule:nonzero;fill:rgb(24.705882%,23.921569%,33.72549%);fill-opacity:1;" d="M 364.644531 276.789062 L 365.632812 276.789062 L 365.632812 283.707031 L 364.644531 283.707031 Z M 364.644531 276.789062 "/>
<path style=" stroke:none;fill-rule:nonzero;fill:rgb(24.705882%,23.921569%,33.72549%);fill-opacity:1;" d="M 363.242188 306.40625 C 363.242188 306.40625 363.582031 299.253906 370.566406 300.085938 "/>
<path style=" stroke:none;fill-rule:nonzero;fill:rgb(38.823529%,59.607843%,100%);fill-opacity:1;" d="M 364.761719 296.097656 C 364.761719 298.03125 363.199219 299.597656 361.265625 299.597656 C 359.335938 299.597656 357.769531 298.03125 357.769531 296.097656 C 357.769531 294.164062 359.335938 292.597656 361.265625 292.597656 C 363.199219 292.597656 364.761719 294.164062 364.761719 296.097656 Z M 364.761719 296.097656 "/>
<path style=" stroke:none;fill-rule:nonzero;fill:rgb(24.705882%,23.921569%,33.72549%);fill-opacity:1;" d="M 360.699219 301.996094 L 361.683594 301.996094 L 361.683594 308.914062 L 360.699219 308.914062 Z M 360.699219 301.996094 "/>
<path style=" stroke:none;fill-rule:nonzero;fill:rgb(90.196078%,90.196078%,90.196078%);fill-opacity:1;" d="M 61.511719 311.742188 C 61.511719 311.742188 216.945312 270.722656 215.464844 228.710938 C 212.75 217.097656 194 214.132812 194 214.132812 C 194 214.132812 149.589844 208.203125 173.769531 193.871094 C 197.945312 179.539062 264.066406 182.996094 264.066406 182.996094 C 264.066406 182.996094 195.972656 193.871094 226.070312 199.800781 C 250.25 201.285156 281.335938 207.707031 281.335938 207.707031 C 281.335938 207.707031 344.496094 221.050781 353.378906 253.671875 C 362.257812 286.289062 354.859375 311.496094 354.859375 311.496094 Z M 61.511719 311.742188 "/>
<path style=" stroke:none;fill-rule:nonzero;fill:rgb(100%,100%,100%);fill-opacity:1;" d="M 230.804688 311.902344 L 230.222656 311.085938 C 231.042969 310.5 231.855469 309.914062 232.652344 309.332031 L 233.242188 310.140625 C 232.441406 310.722656 231.628906 311.3125 230.804688 311.902344 Z M 230.804688 311.902344 "/>
<path style=" stroke:none;fill-rule:nonzero;fill:rgb(100%,100%,100%);fill-opacity:1;" d="M 238.058594 306.554688 L 237.457031 305.757812 C 239.070312 304.53125 240.664062 303.300781 242.183594 302.09375 L 242.804688 302.878906 C 241.277344 304.089844 239.679688 305.328125 238.058594 306.554688 Z M 247.46875 299.09375 L 246.832031 298.324219 C 248.394531 297.023438 249.925781 295.714844 251.378906 294.4375 L 252.039062 295.191406 C 250.578125 296.472656 249.042969 297.789062 247.46875 299.09375 Z M 256.488281 291.148438 L 255.800781 290.417969 C 257.292969 289.015625 258.734375 287.609375 260.078125 286.246094 L 260.792969 286.949219 C 259.4375 288.324219 257.988281 289.738281 256.488281 291.148438 Z M 264.914062 282.5625 L 264.171875 281.894531 C 265.542969 280.363281 266.839844 278.832031 268.027344 277.339844 L 268.808594 277.964844 C 267.609375 279.472656 266.300781 281.019531 264.914062 282.5625 Z M 272.390625 273.113281 L 271.566406 272.550781 C 272.730469 270.84375 273.777344 269.140625 274.683594 267.488281 L 275.558594 267.96875 C 274.640625 269.652344 273.574219 271.382812 272.390625 273.113281 Z M 278.140625 262.492188 L 277.210938 262.125 C 277.9375 260.292969 278.503906 258.402344 278.910156 256.472656 L 279.890625 256.671875 C 279.472656 258.65625 278.890625 260.605469 278.140625 262.492188 Z M 279.476562 250.625 C 279.449219 248.675781 279.175781 246.742188 278.671875 244.859375 L 279.640625 244.601562 C 280.164062 246.558594 280.445312 248.578125 280.476562 250.605469 Z M 276.484375 239.453125 C 275.535156 237.738281 274.421875 236.117188 273.15625 234.613281 L 273.925781 233.972656 C 275.230469 235.523438 276.382812 237.199219 277.363281 238.972656 Z M 269.027344 230.386719 C 267.539062 229.078125 265.984375 227.847656 264.363281 226.707031 L 264.941406 225.890625 C 266.589844 227.050781 268.175781 228.304688 269.6875 229.636719 Z M 259.351562 223.484375 C 257.714844 222.519531 255.949219 221.558594 254.109375 220.628906 L 254.558594 219.734375 C 256.421875 220.675781 258.203125 221.648438 259.859375 222.621094 Z M 248.703125 218.070312 C 246.960938 217.292969 245.109375 216.515625 243.191406 215.75 L 243.5625 214.820312 C 245.488281 215.589844 247.355469 216.375 249.109375 217.152344 Z M 237.585938 213.621094 C 235.804688 212.976562 233.898438 212.3125 231.925781 211.648438 L 232.242188 210.699219 C 234.222656 211.363281 236.136719 212.03125 237.925781 212.679688 Z M 226.21875 209.792969 C 224.476562 209.242188 222.601562 208.664062 220.484375 208.019531 L 220.773438 207.0625 C 222.894531 207.703125 224.773438 208.285156 226.519531 208.835938 Z M 214.730469 206.289062 C 212.707031 205.683594 210.777344 205.105469 208.972656 204.546875 L 209.265625 203.589844 C 211.070312 204.148438 212.996094 204.726562 215.015625 205.332031 Z M 203.238281 202.691406 C 201.3125 202.054688 199.433594 201.296875 197.605469 200.421875 L 198.054688 199.523438 C 199.84375 200.382812 201.683594 201.121094 203.566406 201.742188 Z M 195.6875 196.125 L 194.972656 195.421875 C 195.886719 194.496094 197.6875 193.585938 200.484375 192.648438 L 200.804688 193.597656 C 198.195312 194.472656 196.472656 195.324219 195.6875 196.125 Z M 206.523438 191.964844 L 206.28125 190.992188 C 208.011719 190.5625 209.984375 190.109375 212.140625 189.652344 L 212.347656 190.632812 C 210.203125 191.085938 208.242188 191.535156 206.523438 191.964844 Z M 218.210938 189.453125 L 218.023438 188.46875 C 219.863281 188.117188 221.847656 187.75 223.921875 187.382812 L 224.09375 188.367188 C 222.027344 188.734375 220.046875 189.101562 218.210938 189.453125 Z M 229.996094 187.351562 L 229.828125 186.363281 C 231.714844 186.046875 233.683594 185.722656 235.746094 185.394531 L 235.902344 186.382812 C 233.84375 186.710938 231.875 187.035156 229.996094 187.351562 Z M 229.996094 187.351562 "/>
<path style=" stroke:none;fill-rule:nonzero;fill:rgb(100%,100%,100%);fill-opacity:1;" d="M 241.933594 185.429688 L 241.78125 184.441406 C 242.75 184.289062 243.742188 184.136719 244.746094 183.984375 L 244.898438 184.972656 C 243.890625 185.128906 242.902344 185.28125 241.933594 185.429688 Z M 241.933594 185.429688 "/>
<path style=" stroke:none;fill-rule:nonzero;fill:rgb(24.705882%,23.921569%,33.72549%);fill-opacity:1;" d="M 264.066406 83.695312 L 268.605469 80.054688 C 265.078125 79.664062 263.628906 81.59375 263.035156 83.117188 C 260.277344 81.972656 257.277344 83.472656 257.277344 83.472656 L 266.367188 86.777344 C 265.90625 85.550781 265.109375 84.480469 264.066406 83.695312 Z M 264.066406 83.695312 "/>
<path style=" stroke:none;fill-rule:nonzero;fill:rgb(24.705882%,23.921569%,33.72549%);fill-opacity:1;" d="M 179.6875 111.863281 L 184.230469 108.226562 C 180.703125 107.835938 179.25 109.761719 178.65625 111.289062 C 175.902344 110.140625 172.898438 111.644531 172.898438 111.644531 L 181.988281 114.949219 C 181.53125 113.722656 180.730469 112.652344 179.6875 111.863281 Z M 179.6875 111.863281 "/>
<path style=" stroke:none;fill-rule:nonzero;fill:rgb(24.705882%,23.921569%,33.72549%);fill-opacity:1;" d="M 201.890625 53.546875 L 206.433594 49.90625 C 202.90625 49.515625 201.457031 51.445312 200.863281 52.96875 C 198.105469 51.824219 195.105469 53.328125 195.105469 53.328125 L 204.191406 56.632812 C 203.734375 55.40625 202.9375 54.335938 201.890625 53.546875 Z M 201.890625 53.546875 "/>
<path style=" stroke:none;fill-rule:nonzero;fill:rgb(61.960784%,38.039216%,41.568627%);fill-opacity:1;" d="M 251.273438 215.566406 C 251.273438 215.566406 247.335938 215.566406 246.902344 217.972656 C 246.464844 220.382812 245.808594 246.652344 246.246094 249.9375 C 246.683594 253.222656 246.683594 252.566406 246.683594 252.566406 C 246.683594 252.566406 245.808594 258.804688 247.777344 259.078125 C 249.742188 259.351562 249.742188 251.910156 249.742188 251.910156 L 251.273438 225.199219 Z M 251.273438 215.566406 "/>
<path style=" stroke:none;fill-rule:nonzero;fill:rgb(61.960784%,38.039216%,41.568627%);fill-opacity:1;" d="M 268.320312 215.566406 C 268.320312 215.566406 272.253906 215.566406 272.691406 217.972656 C 273.128906 220.382812 273.785156 246.652344 273.347656 249.9375 C 272.910156 253.222656 272.910156 252.566406 272.910156 252.566406 C 272.910156 252.566406 273.78125 258.804688 271.816406 259.078125 C 269.851562 259.351562 269.851562 251.910156 269.851562 251.910156 L 268.320312 225.199219 Z M 268.320312 215.566406 "/>
<path style=" stroke:none;fill-rule:nonzero;fill:rgb(18.431373%,18.039216%,25.490196%);fill-opacity:1;" d="M 250.617188 307.078125 L 248.867188 307.078125 C 246.695312 307.078125 244.933594 308.84375 244.933594 311.019531 L 255.644531 311.019531 L 255.644531 305.984375 L 250.617188 305.984375 Z M 250.617188 307.078125 "/>
<path style=" stroke:none;fill-rule:nonzero;fill:rgb(18.431373%,18.039216%,25.490196%);fill-opacity:1;" d="M 267.445312 307.078125 L 269.195312 307.078125 C 271.367188 307.078125 273.128906 308.84375 273.128906 311.019531 L 262.417969 311.019531 L 262.417969 305.984375 L 267.445312 305.984375 Z M 267.445312 307.078125 "/>
<path style=" stroke:none;fill-rule:nonzero;fill:rgb(61.960784%,38.039216%,41.568627%);fill-opacity:1;" d="M 263.730469 204.839844 C 263.730469 207.984375 261.1875 210.53125 258.046875 210.53125 C 254.910156 210.53125 252.363281 207.984375 252.363281 204.839844 C 252.363281 201.695312 254.910156 199.148438 258.046875 199.148438 C 261.1875 199.148438 263.730469 201.695312 263.730469 204.839844 Z M 263.730469 204.839844 "/>
<path style=" stroke:none;fill-rule:nonzero;fill:rgb(61.960784%,38.039216%,41.568627%);fill-opacity:1;" d="M 256.738281 207.902344 C 256.738281 207.902344 256.082031 215.128906 255.207031 215.785156 C 254.332031 216.441406 264.386719 215.347656 264.386719 215.347656 C 264.386719 215.347656 260.890625 210.09375 261.546875 208.339844 C 262.199219 206.589844 256.738281 207.902344 256.738281 207.902344 Z M 256.738281 207.902344 "/>
<path style=" stroke:none;fill-rule:nonzero;fill:rgb(18.431373%,18.039216%,25.490196%);fill-opacity:1;" d="M 269.632812 215.566406 C 269.632812 215.566406 257.609375 210.53125 249.742188 215.566406 C 249.742188 215.566406 247.773438 220.601562 249.304688 223.449219 C 250.835938 226.292969 253.238281 233.082031 250.835938 237.679688 C 248.429688 242.277344 251.054688 240.304688 251.054688 240.304688 C 251.054688 240.304688 247.992188 252.566406 247.554688 262.199219 C 247.117188 271.832031 248.867188 306.421875 250.179688 306.640625 C 251.492188 306.859375 255.644531 307.296875 256.082031 306.640625 C 256.519531 305.984375 259.578125 260.226562 259.578125 260.226562 C 259.578125 260.226562 260.890625 307.078125 262.199219 307.078125 C 263.511719 307.078125 267.007812 307.078125 267.664062 305.984375 C 268.320312 304.886719 273.785156 262.636719 271.816406 253.878906 C 269.851562 245.121094 268.539062 240.742188 268.539062 240.742188 C 268.539062 240.742188 270.945312 239.210938 270.289062 238.335938 C 269.632812 237.460938 266.355469 228.046875 267.882812 226.511719 C 269.414062 224.980469 269.632812 215.566406 269.632812 215.566406 Z M 269.632812 215.566406 "/>
<path style=" stroke:none;fill-rule:nonzero;fill:rgb(18.431373%,18.039216%,25.490196%);fill-opacity:1;" d="M 270.835938 201.410156 C 270.835938 206.488281 266.722656 210.601562 261.65625 210.601562 C 256.585938 210.601562 252.472656 206.488281 252.472656 201.410156 C 252.472656 196.328125 256.585938 192.214844 261.65625 192.214844 C 266.722656 192.214844 270.835938 196.328125 270.835938 201.410156 Z M 270.835938 201.410156 "/>
<path style=" stroke:none;fill-rule:nonzero;fill:rgb(18.431373%,18.039216%,25.490196%);fill-opacity:1;" d="M 267.386719 196.804688 C 264.171875 196.046875 262.121094 192.898438 262.722656 189.648438 C 262.695312 189.742188 262.667969 189.835938 262.644531 189.933594 C 261.867188 193.261719 263.929688 196.59375 267.253906 197.375 C 270.578125 198.15625 273.902344 196.09375 274.6875 192.765625 C 274.710938 192.671875 274.730469 192.574219 274.746094 192.476562 C 273.839844 195.65625 270.601562 197.5625 267.386719 196.804688 Z M 267.386719 196.804688 "/>
<path style=" stroke:none;fill-rule:nonzero;fill:rgb(18.431373%,18.039216%,25.490196%);fill-opacity:1;" d="M 272.253906 193.503906 C 272.253906 195.988281 270.242188 198.003906 267.761719 198.003906 C 265.28125 198.003906 263.269531 195.988281 263.269531 193.503906 C 263.269531 191.019531 265.28125 189.003906 267.761719 189.003906 C 270.242188 189.003906 272.253906 191.019531 272.253906 193.503906 Z M 272.253906 193.503906 "/>
</g>
</svg>
