<?xml version="1.0" encoding="UTF-8"?>
<svg xmlns="http://www.w3.org/2000/svg" xmlns:xlink="http://www.w3.org/1999/xlink" width="463pt" height="375pt" viewBox="0 0 463 375" version="1.1">
<defs>
<filter id="alpha" filterUnits="objectBoundingBox" x="0%" y="0%" width="100%" height="100%">
  <feColorMatrix type="matrix" in="SourceGraphic" values="0 0 0 0 1 0 0 0 0 1 0 0 0 0 1 0 0 0 1 0"/>
</filter>
<mask id="mask0">
  <g filter="url(#alpha)">
<rect x="0" y="0" width="463" height="375" style="fill:rgb(0%,0%,0%);fill-opacity:0.101961;stroke:none;"/>
  </g>
</mask>
<clipPath id="clip1">
  <rect x="0" y="0" width="463" height="375"/>
</clipPath>
<g id="surface5" clip-path="url(#clip1)">
<path style=" stroke:none;fill-rule:nonzero;fill:rgb(0%,0%,0%);fill-opacity:1;" d="M 216 346.460938 C 216 340.316406 198.089844 335.335938 176 335.335938 C 153.910156 335.335938 136 340.316406 136 346.460938 C 136 352.605469 153.910156 357.589844 176 357.589844 C 198.089844 357.589844 216 352.605469 216 346.460938 Z M 216 346.460938 "/>
</g>
<mask id="mask1">
  <g filter="url(#alpha)">
<rect x="0" y="0" width="463" height="375" style="fill:rgb(0%,0%,0%);fill-opacity:0.101961;stroke:none;"/>
  </g>
</mask>
<clipPath id="clip2">
  <rect x="0" y="0" width="463" height="375"/>
</clipPath>
<g id="surface8" clip-path="url(#clip2)">
<path style=" stroke:none;fill-rule:nonzero;fill:rgb(0%,0%,0%);fill-opacity:1;" d="M 302.5 326.433594 C 302.5 320.289062 284.589844 315.308594 262.5 315.308594 C 240.410156 315.308594 222.5 320.289062 222.5 326.433594 C 222.5 332.578125 240.410156 337.5625 262.5 337.5625 C 284.589844 337.5625 302.5 332.578125 302.5 326.433594 Z M 302.5 326.433594 "/>
</g>
<mask id="mask2">
  <g filter="url(#alpha)">
<rect x="0" y="0" width="463" height="375" style="fill:rgb(0%,0%,0%);fill-opacity:0.101961;stroke:none;"/>
  </g>
</mask>
<clipPath id="clip3">
  <rect x="0" y="0" width="463" height="375"/>
</clipPath>
<g id="surface11" clip-path="url(#clip3)">
<path style=" stroke:none;fill-rule:nonzero;fill:rgb(0%,0%,0%);fill-opacity:1;" d="M 212 346.460938 C 212 340.933594 195.882812 336.449219 176 336.449219 C 156.117188 336.449219 140 340.933594 140 346.460938 C 140 351.992188 156.117188 356.476562 176 356.476562 C 195.882812 356.476562 212 351.992188 212 346.460938 Z M 212 346.460938 "/>
</g>
<mask id="mask3">
  <g filter="url(#alpha)">
<rect x="0" y="0" width="463" height="375" style="fill:rgb(0%,0%,0%);fill-opacity:0.101961;stroke:none;"/>
  </g>
</mask>
<clipPath id="clip4">
  <rect x="0" y="0" width="463" height="375"/>
</clipPath>
<g id="surface14" clip-path="url(#clip4)">
<path style=" stroke:none;fill-rule:nonzero;fill:rgb(0%,0%,0%);fill-opacity:1;" d="M 298.5 326.433594 C 298.5 320.90625 282.382812 316.421875 262.5 316.421875 C 242.617188 316.421875 226.5 320.90625 226.5 326.433594 C 226.5 331.964844 242.617188 336.449219 262.5 336.449219 C 282.382812 336.449219 298.5 331.964844 298.5 326.433594 Z M 298.5 326.433594 "/>
</g>
<mask id="mask4">
  <g filter="url(#alpha)">
<rect x="0" y="0" width="463" height="375" style="fill:rgb(0%,0%,0%);fill-opacity:0.101961;stroke:none;"/>
  </g>
</mask>
<clipPath id="clip5">
  <rect x="0" y="0" width="463" height="375"/>
</clipPath>
<g id="surface17" clip-path="url(#clip5)">
<path style=" stroke:none;fill-rule:nonzero;fill:rgb(0%,0%,0%);fill-opacity:1;" d="M 343.875 147.730469 L 342.089844 157.953125 C 328.699219 123.144531 307.398438 144.527344 307.03125 144.898438 C 311.503906 138.875 318.753906 135.566406 326.230469 136.140625 C 333.710938 136.71875 340.371094 141.09375 343.875 147.730469 Z M 343.875 147.730469 "/>
</g>
<mask id="mask5">
  <g filter="url(#alpha)">
<rect x="0" y="0" width="463" height="375" style="fill:rgb(0%,0%,0%);fill-opacity:0.101961;stroke:none;"/>
  </g>
</mask>
<clipPath id="clip6">
  <rect x="0" y="0" width="463" height="375"/>
</clipPath>
<g id="surface20" clip-path="url(#clip6)">
<path style=" stroke:none;fill-rule:nonzero;fill:rgb(0%,0%,0%);fill-opacity:1;" d="M 125.046875 33.445312 L 125.046875 277.019531 L 119.664062 277.019531 L 119.664062 47.929688 C 121.460938 42.765625 123.28125 37.921875 125.046875 33.445312 Z M 125.046875 33.445312 "/>
</g>
</defs>
<g id="surface1">
<path style=" stroke:none;fill-rule:nonzero;fill:rgb(100%,39.607843%,51.764706%);fill-opacity:1;" d="M 160.941406 113.621094 C 160.941406 136.839844 142.144531 155.664062 118.953125 155.664062 C 95.761719 155.664062 76.964844 136.839844 76.964844 113.621094 C 76.964844 90.398438 95.761719 71.574219 118.953125 71.574219 C 142.144531 71.574219 160.941406 90.398438 160.941406 113.621094 Z M 160.941406 113.621094 "/>
<path style=" stroke:none;fill-rule:nonzero;fill:rgb(24.705882%,23.921569%,33.72549%);fill-opacity:1;" d="M 463 100.613281 L 463 211.203125 C 463.003906 301.34375 390.023438 374.421875 300 374.417969 L 0 374.417969 L 0 263.832031 C 0 204.738281 31.363281 152.972656 78.339844 124.332031 C 86.433594 119.390625 94.949219 115.171875 103.78125 111.722656 C 108.976562 109.691406 114.277344 107.929688 119.660156 106.453125 C 119.765625 106.417969 119.875 106.386719 119.980469 106.363281 C 121.570312 105.925781 123.171875 105.515625 124.78125 105.128906 C 124.871094 105.105469 124.953125 105.085938 125.046875 105.066406 C 134.96875 102.699219 145.089844 101.269531 155.28125 100.792969 C 156.484375 100.738281 157.691406 100.695312 158.90625 100.667969 C 159.339844 100.652344 159.78125 100.644531 160.226562 100.644531 C 161.144531 100.625 162.070312 100.613281 163 100.613281 Z M 463 100.613281 "/>
<path style=" stroke:none;fill-rule:nonzero;fill:rgb(94.901961%,94.901961%,94.901961%);fill-opacity:1;" d="M 216 303.152344 C 96.957031 303.152344 0.410156 335.296875 0.00390625 375 L 431.996094 375 C 431.589844 335.296875 335.042969 303.152344 216 303.152344 Z M 216 303.152344 "/>
<use xlink:href="#surface5" mask="url(#mask0)"/>
<use xlink:href="#surface8" mask="url(#mask1)"/>
<use xlink:href="#surface11" mask="url(#mask2)"/>
<use xlink:href="#surface14" mask="url(#mask3)"/>
<path style=" stroke:none;fill-rule:nonzero;fill:rgb(94.901961%,94.901961%,94.901961%);fill-opacity:1;" d="M 72.5 145.195312 C 72.5 147.128906 70.933594 148.699219 69 148.699219 C 67.066406 148.699219 65.5 147.128906 65.5 145.195312 C 65.5 143.257812 67.066406 141.6875 69 141.6875 C 70.933594 141.6875 72.5 143.257812 72.5 145.195312 Z M 72.5 145.195312 "/>
<path style=" stroke:none;fill-rule:nonzero;fill:rgb(94.901961%,94.901961%,94.901961%);fill-opacity:1;" d="M 373.5 282.375 C 373.5 284.3125 371.933594 285.882812 370 285.882812 C 368.066406 285.882812 366.5 284.3125 366.5 282.375 C 366.5 280.441406 368.066406 278.871094 370 278.871094 C 371.933594 278.871094 373.5 280.441406 373.5 282.375 Z M 373.5 282.375 "/>
<path style=" stroke:none;fill-rule:nonzero;fill:rgb(94.901961%,94.901961%,94.901961%);fill-opacity:1;" d="M 208.5 169.726562 C 208.5 171.660156 206.933594 173.230469 205 173.230469 C 203.066406 173.230469 201.5 171.660156 201.5 169.726562 C 201.5 167.789062 203.066406 166.222656 205 166.222656 C 206.933594 166.222656 208.5 167.789062 208.5 169.726562 Z M 208.5 169.726562 "/>
<path style=" stroke:none;fill-rule:nonzero;fill:rgb(100%,39.607843%,51.764706%);fill-opacity:1;" d="M 380.5 148.699219 C 380.5 149.804688 379.605469 150.699219 378.5 150.699219 C 377.394531 150.699219 376.5 149.804688 376.5 148.699219 C 376.5 147.59375 377.394531 146.695312 378.5 146.695312 C 379.605469 146.695312 380.5 147.59375 380.5 148.699219 Z M 380.5 148.699219 "/>
<path style=" stroke:none;fill-rule:nonzero;fill:rgb(100%,39.607843%,51.764706%);fill-opacity:1;" d="M 79 248.832031 C 79 249.9375 78.105469 250.835938 77 250.835938 C 75.894531 250.835938 75 249.9375 75 248.832031 C 75 247.726562 75.894531 246.828125 77 246.828125 C 78.105469 246.828125 79 247.726562 79 248.832031 Z M 79 248.832031 "/>
<path style=" stroke:none;fill-rule:nonzero;fill:rgb(94.901961%,94.901961%,94.901961%);fill-opacity:1;" d="M 47 291.050781 L 46.089844 291.050781 L 46.089844 290.136719 L 45.910156 290.136719 L 45.910156 291.050781 L 45 291.050781 L 45 291.226562 L 45.910156 291.226562 L 45.910156 292.140625 L 46.089844 292.140625 L 46.089844 291.226562 L 47 291.226562 Z M 47 291.050781 "/>
<path style=" stroke:none;fill-rule:nonzero;fill:rgb(94.901961%,94.901961%,94.901961%);fill-opacity:1;" d="M 339.5 216.949219 L 338.589844 216.949219 L 338.589844 216.039062 L 338.410156 216.039062 L 338.410156 216.949219 L 337.5 216.949219 L 337.5 217.128906 L 338.410156 217.128906 L 338.410156 218.039062 L 338.589844 218.039062 L 338.589844 217.128906 L 339.5 217.128906 Z M 339.5 216.949219 "/>
<path style=" stroke:none;fill-rule:nonzero;fill:rgb(94.901961%,94.901961%,94.901961%);fill-opacity:1;" d="M 415 201.929688 L 414.089844 201.929688 L 414.089844 201.019531 L 413.910156 201.019531 L 413.910156 201.929688 L 413 201.929688 L 413 202.109375 L 413.910156 202.109375 L 413.910156 203.019531 L 414.089844 203.019531 L 414.089844 202.109375 L 415 202.109375 Z M 415 201.929688 "/>
<path style=" stroke:none;fill-rule:nonzero;fill:rgb(94.901961%,94.901961%,94.901961%);fill-opacity:1;" d="M 252.5 241.984375 L 251.589844 241.984375 L 251.589844 241.070312 L 251.410156 241.070312 L 251.410156 241.984375 L 250.5 241.984375 L 250.5 242.160156 L 251.410156 242.160156 L 251.410156 243.074219 L 251.589844 243.074219 L 251.589844 242.160156 L 252.5 242.160156 Z M 252.5 241.984375 "/>
<path style=" stroke:none;fill-rule:nonzero;fill:rgb(94.901961%,94.901961%,94.901961%);fill-opacity:1;" d="M 393 246.992188 L 392.089844 246.992188 L 392.089844 246.078125 L 391.910156 246.078125 L 391.910156 246.992188 L 391 246.992188 L 391 247.167969 L 391.910156 247.167969 L 391.910156 248.082031 L 392.089844 248.082031 L 392.089844 247.167969 L 393 247.167969 Z M 393 246.992188 "/>
<path style=" stroke:none;fill-rule:nonzero;fill:rgb(94.901961%,94.901961%,94.901961%);fill-opacity:1;" d="M 223.5 268.519531 L 222.589844 268.519531 L 222.589844 267.605469 L 222.410156 267.605469 L 222.410156 268.519531 L 221.5 268.519531 L 221.5 268.695312 L 222.410156 268.695312 L 222.410156 269.609375 L 222.589844 269.609375 L 222.589844 268.695312 L 223.5 268.695312 Z M 223.5 268.519531 "/>
<path style=" stroke:none;fill-rule:nonzero;fill:rgb(94.901961%,94.901961%,94.901961%);fill-opacity:1;" d="M 287.5 269.519531 L 286.589844 269.519531 L 286.589844 268.609375 L 286.410156 268.609375 L 286.410156 269.519531 L 285.5 269.519531 L 285.5 269.699219 L 286.410156 269.699219 L 286.410156 270.609375 L 286.589844 270.609375 L 286.589844 269.699219 L 287.5 269.699219 Z M 287.5 269.519531 "/>
<path style=" stroke:none;fill-rule:nonzero;fill:rgb(94.901961%,94.901961%,94.901961%);fill-opacity:1;" d="M 48 184.40625 L 47.089844 184.40625 L 47.089844 183.496094 L 46.910156 183.496094 L 46.910156 184.40625 L 46 184.40625 L 46 184.585938 L 46.910156 184.585938 L 46.910156 185.496094 L 47.089844 185.496094 L 47.089844 184.585938 L 48 184.585938 Z M 48 184.40625 "/>
<path style=" stroke:none;fill-rule:nonzero;fill:rgb(90.196078%,90.196078%,90.196078%);fill-opacity:1;" d="M 338.5 115.5 L 339.9375 115.5 L 339.9375 144.570312 L 338.5 144.570312 Z M 338.5 115.5 "/>
<path style=" stroke:none;fill-rule:nonzero;fill:rgb(90.196078%,90.196078%,90.196078%);fill-opacity:1;" d="M 305.875 192.78125 L 292.652344 223.289062 L 295.238281 227.605469 L 294.375 229.046875 L 300.414062 232.210938 L 300.414062 230.484375 L 302.710938 229.910156 L 312.484375 212.0625 Z M 305.875 192.78125 "/>
<path style=" stroke:none;fill-rule:nonzero;fill:rgb(90.196078%,90.196078%,90.196078%);fill-opacity:1;" d="M 295.527344 228.757812 C 295.527344 228.757812 285.753906 244.011719 296.675781 246.316406 C 307.597656 248.617188 298.6875 230.199219 298.6875 230.199219 Z M 295.527344 228.757812 "/>
<path style=" stroke:none;fill-rule:nonzero;fill:rgb(100%,100%,100%);fill-opacity:1;" d="M 309.609375 221.851562 L 306.160156 233.074219 L 304.722656 247.46875 L 302.136719 252.648438 L 305.011719 275.960938 L 309.609375 280.566406 L 311.621094 303.59375 L 311.621094 313.953125 L 317.085938 323.453125 L 310.050781 333.449219 C 309.375 334.40625 309.277344 335.65625 309.800781 336.707031 C 310.320312 337.753906 311.375 338.433594 312.546875 338.472656 C 314.097656 338.511719 316.144531 338.074219 318.808594 336.691406 C 327.144531 332.375 326.855469 328.347656 326.855469 328.347656 C 326.855469 328.347656 332.03125 328.347656 332.320312 324.316406 C 332.605469 320.285156 329.15625 291.503906 329.15625 291.503906 L 325.996094 279.128906 L 325.996094 245.453125 L 327.144531 245.453125 L 327.71875 274.234375 L 330.304688 284.882812 L 330.59375 289.488281 L 334.332031 335.542969 C 334.332031 335.542969 351.003906 340.148438 351.863281 336.40625 C 352.726562 332.664062 345.539062 330.359375 345.539062 330.359375 L 349.851562 322.015625 L 349.851562 305.894531 L 348.414062 302.441406 L 345.828125 279.128906 L 350.140625 274.523438 L 352.441406 271.644531 L 352.441406 248.617188 L 349.566406 239.695312 L 348.703125 232.210938 L 344.105469 220.699219 C 344.105469 220.699219 323.121094 213.792969 309.609375 221.851562 Z M 309.609375 221.851562 "/>
<path style=" stroke:none;fill-rule:nonzero;fill:rgb(38.823529%,59.607843%,100%);fill-opacity:1;" d="M 346.976562 156.800781 C 346.976562 166.308594 340.847656 174.726562 331.808594 177.628906 C 322.769531 180.535156 312.890625 177.261719 307.367188 169.53125 C 301.84375 161.800781 301.9375 151.382812 307.597656 143.753906 L 307.605469 143.75 C 313.222656 136.179688 323.058594 133.070312 332 136.035156 C 340.941406 139 346.980469 147.371094 346.976562 156.800781 Z M 346.976562 156.800781 "/>
<use xlink:href="#surface17" mask="url(#mask4)"/>
<path style=" stroke:none;fill-rule:nonzero;fill:rgb(100%,100%,100%);fill-opacity:1;" d="M 344.449219 146.582031 L 342.667969 156.800781 C 329.273438 121.992188 307.972656 143.375 307.605469 143.75 C 312.078125 137.722656 319.328125 134.417969 326.804688 134.992188 C 334.285156 135.566406 340.945312 139.941406 344.449219 146.582031 Z M 344.449219 146.582031 "/>
<path style=" stroke:none;fill-rule:nonzero;fill:rgb(100%,100%,100%);fill-opacity:1;" d="M 341.453125 142.265625 L 344.449219 152.675781 C 344.449219 152.675781 338.230469 171.332031 309.40625 171.980469 L 308.460938 174.648438 L 305.300781 175.511719 L 303.863281 181.554688 L 307.886719 219.835938 C 307.886719 219.835938 306.160156 223.578125 309.035156 223.289062 C 309.035156 223.289062 328.007812 216.957031 344.390625 222.714844 C 344.390625 222.714844 347.839844 224.152344 346.976562 220.988281 C 346.976562 220.988281 358.476562 213.792969 357.613281 206.308594 C 356.75 198.824219 358.476562 163.996094 358.476562 163.996094 C 358.476562 163.996094 360.199219 153.921875 355.027344 151.621094 C 355.027344 151.621094 347.425781 140.96875 341.453125 142.265625 Z M 341.453125 142.265625 "/>
<path style=" stroke:none;fill-rule:nonzero;fill:rgb(90.196078%,90.196078%,90.196078%);fill-opacity:1;" d="M 335.152344 214.996094 C 335.152344 214.996094 317.144531 216.804688 322.128906 226.808594 C 327.113281 236.808594 335.992188 218.371094 335.992188 218.371094 Z M 335.152344 214.996094 "/>
<path style=" stroke:none;fill-rule:nonzero;fill:rgb(90.196078%,90.196078%,90.196078%);fill-opacity:1;" d="M 344.390625 170.328125 C 344.390625 170.328125 341.230469 174.070312 342.378906 180.117188 C 343.527344 186.160156 347.839844 199.6875 347.839844 199.6875 L 332.605469 213.792969 L 337.203125 220.125 L 357.902344 209.472656 L 362.5 206.59375 C 361.355469 194.953125 358.511719 183.542969 354.054688 172.730469 L 353.300781 170.90625 C 353.300781 170.90625 347.839844 168.601562 344.390625 170.328125 Z M 344.390625 170.328125 "/>
<path style=" stroke:none;fill-rule:nonzero;fill:rgb(90.196078%,90.196078%,90.196078%);fill-opacity:1;" d="M 348.273438 154.785156 C 348.273438 157.726562 345.890625 160.113281 342.953125 160.113281 C 340.015625 160.113281 337.636719 157.726562 337.636719 154.785156 C 337.636719 151.847656 340.015625 149.460938 342.953125 149.460938 C 345.890625 149.460938 348.273438 151.847656 348.273438 154.785156 Z M 348.273438 154.785156 "/>
<path style=" stroke:none;fill-rule:nonzero;fill:rgb(90.196078%,90.196078%,90.196078%);fill-opacity:1;" d="M 343.097656 115.355469 C 343.097656 117.5 341.359375 119.242188 339.21875 119.242188 C 337.074219 119.242188 335.335938 117.5 335.335938 115.355469 C 335.335938 113.207031 337.074219 111.46875 339.21875 111.46875 C 341.359375 111.46875 343.097656 113.207031 343.097656 115.355469 Z M 343.097656 115.355469 "/>
<path style=" stroke:none;fill-rule:nonzero;fill:rgb(94.901961%,94.901961%,94.901961%);fill-opacity:1;" d="M 240.5 176.394531 L 239.589844 176.394531 L 239.589844 175.484375 L 239.410156 175.484375 L 239.410156 176.394531 L 238.5 176.394531 L 238.5 176.574219 L 239.410156 176.574219 L 239.410156 177.488281 L 239.589844 177.488281 L 239.589844 176.574219 L 240.5 176.574219 Z M 240.5 176.394531 "/>
<path style=" stroke:none;fill-rule:nonzero;fill:rgb(94.901961%,94.901961%,94.901961%);fill-opacity:1;" d="M 322.5 148.359375 L 321.589844 148.359375 L 321.589844 147.445312 L 321.410156 147.445312 L 321.410156 148.359375 L 320.5 148.359375 L 320.5 148.535156 L 321.410156 148.535156 L 321.410156 149.449219 L 321.589844 149.449219 L 321.589844 148.535156 L 322.5 148.535156 Z M 322.5 148.359375 "/>
<path style=" stroke:none;fill-rule:nonzero;fill:rgb(94.901961%,94.901961%,94.901961%);fill-opacity:1;" d="M 313.5 156.871094 L 312.589844 156.871094 L 312.589844 155.957031 L 312.410156 155.957031 L 312.410156 156.871094 L 311.5 156.871094 L 311.5 157.046875 L 312.410156 157.046875 L 312.410156 157.960938 L 312.589844 157.960938 L 312.589844 157.046875 L 313.5 157.046875 Z M 313.5 156.871094 "/>
<path style=" stroke:none;fill-rule:nonzero;fill:rgb(94.901961%,94.901961%,94.901961%);fill-opacity:1;" d="M 280 133.679688 C 280 134.785156 279.105469 135.679688 278 135.679688 C 276.894531 135.679688 276 134.785156 276 133.679688 C 276 132.570312 276.894531 131.675781 278 131.675781 C 279.105469 131.675781 280 132.570312 280 133.679688 Z M 280 133.679688 "/>
<path style=" stroke:none;fill-rule:nonzero;fill:rgb(94.901961%,94.901961%,94.901961%);fill-opacity:1;" d="M 179.480469 147.792969 C 179.480469 287.503906 161.933594 287.503906 140.300781 287.503906 C 129.113281 287.503906 119.023438 287.503906 111.886719 268.203125 C 109.835938 262.65625 108.023438 255.507812 106.503906 246.300781 C 103.082031 225.605469 101.121094 194.507812 101.121094 147.792969 C 101.121094 129.832031 103.242188 112.222656 106.503906 95.773438 C 108.070312 87.855469 109.898438 80.214844 111.886719 72.921875 C 114.316406 64 116.976562 55.609375 119.664062 47.929688 C 121.460938 42.765625 123.28125 37.921875 125.046875 33.445312 C 133.199219 12.792969 140.300781 0 140.300781 0 C 140.300781 0 179.480469 70.636719 179.480469 147.792969 Z M 179.480469 147.792969 "/>
<use xlink:href="#surface20" mask="url(#mask5)"/>
<path style=" stroke:none;fill-rule:nonzero;fill:rgb(24.705882%,23.921569%,33.72549%);fill-opacity:1;" d="M 160.636719 96.433594 C 160.636719 108.34375 150.996094 117.996094 139.101562 117.996094 C 127.210938 117.996094 117.570312 108.34375 117.570312 96.433594 C 117.570312 84.523438 127.210938 74.871094 139.101562 74.871094 C 150.996094 74.871094 160.636719 84.523438 160.636719 96.433594 Z M 160.636719 96.433594 "/>
<path style=" stroke:none;fill-rule:nonzero;fill:rgb(38.823529%,59.607843%,100%);fill-opacity:1;" d="M 186.359375 274.324219 C 181.570312 262.523438 175.421875 260.488281 171.402344 260.664062 L 171.402344 258.753906 L 108.597656 258.753906 L 108.597656 260.664062 C 104.578125 260.488281 98.429688 262.523438 93.640625 274.324219 C 85.867188 293.492188 98.425781 326.433594 98.425781 326.433594 C 98.425781 326.433594 91.714844 280.492188 114.007812 280.1875 C 115.9375 282.710938 118.304688 284.863281 121 286.542969 L 121 298.898438 L 157 298.898438 L 157 287.667969 C 160.519531 285.878906 163.59375 283.324219 165.992188 280.1875 C 188.285156 280.492188 181.574219 326.433594 181.574219 326.433594 C 181.574219 326.433594 194.132812 293.492188 186.359375 274.324219 Z M 186.359375 274.324219 "/>
<path style=" stroke:none;fill-rule:nonzero;fill:rgb(38.823529%,59.607843%,100%);fill-opacity:1;" d="M 155.851562 96.433594 C 155.851562 105.695312 148.351562 113.203125 139.101562 113.203125 C 129.851562 113.203125 122.355469 105.695312 122.355469 96.433594 C 122.355469 87.171875 129.851562 79.664062 139.101562 79.664062 C 148.351562 79.664062 155.851562 87.171875 155.851562 96.433594 Z M 155.851562 96.433594 "/>
<path style=" stroke:none;fill-rule:nonzero;fill:rgb(38.823529%,59.607843%,100%);fill-opacity:1;" d="M 423.003906 100.613281 L 422.003906 100.613281 C 422.15625 123.1875 440.457031 141.414062 463 141.4375 L 463 140.4375 C 441.007812 140.414062 423.152344 122.632812 423.003906 100.613281 Z M 423.003906 100.613281 "/>
<path style=" stroke:none;fill-rule:nonzero;fill:rgb(38.823529%,59.607843%,100%);fill-opacity:1;" d="M 404.503906 100.613281 L 403.503906 100.613281 C 403.664062 133.414062 430.242188 159.929688 463 159.964844 L 463 158.960938 C 430.796875 158.925781 404.664062 132.859375 404.503906 100.613281 Z M 404.503906 100.613281 "/>
<path style=" stroke:none;fill-rule:nonzero;fill:rgb(38.823529%,59.607843%,100%);fill-opacity:1;" d="M 385.5 100.613281 L 384.5 100.613281 C 384.625 143.851562 419.789062 178.988281 463 178.988281 L 463 177.988281 C 420.339844 177.988281 385.625 143.300781 385.5 100.613281 Z M 385.5 100.613281 "/>
</g>
</svg>
