<?xml version="1.0" encoding="UTF-8"?>
<svg xmlns="http://www.w3.org/2000/svg" xmlns:xlink="http://www.w3.org/1999/xlink" width="427pt" height="338pt" viewBox="0 0 427 338" version="1.1">
<defs>
<filter id="alpha" filterUnits="objectBoundingBox" x="0%" y="0%" width="100%" height="100%">
  <feColorMatrix type="matrix" in="SourceGraphic" values="0 0 0 0 1 0 0 0 0 1 0 0 0 0 1 0 0 0 1 0"/>
</filter>
<mask id="mask0">
  <g filter="url(#alpha)">
<rect x="0" y="0" width="427" height="338" style="fill:rgb(0%,0%,0%);fill-opacity:0.101961;stroke:none;"/>
  </g>
</mask>
<clipPath id="clip1">
  <rect x="0" y="0" width="427" height="338"/>
</clipPath>
<g id="surface5" clip-path="url(#clip1)">
<path style=" stroke:none;fill-rule:nonzero;fill:rgb(0%,0%,0%);fill-opacity:1;" d="M 307.105469 101.371094 C 305.023438 110.601562 302.570312 119.515625 299.125 126.3125 C 288.261719 147.738281 239.539062 149.386719 239.539062 149.386719 C 239.539062 149.386719 239.769531 146.554688 240.117188 142.089844 C 252.488281 141.070312 286.304688 136.714844 295.128906 119.3125 C 295.9375 117.722656 296.6875 116.011719 297.398438 114.210938 Z M 307.105469 101.371094 "/>
</g>
<mask id="mask1">
  <g filter="url(#alpha)">
<rect x="0" y="0" width="427" height="338" style="fill:rgb(0%,0%,0%);fill-opacity:0.101961;stroke:none;"/>
  </g>
</mask>
<clipPath id="clip2">
  <rect x="0" y="0" width="427" height="338"/>
</clipPath>
<g id="surface8" clip-path="url(#clip2)">
<path style=" stroke:none;fill-rule:nonzero;fill:rgb(0%,0%,0%);fill-opacity:1;" d="M 231.308594 127.632812 C 231.308594 127.632812 219.128906 113.125 209.914062 105.214844 C 207.890625 103.488281 206.472656 101.035156 205.488281 98.277344 C 205.410156 98.054688 205.335938 97.832031 205.257812 97.605469 C 205.472656 97.816406 205.6875 98.019531 205.917969 98.214844 C 213.984375 105.140625 224.328125 117.121094 226.78125 119.996094 C 227.125 120.40625 227.3125 120.632812 227.3125 120.632812 L 224.75 74.421875 L 228.855469 83.429688 Z M 231.308594 127.632812 "/>
</g>
<mask id="mask2">
  <g filter="url(#alpha)">
<rect x="0" y="0" width="427" height="338" style="fill:rgb(0%,0%,0%);fill-opacity:0.101961;stroke:none;"/>
  </g>
</mask>
<clipPath id="clip3">
  <rect x="0" y="0" width="427" height="338"/>
</clipPath>
<g id="surface11" clip-path="url(#clip3)">
<path style=" stroke:none;fill-rule:nonzero;fill:rgb(0%,0%,0%);fill-opacity:1;" d="M 238.359375 86.015625 C 238.289062 94.128906 237.234375 98.957031 237.234375 98.957031 C 237.234375 98.957031 255.664062 75.234375 277.386719 67.320312 C 278.667969 66.507812 279.972656 65.707031 281.304688 64.929688 C 307.3125 49.769531 311.921875 28.34375 311.921875 28.34375 L 327.066406 10.21875 L 308.628906 24.71875 C 308.628906 24.71875 295.132812 52.40625 273.402344 60.316406 C 258.59375 65.707031 245.316406 78.449219 238.359375 86.015625 Z M 238.359375 86.015625 "/>
</g>
<mask id="mask3">
  <g filter="url(#alpha)">
<rect x="0" y="0" width="427" height="338" style="fill:rgb(0%,0%,0%);fill-opacity:0.101961;stroke:none;"/>
  </g>
</mask>
<clipPath id="clip4">
  <rect x="0" y="0" width="427" height="338"/>
</clipPath>
<g id="surface14" clip-path="url(#clip4)">
<path style=" stroke:none;fill-rule:nonzero;fill:rgb(0%,0%,0%);fill-opacity:1;" d="M 209.910156 164.546875 L 209.910156 171.796875 C 209.910156 171.796875 229.664062 153.007812 228.347656 146.746094 C 227.339844 141.957031 226.136719 132.160156 220.03125 123.832031 C 222.78125 130.125 223.621094 136.261719 224.351562 139.746094 C 225.296875 144.238281 215.40625 155.167969 209.734375 160.992188 C 209.933594 162.167969 209.992188 163.359375 209.910156 164.546875 Z M 209.910156 164.546875 "/>
</g>
<mask id="mask4">
  <g filter="url(#alpha)">
<rect x="0" y="0" width="427" height="338" style="fill:rgb(0%,0%,0%);fill-opacity:0.101961;stroke:none;"/>
  </g>
</mask>
<clipPath id="clip5">
  <rect x="0" y="0" width="427" height="338"/>
</clipPath>
<g id="surface17" clip-path="url(#clip5)">
<path style=" stroke:none;fill-rule:nonzero;fill:rgb(0%,0%,0%);fill-opacity:1;" d="M 183.414062 114.785156 C 183.574219 115.117188 183.734375 115.449219 183.90625 115.765625 C 188.953125 125.152344 196.5625 135.128906 202.257812 144.292969 C 197.65625 135.21875 189.648438 124.839844 183.414062 114.785156 Z M 183.414062 114.785156 "/>
</g>
<mask id="mask5">
  <g filter="url(#alpha)">
<rect x="0" y="0" width="427" height="338" style="fill:rgb(0%,0%,0%);fill-opacity:0.101961;stroke:none;"/>
  </g>
</mask>
<clipPath id="clip6">
  <rect x="0" y="0" width="427" height="338"/>
</clipPath>
<g id="surface20" clip-path="url(#clip6)">
<path style=" stroke:none;fill-rule:nonzero;fill:rgb(0%,0%,0%);fill-opacity:1;" d="M 293.484375 180.945312 C 282.65625 174.183594 273.398438 170.535156 265.839844 168.683594 C 257.90625 171.671875 251.378906 173.902344 248.09375 174.996094 C 253.984375 173.46875 271.050781 171.441406 297.480469 187.945312 C 318.21875 200.894531 339.847656 200.386719 353.195312 198.167969 C 356.886719 195.378906 359.976562 191.875 362.289062 187.867188 C 362.289062 187.867188 326.734375 201.710938 293.484375 180.945312 Z M 293.484375 180.945312 "/>
</g>
<mask id="mask6">
  <g filter="url(#alpha)">
<rect x="0" y="0" width="427" height="338" style="fill:rgb(0%,0%,0%);fill-opacity:0.101961;stroke:none;"/>
  </g>
</mask>
<clipPath id="clip7">
  <rect x="0" y="0" width="427" height="338"/>
</clipPath>
<g id="surface23" clip-path="url(#clip7)">
<path style=" stroke:none;fill-rule:nonzero;fill:rgb(0%,0%,0%);fill-opacity:1;" d="M 199.464844 100.753906 C 196.8125 94.242188 196.375 86.492188 199.421875 77.410156 C 199.386719 74.121094 199.574219 70.832031 199.992188 67.566406 L 205.175781 45.367188 C 204.21875 48.566406 202.03125 54.742188 197.027344 66.25 C 190.691406 80.8125 193.058594 92.191406 199.464844 100.753906 Z M 199.464844 100.753906 "/>
</g>
<mask id="mask7">
  <g filter="url(#alpha)">
<rect x="0" y="0" width="427" height="338" style="fill:rgb(0%,0%,0%);fill-opacity:0.101961;stroke:none;"/>
  </g>
</mask>
<clipPath id="clip8">
  <rect x="0" y="0" width="427" height="338"/>
</clipPath>
<g id="surface26" clip-path="url(#clip8)">
<path style=" stroke:none;fill-rule:nonzero;fill:rgb(0%,0%,0%);fill-opacity:1;" d="M 344.84375 148.644531 C 334.570312 136.988281 317.804688 133.101562 308.492188 131.8125 L 305.710938 138.179688 C 305.710938 138.179688 334.023438 138.835938 348.835938 155.644531 C 357.050781 164.96875 372.050781 170.640625 383.78125 173.84375 L 396.527344 170.398438 C 396.527344 170.398438 359.65625 165.457031 344.84375 148.644531 Z M 344.84375 148.644531 "/>
</g>
<mask id="mask8">
  <g filter="url(#alpha)">
<rect x="0" y="0" width="427" height="338" style="fill:rgb(0%,0%,0%);fill-opacity:0.101961;stroke:none;"/>
  </g>
</mask>
<clipPath id="clip9">
  <rect x="0" y="0" width="427" height="338"/>
</clipPath>
<g id="surface29" clip-path="url(#clip9)">
<path style=" stroke:none;fill-rule:nonzero;fill:rgb(0%,0%,0%);fill-opacity:1;" d="M 143.414062 144.109375 C 157.238281 138.179688 138.144531 104.890625 138.144531 104.890625 L 137.621094 104.648438 C 142.382812 114.703125 149.285156 132.875 139.417969 137.109375 C 130.179688 141.074219 121.535156 131.214844 116.808594 124.230469 C 116.980469 124.722656 117.074219 124.996094 117.074219 124.996094 C 117.074219 124.996094 129.585938 150.042969 143.414062 144.109375 Z M 143.414062 144.109375 "/>
</g>
<mask id="mask9">
  <g filter="url(#alpha)">
<rect x="0" y="0" width="427" height="338" style="fill:rgb(0%,0%,0%);fill-opacity:0.101961;stroke:none;"/>
  </g>
</mask>
<clipPath id="clip10">
  <rect x="0" y="0" width="427" height="338"/>
</clipPath>
<g id="surface32" clip-path="url(#clip10)">
<path style=" stroke:none;fill-rule:nonzero;fill:rgb(0%,0%,0%);fill-opacity:1;" d="M 188.511719 165.535156 C 188.511719 165.535156 192.679688 152.675781 184.851562 144.738281 C 186.773438 151.578125 184.519531 158.535156 184.519531 158.535156 C 179.425781 147.0625 161.921875 142.097656 154.257812 140.4375 C 154.554688 144.257812 154.605469 146.746094 154.605469 146.746094 C 154.605469 146.746094 181.929688 150.703125 188.511719 165.535156 Z M 188.511719 165.535156 "/>
</g>
<mask id="mask10">
  <g filter="url(#alpha)">
<rect x="0" y="0" width="427" height="338" style="fill:rgb(0%,0%,0%);fill-opacity:0.101961;stroke:none;"/>
  </g>
</mask>
<clipPath id="clip11">
  <rect x="0" y="0" width="427" height="338"/>
</clipPath>
<g id="surface35" clip-path="url(#clip11)">
<path style=" stroke:none;fill-rule:nonzero;fill:rgb(0%,0%,0%);fill-opacity:1;" d="M 205.175781 45.367188 C 205.917969 42.878906 205.917969 42.1875 205.917969 42.1875 Z M 205.175781 45.367188 "/>
</g>
<mask id="mask11">
  <g filter="url(#alpha)">
<rect x="0" y="0" width="427" height="338" style="fill:rgb(0%,0%,0%);fill-opacity:0.101961;stroke:none;"/>
  </g>
</mask>
<clipPath id="clip12">
  <rect x="0" y="0" width="427" height="338"/>
</clipPath>
<g id="surface38" clip-path="url(#clip12)">
<path style=" stroke:none;fill-rule:nonzero;fill:rgb(0%,0%,0%);fill-opacity:1;" d="M 40.828125 177.460938 C 40.894531 177.441406 40.960938 177.421875 41.027344 177.398438 C 54.855469 172.785156 66.707031 155.316406 78.886719 149.382812 C 91.066406 143.453125 98.3125 135.542969 114.769531 144.109375 C 114.769531 144.109375 111.890625 132.308594 106.3125 124.554688 C 108.160156 128.605469 109.652344 132.804688 110.777344 137.109375 C 94.316406 128.542969 87.074219 136.453125 74.890625 142.382812 C 62.710938 148.316406 50.859375 165.785156 37.035156 170.398438 C 23.207031 175.015625 0.492188 165.785156 0.492188 165.785156 C 0.492188 165.785156 15.636719 175.34375 35.058594 176.992188 C 37.28125 177.179688 39.175781 177.347656 40.828125 177.460938 Z M 40.828125 177.460938 "/>
</g>
<mask id="mask12">
  <g filter="url(#alpha)">
<rect x="0" y="0" width="427" height="338" style="fill:rgb(0%,0%,0%);fill-opacity:0.101961;stroke:none;"/>
  </g>
</mask>
<clipPath id="clip13">
  <rect x="0" y="0" width="427" height="338"/>
</clipPath>
<g id="surface41" clip-path="url(#clip13)">
<path style=" stroke:none;fill-rule:nonzero;fill:rgb(0%,0%,0%);fill-opacity:1;" d="M 100.945312 111.480469 C 100.945312 111.480469 100.40625 111.492188 99.429688 111.507812 L 96.457031 104.492188 C 96.78125 104.488281 96.953125 104.480469 96.953125 104.480469 C 96.953125 104.480469 94.664062 74.132812 90.257812 59.988281 C 90.3125 60.011719 90.359375 60.042969 90.410156 60.066406 C 97.320312 63.363281 100.945312 111.480469 100.945312 111.480469 Z M 100.945312 111.480469 "/>
</g>
<mask id="mask13">
  <g filter="url(#alpha)">
<rect x="0" y="0" width="427" height="338" style="fill:rgb(0%,0%,0%);fill-opacity:0.101961;stroke:none;"/>
  </g>
</mask>
<clipPath id="clip14">
  <rect x="0" y="0" width="427" height="338"/>
</clipPath>
<g id="surface44" clip-path="url(#clip14)">
<path style=" stroke:none;fill-rule:nonzero;fill:rgb(0%,0%,0%);fill-opacity:1;" d="M 178.078125 337.503906 C 184.113281 318.988281 198.617188 267.796875 187.195312 233.757812 C 182.265625 219.058594 177.691406 209.6875 173.828125 203.707031 C 176.71875 209.367188 179.878906 216.855469 183.203125 226.757812 C 197.355469 268.949219 171.679688 337.503906 171.679688 337.503906 Z M 178.078125 337.503906 "/>
</g>
<mask id="mask14">
  <g filter="url(#alpha)">
<rect x="0" y="0" width="427" height="338" style="fill:rgb(0%,0%,0%);fill-opacity:0.101961;stroke:none;"/>
  </g>
</mask>
<clipPath id="clip15">
  <rect x="0" y="0" width="427" height="338"/>
</clipPath>
<g id="surface47" clip-path="url(#clip15)">
<path style=" stroke:none;fill-rule:nonzero;fill:rgb(0%,0%,0%);fill-opacity:1;" d="M 172.054688 180.367188 C 168.082031 178.617188 163.828125 177.589844 159.5 177.332031 C 157.414062 172.976562 157.085938 170.738281 159.78125 170.847656 C 160.53125 170.980469 161.285156 171.140625 162.035156 171.328125 C 167.328125 175.726562 172.054688 180.367188 172.054688 180.367188 Z M 172.054688 180.367188 "/>
</g>
<mask id="mask15">
  <g filter="url(#alpha)">
<rect x="0" y="0" width="427" height="338" style="fill:rgb(0%,0%,0%);fill-opacity:0.101961;stroke:none;"/>
  </g>
</mask>
<clipPath id="clip16">
  <rect x="0" y="0" width="427" height="338"/>
</clipPath>
<g id="surface50" clip-path="url(#clip16)">
<path style=" stroke:none;fill-rule:nonzero;fill:rgb(0%,0%,0%);fill-opacity:1;" d="M 82.929688 49.863281 C 83.304688 50.496094 83.761719 51.082031 84.285156 51.597656 C 83.898438 50.96875 83.445312 50.390625 82.929688 49.863281 Z M 82.929688 49.863281 "/>
</g>
<mask id="mask16">
  <g filter="url(#alpha)">
<rect x="0" y="0" width="427" height="338" style="fill:rgb(0%,0%,0%);fill-opacity:0.101961;stroke:none;"/>
  </g>
</mask>
<clipPath id="clip17">
  <rect x="0" y="0" width="427" height="338"/>
</clipPath>
<g id="surface53" clip-path="url(#clip17)">
<path style=" stroke:none;fill-rule:nonzero;fill:rgb(0%,0%,0%);fill-opacity:1;" d="M 143.082031 103.570312 C 143.59375 104.050781 144.070312 104.566406 144.511719 105.109375 C 143.066406 101.640625 141.289062 98.640625 139.085938 96.570312 C 128.222656 86.351562 110.445312 87.011719 110.445312 87.011719 L 132.742188 97.242188 C 136.5625 98.667969 140.070312 100.816406 143.082031 103.570312 Z M 143.082031 103.570312 "/>
</g>
<mask id="mask17">
  <g filter="url(#alpha)">
<rect x="0" y="0" width="427" height="338" style="fill:rgb(0%,0%,0%);fill-opacity:0.101961;stroke:none;"/>
  </g>
</mask>
<clipPath id="clip18">
  <rect x="0" y="0" width="427" height="338"/>
</clipPath>
<g id="surface56" clip-path="url(#clip18)">
<path style=" stroke:none;fill-rule:nonzero;fill:rgb(0%,0%,0%);fill-opacity:1;" d="M 166.742188 58.996094 C 168.085938 60.941406 167.328125 69.183594 166.101562 77.617188 C 163.515625 94.84375 166.371094 112.449219 174.265625 127.976562 C 175.316406 130.050781 176.488281 132.066406 177.773438 134.003906 C 170.25 118.707031 167.574219 101.476562 170.097656 84.617188 C 171.324219 76.183594 172.078125 67.941406 170.738281 65.996094 C 167.773438 61.710938 155.265625 35.34375 154.277344 28.421875 C 153.980469 25.738281 153.910156 23.03125 154.070312 20.335938 C 151.511719 13.070312 151.269531 0 151.269531 0 C 151.269531 0 149.292969 14.503906 150.28125 21.421875 C 151.269531 28.34375 163.777344 54.710938 166.742188 58.996094 Z M 166.742188 58.996094 "/>
</g>
<mask id="mask18">
  <g filter="url(#alpha)">
<rect x="0" y="0" width="427" height="338" style="fill:rgb(0%,0%,0%);fill-opacity:0.101961;stroke:none;"/>
  </g>
</mask>
<clipPath id="clip19">
  <rect x="0" y="0" width="427" height="338"/>
</clipPath>
<g id="surface59" clip-path="url(#clip19)">
<path style=" stroke:none;fill-rule:nonzero;fill:rgb(0%,0%,0%);fill-opacity:1;" d="M 197.625 13.433594 C 197.492188 12.78125 197.292969 12.144531 197.027344 11.535156 C 197.027344 11.535156 197.28125 12.246094 197.625 13.433594 Z M 197.625 13.433594 "/>
</g>
<mask id="mask19">
  <g filter="url(#alpha)">
<rect x="0" y="0" width="427" height="338" style="fill:rgb(0%,0%,0%);fill-opacity:0.101961;stroke:none;"/>
  </g>
</mask>
<clipPath id="clip20">
  <rect x="0" y="0" width="427" height="338"/>
</clipPath>
<g id="surface62" clip-path="url(#clip20)">
<path style=" stroke:none;fill-rule:nonzero;fill:rgb(0%,0%,0%);fill-opacity:1;" d="M 81.347656 46.625 C 84.25 46.980469 87.585938 47.875 90.132812 49.941406 C 89.96875 49.378906 89.820312 48.875 89.707031 48.449219 C 86.742188 37.574219 70.941406 39.550781 70.941406 39.550781 C 78.082031 40.46875 79.925781 43.527344 81.347656 46.625 Z M 81.347656 46.625 "/>
</g>
<mask id="mask20">
  <g filter="url(#alpha)">
<rect x="0" y="0" width="427" height="338" style="fill:rgb(0%,0%,0%);fill-opacity:0.101961;stroke:none;"/>
  </g>
</mask>
<clipPath id="clip21">
  <rect x="0" y="0" width="427" height="338"/>
</clipPath>
<g id="surface65" clip-path="url(#clip21)">
<path style=" stroke:none;fill-rule:nonzero;fill:rgb(0%,0%,0%);fill-opacity:1;" d="M 309.011719 265.003906 C 309.011719 265.003906 314.660156 259.070312 316.972656 260.265625 C 319.285156 261.457031 310.324219 266.765625 310.324219 266.765625 Z M 309.011719 265.003906 "/>
</g>
<mask id="mask21">
  <g filter="url(#alpha)">
<rect x="0" y="0" width="427" height="338" style="fill:rgb(0%,0%,0%);fill-opacity:0.101961;stroke:none;"/>
  </g>
</mask>
<clipPath id="clip22">
  <rect x="0" y="0" width="427" height="338"/>
</clipPath>
<g id="surface68" clip-path="url(#clip22)">
<path style=" stroke:none;fill-rule:nonzero;fill:rgb(0%,0%,0%);fill-opacity:1;" d="M 291.773438 252.054688 C 291.773438 252.054688 289.699219 255.78125 290.242188 259.796875 C 290.785156 263.816406 295.753906 276.707031 297.445312 276.476562 C 299.132812 276.25 311.648438 267.015625 311.648438 267.015625 L 309.261719 263.679688 L 300.117188 269.226562 C 300.117188 269.226562 298.726562 249.390625 291.773438 252.054688 Z M 291.773438 252.054688 "/>
</g>
<mask id="mask22">
  <g filter="url(#alpha)">
<rect x="0" y="0" width="427" height="338" style="fill:rgb(0%,0%,0%);fill-opacity:0.101961;stroke:none;"/>
  </g>
</mask>
<clipPath id="clip23">
  <rect x="0" y="0" width="427" height="338"/>
</clipPath>
<g id="surface71" clip-path="url(#clip23)">
<path style=" stroke:none;fill-rule:nonzero;fill:rgb(0%,0%,0%);fill-opacity:1;" d="M 317.980469 282.570312 C 317.980469 282.570312 324.585938 283.421875 324.371094 287.476562 C 324.160156 291.53125 319.257812 308.386719 319.257812 308.386719 L 318.832031 315 C 318.832031 315 319.257812 326.097656 317.980469 325.882812 C 316.699219 325.667969 313.714844 317.988281 313.714844 317.988281 C 313.714844 317.988281 310.09375 315.640625 311.796875 313.507812 C 313.503906 311.375 314.78125 311.585938 314.355469 309.238281 C 313.929688 306.894531 314.144531 297.078125 315.421875 294.089844 C 316.699219 291.101562 317.445312 289.457031 317.445312 289.457031 L 313.289062 289.183594 Z M 317.980469 282.570312 "/>
</g>
</defs>
<g id="surface1">
<path style=" stroke:none;fill-rule:nonzero;fill:rgb(24.705882%,23.921569%,33.72549%);fill-opacity:1;" d="M 298.308594 292.425781 L 297.308594 292.425781 L 297.308594 183.003906 C 297.3125 182.101562 296.90625 181.246094 296.203125 180.675781 L 296.835938 179.902344 C 297.769531 180.660156 298.3125 181.800781 298.308594 183.003906 Z M 298.308594 292.425781 "/>
<path style=" stroke:none;fill-rule:nonzero;fill:rgb(24.705882%,23.921569%,33.72549%);fill-opacity:1;" d="M 196.558594 11.617188 C 196.816406 12.207031 197.011719 12.824219 197.132812 13.457031 C 196.855469 12.492188 196.636719 11.835938 196.558594 11.617188 Z M 196.558594 11.617188 "/>
<path style=" stroke:none;fill-rule:nonzero;fill:rgb(24.705882%,23.921569%,33.72549%);fill-opacity:1;" d="M 205.417969 42.1875 C 205.417969 42.1875 205.417969 42.875 204.675781 45.367188 Z M 205.417969 42.1875 "/>
<path style=" stroke:none;fill-rule:nonzero;fill:rgb(24.705882%,23.921569%,33.72549%);fill-opacity:1;" d="M 296.609375 146.339844 C 276.964844 156.589844 251.269531 165.441406 243.574219 168.007812 C 249.441406 166.476562 266.523438 164.417969 292.988281 180.945312 C 326.238281 201.710938 361.792969 187.867188 361.792969 187.867188 C 361.792969 187.867188 353.890625 203.03125 337.101562 204.015625 C 320.308594 205.007812 276.527344 177.320312 261.714844 185.230469 C 246.894531 193.140625 239.984375 183.25 234.054688 203.03125 C 228.132812 222.804688 217.269531 276.855469 229.78125 307.179688 L 242.285156 337.5 L 171.179688 337.5 C 171.179688 337.5 196.859375 268.945312 182.699219 226.761719 C 174.773438 203.136719 163.648438 186.027344 159.5 177.332031 C 157.414062 172.976562 157.085938 170.738281 159.78125 170.847656 C 161.316406 170.910156 163.828125 171.738281 167.558594 173.367188 C 167.558594 173.367188 150.4375 156.554688 144.84375 156.554688 C 139.246094 156.554688 112.90625 153.921875 104.351562 145.019531 C 104.351562 145.019531 92.171875 136.453125 70.441406 157.546875 C 48.714844 178.640625 53.980469 178.640625 34.558594 176.992188 C 15.441406 175.367188 0.464844 166.082031 0 165.792969 C 0.554688 166.015625 22.882812 174.953125 36.53125 170.402344 C 50.359375 165.785156 62.210938 148.316406 74.394531 142.386719 C 86.574219 136.453125 93.816406 128.542969 110.277344 137.113281 L 99.429688 111.507812 L 96.457031 104.492188 L 96.453125 104.480469 C 96.453125 104.480469 92.828125 56.363281 85.914062 53.066406 C 79.003906 49.765625 83.28125 41.203125 70.441406 39.550781 C 70.441406 39.550781 86.242188 37.570312 89.207031 48.453125 C 92.171875 59.328125 112.582031 117.996094 112.582031 117.996094 C 112.582031 117.996094 125.089844 143.042969 138.917969 137.113281 C 152.746094 131.175781 133.648438 97.890625 133.648438 97.890625 L 109.945312 87.011719 C 109.945312 87.011719 127.726562 86.351562 138.585938 96.570312 C 149.449219 106.785156 150.109375 139.746094 150.109375 139.746094 C 150.109375 139.746094 177.433594 143.703125 184.019531 158.535156 C 184.019531 158.535156 188.300781 145.351562 180.070312 137.441406 C 178.011719 135.460938 175.847656 132.019531 173.765625 127.976562 C 165.871094 112.449219 163.019531 94.84375 165.605469 77.617188 C 166.828125 69.1875 167.582031 60.941406 166.242188 58.996094 C 163.277344 54.710938 150.769531 28.347656 149.78125 21.421875 C 148.796875 14.5 150.769531 0 150.769531 0 C 150.769531 0 151.097656 17.796875 155.046875 23.402344 C 159 29.007812 170.191406 56.691406 170.191406 56.691406 C 170.191406 56.691406 170.191406 91.625 179.410156 108.765625 C 188.628906 125.90625 206.402344 145.019531 205.417969 157.546875 L 205.417969 164.796875 C 205.417969 164.796875 225.171875 146.011719 223.851562 139.746094 C 222.535156 133.488281 220.890625 118.652344 208.382812 109.757812 C 195.871094 100.855469 187.640625 86.679688 196.53125 66.246094 C 201.527344 54.75 203.714844 48.578125 204.675781 45.371094 L 199.492188 67.566406 C 199.492188 67.566406 196.199219 90.304688 205.417969 98.214844 C 205.445312 98.238281 205.464844 98.257812 205.488281 98.277344 C 214.695312 106.195312 226.8125 120.632812 226.8125 120.632812 L 226.78125 119.996094 L 224.183594 73.171875 L 224.75 74.421875 L 228.855469 83.429688 L 232.742188 91.957031 C 232.742188 91.957031 251.175781 68.226562 272.90625 60.316406 C 294.628906 52.40625 308.128906 24.722656 308.128906 24.722656 L 326.566406 10.214844 L 311.421875 28.347656 C 311.421875 28.347656 306.8125 49.765625 280.804688 64.929688 C 254.796875 80.089844 238.011719 102.5 237.023438 116.347656 C 236.035156 130.191406 235.042969 142.386719 235.042969 142.386719 C 235.042969 142.386719 283.769531 140.738281 294.628906 119.3125 C 305.496094 97.890625 314.386719 96.902344 314.386719 96.902344 L 308.128906 115.355469 L 301.21875 131.175781 C 301.21875 131.175781 329.527344 131.835938 344.339844 148.644531 C 359.160156 165.457031 396.027344 170.402344 396.027344 170.402344 L 375.289062 176 C 375.289062 176 355.535156 169.410156 336.769531 157.214844 C 318.007812 145.019531 319.980469 134.144531 296.609375 146.339844 Z M 296.609375 146.339844 "/>
<use xlink:href="#surface5" mask="url(#mask0)"/>
<use xlink:href="#surface8" mask="url(#mask1)"/>
<use xlink:href="#surface11" mask="url(#mask2)"/>
<use xlink:href="#surface14" mask="url(#mask3)"/>
<use xlink:href="#surface17" mask="url(#mask4)"/>
<use xlink:href="#surface20" mask="url(#mask5)"/>
<use xlink:href="#surface23" mask="url(#mask6)"/>
<use xlink:href="#surface26" mask="url(#mask7)"/>
<use xlink:href="#surface29" mask="url(#mask8)"/>
<use xlink:href="#surface32" mask="url(#mask9)"/>
<use xlink:href="#surface35" mask="url(#mask10)"/>
<use xlink:href="#surface38" mask="url(#mask11)"/>
<use xlink:href="#surface41" mask="url(#mask12)"/>
<use xlink:href="#surface44" mask="url(#mask13)"/>
<use xlink:href="#surface47" mask="url(#mask14)"/>
<use xlink:href="#surface50" mask="url(#mask15)"/>
<use xlink:href="#surface53" mask="url(#mask16)"/>
<use xlink:href="#surface56" mask="url(#mask17)"/>
<use xlink:href="#surface59" mask="url(#mask18)"/>
<use xlink:href="#surface62" mask="url(#mask19)"/>
<path style=" stroke:none;fill-rule:nonzero;fill:rgb(24.705882%,23.921569%,33.72549%);fill-opacity:1;" d="M 391.796875 320.570312 C 386.886719 328.105469 388.234375 337.695312 388.234375 337.695312 C 388.234375 337.695312 397.539062 335.058594 402.449219 327.523438 C 407.359375 319.984375 406.011719 310.398438 406.011719 310.398438 C 406.011719 310.398438 396.707031 313.03125 391.796875 320.570312 Z M 391.796875 320.570312 "/>
<path style=" stroke:none;fill-rule:nonzero;fill:rgb(38.823529%,59.607843%,100%);fill-opacity:1;" d="M 395.488281 321.902344 C 395.097656 330.890625 388.433594 337.90625 388.433594 337.90625 C 388.433594 337.90625 382.394531 330.34375 382.78125 321.351562 C 383.171875 312.359375 389.835938 305.347656 389.835938 305.347656 C 389.835938 305.347656 395.875 312.910156 395.488281 321.902344 Z M 395.488281 321.902344 "/>
<path style=" stroke:none;fill-rule:nonzero;fill:rgb(100%,72.54902%,72.54902%);fill-opacity:1;" d="M 309.011719 265.003906 C 309.011719 265.003906 314.660156 259.070312 316.972656 260.265625 C 319.285156 261.457031 310.324219 266.765625 310.324219 266.765625 Z M 309.011719 265.003906 "/>
<use xlink:href="#surface65" mask="url(#mask20)"/>
<path style=" stroke:none;fill-rule:nonzero;fill:rgb(81.568627%,80.392157%,88.235294%);fill-opacity:1;" d="M 291.773438 252.054688 C 291.773438 252.054688 289.699219 255.78125 290.242188 259.796875 C 290.785156 263.816406 295.753906 276.707031 297.445312 276.476562 C 299.132812 276.25 311.648438 267.015625 311.648438 267.015625 L 309.261719 263.679688 L 300.117188 269.226562 C 300.117188 269.226562 298.726562 249.390625 291.773438 252.054688 Z M 291.773438 252.054688 "/>
<path style=" stroke:none;fill-rule:nonzero;fill:rgb(18.431373%,18.039216%,25.490196%);fill-opacity:1;" d="M 325.675781 261.125 L 311.421875 268.964844 C 311.253906 269.074219 311.046875 269.109375 310.855469 269.050781 C 310.664062 268.992188 310.503906 268.855469 310.425781 268.671875 L 306.933594 261.363281 C 306.796875 260.933594 306.996094 260.46875 307.398438 260.269531 L 319.234375 254.160156 C 319.535156 253.980469 319.925781 254.054688 320.140625 254.335938 L 326.050781 259.910156 C 326.167969 260.121094 326.195312 260.367188 326.125 260.597656 C 326.050781 260.828125 325.890625 261.019531 325.675781 261.125 Z M 325.675781 261.125 "/>
<path style=" stroke:none;fill-rule:nonzero;fill:rgb(38.823529%,59.607843%,100%);fill-opacity:1;" d="M 324.722656 260.046875 L 311.363281 267.695312 L 307.804688 261.277344 L 319.269531 255.035156 Z M 324.722656 260.046875 "/>
<path style=" stroke:none;fill-rule:nonzero;fill:rgb(94.901961%,94.901961%,94.901961%);fill-opacity:1;" d="M 313.511719 257.578125 C 313.441406 257.519531 313.324219 257.539062 313.253906 257.621094 C 313.1875 257.707031 313.1875 257.820312 313.257812 257.878906 C 313.328125 257.941406 313.445312 257.921875 313.511719 257.835938 C 313.582031 257.753906 313.582031 257.636719 313.511719 257.578125 Z M 313.511719 257.578125 "/>
<path style=" stroke:none;fill-rule:nonzero;fill:rgb(94.901961%,94.901961%,94.901961%);fill-opacity:1;" d="M 318.429688 264.191406 C 318.382812 264.152344 318.304688 264.167969 318.261719 264.222656 C 318.214844 264.277344 318.214844 264.355469 318.261719 264.394531 C 318.308594 264.433594 318.386719 264.421875 318.429688 264.367188 C 318.476562 264.308594 318.476562 264.234375 318.429688 264.191406 Z M 318.429688 264.191406 "/>
<use xlink:href="#surface68" mask="url(#mask21)"/>
<path style=" stroke:none;fill-rule:nonzero;fill:rgb(100%,72.54902%,72.54902%);fill-opacity:1;" d="M 305.191406 266.140625 C 305.191406 266.140625 311.585938 261.019531 313.714844 262.511719 C 315.847656 264.003906 306.257812 268.058594 306.257812 268.058594 Z M 305.191406 266.140625 "/>
<path style=" stroke:none;fill-rule:nonzero;fill:rgb(100%,72.54902%,72.54902%);fill-opacity:1;" d="M 302.847656 239.46875 C 302.847656 242.886719 300.082031 245.65625 296.667969 245.65625 C 293.253906 245.65625 290.484375 242.886719 290.484375 239.46875 C 290.484375 236.050781 293.253906 233.28125 296.667969 233.28125 C 300.082031 233.28125 302.847656 236.050781 302.847656 239.46875 Z M 302.847656 239.46875 "/>
<path style=" stroke:none;fill-rule:nonzero;fill:rgb(100%,72.54902%,72.54902%);fill-opacity:1;" d="M 317.980469 282.570312 C 317.980469 282.570312 324.585938 283.421875 324.371094 287.476562 C 324.160156 291.53125 319.257812 308.386719 319.257812 308.386719 L 318.832031 315 C 318.832031 315 319.257812 326.097656 317.980469 325.882812 C 316.699219 325.667969 313.714844 317.988281 313.714844 317.988281 C 313.714844 317.988281 310.09375 315.640625 311.796875 313.507812 C 313.503906 311.375 314.78125 311.585938 314.355469 309.238281 C 313.929688 306.894531 314.144531 297.078125 315.421875 294.089844 C 316.699219 291.101562 317.445312 289.457031 317.445312 289.457031 L 313.289062 289.183594 Z M 317.980469 282.570312 "/>
<use xlink:href="#surface71" mask="url(#mask22)"/>
<path style=" stroke:none;fill-rule:nonzero;fill:rgb(100%,72.54902%,72.54902%);fill-opacity:1;" d="M 318.40625 283.636719 C 318.40625 283.636719 324.800781 285.128906 325.4375 289.398438 C 326.078125 293.664062 329.273438 306.253906 329.273438 306.253906 L 332.683594 314.148438 C 332.683594 314.148438 338.011719 323.75 335.667969 323.535156 C 333.324219 323.324219 330.125 318.628906 329.0625 318.628906 C 327.996094 318.628906 324.800781 317.347656 325.011719 316.496094 C 325.226562 315.640625 326.71875 313.082031 326.71875 313.082031 L 321.5625 304.089844 C 320.566406 302.351562 319.8125 300.488281 319.324219 298.546875 C 318.792969 296.441406 318.191406 293.859375 318.191406 293.023438 C 318.191406 291.53125 313.929688 290.890625 313.929688 290.890625 Z M 318.40625 283.636719 "/>
<path style=" stroke:none;fill-rule:nonzero;fill:rgb(18.431373%,18.039216%,25.490196%);fill-opacity:1;" d="M 297.519531 269.980469 L 300.503906 278.515625 C 300.503906 278.515625 305.191406 279.792969 308.601562 280.863281 C 312.011719 281.929688 318.40625 280.433594 319.042969 282.996094 C 319.683594 285.554688 317.765625 290.035156 315.847656 291.101562 C 313.929688 292.171875 312.863281 293.238281 306.683594 291.53125 C 300.503906 289.824219 285.796875 289.398438 285.796875 289.398438 C 284.371094 290.253906 282.765625 290.765625 281.109375 290.890625 C 278.339844 291.101562 277.699219 291.316406 276.847656 290.675781 C 275.992188 290.035156 277.273438 290.035156 277.699219 288.328125 C 278.125 286.621094 278.339844 287.261719 280.257812 285.34375 C 282.175781 283.421875 283.667969 277.660156 284.730469 275.742188 C 285.796875 273.820312 286.4375 269.980469 286.4375 269.980469 Z M 297.519531 269.980469 "/>
<path style=" stroke:none;fill-rule:nonzero;fill:rgb(100%,72.54902%,72.54902%);fill-opacity:1;" d="M 297.09375 244.589844 C 295.523438 245.734375 294.578125 247.550781 294.535156 249.496094 C 294.535156 252.695312 288.140625 246.082031 288.140625 246.082031 C 288.140625 246.082031 291.550781 241.816406 291.550781 240.535156 C 291.550781 239.253906 297.09375 244.589844 297.09375 244.589844 Z M 297.09375 244.589844 "/>
<path style=" stroke:none;fill-rule:nonzero;fill:rgb(81.568627%,80.392157%,88.235294%);fill-opacity:1;" d="M 288.996094 243.308594 C 288.996094 243.308594 292.832031 244.800781 293.683594 246.933594 C 294.535156 249.070312 297.730469 253.550781 297.730469 253.550781 C 297.730469 253.550781 302.207031 258.246094 300.714844 263.363281 C 299.222656 268.484375 297.945312 269.765625 297.945312 270.621094 C 297.945312 271.472656 295.8125 272.96875 294.109375 272.753906 C 292.402344 272.539062 286.011719 271.6875 285.585938 270.832031 C 285.15625 269.980469 282.601562 257.816406 284.304688 253.335938 C 285.6875 249.914062 287.253906 246.566406 288.996094 243.308594 Z M 288.996094 243.308594 "/>
<path style=" stroke:none;fill-rule:nonzero;fill:rgb(18.431373%,18.039216%,25.490196%);fill-opacity:1;" d="M 298.460938 239.75 C 299.84375 240.078125 301.199219 239.195312 302.332031 238.320312 C 302.976562 237.824219 303.683594 237.117188 303.488281 236.316406 C 303.3125 235.605469 302.476562 235.207031 302.355469 234.484375 C 302.273438 233.984375 302.566406 233.496094 302.589844 232.988281 C 302.546875 232.199219 302.066406 231.5 301.347656 231.175781 C 300.671875 230.8125 299.910156 230.660156 299.21875 230.335938 C 298.160156 229.839844 297.28125 228.945312 296.152344 228.660156 C 294.609375 228.265625 293.039062 229.101562 291.453125 229.207031 C 290.496094 229.273438 289.523438 229.070312 288.574219 229.230469 C 286.710938 229.605469 285.347656 231.214844 285.277344 233.117188 C 285.265625 233.796875 285.402344 234.550781 284.996094 235.089844 C 284.835938 235.277344 284.65625 235.441406 284.453125 235.582031 C 283.042969 236.722656 282.402344 238.632812 282.332031 240.46875 C 282.296875 241.375 282.484375 242.449219 283.285156 242.832031 C 283.714844 242.980469 284.167969 243.042969 284.621094 243.019531 C 285.085938 243 285.527344 243.210938 285.800781 243.582031 C 286.167969 244.226562 285.621094 245.179688 286.097656 245.742188 C 286.457031 246.164062 287.15625 246.023438 287.574219 245.664062 C 287.992188 245.304688 288.253906 244.785156 288.652344 244.402344 C 289.425781 243.652344 290.570312 243.515625 291.628906 243.402344 C 291.945312 243.398438 292.25 243.300781 292.503906 243.117188 C 292.695312 242.914062 292.820312 242.65625 292.859375 242.382812 C 293 241.746094 293.003906 241.085938 292.867188 240.449219 C 292.800781 240.253906 292.789062 240.042969 292.84375 239.839844 C 292.910156 239.695312 293.019531 239.574219 293.15625 239.488281 C 293.8125 238.996094 294.960938 238.277344 295.8125 238.414062 C 296.761719 238.5625 297.503906 239.523438 298.460938 239.75 Z M 298.460938 239.75 "/>
<path style=" stroke:none;fill-rule:nonzero;fill:rgb(81.568627%,80.392157%,88.235294%);fill-opacity:1;" d="M 289.847656 250.988281 C 289.847656 250.988281 287.289062 254.402344 287.289062 258.457031 C 287.289062 262.511719 290.484375 275.953125 292.191406 275.953125 C 293.894531 275.953125 307.535156 268.484375 307.535156 268.484375 L 305.617188 264.859375 L 295.8125 269.125 C 295.8125 269.125 297.09375 249.28125 289.847656 250.988281 Z M 289.847656 250.988281 "/>
<path style=" stroke:none;fill-rule:nonzero;fill:rgb(38.823529%,59.607843%,100%);fill-opacity:1;" d="M 269.84375 289.503906 L 318.785156 289.503906 L 318.785156 299.003906 L 269.84375 299.003906 Z M 269.84375 289.503906 "/>
<path style=" stroke:none;fill-rule:nonzero;fill:rgb(24.705882%,23.921569%,33.72549%);fill-opacity:1;" d="M 294.3125 299.503906 C 292.109375 299.5 290.320312 297.710938 290.316406 295.503906 L 290.316406 183.003906 C 290.316406 181.460938 291.207031 180.054688 292.597656 179.390625 C 293.992188 178.726562 295.640625 178.925781 296.835938 179.902344 L 296.203125 180.675781 C 295.308594 179.945312 294.070312 179.796875 293.027344 180.292969 C 291.980469 180.789062 291.316406 181.84375 291.316406 183.003906 L 291.316406 295.503906 C 291.320312 297.160156 292.660156 298.5 294.3125 298.503906 Z M 294.3125 299.503906 "/>
<path style=" stroke:none;fill-rule:nonzero;fill:rgb(24.705882%,23.921569%,33.72549%);fill-opacity:1;" d="M 24.628906 337.003906 L 427.15625 337.003906 L 427.15625 338.003906 L 24.628906 338.003906 Z M 24.628906 337.003906 "/>
<path style=" stroke:none;fill-rule:nonzero;fill:rgb(38.823529%,59.607843%,100%);fill-opacity:1;" d="M 286.210938 235.191406 C 285.695312 234.542969 285.101562 234.160156 284.886719 234.332031 C 284.671875 234.507812 284.914062 235.171875 285.433594 235.816406 C 285.953125 236.460938 286.546875 236.84375 286.761719 236.671875 C 286.976562 236.5 286.730469 235.835938 286.210938 235.191406 Z M 286.210938 235.191406 "/>
<path style=" stroke:none;fill-rule:nonzero;fill:rgb(24.705882%,23.921569%,33.72549%);fill-opacity:1;" d="M 243.972656 320.570312 C 239.0625 328.105469 240.40625 337.695312 240.40625 337.695312 C 240.40625 337.695312 249.710938 335.058594 254.621094 327.523438 C 259.53125 319.984375 258.1875 310.398438 258.1875 310.398438 C 258.1875 310.398438 248.882812 313.03125 243.972656 320.570312 Z M 243.972656 320.570312 "/>
<path style=" stroke:none;fill-rule:nonzero;fill:rgb(38.823529%,59.607843%,100%);fill-opacity:1;" d="M 247.660156 321.902344 C 247.269531 330.890625 240.605469 337.90625 240.605469 337.90625 C 240.605469 337.90625 234.566406 330.34375 234.957031 321.351562 C 235.34375 312.359375 242.011719 305.347656 242.011719 305.347656 C 242.011719 305.347656 248.046875 312.910156 247.660156 321.902344 Z M 247.660156 321.902344 "/>
<path style=" stroke:none;fill-rule:nonzero;fill:rgb(24.705882%,23.921569%,33.72549%);fill-opacity:1;" d="M 163.171875 323.421875 C 165.519531 332.105469 173.558594 337.488281 173.558594 337.488281 C 173.558594 337.488281 177.792969 328.78125 175.445312 320.097656 C 173.097656 311.410156 165.058594 306.027344 165.058594 306.027344 C 165.058594 306.027344 160.824219 314.734375 163.171875 323.421875 Z M 163.171875 323.421875 "/>
<path style=" stroke:none;fill-rule:nonzero;fill:rgb(38.823529%,59.607843%,100%);fill-opacity:1;" d="M 166.621094 321.554688 C 173.0625 327.832031 173.847656 337.480469 173.847656 337.480469 C 173.847656 337.480469 164.191406 336.953125 157.75 330.675781 C 151.3125 324.398438 150.523438 314.75 150.523438 314.75 C 150.523438 314.75 160.179688 315.277344 166.621094 321.554688 Z M 166.621094 321.554688 "/>
<path style=" stroke:none;fill-rule:nonzero;fill:rgb(38.823529%,59.607843%,100%);fill-opacity:1;" d="M 145.273438 86.023438 C 144.714844 95.003906 137.914062 101.890625 137.914062 101.890625 C 137.914062 101.890625 132.023438 94.210938 132.582031 85.230469 C 133.140625 76.25 139.941406 69.363281 139.941406 69.363281 C 139.941406 69.363281 145.832031 77.042969 145.273438 86.023438 Z M 145.273438 86.023438 "/>
<path style=" stroke:none;fill-rule:nonzero;fill:rgb(38.823529%,59.607843%,100%);fill-opacity:1;" d="M 74.398438 29.242188 C 82 34.042969 84.773438 43.316406 84.773438 43.316406 C 84.773438 43.316406 75.21875 44.808594 67.617188 40.011719 C 60.011719 35.210938 57.238281 25.9375 57.238281 25.9375 C 57.238281 25.9375 66.792969 24.441406 74.398438 29.242188 Z M 74.398438 29.242188 "/>
<path style=" stroke:none;fill-rule:nonzero;fill:rgb(38.823529%,59.607843%,100%);fill-opacity:1;" d="M 57.417969 138.742188 C 65.019531 143.542969 67.792969 152.816406 67.792969 152.816406 C 67.792969 152.816406 58.238281 154.308594 50.636719 149.511719 C 43.03125 144.710938 40.257812 135.4375 40.257812 135.4375 C 40.257812 135.4375 49.8125 133.941406 57.417969 138.742188 Z M 57.417969 138.742188 "/>
<path style=" stroke:none;fill-rule:nonzero;fill:rgb(38.823529%,59.607843%,100%);fill-opacity:1;" d="M 211.996094 45.25 C 209.703125 53.953125 201.699219 59.382812 201.699219 59.382812 C 201.699219 59.382812 197.410156 50.703125 199.703125 42.003906 C 201.996094 33.300781 210 27.871094 210 27.871094 C 210 27.871094 214.289062 36.550781 211.996094 45.25 Z M 211.996094 45.25 "/>
<path style=" stroke:none;fill-rule:nonzero;fill:rgb(38.823529%,59.607843%,100%);fill-opacity:1;" d="M 284.328125 52.035156 C 281.632812 60.621094 273.382812 65.671875 273.382812 65.671875 C 273.382812 65.671875 269.503906 56.804688 272.199219 48.21875 C 274.894531 39.632812 283.144531 34.582031 283.144531 34.582031 C 283.144531 34.582031 287.023438 43.449219 284.328125 52.035156 Z M 284.328125 52.035156 "/>
<path style=" stroke:none;fill-rule:nonzero;fill:rgb(38.823529%,59.607843%,100%);fill-opacity:1;" d="M 362.511719 147.582031 C 357.628906 155.140625 348.332031 157.808594 348.332031 157.808594 C 348.332031 157.808594 346.953125 148.226562 351.835938 140.667969 C 356.714844 133.113281 366.011719 130.445312 366.011719 130.445312 C 366.011719 130.445312 367.390625 140.027344 362.511719 147.582031 Z M 362.511719 147.582031 "/>
</g>
</svg>
