<?xml version="1.0" encoding="UTF-8"?>
<svg xmlns="http://www.w3.org/2000/svg" xmlns:xlink="http://www.w3.org/1999/xlink" width="444pt" height="238pt" viewBox="0 0 444 238" version="1.1">
<defs>
<filter id="alpha" filterUnits="objectBoundingBox" x="0%" y="0%" width="100%" height="100%">
  <feColorMatrix type="matrix" in="SourceGraphic" values="0 0 0 0 1 0 0 0 0 1 0 0 0 0 1 0 0 0 1 0"/>
</filter>
<mask id="mask0">
  <g filter="url(#alpha)">
<rect x="0" y="0" width="444" height="238" style="fill:rgb(0%,0%,0%);fill-opacity:0.2;stroke:none;"/>
  </g>
</mask>
<clipPath id="clip1">
  <rect x="0" y="0" width="444" height="239"/>
</clipPath>
<g id="surface5" clip-path="url(#clip1)">
<path style=" stroke:none;fill-rule:nonzero;fill:rgb(0%,0%,0%);fill-opacity:1;" d="M 276.714844 205.15625 L 193.121094 205.15625 L 234.15625 145.425781 L 237.109375 141.121094 L 238.585938 138.972656 L 242.308594 145.425781 Z M 276.714844 205.15625 "/>
</g>
</defs>
<g id="surface1">
<path style=" stroke:none;fill-rule:nonzero;fill:rgb(100%,100%,100%);fill-opacity:1;" d="M 124.898438 3.492188 L 126.046875 4.070312 L 122.933594 10.292969 L 121.78125 9.714844 Z M 124.898438 3.492188 "/>
<path style=" stroke:none;fill-rule:nonzero;fill:rgb(100%,39.607843%,51.764706%);fill-opacity:1;" d="M 135.492188 18.277344 C 122.605469 5.363281 101.710938 5.363281 88.824219 18.277344 L 88.8125 18.285156 C 75.878906 5.703125 55.253906 5.855469 42.507812 18.628906 C 29.757812 31.40625 29.605469 52.070312 42.164062 65.035156 L 42.152344 65.042969 L 88.824219 111.8125 L 135.492188 65.042969 C 148.378906 52.128906 148.378906 31.191406 135.492188 18.277344 Z M 135.492188 18.277344 "/>
<path style=" stroke:none;fill-rule:nonzero;fill:rgb(38.823529%,59.607843%,100%);fill-opacity:1;" d="M 276.714844 205.15625 L 31.875 205.15625 C 31.570312 205.160156 31.261719 205.136719 30.960938 205.085938 L 146.757812 4.082031 C 148.195312 1.535156 150.894531 -0.0390625 153.816406 -0.0390625 C 156.738281 -0.0390625 159.433594 1.535156 160.871094 4.082031 L 238.585938 138.972656 L 242.308594 145.425781 Z M 276.714844 205.15625 "/>
<use xlink:href="#surface5" mask="url(#mask0)"/>
<path style=" stroke:none;fill-rule:nonzero;fill:rgb(24.705882%,23.921569%,33.72549%);fill-opacity:1;" d="M 413.039062 204.929688 L 201.273438 204.929688 L 242.308594 145.199219 L 245.261719 140.894531 L 298.738281 63.054688 C 302.242188 57.953125 310.675781 57.632812 314.796875 62.089844 C 315.074219 62.394531 315.332031 62.714844 315.566406 63.054688 Z M 413.039062 204.929688 "/>
<path style=" stroke:none;fill-rule:nonzero;fill:rgb(24.705882%,23.921569%,33.72549%);fill-opacity:1;" d="M 0 204.394531 L 444 204.394531 L 444 205.519531 L 0 205.519531 Z M 0 204.394531 "/>
<path style=" stroke:none;fill-rule:nonzero;fill:rgb(18.431373%,18.039216%,25.490196%);fill-opacity:1;" d="M 222.109375 181.492188 C 221.09375 178.871094 213.523438 179.367188 205.195312 182.601562 C 196.867188 185.835938 190.9375 190.578125 191.949219 193.199219 C 192.960938 195.820312 200.535156 195.320312 208.863281 192.089844 C 217.191406 188.855469 223.121094 184.109375 222.109375 181.492188 Z M 222.109375 181.492188 "/>
<path style=" stroke:none;fill-rule:nonzero;fill:rgb(18.431373%,18.039216%,25.490196%);fill-opacity:1;" d="M 206.976562 191.777344 C 206.976562 209.675781 192.496094 224.1875 174.636719 224.1875 C 156.773438 224.1875 142.292969 209.675781 142.292969 191.777344 C 142.292969 173.878906 156.773438 159.367188 174.636719 159.367188 C 192.496094 159.367188 206.976562 173.878906 206.976562 191.777344 Z M 206.976562 191.777344 "/>
<path style=" stroke:none;fill-rule:nonzero;fill:rgb(18.431373%,18.039216%,25.490196%);fill-opacity:1;" d="M 159.898438 217.210938 L 169.722656 217.210938 L 169.722656 234.855469 L 159.898438 234.855469 Z M 159.898438 217.210938 "/>
<path style=" stroke:none;fill-rule:nonzero;fill:rgb(18.431373%,18.039216%,25.490196%);fill-opacity:1;" d="M 179.546875 217.210938 L 189.371094 217.210938 L 189.371094 234.855469 L 179.546875 234.855469 Z M 179.546875 217.210938 "/>
<path style=" stroke:none;fill-rule:nonzero;fill:rgb(18.431373%,18.039216%,25.490196%);fill-opacity:1;" d="M 176.273438 235.058594 C 176.273438 233.359375 172.605469 231.980469 168.085938 231.980469 C 163.5625 231.980469 159.898438 233.359375 159.898438 235.058594 C 159.898438 236.757812 163.5625 238.136719 168.085938 238.136719 C 172.605469 238.136719 176.273438 236.757812 176.273438 235.058594 Z M 176.273438 235.058594 "/>
<path style=" stroke:none;fill-rule:nonzero;fill:rgb(18.431373%,18.039216%,25.490196%);fill-opacity:1;" d="M 195.921875 234.648438 C 195.921875 232.949219 192.257812 231.570312 187.734375 231.570312 C 183.214844 231.570312 179.546875 232.949219 179.546875 234.648438 C 179.546875 236.347656 183.214844 237.726562 187.734375 237.726562 C 192.257812 237.726562 195.921875 236.347656 195.921875 234.648438 Z M 195.921875 234.648438 "/>
<path style=" stroke:none;fill-rule:nonzero;fill:rgb(100%,100%,100%);fill-opacity:1;" d="M 186.507812 183.570312 C 186.507812 189.691406 181.558594 194.648438 175.453125 194.648438 C 169.347656 194.648438 164.398438 189.691406 164.398438 183.570312 C 164.398438 177.453125 169.347656 172.496094 175.453125 172.496094 C 181.558594 172.496094 186.507812 177.453125 186.507812 183.570312 Z M 186.507812 183.570312 "/>
<path style=" stroke:none;fill-rule:nonzero;fill:rgb(24.705882%,23.921569%,33.72549%);fill-opacity:1;" d="M 179.136719 183.570312 C 179.136719 185.609375 177.488281 187.265625 175.453125 187.265625 C 173.417969 187.265625 171.769531 185.609375 171.769531 183.570312 C 171.769531 181.53125 173.417969 179.878906 175.453125 179.878906 C 177.488281 179.878906 179.136719 181.53125 179.136719 183.570312 Z M 179.136719 183.570312 "/>
<path style=" stroke:none;fill-rule:nonzero;fill:rgb(90.196078%,90.196078%,90.196078%);fill-opacity:1;" d="M 143.261719 161.636719 C 140.652344 149.917969 149 138.074219 161.90625 135.1875 C 174.816406 132.296875 187.398438 139.457031 190.007812 151.175781 C 192.621094 162.894531 184.066406 167.21875 171.15625 170.105469 C 158.246094 172.996094 145.875 173.355469 143.261719 161.636719 Z M 143.261719 161.636719 "/>
<path style=" stroke:none;fill-rule:nonzero;fill:rgb(18.431373%,18.039216%,25.490196%);fill-opacity:1;" d="M 153.640625 184.320312 C 151.660156 182.332031 144.933594 185.851562 138.617188 192.179688 C 132.300781 198.511719 128.789062 205.25 130.773438 207.238281 C 132.753906 209.222656 139.480469 205.703125 145.796875 199.375 C 152.113281 193.046875 155.625 186.308594 153.640625 184.320312 Z M 153.640625 184.320312 "/>
<path style=" stroke:none;fill-rule:nonzero;fill:rgb(100%,100%,100%);fill-opacity:1;" d="M 158.75 203.46875 C 158.75 206.640625 166.898438 212.90625 175.941406 212.90625 C 184.988281 212.90625 193.46875 203.976562 193.46875 200.800781 C 193.46875 197.628906 184.988281 201.417969 175.941406 201.417969 C 166.898438 201.417969 158.75 200.296875 158.75 203.46875 Z M 158.75 203.46875 "/>
<path style=" stroke:none;fill-rule:nonzero;fill:rgb(18.431373%,18.039216%,25.490196%);fill-opacity:1;" d="M 235.804688 182.601562 C 227.476562 179.367188 219.90625 178.871094 218.890625 181.492188 C 217.878906 184.109375 223.808594 188.855469 232.136719 192.089844 C 240.464844 195.320312 248.039062 195.820312 249.050781 193.199219 C 250.0625 190.578125 244.132812 185.835938 235.804688 182.601562 Z M 235.804688 182.601562 "/>
<path style=" stroke:none;fill-rule:nonzero;fill:rgb(18.431373%,18.039216%,25.490196%);fill-opacity:1;" d="M 298.707031 191.777344 C 298.707031 209.675781 284.226562 224.1875 266.363281 224.1875 C 248.503906 224.1875 234.023438 209.675781 234.023438 191.777344 C 234.023438 173.878906 248.503906 159.367188 266.363281 159.367188 C 284.226562 159.367188 298.707031 173.878906 298.707031 191.777344 Z M 298.707031 191.777344 "/>
<path style=" stroke:none;fill-rule:nonzero;fill:rgb(18.431373%,18.039216%,25.490196%);fill-opacity:1;" d="M 281.101562 234.855469 L 271.277344 234.855469 L 271.277344 217.210938 L 281.101562 217.210938 Z M 281.101562 234.855469 "/>
<path style=" stroke:none;fill-rule:nonzero;fill:rgb(18.431373%,18.039216%,25.490196%);fill-opacity:1;" d="M 261.453125 234.855469 L 251.628906 234.855469 L 251.628906 217.210938 L 261.453125 217.210938 Z M 261.453125 234.855469 "/>
<path style=" stroke:none;fill-rule:nonzero;fill:rgb(18.431373%,18.039216%,25.490196%);fill-opacity:1;" d="M 281.101562 235.058594 C 281.101562 233.359375 277.4375 231.980469 272.914062 231.980469 C 268.394531 231.980469 264.726562 233.359375 264.726562 235.058594 C 264.726562 236.757812 268.394531 238.136719 272.914062 238.136719 C 277.4375 238.136719 281.101562 236.757812 281.101562 235.058594 Z M 281.101562 235.058594 "/>
<path style=" stroke:none;fill-rule:nonzero;fill:rgb(18.431373%,18.039216%,25.490196%);fill-opacity:1;" d="M 261.453125 234.648438 C 261.453125 232.949219 257.785156 231.570312 253.265625 231.570312 C 248.742188 231.570312 245.078125 232.949219 245.078125 234.648438 C 245.078125 236.347656 248.742188 237.726562 253.265625 237.726562 C 257.785156 237.726562 261.453125 236.347656 261.453125 234.648438 Z M 261.453125 234.648438 "/>
<path style=" stroke:none;fill-rule:nonzero;fill:rgb(100%,100%,100%);fill-opacity:1;" d="M 276.601562 183.570312 C 276.601562 189.691406 271.652344 194.648438 265.546875 194.648438 C 259.441406 194.648438 254.492188 189.691406 254.492188 183.570312 C 254.492188 177.453125 259.441406 172.496094 265.546875 172.496094 C 271.652344 172.496094 276.601562 177.453125 276.601562 183.570312 Z M 276.601562 183.570312 "/>
<path style=" stroke:none;fill-rule:nonzero;fill:rgb(24.705882%,23.921569%,33.72549%);fill-opacity:1;" d="M 269.230469 183.570312 C 269.230469 185.609375 267.582031 187.265625 265.546875 187.265625 C 263.511719 187.265625 261.863281 185.609375 261.863281 183.570312 C 261.863281 181.53125 263.511719 179.878906 265.546875 179.878906 C 267.582031 179.878906 269.230469 181.53125 269.230469 183.570312 Z M 269.230469 183.570312 "/>
<path style=" stroke:none;fill-rule:nonzero;fill:rgb(38.823529%,59.607843%,100%);fill-opacity:1;" d="M 297.738281 161.636719 C 300.347656 149.917969 292 138.074219 279.09375 135.1875 C 266.183594 132.296875 253.601562 139.457031 250.992188 151.175781 C 248.378906 162.894531 256.933594 167.21875 269.84375 170.105469 C 282.753906 172.996094 295.125 173.355469 297.738281 161.636719 Z M 297.738281 161.636719 "/>
<path style=" stroke:none;fill-rule:nonzero;fill:rgb(18.431373%,18.039216%,25.490196%);fill-opacity:1;" d="M 302.382812 192.179688 C 296.066406 185.851562 289.339844 182.332031 287.359375 184.320312 C 285.375 186.308594 288.886719 193.046875 295.203125 199.375 C 301.519531 205.703125 308.246094 209.222656 310.226562 207.238281 C 312.210938 205.25 308.699219 198.511719 302.382812 192.179688 Z M 302.382812 192.179688 "/>
<path style=" stroke:none;fill-rule:nonzero;fill:rgb(100%,100%,100%);fill-opacity:1;" d="M 282.25 203.46875 C 282.25 206.640625 274.101562 212.90625 265.058594 212.90625 C 256.011719 212.90625 247.53125 203.976562 247.53125 200.800781 C 247.53125 197.628906 256.011719 201.417969 265.058594 201.417969 C 274.101562 201.417969 282.25 200.296875 282.25 203.46875 Z M 282.25 203.46875 "/>
<path style=" stroke:none;fill-rule:nonzero;fill:rgb(90.196078%,90.196078%,90.196078%);fill-opacity:1;" d="M 444 157.761719 C 444 178.707031 431.574219 186.019531 416.246094 186.019531 C 400.921875 186.019531 388.496094 178.707031 388.496094 157.761719 C 388.496094 136.816406 416.246094 110.171875 416.246094 110.171875 C 416.246094 110.171875 444 136.816406 444 157.761719 Z M 444 157.761719 "/>
<path style=" stroke:none;fill-rule:nonzero;fill:rgb(24.705882%,23.921569%,33.72549%);fill-opacity:1;" d="M 415.238281 182.816406 L 415.519531 165.289062 L 427.347656 143.601562 L 415.566406 162.539062 L 415.695312 154.65625 L 423.84375 138.96875 L 415.726562 152.570312 L 415.957031 138.394531 L 424.6875 125.90625 L 415.992188 136.167969 L 416.136719 110.171875 L 415.234375 144.582031 L 415.308594 143.164062 L 406.433594 129.550781 L 415.164062 145.886719 L 414.339844 161.71875 L 414.316406 161.300781 L 404.082031 146.972656 L 414.285156 162.785156 L 414.179688 164.765625 L 414.160156 164.792969 L 414.171875 164.957031 L 412.070312 205.121094 L 414.875 205.121094 L 415.210938 184.375 L 425.386719 168.605469 Z M 415.238281 182.816406 "/>
</g>
</svg>
