<?xml version="1.0" encoding="UTF-8"?>
<svg xmlns="http://www.w3.org/2000/svg" xmlns:xlink="http://www.w3.org/1999/xlink" width="441pt" height="302pt" viewBox="0 0 441 302" version="1.1">
<g id="surface1">
<path style=" stroke:none;fill-rule:nonzero;fill:rgb(100%,72.156863%,72.156863%);fill-opacity:1;" d="M 378.71875 126.136719 C 384.800781 132.523438 391.582031 133.539062 399.070312 129.195312 C 395.929688 124.152344 395.179688 118.671875 396.019531 112.894531 L 381.433594 112.894531 C 382.078125 117.96875 381.90625 122.695312 378.71875 126.136719 Z M 378.71875 126.136719 "/>
<path style=" stroke:none;fill-rule:nonzero;fill:rgb(100%,72.156863%,72.156863%);fill-opacity:1;" d="M 402.800781 293.207031 L 410.601562 289.132812 L 413.996094 246.007812 L 413.996094 223.257812 L 396.019531 222.917969 L 401.105469 245.667969 Z M 402.800781 293.207031 "/>
<path style=" stroke:none;fill-rule:nonzero;fill:rgb(100%,72.156863%,72.156863%);fill-opacity:1;" d="M 380.1875 293.207031 L 372.386719 289.132812 L 368.996094 246.007812 L 368.996094 223.257812 L 386.972656 222.917969 L 381.882812 245.667969 Z M 380.1875 293.207031 "/>
<path style=" stroke:none;fill-rule:nonzero;fill:rgb(18.431373%,18.039216%,25.490196%);fill-opacity:1;" d="M 368.203125 228.011719 L 387.199219 226.3125 L 390.25 208.992188 L 393.984375 225.972656 L 414.671875 224.613281 C 415.125 216.363281 413.976562 207.871094 411.28125 199.144531 L 365.832031 198.128906 Z M 368.203125 228.011719 "/>
<path style=" stroke:none;fill-rule:nonzero;fill:rgb(100%,72.156863%,72.156863%);fill-opacity:1;" d="M 348.460938 162.96875 L 325.613281 145.355469 C 325.375 145.171875 325.117188 145.023438 324.839844 144.910156 L 321.515625 143.558594 C 318.851562 142.472656 313.769531 138.859375 316.246094 135.136719 C 318.246094 132.136719 325.890625 137.511719 326.832031 139.503906 C 327.128906 140.128906 327.617188 140.644531 328.226562 140.976562 L 332.871094 143.523438 C 332.980469 143.585938 333.097656 143.640625 333.21875 143.691406 L 350.894531 150.863281 C 351.890625 151.265625 353.019531 151.164062 353.921875 150.589844 L 357.128906 148.554688 C 358.054688 147.96875 359.210938 147.875 360.21875 148.308594 C 361.226562 148.742188 361.953125 149.640625 362.167969 150.71875 L 363.226562 156.070312 C 363.542969 157.664062 362.664062 159.25 361.152344 159.828125 L 351.671875 163.441406 C 350.59375 163.855469 349.378906 163.675781 348.460938 162.96875 Z M 348.460938 162.96875 "/>
<path style=" stroke:none;fill-rule:nonzero;fill:rgb(38.823529%,59.607843%,100%);fill-opacity:1;" d="M 352.707031 150.136719 C 359.03125 148.4375 358.367188 157.285156 363.195312 161.636719 L 372.683594 154.136719 L 367.1875 127.496094 C 364.199219 128.351562 361.785156 130.566406 360.667969 133.472656 Z M 352.707031 150.136719 "/>
<path style=" stroke:none;fill-rule:nonzero;fill:rgb(38.823529%,59.607843%,100%);fill-opacity:1;" d="M 364.472656 199.824219 L 412.300781 199.824219 C 404.558594 178.945312 405.3125 157.46875 411.902344 135.582031 C 412.132812 134.832031 411.796875 134.027344 411.101562 133.660156 L 397.375 126.476562 C 391.984375 129.988281 386.195312 128.910156 380.078125 124.101562 L 365.152344 128.175781 C 369.214844 152.605469 369.332031 176.53125 364.472656 199.824219 Z M 364.472656 199.824219 "/>
<path style=" stroke:none;fill-rule:nonzero;fill:rgb(18.431373%,18.039216%,25.490196%);fill-opacity:1;" d="M 376.433594 301.183594 L 356.5 302.03125 C 354.703125 302.105469 353.140625 300.8125 352.871094 299.03125 C 352.605469 297.230469 353.75 295.523438 355.515625 295.089844 L 358.894531 294.257812 L 372.183594 286.550781 C 374.152344 288.589844 376.859375 290.316406 380.175781 291.785156 L 380.214844 297.207031 C 380.230469 299.335938 378.558594 301.09375 376.433594 301.183594 Z M 376.433594 301.183594 "/>
<path style=" stroke:none;fill-rule:nonzero;fill:rgb(24.705882%,23.921569%,33.72549%);fill-opacity:1;" d="M 440.9375 302.097656 L 0.160156 302.097656 L 0.160156 301.007812 L 441.136719 301.007812 Z M 440.9375 302.097656 "/>
<path style=" stroke:none;fill-rule:nonzero;fill:rgb(18.431373%,18.039216%,25.490196%);fill-opacity:1;" d="M 406.390625 300.878906 L 426.324219 301.726562 C 428.121094 301.804688 429.6875 300.507812 429.953125 298.726562 C 430.222656 296.929688 429.074219 295.21875 427.308594 294.785156 L 423.929688 293.957031 L 410.640625 286.246094 C 408.671875 288.285156 405.964844 290.011719 402.648438 291.480469 L 402.609375 296.902344 C 402.59375 299.03125 404.265625 300.789062 406.390625 300.878906 Z M 406.390625 300.878906 "/>
<path style=" stroke:none;fill-rule:nonzero;fill:rgb(100%,72.156863%,72.156863%);fill-opacity:1;" d="M 398.054688 108.140625 C 398.054688 114.140625 393.195312 119.007812 387.199219 119.007812 C 381.203125 119.007812 376.34375 114.140625 376.34375 108.140625 C 376.34375 102.140625 381.203125 97.273438 387.199219 97.273438 C 393.195312 97.273438 398.054688 102.140625 398.054688 108.140625 Z M 398.054688 108.140625 "/>
<path style=" stroke:none;fill-rule:nonzero;fill:rgb(100%,72.156863%,72.156863%);fill-opacity:1;" d="M 404.160156 196.429688 L 400.574219 203.410156 C 399.933594 204.65625 399.855469 206.117188 400.359375 207.421875 C 400.863281 208.730469 401.902344 209.757812 403.210938 210.25 C 404.601562 210.773438 406.148438 210.636719 407.425781 209.882812 C 408.703125 209.125 409.570312 207.832031 409.785156 206.363281 L 411.28125 196.089844 L 416.707031 170.28125 L 416.371094 157.378906 L 405.515625 157.378906 C 409.21875 166.976562 407.382812 181.132812 404.160156 196.429688 Z M 404.160156 196.429688 "/>
<path style=" stroke:none;fill-rule:nonzero;fill:rgb(38.823529%,59.607843%,100%);fill-opacity:1;" d="M 403.820312 158.738281 L 418.40625 158.738281 L 416.289062 142.722656 C 415.703125 138.3125 412.925781 134.496094 408.90625 132.589844 Z M 403.820312 158.738281 "/>
<path style=" stroke:none;fill-rule:nonzero;fill:rgb(18.431373%,18.039216%,25.490196%);fill-opacity:1;" d="M 398.738281 102.15625 C 399.175781 99.21875 398.347656 96.234375 396.457031 93.949219 C 394.605469 91.753906 391.5 89.960938 386.351562 90.804688 C 375.117188 92.65625 371.875 102.019531 372.976562 104.375 C 374.078125 106.730469 377.453125 112.1875 377.453125 112.1875 C 377.453125 112.1875 374.976562 106.785156 377.664062 105.683594 C 380.351562 104.585938 390.75 100.25 394.382812 102.203125 C 396.472656 103.253906 397.839844 105.351562 397.960938 107.691406 Z M 398.738281 102.15625 "/>
<path style=" stroke:none;fill-rule:nonzero;fill:rgb(90.196078%,90.196078%,90.196078%);fill-opacity:1;" d="M 212.964844 56.929688 L 208.597656 59.148438 C 203.574219 49.238281 196.914062 40.25 188.902344 32.558594 C 149.554688 -5.3125 86.769531 -4.074219 48.945312 35.316406 C 11.117188 74.707031 12.355469 137.5625 51.703125 175.433594 C 59.191406 182.65625 67.769531 188.648438 77.125 193.195312 L 74.988281 197.605469 C 34.273438 177.8125 11.046875 133.90625 17.566406 89.070312 C 24.089844 44.230469 58.859375 8.78125 103.523438 1.433594 C 148.183594 -5.910156 192.453125 16.539062 212.964844 56.929688 Z M 212.964844 56.929688 "/>
<path style=" stroke:none;fill-rule:nonzero;fill:rgb(90.196078%,90.196078%,90.196078%);fill-opacity:1;" d="M 65.320312 148.074219 C 51.957031 161.996094 52.390625 184.125 66.292969 197.507812 C 80.199219 210.890625 102.304688 210.453125 115.671875 196.535156 L 121.683594 190.273438 L 71.335938 141.8125 Z M 65.320312 148.074219 "/>
<path style=" stroke:none;fill-rule:nonzero;fill:rgb(32.54902%,32.941176%,38.039216%);fill-opacity:1;" d="M 67.960938 138.257812 C 64.984375 141.363281 65.082031 146.292969 68.175781 149.277344 L 114.359375 193.726562 C 117.457031 196.710938 122.386719 196.613281 125.367188 193.507812 C 128.347656 190.40625 128.25 185.472656 125.148438 182.488281 L 78.96875 138.042969 C 75.867188 135.0625 70.941406 135.160156 67.960938 138.257812 Z M 67.960938 138.257812 "/>
<path style=" stroke:none;fill-rule:nonzero;fill:rgb(90.196078%,90.196078%,90.196078%);fill-opacity:1;" d="M 206.472656 101.980469 L 212.484375 95.71875 C 225.851562 81.800781 225.414062 59.667969 211.511719 46.285156 C 197.605469 32.902344 175.5 33.339844 162.132812 47.261719 L 156.121094 53.519531 Z M 206.472656 101.980469 "/>
<path style=" stroke:none;fill-rule:nonzero;fill:rgb(32.54902%,32.941176%,38.039216%);fill-opacity:1;" d="M 152.4375 50.285156 C 149.464844 53.390625 149.5625 58.320312 152.65625 61.304688 L 198.835938 105.753906 C 201.9375 108.734375 206.863281 108.632812 209.839844 105.53125 C 212.820312 102.429688 212.722656 97.5 209.628906 94.515625 L 163.445312 50.070312 C 160.34375 47.089844 155.421875 47.1875 152.4375 50.285156 Z M 152.4375 50.285156 "/>
<path style=" stroke:none;fill-rule:nonzero;fill:rgb(32.54902%,32.941176%,38.039216%);fill-opacity:1;" d="M 171.917969 153.003906 L 171.917969 149.390625 C 171.917969 149.390625 187.660156 140.527344 200.449219 149.390625 L 200.449219 152.675781 Z M 171.917969 153.003906 "/>
<path style=" stroke:none;fill-rule:nonzero;fill:rgb(32.54902%,32.941176%,38.039216%);fill-opacity:1;" d="M 315.226562 153.003906 L 315.226562 149.390625 C 315.226562 149.390625 330.964844 140.527344 343.753906 149.390625 L 343.753906 152.675781 Z M 315.226562 153.003906 "/>
<path style=" stroke:none;fill-rule:nonzero;fill:rgb(90.196078%,90.196078%,90.196078%);fill-opacity:1;" d="M 219.140625 152.675781 L 203.730469 152.675781 C 203.730469 152.675781 199.792969 148.078125 186.675781 148.40625 C 173.558594 148.734375 170.9375 152.675781 170.9375 152.675781 C 170.9375 152.675781 157.984375 161.375 155.03125 172.207031 C 155.03125 172.207031 139.125 219.976562 138.796875 257.402344 C 138.472656 294.828125 152.898438 300.082031 160.441406 301.066406 C 167.984375 302.050781 181.429688 300.738281 194.546875 267.582031 L 200.121094 248.210938 C 200.121094 248.210938 201.105469 236.71875 212.910156 243.941406 C 224.714844 251.164062 235.210938 240.003906 235.210938 240.003906 L 279.480469 240.003906 C 279.480469 240.003906 294.238281 249.195312 307.683594 241.972656 C 307.683594 241.972656 312.929688 235.078125 317.847656 258.386719 C 317.847656 258.386719 332.933594 306.320312 356.214844 301.394531 C 379.5 296.472656 376.875 256.417969 376.875 256.417969 C 376.875 256.417969 373.761719 195.191406 360.972656 173.523438 C 360.972656 173.523438 348.675781 151.035156 340.476562 150.046875 C 340.476562 150.046875 322.765625 146.765625 315.882812 149.71875 L 311.945312 153.003906 Z M 219.140625 152.675781 "/>
<path style=" stroke:none;fill-rule:nonzero;fill:rgb(32.54902%,32.941176%,38.039216%);fill-opacity:1;" d="M 211.925781 184.847656 C 211.925781 200.621094 199.152344 213.410156 183.398438 213.410156 C 167.640625 213.410156 154.867188 200.621094 154.867188 184.847656 C 154.867188 169.074219 167.640625 156.285156 183.398438 156.285156 C 199.152344 156.285156 211.925781 169.074219 211.925781 184.847656 Z M 211.925781 184.847656 "/>
<path style=" stroke:none;fill-rule:nonzero;fill:rgb(32.54902%,32.941176%,38.039216%);fill-opacity:1;" d="M 360.808594 184.847656 C 360.808594 200.621094 348.035156 213.410156 332.277344 213.410156 C 316.519531 213.410156 303.746094 200.621094 303.746094 184.847656 C 303.746094 169.074219 316.519531 156.285156 332.277344 156.285156 C 348.035156 156.285156 360.808594 169.074219 360.808594 184.847656 Z M 360.808594 184.847656 "/>
<path style=" stroke:none;fill-rule:nonzero;fill:rgb(90.196078%,90.196078%,90.196078%);fill-opacity:1;" d="M 188.367188 178.480469 L 184.566406 181.847656 C 183.898438 182.433594 182.898438 182.433594 182.234375 181.847656 L 178.421875 178.480469 C 178.046875 178.148438 177.828125 177.667969 177.824219 177.167969 L 177.824219 167.898438 C 177.828125 166.925781 178.617188 166.136719 179.589844 166.136719 L 187.214844 166.136719 C 188.1875 166.132812 188.976562 166.921875 188.980469 167.894531 L 188.980469 177.160156 C 188.972656 177.667969 188.753906 178.148438 188.367188 178.480469 Z M 188.367188 178.480469 "/>
<path style=" stroke:none;fill-rule:nonzero;fill:rgb(90.196078%,90.196078%,90.196078%);fill-opacity:1;" d="M 188.367188 191.214844 L 184.566406 187.847656 C 183.898438 187.261719 182.898438 187.261719 182.234375 187.847656 L 178.421875 191.21875 C 178.046875 191.550781 177.828125 192.027344 177.824219 192.53125 L 177.824219 201.789062 C 177.824219 202.761719 178.609375 203.554688 179.582031 203.554688 L 187.214844 203.554688 C 188.1875 203.558594 188.976562 202.769531 188.980469 201.796875 L 188.980469 192.535156 C 188.972656 192.027344 188.753906 191.546875 188.367188 191.214844 Z M 188.367188 191.214844 "/>
<path style=" stroke:none;fill-rule:nonzero;fill:rgb(90.196078%,90.196078%,90.196078%);fill-opacity:1;" d="M 177.039062 189.832031 L 180.402344 186.015625 C 180.988281 185.351562 180.988281 184.351562 180.402344 183.683594 L 177.039062 179.867188 C 176.707031 179.492188 176.230469 179.273438 175.726562 179.269531 L 166.480469 179.269531 C 165.507812 179.273438 164.71875 180.0625 164.71875 181.035156 L 164.71875 188.667969 C 164.714844 189.644531 165.503906 190.433594 166.476562 190.4375 L 175.730469 190.4375 C 176.234375 190.429688 176.707031 190.210938 177.039062 189.832031 Z M 177.039062 189.832031 "/>
<path style=" stroke:none;fill-rule:nonzero;fill:rgb(90.196078%,90.196078%,90.196078%);fill-opacity:1;" d="M 189.757812 189.832031 L 186.402344 186.015625 C 185.8125 185.347656 185.8125 184.347656 186.402344 183.679688 L 189.765625 179.863281 C 190.097656 179.488281 190.574219 179.269531 191.078125 179.265625 L 200.324219 179.265625 C 201.296875 179.265625 202.085938 180.054688 202.089844 181.027344 L 202.089844 188.667969 C 202.089844 189.640625 201.304688 190.429688 200.332031 190.433594 L 191.082031 190.433594 C 190.574219 190.433594 190.09375 190.214844 189.757812 189.832031 Z M 189.757812 189.832031 "/>
<path style=" stroke:none;fill-rule:nonzero;fill:rgb(32.54902%,32.941176%,38.039216%);fill-opacity:1;" d="M 242.753906 216.035156 C 242.753906 227.460938 233.503906 236.71875 222.09375 236.71875 C 210.683594 236.71875 201.433594 227.460938 201.433594 216.035156 C 201.433594 204.613281 210.683594 195.355469 222.09375 195.355469 C 233.503906 195.355469 242.753906 204.613281 242.753906 216.035156 Z M 242.753906 216.035156 "/>
<path style=" stroke:none;fill-rule:nonzero;fill:rgb(32.54902%,32.941176%,38.039216%);fill-opacity:1;" d="M 314.242188 216.035156 C 314.242188 227.460938 304.992188 236.71875 293.582031 236.71875 C 282.171875 236.71875 272.921875 227.460938 272.921875 216.035156 C 272.921875 204.613281 282.171875 195.355469 293.582031 195.355469 C 304.992188 195.355469 314.242188 204.613281 314.242188 216.035156 Z M 314.242188 216.035156 "/>
<path style=" stroke:none;fill-rule:nonzero;fill:rgb(90.196078%,90.196078%,90.196078%);fill-opacity:1;" d="M 235.867188 216.035156 C 235.867188 223.652344 229.699219 229.824219 222.09375 229.824219 C 214.484375 229.824219 208.320312 223.652344 208.320312 216.035156 C 208.320312 208.421875 214.484375 202.25 222.09375 202.25 C 229.699219 202.25 235.867188 208.421875 235.867188 216.035156 Z M 235.867188 216.035156 "/>
<path style=" stroke:none;fill-rule:nonzero;fill:rgb(32.54902%,32.941176%,38.039216%);fill-opacity:1;" d="M 222.09375 225.558594 C 216.839844 225.558594 212.582031 221.296875 212.582031 216.035156 C 212.582031 210.777344 216.839844 206.515625 222.09375 206.515625 C 227.34375 206.515625 231.601562 210.777344 231.601562 216.035156 C 231.597656 221.292969 227.34375 225.550781 222.09375 225.558594 Z M 222.09375 207.171875 C 217.203125 207.171875 213.238281 211.140625 213.238281 216.035156 C 213.238281 220.933594 217.203125 224.902344 222.09375 224.902344 C 226.984375 224.902344 230.945312 220.933594 230.945312 216.035156 C 230.941406 211.144531 226.980469 207.179688 222.09375 207.171875 Z M 222.09375 207.171875 "/>
<path style=" stroke:none;fill-rule:nonzero;fill:rgb(90.196078%,90.196078%,90.196078%);fill-opacity:1;" d="M 307.355469 216.035156 C 307.355469 223.652344 301.1875 229.824219 293.582031 229.824219 C 285.976562 229.824219 279.808594 223.652344 279.808594 216.035156 C 279.808594 208.421875 285.976562 202.25 293.582031 202.25 C 301.1875 202.25 307.355469 208.421875 307.355469 216.035156 Z M 307.355469 216.035156 "/>
<path style=" stroke:none;fill-rule:nonzero;fill:rgb(32.54902%,32.941176%,38.039216%);fill-opacity:1;" d="M 293.582031 225.558594 C 288.328125 225.558594 284.070312 221.296875 284.070312 216.035156 C 284.070312 210.777344 288.328125 206.515625 293.582031 206.515625 C 298.832031 206.515625 303.089844 210.777344 303.089844 216.035156 C 303.085938 221.292969 298.832031 225.550781 293.582031 225.558594 Z M 293.582031 207.171875 C 288.691406 207.171875 284.726562 211.140625 284.726562 216.035156 C 284.726562 220.933594 288.691406 224.902344 293.582031 224.902344 C 298.472656 224.902344 302.4375 220.933594 302.4375 216.035156 C 302.429688 211.144531 298.46875 207.179688 293.582031 207.171875 Z M 293.582031 207.171875 "/>
<path style=" stroke:none;fill-rule:nonzero;fill:rgb(32.54902%,32.941176%,38.039216%);fill-opacity:1;" d="M 264.394531 218.335938 C 264.394531 221.597656 261.753906 224.246094 258.492188 224.246094 C 255.234375 224.246094 252.589844 221.597656 252.589844 218.335938 C 252.589844 215.070312 255.234375 212.425781 258.492188 212.425781 C 261.753906 212.425781 264.394531 215.070312 264.394531 218.335938 Z M 264.394531 218.335938 "/>
<path style=" stroke:none;fill-rule:nonzero;fill:rgb(32.54902%,32.941176%,38.039216%);fill-opacity:1;" d="M 250.761719 198.609375 C 250.761719 199.324219 250.183594 199.902344 249.472656 199.902344 C 248.761719 199.902344 248.183594 199.324219 248.183594 198.609375 C 248.183594 197.898438 248.761719 197.320312 249.472656 197.320312 C 250.183594 197.320312 250.761719 197.898438 250.761719 198.609375 Z M 250.761719 198.609375 "/>
<path style=" stroke:none;fill-rule:nonzero;fill:rgb(32.54902%,32.941176%,38.039216%);fill-opacity:1;" d="M 255.585938 198.609375 C 255.585938 199.324219 255.011719 199.902344 254.300781 199.902344 C 253.585938 199.902344 253.011719 199.324219 253.011719 198.609375 C 253.011719 197.898438 253.585938 197.320312 254.300781 197.320312 C 255.011719 197.320312 255.585938 197.898438 255.585938 198.609375 Z M 255.585938 198.609375 "/>
<path style=" stroke:none;fill-rule:nonzero;fill:rgb(32.54902%,32.941176%,38.039216%);fill-opacity:1;" d="M 254.945312 204.734375 C 254.945312 205.445312 254.367188 206.023438 253.65625 206.023438 C 252.945312 206.023438 252.367188 205.445312 252.367188 204.734375 C 252.367188 204.019531 252.945312 203.445312 253.65625 203.445312 C 254.367188 203.445312 254.945312 204.019531 254.945312 204.734375 Z M 254.945312 204.734375 "/>
<path style=" stroke:none;fill-rule:nonzero;fill:rgb(32.54902%,32.941176%,38.039216%);fill-opacity:1;" d="M 259.476562 204.875 C 259.476562 205.601562 258.890625 206.1875 258.164062 206.1875 C 257.441406 206.1875 256.855469 205.601562 256.855469 204.875 C 256.855469 204.148438 257.441406 203.5625 258.164062 203.5625 C 258.890625 203.5625 259.476562 204.148438 259.476562 204.875 Z M 259.476562 204.875 "/>
<path style=" stroke:none;fill-rule:nonzero;fill:rgb(32.54902%,32.941176%,38.039216%);fill-opacity:1;" d="M 263.957031 204.734375 C 263.957031 205.445312 263.378906 206.023438 262.667969 206.023438 C 261.957031 206.023438 261.378906 205.445312 261.378906 204.734375 C 261.378906 204.019531 261.957031 203.445312 262.667969 203.445312 C 263.378906 203.445312 263.957031 204.019531 263.957031 204.734375 Z M 263.957031 204.734375 "/>
<path style=" stroke:none;fill-rule:nonzero;fill:rgb(32.54902%,32.941176%,38.039216%);fill-opacity:1;" d="M 253.011719 201.835938 C 253.011719 202.546875 252.4375 203.125 251.726562 203.125 C 251.011719 203.125 250.4375 202.546875 250.4375 201.835938 C 250.4375 201.121094 251.011719 200.542969 251.726562 200.542969 C 252.4375 200.542969 253.011719 201.121094 253.011719 201.835938 Z M 253.011719 201.835938 "/>
<path style=" stroke:none;fill-rule:nonzero;fill:rgb(32.54902%,32.941176%,38.039216%);fill-opacity:1;" d="M 257.179688 201.921875 C 257.179688 202.644531 256.59375 203.234375 255.871094 203.234375 C 255.144531 203.234375 254.558594 202.644531 254.558594 201.921875 C 254.558594 201.195312 255.144531 200.605469 255.871094 200.605469 C 256.59375 200.605469 257.179688 201.195312 257.179688 201.921875 Z M 257.179688 201.921875 "/>
<path style=" stroke:none;fill-rule:nonzero;fill:rgb(32.54902%,32.941176%,38.039216%);fill-opacity:1;" d="M 261.445312 201.921875 C 261.445312 202.644531 260.855469 203.234375 260.132812 203.234375 C 259.410156 203.234375 258.820312 202.644531 258.820312 201.921875 C 258.820312 201.195312 259.410156 200.605469 260.132812 200.605469 C 260.855469 200.605469 261.445312 201.195312 261.445312 201.921875 Z M 261.445312 201.921875 "/>
<path style=" stroke:none;fill-rule:nonzero;fill:rgb(32.54902%,32.941176%,38.039216%);fill-opacity:1;" d="M 265.886719 201.835938 C 265.886719 202.546875 265.3125 203.125 264.597656 203.125 C 263.886719 203.125 263.308594 202.546875 263.308594 201.835938 C 263.308594 201.121094 263.886719 200.542969 264.597656 200.542969 C 265.3125 200.542969 265.886719 201.121094 265.886719 201.835938 Z M 265.886719 201.835938 "/>
<path style=" stroke:none;fill-rule:nonzero;fill:rgb(32.54902%,32.941176%,38.039216%);fill-opacity:1;" d="M 259.476562 198.636719 C 259.476562 199.363281 258.890625 199.949219 258.164062 199.949219 C 257.441406 199.949219 256.855469 199.363281 256.855469 198.636719 C 256.855469 197.910156 257.441406 197.324219 258.164062 197.324219 C 258.890625 197.324219 259.476562 197.910156 259.476562 198.636719 Z M 259.476562 198.636719 "/>
<path style=" stroke:none;fill-rule:nonzero;fill:rgb(32.54902%,32.941176%,38.039216%);fill-opacity:1;" d="M 264.066406 198.636719 C 264.066406 199.363281 263.480469 199.949219 262.757812 199.949219 C 262.03125 199.949219 261.445312 199.363281 261.445312 198.636719 C 261.445312 197.910156 262.03125 197.324219 262.757812 197.324219 C 263.480469 197.324219 264.066406 197.910156 264.066406 198.636719 Z M 264.066406 198.636719 "/>
<path style=" stroke:none;fill-rule:nonzero;fill:rgb(32.54902%,32.941176%,38.039216%);fill-opacity:1;" d="M 267.820312 198.609375 C 267.820312 199.324219 267.242188 199.902344 266.53125 199.902344 C 265.820312 199.902344 265.242188 199.324219 265.242188 198.609375 C 265.242188 197.898438 265.820312 197.320312 266.53125 197.320312 C 267.242188 197.320312 267.820312 197.898438 267.820312 198.609375 Z M 267.820312 198.609375 "/>
<path style=" stroke:none;fill-rule:nonzero;fill:rgb(32.54902%,32.941176%,38.039216%);fill-opacity:1;" d="M 209.46875 155.472656 C 208.203125 155.472656 207.179688 156.5 207.179688 157.761719 L 207.179688 164.65625 C 207.179688 165.921875 208.203125 166.945312 209.46875 166.949219 L 211.105469 166.949219 C 212.371094 166.945312 213.394531 165.921875 213.394531 164.65625 L 213.394531 157.761719 C 213.394531 156.5 212.371094 155.472656 211.105469 155.472656 Z M 209.46875 155.472656 "/>
<path style=" stroke:none;fill-rule:nonzero;fill:rgb(32.54902%,32.941176%,38.039216%);fill-opacity:1;" d="M 305.222656 155.472656 C 303.960938 155.472656 302.9375 156.5 302.933594 157.761719 L 302.933594 164.65625 C 302.9375 165.921875 303.960938 166.945312 305.222656 166.949219 L 306.863281 166.949219 C 308.125 166.945312 309.148438 165.921875 309.152344 164.65625 L 309.152344 157.761719 C 309.148438 156.5 308.125 155.472656 306.863281 155.472656 Z M 305.222656 155.472656 "/>
<path style=" stroke:none;fill-rule:nonzero;fill:rgb(90.196078%,90.196078%,90.196078%);fill-opacity:1;" d="M 340.476562 167.449219 C 340.476562 171.800781 336.953125 175.328125 332.605469 175.328125 C 328.257812 175.328125 324.734375 171.800781 324.734375 167.449219 C 324.734375 163.097656 328.257812 159.570312 332.605469 159.570312 C 336.953125 159.570312 340.476562 163.097656 340.476562 167.449219 Z M 340.476562 167.449219 "/>
<path style=" stroke:none;fill-rule:nonzero;fill:rgb(90.196078%,90.196078%,90.196078%);fill-opacity:1;" d="M 323.75 184.191406 C 323.75 188.542969 320.226562 192.070312 315.882812 192.070312 C 311.535156 192.070312 308.011719 188.542969 308.011719 184.191406 C 308.011719 179.839844 311.535156 176.3125 315.882812 176.3125 C 320.226562 176.3125 323.75 179.839844 323.75 184.191406 Z M 323.75 184.191406 "/>
<path style=" stroke:none;fill-rule:nonzero;fill:rgb(90.196078%,90.196078%,90.196078%);fill-opacity:1;" d="M 357.855469 183.207031 C 357.855469 187.558594 354.332031 191.085938 349.984375 191.085938 C 345.640625 191.085938 342.117188 187.558594 342.117188 183.207031 C 342.117188 178.855469 345.640625 175.328125 349.984375 175.328125 C 354.332031 175.328125 357.855469 178.855469 357.855469 183.207031 Z M 357.855469 183.207031 "/>
<path style=" stroke:none;fill-rule:nonzero;fill:rgb(90.196078%,90.196078%,90.196078%);fill-opacity:1;" d="M 341.789062 200.605469 C 341.789062 204.957031 338.265625 208.484375 333.917969 208.484375 C 329.570312 208.484375 326.046875 204.957031 326.046875 200.605469 C 326.046875 196.253906 329.570312 192.726562 333.917969 192.726562 C 338.265625 192.726562 341.789062 196.253906 341.789062 200.605469 Z M 341.789062 200.605469 "/>
<path style=" stroke:none;fill-rule:nonzero;fill:rgb(32.54902%,32.941176%,38.039216%);fill-opacity:1;" d="M 224.304688 150.875 C 220.644531 150.882812 217.675781 153.851562 217.671875 157.515625 L 217.671875 186.898438 C 217.675781 190.566406 220.644531 193.535156 224.304688 193.539062 L 291.695312 193.539062 C 295.359375 193.535156 298.324219 190.566406 298.328125 186.898438 L 298.328125 157.515625 C 298.324219 153.851562 295.359375 150.882812 291.695312 150.875 Z M 224.304688 150.875 "/>
<path style=" stroke:none;fill-rule:nonzero;fill:rgb(32.54902%,32.941176%,38.039216%);fill-opacity:1;" d="M 337.953125 171.058594 L 327.28125 171.058594 L 332.433594 162.21875 Z M 328.421875 170.402344 L 336.769531 170.402344 L 332.449219 163.488281 Z M 328.421875 170.402344 "/>
<path style=" stroke:none;fill-rule:nonzero;fill:rgb(32.54902%,32.941176%,38.039216%);fill-opacity:1;" d="M 320.308594 188.132812 L 311.453125 188.132812 L 311.453125 180.253906 L 320.308594 180.253906 Z M 312.109375 187.476562 L 319.652344 187.476562 L 319.652344 180.910156 L 312.109375 180.910156 Z M 312.109375 187.476562 "/>
<path style=" stroke:none;fill-rule:nonzero;fill:rgb(32.54902%,32.941176%,38.039216%);fill-opacity:1;" d="M 349.984375 188.132812 C 347.269531 188.132812 345.066406 185.925781 345.066406 183.207031 C 345.066406 180.488281 347.269531 178.28125 349.984375 178.28125 C 352.703125 178.28125 354.90625 180.488281 354.90625 183.207031 C 354.902344 185.925781 352.699219 188.128906 349.984375 188.132812 Z M 349.984375 178.9375 C 347.632812 178.9375 345.722656 180.851562 345.722656 183.207031 C 345.722656 185.5625 347.632812 187.476562 349.984375 187.476562 C 352.339844 187.476562 354.25 185.5625 354.25 183.207031 C 354.246094 180.851562 352.339844 178.941406 349.984375 178.9375 Z M 349.984375 178.9375 "/>
<path style=" stroke:none;fill-rule:nonzero;fill:rgb(32.54902%,32.941176%,38.039216%);fill-opacity:1;" d="M 329.914062 197.144531 L 330.378906 196.679688 L 337.757812 204.066406 L 337.292969 204.53125 Z M 329.914062 197.144531 "/>
<path style=" stroke:none;fill-rule:nonzero;fill:rgb(32.54902%,32.941176%,38.039216%);fill-opacity:1;" d="M 329.917969 203.898438 L 337.460938 196.675781 L 337.914062 197.148438 L 330.375 204.375 Z M 329.917969 203.898438 "/>
<path style=" stroke:none;fill-rule:nonzero;fill:rgb(18.431373%,18.039216%,25.490196%);fill-opacity:1;" d="M 69.707031 75.855469 C 51.800781 80.800781 32.195312 84.519531 25.167969 78.746094 C 29.015625 72.335938 31.234375 66.019531 31.421875 59.8125 C 31.464844 56.976562 32.613281 54.265625 34.625 52.261719 C 37.320312 49.65625 41.0625 48.4375 44.777344 48.960938 L 49.421875 49.613281 C 49.578125 49.636719 49.734375 49.660156 49.890625 49.6875 C 54.460938 50.554688 57.976562 54.242188 58.625 58.855469 C 59.605469 65.582031 62.898438 71.40625 69.707031 75.855469 Z M 69.707031 75.855469 "/>
<path style=" stroke:none;fill-rule:nonzero;fill:rgb(62.745098%,38.039216%,41.568627%);fill-opacity:1;" d="M 86.976562 139.679688 L 93.9375 141.117188 C 95.015625 141.339844 95.933594 142.035156 96.441406 143.011719 C 96.949219 143.984375 96.992188 145.140625 96.558594 146.148438 C 96.136719 147.125 95.316406 147.871094 94.300781 148.191406 C 93.289062 148.511719 92.1875 148.375 91.285156 147.820312 L 80.636719 141.261719 L 62.550781 98.699219 L 71.917969 95.988281 Z M 86.976562 139.679688 "/>
<path style=" stroke:none;fill-rule:nonzero;fill:rgb(62.745098%,38.039216%,41.568627%);fill-opacity:1;" d="M 37.390625 195.53125 L 32.121094 197.066406 L 28.132812 188.816406 L 32.1875 186.699219 Z M 37.390625 195.53125 "/>
<path style=" stroke:none;fill-rule:nonzero;fill:rgb(62.745098%,38.039216%,41.568627%);fill-opacity:1;" d="M 34.714844 230.871094 L 28.246094 229.15625 L 29.261719 218.035156 L 34.824219 218.378906 Z M 34.714844 230.871094 "/>
<path style=" stroke:none;fill-rule:nonzero;fill:rgb(18.431373%,18.039216%,25.490196%);fill-opacity:1;" d="M 35.386719 187.820312 L 28.539062 192.332031 L 2.195312 162.5 C 1.039062 161.191406 0.527344 159.433594 0.792969 157.707031 C 1.0625 155.976562 2.085938 154.460938 3.585938 153.5625 L 36.398438 133.933594 L 41.425781 148.386719 L 24.339844 164.441406 Z M 35.386719 187.820312 "/>
<path style=" stroke:none;fill-rule:nonzero;fill:rgb(18.431373%,18.039216%,25.490196%);fill-opacity:1;" d="M 41.15625 203.433594 C 41.140625 203.457031 41.121094 203.480469 41.105469 203.5 C 40.667969 206.066406 39.898438 208.40625 38.179688 210.101562 C 37.128906 212.480469 34.457031 213.6875 31.976562 212.90625 C 29.648438 212.171875 28.164062 209.890625 28.433594 207.460938 L 29.714844 196.007812 C 32.785156 195.300781 35.125 193.554688 36.3125 190.152344 L 39.292969 192.1875 C 41.078125 193.394531 42.289062 195.28125 42.640625 197.410156 C 42.992188 199.535156 42.457031 201.714844 41.15625 203.433594 Z M 41.15625 203.433594 "/>
<path style=" stroke:none;fill-rule:nonzero;fill:rgb(62.745098%,38.039216%,41.568627%);fill-opacity:1;" d="M 54.945312 62.851562 C 54.945312 68.679688 50.226562 73.40625 44.402344 73.40625 C 38.582031 73.40625 33.863281 68.679688 33.863281 62.851562 C 33.863281 57.023438 38.582031 52.296875 44.402344 52.296875 C 50.226562 52.296875 54.945312 57.023438 54.945312 62.851562 Z M 54.945312 62.851562 "/>
<path style=" stroke:none;fill-rule:nonzero;fill:rgb(62.745098%,38.039216%,41.568627%);fill-opacity:1;" d="M 53.53125 79.722656 L 36.914062 93.5 L 35.621094 87.828125 L 38.519531 83.402344 C 39.324219 79.058594 38.804688 74.269531 37.421875 69.191406 L 48.265625 69.199219 C 48.734375 73.304688 50.328125 76.886719 53.53125 79.722656 Z M 53.53125 79.722656 "/>
<path style=" stroke:none;fill-rule:nonzero;fill:rgb(38.823529%,59.607843%,100%);fill-opacity:1;" d="M 58.210938 115.867188 L 35.777344 122.707031 L 34.03125 114.71875 C 29.824219 109.070312 27.996094 103.910156 30.75 99.699219 L 29.363281 93.367188 C 33.335938 90.234375 36.457031 87.03125 38.171875 83.710938 L 51.976562 78.308594 L 62.125 78.933594 L 65.121094 88.988281 Z M 58.210938 115.867188 "/>
<path style=" stroke:none;fill-rule:nonzero;fill:rgb(38.823529%,59.607843%,100%);fill-opacity:1;" d="M 74.152344 97.109375 C 69.367188 97.058594 64.6875 98.496094 60.753906 101.21875 L 62.125 78.933594 C 64.953125 79.3125 67.371094 81.15625 68.488281 83.785156 Z M 74.152344 97.109375 "/>
<path style=" stroke:none;fill-rule:nonzero;fill:rgb(18.431373%,18.039216%,25.490196%);fill-opacity:1;" d="M 35.316406 221.039062 L 28.195312 219.285156 L 29.246094 158.710938 L 38.808594 148.226562 L 36.667969 134.933594 L 35.28125 120.046875 L 58.640625 114.25 C 66.535156 128.601562 71.304688 141.648438 64.339844 149.796875 Z M 35.316406 221.039062 "/>
<path style=" stroke:none;fill-rule:nonzero;fill:rgb(18.431373%,18.039216%,25.490196%);fill-opacity:1;" d="M 33.683594 241.492188 C 33.652344 241.503906 33.617188 241.519531 33.585938 241.53125 C 31.519531 243.933594 29.246094 245.894531 26.390625 246.582031 C 23.796875 248.402344 20.25 247.984375 18.152344 245.609375 C 16.179688 243.375 16.0625 240.058594 17.871094 237.691406 L 26.398438 226.539062 C 30.046875 227.734375 33.589844 227.382812 36.960938 224.578125 L 38.800781 228.578125 C 39.90625 230.960938 39.984375 233.695312 39.015625 236.136719 C 38.046875 238.578125 36.121094 240.515625 33.683594 241.492188 Z M 33.683594 241.492188 "/>
<path style=" stroke:none;fill-rule:nonzero;fill:rgb(62.745098%,38.039216%,41.568627%);fill-opacity:1;" d="M 7.667969 146.964844 L 1.417969 152.324219 C 0.363281 153.226562 -0.15625 154.605469 0.0429688 155.984375 C 0.238281 157.359375 1.125 158.539062 2.386719 159.109375 C 4.332031 159.988281 6.625 159.207031 7.632812 157.328125 L 12.152344 148.886719 L 32.878906 111.015625 L 25.082031 109.550781 Z M 7.667969 146.964844 "/>
<path style=" stroke:none;fill-rule:nonzero;fill:rgb(38.823529%,59.607843%,100%);fill-opacity:1;" d="M 34.128906 112.082031 C 30.078125 110.855469 26.289062 110.136719 23.347656 111.085938 C 23.964844 103.449219 25.234375 96.625 29.363281 93.367188 L 35.238281 94.054688 Z M 34.128906 112.082031 "/>
<path style=" stroke:none;fill-rule:nonzero;fill:rgb(18.431373%,18.039216%,25.490196%);fill-opacity:1;" d="M 56.171875 60.402344 L 33.625 59.015625 L 33.902344 54.5 C 41.773438 49.1875 49.289062 49.648438 56.449219 55.890625 Z M 56.171875 60.402344 "/>
</g>
</svg>
