<?xml version="1.0" encoding="UTF-8"?>
<svg xmlns="http://www.w3.org/2000/svg" xmlns:xlink="http://www.w3.org/1999/xlink" width="439pt" height="320pt" viewBox="0 0 439 320" version="1.1">
<defs>
<filter id="alpha" filterUnits="objectBoundingBox" x="0%" y="0%" width="100%" height="100%">
  <feColorMatrix type="matrix" in="SourceGraphic" values="0 0 0 0 1 0 0 0 0 1 0 0 0 0 1 0 0 0 1 0"/>
</filter>
<mask id="mask0">
  <g filter="url(#alpha)">
<rect x="0" y="0" width="439" height="320" style="fill:rgb(0%,0%,0%);fill-opacity:0.101961;stroke:none;"/>
  </g>
</mask>
<clipPath id="clip1">
  <rect x="0" y="0" width="439" height="320"/>
</clipPath>
<g id="surface5" clip-path="url(#clip1)">
<path style=" stroke:none;fill-rule:nonzero;fill:rgb(0%,0%,0%);fill-opacity:1;" d="M 306.847656 306.789062 L 266.59375 315.03125 L 265.675781 314.9375 L 265.675781 268.957031 L 305.03125 263.054688 Z M 306.847656 306.789062 "/>
</g>
<mask id="mask1">
  <g filter="url(#alpha)">
<rect x="0" y="0" width="439" height="320" style="fill:rgb(0%,0%,0%);fill-opacity:0.0509804;stroke:none;"/>
  </g>
</mask>
<clipPath id="clip2">
  <rect x="0" y="0" width="439" height="320"/>
</clipPath>
<g id="surface8" clip-path="url(#clip2)">
<path style=" stroke:none;fill-rule:nonzero;fill:rgb(0%,0%,0%);fill-opacity:1;" d="M 305.03125 263.148438 L 305.019531 263.160156 L 265.675781 268.957031 L 230.296875 266.515625 L 273.605469 259.191406 L 305.019531 262.855469 L 305.03125 263.054688 Z M 305.03125 263.148438 "/>
</g>
<mask id="mask2">
  <g filter="url(#alpha)">
<rect x="0" y="0" width="439" height="320" style="fill:rgb(0%,0%,0%);fill-opacity:0.101961;stroke:none;"/>
  </g>
</mask>
<clipPath id="clip3">
  <rect x="0" y="0" width="439" height="320"/>
</clipPath>
<g id="surface11" clip-path="url(#clip3)">
<path style=" stroke:none;fill-rule:nonzero;fill:rgb(0%,0%,0%);fill-opacity:1;" d="M 361.410156 306.789062 L 321.15625 315.03125 L 320.238281 314.9375 L 320.238281 268.957031 L 359.59375 263.054688 Z M 361.410156 306.789062 "/>
</g>
<mask id="mask3">
  <g filter="url(#alpha)">
<rect x="0" y="0" width="439" height="320" style="fill:rgb(0%,0%,0%);fill-opacity:0.0509804;stroke:none;"/>
  </g>
</mask>
<clipPath id="clip4">
  <rect x="0" y="0" width="439" height="320"/>
</clipPath>
<g id="surface14" clip-path="url(#clip4)">
<path style=" stroke:none;fill-rule:nonzero;fill:rgb(0%,0%,0%);fill-opacity:1;" d="M 359.59375 263.148438 L 359.582031 263.160156 L 320.238281 268.957031 L 284.859375 266.515625 L 328.167969 259.191406 L 359.582031 262.855469 L 359.59375 263.054688 Z M 359.59375 263.148438 "/>
</g>
<mask id="mask4">
  <g filter="url(#alpha)">
<rect x="0" y="0" width="439" height="320" style="fill:rgb(0%,0%,0%);fill-opacity:0.101961;stroke:none;"/>
  </g>
</mask>
<clipPath id="clip5">
  <rect x="0" y="0" width="439" height="320"/>
</clipPath>
<g id="surface17" clip-path="url(#clip5)">
<path style=" stroke:none;fill-rule:nonzero;fill:rgb(0%,0%,0%);fill-opacity:1;" d="M 439 242.1875 L 398.742188 250.429688 L 397.824219 250.335938 L 397.824219 204.355469 L 437.183594 198.453125 Z M 439 242.1875 "/>
</g>
<mask id="mask5">
  <g filter="url(#alpha)">
<rect x="0" y="0" width="439" height="320" style="fill:rgb(0%,0%,0%);fill-opacity:0.0509804;stroke:none;"/>
  </g>
</mask>
<clipPath id="clip6">
  <rect x="0" y="0" width="439" height="320"/>
</clipPath>
<g id="surface20" clip-path="url(#clip6)">
<path style=" stroke:none;fill-rule:nonzero;fill:rgb(0%,0%,0%);fill-opacity:1;" d="M 437.183594 198.546875 L 437.171875 198.558594 L 397.824219 204.355469 L 362.449219 201.914062 L 405.753906 194.589844 L 437.171875 198.253906 L 437.183594 198.453125 Z M 437.183594 198.546875 "/>
</g>
</defs>
<g id="surface1">
<path style=" stroke:none;fill-rule:nonzero;fill:rgb(90.196078%,90.196078%,90.196078%);fill-opacity:1;" d="M 0.136719 0.183594 L 322.867188 0.183594 L 322.867188 206.960938 L 0.136719 206.960938 Z M 0.136719 0.183594 "/>
<path style=" stroke:none;fill-rule:nonzero;fill:rgb(100%,100%,100%);fill-opacity:1;" d="M 9.367188 26.117188 L 313.640625 26.117188 L 313.640625 194.726562 L 9.367188 194.726562 Z M 9.367188 26.117188 "/>
<path style=" stroke:none;fill-rule:nonzero;fill:rgb(38.823529%,59.607843%,100%);fill-opacity:1;" d="M 0 0 L 322.730469 0 L 322.730469 13.714844 L 0 13.714844 Z M 0 0 "/>
<path style=" stroke:none;fill-rule:nonzero;fill:rgb(100%,100%,100%);fill-opacity:1;" d="M 12.730469 7.011719 C 12.730469 8.417969 11.59375 9.554688 10.1875 9.554688 C 8.785156 9.554688 7.648438 8.417969 7.648438 7.011719 C 7.648438 5.609375 8.785156 4.46875 10.1875 4.46875 C 11.59375 4.46875 12.730469 5.609375 12.730469 7.011719 Z M 12.730469 7.011719 "/>
<path style=" stroke:none;fill-rule:nonzero;fill:rgb(100%,100%,100%);fill-opacity:1;" d="M 22.375 7.011719 C 22.375 8.417969 21.238281 9.554688 19.835938 9.554688 C 18.429688 9.554688 17.292969 8.417969 17.292969 7.011719 C 17.292969 5.609375 18.429688 4.46875 19.835938 4.46875 C 21.238281 4.46875 22.375 5.609375 22.375 7.011719 Z M 22.375 7.011719 "/>
<path style=" stroke:none;fill-rule:nonzero;fill:rgb(100%,100%,100%);fill-opacity:1;" d="M 32.019531 7.011719 C 32.019531 8.417969 30.882812 9.554688 29.480469 9.554688 C 28.078125 9.554688 26.9375 8.417969 26.9375 7.011719 C 26.9375 5.609375 28.078125 4.46875 29.480469 4.46875 C 30.882812 4.46875 32.019531 5.609375 32.019531 7.011719 Z M 32.019531 7.011719 "/>
<path style=" stroke:none;fill-rule:nonzero;fill:rgb(90.196078%,90.196078%,90.196078%);fill-opacity:1;" d="M 46.804688 39.984375 L 106.316406 39.984375 L 106.316406 104.578125 L 46.804688 104.578125 Z M 46.804688 39.984375 "/>
<path style=" stroke:none;fill-rule:nonzero;fill:rgb(90.196078%,90.196078%,90.196078%);fill-opacity:1;" d="M 131.746094 39.984375 L 191.257812 39.984375 L 191.257812 104.578125 L 131.746094 104.578125 Z M 131.746094 39.984375 "/>
<path style=" stroke:none;fill-rule:nonzero;fill:rgb(90.196078%,90.196078%,90.196078%);fill-opacity:1;" d="M 216.6875 39.984375 L 276.199219 39.984375 L 276.199219 104.578125 L 216.6875 104.578125 Z M 216.6875 39.984375 "/>
<path style=" stroke:none;fill-rule:nonzero;fill:rgb(90.196078%,90.196078%,90.196078%);fill-opacity:1;" d="M 46.804688 116.269531 L 106.316406 116.269531 L 106.316406 180.863281 L 46.804688 180.863281 Z M 46.804688 116.269531 "/>
<path style=" stroke:none;fill-rule:nonzero;fill:rgb(90.196078%,90.196078%,90.196078%);fill-opacity:1;" d="M 131.746094 116.269531 L 191.257812 116.269531 L 191.257812 180.863281 L 131.746094 180.863281 Z M 131.746094 116.269531 "/>
<path style=" stroke:none;fill-rule:nonzero;fill:rgb(90.196078%,90.196078%,90.196078%);fill-opacity:1;" d="M 216.6875 116.269531 L 276.199219 116.269531 L 276.199219 180.863281 L 216.6875 180.863281 Z M 216.6875 116.269531 "/>
<path style=" stroke:none;fill-rule:nonzero;fill:rgb(100%,100%,100%);fill-opacity:1;" d="M 146.128906 132.871094 L 157.003906 128.570312 L 158.269531 150.074219 C 158.269531 150.074219 160.542969 156.648438 159.785156 159.179688 C 159.785156 159.179688 160.289062 163.480469 159.027344 163.734375 C 157.761719 163.984375 154.222656 164.492188 153.96875 164.238281 C 153.714844 163.984375 153.714844 163.226562 153.714844 163.226562 C 153.714844 163.226562 151.1875 165 150.933594 167.023438 C 150.933594 167.023438 140.3125 170.3125 140.0625 167.273438 C 139.808594 164.238281 145.371094 161.710938 145.371094 161.710938 L 149.671875 155.132812 Z M 146.128906 132.871094 "/>
<path style=" stroke:none;fill-rule:nonzero;fill:rgb(100%,100%,100%);fill-opacity:1;" d="M 169.140625 132.871094 L 180.015625 128.570312 L 181.277344 150.074219 C 181.277344 150.074219 183.554688 156.648438 182.796875 159.179688 C 182.796875 159.179688 183.300781 163.480469 182.039062 163.734375 C 180.773438 163.984375 177.234375 164.492188 176.980469 164.238281 C 176.726562 163.984375 176.726562 163.226562 176.726562 163.226562 C 176.726562 163.226562 174.199219 165 173.945312 167.023438 C 173.945312 167.023438 163.324219 170.3125 163.074219 167.273438 C 162.820312 164.238281 168.382812 161.710938 168.382812 161.710938 L 172.679688 155.132812 Z M 169.140625 132.871094 "/>
<path style=" stroke:none;fill-rule:nonzero;fill:rgb(24.705882%,23.921569%,33.72549%);fill-opacity:1;" d="M 170.203125 49.832031 C 170.203125 49.832031 167.890625 56.304688 170.574219 59.222656 L 168.335938 66.910156 C 168.335938 66.910156 176.28125 90.761719 174.011719 94.089844 C 174.011719 94.089844 165.535156 98.332031 148.585938 92.578125 L 155.472656 65.851562 L 154.488281 54.570312 L 155.847656 49.273438 L 158.875 48.96875 C 158.875 48.96875 157.058594 55.78125 160.390625 56.84375 C 163.71875 57.902344 166.96875 49.140625 166.96875 49.140625 Z M 170.203125 49.832031 "/>
<path style=" stroke:none;fill-rule:nonzero;fill:rgb(100%,100%,100%);fill-opacity:1;" d="M 63.28125 91.613281 L 66.203125 92.808594 L 80.148438 74.472656 L 84.53125 96 L 87.453125 95.464844 C 89.328125 76.910156 90.855469 57.984375 88.980469 49.03125 L 78.15625 48.566406 L 73.242188 64.242188 L 70.851562 74.871094 Z M 63.28125 91.613281 "/>
<path style=" stroke:none;fill-rule:nonzero;fill:rgb(100%,100%,100%);fill-opacity:1;" d="M 240.613281 48.882812 C 240.613281 48.882812 236.625 54.429688 236.820312 56.667969 C 237.015625 58.902344 239.542969 95.390625 239.542969 95.390625 L 245.476562 95.683594 L 243.726562 69.410156 L 245.183594 62.308594 L 248.78125 95.390625 L 256.078125 95.585938 L 249.558594 52.675781 L 248.296875 48.882812 Z M 240.613281 48.882812 "/>
<path style=" stroke:none;fill-rule:nonzero;fill:rgb(24.705882%,23.921569%,33.72549%);fill-opacity:1;" d="M 263.148438 138.226562 C 262.089844 136.953125 260.269531 136.265625 258.523438 135.894531 C 258.574219 135.734375 253.207031 134.628906 253.117188 134.855469 L 251.09375 133.242188 L 244.878906 136.472656 L 241.386719 134.09375 L 239.765625 134.667969 C 239.832031 134.382812 234.730469 135.265625 234.730469 135.265625 C 233.753906 135.300781 232.511719 135.363281 231.117188 135.472656 C 226.238281 135.847656 225.859375 148.488281 225.859375 148.488281 C 228.105469 147.570312 230.5 147.070312 232.925781 147.011719 L 234.246094 162.136719 C 241.027344 161.550781 248.144531 162.230469 255.515625 163.886719 L 258.976562 152 L 267.027344 148.867188 C 267.027344 148.867188 265.652344 141.230469 263.148438 138.226562 Z M 263.148438 138.226562 "/>
<path style=" stroke:none;fill-rule:nonzero;fill:rgb(100%,100%,100%);fill-opacity:1;" d="M 90.324219 131.023438 C 89.449219 129.976562 87.953125 129.410156 86.511719 129.105469 C 86.554688 128.972656 82.132812 128.058594 82.058594 128.246094 L 80.390625 126.917969 L 75.269531 129.578125 L 72.394531 127.621094 L 71.054688 128.09375 C 71.109375 127.859375 66.90625 128.585938 66.90625 128.585938 C 66.101562 128.617188 65.078125 128.667969 63.929688 128.753906 C 59.90625 129.0625 59.597656 139.480469 59.597656 139.480469 C 61.449219 138.726562 63.421875 138.3125 65.417969 138.261719 L 66.507812 168.765625 C 72.097656 168.289062 77.960938 168.847656 84.035156 170.210938 L 86.882812 142.375 L 93.519531 139.792969 C 93.519531 139.792969 92.386719 133.5 90.324219 131.023438 Z M 90.324219 131.023438 "/>
<path style=" stroke:none;fill-rule:nonzero;fill:rgb(90.196078%,90.196078%,90.196078%);fill-opacity:1;" d="M 306.847656 306.789062 L 266.59375 315.03125 L 265.675781 314.9375 L 230.296875 311.367188 L 230.296875 266.515625 L 273.605469 259.191406 L 305.019531 262.855469 L 305.03125 263.054688 L 305.03125 263.148438 Z M 306.847656 306.789062 "/>
<use xlink:href="#surface5" mask="url(#mask0)"/>
<use xlink:href="#surface8" mask="url(#mask1)"/>
<path style=" stroke:none;fill-rule:nonzero;fill:rgb(100%,100%,100%);fill-opacity:1;" d="M 235.167969 282.167969 L 259.644531 283.765625 L 258.894531 295.257812 L 234.417969 293.660156 Z M 235.167969 282.167969 "/>
<path style=" stroke:none;fill-rule:nonzero;fill:rgb(38.823529%,59.607843%,100%);fill-opacity:1;" d="M 240.667969 286.289062 L 253.65625 287.136719 L 253.394531 291.136719 L 240.40625 290.289062 Z M 240.667969 286.289062 "/>
<path style=" stroke:none;fill-rule:nonzero;fill:rgb(38.823529%,59.607843%,100%);fill-opacity:1;" d="M 361.410156 306.789062 L 321.15625 315.03125 L 320.238281 314.9375 L 284.859375 311.367188 L 284.859375 266.515625 L 328.167969 259.191406 L 359.582031 262.855469 L 359.59375 263.054688 L 359.59375 263.148438 Z M 361.410156 306.789062 "/>
<use xlink:href="#surface11" mask="url(#mask2)"/>
<use xlink:href="#surface14" mask="url(#mask3)"/>
<path style=" stroke:none;fill-rule:nonzero;fill:rgb(100%,100%,100%);fill-opacity:1;" d="M 289.730469 282.167969 L 314.207031 283.765625 L 313.457031 295.257812 L 288.980469 293.660156 Z M 289.730469 282.167969 "/>
<path style=" stroke:none;fill-rule:nonzero;fill:rgb(38.823529%,59.607843%,100%);fill-opacity:1;" d="M 295.230469 286.289062 L 308.21875 287.136719 L 307.957031 291.136719 L 294.96875 290.289062 Z M 295.230469 286.289062 "/>
<path style=" stroke:none;fill-rule:nonzero;fill:rgb(100%,72.156863%,72.156863%);fill-opacity:1;" d="M 390.542969 82.941406 C 390.542969 82.941406 397.644531 101.296875 384.625 101.296875 C 371.601562 101.296875 404.746094 119.652344 417.769531 108.996094 C 430.792969 98.335938 423.097656 97.742188 423.097656 97.742188 C 423.097656 97.742188 405.933594 99.519531 406.523438 84.125 Z M 390.542969 82.941406 "/>
<path style=" stroke:none;fill-rule:nonzero;fill:rgb(18.431373%,18.039216%,25.490196%);fill-opacity:1;" d="M 420.730469 67.523438 C 420.730469 79.089844 411.355469 88.464844 399.796875 88.464844 C 388.234375 88.464844 378.863281 79.089844 378.863281 67.523438 C 378.863281 55.957031 388.234375 46.582031 399.796875 46.582031 C 411.355469 46.582031 420.730469 55.957031 420.730469 67.523438 Z M 420.730469 67.523438 "/>
<path style=" stroke:none;fill-rule:nonzero;fill:rgb(18.431373%,18.039216%,25.490196%);fill-opacity:1;" d="M 386.992188 159.328125 L 364.5 217.359375 C 364.5 217.359375 353.253906 235.125 357.394531 252.890625 C 361.539062 270.652344 372.925781 302.984375 372.925781 302.984375 C 372.925781 302.984375 381.527344 305.175781 380.933594 297.476562 C 380.34375 289.777344 381.304688 252.457031 372.425781 242.390625 L 408.300781 201.371094 L 409.484375 248.152344 C 409.484375 248.152344 407.117188 269.46875 407.707031 278.945312 C 408.300781 288.417969 409.484375 304.40625 409.484375 304.40625 L 416.585938 303.222656 C 416.585938 303.222656 426.167969 259.609375 424.984375 245.394531 C 424.984375 245.394531 446.976562 176.34375 424.484375 159.761719 Z M 386.992188 159.328125 "/>
<path style=" stroke:none;fill-rule:nonzero;fill:rgb(18.431373%,18.039216%,25.490196%);fill-opacity:1;" d="M 375.398438 302.890625 C 375.398438 302.890625 372.5 302.152344 372.167969 304.808594 C 371.832031 307.464844 365.742188 319.28125 372.101562 319.875 C 378.460938 320.464844 380.660156 314.515625 381.726562 310.328125 C 382.792969 306.144531 383.195312 305.902344 384.085938 305.101562 C 384.976562 304.300781 387.089844 299.90625 384.433594 299.574219 C 381.78125 299.238281 380.417969 296.625 380.417969 296.625 C 380.417969 296.625 379.582031 303.953125 375.398438 302.890625 Z M 375.398438 302.890625 "/>
<path style=" stroke:none;fill-rule:nonzero;fill:rgb(18.431373%,18.039216%,25.490196%);fill-opacity:1;" d="M 414.121094 300.835938 C 414.121094 300.835938 408.75 300.066406 409.132812 301.984375 C 409.515625 303.90625 408.367188 311.964844 409.132812 312.730469 C 409.898438 313.5 411.433594 315.035156 411.433594 316.1875 C 411.433594 317.335938 411.816406 321.175781 418.339844 320.023438 C 424.863281 318.875 423.328125 313.117188 422.945312 312.347656 C 422.558594 311.582031 417.957031 307.742188 418.339844 305.441406 C 418.722656 303.136719 416.421875 299.300781 414.121094 300.835938 Z M 414.121094 300.835938 "/>
<path style=" stroke:none;fill-rule:nonzero;fill:rgb(100%,72.156863%,72.156863%);fill-opacity:1;" d="M 414.554688 76.257812 C 414.554688 84.269531 408.0625 90.761719 400.054688 90.761719 C 392.046875 90.761719 385.554688 84.269531 385.554688 76.257812 C 385.554688 68.246094 392.046875 61.75 400.054688 61.75 C 408.0625 61.75 414.554688 68.246094 414.554688 76.257812 Z M 414.554688 76.257812 "/>
<path style=" stroke:none;fill-rule:nonzero;fill:rgb(34.117647%,35.294118%,53.72549%);fill-opacity:1;" d="M 413.921875 96.261719 C 413.921875 96.261719 418.980469 106.273438 403.734375 106.558594 C 399.050781 106.644531 393.476562 103.226562 391.175781 99.144531 C 389.820312 96.734375 389.476562 100.058594 387.285156 99.816406 C 383.136719 99.355469 378.703125 101.078125 374.734375 103.1875 C 373.679688 103.75 373.164062 104.980469 373.511719 106.125 C 376.519531 116.113281 385.113281 164.15625 386.441406 166.773438 C 389.828125 173.453125 426.484375 162.265625 426.484375 162.265625 C 426.988281 144.089844 420.394531 118.664062 431.992188 100.167969 C 426.828125 96.289062 420.226562 94.859375 413.921875 96.261719 Z M 413.921875 96.261719 "/>
<path style=" stroke:none;fill-rule:nonzero;fill:rgb(18.431373%,18.039216%,25.490196%);fill-opacity:1;" d="M 413.613281 65.101562 L 402.988281 59.535156 L 388.320312 61.8125 L 385.285156 75.222656 L 392.839844 74.933594 L 394.949219 70.007812 L 394.949219 74.851562 L 398.4375 74.71875 L 400.460938 66.875 L 401.722656 75.222656 L 414.117188 74.972656 Z M 413.613281 65.101562 "/>
<path style=" stroke:none;fill-rule:nonzero;fill:rgb(18.431373%,18.039216%,25.490196%);fill-opacity:1;" d="M 409.34375 43.640625 C 409.34375 48.308594 405.5625 52.089844 400.898438 52.089844 C 396.230469 52.089844 392.449219 48.308594 392.449219 43.640625 C 392.449219 38.972656 396.230469 35.191406 400.898438 35.191406 C 405.5625 35.191406 409.34375 38.972656 409.34375 43.640625 Z M 409.34375 43.640625 "/>
<path style=" stroke:none;fill-rule:nonzero;fill:rgb(18.431373%,18.039216%,25.490196%);fill-opacity:1;" d="M 390.246094 41.070312 C 390.246094 36.898438 393.289062 33.351562 397.40625 32.714844 C 394.121094 32.210938 390.84375 33.6875 389.039062 36.480469 C 387.230469 39.273438 387.230469 42.867188 389.039062 45.660156 C 390.84375 48.453125 394.121094 49.925781 397.40625 49.421875 C 393.289062 48.789062 390.246094 45.238281 390.246094 41.070312 Z M 390.246094 41.070312 "/>
<path style=" stroke:none;fill-rule:nonzero;fill:rgb(90.196078%,90.196078%,90.196078%);fill-opacity:1;" d="M 439 242.1875 L 398.742188 250.429688 L 397.824219 250.335938 L 362.449219 246.765625 L 362.449219 201.914062 L 405.753906 194.589844 L 437.171875 198.253906 L 437.183594 198.453125 L 437.183594 198.546875 Z M 439 242.1875 "/>
<use xlink:href="#surface17" mask="url(#mask4)"/>
<use xlink:href="#surface20" mask="url(#mask5)"/>
<path style=" stroke:none;fill-rule:nonzero;fill:rgb(100%,100%,100%);fill-opacity:1;" d="M 367.320312 217.566406 L 391.792969 219.164062 L 391.042969 230.660156 L 366.570312 229.058594 Z M 367.320312 217.566406 "/>
<path style=" stroke:none;fill-rule:nonzero;fill:rgb(38.823529%,59.607843%,100%);fill-opacity:1;" d="M 372.820312 221.691406 L 385.804688 222.539062 L 385.546875 226.535156 L 372.558594 225.6875 Z M 372.820312 221.691406 "/>
<path style=" stroke:none;fill-rule:nonzero;fill:rgb(100%,72.156863%,72.156863%);fill-opacity:1;" d="M 376.289062 190.394531 C 376.289062 190.394531 361.492188 202.238281 368.003906 206.382812 C 374.511719 210.527344 382.207031 190.394531 382.207031 190.394531 Z M 376.289062 190.394531 "/>
<path style=" stroke:none;fill-rule:nonzero;fill:rgb(34.117647%,35.294118%,53.72549%);fill-opacity:1;" d="M 376.929688 102.671875 C 376.164062 101.808594 366.484375 106.746094 367.917969 113.1875 L 368.59375 157.824219 C 368.59375 157.824219 365.042969 194.539062 373.921875 194.539062 C 382.800781 194.539062 381.753906 195.773438 382.9375 192.8125 C 384.121094 189.851562 384.4375 164.769531 384.4375 164.769531 Z M 376.929688 102.671875 "/>
<path style=" stroke:none;fill-rule:nonzero;fill:rgb(100%,72.156863%,72.156863%);fill-opacity:1;" d="M 422.707031 186.386719 C 422.707031 186.386719 430.402344 206.523438 436.914062 202.375 C 443.425781 198.230469 428.628906 186.386719 428.628906 186.386719 Z M 422.707031 186.386719 "/>
<path style=" stroke:none;fill-rule:nonzero;fill:rgb(34.117647%,35.294118%,53.72549%);fill-opacity:1;" d="M 424.484375 161.265625 C 424.484375 161.265625 420.796875 185.847656 421.980469 188.808594 C 423.164062 191.769531 422.117188 190.535156 430.996094 190.535156 C 439.875 190.535156 436.324219 153.820312 436.324219 153.820312 L 436.996094 109.183594 C 438.433594 102.742188 428.753906 97.800781 427.988281 98.667969 L 419.476562 127.710938 Z M 424.484375 161.265625 "/>
</g>
</svg>
