<?xml version="1.0" encoding="UTF-8"?>
<svg xmlns="http://www.w3.org/2000/svg" xmlns:xlink="http://www.w3.org/1999/xlink" width="444pt" height="386pt" viewBox="0 0 444 386" version="1.1">
<defs>
<filter id="alpha" filterUnits="objectBoundingBox" x="0%" y="0%" width="100%" height="100%">
  <feColorMatrix type="matrix" in="SourceGraphic" values="0 0 0 0 1 0 0 0 0 1 0 0 0 0 1 0 0 0 1 0"/>
</filter>
<mask id="mask0">
  <g filter="url(#alpha)">
<rect x="0" y="0" width="444" height="386" style="fill:rgb(0%,0%,0%);fill-opacity:0.101961;stroke:none;"/>
  </g>
</mask>
<clipPath id="clip1">
  <rect x="0" y="0" width="444" height="386"/>
</clipPath>
<g id="surface5" clip-path="url(#clip1)">
<path style=" stroke:none;fill-rule:nonzero;fill:rgb(0%,0%,0%);fill-opacity:1;" d="M 70.515625 179.710938 C 70.515625 179.710938 79.898438 160.648438 91.886719 167.101562 C 91.886719 167.101562 79.023438 165.066406 70.515625 179.710938 Z M 70.515625 179.710938 "/>
</g>
</defs>
<g id="surface1">
<path style=" stroke:none;fill-rule:nonzero;fill:rgb(90.196078%,90.196078%,90.196078%);fill-opacity:1;" d="M 257.324219 59.144531 C 257.324219 86.207031 235.386719 108.144531 208.324219 108.144531 C 181.261719 108.144531 159.324219 86.207031 159.324219 59.144531 C 159.324219 32.082031 181.261719 10.144531 208.324219 10.144531 C 235.386719 10.144531 257.324219 32.082031 257.324219 59.144531 Z M 257.324219 59.144531 "/>
<path style=" stroke:none;fill-rule:nonzero;fill:rgb(90.196078%,90.196078%,90.196078%);fill-opacity:1;" d="M 39.339844 377.925781 L 63.25 342.367188 L 39.386719 381.753906 L 39.4375 385.753906 C 37.691406 385.765625 35.964844 385.738281 34.25 385.667969 L 35.4375 334.230469 L 35.40625 333.832031 L 35.449219 333.757812 L 35.5625 328.894531 L 9.375 290.875 L 35.53125 325.257812 L 35.625 326.285156 L 36.519531 287.421875 L 13.902344 248.003906 L 36.585938 280.597656 L 36.347656 200.085938 L 36.347656 199.816406 L 36.355469 200.078125 L 37.855469 263.535156 L 58.472656 237.757812 L 37.925781 269 L 38.375 303.761719 L 57.34375 269.835938 L 38.445312 308.871094 L 38.695312 328.203125 L 66.28125 280.945312 L 38.777344 334.945312 Z M 39.339844 377.925781 "/>
<path style=" stroke:none;fill-rule:nonzero;fill:rgb(62.745098%,38.039216%,41.568627%);fill-opacity:1;" d="M 92.0625 155.910156 L 86.6875 167.601562 L 103.585938 175.027344 C 103.585938 175.027344 104.832031 160.988281 106.597656 159.808594 Z M 92.0625 155.910156 "/>
<path style=" stroke:none;fill-rule:nonzero;fill:rgb(100%,72.54902%,72.54902%);fill-opacity:1;" d="M 112.519531 153.144531 C 112.519531 160.054688 106.917969 165.660156 100.007812 165.660156 C 93.097656 165.660156 87.496094 160.054688 87.496094 153.144531 C 87.496094 146.234375 93.097656 140.632812 100.007812 140.632812 C 106.917969 140.632812 112.519531 146.234375 112.519531 153.144531 Z M 112.519531 153.144531 "/>
<path style=" stroke:none;fill-rule:nonzero;fill:rgb(18.431373%,18.039216%,25.490196%);fill-opacity:1;" d="M 106.960938 146.300781 C 105.433594 146.421875 103.917969 146.667969 102.429688 147.039062 C 101.800781 147.152344 101.207031 147.410156 100.691406 147.792969 C 99.875 148.492188 99.675781 149.65625 99.527344 150.722656 L 98.800781 155.960938 C 98.785156 156.308594 98.667969 156.644531 98.464844 156.925781 C 98.160156 157.183594 97.789062 157.351562 97.394531 157.402344 C 95.976562 157.78125 94.730469 158.628906 93.855469 159.804688 C 92.683594 161.398438 92.238281 163.53125 90.722656 164.800781 C 90.328125 161.277344 87.511719 158.566406 86.035156 155.34375 C 85.101562 153.304688 84.707031 151.066406 84.886719 148.835938 C 84.949219 148.019531 85.105469 147.214844 85.355469 146.441406 C 86.148438 144.121094 87.902344 142.261719 90.171875 141.339844 C 91.269531 140.902344 92.46875 140.691406 93.46875 140.0625 C 94.011719 139.722656 94.476562 139.265625 95.023438 138.933594 C 96.136719 138.261719 97.488281 138.152344 98.789062 138.152344 C 101.507812 138.152344 104.214844 138.566406 106.8125 139.375 C 107.992188 139.742188 109.230469 140.261719 109.863281 141.316406 C 110.554688 142.617188 110.292969 144.222656 109.21875 145.230469 C 108.125 146.191406 106.621094 146.535156 105.214844 146.148438 "/>
<path style=" stroke:none;fill-rule:nonzero;fill:rgb(38.823529%,59.607843%,100%);fill-opacity:1;" d="M 86.761719 156.902344 C 86.761719 156.902344 101.949219 142.050781 113.644531 149.976562 C 113.644531 149.976562 114.898438 138.488281 107.234375 135.953125 C 99.574219 133.414062 95.640625 130.085938 95.640625 130.085938 L 88.085938 132.164062 L 86.242188 141.492188 C 86.242188 141.492188 83.222656 154.160156 86.761719 156.902344 Z M 86.761719 156.902344 "/>
<path style=" stroke:none;fill-rule:nonzero;fill:rgb(38.823529%,59.607843%,100%);fill-opacity:1;" d="M 95.964844 126.46875 C 95.964844 130.339844 92.828125 133.476562 88.957031 133.476562 C 85.089844 133.476562 81.953125 130.339844 81.953125 126.46875 C 81.953125 122.597656 85.089844 119.460938 88.957031 119.460938 C 92.828125 119.460938 95.964844 122.597656 95.964844 126.46875 Z M 95.964844 126.46875 "/>
<path style=" stroke:none;fill-rule:nonzero;fill:rgb(18.431373%,18.039216%,25.490196%);fill-opacity:1;" d="M 71.925781 246.0625 C 71.925781 246.0625 79.71875 263.421875 86.304688 268.808594 L 104.25 307.054688 L 94.324219 367.644531 C 94.324219 367.644531 85.792969 383.195312 109.824219 372.644531 L 130.25 301.996094 L 111.882812 247.847656 Z M 71.925781 246.0625 "/>
<path style=" stroke:none;fill-rule:nonzero;fill:rgb(18.431373%,18.039216%,25.490196%);fill-opacity:1;" d="M 94.324219 367.644531 C 94.324219 367.644531 82.714844 383.578125 93.773438 384.617188 C 104.832031 385.65625 111.472656 385.214844 115.484375 385.179688 C 119.324219 385.144531 126.996094 385.1875 125.824219 379.144531 C 124.648438 373.097656 110.824219 372.144531 110.824219 372.144531 Z M 94.324219 367.644531 "/>
<path style=" stroke:none;fill-rule:nonzero;fill:rgb(18.431373%,18.039216%,25.490196%);fill-opacity:1;" d="M 39.660156 347.480469 C 39.660156 347.480469 24.269531 359.796875 34.667969 363.707031 C 45.0625 367.621094 51.585938 368.945312 55.464844 369.964844 C 59.179688 370.9375 66.570312 373 67.027344 366.859375 C 67.484375 360.71875 54.398438 356.160156 54.398438 356.160156 Z M 39.660156 347.480469 "/>
<path style=" stroke:none;fill-rule:nonzero;fill:rgb(18.431373%,18.039216%,25.490196%);fill-opacity:1;" d="M 68.875 224.777344 C 68.875 224.777344 69.140625 243.804688 73.050781 251.359375 L 74.347656 293.585938 L 38.824219 347.144531 C 38.824219 347.144531 30.582031 358.296875 56.824219 358.144531 L 100.222656 299.257812 L 104.84375 242.265625 Z M 68.875 224.777344 "/>
<path style=" stroke:none;fill-rule:nonzero;fill:rgb(24.705882%,23.921569%,33.72549%);fill-opacity:1;" d="M 118.382812 255.1875 C 118.117188 259.984375 117.863281 263.457031 117.738281 264.082031 C 117.546875 265.0625 112.703125 265.847656 105.890625 266.070312 C 95.585938 266.398438 80.765625 265.445312 70.710938 261.921875 C 68.753906 261.238281 67.25 259.5 66.109375 257.117188 C 62.65625 249.941406 62.488281 236.945312 63.09375 229.449219 C 63.40625 225.898438 63.925781 222.363281 64.644531 218.871094 C 65.101562 216.613281 65.585938 214.550781 66.035156 212.808594 C 66.90625 209.390625 67.625 207.203125 67.625 207.203125 L 67.703125 202.230469 L 67.792969 196.21875 L 67.960938 185.691406 L 67.976562 184.820312 C 59.519531 178.550781 71.0625 158.898438 71.453125 156.933594 C 71.839844 154.972656 83.433594 160.835938 83.433594 160.835938 L 86.570312 157.882812 L 93.9375 161.894531 L 103.414062 158.953125 L 109.371094 171.582031 C 109.371094 171.582031 111.378906 176.625 113.527344 184.011719 C 114.4375 187.132812 115.371094 190.675781 116.1875 194.429688 C 116.605469 196.371094 116.996094 198.375 117.335938 200.402344 C 117.789062 203.09375 118.152344 205.84375 118.378906 208.566406 C 118.445312 209.328125 118.5 210.09375 118.554688 210.871094 C 118.691406 212.8125 118.804688 214.828125 118.890625 216.867188 C 119.046875 220.339844 119.132812 223.894531 119.175781 227.378906 C 119.277344 235.679688 118.820312 247.253906 118.382812 255.1875 Z M 118.382812 255.1875 "/>
<path style=" stroke:none;fill-rule:nonzero;fill:rgb(38.823529%,59.607843%,100%);fill-opacity:1;" d="M 66.03125 212.808594 C 66.90625 209.390625 67.625 207.199219 67.625 207.199219 L 67.703125 202.230469 L 117.335938 200.402344 C 117.789062 203.09375 118.152344 205.839844 118.378906 208.570312 C 118.445312 209.328125 118.5 210.09375 118.554688 210.871094 Z M 66.03125 212.808594 "/>
<path style=" stroke:none;fill-rule:nonzero;fill:rgb(38.823529%,59.607843%,100%);fill-opacity:1;" d="M 119.175781 227.382812 L 63.097656 229.449219 C 63.40625 225.894531 63.925781 222.363281 64.644531 218.871094 L 118.890625 216.871094 C 119.046875 220.339844 119.132812 223.898438 119.175781 227.382812 Z M 119.175781 227.382812 "/>
<path style=" stroke:none;fill-rule:nonzero;fill:rgb(38.823529%,59.607843%,100%);fill-opacity:1;" d="M 118.382812 255.1875 C 118.117188 259.984375 117.863281 263.457031 117.738281 264.082031 C 117.546875 265.0625 112.703125 265.847656 105.890625 266.070312 C 95.585938 266.398438 80.765625 265.445312 70.710938 261.921875 C 68.753906 261.238281 67.25 259.5 66.109375 257.117188 Z M 118.382812 255.1875 "/>
<path style=" stroke:none;fill-rule:nonzero;fill:rgb(100%,72.54902%,72.54902%);fill-opacity:1;" d="M 124.613281 233.785156 C 124.613281 233.785156 135.121094 234.84375 131.601562 242.308594 C 128.082031 249.777344 117.269531 242.535156 117.269531 242.535156 Z M 124.613281 233.785156 "/>
<path style=" stroke:none;fill-rule:nonzero;fill:rgb(24.705882%,23.921569%,33.72549%);fill-opacity:1;" d="M 129.324219 233.183594 L 120.125 246.160156 C 120.125 246.160156 117.910156 244.796875 114.558594 242.707031 C 113.523438 242.0625 112.375 241.351562 111.15625 240.589844 C 110.527344 240.195312 109.878906 239.792969 109.21875 239.375 C 108.121094 238.695312 106.984375 237.980469 105.820312 237.25 C 105.1875 236.847656 104.539062 236.4375 103.890625 236.03125 C 102.769531 235.320312 101.636719 234.605469 100.507812 233.886719 C 92.242188 228.644531 84.160156 223.382812 82.578125 221.894531 C 80.21875 219.679688 74.882812 203.46875 71.757812 193.472656 C 69.609375 186.777344 70.75 179.460938 74.835938 173.738281 C 78.816406 168.257812 83.066406 167.769531 86.589844 168.945312 C 91.367188 170.617188 94.492188 175.214844 94.289062 180.269531 L 93.539062 205.183594 L 111.648438 219.355469 L 114.789062 221.8125 L 116.582031 223.214844 L 119.726562 225.671875 L 121.515625 227.074219 L 124.65625 229.53125 Z M 129.324219 233.183594 "/>
<use xlink:href="#surface5" mask="url(#mask0)"/>
<path style=" stroke:none;fill-rule:nonzero;fill:rgb(38.823529%,59.607843%,100%);fill-opacity:1;" d="M 119.726562 225.671875 L 109.21875 239.375 C 108.121094 238.695312 106.984375 237.980469 105.820312 237.25 L 116.582031 223.214844 Z M 119.726562 225.671875 "/>
<path style=" stroke:none;fill-rule:nonzero;fill:rgb(38.823529%,59.607843%,100%);fill-opacity:1;" d="M 124.65625 229.53125 L 114.558594 242.707031 C 113.523438 242.0625 112.375 241.351562 111.15625 240.589844 L 121.515625 227.074219 Z M 124.65625 229.53125 "/>
<path style=" stroke:none;fill-rule:nonzero;fill:rgb(90.196078%,90.196078%,90.196078%);fill-opacity:1;" d="M 178.515625 373.378906 L 212.265625 323.1875 L 178.585938 378.777344 L 178.65625 384.425781 C 176.191406 384.445312 173.75 384.402344 171.335938 384.304688 L 173.007812 311.707031 L 172.964844 311.144531 L 173.023438 311.039062 L 173.183594 304.179688 L 136.226562 250.515625 L 173.140625 299.042969 L 173.273438 300.492188 L 174.539062 245.644531 L 142.613281 190.007812 L 174.628906 236.007812 L 174.292969 122.375 L 174.292969 121.996094 L 174.304688 122.371094 L 176.425781 211.929688 L 205.519531 175.550781 L 176.519531 219.644531 L 177.15625 268.703125 L 203.929688 220.824219 L 177.253906 275.917969 L 177.605469 303.199219 L 216.542969 236.5 L 177.726562 312.714844 Z M 178.515625 373.378906 "/>
<path style=" stroke:none;fill-rule:nonzero;fill:rgb(90.196078%,90.196078%,90.196078%);fill-opacity:1;" d="M 404.339844 377.925781 L 428.25 342.367188 L 404.386719 381.753906 L 404.4375 385.753906 C 402.691406 385.765625 400.964844 385.738281 399.25 385.667969 L 400.4375 334.230469 L 400.40625 333.832031 L 400.449219 333.757812 L 400.5625 328.894531 L 374.375 290.875 L 400.53125 325.257812 L 400.625 326.285156 L 401.519531 287.421875 L 378.902344 248.003906 L 401.585938 280.597656 L 401.347656 200.085938 L 401.347656 199.816406 L 401.355469 200.078125 L 402.855469 263.535156 L 423.472656 237.757812 L 402.925781 269 L 403.375 303.761719 L 422.34375 269.835938 L 403.445312 308.871094 L 403.695312 328.203125 L 431.28125 280.945312 L 403.777344 334.945312 Z M 404.339844 377.925781 "/>
<path style=" stroke:none;fill-rule:nonzero;fill:rgb(90.196078%,90.196078%,90.196078%);fill-opacity:1;" d="M 311.839844 377.925781 L 335.75 342.367188 L 311.886719 381.753906 L 311.9375 385.753906 C 310.191406 385.765625 308.464844 385.738281 306.75 385.667969 L 307.9375 334.230469 L 307.90625 333.832031 L 307.949219 333.757812 L 308.0625 328.894531 L 281.875 290.875 L 308.03125 325.257812 L 308.125 326.285156 L 309.019531 287.421875 L 286.402344 248.003906 L 309.085938 280.597656 L 308.847656 200.085938 L 308.847656 199.816406 L 308.855469 200.078125 L 310.355469 263.535156 L 330.972656 237.757812 L 310.425781 269 L 310.875 303.761719 L 329.84375 269.835938 L 310.945312 308.871094 L 311.195312 328.203125 L 338.78125 280.945312 L 311.277344 334.945312 Z M 311.839844 377.925781 "/>
<path style=" stroke:none;fill-rule:nonzero;fill:rgb(24.705882%,23.921569%,33.72549%);fill-opacity:1;" d="M 246.578125 368.914062 L 296.109375 295.257812 L 246.679688 376.839844 L 246.78125 385.125 C 243.167969 385.15625 239.585938 385.09375 236.039062 384.945312 L 238.496094 278.40625 L 238.429688 277.585938 L 238.519531 277.425781 L 238.753906 267.359375 L 184.515625 188.609375 L 238.691406 259.824219 L 238.882812 261.953125 L 240.738281 181.457031 L 193.890625 99.8125 L 240.871094 167.316406 L 240.382812 0.554688 L 240.382812 0 L 240.398438 0.546875 L 243.507812 131.976562 L 286.207031 78.589844 L 243.648438 143.300781 L 244.582031 215.300781 L 283.871094 145.03125 L 244.726562 225.886719 L 245.246094 265.921875 L 302.382812 168.035156 L 245.417969 279.886719 Z M 246.578125 368.914062 "/>
<path style=" stroke:none;fill-rule:nonzero;fill:rgb(24.705882%,23.921569%,33.72549%);fill-opacity:1;" d="M 367.339844 372.101562 L 328.757812 314.730469 L 367.257812 378.273438 L 367.179688 384.726562 C 369.996094 384.75 372.785156 384.703125 375.546875 384.585938 L 373.632812 301.605469 L 373.683594 300.964844 L 373.613281 300.839844 L 373.429688 293 L 415.679688 231.660156 L 373.480469 287.128906 L 373.332031 288.789062 L 371.886719 226.089844 L 408.375 162.496094 L 371.78125 215.078125 L 372.164062 85.1875 L 372.164062 84.753906 L 372.152344 85.179688 L 369.726562 187.550781 L 336.472656 145.96875 L 369.621094 196.371094 L 368.894531 252.449219 L 338.289062 197.71875 L 368.78125 260.695312 L 368.378906 291.878906 L 323.871094 215.636719 L 368.242188 302.757812 Z M 367.339844 372.101562 "/>
<path style=" stroke:none;fill-rule:nonzero;fill:rgb(24.705882%,23.921569%,33.72549%);fill-opacity:1;" d="M 0 384.34375 L 444 384.34375 L 444 385.460938 L 0 385.460938 Z M 0 384.34375 "/>
</g>
</svg>
