<?xml version="1.0" encoding="UTF-8"?>
<svg xmlns="http://www.w3.org/2000/svg" xmlns:xlink="http://www.w3.org/1999/xlink" width="234pt" height="140pt" viewBox="0 0 234 140" version="1.1">
<defs>
<filter id="alpha" filterUnits="objectBoundingBox" x="0%" y="0%" width="100%" height="100%">
  <feColorMatrix type="matrix" in="SourceGraphic" values="0 0 0 0 1 0 0 0 0 1 0 0 0 0 1 0 0 0 1 0"/>
</filter>
<mask id="mask0">
  <g filter="url(#alpha)">
<rect x="0" y="0" width="234" height="140" style="fill:rgb(0%,0%,0%);fill-opacity:0.8;stroke:none;"/>
  </g>
</mask>
<clipPath id="clip1">
  <rect x="0" y="0" width="234" height="140"/>
</clipPath>
<g id="surface5" clip-path="url(#clip1)">
<path style=" stroke:none;fill-rule:nonzero;fill:rgb(38.823529%,59.607843%,100%);fill-opacity:1;" d="M 45.277344 8.828125 L 63.8125 8.828125 L 63.8125 21.203125 L 45.277344 21.203125 Z M 45.277344 8.828125 "/>
</g>
<mask id="mask1">
  <g filter="url(#alpha)">
<rect x="0" y="0" width="234" height="140" style="fill:rgb(0%,0%,0%);fill-opacity:0.8;stroke:none;"/>
  </g>
</mask>
<clipPath id="clip2">
  <rect x="0" y="0" width="234" height="140"/>
</clipPath>
<g id="surface8" clip-path="url(#clip2)">
<path style=" stroke:none;fill-rule:nonzero;fill:rgb(38.823529%,59.607843%,100%);fill-opacity:1;" d="M 82.039062 8.828125 L 100.574219 8.828125 L 100.574219 21.203125 L 82.039062 21.203125 Z M 82.039062 8.828125 "/>
</g>
<mask id="mask2">
  <g filter="url(#alpha)">
<rect x="0" y="0" width="234" height="140" style="fill:rgb(0%,0%,0%);fill-opacity:0.8;stroke:none;"/>
  </g>
</mask>
<clipPath id="clip3">
  <rect x="0" y="0" width="234" height="140"/>
</clipPath>
<g id="surface11" clip-path="url(#clip3)">
<path style=" stroke:none;fill-rule:nonzero;fill:rgb(38.823529%,59.607843%,100%);fill-opacity:1;" d="M 8.515625 20.585938 L 27.050781 20.585938 L 27.050781 32.960938 L 8.515625 32.960938 Z M 8.515625 20.585938 "/>
</g>
<mask id="mask3">
  <g filter="url(#alpha)">
<rect x="0" y="0" width="234" height="140" style="fill:rgb(0%,0%,0%);fill-opacity:0.8;stroke:none;"/>
  </g>
</mask>
<clipPath id="clip4">
  <rect x="0" y="0" width="234" height="140"/>
</clipPath>
<g id="surface14" clip-path="url(#clip4)">
<path style=" stroke:none;fill-rule:nonzero;fill:rgb(38.823529%,59.607843%,100%);fill-opacity:1;" d="M 63.660156 20.585938 L 82.195312 20.585938 L 82.195312 32.960938 L 63.660156 32.960938 Z M 63.660156 20.585938 "/>
</g>
<mask id="mask4">
  <g filter="url(#alpha)">
<rect x="0" y="0" width="234" height="140" style="fill:rgb(0%,0%,0%);fill-opacity:0.8;stroke:none;"/>
  </g>
</mask>
<clipPath id="clip5">
  <rect x="0" y="0" width="234" height="140"/>
</clipPath>
<g id="surface17" clip-path="url(#clip5)">
<path style=" stroke:none;fill-rule:nonzero;fill:rgb(38.823529%,59.607843%,100%);fill-opacity:1;" d="M 100.421875 20.585938 L 118.957031 20.585938 L 118.957031 32.960938 L 100.421875 32.960938 Z M 100.421875 20.585938 "/>
</g>
<mask id="mask5">
  <g filter="url(#alpha)">
<rect x="0" y="0" width="234" height="140" style="fill:rgb(0%,0%,0%);fill-opacity:0.8;stroke:none;"/>
  </g>
</mask>
<clipPath id="clip6">
  <rect x="0" y="0" width="234" height="140"/>
</clipPath>
<g id="surface20" clip-path="url(#clip6)">
<path style=" stroke:none;fill-rule:nonzero;fill:rgb(38.823529%,59.607843%,100%);fill-opacity:1;" d="M 26.894531 32.339844 L 45.433594 32.339844 L 45.433594 44.714844 L 26.894531 44.714844 Z M 26.894531 32.339844 "/>
</g>
<mask id="mask6">
  <g filter="url(#alpha)">
<rect x="0" y="0" width="234" height="140" style="fill:rgb(0%,0%,0%);fill-opacity:0.8;stroke:none;"/>
  </g>
</mask>
<clipPath id="clip7">
  <rect x="0" y="0" width="234" height="140"/>
</clipPath>
<g id="surface23" clip-path="url(#clip7)">
<path style=" stroke:none;fill-rule:nonzero;fill:rgb(38.823529%,59.607843%,100%);fill-opacity:1;" d="M 82.039062 32.339844 L 100.574219 32.339844 L 100.574219 44.714844 L 82.039062 44.714844 Z M 82.039062 32.339844 "/>
</g>
<mask id="mask7">
  <g filter="url(#alpha)">
<rect x="0" y="0" width="234" height="140" style="fill:rgb(0%,0%,0%);fill-opacity:0.8;stroke:none;"/>
  </g>
</mask>
<clipPath id="clip8">
  <rect x="0" y="0" width="234" height="140"/>
</clipPath>
<g id="surface26" clip-path="url(#clip8)">
<path style=" stroke:none;fill-rule:nonzero;fill:rgb(38.823529%,59.607843%,100%);fill-opacity:1;" d="M 100.421875 44.097656 L 118.957031 44.097656 L 118.957031 56.472656 L 100.421875 56.472656 Z M 100.421875 44.097656 "/>
</g>
<mask id="mask8">
  <g filter="url(#alpha)">
<rect x="0" y="0" width="234" height="140" style="fill:rgb(0%,0%,0%);fill-opacity:0.8;stroke:none;"/>
  </g>
</mask>
<clipPath id="clip9">
  <rect x="0" y="0" width="234" height="140"/>
</clipPath>
<g id="surface29" clip-path="url(#clip9)">
<path style=" stroke:none;fill-rule:nonzero;fill:rgb(38.823529%,59.607843%,100%);fill-opacity:1;" d="M 8.515625 55.851562 L 27.050781 55.851562 L 27.050781 68.226562 L 8.515625 68.226562 Z M 8.515625 55.851562 "/>
</g>
<mask id="mask9">
  <g filter="url(#alpha)">
<rect x="0" y="0" width="234" height="140" style="fill:rgb(0%,0%,0%);fill-opacity:0.8;stroke:none;"/>
  </g>
</mask>
<clipPath id="clip10">
  <rect x="0" y="0" width="234" height="140"/>
</clipPath>
<g id="surface32" clip-path="url(#clip10)">
<path style=" stroke:none;fill-rule:nonzero;fill:rgb(38.823529%,59.607843%,100%);fill-opacity:1;" d="M 63.660156 55.851562 L 82.195312 55.851562 L 82.195312 68.226562 L 63.660156 68.226562 Z M 63.660156 55.851562 "/>
</g>
<mask id="mask10">
  <g filter="url(#alpha)">
<rect x="0" y="0" width="234" height="140" style="fill:rgb(0%,0%,0%);fill-opacity:0.8;stroke:none;"/>
  </g>
</mask>
<clipPath id="clip11">
  <rect x="0" y="0" width="234" height="140"/>
</clipPath>
<g id="surface35" clip-path="url(#clip11)">
<path style=" stroke:none;fill-rule:nonzero;fill:rgb(38.823529%,59.607843%,100%);fill-opacity:1;" d="M 82.039062 55.851562 L 100.574219 55.851562 L 100.574219 68.226562 L 82.039062 68.226562 Z M 82.039062 55.851562 "/>
</g>
<mask id="mask11">
  <g filter="url(#alpha)">
<rect x="0" y="0" width="234" height="140" style="fill:rgb(0%,0%,0%);fill-opacity:0.8;stroke:none;"/>
  </g>
</mask>
<clipPath id="clip12">
  <rect x="0" y="0" width="234" height="140"/>
</clipPath>
<g id="surface38" clip-path="url(#clip12)">
<path style=" stroke:none;fill-rule:nonzero;fill:rgb(38.823529%,59.607843%,100%);fill-opacity:1;" d="M 45.277344 67.609375 L 63.8125 67.609375 L 63.8125 79.984375 L 45.277344 79.984375 Z M 45.277344 67.609375 "/>
</g>
<mask id="mask12">
  <g filter="url(#alpha)">
<rect x="0" y="0" width="234" height="140" style="fill:rgb(0%,0%,0%);fill-opacity:0.8;stroke:none;"/>
  </g>
</mask>
<clipPath id="clip13">
  <rect x="0" y="0" width="234" height="140"/>
</clipPath>
<g id="surface41" clip-path="url(#clip13)">
<path style=" stroke:none;fill-rule:nonzero;fill:rgb(38.823529%,59.607843%,100%);fill-opacity:1;" d="M 26.894531 79.765625 L 45.433594 79.765625 L 45.433594 92.140625 L 26.894531 92.140625 Z M 26.894531 79.765625 "/>
</g>
<mask id="mask13">
  <g filter="url(#alpha)">
<rect x="0" y="0" width="234" height="140" style="fill:rgb(0%,0%,0%);fill-opacity:0.8;stroke:none;"/>
  </g>
</mask>
<clipPath id="clip14">
  <rect x="0" y="0" width="234" height="140"/>
</clipPath>
<g id="surface44" clip-path="url(#clip14)">
<path style=" stroke:none;fill-rule:nonzero;fill:rgb(38.823529%,59.607843%,100%);fill-opacity:1;" d="M 45.277344 44.097656 L 63.8125 44.097656 L 63.8125 56.472656 L 45.277344 56.472656 Z M 45.277344 44.097656 "/>
</g>
<mask id="mask14">
  <g filter="url(#alpha)">
<rect x="0" y="0" width="234" height="140" style="fill:rgb(0%,0%,0%);fill-opacity:0.8;stroke:none;"/>
  </g>
</mask>
<clipPath id="clip15">
  <rect x="0" y="0" width="234" height="140"/>
</clipPath>
<g id="surface47" clip-path="url(#clip15)">
<path style=" stroke:none;fill-rule:nonzero;fill:rgb(38.823529%,59.607843%,100%);fill-opacity:1;" d="M 155.566406 8.828125 L 174.101562 8.828125 L 174.101562 21.203125 L 155.566406 21.203125 Z M 155.566406 8.828125 "/>
</g>
</defs>
<g id="surface1">
<path style=" stroke:none;fill-rule:nonzero;fill:rgb(38.823529%,59.607843%,100%);fill-opacity:1;" d="M 8.515625 8.828125 L 27.050781 8.828125 L 27.050781 21.203125 L 8.515625 21.203125 Z M 8.515625 8.828125 "/>
<path style=" stroke:none;fill-rule:nonzero;fill:rgb(90.196078%,90.196078%,90.196078%);fill-opacity:1;" d="M 26.894531 8.828125 L 45.433594 8.828125 L 45.433594 21.203125 L 26.894531 21.203125 Z M 26.894531 8.828125 "/>
<use xlink:href="#surface5" mask="url(#mask0)"/>
<path style=" stroke:none;fill-rule:nonzero;fill:rgb(38.823529%,59.607843%,100%);fill-opacity:1;" d="M 63.660156 8.828125 L 82.195312 8.828125 L 82.195312 21.203125 L 63.660156 21.203125 Z M 63.660156 8.828125 "/>
<use xlink:href="#surface8" mask="url(#mask1)"/>
<path style=" stroke:none;fill-rule:nonzero;fill:rgb(90.196078%,90.196078%,90.196078%);fill-opacity:1;" d="M 100.421875 8.828125 L 118.957031 8.828125 L 118.957031 21.203125 L 100.421875 21.203125 Z M 100.421875 8.828125 "/>
<path style=" stroke:none;fill-rule:nonzero;fill:rgb(90.196078%,90.196078%,90.196078%);fill-opacity:1;" d="M 137.183594 8.828125 L 155.71875 8.828125 L 155.71875 21.203125 L 137.183594 21.203125 Z M 137.183594 8.828125 "/>
<use xlink:href="#surface11" mask="url(#mask2)"/>
<path style=" stroke:none;fill-rule:nonzero;fill:rgb(38.823529%,59.607843%,100%);fill-opacity:1;" d="M 26.894531 20.585938 L 45.433594 20.585938 L 45.433594 32.960938 L 26.894531 32.960938 Z M 26.894531 20.585938 "/>
<use xlink:href="#surface14" mask="url(#mask3)"/>
<path style=" stroke:none;fill-rule:nonzero;fill:rgb(38.823529%,59.607843%,100%);fill-opacity:1;" d="M 82.039062 20.585938 L 100.574219 20.585938 L 100.574219 32.960938 L 82.039062 32.960938 Z M 82.039062 20.585938 "/>
<use xlink:href="#surface17" mask="url(#mask4)"/>
<path style=" stroke:none;fill-rule:nonzero;fill:rgb(38.823529%,59.607843%,100%);fill-opacity:1;" d="M 137.183594 20.585938 L 155.71875 20.585938 L 155.71875 32.960938 L 137.183594 32.960938 Z M 137.183594 20.585938 "/>
<path style=" stroke:none;fill-rule:nonzero;fill:rgb(90.196078%,90.196078%,90.196078%);fill-opacity:1;" d="M 8.515625 32.339844 L 27.050781 32.339844 L 27.050781 44.714844 L 8.515625 44.714844 Z M 8.515625 32.339844 "/>
<use xlink:href="#surface20" mask="url(#mask5)"/>
<path style=" stroke:none;fill-rule:nonzero;fill:rgb(90.196078%,90.196078%,90.196078%);fill-opacity:1;" d="M 45.277344 32.339844 L 63.8125 32.339844 L 63.8125 44.714844 L 45.277344 44.714844 Z M 45.277344 32.339844 "/>
<path style=" stroke:none;fill-rule:nonzero;fill:rgb(38.823529%,59.607843%,100%);fill-opacity:1;" d="M 63.660156 32.339844 L 82.195312 32.339844 L 82.195312 44.714844 L 63.660156 44.714844 Z M 63.660156 32.339844 "/>
<use xlink:href="#surface23" mask="url(#mask6)"/>
<path style=" stroke:none;fill-rule:nonzero;fill:rgb(90.196078%,90.196078%,90.196078%);fill-opacity:1;" d="M 100.421875 32.339844 L 118.957031 32.339844 L 118.957031 44.714844 L 100.421875 44.714844 Z M 100.421875 32.339844 "/>
<path style=" stroke:none;fill-rule:nonzero;fill:rgb(38.823529%,59.607843%,100%);fill-opacity:1;" d="M 118.800781 32.339844 L 137.339844 32.339844 L 137.339844 44.714844 L 118.800781 44.714844 Z M 118.800781 32.339844 "/>
<path style=" stroke:none;fill-rule:nonzero;fill:rgb(38.823529%,59.607843%,100%);fill-opacity:1;" d="M 8.515625 44.097656 L 27.050781 44.097656 L 27.050781 56.472656 L 8.515625 56.472656 Z M 8.515625 44.097656 "/>
<path style=" stroke:none;fill-rule:nonzero;fill:rgb(90.196078%,90.196078%,90.196078%);fill-opacity:1;" d="M 26.894531 44.097656 L 45.433594 44.097656 L 45.433594 56.472656 L 26.894531 56.472656 Z M 26.894531 44.097656 "/>
<use xlink:href="#surface26" mask="url(#mask7)"/>
<use xlink:href="#surface29" mask="url(#mask8)"/>
<path style=" stroke:none;fill-rule:nonzero;fill:rgb(38.823529%,59.607843%,100%);fill-opacity:1;" d="M 26.894531 55.851562 L 45.433594 55.851562 L 45.433594 68.226562 L 26.894531 68.226562 Z M 26.894531 55.851562 "/>
<path style=" stroke:none;fill-rule:nonzero;fill:rgb(90.196078%,90.196078%,90.196078%);fill-opacity:1;" d="M 45.277344 55.851562 L 63.8125 55.851562 L 63.8125 68.226562 L 45.277344 68.226562 Z M 45.277344 55.851562 "/>
<use xlink:href="#surface32" mask="url(#mask9)"/>
<use xlink:href="#surface35" mask="url(#mask10)"/>
<path style=" stroke:none;fill-rule:nonzero;fill:rgb(38.823529%,59.607843%,100%);fill-opacity:1;" d="M 8.515625 67.609375 L 27.050781 67.609375 L 27.050781 79.984375 L 8.515625 79.984375 Z M 8.515625 67.609375 "/>
<path style=" stroke:none;fill-rule:nonzero;fill:rgb(90.196078%,90.196078%,90.196078%);fill-opacity:1;" d="M 26.894531 67.609375 L 45.433594 67.609375 L 45.433594 79.984375 L 26.894531 79.984375 Z M 26.894531 67.609375 "/>
<use xlink:href="#surface38" mask="url(#mask11)"/>
<path style=" stroke:none;fill-rule:nonzero;fill:rgb(38.823529%,59.607843%,100%);fill-opacity:1;" d="M 63.660156 67.609375 L 82.195312 67.609375 L 82.195312 79.984375 L 63.660156 79.984375 Z M 63.660156 67.609375 "/>
<path style=" stroke:none;fill-rule:nonzero;fill:rgb(90.196078%,90.196078%,90.196078%);fill-opacity:1;" d="M 8.515625 79.765625 L 27.050781 79.765625 L 27.050781 92.140625 L 8.515625 92.140625 Z M 8.515625 79.765625 "/>
<use xlink:href="#surface41" mask="url(#mask12)"/>
<path style=" stroke:none;fill-rule:nonzero;fill:rgb(90.196078%,90.196078%,90.196078%);fill-opacity:1;" d="M 45.277344 79.765625 L 63.8125 79.765625 L 63.8125 92.140625 L 45.277344 92.140625 Z M 45.277344 79.765625 "/>
<path style=" stroke:none;fill-rule:nonzero;fill:rgb(38.823529%,59.607843%,100%);fill-opacity:1;" d="M 45.277344 20.585938 L 63.8125 20.585938 L 63.8125 32.960938 L 45.277344 32.960938 Z M 45.277344 20.585938 "/>
<path style=" stroke:none;fill-rule:nonzero;fill:rgb(38.823529%,59.607843%,100%);fill-opacity:1;" d="M 118.800781 8.828125 L 137.339844 8.828125 L 137.339844 21.203125 L 118.800781 21.203125 Z M 118.800781 8.828125 "/>
<path style=" stroke:none;fill-rule:nonzero;fill:rgb(38.823529%,59.607843%,100%);fill-opacity:1;" d="M 82.039062 44.097656 L 100.574219 44.097656 L 100.574219 56.472656 L 82.039062 56.472656 Z M 82.039062 44.097656 "/>
<path style=" stroke:none;fill-rule:nonzero;fill:rgb(90.196078%,90.196078%,90.196078%);fill-opacity:1;" d="M 63.660156 44.097656 L 82.195312 44.097656 L 82.195312 56.472656 L 63.660156 56.472656 Z M 63.660156 44.097656 "/>
<use xlink:href="#surface44" mask="url(#mask13)"/>
<path style=" stroke:none;fill-rule:nonzero;fill:rgb(24.705882%,23.921569%,33.72549%);fill-opacity:1;" d="M 5.609375 15.046875 C 5.609375 16.597656 4.355469 17.855469 2.804688 17.855469 C 1.253906 17.855469 0 16.597656 0 15.046875 C 0 13.496094 1.253906 12.238281 2.804688 12.238281 C 4.355469 12.238281 5.609375 13.496094 5.609375 15.046875 Z M 5.609375 15.046875 "/>
<path style=" stroke:none;fill-rule:nonzero;fill:rgb(90.196078%,90.196078%,90.196078%);fill-opacity:1;" d="M 20.585938 2.808594 C 20.585938 4.359375 19.332031 5.617188 17.78125 5.617188 C 16.234375 5.617188 14.976562 4.359375 14.976562 2.808594 C 14.976562 1.257812 16.234375 0 17.78125 0 C 19.332031 0 20.585938 1.257812 20.585938 2.808594 Z M 20.585938 2.808594 "/>
<path style=" stroke:none;fill-rule:nonzero;fill:rgb(90.196078%,90.196078%,90.196078%);fill-opacity:1;" d="M 38.96875 2.808594 C 38.96875 4.359375 37.714844 5.617188 36.164062 5.617188 C 34.613281 5.617188 33.359375 4.359375 33.359375 2.808594 C 33.359375 1.257812 34.613281 0 36.164062 0 C 37.714844 0 38.96875 1.257812 38.96875 2.808594 Z M 38.96875 2.808594 "/>
<path style=" stroke:none;fill-rule:nonzero;fill:rgb(90.196078%,90.196078%,90.196078%);fill-opacity:1;" d="M 57.351562 2.808594 C 57.351562 4.359375 56.09375 5.617188 54.546875 5.617188 C 52.996094 5.617188 51.742188 4.359375 51.742188 2.808594 C 51.742188 1.257812 52.996094 0 54.546875 0 C 56.09375 0 57.351562 1.257812 57.351562 2.808594 Z M 57.351562 2.808594 "/>
<path style=" stroke:none;fill-rule:nonzero;fill:rgb(90.196078%,90.196078%,90.196078%);fill-opacity:1;" d="M 75.730469 2.808594 C 75.730469 4.359375 74.476562 5.617188 72.925781 5.617188 C 71.378906 5.617188 70.121094 4.359375 70.121094 2.808594 C 70.121094 1.257812 71.378906 0 72.925781 0 C 74.476562 0 75.730469 1.257812 75.730469 2.808594 Z M 75.730469 2.808594 "/>
<path style=" stroke:none;fill-rule:nonzero;fill:rgb(90.196078%,90.196078%,90.196078%);fill-opacity:1;" d="M 94.113281 2.808594 C 94.113281 4.359375 92.855469 5.617188 91.308594 5.617188 C 89.757812 5.617188 88.503906 4.359375 88.503906 2.808594 C 88.503906 1.257812 89.757812 0 91.308594 0 C 92.855469 0 94.113281 1.257812 94.113281 2.808594 Z M 94.113281 2.808594 "/>
<path style=" stroke:none;fill-rule:nonzero;fill:rgb(90.196078%,90.196078%,90.196078%);fill-opacity:1;" d="M 112.492188 2.808594 C 112.492188 4.359375 111.238281 5.617188 109.6875 5.617188 C 108.140625 5.617188 106.882812 4.359375 106.882812 2.808594 C 106.882812 1.257812 108.140625 0 109.6875 0 C 111.238281 0 112.492188 1.257812 112.492188 2.808594 Z M 112.492188 2.808594 "/>
<path style=" stroke:none;fill-rule:nonzero;fill:rgb(90.196078%,90.196078%,90.196078%);fill-opacity:1;" d="M 130.875 2.808594 C 130.875 4.359375 129.621094 5.617188 128.070312 5.617188 C 126.519531 5.617188 125.265625 4.359375 125.265625 2.808594 C 125.265625 1.257812 126.519531 0 128.070312 0 C 129.621094 0 130.875 1.257812 130.875 2.808594 Z M 130.875 2.808594 "/>
<path style=" stroke:none;fill-rule:nonzero;fill:rgb(90.196078%,90.196078%,90.196078%);fill-opacity:1;" d="M 149.257812 2.808594 C 149.257812 4.359375 148 5.617188 146.453125 5.617188 C 144.902344 5.617188 143.648438 4.359375 143.648438 2.808594 C 143.648438 1.257812 144.902344 0 146.453125 0 C 148 0 149.257812 1.257812 149.257812 2.808594 Z M 149.257812 2.808594 "/>
<path style=" stroke:none;fill-rule:nonzero;fill:rgb(90.196078%,90.196078%,90.196078%);fill-opacity:1;" d="M 167.636719 2.808594 C 167.636719 4.359375 166.382812 5.617188 164.832031 5.617188 C 163.285156 5.617188 162.027344 4.359375 162.027344 2.808594 C 162.027344 1.257812 163.285156 0 164.832031 0 C 166.382812 0 167.636719 1.257812 167.636719 2.808594 Z M 167.636719 2.808594 "/>
<path style=" stroke:none;fill-rule:nonzero;fill:rgb(24.705882%,23.921569%,33.72549%);fill-opacity:1;" d="M 5.609375 26.773438 C 5.609375 28.324219 4.355469 29.582031 2.804688 29.582031 C 1.253906 29.582031 0 28.324219 0 26.773438 C 0 25.21875 1.253906 23.960938 2.804688 23.960938 C 4.355469 23.960938 5.609375 25.21875 5.609375 26.773438 Z M 5.609375 26.773438 "/>
<path style=" stroke:none;fill-rule:nonzero;fill:rgb(24.705882%,23.921569%,33.72549%);fill-opacity:1;" d="M 5.609375 38.527344 C 5.609375 40.078125 4.355469 41.335938 2.804688 41.335938 C 1.253906 41.335938 0 40.078125 0 38.527344 C 0 36.976562 1.253906 35.71875 2.804688 35.71875 C 4.355469 35.71875 5.609375 36.976562 5.609375 38.527344 Z M 5.609375 38.527344 "/>
<path style=" stroke:none;fill-rule:nonzero;fill:rgb(24.705882%,23.921569%,33.72549%);fill-opacity:1;" d="M 5.609375 50.285156 C 5.609375 51.835938 4.355469 53.09375 2.804688 53.09375 C 1.253906 53.09375 0 51.835938 0 50.285156 C 0 48.734375 1.253906 47.476562 2.804688 47.476562 C 4.355469 47.476562 5.609375 48.734375 5.609375 50.285156 Z M 5.609375 50.285156 "/>
<path style=" stroke:none;fill-rule:nonzero;fill:rgb(24.705882%,23.921569%,33.72549%);fill-opacity:1;" d="M 5.609375 62.039062 C 5.609375 63.589844 4.355469 64.847656 2.804688 64.847656 C 1.253906 64.847656 0 63.589844 0 62.039062 C 0 60.488281 1.253906 59.230469 2.804688 59.230469 C 4.355469 59.230469 5.609375 60.488281 5.609375 62.039062 Z M 5.609375 62.039062 "/>
<path style=" stroke:none;fill-rule:nonzero;fill:rgb(24.705882%,23.921569%,33.72549%);fill-opacity:1;" d="M 5.609375 73.796875 C 5.609375 75.347656 4.355469 76.605469 2.804688 76.605469 C 1.253906 76.605469 0 75.347656 0 73.796875 C 0 72.246094 1.253906 70.988281 2.804688 70.988281 C 4.355469 70.988281 5.609375 72.246094 5.609375 73.796875 Z M 5.609375 73.796875 "/>
<path style=" stroke:none;fill-rule:nonzero;fill:rgb(24.705882%,23.921569%,33.72549%);fill-opacity:1;" d="M 5.609375 85.953125 C 5.609375 87.503906 4.355469 88.761719 2.804688 88.761719 C 1.253906 88.761719 0 87.503906 0 85.953125 C 0 84.402344 1.253906 83.144531 2.804688 83.144531 C 4.355469 83.144531 5.609375 84.402344 5.609375 85.953125 Z M 5.609375 85.953125 "/>
<path style=" stroke:none;fill-rule:nonzero;fill:rgb(90.196078%,90.196078%,90.196078%);fill-opacity:1;" d="M 118.800781 20.585938 L 137.339844 20.585938 L 137.339844 32.960938 L 118.800781 32.960938 Z M 118.800781 20.585938 "/>
<use xlink:href="#surface47" mask="url(#mask14)"/>
<path style=" stroke:none;fill-rule:nonzero;fill:rgb(24.705882%,23.921569%,33.72549%);fill-opacity:1;" d="M 234 136.292969 L 169.429688 136.292969 L 169.429688 135.765625 L 234.097656 135.765625 Z M 234 136.292969 "/>
<path style=" stroke:none;fill-rule:nonzero;fill:rgb(100%,72.156863%,72.156863%);fill-opacity:1;" d="M 191.160156 134.980469 L 194.539062 134.605469 L 194.539062 128.585938 L 190.90625 128.710938 Z M 191.160156 134.980469 "/>
<path style=" stroke:none;fill-rule:nonzero;fill:rgb(100%,72.156863%,72.156863%);fill-opacity:1;" d="M 208.695312 134.980469 L 205.0625 134.605469 L 205.691406 128.710938 L 209.824219 128.585938 Z M 208.695312 134.980469 "/>
<path style=" stroke:none;fill-rule:nonzero;fill:rgb(18.431373%,18.039216%,25.490196%);fill-opacity:1;" d="M 189.53125 129.585938 L 194.957031 129.4375 C 198.359375 111.628906 201.679688 95.160156 207.066406 81.414062 L 204.8125 129.335938 L 210.574219 129.335938 L 219.34375 75.644531 L 199.300781 73.636719 C 192.589844 91.402344 189.542969 110.105469 189.53125 129.585938 Z M 189.53125 129.585938 "/>
<path style=" stroke:none;fill-rule:nonzero;fill:rgb(18.431373%,18.039216%,25.490196%);fill-opacity:1;" d="M 188.015625 139.859375 C 189.222656 140.320312 190.589844 139.964844 191.425781 138.976562 L 192.785156 137.367188 L 195.292969 136.109375 L 194.894531 131.910156 C 194.878906 131.757812 194.765625 131.628906 194.617188 131.59375 C 194.464844 131.558594 194.3125 131.625 194.230469 131.757812 L 192.785156 134.105469 C 192.253906 132.183594 191.335938 131.1875 189.894531 131.429688 C 188.992188 131.601562 188.21875 132.175781 187.792969 132.996094 L 186.414062 135.558594 C 186 136.332031 185.9375 137.246094 186.242188 138.070312 C 186.550781 138.894531 187.195312 139.546875 188.015625 139.859375 Z M 188.015625 139.859375 "/>
<path style=" stroke:none;fill-rule:nonzero;fill:rgb(18.431373%,18.039216%,25.490196%);fill-opacity:1;" d="M 211.589844 139.859375 C 210.382812 140.320312 209.015625 139.964844 208.179688 138.976562 L 206.816406 137.367188 L 204.3125 136.109375 L 204.710938 131.910156 C 204.726562 131.757812 204.835938 131.628906 204.988281 131.59375 C 205.136719 131.558594 205.292969 131.625 205.375 131.757812 L 206.816406 134.105469 C 207.347656 132.183594 208.269531 131.1875 209.707031 131.429688 C 210.613281 131.601562 211.386719 132.175781 211.808594 132.996094 L 213.1875 135.558594 C 213.605469 136.332031 213.667969 137.246094 213.359375 138.070312 C 213.054688 138.894531 212.410156 139.546875 211.589844 139.859375 Z M 211.589844 139.859375 "/>
<path style=" stroke:none;fill-rule:nonzero;fill:rgb(100%,72.156863%,72.156863%);fill-opacity:1;" d="M 215.460938 25.339844 C 215.460938 28.667969 212.769531 31.363281 209.449219 31.363281 C 206.125 31.363281 203.433594 28.667969 203.433594 25.339844 C 203.433594 22.015625 206.125 19.320312 209.449219 19.320312 C 212.769531 19.320312 215.460938 22.015625 215.460938 25.339844 Z M 215.460938 25.339844 "/>
<path style=" stroke:none;fill-rule:nonzero;fill:rgb(100%,72.156863%,72.156863%);fill-opacity:1;" d="M 213.082031 36.503906 L 205.5625 36.503906 L 205.5625 28.476562 L 213.082031 28.476562 Z M 213.082031 36.503906 "/>
<path style=" stroke:none;fill-rule:nonzero;fill:rgb(90.196078%,90.196078%,90.196078%);fill-opacity:1;" d="M 200.175781 73.761719 C 206.472656 75.242188 213.128906 77.378906 217.464844 75.269531 L 217.339844 36.253906 C 215.5 35.578125 213.980469 34.234375 213.082031 32.492188 L 210.074219 35 L 205.5625 32.238281 C 203.996094 34.136719 201.890625 36.132812 199.425781 36.882812 Z M 200.175781 73.761719 "/>
<path style=" stroke:none;fill-rule:nonzero;fill:rgb(18.431373%,18.039216%,25.490196%);fill-opacity:1;" d="M 210.324219 67.113281 C 209.246094 77.808594 214.28125 77.101562 220.847656 76.898438 C 218.117188 63.261719 218.207031 50.339844 221.597656 38.261719 C 218.171875 36.617188 215.164062 34.714844 213.082031 32.238281 C 213.183594 32.511719 212.863281 32.347656 212.953125 32.617188 C 215.082031 38.949219 214.367188 45.375 210.324219 51.058594 Z M 210.324219 67.113281 "/>
<path style=" stroke:none;fill-rule:nonzero;fill:rgb(100%,72.156863%,72.156863%);fill-opacity:1;" d="M 222.476562 77.777344 L 220.746094 81.242188 C 220.375 81.980469 220.367188 82.847656 220.71875 83.59375 C 221.066406 84.339844 221.742188 84.882812 222.542969 85.070312 C 223.328125 85.25 224.152344 85.070312 224.789062 84.578125 C 225.425781 84.085938 225.808594 83.335938 225.835938 82.53125 L 225.984375 77.777344 L 225.984375 74.015625 L 222.476562 74.015625 Z M 222.476562 77.777344 "/>
<path style=" stroke:none;fill-rule:nonzero;fill:rgb(18.431373%,18.039216%,25.490196%);fill-opacity:1;" d="M 210.824219 67.367188 C 210.578125 75.53125 209.746094 76.761719 197.796875 76.398438 C 200.527344 62.757812 200.4375 49.839844 197.046875 37.761719 C 200.472656 36.113281 203.480469 34.210938 205.5625 31.738281 C 205.421875 32.113281 205.796875 32.242188 205.691406 32.617188 C 203.902344 38.886719 206.847656 45.464844 210.824219 51.058594 Z M 210.824219 67.367188 "/>
<path style=" stroke:none;fill-rule:nonzero;fill:rgb(100%,72.156863%,72.156863%);fill-opacity:1;" d="M 195.917969 76.773438 L 197.648438 80.242188 C 198.015625 80.976562 198.027344 81.84375 197.675781 82.589844 C 197.324219 83.335938 196.652344 83.878906 195.851562 84.066406 C 195.066406 84.246094 194.242188 84.066406 193.605469 83.574219 C 192.96875 83.085938 192.585938 82.332031 192.558594 81.527344 L 192.410156 76.773438 L 192.410156 73.011719 L 195.917969 73.011719 Z M 195.917969 76.773438 "/>
<path style=" stroke:none;fill-rule:nonzero;fill:rgb(18.431373%,18.039216%,25.490196%);fill-opacity:1;" d="M 209.777344 15.0625 C 210.800781 15.109375 211.792969 15.402344 212.679688 15.917969 C 212.882812 16.035156 212.789062 16.460938 212.976562 16.601562 C 213.210938 16.777344 213.726562 16.671875 213.933594 16.875 C 215.304688 18.214844 216 20.097656 215.828125 22.007812 L 215.492188 25.328125 L 214.707031 24.46875 C 213.296875 22.902344 211.335938 21.9375 209.238281 21.777344 C 209.148438 21.773438 209.058594 21.765625 208.96875 21.765625 L 209.574219 20.703125 L 208.523438 21.757812 C 208.042969 21.761719 207.5625 21.800781 207.089844 21.875 L 207.894531 20.460938 L 206.347656 22.007812 C 205.066406 22.292969 203.996094 23.167969 203.464844 24.367188 L 203.292969 24.746094 L 203.097656 21.578125 C 203.0625 19.808594 203.757812 18.101562 205.023438 16.867188 C 206.289062 15.628906 208.011719 14.976562 209.777344 15.0625 Z M 209.777344 15.0625 "/>
<path style=" stroke:none;fill-rule:nonzero;fill:rgb(100%,72.156863%,72.156863%);fill-opacity:1;" d="M 215.816406 25.089844 C 215.816406 24.460938 215.601562 23.949219 215.335938 23.949219 C 215.070312 23.949219 214.855469 24.460938 214.855469 25.089844 C 214.855469 25.722656 215.070312 26.230469 215.335938 26.230469 C 215.601562 26.230469 215.816406 25.722656 215.816406 25.089844 Z M 215.816406 25.089844 "/>
<path style=" stroke:none;fill-rule:nonzero;fill:rgb(100%,72.156863%,72.156863%);fill-opacity:1;" d="M 203.8125 24.730469 C 203.8125 24.097656 203.597656 23.585938 203.332031 23.585938 C 203.066406 23.585938 202.851562 24.097656 202.851562 24.730469 C 202.851562 25.359375 203.066406 25.871094 203.332031 25.871094 C 203.597656 25.871094 203.8125 25.359375 203.8125 24.730469 Z M 203.8125 24.730469 "/>
<path style=" stroke:none;fill-rule:nonzero;fill:rgb(18.431373%,18.039216%,25.490196%);fill-opacity:1;" d="M 196.671875 75.269531 L 190.78125 75.644531 L 193.789062 42.558594 C 193.789062 40.015625 195.472656 37.78125 197.914062 37.082031 L 199.050781 36.757812 C 200.683594 50.351562 198.855469 63.371094 196.671875 75.269531 Z M 196.671875 75.269531 "/>
<path style=" stroke:none;fill-rule:nonzero;fill:rgb(18.431373%,18.039216%,25.490196%);fill-opacity:1;" d="M 221.972656 76.023438 L 226.484375 76.273438 L 224.855469 43.058594 C 224.855469 40.515625 223.171875 38.28125 220.730469 37.582031 L 219.59375 37.257812 C 217.960938 50.855469 219.789062 64.121094 221.972656 76.023438 Z M 221.972656 76.023438 "/>
</g>
</svg>
