<?xml version="1.0" encoding="UTF-8"?>
<svg xmlns="http://www.w3.org/2000/svg" xmlns:xlink="http://www.w3.org/1999/xlink" width="219pt" height="143pt" viewBox="0 0 219 143" version="1.1">
<g id="surface1">
<path style=" stroke:none;fill-rule:nonzero;fill:rgb(62.745098%,38.039216%,41.568627%);fill-opacity:1;" d="M 204.339844 76.949219 L 203.757812 84.890625 C 203.695312 85.769531 202.996094 86.46875 202.117188 86.527344 C 201.625 86.558594 201.136719 86.382812 200.78125 86.039062 C 200.421875 85.695312 200.226562 85.214844 200.238281 84.71875 L 200.421875 76.949219 L 207.238281 55.03125 L 206.414062 41.601562 L 212.863281 41.371094 L 212.402344 56.851562 Z M 204.339844 76.949219 "/>
<path style=" stroke:none;fill-rule:nonzero;fill:rgb(38.823529%,59.607843%,100%);fill-opacity:1;" d="M 214.195312 44.097656 C 211.320312 43.433594 208.855469 44.207031 206.945312 46.90625 L 205.46875 35.683594 C 205.316406 34.226562 206.257812 32.882812 207.671875 32.523438 C 209.183594 32.144531 210.726562 33.011719 211.195312 34.5 Z M 214.195312 44.097656 "/>
<path style=" stroke:none;fill-rule:nonzero;fill:rgb(18.431373%,18.039216%,25.490196%);fill-opacity:1;" d="M 214.535156 30.925781 C 207.886719 28.09375 201.058594 29.890625 192.972656 31.136719 C 192.898438 29.625 191.984375 27.789062 192.941406 26.734375 C 194.101562 25.453125 193.992188 24.109375 193.296875 22.757812 C 191.507812 19.296875 194.070312 15.617188 196.652344 12.558594 C 197.832031 11.164062 199.609375 10.414062 201.429688 10.546875 L 206.214844 10.890625 C 208.601562 11.0625 209.179688 12.699219 209.855469 15 C 210.996094 16.558594 211.609375 18.113281 211.222656 19.660156 C 212.9375 20.832031 213.222656 22.25 212.453125 23.84375 C 211.800781 24.851562 211.808594 25.828125 212.484375 26.78125 C 213.371094 27.992188 214.050781 29.34375 214.492188 30.78125 Z M 214.535156 30.925781 "/>
<path style=" stroke:none;fill-rule:nonzero;fill:rgb(62.745098%,38.039216%,41.568627%);fill-opacity:1;" d="M 190.804688 134.417969 L 187.625 134.417969 L 185.738281 108.078125 L 193.800781 107.847656 Z M 190.804688 134.417969 "/>
<path style=" stroke:none;fill-rule:nonzero;fill:rgb(18.431373%,18.039216%,25.490196%);fill-opacity:1;" d="M 191.035156 142.964844 C 190.1875 143.351562 189.476562 140.210938 188.761719 140.914062 C 186.761719 142.886719 181.964844 142.445312 181.964844 142.445312 C 181.636719 142.339844 181.367188 142.105469 181.21875 141.796875 C 181.070312 141.488281 181.054688 141.128906 181.175781 140.808594 C 181.320312 140.421875 181.644531 140.132812 182.042969 140.03125 L 184.171875 139.5 L 187.511719 133.609375 L 190.921875 133.378906 C 192.460938 135.347656 193.015625 137.914062 192.429688 140.347656 C 192.117188 141.613281 191.640625 142.6875 191.035156 142.964844 Z M 191.035156 142.964844 "/>
<path style=" stroke:none;fill-rule:nonzero;fill:rgb(62.745098%,38.039216%,41.568627%);fill-opacity:1;" d="M 211.980469 134.417969 L 208.800781 134.417969 L 206.910156 108.078125 L 215.203125 106.460938 Z M 211.980469 134.417969 "/>
<path style=" stroke:none;fill-rule:nonzero;fill:rgb(18.431373%,18.039216%,25.490196%);fill-opacity:1;" d="M 212.210938 142.964844 C 211.363281 143.351562 210.652344 140.210938 209.9375 140.914062 C 207.9375 142.886719 203.136719 142.445312 203.136719 142.445312 C 202.8125 142.339844 202.542969 142.105469 202.394531 141.796875 C 202.246094 141.488281 202.226562 141.128906 202.347656 140.808594 C 202.492188 140.421875 202.816406 140.132812 203.214844 140.03125 L 205.34375 139.5 L 208.683594 133.609375 L 212.324219 133.144531 L 212.417969 133.296875 C 213.839844 135.597656 214.207031 138.402344 213.421875 140.996094 C 213.121094 141.96875 212.707031 142.738281 212.210938 142.964844 Z M 212.210938 142.964844 "/>
<path style=" stroke:none;fill-rule:nonzero;fill:rgb(18.431373%,18.039216%,25.490196%);fill-opacity:1;" d="M 219.109375 109.269531 C 213.96875 111.546875 210.890625 109.078125 205.660156 109.824219 C 204.164062 110.039062 202.40625 88.011719 200.90625 88.101562 C 198.996094 88.21875 197.339844 110.417969 195.417969 110.34375 C 190.585938 110.136719 185.789062 109.375 181.128906 108.078125 C 186.113281 88.699219 191.996094 71.179688 191.957031 56.785156 L 206.902344 55.632812 L 208.960938 58.902344 C 212.257812 66.664062 215.628906 75.28125 217.308594 84.300781 Z M 219.109375 109.269531 "/>
<path style=" stroke:none;fill-rule:nonzero;fill:rgb(62.745098%,38.039216%,41.568627%);fill-opacity:1;" d="M 206.242188 20.050781 C 206.242188 23.878906 203.148438 26.984375 199.332031 26.984375 C 195.511719 26.984375 192.417969 23.878906 192.417969 20.050781 C 192.417969 16.222656 195.511719 13.121094 199.332031 13.121094 C 203.148438 13.121094 206.242188 16.222656 206.242188 20.050781 Z M 206.242188 20.050781 "/>
<path style=" stroke:none;fill-rule:nonzero;fill:rgb(62.745098%,38.039216%,41.568627%);fill-opacity:1;" d="M 206.933594 32.296875 L 198.410156 32.757812 L 197.027344 25.132812 L 203.9375 23.980469 Z M 206.933594 32.296875 "/>
<path style=" stroke:none;fill-rule:nonzero;fill:rgb(38.823529%,59.607843%,100%);fill-opacity:1;" d="M 207.59375 56.785156 L 196.671875 57.050781 L 191.957031 57.710938 C 189.644531 50.042969 187.695312 42.394531 192.417969 35.992188 L 197.949219 30.449219 L 206.242188 30.21875 L 206.351562 30.28125 C 209.066406 31.839844 210.335938 35.078125 209.414062 38.074219 C 207.355469 44.78125 207.613281 51.113281 207.59375 56.785156 Z M 207.59375 56.785156 "/>
<path style=" stroke:none;fill-rule:nonzero;fill:rgb(18.431373%,18.039216%,25.490196%);fill-opacity:1;" d="M 207.175781 20.015625 C 207.179688 17.945312 206.421875 15.949219 205.050781 14.402344 L 205.050781 11.941406 L 197.558594 11.941406 C 195.152344 11.941406 193.203125 13.894531 193.203125 16.304688 L 198.199219 16.304688 C 196.851562 18.792969 196.273438 21.398438 197.570312 23.910156 C 198.351562 25.425781 198.386719 28.4375 197.316406 29.882812 C 197.878906 29.914062 198.445312 29.914062 199.007812 29.882812 C 201.324219 29.882812 207.636719 30.183594 209.160156 28.671875 C 210.707031 27.136719 207.175781 22.367188 207.175781 20.015625 Z M 207.175781 20.015625 "/>
<path style=" stroke:none;fill-rule:nonzero;fill:rgb(90.196078%,90.196078%,90.196078%);fill-opacity:1;" d="M 195.554688 77.679688 L 151.277344 77.679688 C 150.695312 77.679688 150.226562 78.152344 150.222656 78.734375 L 150.222656 125.339844 C 150.226562 125.925781 150.695312 126.398438 151.277344 126.398438 L 195.554688 126.398438 C 196.136719 126.398438 196.609375 125.925781 196.609375 125.339844 L 196.609375 78.734375 C 196.609375 78.152344 196.136719 77.679688 195.554688 77.679688 Z M 195.554688 77.679688 "/>
<path style=" stroke:none;fill-rule:nonzero;fill:rgb(100%,100%,100%);fill-opacity:1;" d="M 194.5 79 L 152.335938 79 C 151.898438 79.003906 151.542969 79.355469 151.542969 79.792969 L 151.542969 124.28125 C 151.542969 124.71875 151.898438 125.074219 152.335938 125.074219 L 194.5 125.074219 C 194.9375 125.074219 195.289062 124.71875 195.292969 124.28125 L 195.292969 79.792969 C 195.289062 79.355469 194.9375 79.003906 194.5 79 Z M 194.5 79 "/>
<path style=" stroke:none;fill-rule:nonzero;fill:rgb(62.745098%,38.039216%,41.568627%);fill-opacity:1;" d="M 191.726562 78.273438 L 191.148438 86.214844 C 191.085938 87.09375 190.382812 87.789062 189.507812 87.847656 C 189.011719 87.882812 188.527344 87.703125 188.167969 87.359375 C 187.8125 87.015625 187.613281 86.539062 187.625 86.042969 L 187.8125 78.273438 L 193.570312 56.324219 L 193.800781 42.925781 L 200.253906 42.691406 L 199.792969 58.171875 Z M 191.726562 78.273438 "/>
<path style=" stroke:none;fill-rule:nonzero;fill:rgb(38.823529%,59.607843%,100%);fill-opacity:1;" d="M 200.941406 43.847656 C 198.207031 42.734375 195.652344 43.105469 193.339844 45.464844 L 193.65625 34.152344 C 193.738281 32.6875 194.882812 31.507812 196.335938 31.382812 C 197.886719 31.246094 199.273438 32.347656 199.5 33.894531 Z M 200.941406 43.847656 "/>
<path style=" stroke:none;fill-rule:nonzero;fill:rgb(90.196078%,90.196078%,90.196078%);fill-opacity:1;" d="M 191.371094 90.253906 C 191.621094 90.253906 191.824219 90.457031 191.824219 90.710938 L 191.824219 91.621094 C 191.824219 91.875 191.621094 92.078125 191.371094 92.078125 L 155.464844 92.078125 C 155.210938 92.078125 155.007812 91.875 155.007812 91.621094 L 155.007812 90.710938 C 155.007812 90.457031 155.210938 90.253906 155.464844 90.253906 L 191.371094 90.253906 "/>
<path style=" stroke:none;fill-rule:nonzero;fill:rgb(90.196078%,90.196078%,90.196078%);fill-opacity:1;" d="M 191.371094 94.585938 C 191.621094 94.585938 191.824219 94.789062 191.824219 95.039062 L 191.824219 95.953125 C 191.824219 96.203125 191.621094 96.40625 191.371094 96.40625 L 155.464844 96.40625 C 155.210938 96.40625 155.007812 96.203125 155.007812 95.953125 L 155.007812 95.039062 C 155.007812 94.789062 155.210938 94.585938 155.464844 94.585938 L 191.371094 94.585938 "/>
<path style=" stroke:none;fill-rule:nonzero;fill:rgb(38.823529%,59.607843%,100%);fill-opacity:1;" d="M 191.371094 98.914062 C 191.621094 98.914062 191.824219 99.117188 191.824219 99.371094 L 191.824219 100.28125 C 191.824219 100.535156 191.621094 100.738281 191.371094 100.738281 L 155.464844 100.738281 C 155.210938 100.738281 155.007812 100.535156 155.007812 100.28125 L 155.007812 99.371094 C 155.007812 99.117188 155.210938 98.914062 155.464844 98.914062 L 191.371094 98.914062 "/>
<path style=" stroke:none;fill-rule:nonzero;fill:rgb(90.196078%,90.196078%,90.196078%);fill-opacity:1;" d="M 191.371094 103.339844 C 191.621094 103.339844 191.824219 103.542969 191.824219 103.792969 L 191.824219 104.707031 C 191.824219 104.957031 191.621094 105.164062 191.371094 105.164062 L 155.464844 105.164062 C 155.210938 105.164062 155.007812 104.957031 155.007812 104.707031 L 155.007812 103.796875 C 155.007812 103.542969 155.210938 103.339844 155.464844 103.339844 L 191.371094 103.339844 "/>
<path style=" stroke:none;fill-rule:nonzero;fill:rgb(90.196078%,90.196078%,90.196078%);fill-opacity:1;" d="M 191.371094 107.667969 C 191.621094 107.667969 191.824219 107.875 191.824219 108.125 L 191.824219 109.035156 C 191.824219 109.289062 191.621094 109.492188 191.371094 109.492188 L 155.464844 109.492188 C 155.210938 109.492188 155.007812 109.289062 155.007812 109.035156 L 155.007812 108.125 C 155.007812 107.875 155.210938 107.667969 155.464844 107.667969 L 191.371094 107.667969 "/>
<path style=" stroke:none;fill-rule:nonzero;fill:rgb(90.196078%,90.196078%,90.196078%);fill-opacity:1;" d="M 191.371094 112 C 191.621094 112 191.824219 112.203125 191.824219 112.457031 L 191.824219 113.367188 C 191.824219 113.617188 191.621094 113.824219 191.371094 113.824219 L 155.464844 113.824219 C 155.210938 113.824219 155.007812 113.617188 155.007812 113.367188 L 155.007812 112.457031 C 155.007812 112.203125 155.210938 112 155.464844 112 L 191.371094 112 "/>
<path style=" stroke:none;fill-rule:nonzero;fill:rgb(18.431373%,18.039216%,25.490196%);fill-opacity:1;" d="M 32.90625 133.179688 L 29.378906 133.375 L 21.351562 79.164062 L 13.808594 133.277344 L 9.988281 132.394531 C 7.867188 109.066406 5.105469 84.953125 7.050781 74.449219 L 33.886719 74.449219 C 37.871094 84.890625 35.210938 109.414062 32.90625 133.179688 Z M 32.90625 133.179688 "/>
<path style=" stroke:none;fill-rule:nonzero;fill:rgb(18.431373%,18.039216%,25.490196%);fill-opacity:1;" d="M 10.972656 142.996094 C 10.03125 142.945312 9.160156 142.480469 8.597656 141.722656 C 8.039062 140.964844 7.84375 139.992188 8.066406 139.078125 L 9.671875 132.539062 C 11.011719 130.871094 12.214844 130.941406 13.292969 132.539062 L 14.394531 132.066406 L 15.179688 137.75 L 14.09375 140.925781 C 13.617188 142.226562 12.351562 143.066406 10.972656 142.996094 Z M 10.972656 142.996094 "/>
<path style=" stroke:none;fill-rule:nonzero;fill:rgb(18.431373%,18.039216%,25.490196%);fill-opacity:1;" d="M 32.316406 142.996094 C 33.257812 142.945312 34.125 142.480469 34.6875 141.722656 C 35.25 140.964844 35.445312 139.992188 35.21875 139.078125 L 33.617188 132.539062 C 32.273438 130.871094 31.074219 130.941406 29.996094 132.539062 L 28.894531 132.066406 L 28.109375 137.75 L 29.191406 140.925781 C 29.671875 142.226562 30.9375 143.066406 32.316406 142.996094 Z M 32.316406 142.996094 "/>
<path style=" stroke:none;fill-rule:nonzero;fill:rgb(100%,72.156863%,72.156863%);fill-opacity:1;" d="M 29.96875 11.199219 C 29.96875 15.539062 26.460938 19.058594 22.132812 19.058594 C 17.804688 19.058594 14.296875 15.539062 14.296875 11.199219 C 14.296875 6.863281 17.804688 3.34375 22.132812 3.34375 C 26.460938 3.34375 29.96875 6.863281 29.96875 11.199219 Z M 29.96875 11.199219 "/>
<path style=" stroke:none;fill-rule:nonzero;fill:rgb(100%,72.156863%,72.156863%);fill-opacity:1;" d="M 26.835938 25.734375 L 16.84375 25.734375 L 17.433594 15.324219 L 26.835938 15.324219 Z M 26.835938 25.734375 "/>
<path style=" stroke:none;fill-rule:nonzero;fill:rgb(38.823529%,59.607843%,100%);fill-opacity:1;" d="M 37.410156 75.628906 L 5.679688 75.628906 C 10.308594 59.984375 9.492188 43.226562 6.070312 25.933594 L 14.691406 23.183594 L 17.039062 21.21875 C 19.992188 24.820312 23.25 24.792969 26.835938 21.023438 L 29.773438 23.183594 L 38.390625 26.128906 C 33.84375 42.789062 33.105469 59.304688 37.410156 75.628906 Z M 37.410156 75.628906 "/>
<path style=" stroke:none;fill-rule:nonzero;fill:rgb(18.431373%,18.039216%,25.490196%);fill-opacity:1;" d="M 13.765625 9.171875 C 13.101562 7.265625 13.273438 5.164062 14.246094 3.394531 C 15.203125 1.691406 17.046875 0.09375 20.59375 0.00390625 C 28.324219 -0.191406 31.675781 5.65625 31.242188 7.371094 C 30.804688 9.085938 29.246094 13.164062 29.246094 13.164062 C 29.246094 13.164062 30.214844 9.238281 28.28125 8.84375 C 26.347656 8.449219 18.855469 6.878906 16.679688 8.648438 C 15.417969 9.617188 14.769531 11.191406 14.988281 12.773438 Z M 13.765625 9.171875 "/>
<path style=" stroke:none;fill-rule:nonzero;fill:rgb(90.196078%,90.196078%,90.196078%);fill-opacity:1;" d="M 45.4375 77.941406 L 1.160156 77.941406 C 0.578125 77.945312 0.109375 78.417969 0.105469 79 L 0.105469 125.605469 C 0.105469 126.1875 0.578125 126.660156 1.160156 126.664062 L 45.4375 126.664062 C 46.019531 126.660156 46.488281 126.1875 46.492188 125.605469 L 46.492188 79 C 46.488281 78.417969 46.019531 77.945312 45.4375 77.941406 Z M 45.4375 77.941406 "/>
<path style=" stroke:none;fill-rule:nonzero;fill:rgb(100%,100%,100%);fill-opacity:1;" d="M 44.382812 79.265625 L 2.214844 79.265625 C 1.78125 79.265625 1.425781 79.621094 1.425781 80.058594 L 1.425781 124.546875 C 1.425781 124.984375 1.78125 125.339844 2.214844 125.339844 L 44.382812 125.339844 C 44.816406 125.339844 45.171875 124.984375 45.171875 124.546875 L 45.171875 80.058594 C 45.171875 79.621094 44.816406 79.265625 44.382812 79.265625 Z M 44.382812 79.265625 "/>
<path style=" stroke:none;fill-rule:nonzero;fill:rgb(100%,72.156863%,72.156863%);fill-opacity:1;" d="M 36.382812 81.742188 C 35.574219 81.425781 34.925781 80.792969 34.589844 79.992188 C 34.253906 79.1875 34.253906 78.285156 34.59375 77.484375 L 37.214844 71.304688 L 36.824219 51.664062 L 35.453125 44.984375 L 42.503906 42.234375 L 43.875 51.46875 L 41.328125 72.679688 L 40.742188 79.039062 C 40.648438 80.042969 40.089844 80.949219 39.234375 81.480469 C 38.378906 82.011719 37.324219 82.105469 36.382812 81.742188 Z M 36.382812 81.742188 "/>
<path style=" stroke:none;fill-rule:nonzero;fill:rgb(100%,72.156863%,72.156863%);fill-opacity:1;" d="M 7.492188 81.742188 C 8.300781 81.425781 8.949219 80.792969 9.285156 79.992188 C 9.621094 79.1875 9.621094 78.285156 9.28125 77.484375 L 6.660156 71.304688 L 7.050781 51.664062 L 8.421875 44.984375 L 1.371094 42.234375 L 0 51.46875 L 2.546875 72.679688 L 3.132812 79.039062 C 3.226562 80.042969 3.785156 80.949219 4.640625 81.480469 C 5.496094 82.011719 6.550781 82.105469 7.492188 81.742188 Z M 7.492188 81.742188 "/>
<path style=" stroke:none;fill-rule:nonzero;fill:rgb(38.823529%,59.607843%,100%);fill-opacity:1;" d="M 43.089844 42.824219 C 40.296875 43.542969 37.644531 44.738281 35.257812 46.359375 L 33.492188 41.058594 L 38 25.933594 C 40.484375 26.761719 42.21875 29.023438 42.386719 31.648438 C 42.28125 35.386719 42.519531 39.128906 43.089844 42.824219 Z M 43.089844 42.824219 "/>
<path style=" stroke:none;fill-rule:nonzero;fill:rgb(38.823529%,59.607843%,100%);fill-opacity:1;" d="M 0.785156 42.824219 C 3.578125 43.542969 6.230469 44.738281 8.617188 46.359375 L 10.382812 41.058594 L 6.464844 25.734375 C 3.976562 26.566406 1.65625 29.023438 1.488281 31.648438 C 1.59375 35.386719 1.355469 39.128906 0.785156 42.824219 Z M 0.785156 42.824219 "/>
<path style=" stroke:none;fill-rule:nonzero;fill:rgb(90.196078%,90.196078%,90.196078%);fill-opacity:1;" d="M 41.253906 90.273438 C 41.503906 90.273438 41.707031 90.476562 41.707031 90.730469 L 41.707031 91.640625 C 41.707031 91.890625 41.503906 92.097656 41.253906 92.097656 L 5.34375 92.097656 C 5.09375 92.097656 4.890625 91.890625 4.890625 91.640625 L 4.890625 90.730469 C 4.890625 90.476562 5.09375 90.273438 5.34375 90.273438 L 41.253906 90.273438 "/>
<path style=" stroke:none;fill-rule:nonzero;fill:rgb(90.196078%,90.196078%,90.196078%);fill-opacity:1;" d="M 41.253906 94.601562 C 41.503906 94.601562 41.707031 94.808594 41.707031 95.058594 L 41.707031 95.96875 C 41.707031 96.222656 41.503906 96.425781 41.253906 96.425781 L 5.34375 96.425781 C 5.09375 96.425781 4.890625 96.222656 4.890625 95.96875 L 4.890625 95.058594 C 4.890625 94.808594 5.09375 94.601562 5.34375 94.601562 L 41.253906 94.601562 "/>
<path style=" stroke:none;fill-rule:nonzero;fill:rgb(38.823529%,59.607843%,100%);fill-opacity:1;" d="M 41.253906 98.933594 C 41.503906 98.933594 41.707031 99.136719 41.707031 99.390625 L 41.707031 100.300781 C 41.707031 100.550781 41.503906 100.757812 41.253906 100.757812 L 5.34375 100.757812 C 5.09375 100.757812 4.890625 100.550781 4.890625 100.300781 L 4.890625 99.390625 C 4.890625 99.136719 5.09375 98.933594 5.34375 98.933594 L 41.253906 98.933594 "/>
<path style=" stroke:none;fill-rule:nonzero;fill:rgb(90.196078%,90.196078%,90.196078%);fill-opacity:1;" d="M 41.253906 103.359375 C 41.503906 103.359375 41.707031 103.5625 41.707031 103.8125 L 41.707031 104.726562 C 41.707031 104.976562 41.503906 105.179688 41.253906 105.179688 L 5.34375 105.179688 C 5.09375 105.179688 4.890625 104.976562 4.890625 104.726562 L 4.890625 103.8125 C 4.890625 103.5625 5.09375 103.359375 5.34375 103.359375 L 41.253906 103.359375 "/>
<path style=" stroke:none;fill-rule:nonzero;fill:rgb(90.196078%,90.196078%,90.196078%);fill-opacity:1;" d="M 41.253906 107.6875 C 41.503906 107.6875 41.707031 107.890625 41.707031 108.144531 L 41.707031 109.054688 C 41.707031 109.308594 41.503906 109.511719 41.253906 109.511719 L 5.34375 109.511719 C 5.09375 109.511719 4.890625 109.308594 4.890625 109.054688 L 4.890625 108.144531 C 4.890625 107.890625 5.09375 107.6875 5.34375 107.6875 L 41.253906 107.6875 "/>
<path style=" stroke:none;fill-rule:nonzero;fill:rgb(90.196078%,90.196078%,90.196078%);fill-opacity:1;" d="M 41.253906 112.019531 C 41.503906 112.019531 41.707031 112.222656 41.707031 112.472656 L 41.707031 113.386719 C 41.707031 113.636719 41.503906 113.839844 41.253906 113.839844 L 5.34375 113.839844 C 5.09375 113.839844 4.890625 113.636719 4.890625 113.386719 L 4.890625 112.472656 C 4.890625 112.222656 5.09375 112.019531 5.34375 112.019531 L 41.253906 112.019531 "/>
<path style=" stroke:none;fill-rule:nonzero;fill:rgb(90.196078%,90.196078%,90.196078%);fill-opacity:1;" d="M 130.859375 46.5625 L 86.582031 46.5625 C 86 46.566406 85.527344 47.039062 85.527344 47.621094 L 85.527344 125.34375 C 85.53125 125.929688 86 126.402344 86.582031 126.402344 L 130.859375 126.402344 C 131.441406 126.402344 131.914062 125.929688 131.914062 125.34375 L 131.914062 47.621094 C 131.914062 47.039062 131.441406 46.566406 130.859375 46.5625 Z M 130.859375 46.5625 "/>
<path style=" stroke:none;fill-rule:nonzero;fill:rgb(100%,100%,100%);fill-opacity:1;" d="M 130.578125 48.511719 C 130.554688 48.417969 130.519531 48.328125 130.464844 48.246094 C 130.316406 48.023438 130.070312 47.886719 129.804688 47.886719 L 87.636719 47.886719 C 87.203125 47.886719 86.847656 48.242188 86.847656 48.679688 L 86.847656 124.289062 C 86.847656 124.726562 87.203125 125.078125 87.636719 125.082031 L 129.804688 125.082031 C 130.238281 125.078125 130.59375 124.726562 130.59375 124.289062 L 130.59375 48.679688 C 130.59375 48.625 130.589844 48.566406 130.578125 48.511719 Z M 130.578125 48.511719 "/>
<path style=" stroke:none;fill-rule:nonzero;fill:rgb(90.196078%,90.196078%,90.196078%);fill-opacity:1;" d="M 126.675781 88.949219 C 126.925781 88.949219 127.128906 89.152344 127.128906 89.40625 L 127.128906 90.316406 C 127.128906 90.570312 126.925781 90.773438 126.675781 90.773438 L 90.765625 90.773438 C 90.515625 90.773438 90.3125 90.570312 90.3125 90.316406 L 90.3125 89.40625 C 90.3125 89.152344 90.515625 88.949219 90.765625 88.949219 L 126.675781 88.949219 "/>
<path style=" stroke:none;fill-rule:nonzero;fill:rgb(90.196078%,90.196078%,90.196078%);fill-opacity:1;" d="M 126.675781 93.28125 C 126.925781 93.28125 127.128906 93.484375 127.128906 93.734375 L 127.128906 94.648438 C 127.128906 94.898438 126.925781 95.101562 126.675781 95.101562 L 90.765625 95.101562 C 90.515625 95.101562 90.3125 94.898438 90.3125 94.648438 L 90.3125 93.734375 C 90.3125 93.484375 90.515625 93.28125 90.765625 93.28125 L 126.675781 93.28125 "/>
<path style=" stroke:none;fill-rule:nonzero;fill:rgb(38.823529%,59.607843%,100%);fill-opacity:1;" d="M 126.675781 97.609375 C 126.925781 97.609375 127.128906 97.8125 127.128906 98.066406 L 127.128906 98.976562 C 127.128906 99.230469 126.925781 99.433594 126.675781 99.433594 L 90.765625 99.433594 C 90.515625 99.433594 90.3125 99.230469 90.3125 98.976562 L 90.3125 98.066406 C 90.3125 97.8125 90.515625 97.609375 90.765625 97.609375 L 126.675781 97.609375 "/>
<path style=" stroke:none;fill-rule:nonzero;fill:rgb(90.196078%,90.196078%,90.196078%);fill-opacity:1;" d="M 126.675781 102.035156 C 126.925781 102.035156 127.128906 102.238281 127.128906 102.492188 L 127.128906 103.402344 C 127.128906 103.652344 126.925781 103.859375 126.675781 103.859375 L 90.765625 103.859375 C 90.515625 103.859375 90.3125 103.652344 90.3125 103.402344 L 90.3125 102.492188 C 90.3125 102.238281 90.515625 102.035156 90.765625 102.035156 L 126.675781 102.035156 "/>
<path style=" stroke:none;fill-rule:nonzero;fill:rgb(90.196078%,90.196078%,90.196078%);fill-opacity:1;" d="M 126.675781 106.363281 C 126.925781 106.363281 127.128906 106.570312 127.128906 106.820312 L 127.128906 107.734375 C 127.128906 107.984375 126.925781 108.1875 126.675781 108.1875 L 90.765625 108.1875 C 90.515625 108.1875 90.3125 107.984375 90.3125 107.734375 L 90.3125 106.820312 C 90.3125 106.570312 90.515625 106.363281 90.765625 106.363281 L 126.675781 106.363281 "/>
<path style=" stroke:none;fill-rule:nonzero;fill:rgb(90.196078%,90.196078%,90.196078%);fill-opacity:1;" d="M 126.675781 110.695312 C 126.925781 110.695312 127.128906 110.898438 127.128906 111.152344 L 127.128906 112.0625 C 127.128906 112.3125 126.925781 112.519531 126.675781 112.519531 L 90.765625 112.519531 C 90.515625 112.519531 90.3125 112.3125 90.3125 112.0625 L 90.3125 111.152344 C 90.3125 110.898438 90.515625 110.695312 90.765625 110.695312 L 126.675781 110.695312 "/>
<path style=" stroke:none;fill-rule:nonzero;fill:rgb(38.823529%,59.607843%,100%);fill-opacity:1;" d="M 91.027344 55.148438 C 90.734375 55.152344 90.5 55.386719 90.5 55.679688 L 90.5 80.261719 C 90.5 80.554688 90.734375 80.789062 91.027344 80.792969 L 126.414062 80.792969 C 126.707031 80.789062 126.941406 80.554688 126.941406 80.261719 L 126.941406 55.679688 C 126.941406 55.386719 126.707031 55.152344 126.414062 55.148438 Z M 91.027344 55.148438 "/>
<path style=" stroke:none;fill-rule:nonzero;fill:rgb(80%,80%,80%);fill-opacity:1;" d="M 145.984375 36.058594 C 146.945312 36.46875 147.902344 36.921875 148.824219 37.410156 L 149.070312 36.941406 C 148.136719 36.449219 147.164062 35.988281 146.191406 35.570312 Z M 145.984375 36.058594 "/>
<path style=" stroke:none;fill-rule:nonzero;fill:rgb(80%,80%,80%);fill-opacity:1;" d="M 156.910156 42.394531 L 156.558594 42.789062 C 157.335938 43.484375 158.09375 44.222656 158.8125 44.984375 L 159.195312 44.621094 C 158.46875 43.851562 157.699219 43.101562 156.910156 42.394531 Z M 156.910156 42.394531 "/>
<path style=" stroke:none;fill-rule:nonzero;fill:rgb(80%,80%,80%);fill-opacity:1;" d="M 151.546875 38.988281 C 152.429688 39.550781 153.296875 40.152344 154.132812 40.785156 L 154.449219 40.363281 C 153.605469 39.722656 152.722656 39.109375 151.832031 38.542969 Z M 151.546875 38.988281 "/>
<path style=" stroke:none;fill-rule:nonzero;fill:rgb(80%,80%,80%);fill-opacity:1;" d="M 140.023438 34.074219 C 141.039062 34.324219 142.054688 34.617188 143.042969 34.945312 L 143.210938 34.441406 C 142.207031 34.109375 141.179688 33.8125 140.148438 33.558594 Z M 140.023438 34.074219 "/>
<path style=" stroke:none;fill-rule:nonzero;fill:rgb(80%,80%,80%);fill-opacity:1;" d="M 168.976562 64.359375 L 168.457031 64.441406 C 168.621094 65.472656 168.742188 66.527344 168.820312 67.570312 L 169.34375 67.53125 C 169.269531 66.472656 169.144531 65.402344 168.976562 64.359375 Z M 168.976562 64.359375 "/>
<path style=" stroke:none;fill-rule:nonzero;fill:rgb(80%,80%,80%);fill-opacity:1;" d="M 166.925781 58.339844 C 167.265625 59.328125 167.570312 60.34375 167.824219 61.355469 L 168.335938 61.226562 C 168.078125 60.199219 167.769531 59.167969 167.425781 58.164062 Z M 166.925781 58.339844 "/>
<path style=" stroke:none;fill-rule:nonzero;fill:rgb(80%,80%,80%);fill-opacity:1;" d="M 164.371094 52.589844 C 164.875 53.507812 165.347656 54.457031 165.773438 55.410156 L 166.253906 55.195312 C 165.824219 54.226562 165.34375 53.265625 164.832031 52.335938 Z M 164.371094 52.589844 "/>
<path style=" stroke:none;fill-rule:nonzero;fill:rgb(80%,80%,80%);fill-opacity:1;" d="M 160.875 47.359375 C 161.527344 48.175781 162.152344 49.03125 162.734375 49.902344 L 163.171875 49.605469 C 162.585938 48.726562 161.949219 47.859375 161.289062 47.03125 Z M 160.875 47.359375 "/>
<path style=" stroke:none;fill-rule:nonzero;fill:rgb(80%,80%,80%);fill-opacity:1;" d="M 135.28125 30.378906 C 134.082031 31.332031 132.183594 32.199219 130.660156 32.6875 C 132.132812 33.3125 133.945312 34.347656 135.050781 35.40625 L 134.34375 33.125 C 135.214844 33.203125 136.085938 33.3125 136.945312 33.449219 L 137.027344 32.929688 C 136.148438 32.789062 135.257812 32.675781 134.367188 32.59375 Z M 135.28125 30.378906 "/>
<path style=" stroke:none;fill-rule:nonzero;fill:rgb(80%,80%,80%);fill-opacity:1;" d="M 51.273438 55.195312 L 51.753906 55.410156 C 52.179688 54.457031 52.648438 53.507812 53.15625 52.589844 L 52.695312 52.335938 C 52.179688 53.265625 51.703125 54.226562 51.273438 55.195312 Z M 51.273438 55.195312 "/>
<path style=" stroke:none;fill-rule:nonzero;fill:rgb(80%,80%,80%);fill-opacity:1;" d="M 49.191406 61.226562 L 49.703125 61.355469 C 49.957031 60.34375 50.257812 59.328125 50.601562 58.339844 L 50.101562 58.164062 C 49.753906 59.167969 49.449219 60.199219 49.191406 61.226562 Z M 49.191406 61.226562 "/>
<path style=" stroke:none;fill-rule:nonzero;fill:rgb(80%,80%,80%);fill-opacity:1;" d="M 48.179688 67.53125 L 48.707031 67.570312 C 48.785156 66.527344 48.90625 65.472656 49.070312 64.441406 L 48.550781 64.359375 C 48.382812 65.402344 48.257812 66.472656 48.179688 67.53125 Z M 48.179688 67.53125 "/>
<path style=" stroke:none;fill-rule:nonzero;fill:rgb(80%,80%,80%);fill-opacity:1;" d="M 54.355469 49.605469 L 54.792969 49.902344 C 55.371094 49.035156 55.996094 48.179688 56.648438 47.359375 L 56.238281 47.03125 C 55.574219 47.859375 54.941406 48.726562 54.355469 49.605469 Z M 54.355469 49.605469 "/>
<path style=" stroke:none;fill-rule:nonzero;fill:rgb(80%,80%,80%);fill-opacity:1;" d="M 68.457031 36.941406 L 68.699219 37.410156 C 69.625 36.921875 70.582031 36.46875 71.542969 36.058594 L 71.335938 35.570312 C 70.363281 35.988281 69.394531 36.449219 68.457031 36.941406 Z M 68.457031 36.941406 "/>
<path style=" stroke:none;fill-rule:nonzero;fill:rgb(80%,80%,80%);fill-opacity:1;" d="M 74.316406 34.441406 L 74.480469 34.945312 C 75.472656 34.617188 76.488281 34.324219 77.503906 34.074219 L 77.378906 33.558594 C 76.347656 33.8125 75.316406 34.109375 74.316406 34.441406 Z M 74.316406 34.441406 "/>
<path style=" stroke:none;fill-rule:nonzero;fill:rgb(80%,80%,80%);fill-opacity:1;" d="M 58.332031 44.621094 L 58.714844 44.984375 C 59.429688 44.222656 60.1875 43.484375 60.96875 42.785156 L 60.617188 42.390625 C 59.828125 43.101562 59.058594 43.851562 58.332031 44.621094 Z M 58.332031 44.621094 "/>
<path style=" stroke:none;fill-rule:nonzero;fill:rgb(80%,80%,80%);fill-opacity:1;" d="M 63.078125 40.363281 L 63.394531 40.785156 C 64.226562 40.152344 65.097656 39.546875 65.980469 38.988281 L 65.695312 38.542969 C 64.800781 39.109375 63.921875 39.722656 63.078125 40.363281 Z M 63.078125 40.363281 "/>
<path style=" stroke:none;fill-rule:nonzero;fill:rgb(80%,80%,80%);fill-opacity:1;" d="M 86.867188 32.6875 C 85.34375 32.199219 83.441406 31.332031 82.246094 30.378906 L 83.160156 32.59375 C 82.269531 32.675781 81.375 32.789062 80.5 32.929688 L 80.582031 33.449219 C 81.441406 33.3125 82.3125 33.203125 83.183594 33.125 L 82.472656 35.40625 C 83.578125 34.347656 85.394531 33.3125 86.867188 32.6875 Z M 86.867188 32.6875 "/>
<path style=" stroke:none;fill-rule:nonzero;fill:rgb(38.823529%,59.607843%,100%);fill-opacity:1;" d="M 108.722656 40.886719 C 104.203125 40.886719 100.542969 37.214844 100.542969 32.6875 C 100.542969 28.15625 104.203125 24.484375 108.722656 24.484375 C 113.238281 24.484375 116.898438 28.15625 116.898438 32.6875 C 116.894531 37.214844 113.234375 40.882812 108.722656 40.886719 Z M 108.722656 25.015625 C 104.496094 25.015625 101.070312 28.449219 101.070312 32.6875 C 101.070312 36.925781 104.496094 40.359375 108.722656 40.359375 C 112.945312 40.359375 116.371094 36.925781 116.371094 32.6875 C 116.367188 28.453125 112.945312 25.019531 108.722656 25.015625 Z M 108.722656 25.015625 "/>
<path style=" stroke:none;fill-rule:nonzero;fill:rgb(38.823529%,59.607843%,100%);fill-opacity:1;" d="M 107.929688 28.71875 L 109.511719 28.71875 L 109.511719 36.65625 L 107.929688 36.65625 Z M 107.929688 28.71875 "/>
<path style=" stroke:none;fill-rule:nonzero;fill:rgb(38.823529%,59.607843%,100%);fill-opacity:1;" d="M 112.679688 31.894531 L 112.679688 33.480469 L 104.761719 33.480469 L 104.761719 31.894531 Z M 112.679688 31.894531 "/>
</g>
</svg>
