<?xml version="1.0" encoding="UTF-8"?>
<svg xmlns="http://www.w3.org/2000/svg" xmlns:xlink="http://www.w3.org/1999/xlink" width="182pt" height="188pt" viewBox="0 0 182 188" version="1.1">
<g id="surface1">
<path style=" stroke:none;fill-rule:nonzero;fill:rgb(90.196078%,90.196078%,90.196078%);fill-opacity:1;" d="M 34.421875 70.230469 L 41.320312 65.722656 L 113.164062 174.828125 L 106.265625 179.335938 Z M 34.421875 70.230469 "/>
<path style=" stroke:none;fill-rule:nonzero;fill:rgb(90.196078%,90.196078%,90.196078%);fill-opacity:1;" d="M 24.894531 24.664062 L 40.855469 48.902344 C 41.5 49.878906 41.226562 51.191406 40.246094 51.832031 C 39.265625 52.472656 37.945312 52.203125 37.304688 51.222656 L 18.953125 23.359375 C 16.464844 23.152344 13.960938 23.5625 11.667969 24.550781 L 31.660156 54.910156 C 32.300781 55.890625 32.027344 57.199219 31.046875 57.839844 C 30.066406 58.484375 28.75 58.210938 28.105469 57.234375 L 8.113281 26.871094 C 6.289062 28.574219 4.914062 30.695312 4.109375 33.054688 L 22.460938 60.921875 C 23.105469 61.898438 22.828125 63.210938 21.847656 63.851562 C 20.867188 64.492188 19.550781 64.21875 18.90625 63.242188 L 2.945312 39.003906 C 2.535156 45.761719 4.746094 53.773438 9.597656 61.136719 C 18.609375 74.820312 33.304688 81.082031 42.425781 75.125 C 51.546875 69.164062 51.636719 53.242188 42.625 39.558594 C 37.777344 32.195312 31.28125 26.980469 24.894531 24.664062 Z M 24.894531 24.664062 "/>
<path style=" stroke:none;fill-rule:nonzero;fill:rgb(90.196078%,90.196078%,90.196078%);fill-opacity:1;" d="M 64 50.796875 L 72.25 50.796875 L 72.25 181.277344 L 64 181.277344 Z M 64 50.796875 "/>
<path style=" stroke:none;fill-rule:nonzero;fill:rgb(90.196078%,90.196078%,90.196078%);fill-opacity:1;" d="M 87.75 29.632812 C 87.75 13.265625 78.90625 0 68 0 C 57.09375 0 48.25 13.265625 48.25 29.632812 C 48.25 45.996094 57.09375 59.261719 68 59.261719 C 78.90625 59.261719 87.75 45.996094 87.75 29.632812 Z M 87.75 29.632812 "/>
<path style=" stroke:none;fill-rule:nonzero;fill:rgb(80%,80%,80%);fill-opacity:1;" d="M 84.25 29.632812 C 84.25 16.167969 76.976562 5.25 68 5.25 C 59.023438 5.25 51.75 16.167969 51.75 29.632812 C 51.75 43.097656 59.023438 54.011719 68 54.011719 C 76.976562 54.011719 84.25 43.097656 84.25 29.632812 Z M 84.25 29.632812 "/>
<path style=" stroke:none;fill-rule:nonzero;fill:rgb(90.196078%,90.196078%,90.196078%);fill-opacity:1;" d="M 182 182.769531 C 182 179.898438 141.257812 177.570312 91 177.570312 C 40.742188 177.570312 0 179.898438 0 182.769531 C 0 185.644531 40.742188 187.972656 91 187.972656 C 141.257812 187.972656 182 185.644531 182 182.769531 Z M 182 182.769531 "/>
<path style=" stroke:none;fill-rule:nonzero;fill:rgb(38.823529%,59.607843%,100%);fill-opacity:1;" d="M 144.816406 182.695312 C 110.714844 176.570312 75.785156 176.570312 41.683594 182.695312 C 40.585938 182.890625 39.457031 182.597656 38.601562 181.882812 C 37.746094 181.171875 37.25 180.121094 37.25 179.011719 L 37.25 132.472656 L 149.25 132.472656 L 149.25 179.011719 C 149.25 180.121094 148.753906 181.171875 147.898438 181.882812 C 147.042969 182.597656 145.914062 182.890625 144.816406 182.695312 Z M 144.816406 182.695312 "/>
<path style=" stroke:none;fill-rule:nonzero;fill:rgb(38.823529%,59.607843%,100%);fill-opacity:1;" d="M 139 98.109375 C 136.414062 98.105469 133.84375 98.535156 131.402344 99.375 C 124.121094 83.648438 108.359375 73.546875 90.976562 73.457031 C 73.589844 73.371094 57.726562 83.316406 50.289062 98.96875 C 40.433594 96.210938 29.925781 100.203125 24.414062 108.796875 C 18.902344 117.394531 19.683594 128.566406 26.339844 136.316406 C 32.992188 144.066406 43.953125 146.570312 53.332031 142.480469 C 61.667969 155.132812 75.878906 162.710938 91.074219 162.601562 C 106.265625 162.492188 120.367188 154.710938 128.519531 141.941406 C 137.101562 146.257812 147.46875 144.867188 154.597656 138.441406 C 161.730469 132.015625 164.152344 121.878906 160.695312 112.941406 C 157.238281 104.003906 148.617188 98.109375 139 98.109375 Z M 139 98.109375 "/>
<path style=" stroke:none;fill-rule:nonzero;fill:rgb(24.705882%,23.921569%,33.72549%);fill-opacity:1;" d="M 46.25 118.027344 L 45.75 118.027344 C 45.734375 111.398438 47.207031 104.847656 50.0625 98.859375 L 50.515625 99.074219 C 47.691406 104.996094 46.234375 111.472656 46.25 118.027344 Z M 46.25 118.027344 "/>
<path style=" stroke:none;fill-rule:nonzero;fill:rgb(24.705882%,23.921569%,33.72549%);fill-opacity:1;" d="M 135.75 118.027344 L 135.25 118.027344 C 135.265625 111.625 133.875 105.292969 131.175781 99.476562 L 131.628906 99.269531 C 134.359375 105.148438 135.765625 111.550781 135.75 118.027344 Z M 135.75 118.027344 "/>
<path style=" stroke:none;fill-rule:nonzero;fill:rgb(24.705882%,23.921569%,33.72549%);fill-opacity:1;" d="M 37.308594 154.128906 L 37.191406 153.644531 C 37.332031 153.609375 51.539062 150.132812 72.363281 148.410156 C 91.585938 146.816406 120.535156 146.433594 149.3125 153.644531 L 149.1875 154.128906 C 120.484375 146.933594 91.597656 147.316406 72.417969 148.902344 C 51.628906 150.625 37.449219 154.09375 37.308594 154.128906 Z M 37.308594 154.128906 "/>
<path style=" stroke:none;fill-rule:nonzero;fill:rgb(24.705882%,23.921569%,33.72549%);fill-opacity:1;" d="M 37.308594 160.851562 L 37.191406 160.367188 C 37.332031 160.332031 51.539062 156.855469 72.363281 155.132812 C 91.585938 153.539062 120.535156 153.15625 149.3125 160.367188 L 149.1875 160.851562 C 120.484375 153.65625 91.597656 154.039062 72.417969 155.628906 C 51.628906 157.347656 37.449219 160.816406 37.308594 160.851562 Z M 37.308594 160.851562 "/>
<path style=" stroke:none;fill-rule:nonzero;fill:rgb(24.705882%,23.921569%,33.72549%);fill-opacity:1;" d="M 37.308594 167.574219 L 37.191406 167.089844 C 37.332031 167.054688 51.539062 163.578125 72.363281 161.855469 C 91.585938 160.261719 120.535156 159.878906 149.3125 167.089844 L 149.1875 167.574219 C 120.484375 160.378906 91.597656 160.761719 72.417969 162.351562 C 51.628906 164.070312 37.449219 167.539062 37.308594 167.574219 Z M 37.308594 167.574219 "/>
<path style=" stroke:none;fill-rule:nonzero;fill:rgb(18.431373%,18.039216%,25.490196%);fill-opacity:1;" d="M 129.316406 131.015625 L 123.257812 128.964844 L 129.074219 99.402344 L 125.078125 99.039062 C 121.179688 102.019531 115.988281 103.1875 109.328125 102.296875 L 119.988281 118.347656 L 114.550781 122.167969 L 97.210938 101.449219 C 96.429688 100.515625 96 99.339844 96 98.121094 C 96 95.804688 97.539062 93.769531 99.773438 93.128906 L 118.292969 87.816406 L 139.976562 90.230469 C 143.257812 95.207031 143.386719 98.671875 138.394531 99.667969 Z M 129.316406 131.015625 "/>
<path style=" stroke:none;fill-rule:nonzero;fill:rgb(18.431373%,18.039216%,25.490196%);fill-opacity:1;" d="M 123.117188 142.515625 C 121.847656 142.4375 120.691406 141.757812 120.007812 140.691406 C 119.320312 139.621094 119.1875 138.292969 119.648438 137.109375 L 122.660156 129.398438 C 124.191406 126.511719 126.289062 126.875 128.769531 129.398438 L 129.980469 132.9375 C 130.183594 133.527344 130.136719 134.171875 129.847656 134.726562 L 126.914062 140.378906 C 126.183594 141.777344 124.695312 142.617188 123.117188 142.515625 Z M 123.117188 142.515625 "/>
<path style=" stroke:none;fill-rule:nonzero;fill:rgb(18.431373%,18.039216%,25.490196%);fill-opacity:1;" d="M 115.289062 132.417969 C 114.019531 132.335938 112.863281 131.660156 112.175781 130.589844 C 111.492188 129.523438 111.359375 128.191406 111.820312 127.011719 L 114.832031 119.296875 C 116.363281 116.410156 118.460938 116.773438 120.941406 119.296875 L 122.152344 122.835938 C 122.355469 123.425781 122.304688 124.070312 122.019531 124.625 L 119.082031 130.277344 C 118.355469 131.675781 116.867188 132.515625 115.289062 132.417969 Z M 115.289062 132.417969 "/>
<path style=" stroke:none;fill-rule:nonzero;fill:rgb(100%,72.54902%,72.54902%);fill-opacity:1;" d="M 125.925781 52.820312 C 125.925781 56.554688 122.886719 59.578125 119.140625 59.578125 C 115.394531 59.578125 112.355469 56.554688 112.355469 52.820312 C 112.355469 49.089844 115.394531 46.0625 119.140625 46.0625 C 122.886719 46.0625 125.925781 49.089844 125.925781 52.820312 Z M 125.925781 52.820312 "/>
<path style=" stroke:none;fill-rule:nonzero;fill:rgb(100%,72.54902%,72.54902%);fill-opacity:1;" d="M 129.679688 62.355469 L 120.351562 67.183594 L 118.414062 58.492188 L 124.835938 54.511719 Z M 129.679688 62.355469 "/>
<path style=" stroke:none;fill-rule:nonzero;fill:rgb(24.705882%,23.921569%,33.72549%);fill-opacity:1;" d="M 140.949219 91.4375 C 131.640625 88.636719 123.191406 87.183594 117.082031 89.386719 C 119.1875 83.480469 115.296875 74.464844 111.023438 65.25 C 112.867188 62.847656 115.808594 61.917969 119.140625 61.511719 C 122.785156 64.144531 125.324219 62.453125 127.257812 58.371094 C 131.46875 58.203125 135.53125 59.691406 139.492188 62.234375 C 136.394531 72.117188 136.953125 81.847656 140.949219 91.4375 Z M 140.949219 91.4375 "/>
<path style=" stroke:none;fill-rule:nonzero;fill:rgb(24.705882%,23.921569%,33.72549%);fill-opacity:1;" d="M 116.960938 90.832031 C 115.488281 91.695312 114.132812 93.148438 112.839844 94.9375 C 110.65625 93.605469 108.734375 92.085938 107.21875 90.285156 C 105.066406 87.683594 104.375 84.179688 105.386719 80.964844 L 109.527344 67.5625 C 109.871094 66.449219 110.539062 65.460938 111.445312 64.726562 L 111.992188 64.285156 L 117.445312 74.542969 L 111.992188 84.679688 C 112.683594 86.523438 114.71875 88.65625 116.960938 90.832031 Z M 116.960938 90.832031 "/>
<path style=" stroke:none;fill-rule:nonzero;fill:rgb(100%,72.54902%,72.54902%);fill-opacity:1;" d="M 118.835938 101.050781 C 117.832031 101.507812 116.675781 101.464844 115.707031 100.941406 C 114.742188 100.414062 114.078125 99.46875 113.917969 98.382812 L 113.019531 92.238281 L 116.167969 90.546875 L 120.164062 95.761719 C 120.8125 96.605469 121.039062 97.695312 120.78125 98.726562 C 120.519531 99.753906 119.804688 100.609375 118.835938 101.050781 Z M 118.835938 101.050781 "/>
<path style=" stroke:none;fill-rule:nonzero;fill:rgb(18.431373%,18.039216%,25.490196%);fill-opacity:1;" d="M 125.984375 52.527344 L 124.828125 52.558594 L 121.613281 48.027344 C 117.496094 48.449219 114.121094 50.234375 111.265625 52.960938 L 110.976562 51.039062 C 110.40625 47.234375 112.917969 43.644531 116.703125 42.867188 C 118.636719 42.46875 120.652344 42.875 122.28125 43.984375 C 123.910156 45.09375 125.015625 46.816406 125.347656 48.757812 Z M 125.984375 52.527344 "/>
<path style=" stroke:none;fill-rule:nonzero;fill:rgb(100%,72.54902%,72.54902%);fill-opacity:1;" d="M 112.957031 94.9375 C 112.5 93.941406 112.542969 92.785156 113.070312 91.824219 C 113.59375 90.859375 114.546875 90.199219 115.636719 90.042969 L 121.804688 89.144531 L 123.5 92.28125 L 118.269531 96.261719 C 117.421875 96.90625 116.324219 97.132812 115.292969 96.875 C 114.257812 96.617188 113.398438 95.902344 112.957031 94.9375 Z M 112.957031 94.9375 "/>
<path style=" stroke:none;fill-rule:nonzero;fill:rgb(24.705882%,23.921569%,33.72549%);fill-opacity:1;" d="M 142.121094 89.347656 C 136.253906 89.804688 129.847656 91.625 123.136719 94.210938 C 123.054688 92.226562 122.332031 90.324219 121.078125 88.78125 C 127.171875 87.183594 132.699219 85.308594 136.101562 82.386719 L 134.042969 66.941406 L 138.523438 61.871094 L 139.296875 62.273438 C 140.597656 62.945312 141.546875 64.136719 141.914062 65.546875 C 143.808594 72.878906 144.648438 79.90625 144.070312 86.515625 C 144.222656 87.8125 143.390625 89.023438 142.121094 89.347656 Z M 142.121094 89.347656 "/>
<path style=" stroke:none;fill-rule:nonzero;fill:rgb(24.705882%,23.921569%,33.72549%);fill-opacity:1;" d="M 23.972656 181.304688 C 18.511719 184.703125 13.054688 184.703125 7.597656 181.300781 C 7.246094 181.085938 7.042969 180.691406 7.070312 180.28125 L 8.773438 158.226562 L 22.550781 158.226562 L 24.496094 180.273438 C 24.53125 180.6875 24.328125 181.085938 23.972656 181.304688 Z M 23.972656 181.304688 "/>
<path style=" stroke:none;fill-rule:nonzero;fill:rgb(24.705882%,23.921569%,33.72549%);fill-opacity:1;" d="M 22.550781 158.476562 C 22.550781 157.101562 19.4375 155.984375 15.597656 155.984375 C 11.761719 155.984375 8.648438 157.101562 8.648438 158.476562 C 8.648438 159.855469 11.761719 160.972656 15.597656 160.972656 C 19.4375 160.972656 22.550781 159.855469 22.550781 158.476562 Z M 22.550781 158.476562 "/>
<path style=" stroke:none;fill-rule:nonzero;fill:rgb(38.823529%,59.607843%,100%);fill-opacity:1;" d="M 21.046875 157.636719 C 17.425781 160.171875 13.917969 160.171875 10.527344 157.636719 L 10.527344 153.644531 L 21.046875 153.644531 Z M 21.046875 157.636719 "/>
<path style=" stroke:none;fill-rule:nonzero;fill:rgb(38.823529%,59.607843%,100%);fill-opacity:1;" d="M 21.046875 153.644531 C 21.046875 152.542969 18.691406 151.648438 15.789062 151.648438 C 12.882812 151.648438 10.527344 152.542969 10.527344 153.644531 C 10.527344 154.746094 12.882812 155.640625 15.789062 155.640625 C 18.691406 155.640625 21.046875 154.746094 21.046875 153.644531 Z M 21.046875 153.644531 "/>
<path style=" stroke:none;fill-rule:nonzero;fill:rgb(90.196078%,90.196078%,90.196078%);fill-opacity:1;" d="M 16.539062 153.394531 C 16.539062 153.257812 16.316406 153.144531 16.039062 153.144531 C 15.761719 153.144531 15.539062 153.257812 15.539062 153.394531 C 15.539062 153.53125 15.761719 153.644531 16.039062 153.644531 C 16.316406 153.644531 16.539062 153.53125 16.539062 153.394531 Z M 16.539062 153.394531 "/>
<path style=" stroke:none;fill-rule:nonzero;fill:rgb(90.196078%,90.196078%,90.196078%);fill-opacity:1;" d="M 18.90625 153.394531 C 18.90625 153.257812 18.679688 153.144531 18.402344 153.144531 C 18.125 153.144531 17.902344 153.257812 17.902344 153.394531 C 17.902344 153.53125 18.125 153.644531 18.402344 153.644531 C 18.679688 153.644531 18.90625 153.53125 18.90625 153.394531 Z M 18.90625 153.394531 "/>
<path style=" stroke:none;fill-rule:nonzero;fill:rgb(90.196078%,90.196078%,90.196078%);fill-opacity:1;" d="M 17.722656 153.984375 C 17.722656 153.847656 17.496094 153.734375 17.222656 153.734375 C 16.945312 153.734375 16.71875 153.847656 16.71875 153.984375 C 16.71875 154.121094 16.945312 154.234375 17.222656 154.234375 C 17.496094 154.234375 17.722656 154.121094 17.722656 153.984375 Z M 17.722656 153.984375 "/>
<path style=" stroke:none;fill-rule:nonzero;fill:rgb(90.196078%,90.196078%,90.196078%);fill-opacity:1;" d="M 12.992188 153.984375 C 12.992188 153.847656 12.765625 153.734375 12.492188 153.734375 C 12.214844 153.734375 11.988281 153.847656 11.988281 153.984375 C 11.988281 154.121094 12.214844 154.234375 12.492188 154.234375 C 12.765625 154.234375 12.992188 154.121094 12.992188 153.984375 Z M 12.992188 153.984375 "/>
<path style=" stroke:none;fill-rule:nonzero;fill:rgb(90.196078%,90.196078%,90.196078%);fill-opacity:1;" d="M 14.175781 153.394531 C 14.175781 153.257812 13.949219 153.144531 13.671875 153.144531 C 13.394531 153.144531 13.171875 153.257812 13.171875 153.394531 C 13.171875 153.53125 13.394531 153.644531 13.671875 153.644531 C 13.949219 153.644531 14.175781 153.53125 14.175781 153.394531 Z M 14.175781 153.394531 "/>
<path style=" stroke:none;fill-rule:nonzero;fill:rgb(90.196078%,90.196078%,90.196078%);fill-opacity:1;" d="M 15.355469 154.277344 C 15.355469 154.140625 15.132812 154.027344 14.855469 154.027344 C 14.578125 154.027344 14.355469 154.140625 14.355469 154.277344 C 14.355469 154.414062 14.578125 154.527344 14.855469 154.527344 C 15.132812 154.527344 15.355469 154.414062 15.355469 154.277344 Z M 15.355469 154.277344 "/>
<path style=" stroke:none;fill-rule:nonzero;fill:rgb(24.705882%,23.921569%,33.72549%);fill-opacity:1;" d="M 175.222656 181.304688 C 169.761719 184.703125 164.304688 184.703125 158.847656 181.300781 C 158.496094 181.085938 158.292969 180.691406 158.320312 180.28125 L 160.023438 158.226562 L 173.800781 158.226562 L 175.746094 180.273438 C 175.78125 180.6875 175.578125 181.085938 175.222656 181.304688 Z M 175.222656 181.304688 "/>
<path style=" stroke:none;fill-rule:nonzero;fill:rgb(24.705882%,23.921569%,33.72549%);fill-opacity:1;" d="M 173.800781 158.476562 C 173.800781 157.101562 170.6875 155.984375 166.847656 155.984375 C 163.011719 155.984375 159.898438 157.101562 159.898438 158.476562 C 159.898438 159.855469 163.011719 160.972656 166.847656 160.972656 C 170.6875 160.972656 173.800781 159.855469 173.800781 158.476562 Z M 173.800781 158.476562 "/>
<path style=" stroke:none;fill-rule:nonzero;fill:rgb(38.823529%,59.607843%,100%);fill-opacity:1;" d="M 172.296875 157.636719 C 168.675781 160.171875 165.167969 160.171875 161.777344 157.636719 L 161.777344 153.644531 L 172.296875 153.644531 Z M 172.296875 157.636719 "/>
<path style=" stroke:none;fill-rule:nonzero;fill:rgb(38.823529%,59.607843%,100%);fill-opacity:1;" d="M 172.296875 153.644531 C 172.296875 152.542969 169.941406 151.648438 167.039062 151.648438 C 164.132812 151.648438 161.777344 152.542969 161.777344 153.644531 C 161.777344 154.746094 164.132812 155.640625 167.039062 155.640625 C 169.941406 155.640625 172.296875 154.746094 172.296875 153.644531 Z M 172.296875 153.644531 "/>
<path style=" stroke:none;fill-rule:nonzero;fill:rgb(90.196078%,90.196078%,90.196078%);fill-opacity:1;" d="M 167.789062 153.394531 C 167.789062 153.257812 167.566406 153.144531 167.289062 153.144531 C 167.011719 153.144531 166.789062 153.257812 166.789062 153.394531 C 166.789062 153.53125 167.011719 153.644531 167.289062 153.644531 C 167.566406 153.644531 167.789062 153.53125 167.789062 153.394531 Z M 167.789062 153.394531 "/>
<path style=" stroke:none;fill-rule:nonzero;fill:rgb(90.196078%,90.196078%,90.196078%);fill-opacity:1;" d="M 170.15625 153.394531 C 170.15625 153.257812 169.929688 153.144531 169.652344 153.144531 C 169.375 153.144531 169.152344 153.257812 169.152344 153.394531 C 169.152344 153.53125 169.375 153.644531 169.652344 153.644531 C 169.929688 153.644531 170.15625 153.53125 170.15625 153.394531 Z M 170.15625 153.394531 "/>
<path style=" stroke:none;fill-rule:nonzero;fill:rgb(90.196078%,90.196078%,90.196078%);fill-opacity:1;" d="M 168.972656 153.984375 C 168.972656 153.847656 168.746094 153.734375 168.472656 153.734375 C 168.195312 153.734375 167.96875 153.847656 167.96875 153.984375 C 167.96875 154.121094 168.195312 154.234375 168.472656 154.234375 C 168.746094 154.234375 168.972656 154.121094 168.972656 153.984375 Z M 168.972656 153.984375 "/>
<path style=" stroke:none;fill-rule:nonzero;fill:rgb(90.196078%,90.196078%,90.196078%);fill-opacity:1;" d="M 164.242188 153.984375 C 164.242188 153.847656 164.015625 153.734375 163.742188 153.734375 C 163.464844 153.734375 163.238281 153.847656 163.238281 153.984375 C 163.238281 154.121094 163.464844 154.234375 163.742188 154.234375 C 164.015625 154.234375 164.242188 154.121094 164.242188 153.984375 Z M 164.242188 153.984375 "/>
<path style=" stroke:none;fill-rule:nonzero;fill:rgb(90.196078%,90.196078%,90.196078%);fill-opacity:1;" d="M 165.425781 153.394531 C 165.425781 153.257812 165.199219 153.144531 164.921875 153.144531 C 164.644531 153.144531 164.421875 153.257812 164.421875 153.394531 C 164.421875 153.53125 164.644531 153.644531 164.921875 153.644531 C 165.199219 153.644531 165.425781 153.53125 165.425781 153.394531 Z M 165.425781 153.394531 "/>
<path style=" stroke:none;fill-rule:nonzero;fill:rgb(90.196078%,90.196078%,90.196078%);fill-opacity:1;" d="M 166.605469 154.277344 C 166.605469 154.140625 166.382812 154.027344 166.105469 154.027344 C 165.828125 154.027344 165.605469 154.140625 165.605469 154.277344 C 165.605469 154.414062 165.828125 154.527344 166.105469 154.527344 C 166.382812 154.527344 166.605469 154.414062 166.605469 154.277344 Z M 166.605469 154.277344 "/>
</g>
</svg>
