<?xml version="1.0" encoding="UTF-8"?>
<svg xmlns="http://www.w3.org/2000/svg" xmlns:xlink="http://www.w3.org/1999/xlink" width="230pt" height="187pt" viewBox="0 0 230 187" version="1.1">
<defs>
<filter id="alpha" filterUnits="objectBoundingBox" x="0%" y="0%" width="100%" height="100%">
  <feColorMatrix type="matrix" in="SourceGraphic" values="0 0 0 0 1 0 0 0 0 1 0 0 0 0 1 0 0 0 1 0"/>
</filter>
<mask id="mask0">
  <g filter="url(#alpha)">
<rect x="0" y="0" width="230" height="187" style="fill:rgb(0%,0%,0%);fill-opacity:0.101961;stroke:none;"/>
  </g>
</mask>
<clipPath id="clip1">
  <rect x="0" y="0" width="230" height="187"/>
</clipPath>
<g id="surface5" clip-path="url(#clip1)">
<path style=" stroke:none;fill-rule:nonzero;fill:rgb(0%,0%,0%);fill-opacity:1;" d="M 31.183594 113.085938 L 29.6875 129.359375 L 34.675781 140.625 L 31.433594 129.109375 L 31.183594 112.835938 "/>
</g>
<mask id="mask1">
  <g filter="url(#alpha)">
<rect x="0" y="0" width="230" height="187" style="fill:rgb(0%,0%,0%);fill-opacity:0.101961;stroke:none;"/>
  </g>
</mask>
<clipPath id="clip2">
  <rect x="0" y="0" width="230" height="187"/>
</clipPath>
<g id="surface8" clip-path="url(#clip2)">
<path style=" stroke:none;fill-rule:nonzero;fill:rgb(0%,0%,0%);fill-opacity:1;" d="M 38.417969 114.839844 L 38.796875 134.023438 L 37.417969 123.601562 Z M 38.417969 114.839844 "/>
</g>
</defs>
<g id="surface1">
<path style=" stroke:none;fill-rule:nonzero;fill:rgb(24.705882%,23.921569%,33.72549%);fill-opacity:1;" d="M 70.347656 59.390625 C 69.679688 84.613281 103.183594 110.363281 145.003906 110.363281 C 186.824219 110.363281 253.425781 60.636719 221.796875 59.390625 C 160.847656 56.992188 139.960938 31.660156 146.070312 13.703125 C 157.015625 -18.453125 71.664062 9.726562 70.347656 59.390625 Z M 70.347656 59.390625 "/>
<path style=" stroke:none;fill-rule:nonzero;fill:rgb(38.823529%,59.607843%,100%);fill-opacity:1;" d="M 125.976562 39.414062 L 125.46875 39.089844 L 125.792969 38.578125 L 125.652344 38.488281 L 125.328125 39 L 124.820312 38.675781 L 124.730469 38.8125 L 125.238281 39.140625 L 124.914062 39.652344 L 125.054688 39.738281 L 125.378906 39.226562 L 125.886719 39.554688 Z M 125.976562 39.414062 "/>
<path style=" stroke:none;fill-rule:nonzero;fill:rgb(38.823529%,59.607843%,100%);fill-opacity:1;" d="M 163.894531 76.464844 L 163.386719 76.136719 L 163.710938 75.625 L 163.570312 75.539062 L 163.246094 76.050781 L 162.734375 75.722656 L 162.648438 75.863281 L 163.15625 76.1875 L 162.832031 76.699219 L 162.972656 76.789062 L 163.296875 76.277344 L 163.804688 76.601562 Z M 163.894531 76.464844 "/>
<path style=" stroke:none;fill-rule:nonzero;fill:rgb(38.823529%,59.607843%,100%);fill-opacity:1;" d="M 102.527344 71.957031 L 102.019531 71.632812 L 102.34375 71.121094 L 102.203125 71.03125 L 101.878906 71.542969 L 101.371094 71.21875 L 101.28125 71.355469 L 101.789062 71.683594 L 101.464844 72.195312 L 101.605469 72.28125 L 101.929688 71.769531 L 102.441406 72.097656 Z M 102.527344 71.957031 "/>
<path style=" stroke:none;fill-rule:nonzero;fill:rgb(38.823529%,59.607843%,100%);fill-opacity:1;" d="M 148.429688 95.988281 L 147.917969 95.664062 L 148.242188 95.152344 L 148.105469 95.0625 L 147.78125 95.574219 L 147.269531 95.25 L 147.179688 95.390625 L 147.691406 95.714844 L 147.367188 96.226562 L 147.503906 96.316406 L 147.828125 95.804688 L 148.339844 96.128906 Z M 148.429688 95.988281 "/>
<path style=" stroke:none;fill-rule:nonzero;fill:rgb(38.823529%,59.607843%,100%);fill-opacity:1;" d="M 105.769531 86.726562 L 105.261719 86.402344 L 105.585938 85.890625 L 105.445312 85.800781 L 105.121094 86.3125 L 104.613281 85.988281 L 104.523438 86.125 L 105.035156 86.453125 L 104.710938 86.964844 L 104.847656 87.054688 L 105.171875 86.542969 L 105.683594 86.867188 Z M 105.769531 86.726562 "/>
<path style=" stroke:none;fill-rule:nonzero;fill:rgb(38.823529%,59.607843%,100%);fill-opacity:1;" d="M 208.546875 74.460938 L 208.039062 74.136719 L 208.363281 73.625 L 208.222656 73.535156 L 207.898438 74.046875 L 207.390625 73.722656 L 207.300781 73.859375 L 207.808594 74.1875 L 207.484375 74.699219 L 207.625 74.785156 L 207.949219 74.273438 L 208.460938 74.601562 Z M 208.546875 74.460938 "/>
<path style=" stroke:none;fill-rule:nonzero;fill:rgb(38.823529%,59.607843%,100%);fill-opacity:1;" d="M 95.292969 44.171875 L 94.785156 43.84375 L 95.109375 43.332031 L 94.96875 43.246094 L 94.644531 43.757812 L 94.136719 43.429688 L 94.046875 43.570312 L 94.554688 43.894531 L 94.230469 44.40625 L 94.371094 44.496094 L 94.695312 43.984375 L 95.207031 44.308594 Z M 95.292969 44.171875 "/>
<path style=" stroke:none;fill-rule:nonzero;fill:rgb(100%,100%,100%);fill-opacity:1;" d="M 137.949219 49.796875 L 137.238281 49.34375 L 137.691406 48.625 L 137.496094 48.5 L 137.042969 49.21875 L 136.328125 48.761719 L 136.203125 48.957031 L 136.917969 49.414062 L 136.464844 50.128906 L 136.660156 50.253906 L 137.113281 49.539062 L 137.828125 49.992188 Z M 137.949219 49.796875 "/>
<path style=" stroke:none;fill-rule:nonzero;fill:rgb(38.823529%,59.607843%,100%);fill-opacity:1;" d="M 113.003906 58.515625 C 113.003906 58.929688 112.671875 59.265625 112.257812 59.265625 C 111.84375 59.265625 111.507812 58.929688 111.507812 58.515625 C 111.507812 58.101562 111.84375 57.761719 112.257812 57.761719 C 112.671875 57.761719 113.003906 58.101562 113.003906 58.515625 Z M 113.003906 58.515625 "/>
<path style=" stroke:none;fill-rule:nonzero;fill:rgb(38.823529%,59.607843%,100%);fill-opacity:1;" d="M 83.820312 58.515625 C 83.820312 58.929688 83.484375 59.265625 83.070312 59.265625 C 82.65625 59.265625 82.320312 58.929688 82.320312 58.515625 C 82.320312 58.101562 82.65625 57.761719 83.070312 57.761719 C 83.484375 57.761719 83.820312 58.101562 83.820312 58.515625 Z M 83.820312 58.515625 "/>
<path style=" stroke:none;fill-rule:nonzero;fill:rgb(38.823529%,59.607843%,100%);fill-opacity:1;" d="M 134.707031 30.976562 C 134.707031 31.390625 134.375 31.730469 133.960938 31.730469 C 133.546875 31.730469 133.210938 31.390625 133.210938 30.976562 C 133.210938 30.5625 133.546875 30.226562 133.960938 30.226562 C 134.375 30.226562 134.707031 30.5625 134.707031 30.976562 Z M 134.707031 30.976562 "/>
<path style=" stroke:none;fill-rule:nonzero;fill:rgb(38.823529%,59.607843%,100%);fill-opacity:1;" d="M 127.722656 76.789062 C 127.722656 77.203125 127.386719 77.539062 126.976562 77.539062 C 126.5625 77.539062 126.226562 77.203125 126.226562 76.789062 C 126.226562 76.375 126.5625 76.039062 126.976562 76.039062 C 127.386719 76.039062 127.722656 76.375 127.722656 76.789062 Z M 127.722656 76.789062 "/>
<path style=" stroke:none;fill-rule:nonzero;fill:rgb(38.823529%,59.607843%,100%);fill-opacity:1;" d="M 126.976562 61.019531 C 126.976562 61.292969 126.75 61.519531 126.476562 61.519531 C 126.199219 61.519531 125.976562 61.292969 125.976562 61.019531 C 125.976562 60.742188 126.199219 60.515625 126.476562 60.515625 C 126.75 60.515625 126.976562 60.742188 126.976562 61.019531 Z M 126.976562 61.019531 "/>
<path style=" stroke:none;fill-rule:nonzero;fill:rgb(100%,39.607843%,51.764706%);fill-opacity:1;" d="M 178.113281 83.046875 C 178.113281 83.324219 177.890625 83.546875 177.613281 83.546875 C 177.339844 83.546875 177.117188 83.324219 177.117188 83.046875 C 177.117188 82.769531 177.339844 82.546875 177.613281 82.546875 C 177.890625 82.546875 178.113281 82.769531 178.113281 83.046875 Z M 178.113281 83.046875 "/>
<path style=" stroke:none;fill-rule:nonzero;fill:rgb(100%,39.607843%,51.764706%);fill-opacity:1;" d="M 101.78125 55.761719 C 101.78125 56.039062 101.554688 56.261719 101.28125 56.261719 C 101.003906 56.261719 100.78125 56.039062 100.78125 55.761719 C 100.78125 55.484375 101.003906 55.261719 101.28125 55.261719 C 101.554688 55.261719 101.78125 55.484375 101.78125 55.761719 Z M 101.78125 55.761719 "/>
<path style=" stroke:none;fill-rule:nonzero;fill:rgb(100%,39.607843%,51.764706%);fill-opacity:1;" d="M 132.960938 15.207031 C 132.960938 15.484375 132.738281 15.707031 132.464844 15.707031 C 132.1875 15.707031 131.964844 15.484375 131.964844 15.207031 C 131.964844 14.929688 132.1875 14.707031 132.464844 14.707031 C 132.738281 14.707031 132.960938 14.929688 132.960938 15.207031 Z M 132.960938 15.207031 "/>
<path style=" stroke:none;fill-rule:nonzero;fill:rgb(38.823529%,59.607843%,100%);fill-opacity:1;" d="M 112.507812 38.488281 C 112.507812 38.765625 112.28125 38.988281 112.007812 38.988281 C 111.730469 38.988281 111.507812 38.765625 111.507812 38.488281 C 111.507812 38.210938 111.730469 37.988281 112.007812 37.988281 C 112.28125 37.988281 112.507812 38.210938 112.507812 38.488281 Z M 112.507812 38.488281 "/>
<path style=" stroke:none;fill-rule:nonzero;fill:rgb(100%,100%,100%);fill-opacity:1;" d="M 118.742188 21.714844 C 118.742188 21.992188 118.519531 22.214844 118.242188 22.214844 C 117.96875 22.214844 117.746094 21.992188 117.746094 21.714844 C 117.746094 21.4375 117.96875 21.214844 118.242188 21.214844 C 118.519531 21.214844 118.742188 21.4375 118.742188 21.714844 Z M 118.742188 21.714844 "/>
<path style=" stroke:none;fill-rule:nonzero;fill:rgb(38.823529%,59.607843%,100%);fill-opacity:1;" d="M 193.582031 66.777344 C 193.582031 67.191406 193.246094 67.527344 192.832031 67.527344 C 192.417969 67.527344 192.082031 67.191406 192.082031 66.777344 C 192.082031 66.359375 192.417969 66.023438 192.832031 66.023438 C 193.246094 66.023438 193.582031 66.359375 193.582031 66.777344 Z M 193.582031 66.777344 "/>
<path style=" stroke:none;fill-rule:nonzero;fill:rgb(38.823529%,59.607843%,100%);fill-opacity:1;" d="M 143.9375 69.53125 C 143.9375 69.945312 143.601562 70.28125 143.191406 70.28125 C 142.777344 70.28125 142.441406 69.945312 142.441406 69.53125 C 142.441406 69.113281 142.777344 68.777344 143.191406 68.777344 C 143.601562 68.777344 143.9375 69.113281 143.9375 69.53125 Z M 143.9375 69.53125 "/>
<path style=" stroke:none;fill-rule:nonzero;fill:rgb(38.823529%,59.607843%,100%);fill-opacity:1;" d="M 132.960938 87.304688 C 132.960938 88.6875 131.84375 89.804688 130.46875 89.804688 C 129.089844 89.804688 127.972656 88.6875 127.972656 87.304688 C 127.972656 85.921875 129.089844 84.800781 130.46875 84.800781 C 131.84375 84.800781 132.960938 85.921875 132.960938 87.304688 Z M 132.960938 87.304688 "/>
<path style=" stroke:none;fill-rule:nonzero;fill:rgb(100%,100%,100%);fill-opacity:1;" d="M 161.398438 60.015625 C 161.398438 60.429688 161.066406 60.769531 160.652344 60.769531 C 160.238281 60.769531 159.902344 60.429688 159.902344 60.015625 C 159.902344 59.601562 160.238281 59.265625 160.652344 59.265625 C 161.066406 59.265625 161.398438 59.601562 161.398438 60.015625 Z M 161.398438 60.015625 "/>
<path style=" stroke:none;fill-rule:nonzero;fill:rgb(18.431373%,18.039216%,25.490196%);fill-opacity:1;" d="M 22.933594 180.394531 C 22.933594 180.394531 21.535156 186.253906 22.804688 186.507812 C 24.074219 186.761719 30.292969 186.679688 31.816406 186.9375 C 33.339844 187.191406 36.511719 186.761719 36.511719 185.617188 C 36.511719 184.472656 33.214844 183.707031 33.214844 183.707031 C 33.214844 183.707031 28.515625 181.160156 28.390625 181.03125 C 28.261719 180.902344 22.933594 180.394531 22.933594 180.394531 Z M 22.933594 180.394531 "/>
<path style=" stroke:none;fill-rule:nonzero;fill:rgb(18.431373%,18.039216%,25.490196%);fill-opacity:1;" d="M 24.425781 138.558594 C 24.425781 138.558594 24.882812 143.734375 24.882812 144.191406 C 24.882812 144.648438 22.152344 168.710938 22.757812 173.585938 C 23.363281 178.457031 22.703125 180.015625 22.703125 180.929688 C 22.703125 181.84375 27.613281 181.503906 27.613281 181.503906 L 32.925781 147.847656 L 30.195312 137.796875 Z M 24.425781 138.558594 "/>
<path style=" stroke:none;fill-rule:nonzero;fill:rgb(18.431373%,18.039216%,25.490196%);fill-opacity:1;" d="M 24.710938 181.675781 C 24.710938 181.675781 23.441406 186.261719 24.710938 186.515625 C 25.980469 186.773438 32.199219 186.226562 33.722656 186.480469 C 35.246094 186.734375 38.417969 186.773438 38.417969 185.625 C 38.417969 184.480469 35.117188 183.714844 35.117188 183.714844 C 35.117188 183.714844 30.421875 181.167969 30.292969 181.039062 C 30.167969 180.914062 24.710938 181.675781 24.710938 181.675781 Z M 24.710938 181.675781 "/>
<path style=" stroke:none;fill-rule:nonzero;fill:rgb(18.431373%,18.039216%,25.490196%);fill-opacity:1;" d="M 23.0625 132.464844 C 23.0625 132.464844 21.242188 136.882812 23.363281 139.167969 C 25.488281 141.453125 27.917969 146.019531 27.917969 146.324219 C 27.917969 146.628906 23.667969 176.933594 24.277344 178.914062 C 24.882812 180.894531 24.730469 182.113281 24.578125 182.417969 C 24.425781 182.722656 26.097656 184.398438 27.917969 184.398438 C 29.738281 184.398438 32.46875 183.027344 32.773438 181.808594 C 33.078125 180.589844 32.320312 170.082031 32.46875 168.101562 C 32.621094 166.121094 38.691406 134.445312 37.933594 133.683594 C 37.175781 132.921875 23.0625 132.464844 23.0625 132.464844 Z M 23.0625 132.464844 "/>
<path style=" stroke:none;fill-rule:nonzero;fill:rgb(62.352941%,38.039216%,41.568627%);fill-opacity:1;" d="M 39.753906 92.261719 C 39.753906 95.121094 37.445312 97.441406 34.59375 97.441406 C 31.746094 97.441406 29.433594 95.121094 29.433594 92.261719 C 29.433594 89.402344 31.746094 87.085938 34.59375 87.085938 C 37.445312 87.085938 39.753906 89.402344 39.753906 92.261719 Z M 39.753906 92.261719 "/>
<path style=" stroke:none;fill-rule:nonzero;fill:rgb(62.352941%,38.039216%,41.568627%);fill-opacity:1;" d="M 31.40625 94.851562 C 31.40625 94.851562 32.46875 100.484375 31.710938 101.09375 C 30.953125 101.703125 37.476562 102.617188 37.476562 102.617188 C 37.476562 102.617188 38.238281 95.15625 38.390625 94.394531 C 38.539062 93.632812 31.40625 94.851562 31.40625 94.851562 Z M 31.40625 94.851562 "/>
<path style=" stroke:none;fill-rule:nonzero;fill:rgb(38.823529%,59.607843%,100%);fill-opacity:1;" d="M 38.390625 102.160156 C 38.390625 102.160156 39.367188 96.796875 31.929688 98.316406 C 31.929688 98.316406 25.140625 103.90625 25.445312 109.082031 C 25.75 114.261719 23.0625 129.269531 23.363281 130.335938 C 23.667969 131.402344 21.542969 132.769531 22.453125 133.226562 C 23.363281 133.683594 39.753906 136.425781 40.210938 133.226562 C 40.664062 130.03125 40.058594 121.957031 40.363281 120.4375 C 40.664062 118.914062 40.363281 106.121094 39.449219 104.597656 C 38.539062 103.074219 38.390625 102.160156 38.390625 102.160156 Z M 38.390625 102.160156 "/>
<path style=" stroke:none;fill-rule:nonzero;fill:rgb(62.352941%,38.039216%,41.568627%);fill-opacity:1;" d="M 35.203125 139.320312 C 35.203125 139.320312 32.925781 148 35.808594 148 C 38.691406 148 38.539062 139.015625 38.539062 139.015625 Z M 35.203125 139.320312 "/>
<path style=" stroke:none;fill-rule:nonzero;fill:rgb(18.431373%,18.039216%,25.490196%);fill-opacity:1;" d="M 36.695312 93.125 C 36.632812 93.5625 35.960938 93.742188 34.972656 93.660156 C 34.554688 93.621094 34.140625 93.546875 33.734375 93.445312 C 33.117188 93.292969 32.769531 93.84375 32.546875 94.605469 C 32.179688 95.859375 32.152344 97.691406 31.828125 97.933594 C 29.574219 99.183594 22.910156 90.796875 26.324219 88.625 C 27.539062 87.851562 31.632812 84.964844 34.460938 85.546875 C 37.292969 86.132812 36.144531 89.652344 36.144531 89.652344 C 36.144531 89.652344 36.25 90.117188 36.367188 90.710938 C 36.535156 91.457031 36.648438 92.21875 36.707031 92.984375 C 36.707031 93.03125 36.703125 93.078125 36.695312 93.125 Z M 36.695312 93.125 "/>
<path style=" stroke:none;fill-rule:nonzero;fill:rgb(38.823529%,59.607843%,100%);fill-opacity:1;" d="M 37.023438 103.683594 C 37.023438 103.683594 31.863281 103.378906 31.40625 110.992188 C 30.953125 118.609375 31.105469 125.765625 31.105469 125.917969 C 31.105469 126.070312 33.230469 140.539062 35.203125 140.539062 C 37.175781 140.539062 38.691406 140.234375 39.148438 139.472656 C 39.601562 138.710938 37.933594 127.746094 37.933594 127.746094 C 37.933594 127.746094 37.175781 116.171875 38.390625 112.515625 C 39.601562 108.863281 39.753906 104.140625 37.023438 103.683594 Z M 37.023438 103.683594 "/>
<use xlink:href="#surface5" mask="url(#mask0)"/>
<use xlink:href="#surface8" mask="url(#mask1)"/>
<path style=" stroke:none;fill-rule:nonzero;fill:rgb(24.705882%,23.921569%,33.72549%);fill-opacity:1;" d="M 64.292969 187.089844 L 0 187.089844 L 0 186.5625 L 64.390625 186.5625 Z M 64.292969 187.089844 "/>
</g>
</svg>
